<svg id="Camada_1" data-name="Camada 1" xmlns="http://www.w3.org/2000/svg" xmlns:xlink="http://www.w3.org/1999/xlink" viewBox="0 0 850 511.33"><defs><style>.cls-1{fill:none;}.cls-2{fill:#eaa000;}.cls-3{fill:#97d8dd;}.cls-4{fill:#027e8f;}.cls-5{fill:#65c4d1;}.cls-6{fill:#fff;}.cls-7{clip-path:url(#clip-path);}.cls-8{fill:#c9a68f;}.cls-9{fill:#eac2a7;}.cls-10{fill:#d6aa8b;}.cls-11{fill:#d6d6d6;}.cls-12{fill:#c99f4b;}.cls-13{fill:#6d5f56;}.cls-14{fill:#f4f4f4;}.cls-15{clip-path:url(#clip-path-2);}.cls-16{fill:#b7b7b7;}.cls-17{fill:#6d472e;}.cls-18{fill:#c99e32;}.cls-19{clip-path:url(#clip-path-3);}.cls-20{fill:#aa7e30;}.cls-21{fill:#ddd;}.cls-22{fill:#846829;}.cls-23{fill:#e8cd95;}.cls-24{clip-path:url(#clip-path-4);}</style><clipPath id="clip-path"><path class="cls-1" d="M251.36,485.15s-46.93,35.65-125.54,6.36S47.21,237.19,47.21,237.19s72.3-107.46,88.47-104.59,110.46,21.15,110.46,55.82,42,190.28,42,190.28,17.62,68.25,8.81,73.44"/></clipPath><clipPath id="clip-path-2"><path class="cls-1" d="M187.5,499.62c5.23,10.36,42,12.55,45,13.52,0,0,1-41.62-4.91-65S187.5,499.62,187.5,499.62Z"/></clipPath><clipPath id="clip-path-3"><path class="cls-1" d="M142.82,241.69c6.48,2.68.9-8.93.9-8.93s-.62-11.65-3.91-13.63a47.23,47.23,0,0,1-7.2-5.88l16.56-11.35,45.26-31s6.26-8.71-8-14.07a17,17,0,0,0-17.32-5.14s-6.25-7.49-15.3-.62c0,0-18.21-1.06-22.34,7.88a6.79,6.79,0,0,0-6.7,3.8s-3.8,1.45-4.53,4.52c0,0-9.21,3.63-9.77,9.78,0,0-5,7-1,12.73,0,0-2.65,5,.79,8.43,0,0-7.71,8.44,0,13.69,0,0-1.9,5.47,9.38,7.7l3.35,6.93s3.23-1.47,12.51,7.82Z"/></clipPath><clipPath id="clip-path-4"><path class="cls-1" d="M251.36-224.56s-46.93,35.65-125.54,6.36S47.21-472.52,47.21-472.52,119.51-580,135.68-577.11,246.14-556,246.14-521.29s42,190.28,42,190.28,17.62,68.25,8.81,73.44"/></clipPath></defs><title>Fala2</title><path class="cls-2" d="M178.5,159.48c93.46.11,169.21,76.65,169.31,171.09S272,501.67,178.5,501.67,9.18,425.07,9.18,330.57,85,159.48,178.5,159.48m0-8h0a174.74,174.74,0,0,0-69.06,14.09A176.81,176.81,0,0,0,53.08,204a180.11,180.11,0,0,0,0,253.21,176.81,176.81,0,0,0,56.36,38.4,176.26,176.26,0,0,0,138.11,0,176.81,176.81,0,0,0,56.36-38.4,179.73,179.73,0,0,0-56.39-291.56,175.08,175.08,0,0,0-69-14.14Z"/><path class="cls-3" d="M178.49,159.48C85,159.48,9.18,236.08,9.18,330.57S85,501.67,178.49,501.67s169.32-76.6,169.32-171.1S272,159.59,178.49,159.48Zm0,330.78c-87.27,0-158-71.49-158-159.69s70.75-159.68,158-159.68,158,71.49,158,159.68S265.73,490.16,178.49,490.26Z"/><path class="cls-3" d="M258.4,206.29a5.54,5.54,0,0,0-4.25-.8,5.64,5.64,0,0,0-3.56,2.46l-9.24,14.35a5.74,5.74,0,0,0,1.8,8,76.27,76.27,0,0,1,6.33,4.56c1.27,1,2.54,2,3.53,2.66,1.75,1.46,3.44,3,5.11,4.55l-3.9,3.94a112.44,112.44,0,0,0-24.74-17.12L241,202.71a5.75,5.75,0,0,0,.11-4.37,5.67,5.67,0,0,0-3-3.17,146.34,146.34,0,0,0-52-12.51,5.55,5.55,0,0,0-4.08,1.45,5.69,5.69,0,0,0-1.85,3.95l-.87,17.08a5.68,5.68,0,0,0,5.33,6l5.94.3,6.33,1c.81.14,1.63.26,2.44.38,1.22.17,2.44.35,3.51.6l.78.2-1.48,5.58a114.12,114.12,0,0,0-29.89-2.44l-2.93-28.54a5.68,5.68,0,0,0-2.06-3.84,5.57,5.57,0,0,0-4.15-1.24,144.11,144.11,0,0,0-51.28,15.44,5.73,5.73,0,0,0-2.45,7.67l7.7,15.23a5.63,5.63,0,0,0,7.4,2.59c1.13-.53,2.25-1.09,3.38-1.65a57.68,57.68,0,0,1,8.07-3.5l1.44-.54c1.7-.64,3.34-1.26,5-1.81l1.46,5.52c-1.39.48-2.74,1-4.08,1.48l-1.34.52a52.9,52.9,0,0,0-8,3.43c-1,.48-1.93,1-3.4,1.67l-9.56,5.56-.65.37L100.19,212a5.67,5.67,0,0,0-3.69-2.28,5.58,5.58,0,0,0-4.2,1,147.86,147.86,0,0,0-36.8,39.11,5.73,5.73,0,0,0,1.65,7.9l14.19,9.33a5.62,5.62,0,0,0,7.9-1.81,73.1,73.1,0,0,1,4.49-6.38c1-1.3,2-2.59,2.65-3.6,1.45-1.76,3-3.46,4.51-5.16l3.9,3.95a113.64,113.64,0,0,0-17,25L52,267.39a5.63,5.63,0,0,0-7.46,2.89,150.58,150.58,0,0,0-12.38,52.56,5.69,5.69,0,0,0,5.35,6l16.91.88a5.61,5.61,0,0,0,4.07-1.45,5.69,5.69,0,0,0,1.85-3.94l.3-6,1-6.39c.15-.83.26-1.65.38-2.48.17-1.23.34-2.47.59-3.54l.19-.78,5.54,1.49a116.91,116.91,0,0,0-2.43,30.2l-28.24,3a5.58,5.58,0,0,0-3.79,2.08,5.68,5.68,0,0,0-1.23,4.18,149.58,149.58,0,0,0,15.28,51.82,5.58,5.58,0,0,0,7.59,2.48l15.07-7.77a5.74,5.74,0,0,0,2.56-7.48c-.52-1.13-1.07-2.25-1.61-3.37a60.45,60.45,0,0,1-3.49-8.2l-.55-1.5c-.63-1.7-1.23-3.35-1.77-5l5.53-1.49a113.44,113.44,0,0,0,12.88,27.29L61.13,409.7a5.73,5.73,0,0,0-1.24,8,147.36,147.36,0,0,0,38.7,37.19,5.54,5.54,0,0,0,4.25.8,5.62,5.62,0,0,0,3.56-2.47l9.23-14.34a5.73,5.73,0,0,0-1.79-8,74.63,74.63,0,0,1-6.33-4.56c-1.27-1-2.54-2-3.53-2.66-1.76-1.46-3.44-3-5.11-4.55l4-4c1.51,1.39,3.06,2.8,4.94,4.36,1.1.78,2.17,1.61,3.24,2.44a67.54,67.54,0,0,0,6.29,4.47l10.08,5.85.12.06L116,458.44a5.75,5.75,0,0,0-.11,4.37,5.62,5.62,0,0,0,3,3.16,146.3,146.3,0,0,0,52,12.52h.29a5.67,5.67,0,0,0,5.63-5.41l.88-17.08a5.68,5.68,0,0,0-5.33-6l-5.94-.31-6.33-1c-.81-.14-1.63-.26-2.44-.38-1.22-.18-2.44-.35-3.51-.6l-.78-.2,1.48-5.59a114.13,114.13,0,0,0,29.89,2.45L187.61,473a5.74,5.74,0,0,0,2.06,3.84,5.62,5.62,0,0,0,4.15,1.24A144.31,144.31,0,0,0,245.1,462.6a5.74,5.74,0,0,0,2.46-7.67l-7.71-15.24a5.62,5.62,0,0,0-7.39-2.58c-1.14.53-2.26,1.09-3.39,1.65a58.08,58.08,0,0,1-8.06,3.5l-1.44.54c-1.7.64-3.35,1.26-5,1.81L213.1,439a111.13,111.13,0,0,0,27-13l16.68,23.17a5.62,5.62,0,0,0,7.89,1.26,148.06,148.06,0,0,0,36.81-39.11,5.8,5.8,0,0,0,.79-4.3,5.68,5.68,0,0,0-2.45-3.6l-14.19-9.33a5.62,5.62,0,0,0-7.9,1.81,73.1,73.1,0,0,1-4.49,6.38c-1,1.3-2,2.59-2.65,3.6-1.45,1.76-3,3.46-4.51,5.16l-3.9-4a113.64,113.64,0,0,0,16.95-25L305,393.76a5.63,5.63,0,0,0,7.45-2.89,150.32,150.32,0,0,0,12.39-52.57,5.69,5.69,0,0,0-5.35-6l-16.91-.88a5.7,5.7,0,0,0-5.92,5.39l-.3,6-1,6.39c-.15.83-.26,1.65-.38,2.48-.18,1.23-.35,2.47-.59,3.54l-.2.78-5.44-1.47,0-.13c.3-1.33.5-2.69.68-4,.09-.64.17-1.27.3-2l.86-5.61a5.7,5.7,0,0,0,.06-.58l.3-6V324.6l0-.26,28.35-3a5.6,5.6,0,0,0,3.8-2.08,5.77,5.77,0,0,0,1.23-4.18,150.13,150.13,0,0,0-15.28-51.83,5.61,5.61,0,0,0-7.59-2.47l-15.08,7.77a5.73,5.73,0,0,0-2.55,7.48c.52,1.13,1.06,2.25,1.6,3.37a58,58,0,0,1,3.49,8.2l.55,1.5c.63,1.7,1.24,3.35,1.78,5l-5.53,1.49a113.47,113.47,0,0,0-12.89-27.29l22.93-16.86a5.73,5.73,0,0,0,1.24-8A147.36,147.36,0,0,0,258.4,206.29Zm3.44,56.07a5.73,5.73,0,0,0-1.25,8A102.16,102.16,0,0,1,276.51,304a5.66,5.66,0,0,0,6.9,4l16.36-4.42a5.72,5.72,0,0,0,4.07-6.7,83.48,83.48,0,0,0-3.69-11.79l-.45-1.22a59.81,59.81,0,0,0-3.16-7.74l5-2.59a138.89,138.89,0,0,1,10.94,37l-27.95,2.93a5.68,5.68,0,0,0-5.05,6l.28,5.53V336l-.28,5.37-.8,5.24c-.13.74-.23,1.49-.34,2.24-.14,1-.27,2-.46,2.87l-1.41,5.49a5.71,5.71,0,0,0,4,6.94l16.36,4.42a5.64,5.64,0,0,0,6.92-4.09l1.66-6.5c.35-1.52.57-3.07.79-4.62.11-.73.2-1.46.34-2.28l1-7,.05-.88,5.54.29A139.33,139.33,0,0,1,304.36,381L278.7,369.4a5.54,5.54,0,0,0-4.32-.11,5.69,5.69,0,0,0-3.14,3,102.26,102.26,0,0,1-20.92,30.87,5.76,5.76,0,0,0,0,8.06l12,12.1a5.5,5.5,0,0,0,4.15,1.66,5.57,5.57,0,0,0,4.05-1.91q1.51-1.71,3.06-3.4c2-2.14,3.91-4.3,6-6.86.86-1.22,1.77-2.42,2.67-3.61.63-.83,1.27-1.67,1.89-2.52l4.74,3.11a136.05,136.05,0,0,1-26.3,28l-16.55-23a5.59,5.59,0,0,0-7.88-1.25,100.21,100.21,0,0,1-33.35,16.07,5.68,5.68,0,0,0-3.43,2.66,5.74,5.74,0,0,0-.56,4.33l4.37,16.53a5.65,5.65,0,0,0,6.64,4.1,81.65,81.65,0,0,0,11.7-3.74l1.17-.44a57.49,57.49,0,0,0,7.65-3.2l2.57,5.09a135.64,135.64,0,0,1-36.64,11l-2.9-28.24a5.67,5.67,0,0,0-2-3.84,5.56,5.56,0,0,0-4.13-1.24,102.62,102.62,0,0,1-37-3,5.58,5.58,0,0,0-4.28.57,5.67,5.67,0,0,0-2.63,3.46l-4.38,16.53a5.75,5.75,0,0,0,.58,4.35,5.64,5.64,0,0,0,3.47,2.65l6.43,1.66c1.51.36,3,.59,4.58.81.72.11,1.43.21,2.24.35l7,1.05.87,0-.29,5.6a135.3,135.3,0,0,1-37.16-8.93l11.44-25.92a5.72,5.72,0,0,0-2.7-7.46l-4.69-2.27-9.63-5.59a58,58,0,0,1-5.13-3.7c-1.2-.93-2.4-1.86-3.28-2.45-1.63-1.36-3.18-2.81-4.74-4.25-1.16-1.08-2.33-2.16-3.52-3.22a5.6,5.6,0,0,0-7.7.27l-12,12.09a5.74,5.74,0,0,0,.23,8.3c1.12,1,2.22,2,3.32,3,2.14,2,4.29,4,6.84,6.09,1.21.87,2.38,1.78,3.56,2.69q1.23,1,2.52,1.92l-3.09,4.79a135.59,135.59,0,0,1-27.66-26.58L95.15,398.8a5.74,5.74,0,0,0,1.25-8,102.31,102.31,0,0,1-15.92-33.69,5.64,5.64,0,0,0-6.9-4l-16.36,4.42a5.71,5.71,0,0,0-4.07,6.7A84.8,84.8,0,0,0,56.84,376l.45,1.21A60,60,0,0,0,60.45,385l-5,2.59a139.07,139.07,0,0,1-10.94-37l27.95-2.93a5.69,5.69,0,0,0,5-6.23,105.67,105.67,0,0,1,3-37.35,5.74,5.74,0,0,0-.56-4.33A5.62,5.62,0,0,0,76.48,297l-16.35-4.42a5.61,5.61,0,0,0-4.31.59,5.67,5.67,0,0,0-2.62,3.5l-1.65,6.5c-.35,1.52-.57,3.07-.79,4.62-.11.73-.21,1.45-.34,2.28l-1,7-.05.87-5.54-.28a139.33,139.33,0,0,1,8.84-37.55l25.66,11.56a5.54,5.54,0,0,0,4.32.11,5.64,5.64,0,0,0,3.13-3A102.29,102.29,0,0,1,106.67,258a5.77,5.77,0,0,0,0-8.06l-12-12.1a5.6,5.6,0,0,0-8.2.25c-1,1.14-2,2.27-3.06,3.4-2,2.14-3.91,4.3-6,6.86-.87,1.22-1.77,2.42-2.67,3.61-.63.83-1.27,1.66-1.89,2.52l-4.75-3.11a136.37,136.37,0,0,1,26.31-28l16.55,23a5.6,5.6,0,0,0,7.89,1.25l1.31-1a19.54,19.54,0,0,1,2.77-1.92l9.23-5.4c1.09-.5,2.16-1,3.24-1.57a45,45,0,0,1,6.61-2.86l1.68-.63a57.49,57.49,0,0,1,8.17-2.61,5.68,5.68,0,0,0,3.67-2.59,5.8,5.8,0,0,0,.65-4.47L151.83,208a5.65,5.65,0,0,0-6.63-4.11,83.06,83.06,0,0,0-11.71,3.74l-1.16.44a56.94,56.94,0,0,0-7.65,3.2l-2.57-5.08a135.55,135.55,0,0,1,36.64-11.05l2.89,28.24a5.67,5.67,0,0,0,2,3.84,5.59,5.59,0,0,0,4.13,1.25,102.65,102.65,0,0,1,37,3,5.63,5.63,0,0,0,4.28-.57,5.76,5.76,0,0,0,2.63-3.47L216.05,211a5.79,5.79,0,0,0-.57-4.35A5.68,5.68,0,0,0,212,204l-6.42-1.66c-1.52-.36-3.05-.59-4.59-.81-.72-.11-1.43-.21-2.25-.35l-7-1.05-.87,0,.29-5.6a135.3,135.3,0,0,1,37.16,8.93l-11.44,25.93a5.75,5.75,0,0,0-.11,4.37,5.64,5.64,0,0,0,3,3.16A101.36,101.36,0,0,1,250.34,258a5.61,5.61,0,0,0,8,0l12-12.1a5.73,5.73,0,0,0-.23-8.29c-1.12-1-2.22-2-3.32-3-2.15-2-4.29-4-6.84-6.09-1.21-.87-2.38-1.78-3.56-2.68-.82-.64-1.66-1.29-2.52-1.93l3.09-4.79a136.12,136.12,0,0,1,27.66,26.58Z"/><path class="cls-3" d="M178.49,239.32a90,90,0,0,0-78.36,45.77,91.91,91.91,0,0,0,.49,91.46,5.58,5.58,0,0,0,.35.58,91.51,91.51,0,0,0,23,26c.15.1.23.25.39.34l.12,0a88.86,88.86,0,0,0,108,0,1.56,1.56,0,0,1,.15-.06c.16-.09.24-.24.38-.34a91.39,91.39,0,0,0,23-26,5.58,5.58,0,0,0,.35-.58,91.89,91.89,0,0,0,.48-91.46A90,90,0,0,0,178.49,239.32Zm-10.17,12.15L105.67,361.56A80.52,80.52,0,0,1,110,290.82,78.92,78.92,0,0,1,168.32,251.47ZM134.63,396.94l43.86-77.06,43.87,77.06a78.12,78.12,0,0,1-87.73,0Zm96.69-7.15L185.84,309.9a8.43,8.43,0,0,0-14.69,0l-45.48,79.88a79.94,79.94,0,0,1-13.73-16.34l66.56-117,12.91,22.63a4.66,4.66,0,0,0,.25.5l53.39,93.86a80.26,80.26,0,0,1-13.73,16.34Zm20-28.23-49.6-87.21c-.08-.17-.17-.35-.27-.52l-12.75-22.35A78.88,78.88,0,0,1,247,290.83a80.49,80.49,0,0,1,4.31,70.73Z"/><path class="cls-4" d="M597.35,34.84c-131.17,0-239,88.6-251.43,202l-74.67,29.74s-4.88,1.8-4.39,8.8a9.53,9.53,0,0,0,5.58,8.17L350.6,307c24.89,100.48,125.91,175.68,246.75,175.68C736.89,482.64,850,382.4,850,258.74S736.89,34.84,597.35,34.84Z"/><path class="cls-5" d="M597.31,1.67c-131.17,0-239,88.6-251.43,202l-74.67,29.74s-4.88,1.8-4.39,8.8a9.53,9.53,0,0,0,5.58,8.17l78.16,23.46c24.89,100.47,125.91,175.67,246.75,175.67C736.85,449.47,850,349.23,850,225.57S736.85,1.67,597.31,1.67Z"/><path class="cls-6" d="M423.77,159.5v.95l-1.74.14v14.58h-1.27L412,161.69h-.06v12.39l1.73.14v.94h-4.75v-.94l1.74-.14v-13.5l-1.74-.14v-.95h3L420.7,173l.06,0V160.59l-1.73-.14v-.95h4.74Z"/><path class="cls-6" d="M433.48,175.17c-.09-.39-.15-.73-.19-1a8.46,8.46,0,0,1-.05-.87,5.22,5.22,0,0,1-1.7,1.52,4.8,4.8,0,0,1-2.4.6,3.63,3.63,0,0,1-2.62-.88,3.15,3.15,0,0,1-.93-2.39,3,3,0,0,1,1.37-2.57,6.5,6.5,0,0,1,3.73-.94h2.55v-1.54a2.48,2.48,0,0,0-.79-2,3.19,3.19,0,0,0-2.22-.71,5.46,5.46,0,0,0-1.76.26,3.79,3.79,0,0,0-1.32.72L427,167H426l0-2.24a6.55,6.55,0,0,1,1.91-1,7.36,7.36,0,0,1,2.37-.38,4.58,4.58,0,0,1,3.07,1,3.48,3.48,0,0,1,1.16,2.81v5.73c0,.23,0,.46,0,.68s0,.43.06.64l1.16.08v.94Zm.45-16.14a2.19,2.19,0,0,1-.58,1.57,1.92,1.92,0,0,1-1.46.63,2.78,2.78,0,0,1-1.61-.59,2.54,2.54,0,0,0-1.4-.6,1.1,1.1,0,0,0-.84.38,1.36,1.36,0,0,0-.34,1l-.84-.19a2.24,2.24,0,0,1,.57-1.56,1.86,1.86,0,0,1,1.45-.63,2.93,2.93,0,0,1,1.57.59,2.79,2.79,0,0,0,1.44.59,1.12,1.12,0,0,0,.84-.38,1.43,1.43,0,0,0,.35-1Zm-4.65,15.23a4.61,4.61,0,0,0,2.44-.65,3.75,3.75,0,0,0,1.52-1.67v-2.33h-2.57a4.76,4.76,0,0,0-2.77.72,2.17,2.17,0,0,0-1,1.84,1.92,1.92,0,0,0,.64,1.51A2.54,2.54,0,0,0,429.28,174.26Z"/><path class="cls-6" d="M437.56,169.18A6.28,6.28,0,0,1,439,165a5,5,0,0,1,7.41,0,6.28,6.28,0,0,1,1.4,4.22v.35a6.38,6.38,0,0,1-1.39,4.23,5,5,0,0,1-7.42,0,6.32,6.32,0,0,1-1.39-4.23Zm1.28.35a5.53,5.53,0,0,0,1,3.4,3.54,3.54,0,0,0,5.61,0,5.53,5.53,0,0,0,1-3.4v-.35a5.59,5.59,0,0,0-1-3.39,3.54,3.54,0,0,0-5.61,0,5.58,5.58,0,0,0-1,3.39Z"/><path class="cls-6" d="M455.05,174.23l1.74-.14v-9.47l-1.74-.14v-1h3v10.57l1.74.14v.94h-4.75Zm3-14h-1.27v-1.8h1.27Z"/><path class="cls-6" d="M461.66,164.48v-1h2.87l.12,1.93a4,4,0,0,1,1.48-1.58,4.11,4.11,0,0,1,2.2-.56,3.32,3.32,0,0,1,3.48,2.64,4.56,4.56,0,0,1,1.48-1.94,3.89,3.89,0,0,1,2.35-.7,3.45,3.45,0,0,1,2.85,1.24,6,6,0,0,1,1,3.83v5.7l1.74.15v.94h-4.77v-.94l1.74-.15v-5.72a4.74,4.74,0,0,0-.75-3,2.57,2.57,0,0,0-2.09-.89,2.83,2.83,0,0,0-2.3,1,4.58,4.58,0,0,0-1,2.44c0,.06,0,.11,0,.16v6.1l1.74.14v.94h-4.75v-.94l1.74-.14v-5.73a4.68,4.68,0,0,0-.77-3,2.55,2.55,0,0,0-2.09-.91,3.18,3.18,0,0,0-2.16.69,3.67,3.67,0,0,0-1.11,1.87v7.1l1.74.14v.94h-4.76v-.94l1.74-.14v-9.47Z"/><path class="cls-6" d="M490.78,175.17c-.09-.39-.15-.73-.19-1a8.46,8.46,0,0,1,0-.87,5.22,5.22,0,0,1-1.7,1.52,4.8,4.8,0,0,1-2.4.6,3.63,3.63,0,0,1-2.62-.88,3.15,3.15,0,0,1-.93-2.39,3,3,0,0,1,1.37-2.57,6.5,6.5,0,0,1,3.73-.94h2.55v-1.54a2.48,2.48,0,0,0-.79-2,3.19,3.19,0,0,0-2.22-.71,5.46,5.46,0,0,0-1.76.26,3.79,3.79,0,0,0-1.32.72l-.11,1.56h-1.06v-2.24a6.61,6.61,0,0,1,1.92-1,7.36,7.36,0,0,1,2.37-.38,4.58,4.58,0,0,1,3.07,1,3.48,3.48,0,0,1,1.16,2.81v5.73c0,.23,0,.46,0,.68s0,.43.06.64l1.15.08v.94Zm-4.2-.91a4.61,4.61,0,0,0,2.44-.65,3.75,3.75,0,0,0,1.52-1.67v-2.33H488a4.76,4.76,0,0,0-2.77.72,2.17,2.17,0,0,0-1,1.84,1.92,1.92,0,0,0,.64,1.51A2.54,2.54,0,0,0,486.58,174.26Z"/><path class="cls-6" d="M494.91,169.45a7.61,7.61,0,0,1,1.18-4.47,3.77,3.77,0,0,1,3.26-1.67,4.06,4.06,0,0,1,2.13.54,4.24,4.24,0,0,1,1.49,1.54l.15-1.87h1.07V175a5.06,5.06,0,0,1-1.2,3.56,4.35,4.35,0,0,1-3.36,1.3,8.18,8.18,0,0,1-1.77-.21,6.94,6.94,0,0,1-1.65-.55l.34-1.09a7.21,7.21,0,0,0,1.46.51,6.38,6.38,0,0,0,1.6.19,3.07,3.07,0,0,0,2.47-1,4.07,4.07,0,0,0,.83-2.73v-1.47a4,4,0,0,1-1.48,1.37,4.37,4.37,0,0,1-2.1.48,3.84,3.84,0,0,1-3.25-1.56,6.79,6.79,0,0,1-1.17-4.17Zm1.28.22A5.89,5.89,0,0,0,497,173a2.85,2.85,0,0,0,2.53,1.25,3.56,3.56,0,0,0,2.07-.57,3.66,3.66,0,0,0,1.27-1.57v-5.41a4.11,4.11,0,0,0-1.22-1.66,3.23,3.23,0,0,0-2.1-.64,2.78,2.78,0,0,0-2.54,1.4,6.76,6.76,0,0,0-.86,3.62Z"/><path class="cls-6" d="M507,174.23l1.74-.14v-9.47l-1.74-.14v-1h3v10.57l1.74.14v.94H507Zm3-14h-1.27v-1.8H510Z"/><path class="cls-6" d="M513.65,174.23l1.74-.14v-9.47l-1.74-.14v-1h2.87l.12,2a4.2,4.2,0,0,1,1.5-1.67,4.12,4.12,0,0,1,2.23-.58,3.52,3.52,0,0,1,2.85,1.15,5.51,5.51,0,0,1,1,3.62v6l1.73.14v.94h-4.75v-.94l1.74-.14v-6a4.25,4.25,0,0,0-.74-2.83,2.67,2.67,0,0,0-2.11-.83,3.33,3.33,0,0,0-2.19.71,4,4,0,0,0-1.22,1.9v7.05l1.74.14v.94h-4.76Z"/><path class="cls-6" d="M527.84,169.18a6.28,6.28,0,0,1,1.39-4.22,5,5,0,0,1,7.41,0,6.28,6.28,0,0,1,1.4,4.22v.35a6.38,6.38,0,0,1-1.39,4.23,5,5,0,0,1-7.42,0,6.32,6.32,0,0,1-1.39-4.23Zm1.28.35a5.53,5.53,0,0,0,1,3.4,3.55,3.55,0,0,0,5.62,0,5.59,5.59,0,0,0,1-3.4v-.35a5.59,5.59,0,0,0-1-3.39,3.54,3.54,0,0,0-5.61,0,5.58,5.58,0,0,0-1,3.39Z"/><path class="cls-6" d="M545.42,169.45a7.68,7.68,0,0,1,1.17-4.47,3.75,3.75,0,0,1,3.25-1.67,3.91,3.91,0,0,1,3.54,1.94l.13-1.73h1.12v15l1.74.15v1h-4.76v-1l1.74-.15v-4.91a3.92,3.92,0,0,1-1.47,1.31,4.5,4.5,0,0,1-2.06.45,3.81,3.81,0,0,1-3.23-1.56,6.79,6.79,0,0,1-1.17-4.17Zm1.29.22a6,6,0,0,0,.84,3.38,2.83,2.83,0,0,0,2.52,1.26,3.59,3.59,0,0,0,2-.54,3.71,3.71,0,0,0,1.27-1.49v-5.69a4.19,4.19,0,0,0-1.24-1.57,3.2,3.2,0,0,0-2-.61,2.75,2.75,0,0,0-2.53,1.4,6.93,6.93,0,0,0-.85,3.64Z"/><path class="cls-6" d="M566.08,173.26a3.9,3.9,0,0,1-1.48,1.58,4.31,4.31,0,0,1-2.22.56,3.48,3.48,0,0,1-2.85-1.25,6,6,0,0,1-1-3.88v-5.65l-1.43-.14v-1h2.7v6.78a5,5,0,0,0,.71,3,2.44,2.44,0,0,0,2,.93,3.74,3.74,0,0,0,2.3-.65,3.39,3.39,0,0,0,1.21-1.78v-7.23l-1.64-.14v-1h2.92v10.57l1.55.14v.94H566.2Z"/><path class="cls-6" d="M575.83,175.4a4.63,4.63,0,0,1-3.61-1.61,6,6,0,0,1-1.43-4.1v-.59a6.09,6.09,0,0,1,1.43-4.14,4.38,4.38,0,0,1,3.43-1.65,4.26,4.26,0,0,1,3.34,1.35,5.23,5.23,0,0,1,1.22,3.62v1.1h-8.15v.31a5.18,5.18,0,0,0,1,3.29,3.28,3.28,0,0,0,2.73,1.33,5.55,5.55,0,0,0,2-.33,4,4,0,0,0,1.44-1l.54.88a4.6,4.6,0,0,1-1.64,1.1A6.23,6.23,0,0,1,575.83,175.4Zm-.18-11a3.05,3.05,0,0,0-2.37,1.09,4.74,4.74,0,0,0-1.12,2.74l0,0h6.76V168a3.75,3.75,0,0,0-.89-2.54A3,3,0,0,0,575.65,164.41Z"/><path class="cls-6" d="M596.16,167.12h-1l-.15-1.65a3.09,3.09,0,0,0-1.21-.78,4.53,4.53,0,0,0-1.67-.28,3.15,3.15,0,0,0-2.1.6,1.88,1.88,0,0,0-.7,1.43,1.7,1.7,0,0,0,.61,1.34,5.76,5.76,0,0,0,2.4.92,7.75,7.75,0,0,1,3.08,1.27,2.62,2.62,0,0,1,1,2.18,2.82,2.82,0,0,1-1.17,2.35,4.88,4.88,0,0,1-3.08.9,7.16,7.16,0,0,1-2.33-.36,5.57,5.57,0,0,1-1.82-1v-2.35h1l.18,1.66a2.87,2.87,0,0,0,1.29.75,5.6,5.6,0,0,0,1.64.23,3.49,3.49,0,0,0,2.18-.61,1.82,1.82,0,0,0,.8-1.49,1.9,1.9,0,0,0-.66-1.43,5.44,5.44,0,0,0-2.41-1,8,8,0,0,1-3-1.2,2.49,2.49,0,0,1-1-2.1,2.82,2.82,0,0,1,1.12-2.25,4.48,4.48,0,0,1,3-.92,6.59,6.59,0,0,1,2.31.39,4.7,4.7,0,0,1,1.71,1.06Z"/><path class="cls-6" d="M603.8,175.4a4.61,4.61,0,0,1-3.6-1.61,5.91,5.91,0,0,1-1.43-4.1v-.59a6.09,6.09,0,0,1,1.42-4.14,4.38,4.38,0,0,1,3.44-1.65,4.25,4.25,0,0,1,3.33,1.35,5.23,5.23,0,0,1,1.22,3.62v1.1H600v.31a5.12,5.12,0,0,0,1,3.29,3.26,3.26,0,0,0,2.72,1.33,5.51,5.51,0,0,0,2-.33,4,4,0,0,0,1.44-1l.54.88a4.6,4.6,0,0,1-1.64,1.1A6.23,6.23,0,0,1,603.8,175.4Zm-.17-11a3,3,0,0,0-2.37,1.09,4.69,4.69,0,0,0-1.13,2.74l0,0h6.76V168a3.75,3.75,0,0,0-.89-2.54A3,3,0,0,0,603.63,164.41Z"/><path class="cls-6" d="M613.22,163.52l.16,1.94v.14a4,4,0,0,1,1.33-1.68,3.35,3.35,0,0,1,2-.61,3.75,3.75,0,0,1,.48,0l.38.09-.17,1.2-.95-.06a2.85,2.85,0,0,0-2,.68,3.74,3.74,0,0,0-1.1,1.88v7l1.73.14v.94h-4.74v-.94l1.74-.14v-9.47l-1.74-.14v-1h2.85Z"/><path class="cls-6" d="M627.19,175.17a8.53,8.53,0,0,1-.18-1,6.36,6.36,0,0,1-.06-.87,5.12,5.12,0,0,1-1.7,1.52,4.8,4.8,0,0,1-2.4.6,3.64,3.64,0,0,1-2.62-.88,3.15,3.15,0,0,1-.93-2.39,3,3,0,0,1,1.38-2.57,6.48,6.48,0,0,1,3.73-.94H627v-1.54a2.48,2.48,0,0,0-.79-2,3.19,3.19,0,0,0-2.22-.71,5.36,5.36,0,0,0-1.75.26,3.84,3.84,0,0,0-1.33.72l-.11,1.56h-1v-2.24a6.55,6.55,0,0,1,1.91-1,7.36,7.36,0,0,1,2.37-.38,4.56,4.56,0,0,1,3.07,1,3.48,3.48,0,0,1,1.16,2.81v5.73c0,.23,0,.46,0,.68a4.48,4.48,0,0,0,.07.64l1.15.08v.94Zm-4.2-.91a4.59,4.59,0,0,0,2.44-.65,3.75,3.75,0,0,0,1.52-1.67v-2.33h-2.56a4.79,4.79,0,0,0-2.78.72,2.19,2.19,0,0,0-1,1.84,1.93,1.93,0,0,0,.65,1.51A2.53,2.53,0,0,0,623,174.26Zm2.16-15.18h1.57l0,.06-2.65,2.8H623Z"/><path class="cls-6" d="M636.4,164.58v-1.06h1.9v-1.7a3.84,3.84,0,0,1,.88-2.71,3.12,3.12,0,0,1,2.44-1,5.76,5.76,0,0,1,.7,0l.74.15-.16,1.07a4.51,4.51,0,0,0-.53-.1,3.72,3.72,0,0,0-.62,0,2,2,0,0,0-1.61.67,2.84,2.84,0,0,0-.56,1.87v1.7h2.75v1.06h-2.75v9.51l1.74.14v.94h-4.75v-.94l1.73-.14v-9.51Z"/><path class="cls-6" d="M652.26,175.17q-.12-.58-.18-1a8.46,8.46,0,0,1-.05-.87,5.26,5.26,0,0,1-1.71,1.52,4.79,4.79,0,0,1-2.39.6,3.67,3.67,0,0,1-2.63-.88,3.18,3.18,0,0,1-.92-2.39,3,3,0,0,1,1.37-2.57,6.5,6.5,0,0,1,3.73-.94H652v-1.54a2.48,2.48,0,0,0-.8-2,3.17,3.17,0,0,0-2.22-.71,5.4,5.4,0,0,0-1.75.26,3.93,3.93,0,0,0-1.33.72l-.1,1.56h-1.06v-2.24a6.55,6.55,0,0,1,1.91-1,7.46,7.46,0,0,1,2.38-.38,4.54,4.54,0,0,1,3.06,1,3.46,3.46,0,0,1,1.17,2.81v5.73c0,.23,0,.46,0,.68s0,.43.07.64l1.15.08v.94Zm-4.2-.91a4.56,4.56,0,0,0,2.44-.65,3.72,3.72,0,0,0,1.53-1.67v-2.33h-2.57a4.82,4.82,0,0,0-2.78.72,2.19,2.19,0,0,0-1,1.84,1.93,1.93,0,0,0,.65,1.51A2.53,2.53,0,0,0,648.06,174.26Zm2.17-15.18h1.56l0,.06-2.66,2.8H648Z"/><path class="cls-6" d="M661.27,174.31a3.62,3.62,0,0,0,2.24-.73,2.43,2.43,0,0,0,1-2h1.12l0,.07a3.2,3.2,0,0,1-1.28,2.7,4.68,4.68,0,0,1-3.08,1.09,4.36,4.36,0,0,1-3.64-1.63,6.58,6.58,0,0,1-1.29-4.2v-.45a6.58,6.58,0,0,1,1.29-4.18,4.36,4.36,0,0,1,3.63-1.63,6,6,0,0,1,2.44.5,4.82,4.82,0,0,1,1.8,1.38l0,2.54h-1.09l-.2-2.06a3.5,3.5,0,0,0-1.27-.92,4.17,4.17,0,0,0-1.73-.34,3.06,3.06,0,0,0-2.75,1.34,6,6,0,0,0-.89,3.37v.45a6.06,6.06,0,0,0,.89,3.41A3.07,3.07,0,0,0,661.27,174.31Z"/><path class="cls-6" d="M667.92,174.23l1.73-.14v-9.47l-1.73-.14v-1h3v10.57l1.74.14v.94h-4.74Zm3-14h-1.27v-1.8h1.27Z"/><path class="cls-6" d="M674.55,159.33v-1h3v15.71l1.74.14v.94h-4.74v-.94l1.73-.14V159.47Z"/><path class="cls-6" d="M683.27,175.17h-1.46v-1.76h1.46Z"/><path class="cls-6" d="M695.12,160.45l-1.45.12,4.29,12,.31,1h.06l.31-1,4.27-12-1.45-.12v-.95h4v.95l-1.2.1-5.39,14.62h-1.21l-5.4-14.62-1.2-.1v-.95h4Z"/><path class="cls-6" d="M706.59,169.18A6.23,6.23,0,0,1,708,165a5,5,0,0,1,7.4,0,6.28,6.28,0,0,1,1.4,4.22v.35a6.38,6.38,0,0,1-1.39,4.23,5,5,0,0,1-7.41,0,6.28,6.28,0,0,1-1.4-4.23Zm1.28.35a5.59,5.59,0,0,0,1,3.4,3.55,3.55,0,0,0,5.62,0,5.59,5.59,0,0,0,1-3.4v-.35a5.59,5.59,0,0,0-1-3.39,3.54,3.54,0,0,0-5.61,0,5.65,5.65,0,0,0-1,3.39Z"/><path class="cls-6" d="M727.34,173.26a3.92,3.92,0,0,1-1.49,1.58,4.31,4.31,0,0,1-2.22.56,3.48,3.48,0,0,1-2.85-1.25,6,6,0,0,1-1-3.88v-5.65l-1.43-.14v-1H721v6.78a5,5,0,0,0,.72,3,2.43,2.43,0,0,0,2,.93,3.79,3.79,0,0,0,2.31-.65,3.38,3.38,0,0,0,1.2-1.78v-7.23l-1.64-.14v-1h2.92v10.57l1.55.14v.94h-2.66Z"/><path class="cls-6" d="M408.81,190.94V190h2.8l.16,1.81a4,4,0,0,1,3.63-2,3.74,3.74,0,0,1,3.25,1.68,7.63,7.63,0,0,1,1.18,4.46v.22a6.8,6.8,0,0,1-1.18,4.18,3.81,3.81,0,0,1-3.23,1.55,4.6,4.6,0,0,1-2.12-.46,4,4,0,0,1-1.49-1.33v5l1.74.14v1h-4.74v-1l1.73-.14V191.08Zm9.74,5a6.76,6.76,0,0,0-.88-3.62,2.83,2.83,0,0,0-2.56-1.4,3.35,3.35,0,0,0-2.09.62,3.76,3.76,0,0,0-1.21,1.61v5.6a3.53,3.53,0,0,0,1.26,1.51,3.71,3.71,0,0,0,2.07.55,2.9,2.9,0,0,0,2.54-1.27,5.88,5.88,0,0,0,.87-3.38Z"/><path class="cls-6" d="M424.66,190l.16,1.93v.14a4.26,4.26,0,0,1,1.34-1.68,3.31,3.31,0,0,1,2-.61,2.42,2.42,0,0,1,.47,0,2.25,2.25,0,0,1,.38.08l-.17,1.21-1-.07a2.88,2.88,0,0,0-2,.68,3.8,3.8,0,0,0-1.11,1.88v7l1.74.14v.95h-4.74v-.95l1.73-.14v-9.47l-1.73-.14V190h2.84Z"/><path class="cls-6" d="M435.55,201.86a4.59,4.59,0,0,1-3.6-1.61,6,6,0,0,1-1.43-4.09v-.6a6.11,6.11,0,0,1,1.43-4.14,4.38,4.38,0,0,1,3.43-1.65,4.23,4.23,0,0,1,3.34,1.36,5.21,5.21,0,0,1,1.21,3.62v1.09h-8.14v.32a5.22,5.22,0,0,0,1,3.29,3.3,3.3,0,0,0,2.72,1.33,5.36,5.36,0,0,0,2-.34,4,4,0,0,0,1.44-1l.54.89a4.58,4.58,0,0,1-1.64,1.09A6.25,6.25,0,0,1,435.55,201.86Zm-.17-11A3.05,3.05,0,0,0,433,192a4.74,4.74,0,0,0-1.12,2.74l0,.06h6.76v-.33a3.75,3.75,0,0,0-.89-2.54A3,3,0,0,0,435.38,190.87Z"/><path class="cls-6" d="M447.14,200.78a3.63,3.63,0,0,0,2.24-.74,2.4,2.4,0,0,0,1-2h1.12l0,.06a3.23,3.23,0,0,1-1.28,2.71,4.72,4.72,0,0,1-3.08,1.08,4.36,4.36,0,0,1-3.64-1.63,6.55,6.55,0,0,1-1.29-4.19v-.45a6.54,6.54,0,0,1,1.29-4.18,4.36,4.36,0,0,1,3.63-1.64,5.8,5.8,0,0,1,2.44.51,4.62,4.62,0,0,1,1.8,1.38l.05,2.54h-1.09l-.2-2.07a3.5,3.5,0,0,0-1.27-.92,4.17,4.17,0,0,0-1.73-.34,3.08,3.08,0,0,0-2.75,1.34,6,6,0,0,0-.89,3.38V196a6,6,0,0,0,.89,3.4A3.08,3.08,0,0,0,447.14,200.78Z"/><path class="cls-6" d="M453.79,200.69l1.73-.14v-9.47l-1.73-.14V190h3v10.56l1.74.14v.95h-4.74Zm3-14h-1.27v-1.81h1.27Z"/><path class="cls-6" d="M469,193.58H468l-.15-1.64a3.22,3.22,0,0,0-1.21-.79,4.53,4.53,0,0,0-1.67-.28,3.1,3.1,0,0,0-2.1.61,1.85,1.85,0,0,0-.7,1.42,1.68,1.68,0,0,0,.61,1.34,5.88,5.88,0,0,0,2.4.93,7.76,7.76,0,0,1,3.08,1.26,2.63,2.63,0,0,1,1,2.18A2.81,2.81,0,0,1,468.1,201a4.88,4.88,0,0,1-3.08.9,7.16,7.16,0,0,1-2.33-.36,5.74,5.74,0,0,1-1.82-1v-2.35h1l.18,1.66a2.94,2.94,0,0,0,1.29.74,5.61,5.61,0,0,0,1.64.24,3.49,3.49,0,0,0,2.18-.62,1.8,1.8,0,0,0,.8-1.48,1.91,1.91,0,0,0-.66-1.44,5.44,5.44,0,0,0-2.41-1,8,8,0,0,1-3.05-1.2,2.49,2.49,0,0,1-1-2.09,2.85,2.85,0,0,1,1.12-2.26,4.53,4.53,0,0,1,3-.92,6.59,6.59,0,0,1,2.31.39,4.83,4.83,0,0,1,1.71,1.06Z"/><path class="cls-6" d="M479.55,201.64c-.08-.4-.14-.74-.18-1a8.14,8.14,0,0,1-.05-.87,5.11,5.11,0,0,1-1.7,1.52,4.83,4.83,0,0,1-2.4.6,3.63,3.63,0,0,1-2.62-.88,3.13,3.13,0,0,1-.93-2.39A3,3,0,0,1,473,196a6.5,6.5,0,0,1,3.73-.95h2.55v-1.54a2.49,2.49,0,0,0-.79-2,3.24,3.24,0,0,0-2.23-.71,5.73,5.73,0,0,0-1.75.26,4.12,4.12,0,0,0-1.33.72l-.1,1.56h-1.06v-2.24a6.59,6.59,0,0,1,1.92-1,7.1,7.1,0,0,1,2.37-.39,4.63,4.63,0,0,1,3.07,1,3.48,3.48,0,0,1,1.16,2.81v5.73c0,.24,0,.46,0,.68s0,.44.07.64l1.15.08v.95Zm-4.19-.92a4.61,4.61,0,0,0,2.44-.64,3.81,3.81,0,0,0,1.52-1.67v-2.34h-2.57a4.69,4.69,0,0,0-2.77.73,2.14,2.14,0,0,0-1,1.83,1.94,1.94,0,0,0,.64,1.52A2.59,2.59,0,0,0,475.36,200.72Z"/><path class="cls-6" d="M486.4,190l.16,1.93v.14a4.15,4.15,0,0,1,1.33-1.68,3.35,3.35,0,0,1,2-.61,2.52,2.52,0,0,1,.48,0,2.1,2.1,0,0,1,.37.08l-.17,1.21-.94-.07a2.88,2.88,0,0,0-2,.68,3.79,3.79,0,0,0-1.1,1.88v7l1.73.14v.95h-4.74v-.95l1.74-.14v-9.47l-1.74-.14V190h2.85Z"/><path class="cls-6" d="M505.73,200a4.07,4.07,0,0,1-1.48,1.41,4.42,4.42,0,0,1-2.14.49,3.82,3.82,0,0,1-3.23-1.56,6.79,6.79,0,0,1-1.17-4.17v-.22a7.63,7.63,0,0,1,1.17-4.46,3.74,3.74,0,0,1,3.26-1.68,4.08,4.08,0,0,1,2.08.51,4.3,4.3,0,0,1,1.48,1.46v-5.8L504,185.8v-1h3v15.71l1.74.14v.95h-2.88ZM499,196.13a6,6,0,0,0,.84,3.37,2.83,2.83,0,0,0,2.52,1.24,3.51,3.51,0,0,0,2.05-.56,3.7,3.7,0,0,0,1.29-1.54v-5.51a4,4,0,0,0-1.24-1.61,3.26,3.26,0,0,0-2.08-.63,2.78,2.78,0,0,0-2.53,1.4,6.9,6.9,0,0,0-.85,3.62Z"/><path class="cls-6" d="M515.75,201.86a4.59,4.59,0,0,1-3.6-1.61,6,6,0,0,1-1.43-4.09v-.6a6.11,6.11,0,0,1,1.43-4.14,4.38,4.38,0,0,1,3.43-1.65,4.23,4.23,0,0,1,3.34,1.36,5.21,5.21,0,0,1,1.21,3.62v1.09H512v.32a5.22,5.22,0,0,0,1,3.29,3.3,3.3,0,0,0,2.72,1.33,5.36,5.36,0,0,0,2-.34,4,4,0,0,0,1.44-1l.54.89a4.58,4.58,0,0,1-1.64,1.09A6.25,6.25,0,0,1,515.75,201.86Zm-.17-11a3.05,3.05,0,0,0-2.37,1.09,4.74,4.74,0,0,0-1.12,2.74l0,.06h6.76v-.33a3.75,3.75,0,0,0-.89-2.54A3,3,0,0,0,515.58,190.87Z"/><path class="cls-6" d="M530.65,187v3h2.54v1h-2.54v7.59a2.52,2.52,0,0,0,.41,1.62,1.36,1.36,0,0,0,1.09.48l.61,0c.19,0,.42-.05.67-.1l.2,1a3.14,3.14,0,0,1-.78.22,5.7,5.7,0,0,1-.92.07,2.36,2.36,0,0,1-1.89-.77,3.71,3.71,0,0,1-.68-2.46V191h-2v-1h2v-3Z"/><path class="cls-6" d="M540.62,201.86a4.61,4.61,0,0,1-3.61-1.61,5.94,5.94,0,0,1-1.42-4.09v-.6a6.11,6.11,0,0,1,1.42-4.14,4.38,4.38,0,0,1,3.44-1.65,4.23,4.23,0,0,1,3.33,1.36,5.22,5.22,0,0,1,1.22,3.62v1.09h-8.15v.32a5.22,5.22,0,0,0,1,3.29,3.32,3.32,0,0,0,2.73,1.33,5.34,5.34,0,0,0,2-.34,4,4,0,0,0,1.44-1l.54.89a4.58,4.58,0,0,1-1.64,1.09A6.23,6.23,0,0,1,540.62,201.86Zm-.17-11a3.06,3.06,0,0,0-2.38,1.09A4.74,4.74,0,0,0,537,194.7l0,.06h6.76v-.33a3.75,3.75,0,0,0-.89-2.54A3,3,0,0,0,540.45,190.87Z"/><path class="cls-6" d="M552.2,200.78a3.63,3.63,0,0,0,2.24-.74,2.4,2.4,0,0,0,1-2h1.13l0,.06a3.23,3.23,0,0,1-1.28,2.71,4.72,4.72,0,0,1-3.08,1.08,4.34,4.34,0,0,1-3.63-1.63,6.55,6.55,0,0,1-1.29-4.19v-.45a6.54,6.54,0,0,1,1.29-4.18,4.33,4.33,0,0,1,3.62-1.64,5.76,5.76,0,0,1,2.44.51,4.62,4.62,0,0,1,1.8,1.38l.05,2.54H555.4l-.21-2.07a3.5,3.5,0,0,0-1.27-.92,4.17,4.17,0,0,0-1.73-.34,3.08,3.08,0,0,0-2.75,1.34,6,6,0,0,0-.89,3.38V196a6,6,0,0,0,.89,3.4A3.08,3.08,0,0,0,552.2,200.78Z"/><path class="cls-6" d="M558.7,200.69l1.74-.14v-9.47l-1.74-.14V190h2.87l.11,2a4,4,0,0,1,3.73-2.25,3.54,3.54,0,0,1,2.86,1.16,5.52,5.52,0,0,1,1,3.61v6l1.74.14v.95h-4.76v-.95l1.74-.14v-6a4.27,4.27,0,0,0-.74-2.83,2.67,2.67,0,0,0-2.1-.83,3.25,3.25,0,0,0-2.19.72,3.85,3.85,0,0,0-1.22,1.9v7l1.73.14v.95H558.7Z"/><path class="cls-6" d="M572.88,195.64a6.3,6.3,0,0,1,1.4-4.22,5,5,0,0,1,7.41,0,6.3,6.3,0,0,1,1.39,4.22V196a6.28,6.28,0,0,1-1.39,4.22,5,5,0,0,1-7.41,0,6.28,6.28,0,0,1-1.4-4.22Zm1.28.36a5.64,5.64,0,0,0,1,3.4,3.32,3.32,0,0,0,2.83,1.38,3.27,3.27,0,0,0,2.79-1.38,5.57,5.57,0,0,0,1-3.4v-.36a5.6,5.6,0,0,0-1-3.38,3.54,3.54,0,0,0-5.62,0,5.6,5.6,0,0,0-1,3.38Z"/><path class="cls-6" d="M584.69,185.8v-1h3v15.71l1.73.14v.95h-4.74v-.95l1.74-.14V185.94Z"/><path class="cls-6" d="M591.23,195.64a6.3,6.3,0,0,1,1.4-4.22,5,5,0,0,1,7.41,0,6.3,6.3,0,0,1,1.39,4.22V196a6.28,6.28,0,0,1-1.39,4.22,5,5,0,0,1-7.41,0,6.28,6.28,0,0,1-1.4-4.22Zm1.28.36a5.58,5.58,0,0,0,1,3.4,3.54,3.54,0,0,0,5.61,0,5.57,5.57,0,0,0,1-3.4v-.36a5.6,5.6,0,0,0-1-3.38,3.29,3.29,0,0,0-2.81-1.39,3.25,3.25,0,0,0-2.8,1.39,5.54,5.54,0,0,0-1,3.38Z"/><path class="cls-6" d="M603.56,195.91a7.63,7.63,0,0,1,1.18-4.46,3.78,3.78,0,0,1,3.27-1.68,4.05,4.05,0,0,1,2.12.54,4.41,4.41,0,0,1,1.49,1.54l.15-1.86h1.08v11.5a5,5,0,0,1-1.21,3.55,4.33,4.33,0,0,1-3.36,1.3,8.14,8.14,0,0,1-1.77-.2,6.94,6.94,0,0,1-1.65-.56l.35-1.09a7.15,7.15,0,0,0,1.45.52,6.94,6.94,0,0,0,1.6.18,3.09,3.09,0,0,0,2.48-1,4.09,4.09,0,0,0,.83-2.72V200a3.91,3.91,0,0,1-1.49,1.37,4.33,4.33,0,0,1-2.09.48,3.83,3.83,0,0,1-3.25-1.56,6.72,6.72,0,0,1-1.18-4.17Zm1.28.22a6,6,0,0,0,.85,3.36,2.84,2.84,0,0,0,2.53,1.25,3.56,3.56,0,0,0,2.07-.57,3.7,3.7,0,0,0,1.28-1.57v-5.4a4.19,4.19,0,0,0-1.23-1.67,3.23,3.23,0,0,0-2.1-.64,2.8,2.8,0,0,0-2.54,1.4,6.85,6.85,0,0,0-.86,3.62Z"/><path class="cls-6" d="M615.66,200.69l1.74-.14v-9.47l-1.74-.14V190h3v10.56l1.74.14v.95h-4.74Zm3-14H617.4v-1.81h1.26Z"/><path class="cls-6" d="M630.5,201.64c-.08-.4-.14-.74-.18-1a8.14,8.14,0,0,1-.05-.87,5.15,5.15,0,0,1-1.71,1.52,4.79,4.79,0,0,1-2.39.6,3.67,3.67,0,0,1-2.63-.88,3.16,3.16,0,0,1-.92-2.39A3,3,0,0,1,624,196a6.5,6.5,0,0,1,3.73-.95h2.55v-1.54a2.5,2.5,0,0,0-.8-2,3.2,3.2,0,0,0-2.22-.71,5.69,5.69,0,0,0-1.75.26,4.12,4.12,0,0,0-1.33.72l-.1,1.56H623v-2.24a6.53,6.53,0,0,1,1.91-1,7.2,7.2,0,0,1,2.38-.39,4.63,4.63,0,0,1,3.07,1,3.48,3.48,0,0,1,1.16,2.81v5.73c0,.24,0,.46,0,.68a6.27,6.27,0,0,0,.07.64l1.15.08v.95Zm-4.2-.92a4.56,4.56,0,0,0,2.44-.64,3.77,3.77,0,0,0,1.53-1.67v-2.34H627.7a4.74,4.74,0,0,0-2.78.73,2.16,2.16,0,0,0-1,1.83,2,2,0,0,0,.65,1.52A2.58,2.58,0,0,0,626.3,200.72Z"/><path class="cls-6" d="M639.55,190.94V190h2.8l.16,1.81a4.15,4.15,0,0,1,1.5-1.5,4.22,4.22,0,0,1,2.14-.53,3.75,3.75,0,0,1,3.25,1.68,7.63,7.63,0,0,1,1.17,4.46v.22a6.8,6.8,0,0,1-1.17,4.18,3.81,3.81,0,0,1-3.23,1.55,4.64,4.64,0,0,1-2.13-.46,4,4,0,0,1-1.48-1.33v5l1.73.14v1h-4.74v-1l1.74-.14V191.08Zm9.74,5a6.76,6.76,0,0,0-.87-3.62,2.85,2.85,0,0,0-2.56-1.4,3.38,3.38,0,0,0-2.1.62,3.82,3.82,0,0,0-1.2,1.61v5.6a3.53,3.53,0,0,0,1.26,1.51,3.7,3.7,0,0,0,2.06.55,2.89,2.89,0,0,0,2.54-1.27,5.88,5.88,0,0,0,.87-3.38Z"/><path class="cls-6" d="M660.61,201.64a9,9,0,0,1-.18-1,6.15,6.15,0,0,1-.06-.87,5,5,0,0,1-1.7,1.52,4.8,4.8,0,0,1-2.4.6,3.64,3.64,0,0,1-2.62-.88,3.13,3.13,0,0,1-.93-2.39A3,3,0,0,1,654.1,196a6.48,6.48,0,0,1,3.73-.95h2.54v-1.54a2.49,2.49,0,0,0-.79-2,3.23,3.23,0,0,0-2.22-.71,5.75,5.75,0,0,0-1.76.26,4.06,4.06,0,0,0-1.32.72l-.11,1.56h-1v-2.24a6.53,6.53,0,0,1,1.91-1,7.1,7.1,0,0,1,2.37-.39,4.62,4.62,0,0,1,3.07,1,3.48,3.48,0,0,1,1.16,2.81v5.73c0,.24,0,.46,0,.68a4.32,4.32,0,0,0,.07.64l1.15.08v.95Zm-4.2-.92a4.58,4.58,0,0,0,2.44-.64,3.81,3.81,0,0,0,1.52-1.67v-2.34H657.8a4.71,4.71,0,0,0-2.77.73,2.16,2.16,0,0,0-1,1.83,1.94,1.94,0,0,0,.64,1.52A2.61,2.61,0,0,0,656.41,200.72Z"/><path class="cls-6" d="M667.45,190l.16,1.93v.14a4.18,4.18,0,0,1,1.34-1.68,3.31,3.31,0,0,1,2-.61,2.42,2.42,0,0,1,.47,0,2.49,2.49,0,0,1,.38.08l-.17,1.21-.95-.07a2.92,2.92,0,0,0-2,.68,3.86,3.86,0,0,0-1.1,1.88v7l1.74.14v.95H664.6v-.95l1.74-.14v-9.47l-1.74-.14V190h2.85Z"/><path class="cls-6" d="M681.42,201.64a9,9,0,0,1-.18-1,6.17,6.17,0,0,1,0-.87,5.15,5.15,0,0,1-1.71,1.52,4.8,4.8,0,0,1-2.4.6,3.64,3.64,0,0,1-2.62-.88,3.13,3.13,0,0,1-.93-2.39,3,3,0,0,1,1.38-2.56,6.5,6.5,0,0,1,3.73-.95h2.55v-1.54a2.5,2.5,0,0,0-.8-2,3.23,3.23,0,0,0-2.22-.71,5.69,5.69,0,0,0-1.75.26,4.12,4.12,0,0,0-1.33.72l-.11,1.56h-1.05v-2.24a6.53,6.53,0,0,1,1.91-1,7.1,7.1,0,0,1,2.37-.39,4.62,4.62,0,0,1,3.07,1,3.45,3.45,0,0,1,1.16,2.81v5.73c0,.24,0,.46,0,.68a4.32,4.32,0,0,0,.07.64l1.15.08v.95Zm-4.2-.92a4.58,4.58,0,0,0,2.44-.64,3.83,3.83,0,0,0,1.53-1.67v-2.34h-2.57a4.72,4.72,0,0,0-2.78.73,2.16,2.16,0,0,0-1,1.83,2,2,0,0,0,.65,1.52A2.58,2.58,0,0,0,677.22,200.72Z"/><path class="cls-6" d="M699.17,193.58h-1l-.15-1.64a3.22,3.22,0,0,0-1.21-.79,4.62,4.62,0,0,0-1.68-.28,3.07,3.07,0,0,0-2.09.61,1.82,1.82,0,0,0-.7,1.42,1.71,1.71,0,0,0,.6,1.34,5.88,5.88,0,0,0,2.41.93,7.7,7.7,0,0,1,3.07,1.26,2.61,2.61,0,0,1,1,2.18,2.81,2.81,0,0,1-1.17,2.35,4.92,4.92,0,0,1-3.08.9,7.12,7.12,0,0,1-2.33-.36,5.63,5.63,0,0,1-1.82-1v-2.35h1l.19,1.66a2.94,2.94,0,0,0,1.29.74,5.56,5.56,0,0,0,1.64.24,3.49,3.49,0,0,0,2.18-.62,1.82,1.82,0,0,0,.8-1.48,1.89,1.89,0,0,0-.67-1.44,5.34,5.34,0,0,0-2.4-1A8,8,0,0,1,692,195a2.46,2.46,0,0,1-1-2.09,2.82,2.82,0,0,1,1.12-2.26,4.52,4.52,0,0,1,3-.92,6.6,6.6,0,0,1,2.32.39,4.83,4.83,0,0,1,1.71,1.06Z"/><path class="cls-6" d="M701.73,195.64a6.3,6.3,0,0,1,1.4-4.22,5,5,0,0,1,7.4,0,6.3,6.3,0,0,1,1.4,4.22V196a6.28,6.28,0,0,1-1.39,4.22,5,5,0,0,1-7.41,0,6.28,6.28,0,0,1-1.4-4.22ZM703,196a5.64,5.64,0,0,0,1,3.4,3.32,3.32,0,0,0,2.83,1.38,3.28,3.28,0,0,0,2.79-1.38,5.64,5.64,0,0,0,1-3.4v-.36a5.54,5.54,0,0,0-1-3.38,3.53,3.53,0,0,0-5.61,0,5.6,5.6,0,0,0-1,3.38Z"/><path class="cls-6" d="M713.54,185.8v-1h3v15.71l1.74.14v.95h-4.74v-.95l1.74-.14V185.94Z"/><path class="cls-6" d="M728.77,199.72a3.92,3.92,0,0,1-1.49,1.58,4.21,4.21,0,0,1-2.22.56,3.45,3.45,0,0,1-2.85-1.25,6,6,0,0,1-1-3.87v-5.66l-1.43-.14V190h2.7v6.77a5.06,5.06,0,0,0,.72,3.06,2.42,2.42,0,0,0,2,.92,3.79,3.79,0,0,0,2.31-.64,3.41,3.41,0,0,0,1.2-1.79v-7.23l-1.64-.14V190H730v10.56l1.55.14v.95h-2.67Z"/><path class="cls-6" d="M738.35,200.78a3.63,3.63,0,0,0,2.24-.74,2.4,2.4,0,0,0,1-2h1.12l0,.06a3.23,3.23,0,0,1-1.28,2.71,4.72,4.72,0,0,1-3.08,1.08,4.36,4.36,0,0,1-3.64-1.63,6.55,6.55,0,0,1-1.29-4.19v-.45a6.54,6.54,0,0,1,1.29-4.18,4.36,4.36,0,0,1,3.63-1.64,5.8,5.8,0,0,1,2.44.51,4.62,4.62,0,0,1,1.8,1.38l0,2.54h-1.09l-.2-2.07a3.5,3.5,0,0,0-1.27-.92,4.17,4.17,0,0,0-1.73-.34,3.08,3.08,0,0,0-2.75,1.34,6,6,0,0,0-.89,3.38V196a6,6,0,0,0,.89,3.4A3.08,3.08,0,0,0,738.35,200.78Z"/><path class="cls-6" d="M745,200.69l1.73-.14v-9.47l-1.73-.14V190h3v10.56l1.74.14v.95H745Zm3-14h-1.27v-1.81H748Z"/><path class="cls-6" d="M751.88,195.64a6.3,6.3,0,0,1,1.4-4.22,5,5,0,0,1,7.4,0,6.3,6.3,0,0,1,1.4,4.22V196a6.28,6.28,0,0,1-1.39,4.22,5,5,0,0,1-7.41,0,6.28,6.28,0,0,1-1.4-4.22Zm1.28.36a5.64,5.64,0,0,0,1,3.4,3.32,3.32,0,0,0,2.83,1.38,3.28,3.28,0,0,0,2.79-1.38,5.64,5.64,0,0,0,1-3.4v-.36a5.54,5.54,0,0,0-1-3.38,3.53,3.53,0,0,0-5.61,0,5.6,5.6,0,0,0-1,3.38Z"/><path class="cls-6" d="M763.92,200.69l1.74-.14v-9.47l-1.74-.14V190h2.87l.12,2a4,4,0,0,1,3.73-2.25,3.52,3.52,0,0,1,2.85,1.16,5.46,5.46,0,0,1,1,3.61v6l1.74.14v.95h-4.75v-.95l1.73-.14v-6a4.21,4.21,0,0,0-.74-2.83,2.67,2.67,0,0,0-2.1-.83,3.25,3.25,0,0,0-2.19.72,3.92,3.92,0,0,0-1.22,1.9v7l1.74.14v.95h-4.76Z"/><path class="cls-6" d="M786.17,201.64c-.08-.4-.14-.74-.18-1a8.14,8.14,0,0,1,0-.87,5.15,5.15,0,0,1-1.71,1.52,4.79,4.79,0,0,1-2.39.6,3.67,3.67,0,0,1-2.63-.88,3.16,3.16,0,0,1-.92-2.39,3,3,0,0,1,1.37-2.56,6.5,6.5,0,0,1,3.73-.95h2.55v-1.54a2.52,2.52,0,0,0-.79-2,3.24,3.24,0,0,0-2.23-.71,5.69,5.69,0,0,0-1.75.26,4.12,4.12,0,0,0-1.33.72l-.1,1.56h-1.06v-2.24a6.59,6.59,0,0,1,1.92-1,7.1,7.1,0,0,1,2.37-.39,4.63,4.63,0,0,1,3.07,1,3.48,3.48,0,0,1,1.16,2.81v5.73c0,.24,0,.46,0,.68a6.27,6.27,0,0,0,.07.64l1.15.08v.95Zm-4.19-.92a4.61,4.61,0,0,0,2.44-.64,3.81,3.81,0,0,0,1.52-1.67v-2.34h-2.57a4.74,4.74,0,0,0-2.78.73,2.15,2.15,0,0,0-1,1.83,1.94,1.94,0,0,0,.64,1.52A2.59,2.59,0,0,0,782,200.72Z"/><path class="cls-6" d="M793,190l.15,1.93v.14a4.26,4.26,0,0,1,1.34-1.68,3.35,3.35,0,0,1,2-.61,2.59,2.59,0,0,1,.48,0,2.33,2.33,0,0,1,.37.08l-.17,1.21-1-.07a2.88,2.88,0,0,0-2,.68,3.88,3.88,0,0,0-1.11,1.88v7l1.74.14v.95h-4.74v-.95l1.74-.14v-9.47l-1.74-.14V190H793Z"/><path class="cls-6" d="M414.23,228.33a4.61,4.61,0,0,1-3.6-1.61,6,6,0,0,1-1.43-4.1V222a6.11,6.11,0,0,1,1.42-4.15,4.42,4.42,0,0,1,3.44-1.64,4.29,4.29,0,0,1,3.34,1.35,5.23,5.23,0,0,1,1.21,3.62v1.1h-8.14v.31a5.14,5.14,0,0,0,1,3.29,3.28,3.28,0,0,0,2.72,1.33,5.51,5.51,0,0,0,2-.33,3.92,3.92,0,0,0,1.44-1l.55.88a4.53,4.53,0,0,1-1.64,1.09A6.25,6.25,0,0,1,414.23,228.33Zm-.17-11a3,3,0,0,0-2.37,1.1,4.75,4.75,0,0,0-1.13,2.74l0,.05h6.75v-.32a3.74,3.74,0,0,0-.88-2.54A3,3,0,0,0,414.06,217.33Z"/><path class="cls-6" d="M429.26,220.05h-1.05l-.15-1.65a3.22,3.22,0,0,0-1.21-.79,4.77,4.77,0,0,0-1.68-.28,3.12,3.12,0,0,0-2.09.61,1.84,1.84,0,0,0-.7,1.43,1.72,1.72,0,0,0,.6,1.34,5.88,5.88,0,0,0,2.41.92,7.75,7.75,0,0,1,3.08,1.27,2.62,2.62,0,0,1,1,2.18,2.82,2.82,0,0,1-1.17,2.35,4.9,4.9,0,0,1-3.08.9,7.16,7.16,0,0,1-2.33-.36,5.47,5.47,0,0,1-1.82-1V224.6h1l.18,1.66a2.87,2.87,0,0,0,1.29.75,5.91,5.91,0,0,0,1.64.23,3.49,3.49,0,0,0,2.18-.61,1.82,1.82,0,0,0,.8-1.49,1.9,1.9,0,0,0-.66-1.43,5.44,5.44,0,0,0-2.41-1,8,8,0,0,1-3-1.2,2.49,2.49,0,0,1-1-2.1,2.82,2.82,0,0,1,1.12-2.25,4.47,4.47,0,0,1,2.95-.92,6.6,6.6,0,0,1,2.32.39,4.57,4.57,0,0,1,1.71,1.06Z"/><path class="cls-6" d="M440.18,220.05h-1.05L439,218.4a3.3,3.3,0,0,0-1.21-.79,4.85,4.85,0,0,0-1.68-.28,3.17,3.17,0,0,0-2.1.61,1.87,1.87,0,0,0-.7,1.43,1.73,1.73,0,0,0,.61,1.34,5.76,5.76,0,0,0,2.4.92,7.75,7.75,0,0,1,3.08,1.27,2.62,2.62,0,0,1,1,2.18,2.84,2.84,0,0,1-1.16,2.35,4.93,4.93,0,0,1-3.09.9,7.16,7.16,0,0,1-2.33-.36,5.43,5.43,0,0,1-1.81-1V224.6h1l.18,1.66a2.85,2.85,0,0,0,1.3.75,5.84,5.84,0,0,0,1.63.23,3.54,3.54,0,0,0,2.19-.61,1.83,1.83,0,0,0,.79-1.49,1.9,1.9,0,0,0-.66-1.43,5.45,5.45,0,0,0-2.4-1,8,8,0,0,1-3.06-1.2,2.48,2.48,0,0,1-1-2.1,2.79,2.79,0,0,1,1.12-2.25,4.45,4.45,0,0,1,3-.92,6.68,6.68,0,0,1,2.32.39,4.73,4.73,0,0,1,1.71,1.06Z"/><path class="cls-6" d="M447.82,228.33a4.61,4.61,0,0,1-3.6-1.61,5.91,5.91,0,0,1-1.43-4.1V222a6.11,6.11,0,0,1,1.42-4.15,4.42,4.42,0,0,1,3.44-1.64,4.25,4.25,0,0,1,3.33,1.35,5.23,5.23,0,0,1,1.22,3.62v1.1h-8.14v.31a5.14,5.14,0,0,0,1,3.29,3.28,3.28,0,0,0,2.72,1.33,5.51,5.51,0,0,0,2-.33,4,4,0,0,0,1.44-1l.55.88a4.49,4.49,0,0,1-1.65,1.09A6.19,6.19,0,0,1,447.82,228.33Zm-.17-11a3,3,0,0,0-2.37,1.1,4.69,4.69,0,0,0-1.13,2.74l0,.05h6.76v-.32a3.74,3.74,0,0,0-.88-2.54A3,3,0,0,0,447.65,217.33Z"/><path class="cls-6" d="M459.44,217.41v-1h2.81l.16,1.81a4.28,4.28,0,0,1,1.49-1.5,4.21,4.21,0,0,1,2.14-.52,3.73,3.73,0,0,1,3.25,1.67,7.65,7.65,0,0,1,1.17,4.46v.23a6.77,6.77,0,0,1-1.17,4.17,3.82,3.82,0,0,1-3.23,1.56,4.57,4.57,0,0,1-2.12-.47,3.9,3.9,0,0,1-1.49-1.33v4.95l1.74.14v1h-4.75v-1l1.74-.14V217.55Zm9.74,5a6.72,6.72,0,0,0-.87-3.61,2.81,2.81,0,0,0-2.56-1.4,3.35,3.35,0,0,0-2.09.61,3.82,3.82,0,0,0-1.21,1.61v5.6a3.47,3.47,0,0,0,1.26,1.51,3.62,3.62,0,0,0,2.06.55,2.89,2.89,0,0,0,2.55-1.27,5.87,5.87,0,0,0,.86-3.37Z"/><path class="cls-6" d="M475.3,216.45l.16,1.94v.14a4.14,4.14,0,0,1,1.34-1.69,3.37,3.37,0,0,1,2-.6,3.59,3.59,0,0,1,.47,0l.38.08-.17,1.21-.95-.06a2.87,2.87,0,0,0-2,.68,3.82,3.82,0,0,0-1.1,1.88V227l1.74.15v.94h-4.74v-.94l1.73-.15v-9.46l-1.73-.14v-1h2.84Z"/><path class="cls-6" d="M481.1,222.1a6.27,6.27,0,0,1,1.4-4.22,5,5,0,0,1,7.4,0,6.32,6.32,0,0,1,1.4,4.22v.36a6.38,6.38,0,0,1-1.39,4.23,5,5,0,0,1-7.41,0,6.28,6.28,0,0,1-1.4-4.23Zm1.28.36a5.55,5.55,0,0,0,1,3.4,3.55,3.55,0,0,0,5.62,0,5.62,5.62,0,0,0,1-3.4v-.36a5.58,5.58,0,0,0-1-3.38,3.53,3.53,0,0,0-5.61,0,5.57,5.57,0,0,0-1,3.38Z"/><path class="cls-6" d="M503.29,222.6a6.7,6.7,0,0,1-1.18,4.17,3.81,3.81,0,0,1-3.23,1.56,4.42,4.42,0,0,1-2.18-.51,3.94,3.94,0,0,1-1.48-1.47l-.14,1.75H494V212.4l-1.73-.14v-1h3v7a4.26,4.26,0,0,1,1.47-1.51,4.06,4.06,0,0,1,2.13-.53,3.73,3.73,0,0,1,3.25,1.67,7.57,7.57,0,0,1,1.18,4.46Zm-1.29-.23a6.85,6.85,0,0,0-.86-3.62,2.74,2.74,0,0,0-2.51-1.39,3.32,3.32,0,0,0-2.16.66,4,4,0,0,0-1.21,1.72V225a3.66,3.66,0,0,0,1.28,1.61,3.53,3.53,0,0,0,2.11.6,2.85,2.85,0,0,0,2.51-1.25,5.93,5.93,0,0,0,.84-3.36Z"/><path class="cls-6" d="M505.09,212.26v-1h3V227l1.74.15v.94h-4.74v-.94l1.73-.15V212.4Z"/><path class="cls-6" d="M516.93,228.33a4.61,4.61,0,0,1-3.6-1.61,5.91,5.91,0,0,1-1.43-4.1V222a6.11,6.11,0,0,1,1.42-4.15,4.4,4.4,0,0,1,3.44-1.64,4.25,4.25,0,0,1,3.33,1.35,5.23,5.23,0,0,1,1.22,3.62v1.1h-8.14v.31a5.14,5.14,0,0,0,1,3.29,3.26,3.26,0,0,0,2.72,1.33,5.51,5.51,0,0,0,2-.33,4.09,4.09,0,0,0,1.44-1l.54.88a4.45,4.45,0,0,1-1.64,1.09A6.23,6.23,0,0,1,516.93,228.33Zm-.17-11a3,3,0,0,0-2.37,1.1,4.69,4.69,0,0,0-1.13,2.74l0,.05H520v-.32a3.75,3.75,0,0,0-.89-2.54A3,3,0,0,0,516.76,217.33Z"/><path class="cls-6" d="M523.31,217.41v-1h2.87l.11,1.93a4,4,0,0,1,3.69-2.14,3.33,3.33,0,0,1,3.48,2.63,4.51,4.51,0,0,1,1.48-1.93,3.87,3.87,0,0,1,2.35-.7,3.47,3.47,0,0,1,2.85,1.23,6.06,6.06,0,0,1,1,3.84V227l1.74.16v.94h-4.77v-.94l1.74-.16v-5.71a4.8,4.8,0,0,0-.75-3,2.6,2.6,0,0,0-2.1-.88,2.81,2.81,0,0,0-2.29.95,4.65,4.65,0,0,0-1,2.45.81.81,0,0,0,0,.16V227l1.74.15v.94h-4.75v-.94l1.73-.15v-5.72a4.69,4.69,0,0,0-.76-3,2.57,2.57,0,0,0-2.09-.91,3.18,3.18,0,0,0-2.16.69,3.67,3.67,0,0,0-1.11,1.87V227l1.73.15v.94h-4.75v-.94l1.74-.15v-9.46Z"/><path class="cls-6" d="M552.42,228.1q-.12-.58-.18-1a8.46,8.46,0,0,1,0-.87,5.26,5.26,0,0,1-1.71,1.52,4.79,4.79,0,0,1-2.39.6,3.71,3.71,0,0,1-2.63-.88,3.19,3.19,0,0,1-.92-2.4,3,3,0,0,1,1.37-2.56,6.5,6.5,0,0,1,3.73-1h2.55V220a2.54,2.54,0,0,0-.79-2,3.24,3.24,0,0,0-2.23-.71,5.4,5.4,0,0,0-1.75.27,3.92,3.92,0,0,0-1.33.71l-.1,1.57h-1.06v-2.24a6.61,6.61,0,0,1,1.92-1,7.36,7.36,0,0,1,2.37-.38,4.58,4.58,0,0,1,3.07,1,3.48,3.48,0,0,1,1.16,2.81v5.72c0,.24,0,.47,0,.69s0,.43.07.64l1.15.08v.94Zm-4.19-.91a4.61,4.61,0,0,0,2.44-.65,3.81,3.81,0,0,0,1.52-1.67v-2.33h-2.57a4.82,4.82,0,0,0-2.78.72,2.18,2.18,0,0,0-1,1.84,1.92,1.92,0,0,0,.64,1.51A2.54,2.54,0,0,0,548.23,227.19Z"/><path class="cls-6" d="M558.48,228.1H557v-1.76h1.46Z"/><path class="cls-6" d="M422.57,273.3a9.7,9.7,0,0,1-.82,4.09,6.7,6.7,0,0,1-2.3,2.79l3.21,2.32-.88.81-3.5-2.51a5.4,5.4,0,0,1-1.17.34,6.46,6.46,0,0,1-1.25.12,5.92,5.92,0,0,1-4.78-2.22,8.73,8.73,0,0,1-1.84-5.74v-.21a8.69,8.69,0,0,1,1.84-5.74,5.89,5.89,0,0,1,4.77-2.22,6,6,0,0,1,4.85,2.22,8.6,8.6,0,0,1,1.87,5.74Zm-1.27-.23a7.8,7.8,0,0,0-1.47-4.93,4.81,4.81,0,0,0-4-1.88,4.63,4.63,0,0,0-3.89,1.88,7.91,7.91,0,0,0-1.44,4.93v.23a7.91,7.91,0,0,0,1.44,4.95,4.64,4.64,0,0,0,3.9,1.89,4.77,4.77,0,0,0,4-1.88,7.89,7.89,0,0,0,1.46-5Z"/><path class="cls-6" d="M433.21,279.11a4,4,0,0,1-1.49,1.59,4.31,4.31,0,0,1-2.22.56,3.51,3.51,0,0,1-2.85-1.25,6,6,0,0,1-1-3.88v-5.65l-1.43-.14v-1h2.7v6.77a5.06,5.06,0,0,0,.72,3.06,2.43,2.43,0,0,0,2,.93,3.75,3.75,0,0,0,2.31-.65,3.48,3.48,0,0,0,1.21-1.79v-7.22l-1.64-.14v-1h2.92v10.56l1.54.14V281h-2.66Z"/><path class="cls-6" d="M445.83,281a8.53,8.53,0,0,1-.18-1,6.36,6.36,0,0,1-.06-.87,5,5,0,0,1-1.7,1.51,4.71,4.71,0,0,1-2.4.61,3.65,3.65,0,0,1-2.62-.89,3.12,3.12,0,0,1-.93-2.39,3,3,0,0,1,1.38-2.56,6.48,6.48,0,0,1,3.73-.95h2.54v-1.54a2.5,2.5,0,0,0-.79-2,3.23,3.23,0,0,0-2.22-.71,5.46,5.46,0,0,0-1.76.27,3.78,3.78,0,0,0-1.32.71l-.11,1.56h-1.05v-2.24a6.78,6.78,0,0,1,1.91-1,7.1,7.1,0,0,1,2.37-.39,4.63,4.63,0,0,1,3.07,1,3.5,3.5,0,0,1,1.16,2.82v5.72c0,.24,0,.47,0,.69a4.48,4.48,0,0,0,.07.64l1.15.07V281Zm-4.2-.91a4.59,4.59,0,0,0,2.44-.65,3.81,3.81,0,0,0,1.52-1.67v-2.34H443a4.78,4.78,0,0,0-2.77.73,2.19,2.19,0,0,0-1,1.84,1.92,1.92,0,0,0,.64,1.51A2.61,2.61,0,0,0,441.63,280.12Z"/><path class="cls-6" d="M449.67,280.08l1.74-.14v-9.46l-1.74-.14v-1h2.87l.12,2a4,4,0,0,1,3.73-2.26,3.52,3.52,0,0,1,2.85,1.16,5.48,5.48,0,0,1,1,3.61v6l1.74.14V281h-4.75v-.95l1.74-.14v-6a4.3,4.3,0,0,0-.74-2.84,2.7,2.7,0,0,0-2.11-.83,3.27,3.27,0,0,0-2.19.72,4,4,0,0,0-1.22,1.9v7l1.74.14V281h-4.76Z"/><path class="cls-6" d="M471.87,279.35a4,4,0,0,1-1.48,1.41,4.35,4.35,0,0,1-2.13.5A3.82,3.82,0,0,1,465,279.7a6.85,6.85,0,0,1-1.16-4.17v-.23a7.72,7.72,0,0,1,1.16-4.46,3.76,3.76,0,0,1,3.26-1.68,4,4,0,0,1,2.09.52,4.16,4.16,0,0,1,1.47,1.45v-5.8l-1.74-.14v-1h3v15.71l1.74.14V281H472Zm-6.72-3.82a6,6,0,0,0,.83,3.36,2.84,2.84,0,0,0,2.52,1.25,3.64,3.64,0,0,0,2.06-.56,3.81,3.81,0,0,0,1.28-1.54v-5.52a4,4,0,0,0-1.23-1.61,3.28,3.28,0,0,0-2.08-.63,2.79,2.79,0,0,0-2.54,1.4,7,7,0,0,0-.84,3.62Z"/><path class="cls-6" d="M476.82,275a6.31,6.31,0,0,1,1.39-4.22,5,5,0,0,1,7.41,0A6.31,6.31,0,0,1,487,275v.36a6.32,6.32,0,0,1-1.39,4.23,4.59,4.59,0,0,1-3.69,1.64,4.65,4.65,0,0,1-3.72-1.64,6.32,6.32,0,0,1-1.39-4.23Zm1.27.36a5.55,5.55,0,0,0,1,3.4,3.54,3.54,0,0,0,5.61,0,5.55,5.55,0,0,0,1-3.4V275a5.58,5.58,0,0,0-1-3.38,3.53,3.53,0,0,0-5.61,0,5.58,5.58,0,0,0-1,3.38Z"/><path class="cls-6" d="M502.76,273h-1l-.15-1.65a3.22,3.22,0,0,0-1.21-.79,4.77,4.77,0,0,0-1.68-.28,3.12,3.12,0,0,0-2.09.61,1.84,1.84,0,0,0-.7,1.43,1.69,1.69,0,0,0,.6,1.33,5.8,5.8,0,0,0,2.41.93,7.82,7.82,0,0,1,3.08,1.27,2.61,2.61,0,0,1,1,2.17,2.84,2.84,0,0,1-1.17,2.36,4.9,4.9,0,0,1-3.08.9,7.12,7.12,0,0,1-2.33-.36,5.47,5.47,0,0,1-1.82-1v-2.35h1l.19,1.66a3.06,3.06,0,0,0,1.29.75,5.91,5.91,0,0,0,1.64.23,3.55,3.55,0,0,0,2.18-.61,1.84,1.84,0,0,0,.8-1.49,1.87,1.87,0,0,0-.67-1.43,5.23,5.23,0,0,0-2.4-1,8.31,8.31,0,0,1-3.05-1.2,2.47,2.47,0,0,1-1-2.1,2.85,2.85,0,0,1,1.12-2.26,4.52,4.52,0,0,1,2.95-.92,6.6,6.6,0,0,1,2.32.4,4.57,4.57,0,0,1,1.71,1.06Z"/><path class="cls-6" d="M510.41,281.26a4.63,4.63,0,0,1-3.61-1.61,6,6,0,0,1-1.42-4.1V275a6.11,6.11,0,0,1,1.42-4.15,4.38,4.38,0,0,1,3.43-1.65,4.27,4.27,0,0,1,3.34,1.36,5.23,5.23,0,0,1,1.22,3.62v1.1h-8.15v.31a5.2,5.2,0,0,0,1,3.29,3.3,3.3,0,0,0,2.73,1.33,5.55,5.55,0,0,0,2-.33,4.23,4.23,0,0,0,1.44-1l.54.88a4.58,4.58,0,0,1-1.64,1.09A6.23,6.23,0,0,1,510.41,281.26Zm-.18-11a3.06,3.06,0,0,0-2.37,1.1,4.72,4.72,0,0,0-1.12,2.74l0,0h6.76v-.32a3.75,3.75,0,0,0-.89-2.54A3,3,0,0,0,510.23,270.26Z"/><path class="cls-6" d="M525.72,270.34l-1.44.11,2.88,7.66.37,1.37h.06l.41-1.37,2.83-7.66-1.44-.11v-1h3.88v1l-1.13.1L528.07,281h-1L523,270.44l-1.13-.1v-1h3.88Z"/><path class="cls-6" d="M534.59,280.08l1.74-.14v-9.46l-1.74-.14v-1h3v10.56l1.74.14V281h-4.75Zm3-14h-1.27v-1.81h1.27Z"/><path class="cls-6" d="M544.83,270.34l-1.44.11,2.87,7.66.38,1.37h.06l.41-1.37,2.83-7.66-1.44-.11v-1h3.88v1l-1.13.1L547.18,281h-1l-4.08-10.59-1.13-.1v-1h3.88Z"/><path class="cls-6" d="M558.73,281.26a4.61,4.61,0,0,1-3.6-1.61,6,6,0,0,1-1.43-4.1V275a6.12,6.12,0,0,1,1.43-4.15,4.36,4.36,0,0,1,3.43-1.65,4.27,4.27,0,0,1,3.34,1.36,5.23,5.23,0,0,1,1.21,3.62v1.1H555v.31a5.2,5.2,0,0,0,1,3.29,3.28,3.28,0,0,0,2.72,1.33,5.57,5.57,0,0,0,2-.33,4.23,4.23,0,0,0,1.44-1l.54.88a4.58,4.58,0,0,1-1.64,1.09A6.25,6.25,0,0,1,558.73,281.26Zm-.17-11a3,3,0,0,0-2.37,1.1,4.65,4.65,0,0,0-1.12,2.74l0,0h6.75v-.32a3.74,3.74,0,0,0-.88-2.54A3,3,0,0,0,558.56,270.26Z"/><path class="cls-6" d="M575.78,281.26a4.61,4.61,0,0,1-3.6-1.61,6,6,0,0,1-1.43-4.1V275a6.16,6.16,0,0,1,1.42-4.15,4.4,4.4,0,0,1,3.44-1.65,4.27,4.27,0,0,1,3.34,1.36,5.23,5.23,0,0,1,1.21,3.62v1.1H572v.31a5.2,5.2,0,0,0,1,3.29,3.28,3.28,0,0,0,2.72,1.33,5.57,5.57,0,0,0,2-.33,4.23,4.23,0,0,0,1.44-1l.54.88a4.58,4.58,0,0,1-1.64,1.09A6.25,6.25,0,0,1,575.78,281.26Zm-.17-11a3,3,0,0,0-2.37,1.1,4.65,4.65,0,0,0-1.12,2.74l0,0h6.75v-.32a3.74,3.74,0,0,0-.88-2.54A3,3,0,0,0,575.61,270.26Z"/><path class="cls-6" d="M582.17,270.34v-1H585l.12,1.93a4.13,4.13,0,0,1,1.48-1.59,4.22,4.22,0,0,1,2.21-.56,3.35,3.35,0,0,1,3.47,2.64,4.47,4.47,0,0,1,1.49-1.93,3.86,3.86,0,0,1,2.35-.71A3.48,3.48,0,0,1,599,270.4a6.06,6.06,0,0,1,1,3.84v5.69l1.74.15V281H597v-.95l1.73-.15v-5.72a4.76,4.76,0,0,0-.75-3,2.6,2.6,0,0,0-2.09-.89,2.83,2.83,0,0,0-2.3,1,4.64,4.64,0,0,0-1,2.45v.16s0,.11,0,.19v5.9l1.73.14V281h-4.75v-.95l1.74-.14v-5.73a4.79,4.79,0,0,0-.76-3,2.62,2.62,0,0,0-2.1-.91,3.19,3.19,0,0,0-2.16.7,3.63,3.63,0,0,0-1.11,1.87v7.09l1.74.14V281h-4.75v-.95l1.73-.14v-9.46Z"/><path class="cls-6" d="M616.8,276h2.43v1.09H616.8v2.87l1.74.14V281h-4.75v-.95l1.74-.14v-2.87h-7.27v-.73l7.14-11h1.4Zm-7,0h5.75V267l-.06,0-.55,1.18Z"/><path class="cls-6" d="M625.53,280.17a3.32,3.32,0,0,0,2.83-1.4,7.36,7.36,0,0,0,1-4.32V274a4,4,0,0,1-1.52,1.51,4.19,4.19,0,0,1-2.11.54,4.34,4.34,0,0,1-3.42-1.49,5.64,5.64,0,0,1-1.29-3.85,6,6,0,0,1,1.35-4,4.23,4.23,0,0,1,3.37-1.6,4.62,4.62,0,0,1,3.61,1.49,6.64,6.64,0,0,1,1.34,4.53v3.28a7.89,7.89,0,0,1-1.41,5.13,4.64,4.64,0,0,1-3.77,1.7,9.53,9.53,0,0,1-1.67-.16,7.55,7.55,0,0,1-1.59-.5l.23-1.08a6.42,6.42,0,0,0,1.43.5A7.84,7.84,0,0,0,625.53,280.17Zm.22-5.21a3.66,3.66,0,0,0,2.31-.72,4,4,0,0,0,1.32-1.77v-1.42a5.75,5.75,0,0,0-1-3.63,3.17,3.17,0,0,0-2.62-1.2,3,3,0,0,0-2.47,1.32,5.16,5.16,0,0,0-1,3.17,5,5,0,0,0,.91,3A3,3,0,0,0,625.75,275Z"/><path class="cls-6" d="M643.21,275a7.46,7.46,0,0,1-1.28,4.67,4.65,4.65,0,0,1-7.09,0,7.5,7.5,0,0,1-1.28-4.67v-3.5a7.58,7.58,0,0,1,1.27-4.68,4.65,4.65,0,0,1,7.09,0,7.45,7.45,0,0,1,1.29,4.68Zm-1.28-3.72a6.47,6.47,0,0,0-.91-3.71,3.05,3.05,0,0,0-2.65-1.3,3,3,0,0,0-2.63,1.31,6.38,6.38,0,0,0-.91,3.7v3.91a6.46,6.46,0,0,0,.92,3.71,3.3,3.3,0,0,0,5.27,0,6.55,6.55,0,0,0,.91-3.72Z"/><path class="cls-6" d="M658.91,281q-.12-.58-.18-1a8.46,8.46,0,0,1-.05-.87,5.12,5.12,0,0,1-1.71,1.51,4.7,4.7,0,0,1-2.39.61,3.67,3.67,0,0,1-2.63-.89A3.11,3.11,0,0,1,651,278a3,3,0,0,1,1.37-2.56,6.5,6.5,0,0,1,3.73-.95h2.55v-1.54a2.51,2.51,0,0,0-.8-2,3.23,3.23,0,0,0-2.22-.71,5.4,5.4,0,0,0-1.75.27,3.92,3.92,0,0,0-1.33.71l-.1,1.56h-1.06v-2.24a6.78,6.78,0,0,1,1.91-1,7.18,7.18,0,0,1,2.37-.39,4.6,4.6,0,0,1,3.07,1A3.48,3.48,0,0,1,660,273v5.72c0,.24,0,.47,0,.69s0,.43.07.64l1.15.07V281Zm-4.2-.91a4.56,4.56,0,0,0,2.44-.65,3.77,3.77,0,0,0,1.53-1.67v-2.34h-2.57a4.82,4.82,0,0,0-2.78.73,2.19,2.19,0,0,0-1,1.84,1.93,1.93,0,0,0,.65,1.51A2.58,2.58,0,0,0,654.71,280.12Z"/><path class="cls-6" d="M665,281H663.5v-1.76H665Z"/><path class="cls-6" d="M680,270.26h-1l-.18-2.38a4.63,4.63,0,0,0-1.61-1.2,5.47,5.47,0,0,0-2.29-.46,5,5,0,0,0-4.13,1.92,7.59,7.59,0,0,0-1.54,4.93v.23a7.75,7.75,0,0,0,1.52,4.95,4.84,4.84,0,0,0,4,1.92,5.91,5.91,0,0,0,2.38-.46,4.32,4.32,0,0,0,1.68-1.2l.18-2.38h1v2.76a5.52,5.52,0,0,1-2.11,1.69,7.07,7.07,0,0,1-3.12.68,6.1,6.1,0,0,1-4.88-2.24,8.55,8.55,0,0,1-1.9-5.72v-.21a8.52,8.52,0,0,1,1.9-5.73,6.17,6.17,0,0,1,5-2.23,6.71,6.71,0,0,1,3.08.68,5.5,5.5,0,0,1,2.08,1.7Z"/><path class="cls-6" d="M684.31,281h-1.46v-1.76h1.46Z"/><path class="cls-6" d="M689.16,280.51a5.07,5.07,0,0,1-.4,1.94,4.7,4.7,0,0,1-1.1,1.61l-.75-.56a6,6,0,0,0,.74-1.41,4.8,4.8,0,0,0,.24-1.55V279h1.27Z"/><path class="cls-6" d="M705.15,273h-1l-.15-1.65a3.3,3.3,0,0,0-1.21-.79,4.85,4.85,0,0,0-1.68-.28,3.12,3.12,0,0,0-2.09.61,1.84,1.84,0,0,0-.7,1.43,1.69,1.69,0,0,0,.6,1.33,5.74,5.74,0,0,0,2.4.93,7.75,7.75,0,0,1,3.08,1.27,2.62,2.62,0,0,1,1,2.17,2.84,2.84,0,0,1-1.17,2.36,4.93,4.93,0,0,1-3.09.9,7.16,7.16,0,0,1-2.33-.36,5.53,5.53,0,0,1-1.81-1v-2.35h1l.18,1.66a3.1,3.1,0,0,0,1.3.75,5.89,5.89,0,0,0,1.63.23,3.56,3.56,0,0,0,2.19-.61,1.84,1.84,0,0,0,.8-1.49,1.87,1.87,0,0,0-.67-1.43,5.23,5.23,0,0,0-2.4-1,8.31,8.31,0,0,1-3-1.2,2.47,2.47,0,0,1-1-2.1,2.82,2.82,0,0,1,1.12-2.26,4.51,4.51,0,0,1,3-.92,6.6,6.6,0,0,1,2.32.4,4.57,4.57,0,0,1,1.71,1.06Z"/><path class="cls-6" d="M712.79,281.26a4.61,4.61,0,0,1-3.6-1.61,6,6,0,0,1-1.43-4.1V275a6.16,6.16,0,0,1,1.42-4.15,4.4,4.4,0,0,1,3.44-1.65,4.27,4.27,0,0,1,3.34,1.36,5.23,5.23,0,0,1,1.21,3.62v1.1H709v.31a5.2,5.2,0,0,0,1,3.29,3.28,3.28,0,0,0,2.72,1.33,5.61,5.61,0,0,0,2-.33,4.09,4.09,0,0,0,1.43-1l.55.88a4.58,4.58,0,0,1-1.64,1.09A6.25,6.25,0,0,1,712.79,281.26Zm-.17-11a3,3,0,0,0-2.37,1.1,4.65,4.65,0,0,0-1.12,2.74l0,0h6.75v-.32a3.74,3.74,0,0,0-.88-2.54A3,3,0,0,0,712.62,270.26Z"/><path class="cls-6" d="M719.17,270.34v-1H722l.12,1.93a4.13,4.13,0,0,1,1.48-1.59,4.22,4.22,0,0,1,2.21-.56,3.35,3.35,0,0,1,3.47,2.64,4.47,4.47,0,0,1,1.49-1.93,3.86,3.86,0,0,1,2.35-.71A3.51,3.51,0,0,1,736,270.4a6.06,6.06,0,0,1,1,3.84v5.69l1.74.15V281H734v-.95l1.73-.15v-5.72a4.76,4.76,0,0,0-.75-3,2.6,2.6,0,0,0-2.09-.89,2.83,2.83,0,0,0-2.3,1,4.64,4.64,0,0,0-1,2.45v.16s0,.11,0,.19v5.9l1.73.14V281h-4.75v-.95l1.74-.14v-5.73a4.79,4.79,0,0,0-.76-3,2.62,2.62,0,0,0-2.1-.91,3.19,3.19,0,0,0-2.16.7,3.63,3.63,0,0,0-1.11,1.87v7.09l1.74.14V281h-4.76v-.95l1.74-.14v-9.46Z"/><path class="cls-6" d="M408.87,296.8v-1h2.87l.11,1.93a4.11,4.11,0,0,1,1.48-1.58,4.24,4.24,0,0,1,2.21-.56,3.66,3.66,0,0,1,2.21.65,3.55,3.55,0,0,1,1.26,2,4.58,4.58,0,0,1,1.49-1.94,3.87,3.87,0,0,1,2.35-.7,3.45,3.45,0,0,1,2.85,1.24,6,6,0,0,1,1,3.83v5.7l1.74.15v.95h-4.77v-.95l1.74-.15v-5.72a4.74,4.74,0,0,0-.75-3,2.58,2.58,0,0,0-2.1-.89,2.81,2.81,0,0,0-2.29,1,4.61,4.61,0,0,0-1,2.44.81.81,0,0,0,0,.16v6.1l1.74.14v.95h-4.75v-.95l1.73-.14v-5.73a4.69,4.69,0,0,0-.76-3,2.58,2.58,0,0,0-2.09-.91,3.18,3.18,0,0,0-2.16.69,3.71,3.71,0,0,0-1.11,1.87v7.1l1.73.14v.95h-4.75v-.95l1.74-.14v-9.47Z"/><path class="cls-6" d="M438.5,305.58a4,4,0,0,1-1.49,1.58,4.31,4.31,0,0,1-2.22.56,3.48,3.48,0,0,1-2.85-1.25,6,6,0,0,1-1-3.87v-5.66l-1.43-.14v-1h2.7v6.78a5.09,5.09,0,0,0,.71,3.05,2.44,2.44,0,0,0,2.05.93,3.74,3.74,0,0,0,2.3-.64,3.46,3.46,0,0,0,1.21-1.79v-7.23l-1.64-.14v-1h2.92v10.57l1.55.14v.95h-2.67Z"/><path class="cls-6" d="M443.07,306.55l1.73-.14v-9.47l-1.73-.14v-1h3v10.57l1.74.14v.95h-4.74Zm3-14H444.8V290.7h1.27Z"/><path class="cls-6" d="M452.88,292.86v3h2.54v1.06h-2.54v7.59a2.52,2.52,0,0,0,.41,1.62,1.36,1.36,0,0,0,1.09.48,6.08,6.08,0,0,0,.61,0,4.79,4.79,0,0,0,.67-.09l.19,1a3.38,3.38,0,0,1-.77.22,5.7,5.7,0,0,1-.92.07,2.39,2.39,0,0,1-1.89-.77,3.71,3.71,0,0,1-.68-2.46V296.9h-2v-1.06h2v-3Z"/><path class="cls-6" d="M457.55,301.5a6.23,6.23,0,0,1,1.4-4.22,5,5,0,0,1,7.4,0,6.28,6.28,0,0,1,1.4,4.22v.35a6.36,6.36,0,0,1-1.39,4.23,5,5,0,0,1-7.41,0,6.26,6.26,0,0,1-1.4-4.23Zm1.28.35a5.59,5.59,0,0,0,1,3.4,3.55,3.55,0,0,0,5.62,0,5.59,5.59,0,0,0,1-3.4v-.35a5.54,5.54,0,0,0-1-3.38,3.53,3.53,0,0,0-5.61,0,5.6,5.6,0,0,0-1,3.38Z"/><path class="cls-6" d="M478.19,299.44h-1l-.15-1.65a3.28,3.28,0,0,0-1.21-.78,4.62,4.62,0,0,0-1.68-.28,3.12,3.12,0,0,0-2.09.6,1.85,1.85,0,0,0-.7,1.43,1.71,1.71,0,0,0,.6,1.34,5.76,5.76,0,0,0,2.4.92,7.75,7.75,0,0,1,3.08,1.27,2.63,2.63,0,0,1,1,2.18,2.82,2.82,0,0,1-1.17,2.35,4.93,4.93,0,0,1-3.09.9,7.16,7.16,0,0,1-2.33-.36,5.53,5.53,0,0,1-1.81-1V304h1l.18,1.65a2.9,2.9,0,0,0,1.3.75,5.54,5.54,0,0,0,1.63.23,3.5,3.5,0,0,0,2.19-.61,1.83,1.83,0,0,0,.8-1.49,1.88,1.88,0,0,0-.67-1.43,5.34,5.34,0,0,0-2.4-1,8,8,0,0,1-3-1.2,2.47,2.47,0,0,1-1-2.1,2.81,2.81,0,0,1,1.12-2.25,4.51,4.51,0,0,1,2.95-.92,6.6,6.6,0,0,1,2.32.39,4.7,4.7,0,0,1,1.71,1.06Z"/><path class="cls-6" d="M488.82,295.84l.15,1.94v.14a4.12,4.12,0,0,1,1.34-1.68,3.35,3.35,0,0,1,2-.61,2.59,2.59,0,0,1,.48,0,2.33,2.33,0,0,1,.37.08L493,297l-.95-.06a2.88,2.88,0,0,0-2,.68,3.83,3.83,0,0,0-1.11,1.88v7l1.74.14v.95H486v-.95l1.74-.14v-9.47L486,296.8v-1h2.85Z"/><path class="cls-6" d="M499.71,307.72a4.65,4.65,0,0,1-3.61-1.61,6,6,0,0,1-1.42-4.1v-.59a6.09,6.09,0,0,1,1.42-4.14,4.38,4.38,0,0,1,3.44-1.65,4.23,4.23,0,0,1,3.33,1.36,5.21,5.21,0,0,1,1.22,3.61v1.1h-8.15V302a5.18,5.18,0,0,0,1,3.29,3.3,3.3,0,0,0,2.73,1.33,5.55,5.55,0,0,0,2-.33,4,4,0,0,0,1.44-1l.54.88a4.6,4.6,0,0,1-1.64,1.1A6.23,6.23,0,0,1,499.71,307.72Zm-.17-11a3.06,3.06,0,0,0-2.38,1.09,4.74,4.74,0,0,0-1.12,2.74l0,.05h6.76v-.32a3.75,3.75,0,0,0-.89-2.54A3,3,0,0,0,499.54,296.73Z"/><path class="cls-6" d="M511.29,306.63a3.62,3.62,0,0,0,2.24-.73,2.41,2.41,0,0,0,1-2h1.13l0,.06a3.2,3.2,0,0,1-1.28,2.7,4.68,4.68,0,0,1-3.08,1.09,4.34,4.34,0,0,1-3.63-1.63,6.57,6.57,0,0,1-1.29-4.19v-.46a6.53,6.53,0,0,1,1.29-4.17,4.3,4.3,0,0,1,3.62-1.64,5.91,5.91,0,0,1,2.44.5,4.82,4.82,0,0,1,1.8,1.38l.05,2.54h-1.08l-.21-2.06a3.5,3.5,0,0,0-1.27-.92,4.17,4.17,0,0,0-1.73-.34,3.06,3.06,0,0,0-2.75,1.34,6,6,0,0,0-.89,3.37v.46a6.05,6.05,0,0,0,.89,3.4A3.07,3.07,0,0,0,511.29,306.63Z"/><path class="cls-6" d="M526.5,305.58a4,4,0,0,1-1.49,1.58,4.31,4.31,0,0,1-2.22.56,3.48,3.48,0,0,1-2.85-1.25,6,6,0,0,1-1-3.87v-5.66l-1.43-.14v-1h2.7v6.78a5,5,0,0,0,.72,3.05,2.43,2.43,0,0,0,2,.93,3.74,3.74,0,0,0,2.3-.64,3.4,3.4,0,0,0,1.21-1.79v-7.23l-1.64-.14v-1h2.92v10.57l1.55.14v.95h-2.67Z"/><path class="cls-6" d="M533.91,295.84l.16,1.94v.14a4.12,4.12,0,0,1,1.34-1.68,3.31,3.31,0,0,1,2-.61,2.42,2.42,0,0,1,.47,0,2.25,2.25,0,0,1,.38.08l-.17,1.2-1-.06a2.88,2.88,0,0,0-2,.68,3.76,3.76,0,0,0-1.11,1.88v7l1.74.14v.95h-4.74v-.95l1.73-.14v-9.47l-1.73-.14v-1h2.84Z"/><path class="cls-6" d="M548.29,299.44h-1l-.14-1.65a3.28,3.28,0,0,0-1.21-.78,4.62,4.62,0,0,0-1.68-.28,3.17,3.17,0,0,0-2.1.6,1.87,1.87,0,0,0-.69,1.43,1.71,1.71,0,0,0,.6,1.34,5.76,5.76,0,0,0,2.4.92,7.75,7.75,0,0,1,3.08,1.27,2.62,2.62,0,0,1,1,2.18,2.84,2.84,0,0,1-1.16,2.35,4.93,4.93,0,0,1-3.09.9,7.16,7.16,0,0,1-2.33-.36,5.43,5.43,0,0,1-1.81-1V304h1l.18,1.65a2.85,2.85,0,0,0,1.3.75,5.49,5.49,0,0,0,1.63.23,3.54,3.54,0,0,0,2.19-.61,1.82,1.82,0,0,0,.79-1.49,1.9,1.9,0,0,0-.66-1.43,5.45,5.45,0,0,0-2.4-1,8,8,0,0,1-3.06-1.2,2.48,2.48,0,0,1-1-2.1,2.81,2.81,0,0,1,1.12-2.25,4.51,4.51,0,0,1,3-.92,6.64,6.64,0,0,1,2.32.39,4.87,4.87,0,0,1,1.71,1.06Z"/><path class="cls-6" d="M550.85,301.5a6.28,6.28,0,0,1,1.39-4.22,5,5,0,0,1,7.41,0A6.28,6.28,0,0,1,561,301.5v.35a6.3,6.3,0,0,1-1.39,4.23,4.59,4.59,0,0,1-3.69,1.64,4.65,4.65,0,0,1-3.72-1.64,6.3,6.3,0,0,1-1.39-4.23Zm1.28.35a5.53,5.53,0,0,0,1,3.4,3.54,3.54,0,0,0,5.61,0,5.53,5.53,0,0,0,1-3.4v-.35a5.54,5.54,0,0,0-1-3.38,3.53,3.53,0,0,0-5.61,0,5.53,5.53,0,0,0-1,3.38Z"/><path class="cls-6" d="M571.49,299.44h-1l-.15-1.65a3.2,3.2,0,0,0-1.21-.78,4.53,4.53,0,0,0-1.67-.28,3.17,3.17,0,0,0-2.1.6,1.88,1.88,0,0,0-.7,1.43,1.71,1.71,0,0,0,.61,1.34,5.76,5.76,0,0,0,2.4.92,7.75,7.75,0,0,1,3.08,1.27,2.62,2.62,0,0,1,1,2.18,2.84,2.84,0,0,1-1.16,2.35,4.93,4.93,0,0,1-3.09.9,7.16,7.16,0,0,1-2.33-.36,5.43,5.43,0,0,1-1.81-1V304h1l.18,1.65a2.87,2.87,0,0,0,1.29.75,5.6,5.6,0,0,0,1.64.23,3.54,3.54,0,0,0,2.19-.61,1.82,1.82,0,0,0,.79-1.49,1.9,1.9,0,0,0-.66-1.43,5.44,5.44,0,0,0-2.41-1,8,8,0,0,1-3-1.2,2.48,2.48,0,0,1-1-2.1,2.81,2.81,0,0,1,1.12-2.25,4.49,4.49,0,0,1,2.95-.92,6.59,6.59,0,0,1,2.31.39,4.7,4.7,0,0,1,1.71,1.06Z"/><path class="cls-6" d="M575.9,307a4.89,4.89,0,0,1-.4,1.94,4.78,4.78,0,0,1-1.09,1.6l-.76-.56a5.32,5.32,0,0,0,.74-1.41,4.76,4.76,0,0,0,.24-1.55v-1.53h1.27Z"/><path class="cls-6" d="M588.61,307.72a4.61,4.61,0,0,1-3.6-1.61,6,6,0,0,1-1.43-4.1v-.59a6.09,6.09,0,0,1,1.43-4.14,4.36,4.36,0,0,1,3.43-1.65,4.23,4.23,0,0,1,3.34,1.36A5.2,5.2,0,0,1,593,300.6v1.1h-8.14V302a5.18,5.18,0,0,0,1,3.29,3.28,3.28,0,0,0,2.72,1.33,5.57,5.57,0,0,0,2-.33,4,4,0,0,0,1.44-1l.54.88a4.6,4.6,0,0,1-1.64,1.1A6.25,6.25,0,0,1,588.61,307.72Zm-.17-11a3,3,0,0,0-2.37,1.09,4.68,4.68,0,0,0-1.12,2.74l0,.05h6.75v-.32a3.74,3.74,0,0,0-.88-2.54A3,3,0,0,0,588.44,296.73Zm1.21-5.33h1.56l0,.06-2.66,2.8h-1.14Z"/><path class="cls-6" d="M600.24,296.8v-1H603l.16,1.81a4.2,4.2,0,0,1,1.5-1.49,4.11,4.11,0,0,1,2.13-.53,3.75,3.75,0,0,1,3.25,1.67,7.61,7.61,0,0,1,1.18,4.47V302a6.73,6.73,0,0,1-1.18,4.18,3.82,3.82,0,0,1-3.22,1.55,4.52,4.52,0,0,1-2.13-.47,3.89,3.89,0,0,1-1.49-1.33v5L605,311v1h-4.74v-1l1.74-.14V296.94Zm9.74,5a6.67,6.67,0,0,0-.88-3.62,2.81,2.81,0,0,0-2.55-1.4,3.38,3.38,0,0,0-2.1.62,3.84,3.84,0,0,0-1.21,1.61v5.6a3.53,3.53,0,0,0,1.27,1.5,3.59,3.59,0,0,0,2.06.55,2.88,2.88,0,0,0,2.54-1.27A5.85,5.85,0,0,0,610,302Z"/><path class="cls-6" d="M616.1,295.84l.15,1.94v.14a4.12,4.12,0,0,1,1.34-1.68,3.35,3.35,0,0,1,2-.61,2.59,2.59,0,0,1,.48,0,2.33,2.33,0,0,1,.37.08l-.17,1.2-.95-.06a2.88,2.88,0,0,0-2,.68,3.83,3.83,0,0,0-1.11,1.88v7l1.74.14v.95h-4.74v-.95l1.74-.14v-9.47l-1.74-.14v-1h2.85Z"/><path class="cls-6" d="M627,307.72a4.65,4.65,0,0,1-3.61-1.61A6,6,0,0,1,622,302v-.59a6.09,6.09,0,0,1,1.42-4.14,4.38,4.38,0,0,1,3.44-1.65,4.23,4.23,0,0,1,3.33,1.36,5.21,5.21,0,0,1,1.22,3.61v1.1h-8.14V302a5.17,5.17,0,0,0,1,3.29,3.3,3.3,0,0,0,2.73,1.33,5.51,5.51,0,0,0,2-.33,4,4,0,0,0,1.44-1l.54.88a4.6,4.6,0,0,1-1.64,1.1A6.23,6.23,0,0,1,627,307.72Zm-.17-11a3,3,0,0,0-2.37,1.09,4.69,4.69,0,0,0-1.13,2.74l0,.05h6.76v-.32a3.75,3.75,0,0,0-.89-2.54A3,3,0,0,0,626.82,296.73Z"/><path class="cls-6" d="M638.57,306.63a3.6,3.6,0,0,0,2.24-.73,2.41,2.41,0,0,0,1-2h1.13l0,.06a3.22,3.22,0,0,1-1.27,2.7,4.73,4.73,0,0,1-3.09,1.09,4.36,4.36,0,0,1-3.63-1.63,6.57,6.57,0,0,1-1.29-4.19v-.46a6.53,6.53,0,0,1,1.29-4.17,4.32,4.32,0,0,1,3.62-1.64,5.91,5.91,0,0,1,2.44.5,4.82,4.82,0,0,1,1.8,1.38l.05,2.54h-1.08l-.21-2.06a3.5,3.5,0,0,0-1.27-.92,4.14,4.14,0,0,0-1.73-.34,3,3,0,0,0-2.74,1.34,5.91,5.91,0,0,0-.89,3.37v.46a6,6,0,0,0,.88,3.4A3.07,3.07,0,0,0,638.57,306.63Z"/><path class="cls-6" d="M645.22,306.55l1.74-.14v-9.47l-1.74-.14v-1h3v10.57l1.74.14v.95h-4.74Zm3-14H647V290.7h1.26Z"/><path class="cls-6" d="M660.47,299.44h-1.05l-.14-1.65a3.28,3.28,0,0,0-1.21-.78,4.62,4.62,0,0,0-1.68-.28,3.17,3.17,0,0,0-2.1.6,1.87,1.87,0,0,0-.69,1.43,1.71,1.71,0,0,0,.6,1.34,5.76,5.76,0,0,0,2.4.92,7.75,7.75,0,0,1,3.08,1.27,2.62,2.62,0,0,1,1,2.18,2.84,2.84,0,0,1-1.16,2.35,4.93,4.93,0,0,1-3.09.9,7.16,7.16,0,0,1-2.33-.36,5.43,5.43,0,0,1-1.81-1V304h1l.18,1.65a2.85,2.85,0,0,0,1.3.75,5.49,5.49,0,0,0,1.63.23,3.52,3.52,0,0,0,2.19-.61,1.83,1.83,0,0,0,.8-1.49,1.92,1.92,0,0,0-.67-1.43,5.39,5.39,0,0,0-2.4-1,8.1,8.1,0,0,1-3.06-1.2,2.48,2.48,0,0,1-1-2.1,2.81,2.81,0,0,1,1.12-2.25,4.51,4.51,0,0,1,2.95-.92,6.64,6.64,0,0,1,2.32.39,4.7,4.7,0,0,1,1.71,1.06Z"/><path class="cls-6" d="M663,301.5a6.28,6.28,0,0,1,1.39-4.22,5,5,0,0,1,7.41,0,6.28,6.28,0,0,1,1.4,4.22v.35a6.31,6.31,0,0,1-1.4,4.23,4.59,4.59,0,0,1-3.69,1.64,4.65,4.65,0,0,1-3.72-1.64,6.3,6.3,0,0,1-1.39-4.23Zm1.28.35a5.53,5.53,0,0,0,1,3.4,3.54,3.54,0,0,0,5.61,0,5.53,5.53,0,0,0,1-3.4v-.35a5.54,5.54,0,0,0-1-3.38,3.53,3.53,0,0,0-5.61,0,5.53,5.53,0,0,0-1,3.38Z"/><path class="cls-6" d="M685.69,307.72a4.61,4.61,0,0,1-3.6-1.61,6,6,0,0,1-1.43-4.1v-.59a6.09,6.09,0,0,1,1.43-4.14,4.36,4.36,0,0,1,3.43-1.65,4.23,4.23,0,0,1,3.34,1.36,5.2,5.2,0,0,1,1.21,3.61v1.1h-8.14V302a5.18,5.18,0,0,0,1,3.29,3.28,3.28,0,0,0,2.72,1.33,5.57,5.57,0,0,0,2-.33,4,4,0,0,0,1.44-1l.54.88a4.6,4.6,0,0,1-1.64,1.1A6.25,6.25,0,0,1,685.69,307.72Zm-.17-11a3,3,0,0,0-2.37,1.09,4.68,4.68,0,0,0-1.12,2.74l0,.05h6.75v-.32a3.74,3.74,0,0,0-.88-2.54A3,3,0,0,0,685.52,296.73Z"/><path class="cls-6" d="M695.56,296.8l-1.44.11,2.88,7.67.37,1.36h.07l.4-1.36,2.84-7.67-1.44-.11v-1h3.88v1l-1.13.1-4.07,10.6h-1l-4.08-10.6-1.13-.1v-1h3.88Z"/><path class="cls-6" d="M704.44,306.55l1.73-.14v-9.47l-1.73-.14v-1h3v10.57l1.74.14v.95h-4.74Zm3-14h-1.27V290.7h1.27Z"/><path class="cls-6" d="M714.25,292.86v3h2.54v1.06h-2.54v7.59a2.52,2.52,0,0,0,.41,1.62,1.38,1.38,0,0,0,1.09.48,6.08,6.08,0,0,0,.61,0,4.79,4.79,0,0,0,.67-.09l.2,1a3.63,3.63,0,0,1-.78.22,5.7,5.7,0,0,1-.92.07,2.39,2.39,0,0,1-1.89-.77,3.71,3.71,0,0,1-.68-2.46V296.9h-2v-1.06h2v-3Z"/><path class="cls-6" d="M727.09,307.5c-.08-.4-.14-.74-.18-1a8.3,8.3,0,0,1,0-.87,5.15,5.15,0,0,1-1.71,1.52,4.79,4.79,0,0,1-2.39.6,3.67,3.67,0,0,1-2.63-.88,3.18,3.18,0,0,1-.92-2.39,3,3,0,0,1,1.37-2.57,6.5,6.5,0,0,1,3.73-.94h2.55V299.4a2.51,2.51,0,0,0-.79-2,3.2,3.2,0,0,0-2.23-.71,5.4,5.4,0,0,0-1.75.26,4.12,4.12,0,0,0-1.33.72l-.1,1.56H719.6V297a6.36,6.36,0,0,1,1.92-1,7.1,7.1,0,0,1,2.37-.39,4.63,4.63,0,0,1,3.07,1,3.48,3.48,0,0,1,1.16,2.81v5.73c0,.23,0,.46,0,.68s0,.43.07.64l1.15.08v.95Zm-4.19-.92a4.55,4.55,0,0,0,2.43-.65,3.72,3.72,0,0,0,1.53-1.67v-2.33h-2.57a4.82,4.82,0,0,0-2.78.72,2.18,2.18,0,0,0-1,1.84,1.91,1.91,0,0,0,.64,1.51A2.54,2.54,0,0,0,722.9,306.58Z"/><path class="cls-6" d="M733.94,295.84l.15,1.94v.14a4.12,4.12,0,0,1,1.34-1.68,3.35,3.35,0,0,1,2-.61,2.59,2.59,0,0,1,.48,0,2.33,2.33,0,0,1,.37.08l-.17,1.2-1-.06a2.88,2.88,0,0,0-2,.68,3.83,3.83,0,0,0-1.11,1.88v7l1.74.14v.95h-4.74v-.95l1.74-.14v-9.47l-1.74-.14v-1h2.85Z"/><path class="cls-6" d="M745.25,301.5a6.28,6.28,0,0,1,1.4-4.22,5,5,0,0,1,7.4,0,6.23,6.23,0,0,1,1.4,4.22v.35a6.3,6.3,0,0,1-1.39,4.23,5,5,0,0,1-7.41,0,6.31,6.31,0,0,1-1.4-4.23Zm1.28.35a5.59,5.59,0,0,0,1,3.4,3.32,3.32,0,0,0,2.83,1.38,3.28,3.28,0,0,0,2.79-1.38,5.59,5.59,0,0,0,1-3.4v-.35a5.54,5.54,0,0,0-1-3.38,3.53,3.53,0,0,0-5.61,0,5.6,5.6,0,0,0-1,3.38Z"/><path class="cls-6" d="M417.16,332.28a4,4,0,0,1-1.48,1.41,4.35,4.35,0,0,1-2.13.5,3.82,3.82,0,0,1-3.24-1.56,6.89,6.89,0,0,1-1.16-4.17v-.23a7.7,7.7,0,0,1,1.16-4.46,3.76,3.76,0,0,1,3.26-1.68,4.12,4.12,0,0,1,2.09.51,4.28,4.28,0,0,1,1.47,1.46v-5.8l-1.74-.14v-1h3v15.71l1.73.14V334h-2.87Zm-6.72-3.82a6,6,0,0,0,.83,3.36,2.84,2.84,0,0,0,2.52,1.25,3.59,3.59,0,0,0,2-.56,3.75,3.75,0,0,0,1.29-1.54v-5.52a4.06,4.06,0,0,0-1.23-1.61,3.29,3.29,0,0,0-2.09-.63,2.78,2.78,0,0,0-2.53,1.4,7,7,0,0,0-.84,3.62Z"/><path class="cls-6" d="M427.19,334.19a4.61,4.61,0,0,1-3.6-1.61,5.92,5.92,0,0,1-1.43-4.1v-.59a6.11,6.11,0,0,1,1.42-4.15,4.38,4.38,0,0,1,3.44-1.65,4.26,4.26,0,0,1,3.33,1.36,5.22,5.22,0,0,1,1.22,3.62v1.1h-8.14v.31a5.14,5.14,0,0,0,1,3.29,3.28,3.28,0,0,0,2.72,1.33,5.3,5.3,0,0,0,2-.34,4.07,4.07,0,0,0,1.44-.95l.55.88a4.71,4.71,0,0,1-1.65,1.09A6.23,6.23,0,0,1,427.19,334.19Zm-.17-11a3.06,3.06,0,0,0-2.37,1.09,4.72,4.72,0,0,0-1.13,2.75l0,.05h6.76v-.32a3.82,3.82,0,0,0-.88-2.55A3,3,0,0,0,427,323.19Z"/><path class="cls-6" d="M442.21,325.91h-1l-.15-1.65a3.22,3.22,0,0,0-1.21-.79,4.85,4.85,0,0,0-1.68-.28,3.07,3.07,0,0,0-2.09.61,1.84,1.84,0,0,0-.7,1.43,1.69,1.69,0,0,0,.6,1.33,5.88,5.88,0,0,0,2.41.93,7.85,7.85,0,0,1,3.07,1.26,2.62,2.62,0,0,1,1,2.18,2.84,2.84,0,0,1-1.17,2.36,4.92,4.92,0,0,1-3.08.9,7.12,7.12,0,0,1-2.33-.36,5.65,5.65,0,0,1-1.82-1v-2.35h1l.19,1.66a3.06,3.06,0,0,0,1.29.75,5.91,5.91,0,0,0,1.64.23,3.49,3.49,0,0,0,2.18-.62,1.81,1.81,0,0,0,.8-1.48,1.87,1.87,0,0,0-.67-1.43,5.23,5.23,0,0,0-2.4-1,8.12,8.12,0,0,1-3.05-1.21,2.44,2.44,0,0,1-1-2.09,2.82,2.82,0,0,1,1.12-2.26,4.52,4.52,0,0,1,2.95-.92,6.38,6.38,0,0,1,2.32.4,4.57,4.57,0,0,1,1.71,1.06Z"/><path class="cls-6" d="M444.43,323.27v-1h2.8l.16,1.81a4.15,4.15,0,0,1,1.5-1.5,4.22,4.22,0,0,1,2.14-.53,3.75,3.75,0,0,1,3.25,1.68,7.63,7.63,0,0,1,1.17,4.46v.23a6.79,6.79,0,0,1-1.17,4.17,3.82,3.82,0,0,1-3.23,1.56,4.64,4.64,0,0,1-2.13-.47,3.87,3.87,0,0,1-1.48-1.33v4.95l1.73.14v1h-4.74v-1l1.74-.14V323.41Zm9.74,5a6.78,6.78,0,0,0-.87-3.62,2.85,2.85,0,0,0-2.56-1.4,3.38,3.38,0,0,0-2.1.62,3.88,3.88,0,0,0-1.2,1.61V331a3.53,3.53,0,0,0,1.26,1.51,3.62,3.62,0,0,0,2.06.55,2.89,2.89,0,0,0,2.54-1.27,5.87,5.87,0,0,0,.87-3.37Z"/><path class="cls-6" d="M462.61,334.19a4.61,4.61,0,0,1-3.6-1.61,6,6,0,0,1-1.43-4.1v-.59a6.11,6.11,0,0,1,1.42-4.15,4.4,4.4,0,0,1,3.44-1.65,4.3,4.3,0,0,1,3.34,1.36,5.26,5.26,0,0,1,1.21,3.62v1.1h-8.14v.31a5.14,5.14,0,0,0,1,3.29,3.28,3.28,0,0,0,2.72,1.33,5.3,5.3,0,0,0,2-.34,3.9,3.9,0,0,0,1.44-.95l.55.88a4.66,4.66,0,0,1-1.64,1.09A6.25,6.25,0,0,1,462.61,334.19Zm-.17-11a3.06,3.06,0,0,0-2.37,1.09,4.78,4.78,0,0,0-1.13,2.75l0,.05h6.75v-.32a3.77,3.77,0,0,0-.88-2.55A3,3,0,0,0,462.44,323.19Z"/><path class="cls-6" d="M472,322.31l.16,1.94v.14a4.14,4.14,0,0,1,1.34-1.69,3.37,3.37,0,0,1,2-.61,3.57,3.57,0,0,1,.47,0l.38.08-.17,1.21-1-.07a2.88,2.88,0,0,0-2,.69,3.77,3.77,0,0,0-1.1,1.88v6.95l1.74.14V334h-4.75V333l1.74-.14v-9.46l-1.74-.14v-1H472Z"/><path class="cls-6" d="M485.85,332.28a4,4,0,0,1-1.48,1.41,4.35,4.35,0,0,1-2.13.5,3.82,3.82,0,0,1-3.24-1.56,6.89,6.89,0,0,1-1.16-4.17v-.23a7.7,7.7,0,0,1,1.16-4.46,3.76,3.76,0,0,1,3.26-1.68,4.12,4.12,0,0,1,2.09.51,4.28,4.28,0,0,1,1.47,1.46v-5.8l-1.74-.14v-1h3v15.71l1.74.14V334H486Zm-6.72-3.82a6.05,6.05,0,0,0,.83,3.36,2.84,2.84,0,0,0,2.52,1.25,3.62,3.62,0,0,0,2.06-.56,3.81,3.81,0,0,0,1.28-1.54v-5.52a3.88,3.88,0,0,0-1.23-1.61,3.28,3.28,0,0,0-2.08-.63,2.79,2.79,0,0,0-2.54,1.4,7,7,0,0,0-.84,3.62Z"/><path class="cls-6" d="M490.72,323.27v-1h3v10.56l1.73.14V334h-4.74V333l1.74-.14v-9.46Zm3.54-5.28h1.57l0,.06-2.65,2.8h-1.15Z"/><path class="cls-6" d="M502.51,333.1a3.69,3.69,0,0,0,2.24-.73,2.43,2.43,0,0,0,1-2h1.12l0,.07a3.23,3.23,0,0,1-1.28,2.7,4.73,4.73,0,0,1-3.08,1.09,4.37,4.37,0,0,1-3.64-1.64,6.53,6.53,0,0,1-1.29-4.19v-.45a6.54,6.54,0,0,1,1.29-4.18,4.36,4.36,0,0,1,3.63-1.64,5.8,5.8,0,0,1,2.44.51,4.82,4.82,0,0,1,1.8,1.38l.05,2.54h-1.08l-.21-2.07a3.62,3.62,0,0,0-1.27-.92,4.17,4.17,0,0,0-1.73-.34,3.08,3.08,0,0,0-2.75,1.34,6,6,0,0,0-.89,3.38v.45a6,6,0,0,0,.89,3.4A3.08,3.08,0,0,0,502.51,333.1Z"/><path class="cls-6" d="M509.16,333l1.73-.14v-9.46l-1.73-.14v-1h3v10.56l1.74.14V334h-4.74Zm3-14h-1.27v-1.81h1.27Z"/><path class="cls-6" d="M516,328a6.32,6.32,0,0,1,1.4-4.22,5,5,0,0,1,7.4,0,6.32,6.32,0,0,1,1.4,4.22v.36a6.28,6.28,0,0,1-1.39,4.22,5,5,0,0,1-7.41,0,6.28,6.28,0,0,1-1.4-4.22Zm1.28.36a5.62,5.62,0,0,0,1,3.4,3.32,3.32,0,0,0,2.83,1.38,3.28,3.28,0,0,0,2.79-1.38,5.62,5.62,0,0,0,1-3.4V328a5.56,5.56,0,0,0-1-3.38,3.53,3.53,0,0,0-5.61,0,5.62,5.62,0,0,0-1,3.38Z"/><path class="cls-6" d="M530.29,334h-1.46v-1.77h1.46Z"/><g class="cls-7"><polyline class="cls-8" points="139.31 374.43 130.97 360.32 148.23 362.67 144.54 374.43"/><path class="cls-9" d="M152.71,261l6.37,24.46s1,6-1.18,8.21-12.4,13.74-12.4,13.74l-5.69,11.23,33,18.76,39.37-10.55L211,299.22s-20.16-1.28-31.92-10.11c-2.31-1.73-4.27-21.89-4.27-21.89Z"/><path class="cls-8" d="M175.91,276.11c-.62-4.51-1.12-9.06-1.12-9.06l-22.12-6.2,1.77,6.82s6.92,4.51,9.08,5.45A42,42,0,0,0,175.91,276.11Z"/><path class="cls-9" d="M139.7,250.85s12.79,22.78,51,22.78c15.8,0,21.67-3.68,22.56-8.81,5.6-32.24-6.31-73-22.84-85.46-14.49-10.91-65.91,30.38-65.91,30.38l10.95,24.58s-11.17-12.06-15.64-5.36,9.72,20.89,9.72,20.89S135.9,254.65,139.7,250.85Z"/><path class="cls-9" d="M216,302.52c3.79-2,7.2,2.72,7.2,2.72l38.55,67.48-33.27,59.7s11.17,18.76,5.58,27.25l7.71,7.71s1.23,4.13-4.36,4.13-18.76-9.83-18.76-9.83l1.53-42.08,24.84-44.79-22.81-33.92-7.14-6.33S209,306.27,216,302.52Z"/><path class="cls-9" d="M176,491.39l-32.28,81s-4.16,15.33-9.11,20.27A217.93,217.93,0,0,1,122.38,628c-8.38,18.76-12.06,44.57-12.06,44.57s7.62,19.35,6.7,28.06c0,0,7.29,10.06,4.36,15.84S107,718.78,107,718.78s-19.19,2.52-22-2.26,3.6-17.59,3.6-17.59-.92-10.22,2.43-12.57,7.38-8,7.38-8-1.26-3.35,2.26-7.88,8.71-33.54,8.71-37.33-4.69-32.17,11-43.35c0,0,3.8-77.07,14.52-87.8S176,484.87,176,484.87Z"/><path class="cls-10" d="M176,491.39l-10.32,25.88s-14.28,6.37-17.9,7.26c-2.68.66-21.79,6.57-21.15,2.71,2-12,4.78-21.91,8.15-25.28C145.5,491.24,176,484.87,176,484.87Z"/><path class="cls-9" d="M187.51,479.4s27,102.1,29,106.79S208,600,226.43,664.66c0,0-1.17,8.55-2.84,11.56s-5.53,10.73-.67,13.41,20.6,16.08,27.31,17.26,19.27-4.69,19.27-4.69,6.7-2.52,4.6-4.61c0,0-6.11-.25-8.12-2.26s-24.8-19.94-24.8-19.94-7-9-7-9.67-5-80.14-5-80.14,1.84-5,0-15.25-1-74.62-1-74.62Z"/><path class="cls-10" d="M187.51,479.4l8.24,31c.73,2.72,32.25,4.9,32.25,4.9l.17-19.6Z"/><path class="cls-11" d="M187.5,499.62c5.23,10.36,42,12.55,45,13.52,0,0,1-41.62-4.91-65S187.5,499.62,187.5,499.62Z"/><path class="cls-12" d="M142.82,241.69c6.48,2.68.9-8.93.9-8.93s-.62-11.65-3.91-13.63a47.23,47.23,0,0,1-7.2-5.88l61.82-42.38s6.26-8.71-8-14.07a17,17,0,0,0-17.32-5.14s-6.25-7.49-15.3-.62c0,0-18.21-1.06-22.34,7.88a6.79,6.79,0,0,0-6.7,3.8s-3.8,1.45-4.53,4.52c0,0-9.21,3.63-9.77,9.78,0,0-5,7-1,12.73,0,0-2.65,5,.79,8.43,0,0-7.71,8.44,0,13.69,0,0-1.9,5.47,9.38,7.7l3.35,6.93s3.23-1.47,12.51,7.82Z"/><path class="cls-8" d="M187.84,241.63a1.5,1.5,0,0,1,0-3c2.79,0,10.44-2.45,14.27-3.78-1.26-12-8.89-20.93-13.42-25.26a1.5,1.5,0,1,1,2.07-2.17c5,4.77,13.49,14.79,14.44,28.36l.08,1.13-1.07.39C203,237.74,192,241.63,187.84,241.63Z"/><ellipse class="cls-13" cx="166.38" cy="214.67" rx="3.01" ry="4.11" transform="translate(-47.29 47.01) rotate(-14.1)"/><path class="cls-13" d="M163.3,216.17h-.07a1.48,1.48,0,0,1-1.43-1.56c0-.22.27-5.4,3.8-7.31,2.23-1.21,5.08-.79,8.46,1.23a1.5,1.5,0,0,1-1.53,2.58c-1.66-1-4-2-5.5-1.17-1.69.9-2.19,3.78-2.24,4.8A1.5,1.5,0,0,1,163.3,216.17Z"/><ellipse class="cls-13" cx="193.46" cy="207.34" rx="3.01" ry="4.11" transform="translate(-44.69 53.39) rotate(-14.1)"/><path class="cls-13" d="M190.38,207.22a1.39,1.39,0,0,1-.4-.06,1.49,1.49,0,0,1-1-1.84c.06-.21,1.47-5.21,5.34-6.28,2.44-.67,5.13.37,8,3.09a1.5,1.5,0,0,1-2.08,2.17c-1.39-1.33-3.41-2.83-5.1-2.36-1.84.5-3,3.19-3.25,4.18A1.5,1.5,0,0,1,190.38,207.22Z"/><path class="cls-8" d="M135,248.28s-.34-14.66-11.65-18.18"/><path class="cls-14" d="M145.5,307.43s-10.73,4-15.72,8.95c0,0,30.08,43.63,9.53,58,0,0,18.93,36.17,16.92,43.54s-35.65,101.27-35.65,101.27,103.88-1.85,107.59-69.77l-4.92-39.09a328.2,328.2,0,0,0,2.9-39.65c.22-19.09-1.87-41-3.4-56a24.12,24.12,0,0,0-7.05-15.18l-9.78-.92s7.72,25.88-10.15,28.33C186.14,328.29,162.93,331.4,145.5,307.43Z"/><g class="cls-15"><path class="cls-16" d="M124.45,521.77S228.33,519.92,232,452Z"/></g><path class="cls-14" d="M145.5,307.43s-10.73,4-15.72,8.95c0,0,30.08,43.63,9.53,58,0,0,18.93,36.17,16.92,43.54s-35.65,101.27-35.65,101.27,103.88-1.85,107.59-69.77l-4.92-39.09a328.2,328.2,0,0,0,2.9-39.65c.22-19.09-1.87-41-3.4-56a24.12,24.12,0,0,0-7.05-15.18l-9.78-.92s7.72,25.88-10.15,28.33C186.14,328.29,162.93,331.4,145.5,307.43Z"/><path class="cls-17" d="M153.92,425.56s54.77,7.29,70-10.13c0,0,1.65-3.44-.64-5.06.33,3.22-25.73,17.25-67,8.37C156.23,418.74,151.24,420.53,153.92,425.56Z"/><circle class="cls-18" cx="199.42" cy="422.92" r="12.78"/><g class="cls-19"><path class="cls-20" d="M138.76,175.79s-5.49,6.64,1.47,11.08c2.43,1.56-7.21,9-7.21,9l-3.89,21.87s5-2,8.38-2L155.14,236,143.83,243l-36.08-24.31-24-46.4,30.94-28.09,33.85-7.88-6,11.79s-14.37,8.78-8.88,15.11C130.26,165.67,129.59,175.14,138.76,175.79Z"/></g><path class="cls-6" d="M123.11,226.5s-6.48-2.9-6.48-8.27,25.24-56.07,78-47.36c0,0,8.15,5.7,5.36,8.49,0,0,5,6.25,1,9.6S177.4,187.4,123.11,226.5Z"/><path class="cls-21" d="M126,214.67s33.73-41.12,69.81-35.76C195.77,178.91,162.15,180.72,126,214.67Z"/><path class="cls-22" d="M200.8,432.9c-1.9,0-6-.37-8.6-3.32-2.29-2.55-2.92-6.31-1.87-11.18a1.5,1.5,0,1,1,2.93.64c-.83,3.86-.44,6.73,1.17,8.53,2.44,2.73,7,2.31,7.1,2.31a1.5,1.5,0,0,1,.31,3A10.17,10.17,0,0,1,200.8,432.9Z"/><path class="cls-23" d="M207.13,428.57l-.32,0a1.5,1.5,0,0,1-1.14-1.79c.85-3.86.48-6.73-1.12-8.54-2.42-2.75-7-2.35-7.09-2.35a1.5,1.5,0,0,1-.29-3c.25,0,6.17-.55,9.62,3.34,2.28,2.57,2.88,6.33,1.81,11.19A1.5,1.5,0,0,1,207.13,428.57Z"/><path class="cls-8" d="M189.25,252.9l8.26-4,3.82-1.84,1.91-.93a3.54,3.54,0,0,0,2.55-2.54c-1.41,1.33.72,3.45,2.12,2.13,2.33-2.21-.51-4.32-2.85-3.72-2.65.66-5.34,2.51-7.79,3.69l-9.54,4.61c-1.73.84-.22,3.43,1.52,2.59Z"/><path class="cls-9" d="M134.36,313.77s-15.78,8.91-17.23,10.36-2.86,20.55-2.86,20.55L122.09,363l61.33,14.43,19.5,2.69,7.12-74L194.14,302l-4.35,56.29-34-8.93-11-24.36-6-13.18Z"/><path class="cls-9" d="M209.44,306.91c1.57-2.25,5.71-8.69,7.94-10.16,3.84-2.52.88-7.15,1.22-7.74a6.09,6.09,0,0,0,1-4.65c-.68-2.85-2-.82-1.55-3.71a6.12,6.12,0,0,0,0-2.6c-1.13-2.11-2.59-.54-2.56-3,0-1.4,1.74-5.51,2.78-8.23a7.4,7.4,0,0,0-.88-5.84,2.2,2.2,0,0,0-2.79-.81c-1.56,1-2,3.87-3.06,5.4-2.44,3.41-2.73,3.16-5.76,6-1.17,1.08-6.46,8.12-8.19,7.88-1.52-.21-3.53-5.85-6.2-5.85-4.49,0-8-.52-8-.28,0,2.2,2.76,10.3,3.59,11.13,1.09,1.09,5.41,6.77,5.88,10.66s1.78,6.63,1.13,10.49Z"/><path class="cls-8" d="M191.14,360.22l-35.83-9.44c-.52-.19-12.75-4.81-15.53-12.87a1.5,1.5,0,0,1,2.84-1c2.23,6.47,12.75,10.65,13.67,11l32.14,8.45c.7-9.06,3.75-48.29,4.11-51,.29-2.22-.71-8-1.12-10l0-.3c0-2.65-4.27-8.44-5.43-9.6-.86-.86-2.19-4.83-4-11.82a1.5,1.5,0,0,1,2.91-.75c1.12,4.4,2.67,9.62,3.24,10.5.84.89,6.12,7.36,6.26,11.51.25,1.26,1.52,7.85,1.13,10.84s-4.19,52.11-4.23,52.61Zm-3.07-76.8,0,0Z"/><path class="cls-8" d="M197.58,281a1.48,1.48,0,0,1-1.18-.58,1.5,1.5,0,0,1,.25-2.1c.12-.1,12-9.47,15.85-18a3.3,3.3,0,0,1,1.81-1.95,3.13,3.13,0,0,1,2.77.32,1.51,1.51,0,0,1,.55,2.05,1.48,1.48,0,0,1-2,.55l-.2-.09-.08.16-.05.13c-4.15,9.23-16.24,18.78-16.76,19.19A1.51,1.51,0,0,1,197.58,281Z"/><path class="cls-8" d="M203.14,264.19a1.14,1.14,0,0,1-.4-.08,1,1,0,0,1-.51-1.32c.16-.38,4.12-9.33,9.47-7.38a1,1,0,0,1-.69,1.88c-3.55-1.3-6.92,6.22-6.95,6.3A1,1,0,0,1,203.14,264.19Z"/><path class="cls-14" d="M129.78,316.38s17,9.09,21.51,21-8.77-28.77-8.77-28.77S134.13,312,129.78,316.38Z"/><path class="cls-2" d="M161.37,148.14a10.79,10.79,0,0,1,7.7,3.52,18.72,18.72,0,0,1,4.67-.62,17,17,0,0,1,12.65,5.76c13.89,5.21,8.38,13.58,8.06,14l.15,0s8.15,5.7,5.36,8.49c0,0,5,6.25,1,9.6a4.52,4.52,0,0,1-1.46.73c10.86,16.92,17.55,46.13,14.33,71.23a2.8,2.8,0,0,1,.75-.71,1.58,1.58,0,0,1,.86-.24,2.46,2.46,0,0,1,1.93,1,7.4,7.4,0,0,1,.88,5.84c-1,2.72-2.77,6.83-2.78,8.23,0,2.42,1.43.85,2.56,3a6.12,6.12,0,0,1,0,2.6c-.45,2.89.87.86,1.55,3.71a6.09,6.09,0,0,1-1,4.65c-.34.59,2.62,5.22-1.22,7.74a14,14,0,0,0-2.64,2.72l1,.09a24.81,24.81,0,0,1,2.17,2.46H218c2.94,0,5.26,3.22,5.26,3.22l38.55,67.48-33.27,59.7s11.17,18.76,5.58,27.25l7.71,7.71s1.23,4.13-4.36,4.13c-1.66,0-4-.87-6.47-2.1a422,422,0,0,1,1.54,43.73,39.77,39.77,0,0,0-4.5-.68l0,2.85h0c-.11,19.84-.05,48.49,1.13,55,1.84,10.22,0,15.25,0,15.25s5,79.53,5,80.14,7,9.67,7,9.67,9.31,7.32,16.55,13.13h0s4.36,1.14,6.06,2.56a6,6,0,0,1,1.83,3.81c.48.32,1.28.87,2.19,1.53a23.7,23.7,0,0,0,6.29,1.17c1,1,0,2.08-1.29,2.94.72.78,1.15,1.45,1,1.89-.47,1.74-7.21,8.84-19.39,8.84-.69,0-1.39,0-2.11-.07-12.79-.84-30.52-14.47-32-18.27a11.31,11.31,0,0,1,.19-7.65c0-3.23,2-7.11,3-9,1.67-3,2.84-11.56,2.84-11.56-18.43-64.67-7.87-73.78-9.88-78.47-1.28-3-12.67-45.32-20.8-75.78h0a.29.29,0,0,0,0-.09c-.48-1.78-.94-3.52-1.39-5.2a21.37,21.37,0,0,1-4.2-2.49A131.65,131.65,0,0,1,168,511.4l-24.3,60.94s-4.16,15.33-9.11,20.27A217.93,217.93,0,0,1,122.38,628c-8.38,18.76-12.06,44.57-12.06,44.57s6,15.24,6.7,24.76c7.06,9.67,13.4,21.6,5,25.11a48.12,48.12,0,0,1-18.29,3.22c-10.13,0-19.22-2.38-21.34-4.49-3.4-3.41,6.27-29.21,6.27-29.21.29-2.35.95-4.61,2.31-5.57,3.36-2.34,7.38-8,7.38-8s-1.26-3.35,2.26-7.88,8.71-33.54,8.71-37.33-4.69-32.18,11-43.35c0,0,1.79-36.27,6.37-62.51h0c.5-3,1-5.82,1.63-8.46-4.8.39-7.68.45-7.68.45s25.1-70.07,33.23-93.9c-2.07-4.15,1.18-6,2.15-6.47.12-.37.21-.68.27-.9,2-7.37-16.92-43.54-16.92-43.54l-5.06-8.56L122.09,363l-7.82-18.32s1.41-19.1,2.86-20.55c.94-.94,7.87-5,12.65-7.75h0c5-5,15.72-8.95,15.72-8.95s10.23-11.56,12.4-13.74,1.18-8.21,1.18-8.21l-5.6-21.5c-9.88-6.21-13.78-13.13-13.78-13.13a5,5,0,0,1-3.65,1.46c-3.25,0-6.52-2.46-6.52-2.46s-14.19-14.19-9.72-20.89a4.21,4.21,0,0,1,3.68-2c2.92,0,6.41,2.41,8.86,4.48-5-4.4-7.72-5-8.82-5a1.58,1.58,0,0,0-.34,0l-.08.06-.07,0a.26.26,0,0,0-.1,0l0-.11c-1.06-.52-5.8-3.13-6.22-7.55-8-2.51-6.46-7-6.46-7-7.71-5.25,0-13.69,0-13.69-3.44-3.43-.79-8.43-.79-8.43-4-5.7,1-12.73,1-12.73.56-6.15,9.77-9.78,9.77-9.78.73-3.07,4.53-4.52,4.53-4.52a6.7,6.7,0,0,1,6.19-3.82c.32,0,.51,0,.51,0C134.77,151.7,147.3,151,152,151c1.11,0,1.78,0,1.78,0a12.54,12.54,0,0,1,7.6-2.9m36.3,131.34c1.68,0,6.19-5.82,7.77-7.54-3.42,1.06-8.12,1.67-14.41,1.69h.35c2.67,0,4.68,5.64,6.2,5.85h.09m-21.76-3.37h0c.8,5.64,2,12.06,3.21,13A46.19,46.19,0,0,0,193,295.77c0-.21-.06-.41-.08-.63-.47-3.89-4.79-9.57-5.88-10.66-.83-.83-3.57-8.93-3.59-11.13h0a78,78,0,0,1-8-1.06c.15,1.21.32,2.52.5,3.83m48.47,136,20.68-37.29L225.4,345.57c.52,8.4.85,17,.75,25.15a328.2,328.2,0,0,1-2.9,39.65,2.79,2.79,0,0,1,1.13,1.73m40.75,282.46h0M161.37,142.14h0A17.52,17.52,0,0,0,152,145c-6.83,0-18.24,1.15-24,8.2a12.44,12.44,0,0,0-7.47,4.91,13.71,13.71,0,0,0-4.88,4.64c-3.46,1.8-9.47,5.75-10.91,12-2.16,3.65-4.12,9.68-1.83,15.42a13.67,13.67,0,0,0,.2,7.66,16,16,0,0,0-2.22,9.6,12.41,12.41,0,0,0,3.39,7.18,10.57,10.57,0,0,0,.94,2.71,13.46,13.46,0,0,0,6.51,6A14.76,14.76,0,0,0,114,227c-2.34,4.83-1,11,4,18.29a68.38,68.38,0,0,0,7.25,8.8l.29.3.34.25c.81.61,5.13,3.67,10.13,3.67a11.91,11.91,0,0,0,1.59-.1,52.71,52.71,0,0,0,10.62,9.52l4.93,18.95a12.53,12.53,0,0,1,0,3.23c-2.39,2.48-8.72,9.6-11.24,12.45-3.29,1.33-11,4.72-15.83,9.19-11.63,6.71-12.57,7.65-13.26,8.34-1.49,1.49-3,3-4.6,24.35l-.11,1.46.57,1.34,7.82,18.32,1.2,2.79,3,.69,9.66,2.28,3.68,6.22c.58,1.11,4.63,9,8.57,17.62,5.87,12.92,7.31,18.47,7.65,20.6a9.93,9.93,0,0,0-2.82,9.81c-8.66,25.19-32.28,91.15-32.53,91.83L112,525.38l8.69-.16h.2c0,.19-.07.38-.1.57l-.29.86.06.47c-3.81,22.33-5.65,50.81-6.15,59.65-13.93,12.48-11.92,36.32-11.24,44.43.06.74.14,1.65.14,1.92-.1,4.21-5.09,29.8-7.5,33.71a16.1,16.1,0,0,0-3.7,9.78,27.85,27.85,0,0,1-4.59,4.84c-2.51,1.76-4.06,4.71-4.73,9-.66,1.82-2.62,7.29-4.32,13.14-3.66,12.67-3.75,18.37-.33,21.79,4.29,4.3,16.27,6.25,25.58,6.25A54.13,54.13,0,0,0,124.33,728a11.91,11.91,0,0,0,7.21-7.93c1.72-6.17-1-14.12-8.71-24.92-1-8.37-4.85-19.21-6.34-23.21.92-5.67,4.56-26.23,11.37-41.48a227.4,227.4,0,0,0,12.23-34.94c4.93-6.18,8.43-18,9.32-21.22l23.12-58a139.59,139.59,0,0,0,16.82-6.58l.58,2.16,0,.06c17,63.84,20.05,73.82,20.85,76-.05.47-.19,1.29-.3,2-1.27,7.62-4.24,25.37,9.81,75.12a40.1,40.1,0,0,1-2,8.25c-2.29,4.11-3.52,7.68-3.75,10.84a17.1,17.1,0,0,0,.17,10.92c1.93,5,11.28,11.34,14.1,13.15,4.83,3.09,14.25,8.38,23.09,9,.83.05,1.67.08,2.5.08,14.36,0,23.88-8.5,25.18-13.26a6.58,6.58,0,0,0,.2-2.49,7.2,7.2,0,0,0-1.48-8.17l-1.66-1.65-2.33-.1a19.71,19.71,0,0,1-3.51-.5,11,11,0,0,0-3.21-4.61,21.72,21.72,0,0,0-7.11-3.4c-6-4.78-13-10.34-15.06-12-2.06-2.67-4.35-5.69-5.43-7.24-.27-4.49-1.25-20.36-4.87-77.67.62-2.55,1.44-8.16-.15-17-.37-2.07-1.2-11-1.05-49.38l4.37,1.39.18-8c0-.8.38-17.48-.86-35.76,4.72-.06,7.24-2.1,8.52-3.82a9.23,9.23,0,0,0,1.38-8l-.43-1.46-1.08-1.07-4.92-4.92c2.11-8.89-2.77-20.09-5.75-25.8L267,375.64l1.65-2.95L267,369.75l-38.55-67.48-.16-.28-.18-.25A15.79,15.79,0,0,0,224.2,298a11.65,11.65,0,0,0,.73-8.21,11.28,11.28,0,0,0,.52-6.81,9.76,9.76,0,0,0-1.28-3.1,8.11,8.11,0,0,0-.84-4.66,9,9,0,0,0-1.19-1.73c.36-1,.79-2.09,1.08-2.85.23-.58.45-1.13.64-1.64,1.47-3.84.34-8.62-1.53-11.36a8.15,8.15,0,0,0-2-2c1.5-22.09-3.63-47.25-13.22-64.78,2.26-3.8,1.53-8.47-.63-12.41a7.77,7.77,0,0,0,0-1.18c-.29-3.27-2.56-6.21-4.93-8.44a13,13,0,0,0-.39-6.32c-1.44-4.59-5.25-8.21-11.32-10.76A22.85,22.85,0,0,0,173.74,145a24.44,24.44,0,0,0-2.94.19,16.26,16.26,0,0,0-9.43-3.09Zm70.2,244.62c.3-4.91.52-10.31.58-16,0-1.42,0-2.89,0-4.39l5.87,8.72-6.46,11.65Z"/><path class="cls-8" d="M195,276.79a1.5,1.5,0,0,1-.87-.28,52.52,52.52,0,0,0-6-3.49,4.08,4.08,0,0,0-2.13-.31,1.49,1.49,0,0,0-1.1,1A1.5,1.5,0,0,1,182,273a4.51,4.51,0,0,1,3.38-3.21,6.87,6.87,0,0,1,3.81.42,53,53,0,0,1,6.69,3.86,1.5,1.5,0,0,1,.36,2.09A1.47,1.47,0,0,1,195,276.79Z"/></g><g class="cls-24"><path class="cls-17" d="M220.55-24.44a11.31,11.31,0,0,0-.19,7.65c1.46,3.8,19.19,17.43,32,18.27,13.51.88,21-6.93,21.5-8.77s-8.71-7.86-8.71-7.86Z"/><path class="cls-17" d="M88.64-17.78S79,8,82.38,11.43,107.19,18.9,122,12.7s-16.17-38.53-16.17-38.53Z"/><path class="cls-9" d="M176-218.32l-32.28,80.95s-4.16,15.33-9.11,20.27a217.93,217.93,0,0,1-12.23,35.36C114-63,110.32-37.17,110.32-37.17s7.62,19.35,6.7,28.06c0,0,7.29,10.06,4.36,15.84S107,9.07,107,9.07s-19.19,2.52-22-2.26,3.6-17.59,3.6-17.59S87.61-21,91-23.35s7.38-8,7.38-8-1.26-3.35,2.26-7.88,8.71-33.54,8.71-37.33-4.69-32.17,11-43.35c0,0,3.8-77.07,14.52-87.8S176-224.84,176-224.84Z"/><path class="cls-17" d="M83.64,1.9S102.82-6.31,122,0a8.33,8.33,0,0,0-1.43-4.69C119-7.23,95-11.09,84.73-2.67,84.73-2.67,82.55.47,83.64,1.9Z"/><path class="cls-2" d="M161.37-561.57a10.79,10.79,0,0,1,7.7,3.52,18.72,18.72,0,0,1,4.67-.62,17,17,0,0,1,12.65,5.76c13.89,5.21,8.38,13.58,8.06,14l.15,0s8.15,5.7,5.36,8.49c0,0,5,6.25,1,9.6a4.52,4.52,0,0,1-1.46.73c10.86,16.92,17.55,46.13,14.33,71.23a2.8,2.8,0,0,1,.75-.71,1.58,1.58,0,0,1,.86-.24,2.46,2.46,0,0,1,1.93,1.05,7.4,7.4,0,0,1,.88,5.84c-1,2.72-2.77,6.83-2.78,8.23,0,2.42,1.43.85,2.56,3a6.12,6.12,0,0,1,0,2.6c-.45,2.89.87.86,1.55,3.71a6.09,6.09,0,0,1-1,4.65c-.34.59,2.62,5.22-1.22,7.74a14,14,0,0,0-2.64,2.72l1,.09a24.81,24.81,0,0,1,2.17,2.46H218c2.94,0,5.26,3.22,5.26,3.22L261.79-337l-33.27,59.7s11.17,18.76,5.58,27.25l7.71,7.71s1.23,4.13-4.36,4.13c-1.66,0-4-.87-6.47-2.1a422,422,0,0,1,1.54,43.73,39.77,39.77,0,0,0-4.5-.68l0,2.85h0c-.11,19.84-.05,48.49,1.13,55,1.84,10.22,0,15.25,0,15.25s5,79.53,5,80.14,7,9.67,7,9.67,9.31,7.32,16.55,13.13h0s4.36,1.14,6.06,2.56a6,6,0,0,1,1.83,3.81c.48.32,1.28.87,2.19,1.53a23.7,23.7,0,0,0,6.29,1.17c1,1,0,2.08-1.29,2.94.72.78,1.15,1.45,1,1.89-.47,1.74-7.21,8.84-19.39,8.84-.69,0-1.39,0-2.11-.07-12.79-.84-30.52-14.47-32-18.27a11.31,11.31,0,0,1,.19-7.65c0-3.23,2-7.11,3-9,1.67-3,2.84-11.56,2.84-11.56-18.43-64.67-7.87-73.78-9.88-78.47-1.28-3-12.67-45.32-20.8-75.78h0a.29.29,0,0,0,0-.09c-.48-1.78-.94-3.52-1.39-5.2a21.37,21.37,0,0,1-4.2-2.49A131.65,131.65,0,0,1,168-198.31l-24.3,60.94s-4.16,15.33-9.11,20.27a217.93,217.93,0,0,1-12.23,35.36C114-63,110.32-37.17,110.32-37.17s6,15.24,6.7,24.76c7.06,9.67,13.4,21.6,5,25.11a48.12,48.12,0,0,1-18.29,3.22c-10.13,0-19.22-2.38-21.34-4.49C79,8,88.65-17.78,88.65-17.78c.29-2.35.95-4.61,2.31-5.57,3.36-2.34,7.38-8,7.38-8s-1.26-3.35,2.26-7.88,8.71-33.54,8.71-37.33-4.69-32.17,11-43.35c0,0,1.79-36.27,6.37-62.51h0c.5-3,1-5.82,1.63-8.46-4.8.39-7.68.45-7.68.45s25.1-70.07,33.23-93.9c-2.07-4.15,1.18-6,2.15-6.47.12-.37.21-.68.27-.9,2-7.37-16.92-43.53-16.92-43.53l-5.06-8.57-12.16-2.86L114.27-365s1.41-19.1,2.86-20.55c.94-.94,7.87-5,12.65-7.75h0c5-5,15.72-8.95,15.72-8.95s10.23-11.56,12.4-13.74,1.18-8.21,1.18-8.21l-5.6-21.5c-9.88-6.21-13.78-13.13-13.78-13.13a5,5,0,0,1-3.65,1.46c-3.25,0-6.52-2.46-6.52-2.46s-14.19-14.19-9.72-20.89a4.21,4.21,0,0,1,3.68-2c2.92,0,6.41,2.41,8.86,4.48-5-4.4-7.72-5-8.82-5a1.58,1.58,0,0,0-.34,0l-.08.06-.07,0a.26.26,0,0,0-.1,0l0-.11c-1.06-.52-5.8-3.13-6.22-7.55-8-2.51-6.46-7-6.46-7-7.71-5.25,0-13.69,0-13.69-3.44-3.43-.79-8.43-.79-8.43-4-5.7,1-12.73,1-12.73.56-6.15,9.77-9.78,9.77-9.78.73-3.07,4.53-4.52,4.53-4.52a6.7,6.7,0,0,1,6.19-3.82c.32,0,.51,0,.51,0,3.34-7.22,15.87-7.91,20.56-7.91,1.11,0,1.78,0,1.78,0a12.54,12.54,0,0,1,7.6-2.9m36.3,131.34c1.68,0,6.19-5.82,7.77-7.54-3.42,1.06-8.12,1.67-14.41,1.69h.35c2.67,0,4.68,5.64,6.2,5.85h.09m-21.76-3.37h0c.8,5.64,2,12.06,3.21,13A46.19,46.19,0,0,0,193-413.94c0-.21-.06-.41-.08-.63-.47-3.89-4.79-9.57-5.88-10.66-.83-.83-3.57-8.93-3.59-11.13h0a78,78,0,0,1-8-1.06c.15,1.21.32,2.52.5,3.83m48.47,136,20.68-37.29L225.4-364.14c.52,8.4.85,17,.75,25.15a328.2,328.2,0,0,1-2.9,39.65,2.79,2.79,0,0,1,1.13,1.73M265.13-15.15h0M161.37-567.57h0a17.52,17.52,0,0,0-9.4,2.87c-6.83,0-18.24,1.15-24,8.2a12.44,12.44,0,0,0-7.47,4.91,13.71,13.71,0,0,0-4.88,4.64c-3.46,1.8-9.47,5.75-10.91,12-2.16,3.65-4.12,9.68-1.83,15.42a13.67,13.67,0,0,0,.2,7.66,16,16,0,0,0-2.22,9.6,12.41,12.41,0,0,0,3.39,7.18,10.57,10.57,0,0,0,.94,2.71,13.46,13.46,0,0,0,6.51,6,14.76,14.76,0,0,0,2.33,3.66c-2.34,4.83-1,11,4,18.29a68.38,68.38,0,0,0,7.25,8.8l.29.3.34.25c.81.61,5.13,3.67,10.13,3.67a11.91,11.91,0,0,0,1.59-.1A52.71,52.71,0,0,0,148.26-442l4.93,19a12.53,12.53,0,0,1,0,3.23c-2.39,2.48-8.72,9.6-11.24,12.45-3.29,1.33-11,4.72-15.83,9.19-11.63,6.71-12.57,7.65-13.26,8.34-1.49,1.49-3,3-4.6,24.35l-.11,1.46.57,1.34,7.82,18.32,1.2,2.79,3,.69,9.66,2.28,3.68,6.22c.58,1.11,4.63,8.95,8.57,17.62,5.87,12.92,7.31,18.47,7.65,20.6a10.17,10.17,0,0,0-2.59,4,10.07,10.07,0,0,0-.23,5.85c-8.66,25.19-32.28,91.15-32.53,91.83L112-184.32l8.69-.17h.2c0,.19-.07.38-.1.57l-.29.86.06.47c-3.81,22.33-5.65,50.81-6.15,59.65-13.93,12.48-11.92,36.32-11.24,44.43.06.74.14,1.65.14,1.92-.1,4.21-5.09,29.8-7.5,33.71a16.1,16.1,0,0,0-3.7,9.78,27.85,27.85,0,0,1-4.59,4.84c-2.51,1.76-4.06,4.71-4.73,9-.66,1.82-2.62,7.29-4.32,13.14-3.66,12.67-3.75,18.37-.33,21.79,4.29,4.3,16.27,6.25,25.58,6.25a54.13,54.13,0,0,0,20.61-3.68,11.91,11.91,0,0,0,7.21-7.93c1.72-6.17-1-14.12-8.71-24.92-1-8.37-4.85-19.21-6.34-23.21.92-5.67,4.56-26.23,11.37-41.48a227.4,227.4,0,0,0,12.23-34.94c4.93-6.18,8.43-18,9.32-21.22l23.12-58A139.59,139.59,0,0,0,189.35-200l.58,2.16,0,.06c17,63.84,20.05,73.82,20.85,76-.05.47-.19,1.29-.3,2-1.27,7.62-4.24,25.37,9.81,75.12a40.1,40.1,0,0,1-2,8.25c-2.29,4.12-3.52,7.68-3.75,10.84a17.1,17.1,0,0,0,.17,10.92c1.93,5,11.28,11.34,14.1,13.15,4.83,3.09,14.25,8.38,23.09,9,.83,0,1.67.08,2.5.08,14.36,0,23.88-8.5,25.18-13.26a6.58,6.58,0,0,0,.2-2.49,7.13,7.13,0,0,0,.64-2.36,7.2,7.2,0,0,0-2.12-5.81L276.69-18l-2.33-.1a19.71,19.71,0,0,1-3.51-.5,11,11,0,0,0-3.21-4.61,21.72,21.72,0,0,0-7.11-3.4c-6-4.78-13-10.34-15.06-11.95-2.06-2.67-4.35-5.69-5.43-7.24-.27-4.49-1.25-20.36-4.87-77.67.62-2.55,1.44-8.16-.15-17-.37-2.07-1.2-11-1.05-49.38l4.37,1.39.18-8c0-.8.38-17.48-.86-35.76,4.72-.06,7.24-2.1,8.52-3.82a9.23,9.23,0,0,0,1.38-8l-.43-1.46-1.08-1.07-4.92-4.92c2.11-8.89-2.77-20.09-5.75-25.8L267-334.07l1.65-2.95L267-340l-38.55-67.48-.16-.28-.18-.25a15.79,15.79,0,0,0-3.91-3.74,11.65,11.65,0,0,0,.73-8.21,11.28,11.28,0,0,0,.52-6.81,9.76,9.76,0,0,0-1.28-3.1,8.11,8.11,0,0,0-.84-4.66,9,9,0,0,0-1.19-1.73c.36-1,.79-2.09,1.08-2.85.23-.58.45-1.13.64-1.64,1.47-3.84.34-8.62-1.53-11.36a8.15,8.15,0,0,0-2-2c1.5-22.09-3.63-47.25-13.22-64.78,2.26-3.8,1.53-8.47-.63-12.41a7.77,7.77,0,0,0,0-1.18c-.29-3.27-2.56-6.21-4.93-8.44a13,13,0,0,0-.39-6.32c-1.44-4.59-5.25-8.21-11.32-10.76a22.85,22.85,0,0,0-16.13-6.69,24.44,24.44,0,0,0-2.94.19,16.26,16.26,0,0,0-9.43-3.09Zm70.2,244.62c.3-4.91.52-10.31.58-16,0-1.42,0-2.89,0-4.39L238-334.6l-6.46,11.65Z"/></g></svg>