<svg id="Camada_1" data-name="Camada 1" xmlns="http://www.w3.org/2000/svg" xmlns:xlink="http://www.w3.org/1999/xlink" viewBox="0 0 850 509.83"><defs><style>.cls-1{fill:none;}.cls-2{fill:#eaa000;}.cls-3{fill:#97d8dd;}.cls-4{fill:#027e8f;}.cls-5{fill:#65c4d1;}.cls-6{fill:#fff;}.cls-7{clip-path:url(#clip-path);}.cls-8{fill:#eac2a7;}.cls-9{fill:#c9a68f;}.cls-10{fill:#d6aa8b;}.cls-11{fill:#d6d6d6;}.cls-12{fill:#c99f4b;}.cls-13{fill:#6d5f56;}.cls-14{fill:#493e38;}.cls-15{clip-path:url(#clip-path-2);}.cls-16{fill:#fcfcfc;}.cls-17{fill:#d32222;}.cls-18{fill:#f4f4f4;}.cls-19{clip-path:url(#clip-path-3);}.cls-20{fill:#b7b7b7;}.cls-21{fill:#6d472e;}.cls-22{fill:#c99e32;}.cls-23{clip-path:url(#clip-path-4);}.cls-24{fill:#aa7e30;}.cls-25{fill:#ddd;}.cls-26{fill:#846829;}.cls-27{fill:#e8cd95;}</style><clipPath id="clip-path"><path class="cls-1" d="M241.77,482.76s-46.89,35.62-125.44,6.35S37.79,235,37.79,235,110,127.64,126.19,130.51s110.37,21.13,110.37,55.77S278.49,376.4,278.49,376.4s17.61,68.19,8.8,73.38"/></clipPath><clipPath id="clip-path-2"><path class="cls-1" d="M166.34,246c-.33-.5,24.25,5.77,35,.39,0,0-1.37,19.28-10.22,19.9C182,266.91,172.47,261.69,166.34,246Z"/></clipPath><clipPath id="clip-path-3"><path class="cls-1" d="M186,506.71c5.31,10.53,42.67,12.76,45.77,13.74,0,0,1-42.31-5-66.07S186,506.71,186,506.71Z"/></clipPath><clipPath id="clip-path-4"><path class="cls-1" d="M140.61,244.51c6.59,2.72.91-9.09.91-9.09s-.62-11.84-4-13.85a48.4,48.4,0,0,1-7.31-6l16.83-11.54,46-31.54s6.36-8.85-8.17-14.31A17.31,17.31,0,0,0,167.3,153s-6.36-7.61-15.56-.62c0,0-18.51-1.08-22.71,8a6.92,6.92,0,0,0-6.82,3.86s-3.86,1.48-4.6,4.6c0,0-9.36,3.69-9.93,9.94,0,0-5.11,7.15-1,12.94,0,0-2.7,5.08.79,8.58,0,0-7.83,8.57,0,13.91,0,0-1.93,5.56,9.54,7.83l3.41,7s3.28-1.49,12.72,7.95Z"/></clipPath></defs><title>Fala3</title><path class="cls-2" d="M178.5,157.82c93.46.1,169.21,76.64,169.31,171.09S272,500,178.5,500,9.18,423.4,9.18,328.91,85,157.82,178.5,157.82m0-8h0a174.65,174.65,0,0,0-69,14.09A176.55,176.55,0,0,0,53.08,202.3a180.13,180.13,0,0,0,0,253.22,176.55,176.55,0,0,0,56.37,38.39,176.24,176.24,0,0,0,138.1,0,176.62,176.62,0,0,0,56.36-38.39,180.08,180.08,0,0,0-.06-253.16A176.68,176.68,0,0,0,247.52,164a174.73,174.73,0,0,0-69-14.14Z"/><path class="cls-3" d="M178.49,157.82C85,157.82,9.18,234.42,9.18,328.91S85,500,178.49,500s169.32-76.6,169.32-171.09S272,157.92,178.49,157.82Zm0,330.77c-87.27,0-158-71.49-158-159.68s70.75-159.69,158-159.69,158,71.49,158,159.69S265.73,488.49,178.49,488.59Z"/><path class="cls-3" d="M258.4,204.63a5.59,5.59,0,0,0-7.81,1.66l-9.24,14.34a5.74,5.74,0,0,0-.77,4.37,5.67,5.67,0,0,0,2.57,3.61,76.27,76.27,0,0,1,6.33,4.56c1.27,1,2.54,2,3.53,2.67,1.75,1.45,3.44,3,5.11,4.54l-3.9,4a112.82,112.82,0,0,0-24.74-17.13L241,201a5.73,5.73,0,0,0,.11-4.36,5.61,5.61,0,0,0-3-3.17,146.35,146.35,0,0,0-52-12.52,5.59,5.59,0,0,0-4.08,1.45,5.73,5.73,0,0,0-1.85,3.95l-.87,17.09a5.69,5.69,0,0,0,5.33,6l5.94.3,6.33,1c.81.14,1.63.26,2.44.38,1.22.18,2.44.35,3.51.6l.78.2-1.48,5.59a114.13,114.13,0,0,0-29.89-2.45l-2.93-28.53a5.7,5.7,0,0,0-2.06-3.85,5.62,5.62,0,0,0-4.15-1.24,144.31,144.31,0,0,0-51.28,15.44,5.73,5.73,0,0,0-2.45,7.67l7.7,15.24a5.61,5.61,0,0,0,7.4,2.58c1.13-.53,2.25-1.09,3.38-1.64a57.74,57.74,0,0,1,8.07-3.51l1.44-.54c1.7-.63,3.34-1.25,5-1.81l1.46,5.52c-1.39.48-2.74,1-4.08,1.49l-1.34.51a52,52,0,0,0-8,3.44c-1,.48-1.93,1-3.4,1.66l-9.56,5.57-.65.36-16.64-23.11a5.6,5.6,0,0,0-7.89-1.25,147.55,147.55,0,0,0-36.8,39.11,5.72,5.72,0,0,0,1.65,7.89l14.19,9.34a5.63,5.63,0,0,0,7.9-1.82,74.64,74.64,0,0,1,4.49-6.38c1-1.29,2-2.59,2.65-3.59,1.45-1.77,3-3.47,4.51-5.16l3.9,4a113.35,113.35,0,0,0-17,25L52,265.73a5.63,5.63,0,0,0-7.46,2.89,150.47,150.47,0,0,0-12.38,52.56,5.68,5.68,0,0,0,5.35,6l16.91.88a5.56,5.56,0,0,0,4.07-1.44,5.71,5.71,0,0,0,1.85-3.94l.3-6,1-6.39c.15-.82.26-1.65.38-2.48.17-1.23.34-2.47.59-3.53l.19-.79,5.54,1.5a116.84,116.84,0,0,0-2.43,30.2l-28.24,3a5.69,5.69,0,0,0-5,6.27,149.65,149.65,0,0,0,15.28,51.82,5.6,5.6,0,0,0,7.59,2.48l15.07-7.78a5.74,5.74,0,0,0,2.56-7.48c-.52-1.13-1.07-2.25-1.61-3.36a60.45,60.45,0,0,1-3.49-8.2l-.55-1.51c-.63-1.7-1.23-3.35-1.77-5l5.53-1.5a113.68,113.68,0,0,0,12.88,27.3L61.13,408a5.73,5.73,0,0,0-1.24,8,147.36,147.36,0,0,0,38.7,37.19,5.59,5.59,0,0,0,4.25.81,5.65,5.65,0,0,0,3.56-2.47l9.23-14.34a5.74,5.74,0,0,0-1.79-8,72.36,72.36,0,0,1-6.33-4.55c-1.27-1-2.54-2-3.53-2.67-1.76-1.46-3.44-3-5.11-4.55l4-4c1.51,1.39,3.06,2.8,4.94,4.36,1.1.78,2.17,1.61,3.24,2.44a67.64,67.64,0,0,0,6.29,4.48l10.08,5.84.12.06L116,456.78a5.74,5.74,0,0,0,2.86,7.53,146.3,146.3,0,0,0,52,12.52h.29a5.67,5.67,0,0,0,5.63-5.41l.88-17.08a5.68,5.68,0,0,0-5.33-6l-5.94-.3-6.33-1c-.81-.14-1.63-.26-2.44-.37-1.22-.18-2.44-.36-3.51-.6l-.78-.2,1.48-5.59a114.13,114.13,0,0,0,29.89,2.45l2.93,28.53a5.7,5.7,0,0,0,2.06,3.84,5.57,5.57,0,0,0,4.15,1.24,144.29,144.29,0,0,0,51.28-15.43,5.74,5.74,0,0,0,2.46-7.67L239.85,438a5.61,5.61,0,0,0-7.39-2.58c-1.14.53-2.26,1.08-3.39,1.64a58.08,58.08,0,0,1-8.06,3.5l-1.44.55c-1.7.63-3.35,1.25-5,1.8l-1.49-5.59a110.77,110.77,0,0,0,27-13L256.8,447.5a5.61,5.61,0,0,0,7.89,1.26,147.9,147.9,0,0,0,36.81-39.11,5.78,5.78,0,0,0,.79-4.29,5.7,5.7,0,0,0-2.45-3.61l-14.19-9.33a5.61,5.61,0,0,0-7.9,1.82,76.25,76.25,0,0,1-4.49,6.38c-1,1.29-2,2.58-2.65,3.59-1.45,1.77-3,3.47-4.51,5.16l-3.9-3.95a113.58,113.58,0,0,0,16.95-25L305,392.09a5.62,5.62,0,0,0,7.45-2.89,150.31,150.31,0,0,0,12.39-52.56,5.69,5.69,0,0,0-5.35-6l-16.91-.89a5.71,5.71,0,0,0-5.92,5.39l-.3,6-1,6.39c-.15.82-.26,1.65-.38,2.47-.18,1.24-.35,2.47-.59,3.54l-.2.79-5.44-1.47,0-.14c.3-1.33.5-2.68.68-4,.09-.63.17-1.26.3-2l.86-5.61a5.42,5.42,0,0,0,.06-.58l.3-6V322.94l0-.27,28.35-3a5.68,5.68,0,0,0,3.8-2.08,5.8,5.8,0,0,0,1.23-4.19,150,150,0,0,0-15.28-51.82,5.62,5.62,0,0,0-7.59-2.48l-15.08,7.78a5.73,5.73,0,0,0-2.55,7.48c.52,1.13,1.06,2.24,1.6,3.36A58,58,0,0,1,289,286l.55,1.51c.63,1.7,1.24,3.35,1.78,5l-5.53,1.49a113.47,113.47,0,0,0-12.89-27.29l22.93-16.86a5.73,5.73,0,0,0,1.24-8A147.16,147.16,0,0,0,258.4,204.63Zm3.44,56.06a5.74,5.74,0,0,0-1.25,8,102.11,102.11,0,0,1,15.92,33.69,5.65,5.65,0,0,0,6.9,4L299.77,302a5.71,5.71,0,0,0,4.07-6.7,83.35,83.35,0,0,0-3.69-11.78l-.45-1.23a59.68,59.68,0,0,0-3.16-7.73l5-2.6a138.89,138.89,0,0,1,10.94,37l-27.95,2.94a5.67,5.67,0,0,0-5.05,6l.28,5.53v10.91l-.28,5.37-.8,5.24c-.13.75-.23,1.49-.34,2.24-.14,1-.27,2-.46,2.88l-1.41,5.48a5.71,5.71,0,0,0,4,6.95l16.36,4.41a5.61,5.61,0,0,0,4.31-.58,5.68,5.68,0,0,0,2.61-3.5l1.66-6.51c.35-1.52.57-3.06.79-4.61.11-.73.2-1.46.34-2.28l1-7.05.05-.87,5.54.28a139.15,139.15,0,0,1-8.84,37.55L278.7,367.73a5.63,5.63,0,0,0-4.32-.11,5.69,5.69,0,0,0-3.14,3,102.14,102.14,0,0,1-20.92,30.87,5.76,5.76,0,0,0,0,8.06l12,12.1a5.5,5.5,0,0,0,4.15,1.67,5.64,5.64,0,0,0,4.05-1.91c1-1.15,2-2.28,3.06-3.41,2-2.14,3.91-4.29,6-6.86.86-1.22,1.77-2.41,2.67-3.61.63-.83,1.27-1.66,1.89-2.52l4.74,3.12a136.26,136.26,0,0,1-26.3,27.95l-16.55-23a5.6,5.6,0,0,0-7.88-1.26A100.42,100.42,0,0,1,204.77,428a5.63,5.63,0,0,0-3.43,2.65,5.74,5.74,0,0,0-.56,4.33l4.37,16.53a5.64,5.64,0,0,0,6.64,4.1,82.89,82.89,0,0,0,11.7-3.73l1.17-.44a58.84,58.84,0,0,0,7.65-3.2l2.57,5.08a135.29,135.29,0,0,1-36.64,11l-2.9-28.23a5.62,5.62,0,0,0-2-3.84,5.52,5.52,0,0,0-4.13-1.25,102.62,102.62,0,0,1-37-3,5.58,5.58,0,0,0-4.28.57,5.7,5.7,0,0,0-2.63,3.46l-4.38,16.54a5.75,5.75,0,0,0,.58,4.35,5.66,5.66,0,0,0,3.47,2.64l6.43,1.67c1.51.35,3,.58,4.58.81.72.1,1.43.2,2.24.34l7,1.05.87.05-.29,5.6a135.68,135.68,0,0,1-37.16-8.94l11.44-25.92a5.73,5.73,0,0,0-2.7-7.46l-4.69-2.27-9.63-5.59a56,56,0,0,1-5.13-3.7c-1.2-.93-2.4-1.85-3.28-2.45-1.63-1.36-3.18-2.81-4.74-4.25-1.16-1.08-2.33-2.16-3.52-3.21a5.6,5.6,0,0,0-7.7.26l-12,12.1a5.73,5.73,0,0,0,.23,8.29c1.12,1,2.22,2,3.32,3.05,2.14,2,4.29,4,6.84,6.09,1.21.86,2.38,1.77,3.56,2.68.82.64,1.66,1.29,2.52,1.93l-3.09,4.79a135.9,135.9,0,0,1-27.66-26.59l22.72-16.71a5.73,5.73,0,0,0,1.25-8,102.36,102.36,0,0,1-15.92-33.7,5.64,5.64,0,0,0-6.9-4l-16.36,4.42a5.71,5.71,0,0,0-4.07,6.7,84.8,84.8,0,0,0,3.69,11.79l.45,1.22a59.81,59.81,0,0,0,3.16,7.74l-5,2.59a139,139,0,0,1-10.94-37l27.95-2.93a5.68,5.68,0,0,0,5-6.22,105.63,105.63,0,0,1,3-37.35,5.74,5.74,0,0,0-.56-4.33,5.67,5.67,0,0,0-3.44-2.66L60.13,291a5.61,5.61,0,0,0-4.31.59A5.73,5.73,0,0,0,53.2,295l-1.65,6.51c-.35,1.52-.57,3.06-.79,4.61-.11.73-.21,1.46-.34,2.28l-1,7-.05.88-5.54-.29a139.33,139.33,0,0,1,8.84-37.55l25.66,11.56a5.54,5.54,0,0,0,4.32.11,5.6,5.6,0,0,0,3.13-3,102.29,102.29,0,0,1,20.93-30.87,5.75,5.75,0,0,0,0-8.05l-12-12.1a5.59,5.59,0,0,0-8.2.24c-1,1.15-2,2.27-3.06,3.4-2,2.15-3.91,4.3-6,6.86-.87,1.22-1.77,2.42-2.67,3.61-.63.83-1.27,1.67-1.89,2.53l-4.75-3.12a136.07,136.07,0,0,1,26.31-28l16.55,23a5.6,5.6,0,0,0,7.89,1.25l1.31-1A18.68,18.68,0,0,1,123,243l9.23-5.41c1.09-.5,2.16-1,3.24-1.57A43.92,43.92,0,0,1,142,233.2l1.68-.63a56.29,56.29,0,0,1,8.17-2.62,5.64,5.64,0,0,0,3.67-2.59,5.79,5.79,0,0,0,.65-4.47l-4.38-16.53a5.63,5.63,0,0,0-6.63-4.1A83,83,0,0,0,133.49,206l-1.16.44a56.94,56.94,0,0,0-7.65,3.2l-2.57-5.08a135.18,135.18,0,0,1,36.64-11l2.89,28.23a5.64,5.64,0,0,0,2,3.84,5.55,5.55,0,0,0,4.13,1.25,102.88,102.88,0,0,1,37,3,5.58,5.58,0,0,0,4.28-.57,5.73,5.73,0,0,0,2.63-3.47l4.37-16.53a5.8,5.8,0,0,0-.57-4.35,5.66,5.66,0,0,0-3.47-2.64l-6.42-1.67c-1.52-.35-3.05-.59-4.59-.81-.72-.1-1.43-.21-2.25-.35l-7-1-.87-.05.29-5.6a135.3,135.3,0,0,1,37.16,8.93l-11.44,25.93a5.75,5.75,0,0,0-.11,4.37,5.66,5.66,0,0,0,3,3.17,101.33,101.33,0,0,1,30.55,21.14,5.6,5.6,0,0,0,8,0l12-12.1a5.73,5.73,0,0,0-.23-8.29c-1.12-1-2.22-2-3.32-3-2.15-2-4.29-4-6.84-6.1-1.21-.86-2.38-1.77-3.56-2.68-.82-.64-1.66-1.29-2.52-1.93l3.09-4.79A135.9,135.9,0,0,1,284.56,244Z"/><path class="cls-3" d="M178.49,237.66a90,90,0,0,0-78.36,45.77,91.9,91.9,0,0,0,.49,91.45c.11.2.22.4.35.59a91.61,91.61,0,0,0,23,26c.15.1.23.25.39.34s.08,0,.12,0a88.86,88.86,0,0,0,108,0,.67.67,0,0,0,.15-.06c.16-.09.24-.24.38-.34a91.49,91.49,0,0,0,23-26c.13-.19.24-.39.35-.59a91.87,91.87,0,0,0,.48-91.45A90,90,0,0,0,178.49,237.66Zm-10.17,12.15L105.67,359.9A80.51,80.51,0,0,1,110,289.16,78.89,78.89,0,0,1,168.32,249.81ZM134.63,395.27l43.86-77.06,43.87,77.06a78.09,78.09,0,0,1-87.73,0Zm96.69-7.15-45.48-79.89a8.44,8.44,0,0,0-14.69,0l-45.48,79.89a80,80,0,0,1-13.73-16.35l66.56-117,12.91,22.62c.07.17.16.34.25.51l53.39,93.85a80.32,80.32,0,0,1-13.73,16.35Zm20-28.23-49.6-87.2a5.12,5.12,0,0,0-.27-.52l-12.75-22.36A78.88,78.88,0,0,1,247,289.16a80.49,80.49,0,0,1,4.31,70.73Z"/><path class="cls-4" d="M597.35,33.17c-131.17,0-239,88.6-251.43,202l-74.67,29.74s-4.88,1.81-4.39,8.81a9.53,9.53,0,0,0,5.58,8.16L350.6,305.3C375.49,405.77,476.51,481,597.35,481,736.89,481,850,380.73,850,257.07S736.89,33.17,597.35,33.17Z"/><path class="cls-5" d="M597.31,0c-131.17,0-239,88.6-251.43,202L271.21,231.7s-4.88,1.81-4.39,8.81a9.53,9.53,0,0,0,5.58,8.16l78.16,23.46C375.45,372.6,476.47,447.81,597.31,447.81,736.85,447.81,850,347.56,850,223.9S736.85,0,597.31,0Z"/><path class="cls-6" d="M412.69,158.79l-1.44.12,4.28,12,.31,1h.06l.31-1,4.27-12-1.44-.12v-1h4v1l-1.2.09-5.39,14.63h-1.21l-5.4-14.63-1.19-.09v-1h4Z"/><path class="cls-6" d="M432.12,173.51c-.08-.4-.14-.74-.18-1a6.17,6.17,0,0,1-.05-.87,5.15,5.15,0,0,1-1.71,1.52,4.8,4.8,0,0,1-2.4.6,3.64,3.64,0,0,1-2.62-.88,3.14,3.14,0,0,1-.92-2.39,2.94,2.94,0,0,1,1.37-2.56,6.42,6.42,0,0,1,3.73-1h2.55v-1.54a2.5,2.5,0,0,0-.8-2,3.23,3.23,0,0,0-2.22-.71,5.69,5.69,0,0,0-1.75.26,4.12,4.12,0,0,0-1.33.72l-.11,1.56h-1.05V163a6.53,6.53,0,0,1,1.91-1,7.14,7.14,0,0,1,2.37-.39,4.6,4.6,0,0,1,3.07,1,3.46,3.46,0,0,1,1.17,2.81v5.73c0,.24,0,.46,0,.68a4.32,4.32,0,0,0,.07.64l1.15.08v.95Zm-4.2-.92a4.56,4.56,0,0,0,2.44-.64,3.88,3.88,0,0,0,1.53-1.67v-2.34h-2.57a4.74,4.74,0,0,0-2.78.73,2.16,2.16,0,0,0-1,1.83,2,2,0,0,0,.65,1.52A2.58,2.58,0,0,0,427.92,172.59Z"/><path class="cls-6" d="M435.93,162.81v-.95h2.86l.12,1.92a4,4,0,0,1,1.48-1.58,4.22,4.22,0,0,1,2.21-.56,3.32,3.32,0,0,1,3.47,2.64,4.47,4.47,0,0,1,1.49-1.93,3.79,3.79,0,0,1,2.35-.71,3.45,3.45,0,0,1,2.85,1.24,6,6,0,0,1,1,3.83v5.7l1.74.15v.95h-4.76v-.95l1.74-.15v-5.72a4.74,4.74,0,0,0-.76-3,2.59,2.59,0,0,0-2.09-.89,2.83,2.83,0,0,0-2.3,1,4.6,4.6,0,0,0-1,2.44v.16a1.15,1.15,0,0,1,0,.2v5.9l1.73.14v.95h-4.75v-.95l1.74-.14v-5.73a4.77,4.77,0,0,0-.76-3,2.59,2.59,0,0,0-2.1-.91,3.18,3.18,0,0,0-2.16.69,3.79,3.79,0,0,0-1.11,1.87v7.1l1.74.14v.95h-4.75v-.95l1.73-.14V163Z"/><path class="cls-6" d="M457,167.51a6.3,6.3,0,0,1,1.4-4.22,5,5,0,0,1,7.4,0,6.25,6.25,0,0,1,1.4,4.22v.35a6.29,6.29,0,0,1-1.39,4.23,5,5,0,0,1-7.41,0,6.29,6.29,0,0,1-1.4-4.23Zm1.28.35a5.65,5.65,0,0,0,1,3.41,3.32,3.32,0,0,0,2.83,1.38,3.28,3.28,0,0,0,2.79-1.38,5.65,5.65,0,0,0,1-3.41v-.35a5.54,5.54,0,0,0-1-3.38,3.53,3.53,0,0,0-5.61,0,5.6,5.6,0,0,0-1,3.38Z"/><path class="cls-6" d="M477.61,165.45h-1l-.15-1.65a3.33,3.33,0,0,0-1.21-.78,4.59,4.59,0,0,0-1.68-.28,3.07,3.07,0,0,0-2.09.61,1.82,1.82,0,0,0-.7,1.42,1.71,1.71,0,0,0,.6,1.34,5.88,5.88,0,0,0,2.41.93,7.82,7.82,0,0,1,3.08,1.26,2.62,2.62,0,0,1,1,2.18,2.82,2.82,0,0,1-1.17,2.35,4.9,4.9,0,0,1-3.08.9,7.12,7.12,0,0,1-2.33-.36,5.47,5.47,0,0,1-1.82-1V170h1l.19,1.66a2.94,2.94,0,0,0,1.29.74,5.56,5.56,0,0,0,1.64.24,3.49,3.49,0,0,0,2.18-.62,1.82,1.82,0,0,0,.8-1.48,1.89,1.89,0,0,0-.67-1.44,5.34,5.34,0,0,0-2.4-1,8,8,0,0,1-3.05-1.2,2.46,2.46,0,0,1-1-2.09,2.81,2.81,0,0,1,1.12-2.26,4.52,4.52,0,0,1,2.95-.92,6.6,6.6,0,0,1,2.32.39,4.7,4.7,0,0,1,1.71,1.06Z"/><path class="cls-6" d="M488.24,161.86l.16,1.93v.14a4,4,0,0,1,1.34-1.68,3.3,3.3,0,0,1,2-.61,2.45,2.45,0,0,1,.48,0,2.49,2.49,0,0,1,.38.08l-.17,1.2-.95-.06a2.9,2.9,0,0,0-2,.68,3.86,3.86,0,0,0-1.1,1.88v7l1.73.14v.95h-4.74v-.95l1.74-.14V163l-1.74-.14v-.95h2.85Z"/><path class="cls-6" d="M499.13,173.73a4.58,4.58,0,0,1-3.6-1.61A6,6,0,0,1,494.1,168v-.6a6.11,6.11,0,0,1,1.42-4.14,4.4,4.4,0,0,1,3.44-1.65,4.23,4.23,0,0,1,3.33,1.36,5.22,5.22,0,0,1,1.22,3.62v1.09h-8.14V168a5.16,5.16,0,0,0,1,3.29,3.3,3.3,0,0,0,2.72,1.33,5.5,5.5,0,0,0,2-.34,3.8,3.8,0,0,0,1.44-1l.55.89a4.66,4.66,0,0,1-1.64,1.09A6.29,6.29,0,0,1,499.13,173.73Zm-.17-11a3,3,0,0,0-2.37,1.09,4.75,4.75,0,0,0-1.13,2.74l0,.06h6.75v-.33a3.74,3.74,0,0,0-.88-2.54A3,3,0,0,0,499,162.74Z"/><path class="cls-6" d="M514.16,165.45h-1L513,163.8a3.33,3.33,0,0,0-1.21-.78,4.55,4.55,0,0,0-1.68-.28,3.07,3.07,0,0,0-2.09.61,1.82,1.82,0,0,0-.7,1.42,1.71,1.71,0,0,0,.6,1.34,6,6,0,0,0,2.41.93,7.82,7.82,0,0,1,3.08,1.26,2.62,2.62,0,0,1,1,2.18,2.82,2.82,0,0,1-1.17,2.35,4.9,4.9,0,0,1-3.08.9,7.16,7.16,0,0,1-2.33-.36,5.47,5.47,0,0,1-1.82-1V170h1l.18,1.66a2.94,2.94,0,0,0,1.29.74,5.56,5.56,0,0,0,1.64.24,3.49,3.49,0,0,0,2.18-.62,1.82,1.82,0,0,0,.8-1.48,1.91,1.91,0,0,0-.66-1.44,5.44,5.44,0,0,0-2.41-1,8,8,0,0,1-3.05-1.2,2.46,2.46,0,0,1-1-2.09,2.84,2.84,0,0,1,1.12-2.26,4.52,4.52,0,0,1,2.95-.92,6.6,6.6,0,0,1,2.32.39,4.7,4.7,0,0,1,1.71,1.06Z"/><path class="cls-6" d="M516.71,167.51a6.3,6.3,0,0,1,1.4-4.22,5,5,0,0,1,7.4,0,6.25,6.25,0,0,1,1.4,4.22v.35a6.29,6.29,0,0,1-1.39,4.23,5,5,0,0,1-7.41,0,6.29,6.29,0,0,1-1.4-4.23Zm1.28.35a5.65,5.65,0,0,0,1,3.41,3.32,3.32,0,0,0,2.83,1.38,3.28,3.28,0,0,0,2.79-1.38,5.65,5.65,0,0,0,1-3.41v-.35a5.54,5.54,0,0,0-1-3.38,3.53,3.53,0,0,0-5.61,0,5.6,5.6,0,0,0-1,3.38Z"/><path class="cls-6" d="M528.52,157.67v-1h3v15.71l1.74.14v.95h-4.74v-.95l1.74-.14V157.81Z"/><path class="cls-6" d="M538.62,162.81l-1.44.11,2.88,7.67.37,1.37h.07l.4-1.37,2.84-7.67-1.44-.11v-.95h3.88v.95l-1.13.1L541,173.51h-1l-4.08-10.6-1.13-.1v-.95h3.88Z"/><path class="cls-6" d="M552.53,173.73a4.58,4.58,0,0,1-3.6-1.61A6,6,0,0,1,547.5,168v-.6a6.11,6.11,0,0,1,1.42-4.14,4.4,4.4,0,0,1,3.44-1.65A4.26,4.26,0,0,1,555.7,163a5.26,5.26,0,0,1,1.21,3.62v1.09h-8.14V168a5.16,5.16,0,0,0,1,3.29,3.3,3.3,0,0,0,2.72,1.33,5.5,5.5,0,0,0,2-.34,3.8,3.8,0,0,0,1.44-1l.55.89a4.66,4.66,0,0,1-1.64,1.09A6.25,6.25,0,0,1,552.53,173.73Zm-.17-11a3,3,0,0,0-2.37,1.09,4.75,4.75,0,0,0-1.13,2.74l0,.06h6.75v-.33a3.74,3.74,0,0,0-.88-2.54A3,3,0,0,0,552.36,162.74Z"/><path class="cls-6" d="M562,161.86l.16,1.93v.14a4.11,4.11,0,0,1,1.34-1.68,3.31,3.31,0,0,1,2-.61,2.42,2.42,0,0,1,.47,0,2.49,2.49,0,0,1,.38.08l-.17,1.2-.95-.06a2.92,2.92,0,0,0-2,.68,3.86,3.86,0,0,0-1.1,1.88v7l1.74.14v.95H559.1v-.95l1.74-.14V163l-1.74-.14v-.95H562Z"/><path class="cls-6" d="M573.27,167.51a6.3,6.3,0,0,1,1.39-4.22,5,5,0,0,1,7.41,0,6.3,6.3,0,0,1,1.4,4.22v.35a6.34,6.34,0,0,1-1.39,4.23,5,5,0,0,1-7.42,0,6.29,6.29,0,0,1-1.39-4.23Zm1.28.35a5.58,5.58,0,0,0,1,3.41,3.54,3.54,0,0,0,5.61,0,5.59,5.59,0,0,0,1-3.41v-.35a5.54,5.54,0,0,0-1-3.38,3.53,3.53,0,0,0-5.61,0,5.53,5.53,0,0,0-1,3.38Z"/><path class="cls-6" d="M593.91,165.45h-1l-.14-1.65a3.42,3.42,0,0,0-1.21-.78,4.62,4.62,0,0,0-1.68-.28,3.12,3.12,0,0,0-2.1.61,1.84,1.84,0,0,0-.69,1.42,1.71,1.71,0,0,0,.6,1.34,5.88,5.88,0,0,0,2.4.93,7.76,7.76,0,0,1,3.08,1.26,2.62,2.62,0,0,1,1,2.18,2.84,2.84,0,0,1-1.16,2.35,4.93,4.93,0,0,1-3.09.9,7.16,7.16,0,0,1-2.33-.36,5.43,5.43,0,0,1-1.81-1V170h1l.18,1.66a2.92,2.92,0,0,0,1.3.74,5.5,5.5,0,0,0,1.63.24,3.54,3.54,0,0,0,2.19-.62,1.82,1.82,0,0,0,.8-1.48,1.92,1.92,0,0,0-.67-1.44,5.45,5.45,0,0,0-2.4-1,8,8,0,0,1-3.06-1.2,2.48,2.48,0,0,1-1-2.09,2.81,2.81,0,0,1,1.12-2.26,4.51,4.51,0,0,1,3-.92,6.64,6.64,0,0,1,2.32.39,4.78,4.78,0,0,1,1.71,1.06Z"/><path class="cls-6" d="M609.79,171.83a4.07,4.07,0,0,1-1.48,1.41,4.42,4.42,0,0,1-2.14.49,3.82,3.82,0,0,1-3.23-1.56,6.79,6.79,0,0,1-1.17-4.17v-.22a7.68,7.68,0,0,1,1.17-4.47,3.76,3.76,0,0,1,3.26-1.67,4.08,4.08,0,0,1,2.08.51,4.19,4.19,0,0,1,1.47,1.46v-5.8l-1.73-.14v-1h3v15.71l1.74.14v.95h-2.88ZM603.06,168a5.93,5.93,0,0,0,.84,3.36,2.82,2.82,0,0,0,2.52,1.25,3.51,3.51,0,0,0,2.05-.56,3.61,3.61,0,0,0,1.28-1.54V165a4,4,0,0,0-1.23-1.62,3.32,3.32,0,0,0-2.08-.62,2.76,2.76,0,0,0-2.53,1.39,6.87,6.87,0,0,0-.85,3.63Z"/><path class="cls-6" d="M619.81,173.73a4.59,4.59,0,0,1-3.6-1.61,6,6,0,0,1-1.43-4.09v-.6a6.11,6.11,0,0,1,1.43-4.14,4.38,4.38,0,0,1,3.43-1.65A4.23,4.23,0,0,1,623,163a5.21,5.21,0,0,1,1.21,3.62v1.09h-8.14V168a5.22,5.22,0,0,0,1,3.29,3.3,3.3,0,0,0,2.72,1.33,5.56,5.56,0,0,0,2-.34,4,4,0,0,0,1.44-1l.54.89a4.58,4.58,0,0,1-1.64,1.09A6.25,6.25,0,0,1,619.81,173.73Zm-.17-11a3.05,3.05,0,0,0-2.37,1.09,4.68,4.68,0,0,0-1.12,2.74l0,.06h6.76v-.33a3.75,3.75,0,0,0-.89-2.54A3,3,0,0,0,619.64,162.74Z"/><path class="cls-6" d="M634.84,165.45h-1.05l-.14-1.65a3.42,3.42,0,0,0-1.21-.78,4.62,4.62,0,0,0-1.68-.28,3.12,3.12,0,0,0-2.1.61,1.84,1.84,0,0,0-.69,1.42,1.71,1.71,0,0,0,.6,1.34,5.88,5.88,0,0,0,2.4.93,7.76,7.76,0,0,1,3.08,1.26,2.62,2.62,0,0,1,1,2.18,2.84,2.84,0,0,1-1.16,2.35,4.93,4.93,0,0,1-3.09.9,7.16,7.16,0,0,1-2.33-.36,5.43,5.43,0,0,1-1.81-1V170h1l.18,1.66a2.92,2.92,0,0,0,1.3.74,5.5,5.5,0,0,0,1.63.24A3.52,3.52,0,0,0,633,172a1.82,1.82,0,0,0,.8-1.48,1.92,1.92,0,0,0-.67-1.44,5.39,5.39,0,0,0-2.4-1,8.1,8.1,0,0,1-3.06-1.2,2.48,2.48,0,0,1-1-2.09,2.81,2.81,0,0,1,1.12-2.26,4.51,4.51,0,0,1,3-.92,6.64,6.64,0,0,1,2.32.39,4.7,4.7,0,0,1,1.71,1.06Z"/><path class="cls-6" d="M645.36,173.51a9,9,0,0,1-.18-1,6.15,6.15,0,0,1-.06-.87,5,5,0,0,1-1.7,1.52,4.8,4.8,0,0,1-2.4.6,3.64,3.64,0,0,1-2.62-.88,3.15,3.15,0,0,1-.93-2.39,3,3,0,0,1,1.38-2.56,6.4,6.4,0,0,1,3.73-1h2.54v-1.54a2.49,2.49,0,0,0-.79-2,3.23,3.23,0,0,0-2.22-.71,5.75,5.75,0,0,0-1.76.26,4.06,4.06,0,0,0-1.32.72l-.11,1.56h-1V163a6.53,6.53,0,0,1,1.91-1,7.1,7.1,0,0,1,2.37-.39,4.62,4.62,0,0,1,3.07,1,3.48,3.48,0,0,1,1.16,2.81v5.73c0,.24,0,.46,0,.68a4.32,4.32,0,0,0,.07.64l1.15.08v.95Zm-4.2-.92a4.58,4.58,0,0,0,2.44-.64,3.86,3.86,0,0,0,1.52-1.67v-2.34h-2.57a4.71,4.71,0,0,0-2.77.73,2.16,2.16,0,0,0-1,1.83,1.94,1.94,0,0,0,.64,1.52A2.61,2.61,0,0,0,641.16,172.59Z"/><path class="cls-6" d="M649.2,172.56l1.74-.14v-9.51H649v-1h1.91v-1.49a3.89,3.89,0,0,1,1-2.88,3.85,3.85,0,0,1,2.82-1,7.22,7.22,0,0,1,1.44.16,9.18,9.18,0,0,1,1.49.48l-.2,1.11a8.46,8.46,0,0,0-1.26-.42,6,6,0,0,0-1.4-.15,2.57,2.57,0,0,0-2,.7,2.76,2.76,0,0,0-.67,2v1.49h6.62v10.56l1.74.14v.95h-4.75v-.95l1.74-.14v-9.51h-5.35v9.51l1.74.14v.95H649.2Z"/><path class="cls-6" d="M662.32,167.51a6.3,6.3,0,0,1,1.4-4.22,5,5,0,0,1,7.41,0,6.3,6.3,0,0,1,1.39,4.22v.35a6.29,6.29,0,0,1-1.39,4.23,5,5,0,0,1-7.41,0,6.29,6.29,0,0,1-1.4-4.23Zm1.28.35a5.65,5.65,0,0,0,1,3.41,3.32,3.32,0,0,0,2.83,1.38,3.28,3.28,0,0,0,2.79-1.38,5.58,5.58,0,0,0,1-3.41v-.35a5.54,5.54,0,0,0-1-3.38,3.53,3.53,0,0,0-5.61,0,5.6,5.6,0,0,0-1,3.38Z"/><path class="cls-6" d="M687.92,171.83a4,4,0,0,1-1.48,1.41,4.41,4.41,0,0,1-2.13.49,3.82,3.82,0,0,1-3.24-1.56,6.79,6.79,0,0,1-1.16-4.17v-.22a7.68,7.68,0,0,1,1.16-4.47,3.77,3.77,0,0,1,3.26-1.67,4.12,4.12,0,0,1,2.09.51,4.19,4.19,0,0,1,1.47,1.46v-5.8l-1.74-.14v-1h3v15.71l1.73.14v.95H688ZM681.2,168a5.93,5.93,0,0,0,.83,3.36,2.82,2.82,0,0,0,2.52,1.25,3.51,3.51,0,0,0,2.05-.56,3.7,3.7,0,0,0,1.29-1.54V165a4.16,4.16,0,0,0-1.23-1.62,3.35,3.35,0,0,0-2.09-.62,2.77,2.77,0,0,0-2.53,1.39,7,7,0,0,0-.84,3.63Z"/><path class="cls-6" d="M698,173.73a4.61,4.61,0,0,1-3.61-1.61,5.94,5.94,0,0,1-1.42-4.09v-.6a6.11,6.11,0,0,1,1.42-4.14,4.38,4.38,0,0,1,3.44-1.65,4.23,4.23,0,0,1,3.33,1.36,5.22,5.22,0,0,1,1.22,3.62v1.09h-8.14V168a5.21,5.21,0,0,0,1,3.29,3.32,3.32,0,0,0,2.73,1.33,5.5,5.5,0,0,0,2-.34,4,4,0,0,0,1.44-1l.54.89a4.58,4.58,0,0,1-1.64,1.09A6.23,6.23,0,0,1,698,173.73Zm-.17-11a3,3,0,0,0-2.37,1.09,4.69,4.69,0,0,0-1.13,2.74l0,.06h6.76v-.33a3.75,3.75,0,0,0-.89-2.54A3,3,0,0,0,697.78,162.74Z"/><path class="cls-6" d="M713,165.45h-1l-.15-1.65a3.33,3.33,0,0,0-1.21-.78,4.62,4.62,0,0,0-1.68-.28,3.07,3.07,0,0,0-2.09.61,1.82,1.82,0,0,0-.7,1.42,1.71,1.71,0,0,0,.6,1.34,5.88,5.88,0,0,0,2.4.93,7.76,7.76,0,0,1,3.08,1.26,2.6,2.6,0,0,1,1,2.18,2.82,2.82,0,0,1-1.17,2.35,4.92,4.92,0,0,1-3.08.9,7.12,7.12,0,0,1-2.33-.36,5.47,5.47,0,0,1-1.82-1V170h1l.18,1.66a3,3,0,0,0,1.3.74,5.56,5.56,0,0,0,1.64.24,3.49,3.49,0,0,0,2.18-.62,1.82,1.82,0,0,0,.8-1.48,1.89,1.89,0,0,0-.67-1.44,5.34,5.34,0,0,0-2.4-1,8,8,0,0,1-3-1.2,2.46,2.46,0,0,1-1-2.09,2.81,2.81,0,0,1,1.12-2.26,4.51,4.51,0,0,1,2.95-.92,6.6,6.6,0,0,1,2.32.39,4.7,4.7,0,0,1,1.71,1.06Z"/><path class="cls-6" d="M723.9,165.45h-1l-.15-1.65a3.33,3.33,0,0,0-1.21-.78,4.55,4.55,0,0,0-1.68-.28,3.07,3.07,0,0,0-2.09.61,1.82,1.82,0,0,0-.7,1.42,1.71,1.71,0,0,0,.6,1.34A6,6,0,0,0,720,167a7.82,7.82,0,0,1,3.08,1.26,2.62,2.62,0,0,1,1,2.18,2.82,2.82,0,0,1-1.17,2.35,4.9,4.9,0,0,1-3.08.9,7.16,7.16,0,0,1-2.33-.36,5.47,5.47,0,0,1-1.82-1V170h1l.18,1.66a2.94,2.94,0,0,0,1.29.74,5.56,5.56,0,0,0,1.64.24,3.49,3.49,0,0,0,2.18-.62,1.82,1.82,0,0,0,.8-1.48,1.91,1.91,0,0,0-.66-1.44,5.44,5.44,0,0,0-2.41-1,8,8,0,0,1-3-1.2,2.49,2.49,0,0,1-1-2.09,2.84,2.84,0,0,1,1.12-2.26,4.52,4.52,0,0,1,2.95-.92,6.6,6.6,0,0,1,2.32.39,4.7,4.7,0,0,1,1.71,1.06Z"/><path class="cls-6" d="M734.41,173.51c-.08-.4-.14-.74-.18-1a8.14,8.14,0,0,1-.05-.87,5.15,5.15,0,0,1-1.71,1.52,4.79,4.79,0,0,1-2.39.6,3.67,3.67,0,0,1-2.63-.88,3.18,3.18,0,0,1-.92-2.39,3,3,0,0,1,1.37-2.56,6.42,6.42,0,0,1,3.73-1h2.55v-1.54a2.5,2.5,0,0,0-.8-2,3.2,3.2,0,0,0-2.22-.71,5.69,5.69,0,0,0-1.75.26,4.12,4.12,0,0,0-1.33.72l-.1,1.56h-1.06V163a6.53,6.53,0,0,1,1.91-1,7.2,7.2,0,0,1,2.38-.39,4.63,4.63,0,0,1,3.07,1,3.48,3.48,0,0,1,1.16,2.81v5.73c0,.24,0,.46,0,.68a6.27,6.27,0,0,0,.07.64l1.15.08v.95Zm-4.2-.92a4.56,4.56,0,0,0,2.44-.64,3.82,3.82,0,0,0,1.53-1.67v-2.34h-2.57a4.74,4.74,0,0,0-2.78.73,2.16,2.16,0,0,0-1,1.83,2,2,0,0,0,.65,1.52A2.58,2.58,0,0,0,730.21,172.59Z"/><path class="cls-6" d="M412.4,200.93a4.06,4.06,0,0,1-.86,2.77,3,3,0,0,1-2.37,1,3,3,0,0,1-.62-.06,3.55,3.55,0,0,1-.58-.15l.14-1.09a2.39,2.39,0,0,0,.46.11,2.59,2.59,0,0,0,.52.06,1.78,1.78,0,0,0,1.49-.67,3,3,0,0,0,.54-1.95V189.42l-1.74-.14v-1h3Zm-.07-16h-1.28v-1.77h1.28Z"/><path class="cls-6" d="M415.13,194a6.32,6.32,0,0,1,1.4-4.22,5,5,0,0,1,7.41,0,6.31,6.31,0,0,1,1.39,4.22v.36a6.28,6.28,0,0,1-1.39,4.22,4.57,4.57,0,0,1-3.69,1.65,4.63,4.63,0,0,1-3.72-1.65,6.28,6.28,0,0,1-1.4-4.22Zm1.28.36a5.55,5.55,0,0,0,1,3.4,3.54,3.54,0,0,0,5.61,0,5.55,5.55,0,0,0,1-3.4V194a5.55,5.55,0,0,0-1-3.38,3.53,3.53,0,0,0-5.61,0,5.56,5.56,0,0,0-1,3.38Z"/><path class="cls-6" d="M430.17,188.32l.16,1.94v.14a4.14,4.14,0,0,1,1.34-1.69,3.37,3.37,0,0,1,2-.61,3.57,3.57,0,0,1,.47,0l.38.08-.17,1.21-.95-.07a2.88,2.88,0,0,0-2,.69,3.77,3.77,0,0,0-1.1,1.88v6.95l1.74.14V200h-4.74V199l1.73-.14v-9.46l-1.73-.14v-1h2.84Z"/><path class="cls-6" d="M436,199l1.73-.14v-9.46l-1.73-.14v-1h2.86l.12,2a4,4,0,0,1,3.73-2.25,3.56,3.56,0,0,1,2.86,1.16,5.54,5.54,0,0,1,1,3.61v6l1.73.14V200h-4.75V199l1.74-.14v-6a4.29,4.29,0,0,0-.74-2.83,2.7,2.7,0,0,0-2.11-.83,3.28,3.28,0,0,0-2.19.72,4,4,0,0,0-1.22,1.9v7l1.74.14V200H436Z"/><path class="cls-6" d="M458.2,200a8.53,8.53,0,0,1-.18-1,6.36,6.36,0,0,1-.06-.87,5,5,0,0,1-1.7,1.51,4.71,4.71,0,0,1-2.4.61,3.65,3.65,0,0,1-2.62-.89,3.12,3.12,0,0,1-.93-2.39,3,3,0,0,1,1.38-2.56,6.48,6.48,0,0,1,3.73-1H458v-1.54a2.5,2.5,0,0,0-.79-2,3.23,3.23,0,0,0-2.22-.71,5.36,5.36,0,0,0-1.75.27,3.83,3.83,0,0,0-1.33.71l-.11,1.56h-1.05V189.5a6.78,6.78,0,0,1,1.91-1,7.1,7.1,0,0,1,2.37-.39,4.62,4.62,0,0,1,3.07,1,3.49,3.49,0,0,1,1.16,2.81v5.73c0,.24,0,.47,0,.69a4.48,4.48,0,0,0,.07.64l1.15.07V200Zm-4.2-.91a4.59,4.59,0,0,0,2.44-.65,3.81,3.81,0,0,0,1.52-1.67V194.4H455.4a4.79,4.79,0,0,0-2.78.73,2.19,2.19,0,0,0-1,1.84,1.9,1.9,0,0,0,.65,1.51A2.58,2.58,0,0,0,454,199.06Z"/><path class="cls-6" d="M470.29,198.29a3.92,3.92,0,0,1-1.48,1.41,4.35,4.35,0,0,1-2.13.5,3.79,3.79,0,0,1-3.23-1.56,6.81,6.81,0,0,1-1.17-4.17v-.23a7.63,7.63,0,0,1,1.17-4.46,3.73,3.73,0,0,1,3.25-1.68,4,4,0,0,1,2.09.52,4.16,4.16,0,0,1,1.47,1.45v-5.8l-1.74-.14v-1h3v15.71l1.74.14V200H470.4Zm-6.72-3.82a6,6,0,0,0,.84,3.36,2.82,2.82,0,0,0,2.52,1.25,3.61,3.61,0,0,0,2.05-.56,3.73,3.73,0,0,0,1.28-1.54v-5.52a3.88,3.88,0,0,0-1.23-1.61,3.28,3.28,0,0,0-2.08-.63,2.77,2.77,0,0,0-2.53,1.4,6.86,6.86,0,0,0-.85,3.62Z"/><path class="cls-6" d="M483.2,200a8.53,8.53,0,0,1-.18-1,6.36,6.36,0,0,1-.06-.87,5,5,0,0,1-1.7,1.51,4.71,4.71,0,0,1-2.4.61,3.65,3.65,0,0,1-2.62-.89,3.12,3.12,0,0,1-.93-2.39,3,3,0,0,1,1.38-2.56,6.48,6.48,0,0,1,3.73-1H483v-1.54a2.5,2.5,0,0,0-.79-2,3.23,3.23,0,0,0-2.22-.71,5.36,5.36,0,0,0-1.75.27,3.83,3.83,0,0,0-1.33.71l-.11,1.56h-1.05V189.5a6.78,6.78,0,0,1,1.91-1,7.1,7.1,0,0,1,2.37-.39,4.62,4.62,0,0,1,3.07,1,3.49,3.49,0,0,1,1.16,2.81v5.73c0,.24,0,.47,0,.69a4.48,4.48,0,0,0,.07.64l1.15.07V200Zm-4.2-.91a4.59,4.59,0,0,0,2.44-.65,3.81,3.81,0,0,0,1.52-1.67V194.4H480.4a4.79,4.79,0,0,0-2.78.73,2.19,2.19,0,0,0-1,1.84,1.9,1.9,0,0,0,.65,1.51A2.58,2.58,0,0,0,479,199.06Z"/><path class="cls-6" d="M497.51,199.11a3.6,3.6,0,0,0,2.24-.73,2.43,2.43,0,0,0,1-2h1.13l0,.07a3.23,3.23,0,0,1-1.28,2.7,4.73,4.73,0,0,1-3.08,1.09,4.38,4.38,0,0,1-3.63-1.63,6.58,6.58,0,0,1-1.29-4.2v-.45a6.54,6.54,0,0,1,1.29-4.18,4.34,4.34,0,0,1,3.62-1.64,5.76,5.76,0,0,1,2.44.51,4.82,4.82,0,0,1,1.8,1.38l.05,2.54h-1.08l-.21-2.07a3.62,3.62,0,0,0-1.27-.92,4.31,4.31,0,0,0-1.73-.34,3.08,3.08,0,0,0-2.75,1.34,6,6,0,0,0-.88,3.38v.45a6,6,0,0,0,.88,3.4A3.08,3.08,0,0,0,497.51,199.11Z"/><path class="cls-6" d="M504.24,194a6.32,6.32,0,0,1,1.4-4.22,5,5,0,0,1,7.41,0,6.31,6.31,0,0,1,1.39,4.22v.36a6.28,6.28,0,0,1-1.39,4.22,4.58,4.58,0,0,1-3.69,1.65,4.63,4.63,0,0,1-3.72-1.65,6.28,6.28,0,0,1-1.4-4.22Zm1.28.36a5.55,5.55,0,0,0,1,3.4,3.54,3.54,0,0,0,5.61,0,5.55,5.55,0,0,0,1-3.4V194a5.55,5.55,0,0,0-1-3.38,3.31,3.31,0,0,0-2.81-1.39,3.27,3.27,0,0,0-2.8,1.39,5.56,5.56,0,0,0-1,3.38Z"/><path class="cls-6" d="M516.24,189.28v-1h2.87l.12,1.93a4.06,4.06,0,0,1,1.48-1.59,4.22,4.22,0,0,1,2.21-.56,3.35,3.35,0,0,1,3.47,2.64,4.47,4.47,0,0,1,1.49-1.93,3.86,3.86,0,0,1,2.35-.71,3.51,3.51,0,0,1,2.85,1.24,6.06,6.06,0,0,1,1,3.84v5.69l1.74.15V200h-4.76V199l1.73-.15v-5.72a4.76,4.76,0,0,0-.75-3,2.6,2.6,0,0,0-2.09-.89,2.83,2.83,0,0,0-2.3,1,4.64,4.64,0,0,0-1,2.45v.16c0,.05,0,.11,0,.19v5.9l1.73.14V200h-4.75V199l1.74-.14v-5.73a4.79,4.79,0,0,0-.76-3,2.62,2.62,0,0,0-2.1-.91,3.19,3.19,0,0,0-2.16.7,3.63,3.63,0,0,0-1.11,1.87v7.09L521,199V200h-4.76V199l1.74-.14v-9.46Z"/><path class="cls-6" d="M542.7,194a6.32,6.32,0,0,1,1.4-4.22,5,5,0,0,1,7.41,0A6.31,6.31,0,0,1,552.9,194v.36a6.28,6.28,0,0,1-1.39,4.22,5,5,0,0,1-7.41,0,6.28,6.28,0,0,1-1.4-4.22Zm1.28.36a5.55,5.55,0,0,0,1,3.4,3.54,3.54,0,0,0,5.61,0,5.55,5.55,0,0,0,1-3.4V194a5.62,5.62,0,0,0-1-3.38,3.31,3.31,0,0,0-2.81-1.39,3.27,3.27,0,0,0-2.8,1.39,5.56,5.56,0,0,0-1,3.38Z"/><path class="cls-6" d="M560.29,194.24a7.7,7.7,0,0,1,1.16-4.46,3.76,3.76,0,0,1,3.26-1.68,4.15,4.15,0,0,1,2.07.5,4.21,4.21,0,0,1,1.47,1.44l.13-1.72h1.11v15l1.74.14v1h-4.75v-1l1.73-.14v-4.91a3.9,3.9,0,0,1-1.47,1.3,4.33,4.33,0,0,1-2,.46,3.82,3.82,0,0,1-3.24-1.56,6.87,6.87,0,0,1-1.16-4.17Zm1.29.23a6,6,0,0,0,.83,3.37,2.81,2.81,0,0,0,2.52,1.27,3.55,3.55,0,0,0,2-.54,3.59,3.59,0,0,0,1.27-1.5v-5.68a4.09,4.09,0,0,0-1.24-1.57,3.2,3.2,0,0,0-2-.62,2.77,2.77,0,0,0-2.53,1.41,7,7,0,0,0-.84,3.63Z"/><path class="cls-6" d="M581,198.05a4,4,0,0,1-1.49,1.59,4.31,4.31,0,0,1-2.22.56,3.51,3.51,0,0,1-2.85-1.25,6.08,6.08,0,0,1-1-3.88v-5.65l-1.43-.14v-1h2.7v6.77a5.06,5.06,0,0,0,.72,3.06,2.43,2.43,0,0,0,2,.93,3.75,3.75,0,0,0,2.31-.65,3.48,3.48,0,0,0,1.21-1.79v-7.22l-1.64-.14v-1h2.92v10.56l1.54.14V200h-2.66Z"/><path class="cls-6" d="M590.69,200.2a4.61,4.61,0,0,1-3.6-1.61,6,6,0,0,1-1.43-4.1v-.59a6.11,6.11,0,0,1,1.42-4.15,4.4,4.4,0,0,1,3.44-1.65,4.3,4.3,0,0,1,3.34,1.36,5.23,5.23,0,0,1,1.21,3.62v1.1h-8.14v.31a5.14,5.14,0,0,0,1,3.29,3.28,3.28,0,0,0,2.72,1.33,5.51,5.51,0,0,0,2-.33,4,4,0,0,0,1.44-1l.55.88a4.66,4.66,0,0,1-1.64,1.09A6.25,6.25,0,0,1,590.69,200.2Zm-.17-11a3.06,3.06,0,0,0-2.37,1.09A4.78,4.78,0,0,0,587,193l0,.05h6.75v-.32a3.72,3.72,0,0,0-.88-2.54A3,3,0,0,0,590.52,189.2Z"/><path class="cls-6" d="M606,189.28l-1.44.11,2.88,7.66.37,1.37h.07l.4-1.37,2.84-7.66-1.44-.11v-1h3.88v1l-1.13.09L608.36,200h-1l-4.08-10.6-1.13-.09v-1H606Z"/><path class="cls-6" d="M614.8,194a6.32,6.32,0,0,1,1.4-4.22,5,5,0,0,1,7.41,0A6.31,6.31,0,0,1,625,194v.36a6.28,6.28,0,0,1-1.39,4.22,4.57,4.57,0,0,1-3.69,1.65,4.63,4.63,0,0,1-3.72-1.65,6.28,6.28,0,0,1-1.4-4.22Zm1.28.36a5.55,5.55,0,0,0,1,3.4,3.54,3.54,0,0,0,5.61,0,5.55,5.55,0,0,0,1-3.4V194a5.55,5.55,0,0,0-1-3.38,3.53,3.53,0,0,0-5.61,0,5.56,5.56,0,0,0-1,3.38Z"/><path class="cls-6" d="M632,199.11a3.58,3.58,0,0,0,2.24-.73,2.41,2.41,0,0,0,1-2h1.13l0,.07a3.22,3.22,0,0,1-1.27,2.7A4.74,4.74,0,0,1,632,200.2a4.38,4.38,0,0,1-3.63-1.63,6.58,6.58,0,0,1-1.29-4.2v-.45a6.54,6.54,0,0,1,1.29-4.18A4.36,4.36,0,0,1,632,188.1a5.73,5.73,0,0,1,2.44.51,4.93,4.93,0,0,1,1.81,1.38l0,2.54H635.2l-.2-2.07a3.71,3.71,0,0,0-1.27-.92,4.35,4.35,0,0,0-1.74-.34,3.07,3.07,0,0,0-2.74,1.34,6,6,0,0,0-.89,3.38v.45a6,6,0,0,0,.89,3.4A3.05,3.05,0,0,0,632,199.11Z"/><path class="cls-6" d="M643.82,200.2a4.61,4.61,0,0,1-3.6-1.61,6,6,0,0,1-1.43-4.1v-.59a6.12,6.12,0,0,1,1.43-4.15,4.36,4.36,0,0,1,3.43-1.65,4.27,4.27,0,0,1,3.34,1.36,5.23,5.23,0,0,1,1.21,3.62v1.1h-8.14v.31a5.2,5.2,0,0,0,1,3.29,3.28,3.28,0,0,0,2.72,1.33,5.57,5.57,0,0,0,2-.33,4.23,4.23,0,0,0,1.44-1l.54.88a4.58,4.58,0,0,1-1.64,1.09A6.25,6.25,0,0,1,643.82,200.2Zm-.17-11a3.06,3.06,0,0,0-2.37,1.09,4.71,4.71,0,0,0-1.12,2.75l0,.05h6.75v-.32a3.72,3.72,0,0,0-.88-2.54A3,3,0,0,0,643.65,189.2Zm3-3.12v.19h-1.2l-1.77-1.81-1.77,1.81h-1.17v-.22l2.41-2.38h1.05Z"/><path class="cls-6" d="M658.85,191.92H657.8l-.14-1.65a3.39,3.39,0,0,0-1.21-.79,4.85,4.85,0,0,0-1.68-.28,3.17,3.17,0,0,0-2.1.61,1.87,1.87,0,0,0-.7,1.43,1.69,1.69,0,0,0,.61,1.33,5.88,5.88,0,0,0,2.4.93,7.91,7.91,0,0,1,3.08,1.26,2.64,2.64,0,0,1,1,2.18,2.86,2.86,0,0,1-1.16,2.36,4.93,4.93,0,0,1-3.09.9,7.16,7.16,0,0,1-2.33-.36,5.43,5.43,0,0,1-1.81-1v-2.35h1l.18,1.66a3,3,0,0,0,1.3.75,5.84,5.84,0,0,0,1.63.23,3.6,3.6,0,0,0,2.19-.61,1.83,1.83,0,0,0,.79-1.49,1.89,1.89,0,0,0-.66-1.43,5.33,5.33,0,0,0-2.4-1,8.18,8.18,0,0,1-3.06-1.21,2.45,2.45,0,0,1-1-2.09,2.82,2.82,0,0,1,1.12-2.26,4.49,4.49,0,0,1,2.95-.92,6.59,6.59,0,0,1,2.31.4,4.57,4.57,0,0,1,1.71,1.06Z"/><path class="cls-6" d="M671.64,199.11a3.58,3.58,0,0,0,2.23-.73,2.41,2.41,0,0,0,1-2H676l0,.07a3.19,3.19,0,0,1-1.27,2.7,4.73,4.73,0,0,1-3.08,1.09,4.39,4.39,0,0,1-3.64-1.63,6.58,6.58,0,0,1-1.29-4.2v-.45a6.54,6.54,0,0,1,1.29-4.18,4.36,4.36,0,0,1,3.63-1.64,5.8,5.8,0,0,1,2.44.51,5,5,0,0,1,1.8,1.38l0,2.54h-1.09l-.2-2.07a3.71,3.71,0,0,0-1.27-.92,4.34,4.34,0,0,0-1.73-.34,3.07,3.07,0,0,0-2.75,1.34,6,6,0,0,0-.89,3.38v.45a6,6,0,0,0,.89,3.4A3.07,3.07,0,0,0,671.64,199.11Z"/><path class="cls-6" d="M678,184.13v-1h3v7.14a4.29,4.29,0,0,1,1.54-1.62,4.2,4.2,0,0,1,2.24-.59,3.44,3.44,0,0,1,2.79,1.15,5.36,5.36,0,0,1,1,3.54v6.09l1.73.14V200h-4.75V199l1.74-.14v-6.11a4,4,0,0,0-.74-2.72,2.62,2.62,0,0,0-2-.83,3.42,3.42,0,0,0-2.19.7,4,4,0,0,0-1.3,1.85v7.11l1.74.14V200H678V199l1.73-.14V184.27Z"/><path class="cls-6" d="M700.16,200q-.12-.58-.18-1a8.46,8.46,0,0,1-.05-.87,5.12,5.12,0,0,1-1.71,1.51,4.7,4.7,0,0,1-2.39.61,3.67,3.67,0,0,1-2.63-.89,3.15,3.15,0,0,1-.92-2.39,3,3,0,0,1,1.37-2.56,6.5,6.5,0,0,1,3.73-1h2.55v-1.54a2.51,2.51,0,0,0-.8-2,3.2,3.2,0,0,0-2.22-.71,5.4,5.4,0,0,0-1.75.27,3.92,3.92,0,0,0-1.33.71l-.1,1.56h-1.06V189.5a6.78,6.78,0,0,1,1.91-1,7.2,7.2,0,0,1,2.38-.39,4.63,4.63,0,0,1,3.07,1,3.49,3.49,0,0,1,1.16,2.81v5.73c0,.24,0,.47,0,.69s0,.43.07.64l1.15.07V200Zm-4.2-.91a4.56,4.56,0,0,0,2.44-.65,3.77,3.77,0,0,0,1.53-1.67V194.4h-2.57a4.82,4.82,0,0,0-2.78.73,2.19,2.19,0,0,0-1,1.84,1.93,1.93,0,0,0,.65,1.51A2.58,2.58,0,0,0,696,199.06Z"/><path class="cls-6" d="M704,189.28v-1h2.86l.12,1.93a4.06,4.06,0,0,1,1.48-1.59,4.24,4.24,0,0,1,2.21-.56,3.35,3.35,0,0,1,3.47,2.64,4.55,4.55,0,0,1,1.49-1.93,3.88,3.88,0,0,1,2.35-.71,3.48,3.48,0,0,1,2.85,1.24,6.06,6.06,0,0,1,1,3.84v5.69l1.73.15V200h-4.76V199l1.74-.15v-5.72a4.76,4.76,0,0,0-.75-3,2.62,2.62,0,0,0-2.1-.89,2.81,2.81,0,0,0-2.29,1,4.65,4.65,0,0,0-1,2.45v.16a1,1,0,0,1,0,.19v5.9l1.74.14V200h-4.76V199l1.74-.14v-5.73a4.73,4.73,0,0,0-.76-3,2.62,2.62,0,0,0-2.1-.91,3.18,3.18,0,0,0-2.15.7,3.71,3.71,0,0,0-1.12,1.87v7.09l1.74.14V200H704V199l1.73-.14v-9.46Z"/><path class="cls-6" d="M733.08,200q-.12-.58-.18-1a6.35,6.35,0,0,1,0-.87,5.12,5.12,0,0,1-1.71,1.51,4.71,4.71,0,0,1-2.4.61,3.65,3.65,0,0,1-2.62-.89,3.11,3.11,0,0,1-.92-2.39,3,3,0,0,1,1.37-2.56,6.5,6.5,0,0,1,3.73-1h2.55v-1.54a2.51,2.51,0,0,0-.8-2,3.23,3.23,0,0,0-2.22-.71,5.4,5.4,0,0,0-1.75.27,3.92,3.92,0,0,0-1.33.71l-.11,1.56h-1V189.5a6.78,6.78,0,0,1,1.91-1,7.14,7.14,0,0,1,2.37-.39,4.6,4.6,0,0,1,3.07,1,3.47,3.47,0,0,1,1.17,2.81v5.73c0,.24,0,.47,0,.69a4.48,4.48,0,0,0,.07.64l1.15.07V200Zm-4.2-.91a4.56,4.56,0,0,0,2.44-.65,3.83,3.83,0,0,0,1.53-1.67V194.4h-2.57a4.82,4.82,0,0,0-2.78.73,2.19,2.19,0,0,0-1,1.84,1.93,1.93,0,0,0,.65,1.51A2.58,2.58,0,0,0,728.88,199.06Z"/><path class="cls-6" d="M736.89,189.28v-1h2.86l.12,1.93a4.06,4.06,0,0,1,1.48-1.59,4.22,4.22,0,0,1,2.21-.56,3.35,3.35,0,0,1,3.47,2.64,4.47,4.47,0,0,1,1.49-1.93,3.86,3.86,0,0,1,2.35-.71,3.48,3.48,0,0,1,2.85,1.24,6.06,6.06,0,0,1,1,3.84v5.69l1.74.15V200H751.7V199l1.74-.15v-5.72a4.76,4.76,0,0,0-.76-3,2.59,2.59,0,0,0-2.09-.89,2.83,2.83,0,0,0-2.3,1,4.64,4.64,0,0,0-1,2.45v.16a1,1,0,0,1,0,.19v5.9L749,199V200h-4.75V199l1.74-.14v-5.73a4.79,4.79,0,0,0-.76-3,2.62,2.62,0,0,0-2.1-.91,3.19,3.19,0,0,0-2.16.7,3.7,3.7,0,0,0-1.11,1.87v7.09l1.74.14V200h-4.75V199l1.73-.14v-9.46Z"/><path class="cls-6" d="M771.36,198.29a4,4,0,0,1-1.48,1.41,4.41,4.41,0,0,1-2.13.5,3.82,3.82,0,0,1-3.24-1.56,6.81,6.81,0,0,1-1.17-4.17v-.23a7.63,7.63,0,0,1,1.17-4.46,3.76,3.76,0,0,1,3.26-1.68,4,4,0,0,1,2.09.52,4.16,4.16,0,0,1,1.47,1.45v-5.8l-1.74-.14v-1h3v15.71l1.73.14V200h-2.87Zm-6.73-3.82a6,6,0,0,0,.84,3.36,2.84,2.84,0,0,0,2.52,1.25,3.59,3.59,0,0,0,2-.56,3.83,3.83,0,0,0,1.29-1.54v-5.52a4.06,4.06,0,0,0-1.23-1.61,3.29,3.29,0,0,0-2.09-.63,2.78,2.78,0,0,0-2.53,1.4,7,7,0,0,0-.85,3.62Z"/><path class="cls-6" d="M781.39,200.2a4.65,4.65,0,0,1-3.61-1.61,6,6,0,0,1-1.42-4.1v-.59a6.11,6.11,0,0,1,1.42-4.15,4.38,4.38,0,0,1,3.44-1.65,4.26,4.26,0,0,1,3.33,1.36,5.23,5.23,0,0,1,1.22,3.62v1.1h-8.14v.31a5.19,5.19,0,0,0,1,3.29,3.3,3.3,0,0,0,2.73,1.33,5.55,5.55,0,0,0,2-.33,4.23,4.23,0,0,0,1.44-1l.54.88a4.58,4.58,0,0,1-1.64,1.09A6.23,6.23,0,0,1,781.39,200.2Zm-.17-11a3.09,3.09,0,0,0-2.38,1.09,4.77,4.77,0,0,0-1.12,2.75l0,.05h6.76v-.32a3.73,3.73,0,0,0-.89-2.54A3,3,0,0,0,781.22,189.2Z"/><path class="cls-6" d="M415.41,210.76a5.29,5.29,0,0,1,3.78,1.25,4.81,4.81,0,0,1,0,6.66,5.34,5.34,0,0,1-3.78,1.25h-3.54v5.43l1.74.14v.95h-4.74v-.95l1.74-.14V211.86l-1.74-.15v-1h6.54Zm-3.54,8.06h3.54a3.88,3.88,0,0,0,2.88-1,3.4,3.4,0,0,0,1-2.49,3.47,3.47,0,0,0-1-2.5,3.85,3.85,0,0,0-2.89-1h-3.54Z"/><path class="cls-6" d="M427.69,226.66a4.61,4.61,0,0,1-3.6-1.61,5.91,5.91,0,0,1-1.43-4.1v-.59a6.09,6.09,0,0,1,1.42-4.14,4.38,4.38,0,0,1,3.44-1.65,4.23,4.23,0,0,1,3.33,1.36,5.21,5.21,0,0,1,1.22,3.61v1.1h-8.14V221a5.12,5.12,0,0,0,1,3.29,3.28,3.28,0,0,0,2.72,1.33,5.51,5.51,0,0,0,2-.33,4,4,0,0,0,1.44-1l.55.89a4.85,4.85,0,0,1-1.65,1.09A6.23,6.23,0,0,1,427.69,226.66Zm-.17-11a3,3,0,0,0-2.37,1.09A4.69,4.69,0,0,0,424,219.5l0,.05h6.76v-.32a3.79,3.79,0,0,0-.88-2.54A3,3,0,0,0,427.52,215.67Z"/><path class="cls-6" d="M434.11,225.49l1.74-.14v-9.47l-1.74-.14v-1H437l.12,2a4.15,4.15,0,0,1,1.49-1.66,4.09,4.09,0,0,1,2.24-.59,3.52,3.52,0,0,1,2.85,1.16,5.46,5.46,0,0,1,1,3.61v6l1.74.14v.95h-4.75v-.95l1.73-.14v-6a4.2,4.2,0,0,0-.74-2.83,2.64,2.64,0,0,0-2.1-.83,3.25,3.25,0,0,0-2.19.72,4,4,0,0,0-1.22,1.9v7l1.74.14v.95h-4.76Z"/><path class="cls-6" d="M456.77,218.38h-1l-.14-1.65a3.28,3.28,0,0,0-1.21-.78,4.62,4.62,0,0,0-1.68-.28,3.12,3.12,0,0,0-2.1.61,1.84,1.84,0,0,0-.69,1.42,1.71,1.71,0,0,0,.6,1.34,5.76,5.76,0,0,0,2.4.92,7.75,7.75,0,0,1,3.08,1.27,2.62,2.62,0,0,1,1,2.18,2.84,2.84,0,0,1-1.16,2.35,4.93,4.93,0,0,1-3.09.9,7.16,7.16,0,0,1-2.33-.36,5.43,5.43,0,0,1-1.81-1v-2.34h1l.18,1.65a2.85,2.85,0,0,0,1.3.75,5.49,5.49,0,0,0,1.63.23,3.54,3.54,0,0,0,2.19-.61,1.83,1.83,0,0,0,.8-1.49,1.92,1.92,0,0,0-.67-1.43,5.39,5.39,0,0,0-2.4-1,8,8,0,0,1-3.06-1.2,2.48,2.48,0,0,1-1-2.09,2.81,2.81,0,0,1,1.12-2.26,4.51,4.51,0,0,1,2.95-.92A6.64,6.64,0,0,1,455,215a4.7,4.7,0,0,1,1.71,1.06Z"/><path class="cls-6" d="M467.29,226.44a9,9,0,0,1-.18-1,6.25,6.25,0,0,1-.06-.87,5,5,0,0,1-1.7,1.52,4.8,4.8,0,0,1-2.4.6,3.64,3.64,0,0,1-2.62-.88,3.15,3.15,0,0,1-.93-2.39,3,3,0,0,1,1.38-2.56,6.4,6.4,0,0,1,3.73-1h2.54v-1.54a2.48,2.48,0,0,0-.79-2,3.19,3.19,0,0,0-2.22-.71,5.46,5.46,0,0,0-1.76.26,4,4,0,0,0-1.32.72l-.11,1.56H459.8V216a6.3,6.3,0,0,1,1.91-1,7.1,7.1,0,0,1,2.37-.39,4.63,4.63,0,0,1,3.07,1,3.48,3.48,0,0,1,1.16,2.81v5.73c0,.24,0,.46,0,.68a4.48,4.48,0,0,0,.07.64l1.15.08v.95Zm-4.2-.92a4.59,4.59,0,0,0,2.44-.65,3.78,3.78,0,0,0,1.52-1.66v-2.34h-2.57a4.78,4.78,0,0,0-2.77.72,2.19,2.19,0,0,0-1,1.84,1.91,1.91,0,0,0,.64,1.51A2.54,2.54,0,0,0,463.09,225.52Z"/><path class="cls-6" d="M471.09,215.74v-1H474l.12,1.93a4,4,0,0,1,1.48-1.58,4.18,4.18,0,0,1,2.2-.56,3.66,3.66,0,0,1,2.21.65,3.62,3.62,0,0,1,1.27,2,4.48,4.48,0,0,1,1.48-1.94,3.89,3.89,0,0,1,2.35-.7,3.45,3.45,0,0,1,2.85,1.24,6,6,0,0,1,1,3.83v5.7l1.74.15v.95H485.9v-.95l1.74-.15v-5.72a4.74,4.74,0,0,0-.75-3,2.57,2.57,0,0,0-2.09-.89,2.83,2.83,0,0,0-2.3,1,4.61,4.61,0,0,0-1,2.44.81.81,0,0,0,0,.16v6.1l1.74.14v.95H478.5v-.95l1.74-.14v-5.73a4.7,4.7,0,0,0-.77-3,2.57,2.57,0,0,0-2.09-.91,3.18,3.18,0,0,0-2.16.69,3.71,3.71,0,0,0-1.11,1.87v7.1l1.73.14v.95h-4.75v-.95l1.74-.14v-9.47Z"/><path class="cls-6" d="M497.22,226.66a4.61,4.61,0,0,1-3.6-1.61,6,6,0,0,1-1.43-4.1v-.59a6.14,6.14,0,0,1,1.42-4.14,4.4,4.4,0,0,1,3.44-1.65,4.25,4.25,0,0,1,3.34,1.36,5.2,5.2,0,0,1,1.21,3.61v1.1h-8.14V221a5.18,5.18,0,0,0,1,3.29,3.28,3.28,0,0,0,2.72,1.33,5.61,5.61,0,0,0,2-.33,3.84,3.84,0,0,0,1.43-1l.55.89a4.8,4.8,0,0,1-1.64,1.09A6.25,6.25,0,0,1,497.22,226.66Zm-.17-11a3,3,0,0,0-2.37,1.09,4.68,4.68,0,0,0-1.12,2.74l0,.05h6.75v-.32a3.74,3.74,0,0,0-.88-2.54A3,3,0,0,0,497.05,215.67Z"/><path class="cls-6" d="M503.65,225.49l1.73-.14v-9.47l-1.73-.14v-1h2.86l.12,2a4.1,4.1,0,0,1,1.5-1.66,4.06,4.06,0,0,1,2.23-.59,3.56,3.56,0,0,1,2.86,1.16,5.52,5.52,0,0,1,1,3.61v6l1.73.14v.95h-4.75v-.95l1.74-.14v-6a4.25,4.25,0,0,0-.74-2.83,2.67,2.67,0,0,0-2.11-.83,3.28,3.28,0,0,0-2.19.72,4,4,0,0,0-1.22,1.9v7l1.74.14v.95h-4.75Z"/><path class="cls-6" d="M520.87,211.8v3h2.53v1.06h-2.53v7.59a2.46,2.46,0,0,0,.41,1.62,1.36,1.36,0,0,0,1.09.48,5.74,5.74,0,0,0,.6,0,4.92,4.92,0,0,0,.68-.09l.19,1a3.33,3.33,0,0,1-.78.22,5.58,5.58,0,0,1-.91.07,2.43,2.43,0,0,1-1.9-.77,3.71,3.71,0,0,1-.67-2.46v-7.59h-2v-1.06h2v-3Z"/><path class="cls-6" d="M525.54,220.44a6.28,6.28,0,0,1,1.39-4.22,5,5,0,0,1,7.41,0,6.28,6.28,0,0,1,1.39,4.22v.35a6.3,6.3,0,0,1-1.39,4.23,4.59,4.59,0,0,1-3.69,1.64,4.65,4.65,0,0,1-3.72-1.64,6.3,6.3,0,0,1-1.39-4.23Zm1.27.35a5.59,5.59,0,0,0,1,3.41,3.56,3.56,0,0,0,5.61,0,5.59,5.59,0,0,0,1-3.41v-.35a5.54,5.54,0,0,0-1-3.38,3.53,3.53,0,0,0-5.61,0,5.54,5.54,0,0,0-1,3.38Z"/><path class="cls-6" d="M555.19,215.67h-1l-.18-2.38a4.39,4.39,0,0,0-1.61-1.2,5.32,5.32,0,0,0-2.29-.46,5,5,0,0,0-4.13,1.91,7.6,7.6,0,0,0-1.54,4.94v.22a7.75,7.75,0,0,0,1.52,5,4.84,4.84,0,0,0,4,1.92,5.91,5.91,0,0,0,2.38-.46,4.41,4.41,0,0,0,1.68-1.19l.18-2.38h1v2.75a5.43,5.43,0,0,1-2.11,1.69,6.94,6.94,0,0,1-3.12.68,6.1,6.1,0,0,1-4.88-2.23,8.52,8.52,0,0,1-1.9-5.73v-.2a8.59,8.59,0,0,1,1.89-5.74,6.21,6.21,0,0,1,4.95-2.23,6.88,6.88,0,0,1,3.09.68,5.68,5.68,0,0,1,2.08,1.7Z"/><path class="cls-6" d="M557.49,220.44a6.28,6.28,0,0,1,1.4-4.22,5,5,0,0,1,7.41,0,6.28,6.28,0,0,1,1.39,4.22v.35A6.3,6.3,0,0,1,566.3,225a4.6,4.6,0,0,1-3.69,1.64,4.65,4.65,0,0,1-3.72-1.64,6.31,6.31,0,0,1-1.4-4.23Zm1.28.35a5.59,5.59,0,0,0,1,3.41,3.56,3.56,0,0,0,5.61,0,5.58,5.58,0,0,0,1-3.41v-.35a5.53,5.53,0,0,0-1-3.38,3.29,3.29,0,0,0-2.81-1.39,3.25,3.25,0,0,0-2.8,1.39,5.54,5.54,0,0,0-1,3.38Z"/><path class="cls-6" d="M569.49,215.74v-1h2.87l.12,1.93a4,4,0,0,1,1.48-1.58,4.22,4.22,0,0,1,2.21-.56,3.32,3.32,0,0,1,3.47,2.64,4.5,4.5,0,0,1,1.49-1.94,3.85,3.85,0,0,1,2.35-.7,3.48,3.48,0,0,1,2.85,1.24,6,6,0,0,1,1,3.83v5.7l1.74.15v.95h-4.76v-.95l1.73-.15v-5.72a4.74,4.74,0,0,0-.75-3,2.57,2.57,0,0,0-2.09-.89,2.83,2.83,0,0,0-2.3,1,4.6,4.6,0,0,0-1,2.44v.16c0,.05,0,.12,0,.2v5.9l1.73.14v.95H576.9v-.95l1.74-.14v-5.73a4.77,4.77,0,0,0-.76-3,2.59,2.59,0,0,0-2.1-.91,3.18,3.18,0,0,0-2.16.69,3.71,3.71,0,0,0-1.11,1.87v7.1l1.74.14v.95h-4.76v-.95l1.74-.14v-9.47Z"/><path class="cls-6" d="M590.31,215.74v-1h2.8l.16,1.81a4.05,4.05,0,0,1,3.63-2,3.75,3.75,0,0,1,3.25,1.67,7.68,7.68,0,0,1,1.18,4.47v.22a6.8,6.8,0,0,1-1.18,4.18,3.83,3.83,0,0,1-3.23,1.55,4.48,4.48,0,0,1-2.12-.47,3.82,3.82,0,0,1-1.49-1.33v5l1.74.14v1h-4.74v-1l1.73-.14V215.88Zm9.74,5a6.76,6.76,0,0,0-.88-3.62,2.83,2.83,0,0,0-2.56-1.4,3.35,3.35,0,0,0-2.09.62,3.76,3.76,0,0,0-1.21,1.61v5.6a3.44,3.44,0,0,0,1.26,1.5,3.63,3.63,0,0,0,2.07.55,2.88,2.88,0,0,0,2.54-1.27,5.85,5.85,0,0,0,.87-3.37Z"/><path class="cls-6" d="M611.88,224.52a4,4,0,0,1-1.49,1.58,4.31,4.31,0,0,1-2.22.56,3.45,3.45,0,0,1-2.85-1.25,6,6,0,0,1-1-3.87v-5.66l-1.43-.14v-1h2.7v6.78a5.07,5.07,0,0,0,.71,3.06,2.46,2.46,0,0,0,2.05.92,3.74,3.74,0,0,0,2.3-.64,3.46,3.46,0,0,0,1.21-1.79v-7.23l-1.64-.14v-1h2.92v10.57l1.55.14v.95H612Z"/><path class="cls-6" d="M619.46,211.8v3H622v1.06h-2.54v7.59a2.52,2.52,0,0,0,.41,1.62,1.38,1.38,0,0,0,1.09.48,6.08,6.08,0,0,0,.61,0,4.79,4.79,0,0,0,.67-.09l.2,1a3.63,3.63,0,0,1-.78.22,5.7,5.7,0,0,1-.92.07,2.39,2.39,0,0,1-1.89-.77,3.71,3.71,0,0,1-.68-2.46v-7.59h-2v-1.06h2v-3Z"/><path class="cls-6" d="M632.3,226.44c-.08-.4-.14-.74-.18-1a8.3,8.3,0,0,1,0-.87,5.15,5.15,0,0,1-1.71,1.52,4.79,4.79,0,0,1-2.39.6,3.67,3.67,0,0,1-2.63-.88,3.18,3.18,0,0,1-.92-2.39,3,3,0,0,1,1.37-2.56,6.42,6.42,0,0,1,3.73-1h2.55v-1.54a2.51,2.51,0,0,0-.79-2,3.2,3.2,0,0,0-2.23-.71,5.4,5.4,0,0,0-1.75.26,4.12,4.12,0,0,0-1.33.72l-.1,1.56h-1.06V216a6.36,6.36,0,0,1,1.92-1,7.1,7.1,0,0,1,2.37-.39,4.63,4.63,0,0,1,3.07,1,3.48,3.48,0,0,1,1.16,2.81v5.73c0,.24,0,.46,0,.68s0,.43.07.64l1.15.08v.95Zm-4.19-.92a4.55,4.55,0,0,0,2.43-.65,3.75,3.75,0,0,0,1.53-1.66v-2.34H629.5a4.82,4.82,0,0,0-2.78.72,2.18,2.18,0,0,0-1,1.84,1.91,1.91,0,0,0,.64,1.51A2.54,2.54,0,0,0,628.11,225.52Z"/><path class="cls-6" d="M641.31,225.57a3.62,3.62,0,0,0,2.24-.73,2.41,2.41,0,0,0,1-2h1.13l0,.06a3.2,3.2,0,0,1-1.28,2.7,4.68,4.68,0,0,1-3.08,1.09,4.37,4.37,0,0,1-3.64-1.63,6.63,6.63,0,0,1-1.29-4.19v-.46a6.59,6.59,0,0,1,1.29-4.17,4.34,4.34,0,0,1,3.63-1.64,5.76,5.76,0,0,1,2.44.51,4.69,4.69,0,0,1,1.8,1.37l.05,2.54h-1.08l-.21-2.06A3.5,3.5,0,0,0,643,216a4.17,4.17,0,0,0-1.73-.34,3.06,3.06,0,0,0-2.75,1.34,6,6,0,0,0-.89,3.37v.46a6.05,6.05,0,0,0,.89,3.4A3.07,3.07,0,0,0,641.31,225.57Z"/><path class="cls-6" d="M648,225.49l1.74-.14v-9.47l-1.74-.14v-1h3v10.57l1.74.14v.95H648Zm3-14H649.7v-1.81H651Z"/><path class="cls-6" d="M654.84,220.44a6.28,6.28,0,0,1,1.4-4.22,5,5,0,0,1,7.4,0,6.23,6.23,0,0,1,1.4,4.22v.35a6.3,6.3,0,0,1-1.39,4.23,5,5,0,0,1-7.41,0,6.31,6.31,0,0,1-1.4-4.23Zm1.28.35a5.65,5.65,0,0,0,1,3.41,3.33,3.33,0,0,0,2.83,1.37,3.3,3.3,0,0,0,2.79-1.37,5.65,5.65,0,0,0,1-3.41v-.35a5.54,5.54,0,0,0-1-3.38,3.53,3.53,0,0,0-5.61,0,5.6,5.6,0,0,0-1,3.38Z"/><path class="cls-6" d="M666.88,225.49l1.74-.14v-9.47l-1.74-.14v-1h2.87l.12,2a4.1,4.1,0,0,1,1.5-1.66,4,4,0,0,1,2.23-.59,3.52,3.52,0,0,1,2.85,1.16,5.46,5.46,0,0,1,1,3.61v6l1.74.14v.95h-4.75v-.95l1.74-.14v-6a4.25,4.25,0,0,0-.74-2.83,2.67,2.67,0,0,0-2.11-.83,3.27,3.27,0,0,0-2.19.72,4,4,0,0,0-1.22,1.9v7l1.74.14v.95h-4.76Z"/><path class="cls-6" d="M689.13,226.44c-.08-.4-.14-.74-.18-1a8.3,8.3,0,0,1-.05-.87,5.11,5.11,0,0,1-1.7,1.52,4.83,4.83,0,0,1-2.4.6,3.63,3.63,0,0,1-2.62-.88,3.15,3.15,0,0,1-.93-2.39,3,3,0,0,1,1.37-2.56,6.42,6.42,0,0,1,3.73-1h2.55v-1.54a2.48,2.48,0,0,0-.79-2,3.2,3.2,0,0,0-2.23-.71,5.44,5.44,0,0,0-1.75.26,4.12,4.12,0,0,0-1.33.72l-.1,1.56h-1.06V216a6.36,6.36,0,0,1,1.92-1,7.1,7.1,0,0,1,2.37-.39,4.63,4.63,0,0,1,3.07,1,3.48,3.48,0,0,1,1.16,2.81v5.73c0,.24,0,.46,0,.68s0,.43.07.64l1.15.08v.95Zm-4.19-.92a4.61,4.61,0,0,0,2.44-.65,3.78,3.78,0,0,0,1.52-1.66v-2.34h-2.57a4.76,4.76,0,0,0-2.77.72,2.17,2.17,0,0,0-1,1.84,1.91,1.91,0,0,0,.64,1.51A2.54,2.54,0,0,0,684.94,225.52Z"/><path class="cls-6" d="M693,210.6v-1h3v15.71l1.73.14v.95H693v-.95l1.74-.14V210.74Z"/><path class="cls-6" d="M701.57,225.92a4.89,4.89,0,0,1-.4,1.94,4.64,4.64,0,0,1-1.09,1.6l-.76-.56a5.32,5.32,0,0,0,.74-1.41,4.76,4.76,0,0,0,.24-1.55v-1.53h1.27Z"/><path class="cls-6" d="M714.29,226.66a4.63,4.63,0,0,1-3.61-1.61,6,6,0,0,1-1.43-4.1v-.59a6.09,6.09,0,0,1,1.43-4.14,4.38,4.38,0,0,1,3.43-1.65,4.23,4.23,0,0,1,3.34,1.36,5.21,5.21,0,0,1,1.22,3.61v1.1h-8.15V221a5.18,5.18,0,0,0,1,3.29,3.28,3.28,0,0,0,2.73,1.33,5.55,5.55,0,0,0,2-.33,4,4,0,0,0,1.44-1l.54.89a4.71,4.71,0,0,1-1.64,1.09A6.23,6.23,0,0,1,714.29,226.66Zm-.18-11a3.05,3.05,0,0,0-2.37,1.09,4.74,4.74,0,0,0-1.12,2.74l0,.05h6.76v-.32a3.75,3.75,0,0,0-.89-2.54A3,3,0,0,0,714.11,215.67Z"/><path class="cls-6" d="M734.21,226.44c-.08-.4-.14-.74-.18-1a8.3,8.3,0,0,1,0-.87,5.15,5.15,0,0,1-1.71,1.52,4.79,4.79,0,0,1-2.39.6,3.67,3.67,0,0,1-2.63-.88,3.14,3.14,0,0,1-.92-2.39,2.94,2.94,0,0,1,1.37-2.56,6.42,6.42,0,0,1,3.73-1H734v-1.54a2.48,2.48,0,0,0-.8-2,3.19,3.19,0,0,0-2.22-.71,5.4,5.4,0,0,0-1.75.26,4.12,4.12,0,0,0-1.33.72l-.1,1.56h-1.06V216a6.3,6.3,0,0,1,1.91-1,7.18,7.18,0,0,1,2.37-.39,4.6,4.6,0,0,1,3.07,1,3.46,3.46,0,0,1,1.17,2.81v5.73c0,.24,0,.46,0,.68a4.48,4.48,0,0,0,.07.64l1.15.08v.95Zm-4.2-.92a4.56,4.56,0,0,0,2.44-.65,3.75,3.75,0,0,0,1.53-1.66v-2.34h-2.57a4.82,4.82,0,0,0-2.78.72,2.19,2.19,0,0,0-1,1.84,1.92,1.92,0,0,0,.65,1.51A2.53,2.53,0,0,0,730,225.52Z"/><path class="cls-6" d="M738.06,225.49l1.74-.14v-9.47l-1.74-.14v-1h2.87l.11,2a4.1,4.1,0,0,1,1.5-1.66,4.06,4.06,0,0,1,2.23-.59,3.56,3.56,0,0,1,2.86,1.16,5.52,5.52,0,0,1,1,3.61v6l1.74.14v.95h-4.76v-.95l1.74-.14v-6a4.25,4.25,0,0,0-.74-2.83,2.65,2.65,0,0,0-2.1-.83,3.29,3.29,0,0,0-2.2.72,3.91,3.91,0,0,0-1.21,1.9v7l1.73.14v.95h-4.75Z"/><path class="cls-6" d="M755.28,211.8v3h2.54v1.06h-2.54v7.59a2.52,2.52,0,0,0,.41,1.62,1.36,1.36,0,0,0,1.09.48,5.74,5.74,0,0,0,.6,0,4.73,4.73,0,0,0,.68-.09l.19,1a3.33,3.33,0,0,1-.78.22,5.58,5.58,0,0,1-.91.07,2.39,2.39,0,0,1-1.89-.77,3.71,3.71,0,0,1-.68-2.46v-7.59h-2v-1.06h2v-3Z"/><path class="cls-6" d="M765.24,226.66a4.61,4.61,0,0,1-3.6-1.61,6,6,0,0,1-1.43-4.1v-.59a6.09,6.09,0,0,1,1.43-4.14,4.36,4.36,0,0,1,3.43-1.65,4.23,4.23,0,0,1,3.34,1.36,5.2,5.2,0,0,1,1.21,3.61v1.1h-8.14V221a5.18,5.18,0,0,0,1,3.29,3.28,3.28,0,0,0,2.72,1.33,5.57,5.57,0,0,0,2-.33,4,4,0,0,0,1.44-1l.54.89a4.71,4.71,0,0,1-1.64,1.09A6.25,6.25,0,0,1,765.24,226.66Zm-.17-11a3,3,0,0,0-2.37,1.09,4.68,4.68,0,0,0-1.12,2.74l0,.05h6.76v-.32a3.75,3.75,0,0,0-.89-2.54A3,3,0,0,0,765.07,215.67Z"/><path class="cls-6" d="M780.27,218.38h-1l-.14-1.65a3.28,3.28,0,0,0-1.21-.78,4.62,4.62,0,0,0-1.68-.28,3.12,3.12,0,0,0-2.1.61,1.84,1.84,0,0,0-.69,1.42A1.71,1.71,0,0,0,774,219a5.76,5.76,0,0,0,2.4.92,7.75,7.75,0,0,1,3.08,1.27,2.62,2.62,0,0,1,1,2.18,2.84,2.84,0,0,1-1.16,2.35,4.93,4.93,0,0,1-3.09.9,7.16,7.16,0,0,1-2.33-.36,5.43,5.43,0,0,1-1.81-1v-2.34h1l.18,1.65a2.85,2.85,0,0,0,1.3.75,5.49,5.49,0,0,0,1.63.23,3.54,3.54,0,0,0,2.19-.61,1.83,1.83,0,0,0,.8-1.49,1.92,1.92,0,0,0-.67-1.43,5.39,5.39,0,0,0-2.4-1,8,8,0,0,1-3.06-1.2,2.48,2.48,0,0,1-1-2.09,2.81,2.81,0,0,1,1.12-2.26,4.51,4.51,0,0,1,3-.92,6.64,6.64,0,0,1,2.32.39,4.7,4.7,0,0,1,1.71,1.06Z"/><path class="cls-6" d="M409.15,247.17a7.7,7.7,0,0,1,1.16-4.46,3.76,3.76,0,0,1,3.26-1.68,3.94,3.94,0,0,1,3.54,1.94l.12-1.72h1.12v15l1.74.14v1h-4.75v-1l1.73-.14v-4.91a3.9,3.9,0,0,1-1.47,1.3,4.46,4.46,0,0,1-2.05.46,3.81,3.81,0,0,1-3.24-1.57,6.84,6.84,0,0,1-1.16-4.16Zm1.29.23a6,6,0,0,0,.83,3.37,2.81,2.81,0,0,0,2.52,1.27,3.47,3.47,0,0,0,2-.55,3.64,3.64,0,0,0,1.27-1.49v-5.68a4,4,0,0,0-1.24-1.57,3.2,3.2,0,0,0-2-.62,2.77,2.77,0,0,0-2.53,1.41,7,7,0,0,0-.84,3.63Z"/><path class="cls-6" d="M429.81,251a4,4,0,0,1-1.49,1.59,4.31,4.31,0,0,1-2.22.56,3.51,3.51,0,0,1-2.85-1.25,6,6,0,0,1-1-3.88v-5.65l-1.43-.14v-1h2.7V248a5.06,5.06,0,0,0,.72,3.06,2.43,2.43,0,0,0,2,.93,3.75,3.75,0,0,0,2.31-.65,3.48,3.48,0,0,0,1.21-1.79v-7.22l-1.64-.14v-1h2.92v10.56l1.54.14v1h-2.66Z"/><path class="cls-6" d="M439.55,253.13a4.61,4.61,0,0,1-3.6-1.61,6,6,0,0,1-1.43-4.1v-.59a6.11,6.11,0,0,1,1.42-4.15,4.4,4.4,0,0,1,3.44-1.65,4.26,4.26,0,0,1,3.33,1.36,5.22,5.22,0,0,1,1.22,3.62v1.1h-8.14v.31a5.16,5.16,0,0,0,1,3.29,3.3,3.3,0,0,0,2.72,1.33,5.3,5.3,0,0,0,2-.34,3.9,3.9,0,0,0,1.44-.95l.55.88a4.66,4.66,0,0,1-1.64,1.09A6.28,6.28,0,0,1,439.55,253.13Zm-.17-11a3.06,3.06,0,0,0-2.37,1.09,4.78,4.78,0,0,0-1.13,2.74l0,.06h6.75v-.32a3.77,3.77,0,0,0-.88-2.55A3,3,0,0,0,439.38,242.13Z"/><path class="cls-6" d="M451.17,242.21v-1H454l.16,1.81a4,4,0,0,1,3.63-2,3.74,3.74,0,0,1,3.25,1.68,7.63,7.63,0,0,1,1.17,4.46v.23a6.79,6.79,0,0,1-1.17,4.17,3.82,3.82,0,0,1-3.23,1.56,4.57,4.57,0,0,1-2.12-.47,4,4,0,0,1-1.49-1.33v4.95l1.74.14v1h-4.75v-1l1.74-.14V242.35Zm9.75,5a6.78,6.78,0,0,0-.88-3.62,2.83,2.83,0,0,0-2.56-1.4,3.35,3.35,0,0,0-2.09.62,3.76,3.76,0,0,0-1.21,1.61V250a3.53,3.53,0,0,0,1.26,1.51,3.7,3.7,0,0,0,2.06.55,2.91,2.91,0,0,0,2.55-1.27,5.87,5.87,0,0,0,.87-3.37Z"/><path class="cls-6" d="M469.36,253.13a4.65,4.65,0,0,1-3.61-1.61,6,6,0,0,1-1.42-4.1v-.59a6.11,6.11,0,0,1,1.42-4.15,4.38,4.38,0,0,1,3.43-1.65,4.27,4.27,0,0,1,3.34,1.36,5.22,5.22,0,0,1,1.22,3.62v1.1h-8.15v.31a5.22,5.22,0,0,0,1,3.29,3.32,3.32,0,0,0,2.73,1.33,5.34,5.34,0,0,0,2-.34,4.07,4.07,0,0,0,1.44-.95l.54.88a4.58,4.58,0,0,1-1.64,1.09A6.23,6.23,0,0,1,469.36,253.13Zm-.18-11a3.09,3.09,0,0,0-2.37,1.09,4.77,4.77,0,0,0-1.12,2.74l0,.06h6.76v-.32a3.77,3.77,0,0,0-.89-2.55A3,3,0,0,0,469.18,242.13Z"/><path class="cls-6" d="M478.78,241.25l.15,1.94v.14a4.22,4.22,0,0,1,1.34-1.69,3.42,3.42,0,0,1,2-.61,2.59,2.59,0,0,1,.48,0l.37.08-.17,1.21-.95-.07a2.83,2.83,0,0,0-2,.69,3.79,3.79,0,0,0-1.11,1.88v6.95l1.74.14v1h-4.74v-1l1.74-.14v-9.46l-1.74-.14v-1h2.85Z"/><path class="cls-6" d="M484.64,247.17a7.63,7.63,0,0,1,1.17-4.46,3.78,3.78,0,0,1,3.27-1.68,4,4,0,0,1,2.13.55,4.27,4.27,0,0,1,1.48,1.53l.15-1.86h1.08v11.5a5,5,0,0,1-1.21,3.55,4.33,4.33,0,0,1-3.35,1.31,8.2,8.2,0,0,1-1.78-.21,6.85,6.85,0,0,1-1.64-.56l.34-1.09a6.59,6.59,0,0,0,1.45.52,7,7,0,0,0,1.61.18,3,3,0,0,0,2.47-1,4.09,4.09,0,0,0,.83-2.72v-1.48a4,4,0,0,1-1.48,1.38,4.4,4.4,0,0,1-2.1.48,3.81,3.81,0,0,1-3.25-1.57,6.78,6.78,0,0,1-1.17-4.16Zm1.28.23a5.91,5.91,0,0,0,.84,3.35,2.86,2.86,0,0,0,2.53,1.26,3.5,3.5,0,0,0,2.08-.58,3.68,3.68,0,0,0,1.27-1.57v-5.4a4.08,4.08,0,0,0-1.23-1.67,3.28,3.28,0,0,0-2.09-.64,2.8,2.8,0,0,0-2.55,1.4,6.88,6.88,0,0,0-.85,3.62Z"/><path class="cls-6" d="M505.29,251a4,4,0,0,1-1.49,1.59,4.31,4.31,0,0,1-2.22.56,3.51,3.51,0,0,1-2.85-1.25,6,6,0,0,1-1-3.88v-5.65l-1.43-.14v-1H499V248a5.06,5.06,0,0,0,.72,3.06,2.43,2.43,0,0,0,2,.93,3.77,3.77,0,0,0,2.31-.65,3.48,3.48,0,0,0,1.21-1.79v-7.22l-1.64-.14v-1h2.92v10.56l1.54.14v1h-2.66Z"/><path class="cls-6" d="M509.71,252l1.74-.14v-9.46l-1.74-.14v-1h2.87l.12,2a4.08,4.08,0,0,1,1.49-1.66,4.17,4.17,0,0,1,2.23-.59,3.53,3.53,0,0,1,2.86,1.16,5.54,5.54,0,0,1,1,3.61v6L522,252v1h-4.75v-1l1.73-.14v-6a4.21,4.21,0,0,0-.74-2.83,2.67,2.67,0,0,0-2.1-.83,3.25,3.25,0,0,0-2.19.72,4,4,0,0,0-1.22,1.9v7l1.73.14v1h-4.75Z"/><path class="cls-6" d="M526.93,238.27v3h2.54v1.05h-2.54v7.6a2.52,2.52,0,0,0,.41,1.62,1.41,1.41,0,0,0,1.09.48,6.08,6.08,0,0,0,.61,0l.67-.09.2,1a3.14,3.14,0,0,1-.78.22,5.72,5.72,0,0,1-.92.08,2.37,2.37,0,0,1-1.89-.78,3.69,3.69,0,0,1-.68-2.45v-7.6h-2v-1.05h2v-3Z"/><path class="cls-6" d="M536.9,253.13a4.65,4.65,0,0,1-3.61-1.61,6,6,0,0,1-1.42-4.1v-.59a6.11,6.11,0,0,1,1.42-4.15,4.38,4.38,0,0,1,3.44-1.65,4.26,4.26,0,0,1,3.33,1.36,5.22,5.22,0,0,1,1.22,3.62v1.1h-8.15v.31a5.22,5.22,0,0,0,1,3.29A3.32,3.32,0,0,0,536.9,252a5.34,5.34,0,0,0,2-.34,4.07,4.07,0,0,0,1.44-.95l.54.88a4.58,4.58,0,0,1-1.64,1.09A6.23,6.23,0,0,1,536.9,253.13Zm-.17-11a3.09,3.09,0,0,0-2.38,1.09,4.77,4.77,0,0,0-1.12,2.74l0,.06H540v-.32a3.77,3.77,0,0,0-.89-2.55A3,3,0,0,0,536.73,242.13Z"/><path class="cls-6" d="M545.41,252.38a4.89,4.89,0,0,1-.4,1.94,4.82,4.82,0,0,1-1.09,1.61l-.76-.56a5.65,5.65,0,0,0,.74-1.41,4.82,4.82,0,0,0,.24-1.56v-1.53h1.27Z"/><path class="cls-6" d="M552.81,252l1.73-.14v-9.46l-1.73-.14v-1h2.86l.12,2a4,4,0,0,1,3.73-2.25,3.56,3.56,0,0,1,2.86,1.16,5.54,5.54,0,0,1,1,3.61v6l1.73.14v1h-4.75v-1l1.74-.14v-6a4.27,4.27,0,0,0-.74-2.83,2.7,2.7,0,0,0-2.11-.83,3.28,3.28,0,0,0-2.19.72,4,4,0,0,0-1.22,1.9v7l1.74.14v1h-4.75Z"/><path class="cls-6" d="M575.06,252.9a9.28,9.28,0,0,1-.18-1,6.4,6.4,0,0,1-.06-.88,5,5,0,0,1-1.7,1.52,4.81,4.81,0,0,1-2.4.61,3.65,3.65,0,0,1-2.62-.89,3.13,3.13,0,0,1-.93-2.39,3,3,0,0,1,1.38-2.56,6.48,6.48,0,0,1,3.73-.95h2.54V244.8a2.5,2.5,0,0,0-.79-2,3.23,3.23,0,0,0-2.22-.71,5.75,5.75,0,0,0-1.76.26,4,4,0,0,0-1.32.72l-.11,1.56h-1v-2.24a6.78,6.78,0,0,1,1.91-1,7.1,7.1,0,0,1,2.37-.39,4.63,4.63,0,0,1,3.07,1,3.49,3.49,0,0,1,1.16,2.81v5.73c0,.24,0,.47,0,.69a4.48,4.48,0,0,0,.07.64l1.15.07v1Zm.45-16.14a2.21,2.21,0,0,1-.58,1.57,1.91,1.91,0,0,1-1.46.62,2.72,2.72,0,0,1-1.61-.59,2.59,2.59,0,0,0-1.4-.59,1.1,1.1,0,0,0-.84.38,1.36,1.36,0,0,0-.34,1l-.84-.2a2.21,2.21,0,0,1,.57-1.55,1.86,1.86,0,0,1,1.45-.63,2.88,2.88,0,0,1,1.58.59,2.82,2.82,0,0,0,1.43.59,1.08,1.08,0,0,0,.84-.39,1.42,1.42,0,0,0,.35-1ZM570.86,252a4.61,4.61,0,0,0,2.44-.64,3.81,3.81,0,0,0,1.52-1.67v-2.34h-2.57a4.71,4.71,0,0,0-2.77.73,2.18,2.18,0,0,0-1,1.84,1.94,1.94,0,0,0,.64,1.51A2.59,2.59,0,0,0,570.86,252Z"/><path class="cls-6" d="M579.14,246.9a6.31,6.31,0,0,1,1.39-4.22,5,5,0,0,1,7.41,0,6.32,6.32,0,0,1,1.4,4.22v.36a6.33,6.33,0,0,1-1.39,4.22,5,5,0,0,1-7.42,0,6.28,6.28,0,0,1-1.39-4.22Zm1.28.36a5.55,5.55,0,0,0,1,3.4,3.3,3.3,0,0,0,2.82,1.38,3.26,3.26,0,0,0,2.79-1.38,5.55,5.55,0,0,0,1-3.4v-.36a5.56,5.56,0,0,0-1-3.38,3.53,3.53,0,0,0-5.61,0,5.55,5.55,0,0,0-1,3.38Z"/><path class="cls-6" d="M593.27,252.38a4.89,4.89,0,0,1-.4,1.94,4.82,4.82,0,0,1-1.09,1.61l-.76-.56a6,6,0,0,0,.74-1.41,4.82,4.82,0,0,0,.24-1.56v-1.53h1.27Z"/><path class="cls-6" d="M600.66,252l1.74-.14v-9.46l-1.74-.14v-1h2.87l.12,2a4.17,4.17,0,0,1,1.5-1.66,4.12,4.12,0,0,1,2.23-.59,3.52,3.52,0,0,1,2.85,1.16,5.48,5.48,0,0,1,1,3.61v6L613,252v1H608.2v-1l1.74-.14v-6a4.27,4.27,0,0,0-.74-2.83,2.7,2.7,0,0,0-2.11-.83,3.27,3.27,0,0,0-2.19.72,4,4,0,0,0-1.22,1.9v7l1.74.14v1h-4.76Z"/><path class="cls-6" d="M622.92,252.9c-.09-.4-.15-.74-.19-1a8.49,8.49,0,0,1-.05-.88,5.11,5.11,0,0,1-1.7,1.52,4.84,4.84,0,0,1-2.4.61,3.63,3.63,0,0,1-2.62-.89,3.13,3.13,0,0,1-.93-2.39,3,3,0,0,1,1.37-2.56,6.5,6.5,0,0,1,3.73-.95h2.55V244.8a2.5,2.5,0,0,0-.79-2,3.23,3.23,0,0,0-2.22-.71,5.75,5.75,0,0,0-1.76.26,4.12,4.12,0,0,0-1.33.72l-.1,1.56h-1.06v-2.24a6.84,6.84,0,0,1,1.92-1,7.1,7.1,0,0,1,2.37-.39,4.63,4.63,0,0,1,3.07,1,3.49,3.49,0,0,1,1.16,2.81v5.73c0,.24,0,.47,0,.69s0,.43.07.64l1.15.07v1Zm.45-16.14a2.21,2.21,0,0,1-.58,1.57,1.91,1.91,0,0,1-1.46.62,2.69,2.69,0,0,1-1.61-.59,2.59,2.59,0,0,0-1.4-.59,1.1,1.1,0,0,0-.84.38,1.36,1.36,0,0,0-.34,1l-.84-.2a2.21,2.21,0,0,1,.57-1.55,1.86,1.86,0,0,1,1.45-.63,2.85,2.85,0,0,1,1.57.59,2.88,2.88,0,0,0,1.44.59,1.11,1.11,0,0,0,.84-.39,1.42,1.42,0,0,0,.35-1ZM618.72,252a4.61,4.61,0,0,0,2.44-.64,3.81,3.81,0,0,0,1.52-1.67v-2.34h-2.57a4.69,4.69,0,0,0-2.77.73,2.15,2.15,0,0,0-1,1.84,1.94,1.94,0,0,0,.64,1.51A2.59,2.59,0,0,0,618.72,252Z"/><path class="cls-6" d="M627,246.9a6.31,6.31,0,0,1,1.39-4.22,5,5,0,0,1,7.41,0,6.32,6.32,0,0,1,1.4,4.22v.36a6.28,6.28,0,0,1-1.4,4.22,4.57,4.57,0,0,1-3.69,1.65,4.63,4.63,0,0,1-3.72-1.65,6.28,6.28,0,0,1-1.39-4.22Zm1.28.36a5.55,5.55,0,0,0,1,3.4,3.54,3.54,0,0,0,5.61,0,5.55,5.55,0,0,0,1-3.4v-.36a5.56,5.56,0,0,0-1-3.38,3.53,3.53,0,0,0-5.61,0,5.55,5.55,0,0,0-1,3.38Z"/><path class="cls-6" d="M653,244.84H651.9l-.15-1.64a3.22,3.22,0,0,0-1.21-.79,4.55,4.55,0,0,0-1.68-.28,3.07,3.07,0,0,0-2.09.61,1.84,1.84,0,0,0-.7,1.43,1.69,1.69,0,0,0,.6,1.33,6,6,0,0,0,2.41.93,8,8,0,0,1,3.08,1.26,2.64,2.64,0,0,1,1,2.18,2.84,2.84,0,0,1-1.17,2.36,4.9,4.9,0,0,1-3.08.9,7.16,7.16,0,0,1-2.33-.37,5.45,5.45,0,0,1-1.82-1V249.4h1l.18,1.66a3.06,3.06,0,0,0,1.29.75,5.91,5.91,0,0,0,1.64.23,3.49,3.49,0,0,0,2.18-.62,1.82,1.82,0,0,0,.8-1.48,1.89,1.89,0,0,0-.66-1.43,5.43,5.43,0,0,0-2.41-1,8,8,0,0,1-3.05-1.2,2.47,2.47,0,0,1-1-2.09,2.85,2.85,0,0,1,1.12-2.26,4.52,4.52,0,0,1,3-.92,6.38,6.38,0,0,1,2.32.4,4.57,4.57,0,0,1,1.71,1.06Z"/><path class="cls-6" d="M660.59,253.13a4.65,4.65,0,0,1-3.61-1.61,6,6,0,0,1-1.42-4.1v-.59a6.11,6.11,0,0,1,1.42-4.15,4.38,4.38,0,0,1,3.44-1.65,4.26,4.26,0,0,1,3.33,1.36A5.22,5.22,0,0,1,665,246v1.1h-8.15v.31a5.22,5.22,0,0,0,1,3.29,3.32,3.32,0,0,0,2.73,1.33,5.34,5.34,0,0,0,2-.34,4.07,4.07,0,0,0,1.44-.95l.54.88a4.58,4.58,0,0,1-1.64,1.09A6.23,6.23,0,0,1,660.59,253.13Zm-.17-11a3.09,3.09,0,0,0-2.38,1.09,4.77,4.77,0,0,0-1.12,2.74l0,.06h6.76v-.32a3.77,3.77,0,0,0-.89-2.55A3,3,0,0,0,660.42,242.13Z"/><path class="cls-6" d="M667.16,252l1.74-.14v-9.46l-1.74-.14v-1h3v10.56l1.73.14v1h-4.74Zm3-14H668.9V236.1h1.27Z"/><path class="cls-6" d="M679.35,246.9a6.32,6.32,0,0,1,1.4-4.22,5,5,0,0,1,7.4,0,6.32,6.32,0,0,1,1.4,4.22v.36a6.28,6.28,0,0,1-1.39,4.22,5,5,0,0,1-7.41,0,6.28,6.28,0,0,1-1.4-4.22Zm1.28.36a5.62,5.62,0,0,0,1,3.4,3.32,3.32,0,0,0,2.83,1.38,3.28,3.28,0,0,0,2.79-1.38,5.62,5.62,0,0,0,1-3.4v-.36a5.56,5.56,0,0,0-1-3.38,3.53,3.53,0,0,0-5.61,0,5.62,5.62,0,0,0-1,3.38Z"/><path class="cls-6" d="M696.93,247.17a7.63,7.63,0,0,1,1.17-4.46,3.74,3.74,0,0,1,3.26-1.68,3.91,3.91,0,0,1,3.53,1.94l.13-1.72h1.12v15l1.74.14v1h-4.75v-1l1.73-.14v-4.91a3.9,3.9,0,0,1-1.47,1.3,4.47,4.47,0,0,1-2.06.46,3.8,3.8,0,0,1-3.23-1.57,6.78,6.78,0,0,1-1.17-4.16Zm1.29.23a6,6,0,0,0,.84,3.37,2.81,2.81,0,0,0,2.52,1.27,3.47,3.47,0,0,0,2-.55,3.64,3.64,0,0,0,1.27-1.49v-5.68a4.11,4.11,0,0,0-1.24-1.57,3.2,3.2,0,0,0-2-.62,2.77,2.77,0,0,0-2.53,1.41,7,7,0,0,0-.85,3.63Z"/><path class="cls-6" d="M717.6,251a4,4,0,0,1-1.49,1.59,4.31,4.31,0,0,1-2.22.56,3.48,3.48,0,0,1-2.85-1.25,6,6,0,0,1-1-3.88v-5.65l-1.43-.14v-1h2.7V248a5.06,5.06,0,0,0,.72,3.06,2.43,2.43,0,0,0,2,.93,3.79,3.79,0,0,0,2.31-.65,3.41,3.41,0,0,0,1.2-1.79v-7.22l-1.64-.14v-1h2.92v10.56l1.55.14v1h-2.67Z"/><path class="cls-6" d="M727.34,253.13a4.61,4.61,0,0,1-3.6-1.61,5.92,5.92,0,0,1-1.43-4.1v-.59a6.11,6.11,0,0,1,1.42-4.15,4.38,4.38,0,0,1,3.44-1.65,4.26,4.26,0,0,1,3.33,1.36,5.22,5.22,0,0,1,1.22,3.62v1.1h-8.14v.31a5.16,5.16,0,0,0,1,3.29,3.29,3.29,0,0,0,2.72,1.33,5.3,5.3,0,0,0,2-.34,4.07,4.07,0,0,0,1.44-.95l.54.88a4.58,4.58,0,0,1-1.64,1.09A6.23,6.23,0,0,1,727.34,253.13Zm-.17-11a3.06,3.06,0,0,0-2.37,1.09,4.72,4.72,0,0,0-1.13,2.74l0,.06h6.76v-.32a3.77,3.77,0,0,0-.89-2.55A3,3,0,0,0,727.17,242.13Z"/><path class="cls-6" d="M744.39,253.13a4.61,4.61,0,0,1-3.6-1.61,5.92,5.92,0,0,1-1.43-4.1v-.59a6.11,6.11,0,0,1,1.42-4.15,4.38,4.38,0,0,1,3.44-1.65,4.26,4.26,0,0,1,3.33,1.36,5.22,5.22,0,0,1,1.22,3.62v1.1h-8.14v.31a5.16,5.16,0,0,0,1,3.29,3.29,3.29,0,0,0,2.72,1.33,5.3,5.3,0,0,0,2-.34,4.07,4.07,0,0,0,1.44-.95l.54.88a4.58,4.58,0,0,1-1.64,1.09A6.23,6.23,0,0,1,744.39,253.13Zm-.17-11a3.06,3.06,0,0,0-2.37,1.09,4.72,4.72,0,0,0-1.13,2.74l0,.06h6.76v-.32a3.77,3.77,0,0,0-.89-2.55A3,3,0,0,0,744.22,242.13Zm1.2-5.33H747l0,.07-2.65,2.8h-1.14Z"/><path class="cls-6" d="M417.62,277.45a3.92,3.92,0,0,1-1.49,1.58,4.31,4.31,0,0,1-2.22.56,3.48,3.48,0,0,1-2.85-1.25,6,6,0,0,1-1-3.88v-5.65l-1.43-.14v-1h2.7v6.78a5,5,0,0,0,.72,3.05,2.43,2.43,0,0,0,2,.93,3.79,3.79,0,0,0,2.31-.65,3.45,3.45,0,0,0,1.21-1.78v-7.23l-1.65-.14v-1h2.92v10.57l1.55.14v.94h-2.66Z"/><path class="cls-6" d="M422,268.67v-1h2.86l.12,1.93a4,4,0,0,1,1.48-1.58,4.15,4.15,0,0,1,2.21-.56,3.31,3.31,0,0,1,3.47,2.64,4.58,4.58,0,0,1,1.49-1.94,3.87,3.87,0,0,1,2.35-.7,3.45,3.45,0,0,1,2.85,1.24,6,6,0,0,1,1,3.83v5.7l1.73.15v.94h-4.76v-.94l1.74-.15v-5.72a4.74,4.74,0,0,0-.75-3,2.59,2.59,0,0,0-2.1-.89,2.81,2.81,0,0,0-2.29,1,4.58,4.58,0,0,0-1,2.44.81.81,0,0,0,0,.16v6.1l1.74.14v.94H429.4v-.94l1.74-.14v-5.73a4.69,4.69,0,0,0-.76-3,2.58,2.58,0,0,0-2.09-.91,3.18,3.18,0,0,0-2.16.69,3.8,3.8,0,0,0-1.12,1.87v7.1l1.74.14v.94H422v-.94l1.73-.14v-9.47Z"/><path class="cls-6" d="M453.38,278.5a3.6,3.6,0,0,0,2.24-.73,2.43,2.43,0,0,0,1-2h1.13l0,.06a3.22,3.22,0,0,1-1.27,2.7,4.73,4.73,0,0,1-3.09,1.09,4.36,4.36,0,0,1-3.63-1.63,6.58,6.58,0,0,1-1.29-4.2v-.45a6.58,6.58,0,0,1,1.29-4.18,4.34,4.34,0,0,1,3.62-1.63,5.91,5.91,0,0,1,2.44.5,4.82,4.82,0,0,1,1.8,1.38l.06,2.54h-1.09l-.2-2.06a3.62,3.62,0,0,0-1.28-.92,4.14,4.14,0,0,0-1.73-.34,3,3,0,0,0-2.74,1.34,5.91,5.91,0,0,0-.89,3.37v.45a6.06,6.06,0,0,0,.88,3.41A3.07,3.07,0,0,0,453.38,278.5Z"/><path class="cls-6" d="M460.12,273.37a6.28,6.28,0,0,1,1.39-4.22,5,5,0,0,1,7.41,0,6.28,6.28,0,0,1,1.39,4.22v.35a6.32,6.32,0,0,1-1.39,4.23,4.59,4.59,0,0,1-3.69,1.64,4.65,4.65,0,0,1-3.72-1.64,6.32,6.32,0,0,1-1.39-4.23Zm1.27.35a5.53,5.53,0,0,0,1,3.4,3.54,3.54,0,0,0,5.61,0,5.53,5.53,0,0,0,1-3.4v-.35a5.54,5.54,0,0,0-1-3.38,3.53,3.53,0,0,0-5.61,0,5.54,5.54,0,0,0-1,3.38Z"/><path class="cls-6" d="M472.12,268.67v-1H475l.12,1.93a4,4,0,0,1,1.48-1.58,4.13,4.13,0,0,1,2.21-.56,3.57,3.57,0,0,1,2.2.65,3.62,3.62,0,0,1,1.27,2,4.5,4.5,0,0,1,1.49-1.94,3.85,3.85,0,0,1,2.35-.7,3.45,3.45,0,0,1,2.85,1.24,6,6,0,0,1,1,3.83v5.7l1.74.15v.94h-4.76v-.94l1.74-.15v-5.72a4.74,4.74,0,0,0-.76-3,2.57,2.57,0,0,0-2.09-.89,2.83,2.83,0,0,0-2.3,1,4.57,4.57,0,0,0-1,2.44v.16a1.15,1.15,0,0,1,0,.2v5.9l1.73.14v.94h-4.75v-.94l1.74-.14v-5.73a4.75,4.75,0,0,0-.76-3,2.59,2.59,0,0,0-2.1-.91,3.18,3.18,0,0,0-2.16.69,3.71,3.71,0,0,0-1.11,1.87v7.1l1.74.14v.94h-4.75v-.94l1.73-.14v-9.47Z"/><path class="cls-6" d="M492.93,268.67v-1h2.8l.16,1.81a4.2,4.2,0,0,1,1.5-1.49,4.08,4.08,0,0,1,2.13-.53,3.75,3.75,0,0,1,3.25,1.67,7.68,7.68,0,0,1,1.18,4.47v.22a6.75,6.75,0,0,1-1.18,4.17,3.81,3.81,0,0,1-3.23,1.56,4.63,4.63,0,0,1-2.12-.47,3.89,3.89,0,0,1-1.49-1.33v5l1.74.14v.95h-4.74v-.95l1.73-.14V268.81Zm9.74,5a6.67,6.67,0,0,0-.88-3.62,2.81,2.81,0,0,0-2.55-1.4,3.32,3.32,0,0,0-2.1.62,3.84,3.84,0,0,0-1.21,1.61v5.6a3.45,3.45,0,0,0,1.27,1.5,3.59,3.59,0,0,0,2.06.55,2.88,2.88,0,0,0,2.54-1.27,5.87,5.87,0,0,0,.87-3.37Z"/><path class="cls-6" d="M514.5,277.45A4,4,0,0,1,513,279a4.31,4.31,0,0,1-2.22.56,3.48,3.48,0,0,1-2.85-1.25,6,6,0,0,1-1-3.88v-5.65l-1.43-.14v-1h2.7v6.78a5,5,0,0,0,.72,3.05,2.43,2.43,0,0,0,2,.93,3.74,3.74,0,0,0,2.3-.65,3.34,3.34,0,0,0,1.21-1.78v-7.23l-1.64-.14v-1h2.92v10.57l1.55.14v.94h-2.67Z"/><path class="cls-6" d="M522.08,264.73v3h2.54v1.06h-2.54v7.59a2.52,2.52,0,0,0,.41,1.62,1.38,1.38,0,0,0,1.1.48l.6,0c.19,0,.42-.05.68-.09l.19,1a3.66,3.66,0,0,1-.78.21,4.77,4.77,0,0,1-.92.08,2.39,2.39,0,0,1-1.89-.77,3.71,3.71,0,0,1-.68-2.46v-7.59h-2v-1.06h2v-3Z"/><path class="cls-6" d="M534.92,279.36q-.12-.58-.18-1a8.46,8.46,0,0,1,0-.87A5.22,5.22,0,0,1,533,279a4.83,4.83,0,0,1-2.4.6,3.63,3.63,0,0,1-2.62-.88,3.15,3.15,0,0,1-.93-2.39,3,3,0,0,1,1.37-2.57,6.5,6.5,0,0,1,3.73-.94h2.55v-1.54a2.48,2.48,0,0,0-.79-2,3.2,3.2,0,0,0-2.23-.71,5.44,5.44,0,0,0-1.75.26,3.93,3.93,0,0,0-1.33.72l-.1,1.56h-1.06V268.9a6.61,6.61,0,0,1,1.92-1,7.36,7.36,0,0,1,2.37-.38,4.58,4.58,0,0,1,3.07,1,3.48,3.48,0,0,1,1.16,2.81V277c0,.23,0,.46,0,.68s0,.43.07.64l1.15.08v.94Zm-4.19-.91a4.61,4.61,0,0,0,2.44-.65,3.75,3.75,0,0,0,1.52-1.67V273.8h-2.57a4.76,4.76,0,0,0-2.77.72,2.17,2.17,0,0,0-1,1.84,1.92,1.92,0,0,0,.64,1.51A2.54,2.54,0,0,0,530.73,278.45Z"/><path class="cls-6" d="M547,277.68a4,4,0,0,1-1.48,1.41,4.41,4.41,0,0,1-2.13.5,3.82,3.82,0,0,1-3.24-1.56,6.85,6.85,0,0,1-1.16-4.17v-.22a7.76,7.76,0,0,1,1.16-4.47,3.77,3.77,0,0,1,3.26-1.67,4.12,4.12,0,0,1,2.09.51,4.19,4.19,0,0,1,1.47,1.46v-5.81l-1.74-.14v-.95h3v15.71l1.73.14v.94h-2.87Zm-6.72-3.82a5.93,5.93,0,0,0,.83,3.36,2.84,2.84,0,0,0,2.52,1.25,3.59,3.59,0,0,0,2.05-.56,3.76,3.76,0,0,0,1.29-1.54v-5.51a4.16,4.16,0,0,0-1.23-1.62,3.35,3.35,0,0,0-2.09-.62,2.77,2.77,0,0,0-2.53,1.39,7,7,0,0,0-.84,3.63Z"/><path class="cls-6" d="M552,273.37a6.28,6.28,0,0,1,1.4-4.22,5,5,0,0,1,7.41,0,6.28,6.28,0,0,1,1.39,4.22v.35a6.32,6.32,0,0,1-1.39,4.23,5,5,0,0,1-7.41,0,6.33,6.33,0,0,1-1.4-4.23Zm1.28.35a5.53,5.53,0,0,0,1,3.4,3.54,3.54,0,0,0,5.61,0,5.53,5.53,0,0,0,1-3.4v-.35a5.6,5.6,0,0,0-1-3.38,3.29,3.29,0,0,0-2.81-1.39,3.25,3.25,0,0,0-2.8,1.39,5.54,5.54,0,0,0-1,3.38Z"/><path class="cls-6" d="M567,267.71l.16,1.94v.14a4,4,0,0,1,1.34-1.68,3.31,3.31,0,0,1,2-.61,2.42,2.42,0,0,1,.47,0,2.49,2.49,0,0,1,.38.08l-.17,1.2-1-.06a2.92,2.92,0,0,0-2,.68,3.82,3.82,0,0,0-1.1,1.88v7l1.74.14v.94h-4.74v-.94l1.73-.14v-9.47l-1.73-.14v-1H567Z"/><path class="cls-6" d="M573.67,279.36h-1.46V277.6h1.46Z"/><g class="cls-7"><path class="cls-2" d="M159.47,149.41A11,11,0,0,1,167.3,153a18.72,18.72,0,0,1,4.74-.62,17.29,17.29,0,0,1,12.86,5.84c14.12,5.3,8.52,13.82,8.19,14.29l.15,0s8.29,5.79,5.45,8.63c0,0,5.12,6.35,1,9.76a4.54,4.54,0,0,1-1.48.74c11.61,18.1,18.54,50,14,76.37-.91,5.22-6.87,9-22.93,9h0a85,85,0,0,1-15.53-1.38c.15,1.23.32,2.56.51,3.89h0c.8,5.74,2,12.26,3.26,13.22,8.19,6.15,20.4,8.7,27.27,9.69l9.94.93a24.85,24.85,0,0,1,2.2,2.51H217c3,0,5.35,3.27,5.35,3.27l39.19,68.6-33.82,60.68s11.35,19.08,5.67,27.71l7.84,7.83s1.25,4.21-4.43,4.21c-1.69,0-4.08-.9-6.58-2.14a431,431,0,0,1,1.57,44.45,43.34,43.34,0,0,0-4.58-.69l0,2.9h0c-.11,20.16-.05,49.29,1.15,55.93,1.88,10.39,0,15.5,0,15.5s5.11,80.85,5.11,81.47,7.16,9.83,7.16,9.83,9.46,7.44,16.82,13.35h0s4.43,1.15,6.16,2.6a6,6,0,0,1,1.86,3.87c.49.33,1.3.88,2.23,1.55a23.73,23.73,0,0,0,6.4,1.2c1,1,0,2.11-1.32,3,.73.79,1.17,1.47,1.05,1.92-.48,1.77-7.33,9-19.72,9-.69,0-1.41,0-2.14-.07-13-.85-31-14.7-32.5-18.56a11.47,11.47,0,0,1,.19-7.78c0-3.29,2-7.23,3.08-9.2,1.7-3.07,2.9-11.75,2.9-11.75-18.74-65.75-8-75-10.05-79.78-1.3-3-12.88-46.07-21.14-77h0l0-.14q-.72-2.68-1.4-5.24a22.6,22.6,0,0,1-4.27-2.53,133.47,133.47,0,0,1-22.49,8.91l-2.38,6-22.32,56s-4.23,15.59-9.26,20.61a220.88,220.88,0,0,1-12.43,35.94c-8.52,19.08-12.26,45.31-12.26,45.31s6.1,15.5,6.81,25.17c7.18,9.83,13.63,22,5.08,25.53a49,49,0,0,1-18.6,3.28c-10.3,0-19.54-2.42-21.69-4.57-3.46-3.46,6.36-29.7,6.36-29.7.31-2.38,1-4.68,2.36-5.66,3.41-2.38,7.5-8.17,7.5-8.17s-1.28-3.41,2.3-8,8.85-34.09,8.85-38-4.77-32.71,11.13-44.06c0,0,1.82-36.88,6.48-63.56h0c.51-3,1.06-5.92,1.65-8.61-4.87.4-7.8.46-7.8.46s4.71-13.16,10.74-30.08c-5.14-.49-1.76-8.48-1.76-8.48a41.8,41.8,0,0,0,6-3.55l2-5.55c-1.7-4.2,2.54-17.24,2.54-17.24L121.93,450,76.56,415.75s36.46-86,37.93-87.44c1-.95,8-5.08,12.86-7.88,5.07-5.07,16-9.1,16-9.1s10.39-11.75,12.6-14,1.19-8.35,1.19-8.35l-5.69-21.85c-10-6.32-14-13.35-14-13.35a5.05,5.05,0,0,1-3.7,1.48c-3.31,0-6.63-2.5-6.63-2.5s-14.42-14.43-9.88-21.24A4.28,4.28,0,0,1,121,229.5c3,0,6.51,2.45,9,4.55-5.11-4.47-7.85-5.07-9-5.07l-.35,0-.08.06-.07,0-.1,0-.06-.11c-1.07-.53-5.89-3.18-6.31-7.67-8.15-2.55-6.58-7.09-6.58-7.09-7.83-5.34,0-13.91,0-13.91-3.49-3.5-.79-8.58-.79-8.58-4.09-5.79,1-12.94,1-12.94.57-6.25,9.93-9.94,9.93-9.94.74-3.12,4.6-4.6,4.6-4.6a6.83,6.83,0,0,1,6.3-3.88c.32,0,.52,0,.52,0,3.39-7.34,16.13-8,20.89-8,1.14,0,1.82,0,1.82,0a12.69,12.69,0,0,1,7.73-3m64,268.33,21-37.91-20-29.72c.53,8.53.86,17.31.77,25.56A332.48,332.48,0,0,1,222.37,416a2.77,2.77,0,0,1,1.14,1.76M146.65,446c2-5.82,3.8-10.91,5.13-14.8-2.1-4.22,1.19-6.12,2.19-6.58.11-.38.21-.69.27-.91,2-7.5-17.21-44.26-17.21-44.26l-16.25-10.18L98,412.1l36.42,25.37L146.65,446M264.94,704.88h0M159.47,143.41h0a17.77,17.77,0,0,0-9.54,2.91h0c-6.92,0-18.53,1.16-24.35,8.33a12.54,12.54,0,0,0-7.58,5,13.85,13.85,0,0,0-4.95,4.71c-3.5,1.81-9.62,5.82-11.07,12.21-2.19,3.69-4.19,9.8-1.85,15.62a13.75,13.75,0,0,0,.21,7.81,16.08,16.08,0,0,0-2.27,9.73A12.54,12.54,0,0,0,101.5,217a10.67,10.67,0,0,0,1,2.76,13.58,13.58,0,0,0,6.61,6,14.94,14.94,0,0,0,2.4,3.79c-2.39,4.88-1,11.11,4,18.55a69,69,0,0,0,7.35,8.93l.63.55c.83.62,5.19,3.71,10.25,3.71a11.25,11.25,0,0,0,1.65-.11,53.56,53.56,0,0,0,10.84,9.72l5,19.32a12.88,12.88,0,0,1,0,3.34c-2.41,2.51-8.9,9.8-11.46,12.7-3.33,1.34-11.19,4.79-16.09,9.33-11.82,6.82-12.77,7.77-13.47,8.47-1.16,1.16-1.74,1.74-20.79,46.15-9.2,21.44-18.33,43-18.42,43.19L73,420.54l45.37,34.21L130.6,464c-1.26,4.61-2.39,10.3-1.83,14.56l-.74,2.09c-1.47.91-3,1.7-3.62,2l-3,3.08c-.75,1.77-3,7.9-.21,12.55.1.18.21.35.32.51-5.28,14.82-9.22,25.81-9.22,25.82l5.76,8h.32c-.07.39-.13.78-.2,1.17h0c-4,22.85-5.89,52.48-6.41,61.54C97.66,608,99.7,632.22,100.4,640.46c.06.75.14,1.69.14,2-.09,4.3-5.17,30.36-7.64,34.32a16.25,16.25,0,0,0-3.74,9.93,28.89,28.89,0,0,1-4.71,5c-2.54,1.77-4.1,4.75-4.77,9.1-.67,1.84-2.67,7.4-4.39,13.35-3.72,12.84-3.81,18.61-.37,22.06,4.35,4.35,16.5,6.33,25.94,6.33a55,55,0,0,0,20.91-3.74,12,12,0,0,0,7.28-8c1.74-6.25-1.08-14.31-8.86-25.27-1-8.53-4.94-19.58-6.45-23.63.93-5.73,4.63-26.68,11.57-42.21a231.7,231.7,0,0,0,12.43-35.53c5-6.26,8.57-18.3,9.48-21.56l22.2-55.67,1.32-3.31A141.93,141.93,0,0,0,188,516.82l.6,2.27,0,.15C206,584.34,209,594.3,209.81,596.5c0,.48-.19,1.33-.3,2-1.3,7.74-4.31,25.77,10,76.34a41.07,41.07,0,0,1-2,8.44c-2.32,4.17-3.57,7.77-3.8,11a17.12,17.12,0,0,0,.16,11.07c1.95,5.1,11.44,11.48,14.3,13.32,4.9,3.14,14.45,8.5,23.42,9.09.85.05,1.7.08,2.53.08,14.55,0,24.2-8.59,25.51-13.4a6.53,6.53,0,0,0,.19-2.52,7.19,7.19,0,0,0-1.47-8.22l-4-1.75a20.36,20.36,0,0,1-3.64-.53,11.08,11.08,0,0,0-3.25-4.69,22,22,0,0,0-7.21-3.44c-6.08-4.87-13.27-10.55-15.33-12.17-2.11-2.73-4.45-5.83-5.55-7.39-.27-4.52-1.26-20.59-5-79,.64-2.57,1.47-8.26-.14-17.21-.4-2.17-1.28-11.74-1.06-53.63l4.61-3.3c0-.83.39-17.84-.88-36.45,4.83,0,7.39-2.11,8.69-3.85a9.31,9.31,0,0,0,1.39-8.07l-1.51-2.53-5-5c2.17-9-2.82-20.47-5.85-26.25l32.2-57.77,0-5.9-39.19-68.6-.34-.53a14.84,14.84,0,0,0-7.14-5.3c-.36-.41-.75-.81-1.15-1.21l-3.69-1.73-9.78-.92c-5.85-.85-16.28-3-23.42-7.84a50.42,50.42,0,0,1-1.28-6c2.78.24,5.62.37,8.5.37,6.55,0,26.43,0,28.85-13.94,4.24-24.44-.88-55.53-12.22-76.23,2.31-3.85,1.57-8.6-.63-12.59a7.12,7.12,0,0,0,0-1.22c-.29-3.31-2.61-6.29-5-8.55a13.22,13.22,0,0,0-.38-6.43c-1.45-4.64-5.31-8.3-11.47-10.89A23.16,23.16,0,0,0,172,146.36a23.78,23.78,0,0,0-3,.19,16.39,16.39,0,0,0-9.55-3.14Zm71.23,249c.32-5.1.56-10.75.62-16.68,0-1.54,0-3.14,0-4.79l6.18,9.19-6.81,12.28Zm-124.91,17.8,17.26-32.45,9.41,5.89c1.44,2.82,4.79,9.46,8,16.64,6,13.22,7.45,18.86,7.78,21a10.35,10.35,0,0,0-2.64,4,10.1,10.1,0,0,0-.23,5.91q-.81,2.38-1.83,5.31l-5.74-4-32.06-22.34ZM239.44,675.55Z"/><path class="cls-8" d="M150.66,264.15,157.13,289s1,6.13-1.19,8.35-12.6,14-12.6,14l-5.8,11.42,33.56,19.07,40-10.73L209.94,303s-20.5-1.31-32.45-10.28c-2.35-1.76-4.35-22.26-4.35-22.26Z"/><path class="cls-9" d="M174.25,279.49c-.63-4.58-1.15-9.2-1.15-9.2L150.62,264l1.8,6.92s7,4.59,9.23,5.55A42.59,42.59,0,0,0,174.25,279.49Z"/><path class="cls-8" d="M132,317.77s-16,9.06-17.51,10.54-37.93,87.44-37.93,87.44L121.93,450l15.61,11.78s-4.94,15.16-2,18.05-8.52,8.29-8.52,8.29-4.43,10.45,4.55,8.18S152.65,488,152.65,488l6-33.61-24.25-16.89L98,412.1l22.78-42.84L137,379.44,157,364.88l-14.31-35.66-6.13-13.4Z"/><path class="cls-8" d="M137.43,253.82s13,23.15,51.84,23.16c16.07,0,22-3.75,22.94-9,5.69-32.77-6.42-74.22-23.23-86.87C174.25,170.05,122,212,122,212l11.13,25s-11.36-12.26-15.9-5.45,9.88,21.24,9.88,21.24S133.57,257.68,137.43,253.82Z"/><path class="cls-8" d="M215,306.34c3.86-2,7.32,2.77,7.32,2.77l39.19,68.6-33.82,60.68s11.35,19.08,5.67,27.71l7.84,7.83s1.25,4.21-4.43,4.21-19.08-10-19.08-10l1.56-42.78,25.25-45.53-23.19-34.49-7.25-6.42S207.83,310.15,215,306.34Z"/><path class="cls-8" d="M174.34,498.34l-32.82,82.29s-4.23,15.59-9.26,20.61a220.88,220.88,0,0,1-12.43,35.94c-8.52,19.08-12.26,45.31-12.26,45.31s7.75,19.67,6.81,28.53c0,0,7.41,10.22,4.43,16.1s-14.65,2.38-14.65,2.38-19.5,2.56-22.4-2.3,3.66-17.88,3.66-17.88-.93-10.39,2.47-12.78,7.5-8.17,7.5-8.17-1.28-3.41,2.3-8,8.85-34.09,8.85-38-4.77-32.71,11.13-44.06c0,0,3.86-78.36,14.76-89.26s41.91-17.37,41.91-17.37Z"/><path class="cls-10" d="M174.34,498.34l-10.5,26.31s-14.51,6.48-18.19,7.38c-2.72.67-22.15,6.68-21.5,2.76,2-12.25,4.86-22.28,8.28-25.7,10.91-10.9,41.91-17.37,41.91-17.37Z"/><path class="cls-8" d="M186,486.15s27.48,103.79,29.53,108.56-8.69,14,10.05,79.78c0,0-1.2,8.68-2.9,11.75s-5.62,10.9-.68,13.63,20.95,16.35,27.76,17.54,19.59-4.77,19.59-4.77,6.82-2.55,4.69-4.68c0,0-6.22-.26-8.26-2.3s-25.21-20.27-25.21-20.27-7.16-9.2-7.16-9.83-5.11-81.47-5.11-81.47,1.88-5.11,0-15.5-1-75.86-1-75.86Z"/><path class="cls-10" d="M186,486.15s6.47,24.34,8.39,31.53c.73,2.76,32.77,5,32.77,5l.18-19.93Z"/><path class="cls-11" d="M186,506.71c5.31,10.53,42.67,12.76,45.77,13.74,0,0,1-42.31-5-66.07S186,506.71,186,506.71Z"/><path class="cls-12" d="M140.61,244.51c6.59,2.72.91-9.09.91-9.09s-.62-11.84-4-13.85a48.4,48.4,0,0,1-7.31-6l62.84-43.08s6.36-8.85-8.17-14.31A17.31,17.31,0,0,0,167.3,153s-6.36-7.61-15.56-.62c0,0-18.51-1.08-22.71,8a6.92,6.92,0,0,0-6.82,3.86s-3.86,1.48-4.6,4.6c0,0-9.36,3.69-9.93,9.94,0,0-5.11,7.15-1,12.94,0,0-2.7,5.08.79,8.58,0,0-7.83,8.57,0,13.91,0,0-1.93,5.56,9.54,7.83l3.41,7s3.28-1.49,12.72,7.95Z"/><path class="cls-9" d="M186.37,244.42a1.5,1.5,0,0,1,0-3c2.84,0,10.64-2.5,14.53-3.85-1.27-12.21-9-21.31-13.65-25.72a1.5,1.5,0,1,1,2.07-2.16c5.07,4.84,13.71,15,14.67,28.81l.08,1.13L203,240C201.75,240.46,190.6,244.42,186.37,244.42Z"/><path class="cls-13" d="M168.8,225.69h-.06a1.5,1.5,0,0,1-1.44-1.56c0-.24.29-5.91,4.06-7.92,2.34-1.24,5.31-.78,8.84,1.39a1.5,1.5,0,1,1-1.57,2.56c-1.75-1.08-4.2-2.18-5.86-1.3-1.88,1-2.43,4.31-2.47,5.39A1.5,1.5,0,0,1,168.8,225.69Z"/><path class="cls-13" d="M194.62,215.68a1.51,1.51,0,0,1-1.35-2.15c1.38-2.9,3.15-4.44,5.25-4.58,3.52-.2,6.08,3.65,6.36,4.09a1.5,1.5,0,0,1-2.51,1.63h0c-.47-.72-2.11-2.73-3.56-2.73h-.1c-1.16.07-2.13,1.6-2.73,2.87A1.51,1.51,0,0,1,194.62,215.68Z"/><path class="cls-14" d="M166.34,246c-.33-.5,24.25,5.77,35,.39,0,0-1.37,19.28-10.22,19.9C182,266.91,172.47,261.69,166.34,246Z"/><g class="cls-15"><path class="cls-16" d="M164.2,248.69s22.18,10.65,34.31,2.07l-.49-4.94-34.56-3.56Z"/><path class="cls-17" d="M166.84,257.94s8.73-6,19.84.91-2.32,13.55-2.32,13.55Z"/></g><path class="cls-9" d="M188.65,267.33c-15.82,0-23.17-20.78-23.25-21l-.58-1.7,1.74.4c.23,0,23.07,5.11,34.36.44a1,1,0,1,1,.76,1.85c-10.06,4.17-27.92,1.18-33.72,0,2.29,5.29,10.4,21,24.9,17.45a1,1,0,0,1,.47,1.95A19.64,19.64,0,0,1,188.65,267.33Z"/><path class="cls-9" d="M132.6,251.21s-.34-14.91-11.83-18.48"/><path class="cls-9" d="M120.78,369.26s9.83-13.17,8.53-11.17c-7.19,11.13,18.41,24,24.42,17.12,0,0-6,7.61-16.7,4.23Z"/><path class="cls-18" d="M143.34,311.33s-10.92,4-16,9.1c0,0,30.58,44.35,9.68,59,0,0,19.25,36.76,17.21,44.26S118,526.64,118,526.64s105.6-1.88,109.37-70.92l-5-39.74a332.48,332.48,0,0,0,2.95-40.31c.22-19.4-1.9-41.69-3.46-56.9a24.59,24.59,0,0,0-7.16-15.44l-9.95-.93s7.85,26.31-10.31,28.8C184.64,332.54,161.05,335.7,143.34,311.33Z"/><g class="cls-19"><path class="cls-20" d="M121.93,529.22s105.61-1.88,109.37-70.92Z"/></g><path class="cls-18" d="M143.34,311.33s-10.92,4-16,9.1c0,0,30.58,44.35,9.68,59,0,0,19.25,36.76,17.21,44.26S118,526.64,118,526.64s105.6-1.88,109.37-70.92l-5-39.74a332.48,332.48,0,0,0,2.95-40.31c.22-19.4-1.9-41.69-3.46-56.9a24.59,24.59,0,0,0-7.16-15.44l-9.95-.93s7.85,26.31-10.31,28.8C184.64,332.54,161.05,335.7,143.34,311.33Z"/><path class="cls-8" d="M121.93,450l15.61,11.78s-4.94,15.16-2,18.05-8.52,8.29-8.52,8.29-4.43,10.45,4.55,8.18S152.65,488,152.65,488l5.1-28.51s1.57-5.6-4.8-9.33c-4.92-2.89-18.53-12.66-18.53-12.66Z"/><path class="cls-21" d="M151.89,431.42s55.68,7.41,71.13-10.3c0,0,1.68-3.5-.65-5.14.33,3.27-26.15,17.53-68.13,8.51C154.24,424.49,149.17,426.31,151.89,431.42Z"/><circle class="cls-22" cx="198.14" cy="428.74" r="12.99"/><g class="cls-23"><path class="cls-24" d="M136.47,177.51s-5.57,6.76,1.5,11.27c2.48,1.58-7.32,9.2-7.32,9.2l-4,22.23s5.11-2.06,8.52-2.06l17.92,20.54-11.5,7.18L105,221.15,80.54,174,112,145.43l34.41-8-6.05,12s-14.6,8.92-9,15.35C127.83,167.22,127.15,176.86,136.47,177.51Z"/></g><path class="cls-6" d="M120.57,229.06s-6.59-2.95-6.59-8.4,25.66-57,79.26-48.15c0,0,8.29,5.79,5.45,8.63,0,0,5.12,6.35,1,9.76S175.76,189.31,120.57,229.06Z"/><path class="cls-25" d="M123.46,217s34.3-41.79,71-36.34C194.44,180.69,160.26,182.52,123.46,217Z"/><path class="cls-26" d="M199.54,438.86c-1.92,0-6-.38-8.71-3.37-2.33-2.59-3-6.41-1.9-11.34a1.5,1.5,0,1,1,2.93.63c-.85,3.94-.44,6.87,1.2,8.71,2.47,2.75,7.18,2.35,7.23,2.34a1.5,1.5,0,1,1,.31,3C200.54,438.82,200.15,438.86,199.54,438.86Z"/><path class="cls-27" d="M206,434.46a1.24,1.24,0,0,1-.33,0,1.5,1.5,0,0,1-1.14-1.79c.87-3.92.49-6.85-1.14-8.7-2.47-2.8-7.18-2.4-7.23-2.39a1.52,1.52,0,0,1-1.63-1.35,1.5,1.5,0,0,1,1.34-1.64c.26,0,6.26-.56,9.76,3.38,2.3,2.61,2.92,6.43,1.83,11.35A1.49,1.49,0,0,1,206,434.46Z"/><path class="cls-13" d="M165.71,212.6c.75-2.58,3-4.31,5-5.87,1.52-1.15,0-3.76-1.52-2.59-2.72,2.05-5.42,4.26-6.4,7.66a1.5,1.5,0,0,0,2.89.8Z"/><path class="cls-13" d="M193.64,200.89a5.47,5.47,0,0,1,4.52,1.59c1.38,1.36,3.5-.76,2.12-2.12a8.66,8.66,0,0,0-7.44-2.36,1.5,1.5,0,0,0-1,1.84,1.53,1.53,0,0,0,1.84,1Z"/></g></svg>