<svg xmlns="http://www.w3.org/2000/svg" xmlns:xlink="http://www.w3.org/1999/xlink" viewBox="0 0 848.82 713.99"><defs><style>.cls-1,.cls-18,.cls-24,.cls-26,.cls-28,.cls-29,.cls-30,.cls-34,.cls-35{fill:none;}.cls-2{fill:#eaa000;}.cls-3{fill:#97d8dd;}.cls-4{fill:#027e8f;}.cls-5{fill:#65c4d1;}.cls-6{fill:#ffd478;}.cls-7{clip-path:url(#clip-path);}.cls-8{fill:#b7b7b7;}.cls-9{fill:#eac2a7;}.cls-10{fill:#d6aa8b;}.cls-11{fill:#d6d6d6;}.cls-12{clip-path:url(#clip-path-2);}.cls-13{fill:#c99f4b;}.cls-14{fill:#493e38;}.cls-15{clip-path:url(#clip-path-3);}.cls-16{fill:#fcfcfc;}.cls-17{fill:#d32222;}.cls-18,.cls-24{stroke:#c9a68f;}.cls-18,.cls-24,.cls-26,.cls-28,.cls-30,.cls-34,.cls-35{stroke-linecap:round;}.cls-18,.cls-24,.cls-26,.cls-29,.cls-34,.cls-35{stroke-miterlimit:10;}.cls-18,.cls-28{stroke-width:2px;}.cls-19{fill:#c9a68f;}.cls-20{clip-path:url(#clip-path-4);}.cls-21{fill:#aa7e30;}.cls-22{fill:#fff;}.cls-23{fill:#ddd;}.cls-24,.cls-26,.cls-34,.cls-35{stroke-width:3px;}.cls-25{fill:#6d5f56;}.cls-26{stroke:#6d5f56;}.cls-27{fill:#af9482;}.cls-28{stroke:#eaa000;}.cls-28,.cls-30{stroke-linejoin:round;}.cls-29,.cls-30{stroke:#af9482;}.cls-31{fill:#f4f4f4;}.cls-32{fill:#6d472e;}.cls-33{fill:#c99e32;}.cls-34{stroke:#846829;}.cls-35{stroke:#e8cd95;}</style><clipPath id="clip-path" transform="translate(-1.18)"><path class="cls-1" d="M237.75,489.22s-45.9,31.33-135-4.58c-56-22.55-43.83-246.86-43.83-246.86S124.08,134.9,160.81,137.06c18.94,1.11,70.92-3.93,70.92,33.32,0,10.4,12.68,4.85,18.13,29.06.66,2.92-7.56,32-6.86,35,14.33,61.48,37.2,140.39,37.2,140.39s20.36,73.33,10.18,78.91"/></clipPath><clipPath id="clip-path-2" transform="translate(-1.18)"><path class="cls-1" d="M184.55,507.25c5.57,11,44.68,13.36,47.92,14.39,0,0,1-44.3-5.22-69.19S184.55,507.25,184.55,507.25Z"/></clipPath><clipPath id="clip-path-3" transform="translate(-1.18)"><path class="cls-1" d="M181.61,249.5c-.26-.51,22.11,8.26,32.81,4.46,0,0-3.55,18-11.94,17.51C193.84,271,185.53,265,181.61,249.5Z"/></clipPath><clipPath id="clip-path-4" transform="translate(-1.18)"><path class="cls-1" d="M150.47,235c5.77,4.73,3.67-8.83,3.67-8.83s3-12.06.22-15.09a50.55,50.55,0,0,1-5.52-8.21l20.37-6.46,55.68-17.65s9.07-6.94-3.85-16.82a18.09,18.09,0,0,0-16-10.57s-4.07-9.56-15.4-5.35c0,0-18.23-6.7-25.2,1.13a7.24,7.24,0,0,0-8,1.8s-4.31.31-6,3.22c0,0-10.51.85-13,6.94,0,0-7.3,5.62-5,12.66,0,0-4.24,4.28-1.8,8.84,0,0-10.46,6.21-4.22,13.94,0,0-3.63,5,7.18,10.75l1.28,8.08s3.74-.49,10.33,11.83Z"/></clipPath></defs><title>5</title><g id="Camada_2" data-name="Camada 2"><g id="Camada_1-2" data-name="Camada 1"><path class="cls-2" d="M178.5,157.82c93.46.1,169.21,76.64,169.31,171.09S272,500,178.5,500,9.18,423.4,9.18,328.91,85,157.82,178.5,157.82m0-8h0a174.82,174.82,0,0,0-69,14.08,176.74,176.74,0,0,0-56.37,38.4,180.13,180.13,0,0,0,0,253.22,176.55,176.55,0,0,0,56.37,38.39,176.24,176.24,0,0,0,138.1,0,176.62,176.62,0,0,0,56.36-38.39,180.08,180.08,0,0,0-.06-253.16A176.68,176.68,0,0,0,247.52,164a174.73,174.73,0,0,0-69-14.14Z" transform="translate(-1.18)"/><path class="cls-3" d="M178.49,157.82C85,157.82,9.18,234.42,9.18,328.91S85,500,178.49,500s169.32-76.6,169.32-171.09S272,157.92,178.49,157.82Zm0,330.77c-87.27,0-158-71.49-158-159.68s70.75-159.69,158-159.69,158,71.49,158,159.69S265.73,488.49,178.49,488.59Z" transform="translate(-1.18)"/><path class="cls-3" d="M258.4,204.63a5.59,5.59,0,0,0-7.81,1.66l-9.24,14.34a5.74,5.74,0,0,0-.77,4.37,5.67,5.67,0,0,0,2.57,3.61,76.27,76.27,0,0,1,6.33,4.56c1.27,1,2.54,2,3.53,2.67,1.75,1.45,3.44,3,5.11,4.54l-3.9,4a112.82,112.82,0,0,0-24.74-17.13L241,201a5.73,5.73,0,0,0,.11-4.36,5.61,5.61,0,0,0-3-3.17,146.35,146.35,0,0,0-52-12.52,5.59,5.59,0,0,0-4.08,1.45,5.73,5.73,0,0,0-1.85,3.95l-.87,17.09a5.69,5.69,0,0,0,5.33,6l5.94.3,6.33,1c.81.14,1.63.26,2.44.38,1.22.18,2.44.35,3.51.6l.78.2-1.48,5.59a114.13,114.13,0,0,0-29.89-2.45l-2.93-28.53a5.7,5.7,0,0,0-2.06-3.85,5.62,5.62,0,0,0-4.15-1.24,144.31,144.31,0,0,0-51.28,15.44,5.73,5.73,0,0,0-2.45,7.67l7.7,15.24a5.61,5.61,0,0,0,7.4,2.58c1.13-.53,2.25-1.09,3.38-1.64a57.74,57.74,0,0,1,8.07-3.51l1.44-.54c1.7-.63,3.34-1.25,5-1.81l1.46,5.52c-1.39.48-2.74,1-4.08,1.49l-1.34.51a52,52,0,0,0-8,3.44c-1,.48-1.93,1-3.4,1.66l-9.56,5.57-.65.36-16.64-23.11a5.6,5.6,0,0,0-7.89-1.25,147.55,147.55,0,0,0-36.8,39.11,5.72,5.72,0,0,0,1.65,7.89l14.19,9.34a5.63,5.63,0,0,0,7.9-1.82,74.64,74.64,0,0,1,4.49-6.38c1-1.29,2-2.59,2.65-3.59,1.45-1.77,3-3.47,4.51-5.16l3.9,4a113.35,113.35,0,0,0-17,25L52,265.73a5.63,5.63,0,0,0-7.46,2.89,150.47,150.47,0,0,0-12.38,52.56,5.68,5.68,0,0,0,5.35,6l16.91.88a5.56,5.56,0,0,0,4.07-1.44,5.71,5.71,0,0,0,1.85-3.94l.3-6,1-6.39c.15-.82.26-1.65.38-2.48.17-1.23.34-2.47.59-3.53l.19-.79,5.54,1.5a116.84,116.84,0,0,0-2.43,30.2l-28.24,3a5.69,5.69,0,0,0-5,6.27,149.65,149.65,0,0,0,15.28,51.82,5.6,5.6,0,0,0,7.59,2.48l15.07-7.78a5.74,5.74,0,0,0,2.56-7.48c-.52-1.13-1.07-2.25-1.61-3.36a60.45,60.45,0,0,1-3.49-8.2l-.55-1.51c-.63-1.7-1.23-3.35-1.77-5l5.53-1.5a113.68,113.68,0,0,0,12.88,27.3L61.13,408a5.73,5.73,0,0,0-1.24,8,147.36,147.36,0,0,0,38.7,37.19,5.59,5.59,0,0,0,4.25.81,5.65,5.65,0,0,0,3.56-2.47l9.23-14.34a5.74,5.74,0,0,0-1.79-8,72.36,72.36,0,0,1-6.33-4.55c-1.27-1-2.54-2-3.53-2.67-1.76-1.46-3.44-3-5.11-4.55l4-4c1.51,1.39,3.06,2.8,4.94,4.36,1.1.78,2.17,1.61,3.24,2.44a67.64,67.64,0,0,0,6.29,4.48l10.08,5.84.12.06L116,456.78a5.74,5.74,0,0,0,2.86,7.53,146.3,146.3,0,0,0,52,12.52h.29a5.67,5.67,0,0,0,5.63-5.41l.88-17.08a5.68,5.68,0,0,0-5.33-6l-5.94-.3-6.33-1c-.81-.14-1.63-.26-2.44-.37-1.22-.18-2.44-.36-3.51-.6l-.78-.2,1.48-5.59a114.13,114.13,0,0,0,29.89,2.45l2.93,28.53a5.7,5.7,0,0,0,2.06,3.84,5.57,5.57,0,0,0,4.15,1.24,144.29,144.29,0,0,0,51.28-15.43,5.74,5.74,0,0,0,2.46-7.67L239.85,438a5.61,5.61,0,0,0-7.39-2.58c-1.14.53-2.26,1.08-3.39,1.64a58.08,58.08,0,0,1-8.06,3.5l-1.44.55c-1.7.63-3.35,1.25-5,1.8l-1.49-5.59a110.77,110.77,0,0,0,27-13L256.8,447.5a5.61,5.61,0,0,0,7.89,1.26,147.9,147.9,0,0,0,36.81-39.11,5.78,5.78,0,0,0,.79-4.29,5.7,5.7,0,0,0-2.45-3.61l-14.19-9.33a5.61,5.61,0,0,0-7.9,1.82,76.25,76.25,0,0,1-4.49,6.38c-1,1.29-2,2.58-2.65,3.59-1.45,1.77-3,3.47-4.51,5.16l-3.9-3.95a113.58,113.58,0,0,0,16.95-25L305,392.09a5.62,5.62,0,0,0,7.45-2.89,150.31,150.31,0,0,0,12.39-52.56,5.69,5.69,0,0,0-5.35-6l-16.91-.89a5.71,5.71,0,0,0-5.92,5.39l-.3,6-1,6.39c-.15.82-.26,1.65-.38,2.47-.18,1.24-.35,2.47-.59,3.54l-.2.79-5.44-1.47,0-.14c.3-1.33.5-2.68.68-4,.09-.63.17-1.26.3-2l.86-5.61a5.42,5.42,0,0,0,.06-.58l.3-6V322.94l0-.27,28.35-3a5.68,5.68,0,0,0,3.8-2.08,5.8,5.8,0,0,0,1.23-4.19,150,150,0,0,0-15.28-51.82,5.62,5.62,0,0,0-7.59-2.48l-15.08,7.78a5.73,5.73,0,0,0-2.55,7.48c.52,1.13,1.06,2.24,1.6,3.36A58,58,0,0,1,289,286l.55,1.51c.63,1.7,1.24,3.35,1.78,5l-5.53,1.49a113.47,113.47,0,0,0-12.89-27.29l22.93-16.86a5.73,5.73,0,0,0,1.24-8A147.16,147.16,0,0,0,258.4,204.63Zm3.44,56.06a5.74,5.74,0,0,0-1.25,8,102.11,102.11,0,0,1,15.92,33.69,5.65,5.65,0,0,0,6.9,4L299.77,302a5.71,5.71,0,0,0,4.07-6.7,83.35,83.35,0,0,0-3.69-11.78l-.45-1.23a59.68,59.68,0,0,0-3.16-7.73l5-2.6a138.89,138.89,0,0,1,10.94,37l-27.95,2.94a5.67,5.67,0,0,0-5.05,6l.28,5.53v10.91l-.28,5.37-.8,5.24c-.13.75-.23,1.49-.34,2.24-.14,1-.27,2-.46,2.88l-1.41,5.48a5.71,5.71,0,0,0,4,6.95l16.36,4.41a5.61,5.61,0,0,0,4.31-.58,5.68,5.68,0,0,0,2.61-3.5l1.66-6.51c.35-1.52.57-3.06.79-4.61.11-.73.2-1.46.34-2.28l1-7.05.05-.87,5.54.28a139.15,139.15,0,0,1-8.84,37.55L278.7,367.73a5.63,5.63,0,0,0-4.32-.11,5.69,5.69,0,0,0-3.14,3,102.14,102.14,0,0,1-20.92,30.87,5.76,5.76,0,0,0,0,8.06l12,12.1a5.5,5.5,0,0,0,4.15,1.67,5.64,5.64,0,0,0,4.05-1.91c1-1.15,2-2.28,3.06-3.41,2-2.14,3.91-4.29,6-6.86.86-1.22,1.77-2.41,2.67-3.61.63-.83,1.27-1.66,1.89-2.52l4.74,3.12a136.26,136.26,0,0,1-26.3,27.95l-16.55-23a5.6,5.6,0,0,0-7.88-1.26A100.42,100.42,0,0,1,204.77,428a5.63,5.63,0,0,0-3.43,2.65,5.74,5.74,0,0,0-.56,4.33l4.37,16.53a5.64,5.64,0,0,0,6.64,4.1,82.89,82.89,0,0,0,11.7-3.73l1.17-.44a58.84,58.84,0,0,0,7.65-3.2l2.57,5.08a135.29,135.29,0,0,1-36.64,11l-2.9-28.23a5.62,5.62,0,0,0-2-3.84,5.52,5.52,0,0,0-4.13-1.25,102.62,102.62,0,0,1-37-3,5.58,5.58,0,0,0-4.28.57,5.7,5.7,0,0,0-2.63,3.46l-4.38,16.54a5.75,5.75,0,0,0,.58,4.35,5.66,5.66,0,0,0,3.47,2.64l6.43,1.67c1.51.35,3,.58,4.58.81.72.1,1.43.2,2.24.34l7,1.05.87.05-.29,5.6a135.68,135.68,0,0,1-37.16-8.94l11.44-25.92a5.73,5.73,0,0,0-2.7-7.46l-4.69-2.27-9.63-5.59a56,56,0,0,1-5.13-3.7c-1.2-.93-2.4-1.85-3.28-2.45-1.63-1.36-3.18-2.81-4.74-4.25-1.16-1.08-2.33-2.16-3.52-3.21a5.6,5.6,0,0,0-7.7.26l-12,12.1a5.73,5.73,0,0,0,.23,8.29c1.12,1,2.22,2,3.32,3.05,2.14,2,4.29,4,6.84,6.09,1.21.86,2.38,1.77,3.56,2.68.82.64,1.66,1.29,2.52,1.93l-3.09,4.79a135.9,135.9,0,0,1-27.66-26.59l22.72-16.71a5.73,5.73,0,0,0,1.25-8,102.36,102.36,0,0,1-15.92-33.7,5.64,5.64,0,0,0-6.9-4l-16.36,4.42a5.71,5.71,0,0,0-4.07,6.7,84.8,84.8,0,0,0,3.69,11.79l.45,1.22a59.81,59.81,0,0,0,3.16,7.74l-5,2.59a139,139,0,0,1-10.94-37l27.95-2.93a5.68,5.68,0,0,0,5-6.22,105.63,105.63,0,0,1,3-37.35,5.74,5.74,0,0,0-.56-4.33,5.67,5.67,0,0,0-3.44-2.66L60.13,291a5.61,5.61,0,0,0-4.31.59A5.73,5.73,0,0,0,53.2,295l-1.65,6.51c-.35,1.52-.57,3.06-.79,4.61-.11.73-.21,1.46-.34,2.28l-1,7-.05.88-5.54-.29a139.33,139.33,0,0,1,8.84-37.55l25.66,11.56a5.54,5.54,0,0,0,4.32.11,5.6,5.6,0,0,0,3.13-3,102.29,102.29,0,0,1,20.93-30.87,5.75,5.75,0,0,0,0-8.05l-12-12.1a5.59,5.59,0,0,0-8.2.24c-1,1.15-2,2.27-3.06,3.4-2,2.15-3.91,4.3-6,6.86-.87,1.22-1.77,2.42-2.67,3.61-.63.83-1.27,1.67-1.89,2.53l-4.75-3.12a136.07,136.07,0,0,1,26.31-28l16.55,23a5.6,5.6,0,0,0,7.89,1.25l1.31-1A18.68,18.68,0,0,1,123,243l9.23-5.41c1.09-.5,2.16-1,3.24-1.57A43.92,43.92,0,0,1,142,233.2l1.68-.63a56.29,56.29,0,0,1,8.17-2.62,5.64,5.64,0,0,0,3.67-2.59,5.79,5.79,0,0,0,.65-4.47l-4.38-16.53a5.63,5.63,0,0,0-6.63-4.1A83,83,0,0,0,133.49,206l-1.16.44a56.94,56.94,0,0,0-7.65,3.2l-2.57-5.08a135.18,135.18,0,0,1,36.64-11l2.89,28.23a5.64,5.64,0,0,0,2,3.84,5.55,5.55,0,0,0,4.13,1.25,102.88,102.88,0,0,1,37,3,5.58,5.58,0,0,0,4.28-.57,5.73,5.73,0,0,0,2.63-3.47l4.37-16.53a5.8,5.8,0,0,0-.57-4.35,5.66,5.66,0,0,0-3.47-2.64l-6.42-1.67c-1.52-.35-3.05-.59-4.59-.81-.72-.1-1.43-.21-2.25-.35l-7-1-.87-.05.29-5.6a135.3,135.3,0,0,1,37.16,8.93l-11.44,25.93a5.75,5.75,0,0,0-.11,4.37,5.66,5.66,0,0,0,3,3.17,101.33,101.33,0,0,1,30.55,21.14,5.6,5.6,0,0,0,8,0l12-12.1a5.73,5.73,0,0,0-.23-8.29c-1.12-1-2.22-2-3.32-3-2.15-2-4.29-4-6.84-6.1-1.21-.86-2.38-1.77-3.56-2.68-.82-.64-1.66-1.29-2.52-1.93l3.09-4.79A135.9,135.9,0,0,1,284.56,244Z" transform="translate(-1.18)"/><path class="cls-3" d="M178.49,237.66a90,90,0,0,0-78.36,45.77,91.9,91.9,0,0,0,.49,91.45c.11.2.22.4.35.59a91.61,91.61,0,0,0,23,26c.15.1.23.25.39.34s.08,0,.12,0a88.86,88.86,0,0,0,108,0,.67.67,0,0,0,.15-.06c.16-.09.24-.24.38-.34a91.49,91.49,0,0,0,23-26c.13-.19.24-.39.35-.59a91.87,91.87,0,0,0,.48-91.45A90,90,0,0,0,178.49,237.66Zm-10.17,12.15L105.67,359.9A80.51,80.51,0,0,1,110,289.16,78.89,78.89,0,0,1,168.32,249.81ZM134.63,395.27l43.86-77.06,43.87,77.06a78.09,78.09,0,0,1-87.73,0Zm96.69-7.15-45.48-79.89a8.44,8.44,0,0,0-14.69,0l-45.48,79.89a80,80,0,0,1-13.73-16.35l66.56-117,12.91,22.62c.07.17.16.34.25.51l53.39,93.85a80.32,80.32,0,0,1-13.73,16.35Zm20-28.23-49.6-87.2a5.12,5.12,0,0,0-.27-.52l-12.75-22.36A78.88,78.88,0,0,1,247,289.16a80.49,80.49,0,0,1,4.31,70.73Z" transform="translate(-1.18)"/><path class="cls-4" d="M597.35,33.17c-131.17,0-239,88.6-251.43,202l-74.67,29.74s-4.88,1.81-4.39,8.81a9.53,9.53,0,0,0,5.58,8.16L350.6,305.3C375.49,405.77,476.51,481,597.35,481,736.89,481,850,380.73,850,257.07S736.89,33.17,597.35,33.17Z" transform="translate(-1.18)"/><path class="cls-5" d="M597.31,0C466.14,0,357.87,89.42,345.82,202.82l-74.56,30s-4.88,1.83-4.37,8.82a9.54,9.54,0,0,0,5.61,8.15L350.74,273C376,373.36,476.47,447.81,597.31,447.81,736.85,447.81,850,347.56,850,223.9S736.85,0,597.31,0Z" transform="translate(-1.18)"/><path class="cls-6" d="M526.38,233H518v7.11h8l.22-3H530v6.81H510.48v-3l2.62-.52V222.52l-2.62-.51v-3h19.45v6.82h-3.79l-.22-3H518v6.25h8.34Z" transform="translate(-1.18)"/><path class="cls-6" d="M532.45,240.9l2.37-.52V228.92l-2.62-.52v-3h7.22l.22,2.64a6.74,6.74,0,0,1,2.25-2.2,5.83,5.83,0,0,1,3-.79,5.49,5.49,0,0,1,4.33,1.76q1.56,1.77,1.56,5.52v8l2.37.52v3H543.7v-3l2.11-.52v-8a3.8,3.8,0,0,0-.74-2.64,3,3,0,0,0-2.25-.78,3.87,3.87,0,0,0-1.76.4,3.64,3.64,0,0,0-1.3,1.14v9.91l2,.52v3h-9.3Z" transform="translate(-1.18)"/><path class="cls-6" d="M563.13,240.42a2.9,2.9,0,0,0,2.12-.78,2.77,2.77,0,0,0,.79-2.08h4.47l0,.11a5.79,5.79,0,0,1-2.09,4.69,8.72,8.72,0,0,1-11.65-.73,10.06,10.06,0,0,1-2.21-6.72v-.51a9.91,9.91,0,0,1,2.27-6.71,8.11,8.11,0,0,1,6.49-2.64,11.2,11.2,0,0,1,4,.67,7.75,7.75,0,0,1,2.93,1.88l.07,4.94h-4l-.81-2.89a3.06,3.06,0,0,0-.92-.54,3.37,3.37,0,0,0-1.23-.21,3.1,3.1,0,0,0-3,1.54,8,8,0,0,0-.86,4v.51a8.62,8.62,0,0,0,.79,4A2.89,2.89,0,0,0,563.13,240.42Z" transform="translate(-1.18)"/><path class="cls-6" d="M572.79,234.47a10,10,0,0,1,2.29-6.78,8.93,8.93,0,0,1,12.68,0,9.92,9.92,0,0,1,2.29,6.78v.36a9.93,9.93,0,0,1-2.29,6.79,7.93,7.93,0,0,1-6.31,2.63,8,8,0,0,1-6.37-2.63,9.93,9.93,0,0,1-2.29-6.79Zm4.94.36a8.07,8.07,0,0,0,.88,4.06,3.36,3.36,0,0,0,5.64,0,8.11,8.11,0,0,0,.88-4v-.36a8.09,8.09,0,0,0-.89-4,3,3,0,0,0-2.83-1.55,3,3,0,0,0-2.8,1.55,8.09,8.09,0,0,0-.88,4Z" transform="translate(-1.18)"/><path class="cls-6" d="M591.93,240.9l2.37-.52V228.92l-2.62-.52v-3h7.22l.22,2.64a6.74,6.74,0,0,1,2.25-2.2,5.83,5.83,0,0,1,3-.79,5.49,5.49,0,0,1,4.33,1.76q1.56,1.77,1.56,5.52v8l2.37.52v3h-9.44v-3l2.11-.52v-8a3.75,3.75,0,0,0-.74-2.64,3,3,0,0,0-2.25-.78,3.87,3.87,0,0,0-1.76.4,3.64,3.64,0,0,0-1.3,1.14v9.91l2,.52v3h-9.3Z" transform="translate(-1.18)"/><path class="cls-6" d="M621.48,220.87v4.53h3.21v3.5h-3.21v9.42a2.18,2.18,0,0,0,.44,1.53,1.54,1.54,0,0,0,1.18.46,7.74,7.74,0,0,0,.89,0,8.3,8.3,0,0,0,.85-.14l.43,3.6a12.56,12.56,0,0,1-1.64.39,12,12,0,0,1-1.76.13,5.22,5.22,0,0,1-3.93-1.42,6.28,6.28,0,0,1-1.38-4.5V228.9h-2.69v-3.5h2.69v-4.53Z" transform="translate(-1.18)"/><path class="cls-6" d="M627.48,240.9l2.37-.52V228.92l-2.62-.52v-3h7.22l.22,2.7a5.74,5.74,0,0,1,1.66-2.24,3.65,3.65,0,0,1,2.35-.81,6,6,0,0,1,.82.06,4.48,4.48,0,0,1,.72.15l-.53,4.54-2-.05a3.46,3.46,0,0,0-1.79.43,2.82,2.82,0,0,0-1.08,1.21v9l2.37.52v3h-9.68Z" transform="translate(-1.18)"/><path class="cls-6" d="M650.13,244.25a8.21,8.21,0,0,1-6.33-2.57,9.22,9.22,0,0,1-2.37-6.51v-.68a10.17,10.17,0,0,1,2.25-6.79,8.28,8.28,0,0,1,11.76-.39,8.75,8.75,0,0,1,2,6.1v2.72H646.56l0,.1a4.89,4.89,0,0,0,1.2,3,3.78,3.78,0,0,0,2.92,1.18,9.18,9.18,0,0,0,2.73-.34,12,12,0,0,0,2.36-1.05l1.34,3.08a9.75,9.75,0,0,1-2.94,1.52A12.36,12.36,0,0,1,650.13,244.25Zm-.44-15.35a2.55,2.55,0,0,0-2.17,1.06,5.57,5.57,0,0,0-1,2.78l.05.09h6.06v-.45a4,4,0,0,0-.74-2.53A2.61,2.61,0,0,0,649.69,228.9Z" transform="translate(-1.18)"/><path class="cls-6" d="M659.67,240.9l2.38-.52V228.92l-2.64-.52v-3H667v15l2.37.52v3h-9.69ZM667,221h-4.94v-3.74H667Z" transform="translate(-1.18)"/><path class="cls-6" d="M676.87,235.31h-4.94V219h4.94Zm0,8.58h-4.94v-4.38h4.94Z" transform="translate(-1.18)"/><g class="cls-7"><path class="cls-8" d="M129.53,335s2.22,25.89,2.66,27.92-.08.79-.08.79,10,8.69,11.87,1.6S129.53,335,129.53,335Z" transform="translate(-1.18)"/><path class="cls-9" d="M158.8,257.78,156.19,280s-.83,5.74-3.15,8.06-16-.66-16-.66l-3.29,27.24,35.14,20,41.91-11.23-1.25-29.43s-18.52.6-31-8.79c-2.46-1.85.62-21,.62-21Z" transform="translate(-1.18)"/><path class="cls-9" d="M214.93,297.44c4-2.14,7.67,2.9,7.67,2.9l41,71.83-35.42,63.54s11.89,20,5.95,29l8.2,8.2s1.31,4.4-4.63,4.4-20-10.46-20-10.46l1.63-44.8,26.44-47.68-24.28-36.11-7.6-6.73S207.38,301.43,214.93,297.44Z" transform="translate(-1.18)"/><path class="cls-9" d="M172.31,498.49l-34.37,86.17s-4.43-59.47-9.69-54.2a232.19,232.19,0,0,1-13,37.63c-8.92,20-12.84,47.45-12.84,47.45s8.11,20.6,7.13,29.87c0,0,7.76,53.8,4.64,60s-15.34,2.5-15.34,2.5-20.42,2.67-23.45-2.41,3.83-61.82,3.83-61.82-1-10.88,2.59-13.38,7.85-8.56,7.85-8.56-1.34-3.57,2.4-8.38,9.28-35.71,9.28-39.75-5,41.54,11.65,29.65c0,0,4-82.05,15.46-93.46s43.88-18.2,43.88-18.2Z" transform="translate(-1.18)"/><path class="cls-10" d="M172.31,498.49l-11,27.55s-15.2,6.78-19,7.73c-2.85.7-23.2,7-22.51,2.89,2.13-12.83,5.09-23.33,8.67-26.91,11.41-11.42,43.88-18.2,43.88-18.2Z" transform="translate(-1.18)"/><path class="cls-9" d="M184.55,485.73s28.78,108.68,30.92,113.68-9.1-61.11,10.52,7.74c0,0-1.24,9.1-3,12.31s-5.88,11.42-.71,14.27,21.94,17.12,29.07,18.37,20.51-5,20.51-5,7.14-2.68,4.91-4.91c0,0-6.51-.27-8.65-2.41s-26.4-21.22-26.4-21.22-7.49-9.63-7.49-10.29-5.35-9.53-5.35-9.53,2-5.35,0-16.23-1-79.43-1-79.43Z" transform="translate(-1.18)"/><path class="cls-10" d="M184.55,485.73s6.78,25.48,8.78,33c.78,2.89,34.33,5.22,34.33,5.22l.18-20.87Z" transform="translate(-1.18)"/><path class="cls-11" d="M184.55,507.25c5.57,11,44.68,13.36,47.92,14.39,0,0,1-44.3-5.22-69.19S184.55,507.25,184.55,507.25Z" transform="translate(-1.18)"/><g class="cls-12"><path class="cls-8" d="M117.43,530.83S228,528.86,232,456.56Z" transform="translate(-1.18)"/></g><path class="cls-9" d="M144.46,243.35s6,27.16,44.92,39c16.1,4.87,23.22,2.92,25.71-2,15.65-31.11,16.09-76.33,3.09-94.11-11.4-15.59-76.52,10.63-76.52,10.63l3.57,28.41s-7.66-15.73-14.28-10.28,3.46,24.27,3.46,24.27S139.42,246.05,144.46,243.35Z" transform="translate(-1.18)"/><path class="cls-13" d="M150.47,235c5.77,4.73,3.67-8.83,3.67-8.83s3-12.06.22-15.09a50.55,50.55,0,0,1-5.52-8.21l76-24.11s9.07-6.94-3.85-16.82a18.09,18.09,0,0,0-16-10.57s-4.07-9.56-15.4-5.35c0,0-18.23-6.7-25.2,1.13a7.24,7.24,0,0,0-8,1.8s-4.31.31-6,3.22c0,0-10.51.85-13,6.94,0,0-7.3,5.62-5,12.66,0,0-4.24,4.28-1.8,8.84,0,0-10.46,6.21-4.22,13.94,0,0-3.63,5,7.18,10.75l1.28,8.08s3.74-.49,10.33,11.83Z" transform="translate(-1.18)"/><path class="cls-14" d="M181.61,249.5c-.26-.51,22.11,8.26,32.81,4.46,0,0-3.55,18-11.94,17.51C193.84,271,185.53,265,181.61,249.5Z" transform="translate(-1.18)"/><g class="cls-15"><path class="cls-16" d="M179.28,251.79s19.59,12.61,32,6l.11-4.7-32.06-7.4Z" transform="translate(-1.18)"/><path class="cls-17" d="M180.68,260.78s8.9-4.57,18.54,3.19-3.78,12.46-3.78,12.46Z" transform="translate(-1.18)"/></g><path class="cls-18" d="M214.42,254c-11.59,3.19-32.81-4.46-32.81-4.46s5,23.82,22.82,21.73" transform="translate(-1.18)"/><path class="cls-19" d="M140.41,239.27s4.18-15-6.25-22.11" transform="translate(-1.18)"/><g class="cls-20"><path class="cls-21" d="M166.66,166.59s-7.64,5.08-1.93,11.75c2,2.33-10.13,7-10.13,7l-10.71,21.08s5.75-.51,9.16.52l11.73,26-13.7,3.71-29.26-35.9-10.16-54.68L151.85,127l36.92,2.42-9.7,10.17s-17.35,4.51-13.71,12.65C161.12,153.65,157.51,163.1,166.66,166.59Z" transform="translate(-1.18)"/></g><path class="cls-22" d="M135.07,213.42s-5.71-4.95-4-10.41,43-49.35,94-24.2c0,0,6.55,8.32,2.84,10.3,0,0,3.2,7.91-1.94,10.09S202.44,190.34,135.07,213.42Z" transform="translate(-1.18)"/><path class="cls-23" d="M141.62,202.25s47-31.48,82.16-14.89C223.78,187.36,189,178.82,141.62,202.25Z" transform="translate(-1.18)"/><path class="cls-19" d="M226.84,211s-5.84,22-41.64,12c0,0-11.85-1.38-19.77-14.46s43.42-9.6,43.42-9.6l16.7,5.83Z" transform="translate(-1.18)"/><path class="cls-24" d="M208.49,215.64c3.71,6.58,8.86,18.79,5.8,32.21,0,0-13.38.67-17.47-.57" transform="translate(-1.18)"/><ellipse class="cls-25" cx="190.97" cy="218.57" rx="4.37" ry="3.2" transform="translate(-37.66 398.86) rotate(-87.26)"/><path class="cls-26" d="M185.51,213.73s2.44-6.4,11.1.08" transform="translate(-1.18)"/><ellipse class="cls-25" cx="215.88" cy="217.88" rx="2.98" ry="4.06" transform="translate(-11.06 10.25) rotate(-2.66)"/><path class="cls-26" d="M210.52,214.79s.31-8.18,9.22-3.89" transform="translate(-1.18)"/><path class="cls-27" d="M213.05,222a45.3,45.3,0,0,0-2.1-4.32,1.5,1.5,0,0,0-2.59,1.51,46.5,46.5,0,0,1,2.1,4.32,1.51,1.51,0,0,0,2,.54,1.53,1.53,0,0,0,.54-2.05Z" transform="translate(-1.18)"/><path class="cls-9" d="M128.7,287.38s-29.58-33.45-34-37.88c0,0,74.47-47.25,85.19-47.25a350.17,350.17,0,0,0,42.09,3s12.1-1.39,15.56-3c0,0,4.78-.87,4.78-2.83,0,0-2.83-3.78-7.2-3.78,0,0-8.88-6-14.73-6l-37.68-1.46s-8.46-1.81-13.37,1.46S63.92,242.82,63.92,242.82s38.94,59.23,51.43,71.73,18.43,37.22,18.43,37.22,5,15.69,10,20.74,5.06-43.87-.53-58.23A139.24,139.24,0,0,0,128.7,287.38Z" transform="translate(-1.18)"/><path class="cls-27" d="M240.59,197.94c-11.65,6.06-24.77,5-37.39,3.51-6.11-.74-12.23-1.61-18.4-1.77-2.69-.06-5.76-.27-8.36.63-1.26.44-9.06,2.84-15.35,7.65-4.29,3.29-56.08,34.68-56.86,35.12-1.79,1-2.14,1.52-.34.52,1.3-.74,53.21-30.75,57.42-33.94,4.37-3.32,11.3-3.62,14.91-6.26,2.69-2,5.34-.51,6.53-.55,3.05-.12,2.87.2,5.9.48,6.49.61,16.24,1.66,22.73,2.19,10.61.88,21.24.16,30.82-4.83,1.83-.94.21-3.7-1.61-2.75Z" transform="translate(-1.18)"/><path class="cls-19" d="M129.35,326.69c-.16-6.41.57-13.6-.9-19.87s-6.86-11.73-10.83-16.68c-1.21-1.51-3.32.63-2.12,2.12,4.26,5.31,9.81,10.92,10.41,18,.45,5.43.31,11,.44,16.42.05,1.92,3.05,1.93,3,0Z" transform="translate(-1.18)"/><path class="cls-19" d="M158,264.72s11.63,10.67,19.66,13.15a45.76,45.76,0,0,0,.2,5.75c.27.92-20.85-10.46-20.85-10.46Z" transform="translate(-1.18)"/><path class="cls-28" d="M123.47,212.13l45.86-23.53s3.74-2.9,13.37-1.45,38.75,1.45,38.75,1.45,10.88,2.42,13.66,6" transform="translate(-1.18)"/><path class="cls-29" d="M239,196.68s-17.49,1.69-23.89,1.06-5.38.31-5.38.31" transform="translate(-1.18)"/><path class="cls-30" d="M234.62,195.32s-24.62-.15-28-1" transform="translate(-1.18)"/><path class="cls-27" d="M231,193.2s-24.11-.54-25.88-1.27l15.55-.22S230.2,192.41,231,193.2Z" transform="translate(-1.18)"/><path class="cls-19" d="M133,363.32c8.64.08,10.22-7.93,10.77-15,.4-5.11-.82-10-1.55-15a142.35,142.35,0,0,1-1.41-19.68,1.5,1.5,0,0,0-3,0,148.56,148.56,0,0,0,1.79,22.29c1,6.45,4.27,24.51-6.6,24.41a1.5,1.5,0,0,0,0,3Z" transform="translate(-1.18)"/><path class="cls-31" d="M137.07,287.38s-3-5.32-8.37,0c0,0,31.32,78.22,3.41,76.35,0,0,21.29,48.75,19.15,56.6s-37.95,107.79-37.95,107.79,110.59-2,114.53-74.26l-5.23-41.62A349.83,349.83,0,0,0,225.7,370c.22-20.31-2-43.65-3.63-59.58a25.73,25.73,0,0,0-7.5-16.17l-10.41-1s8.21,27.55-10.81,30.16C183.1,324.87,155.62,312.9,137.07,287.38Z" transform="translate(-1.18)"/><path class="cls-32" d="M148.81,428.41s58.29,7.77,74.47-10.78c0,0,1.76-3.66-.67-5.39.34,3.43-27.39,18.37-71.35,8.92C151.26,421.16,146,423.06,148.81,428.41Z" transform="translate(-1.18)"/><circle class="cls-33" cx="196.05" cy="425.6" r="13.6"/><path class="cls-34" d="M199.65,434.6s-13.74,1.43-10.53-13.47" transform="translate(-1.18)"/><path class="cls-35" d="M195,416.5s13.75-1.35,10.45,13.53" transform="translate(-1.18)"/><path class="cls-2" d="M101.29,573.31s0,.08,0,.25a41.52,41.52,0,0,1-.53,4.69,33,33,0,0,1,.5-4.94m0-5.06a5.14,5.14,0,0,0-5.07,4.61c0,.29-.11.72-.16,1.26-.12,1.07-.23,2.43-.31,3.84a5.06,5.06,0,0,0,4.53,5.32l.52,0a5.05,5.05,0,0,0,5-4.31,39.27,39.27,0,0,0,.58-5.43,5.09,5.09,0,0,0-5.08-5.31Z" transform="translate(-1.18)"/><path class="cls-2" d="M100.79,578.25h0m0,0c-.42,7.31-.39,20.65,3.76,25.3-1.46,7.12-2.16,12-2.16,12s8.11,20.6,7.13,29.87c0,0,7.76,53.8,4.64,60-1.43,2.81-4.75,3.58-7.94,3.58a29.28,29.28,0,0,1-7.4-1.08,96.86,96.86,0,0,1-11,.7c-5.36,0-11-.63-12.44-3.11-3-5.08,3.83-61.82,3.83-61.82s-1-10.88,2.59-13.38,7.85-8.56,7.85-8.56-1.34-3.57,2.4-8.38c3-3.93,7.29-25.14,8.75-35.06m0-5a5.17,5.17,0,0,0-1.19.14,5.11,5.11,0,0,0-2.11,1.08,5.12,5.12,0,0,0-1.71,3.17c-2,13.28-5.94,30-7.75,32.64a15.66,15.66,0,0,0-3.66,10.08,32.49,32.49,0,0,1-5.48,5.8c-5.16,3.61-5.11,13-4.77,17.43-.32,2.69-1.82,15.49-3,28.64-2.82,31.27-1.17,34-.08,35.86,2.3,3.85,7.47,5.57,16.78,5.57A102.14,102.14,0,0,0,98.46,713a34,34,0,0,0,7.76,1c7.63,0,11-3.45,12.45-6.34,1-1.94,2.63-5.19-.64-35.12-1.36-12.49-3-24.53-3.42-27.27.61-9.24-5.15-25.33-7-30.29.29-1.86.93-5.63,1.91-10.4a5,5,0,0,0-1.18-4.39c-1.74-1.94-3.15-9.94-2.49-21.47,0-.15,0-.31,0-.46a5.06,5.06,0,0,0-4.91-5Zm0,10.1h0Z" transform="translate(-1.18)"/><path class="cls-2" d="M115.77,566.86h0m0,0c-2,19.49-2.8,36.35-2.8,36.35a8.82,8.82,0,0,1-5,2,4.54,4.54,0,0,1-3.46-1.64c2-9.81,5.51-23.89,10.68-35.46l.54-1.23m0-5.05a4.24,4.24,0,0,0-.71.05,5.07,5.07,0,0,0-3.49,2.19,5.38,5.38,0,0,0-.47.89l-.08.18c-.13.3-.27.6-.4.91-5.35,12-8.94,26.46-11,36.5a5,5,0,0,0,1.18,4.39,9.54,9.54,0,0,0,7.22,3.33,13.57,13.57,0,0,0,7.9-2.93,5.09,5.09,0,0,0,2.11-3.86c0-.17.84-16.86,2.76-35.92a5,5,0,0,0-4.65-5.72Zm0,10.1h0Z" transform="translate(-1.18)"/><path class="cls-2" d="M175.22,143.34A48.09,48.09,0,0,1,189.59,146a15.58,15.58,0,0,1,5.44-1.07c7.23,0,10,6.42,10,6.42a18.09,18.09,0,0,1,16,10.57c12.55,9.6,4.35,16.43,3.88,16.81l.15.07s6.55,8.32,2.84,10.3a15.76,15.76,0,0,1,.5,1.56c2.72,1,5.48,2.35,6.7,3.91l-1.33.22c.34.2.62.38.84.52h0l.49.32a8.12,8.12,0,0,1,3.9,1h0a11,11,0,0,1,1.76,1.19,1.58,1.58,0,0,1,.58-.12c1.46,0,2.41,2.13.85,2.94a45.88,45.88,0,0,1-16.49,4.79l1.13,5.48s-.07.24-.21.63c2.55,21-1.11,48-11.54,68.68-1.49,3-4.63,4.85-10.34,4.85-3.86,0-8.88-.86-15.37-2.82a93.22,93.22,0,0,1-11.73-4.43s-.06,3.89.13,5.35a3.12,3.12,0,0,0,.76,1.92c8.33,6.25,19.31,8.07,25.73,8.59l-.11-.42,10.41,1a27.76,27.76,0,0,1,2.32,2.64h.1c3.14,0,5.61,3.42,5.61,3.42l41,71.83-35.42,63.54s11.89,20,5.95,29l8.2,8.2s1.31,4.4-4.63,4.4c-1.78,0-4.27-.93-6.9-2.24a447.09,447.09,0,0,1,1.64,46.55,46,46,0,0,0-4.79-.72l0,3h0c-.12,21.11-.06,51.61,1.2,58.56,2,10.88,0,16.23,0,16.23s5.35,8.88,5.35,9.53,7.49,10.29,7.49,10.29,24.26,19.08,26.4,21.22,8.65,2.41,8.65,2.41c2.23,2.23-4.91,4.91-4.91,4.91s-11.05,5.16-18.42,5.16a12.55,12.55,0,0,1-2.09-.17c-7.13-1.25-23.9-15.52-29.07-18.37s-1.07-11.06.71-14.27,3-12.31,3-12.31c-6.8-23.89-9.9-31.53-11.12-31.53-2.18,0,1.53,24.06.79,24.06,0,0-.11-.09-.19-.27-1.36-3.18-13.48-48.25-22.14-80.67l-.06-.24c-.49-1.84-1-3.65-1.44-5.4a22.65,22.65,0,0,1-4.46-2.65,139.6,139.6,0,0,1-23.56,9.34l-25.87,64.87s-2.51-33.76-6-48.15c-1.92.45-3.86.86-5.62,1.14a240.48,240.48,0,0,1-10.55,29.21c1-10,2.33-20.72,4-30.2h0c.52-3.17,1.1-6.2,1.73-9-5.11.43-8.18.48-8.18.48s26.73-74.6,35.38-100c-2.19-4.42,1.25-6.4,2.29-6.88.12-.39.22-.72.28-.95,2.14-7.85-19.15-56.6-19.15-56.6h.24c0-.18-.08-.44-.16-.8-.32-1.49-1.6-15.78-2.26-23.32-3-8.05-7.84-18.34-14.57-25.07-12.5-12.5-51.44-71.73-51.44-71.73s31.83-15.8,60.53-30.2l7.16-3.83a8.28,8.28,0,0,1-.73-5.15c-7.4-5-4.44-9.1-4.44-9.1-6.24-7.73,4.22-13.94,4.22-13.94-2.44-4.56,1.8-8.84,1.8-8.84-2.34-7,5-12.66,5-12.66,2.46-6.09,13-6.94,13-6.94,1.69-2.91,6-3.22,6-3.22a6.94,6.94,0,0,1,5.21-2.32,7.52,7.52,0,0,1,2.79.52c2.57-2.89,6.68-3.8,10.83-3.8M143,221.28l-.21-.34h0c.08.11.15.22.22.33m-14.27,66.1c1.77-1.77,3.29-2.36,4.53-2.36a4.88,4.88,0,0,1,3.84,2.36A70.81,70.81,0,0,0,149,288.92c1.88,0,3.41-.23,4.06-.88,2.32-2.32,3.15-8.06,3.15-8.06l.81-6.82v-.1l1-8.34c-11.19-10.81-13.53-21.37-13.53-21.37A5.09,5.09,0,0,1,142,244c-4.09,0-7.59-4.79-7.59-4.79A65.36,65.36,0,0,1,130,228.43c-9.44,5.52-18.48,10.76-23,13.4-7.4,4.58-12.26,7.67-12.26,7.67,4.43,4.43,34,37.88,34,37.88m95.1,126.71,22-39.7-20.93-31.12c.55,8.93.9,18.12.81,26.76a349.83,349.83,0,0,1-3.09,42.21,2.91,2.91,0,0,1,1.19,1.85m-48.58-275.8h0c-5,0-9.13,1.13-12.23,3.36a12.11,12.11,0,0,0-1.39-.08,11.77,11.77,0,0,0-7.52,2.64,13.4,13.4,0,0,0-6.32,3.21c-3.8.65-11.21,2.65-14.42,8.51-3.2,2.87-7,8.26-6.3,14.6a13.09,13.09,0,0,0-2.16,8.13,16.12,16.12,0,0,0-5.29,8.76,12,12,0,0,0,1.32,7.9,9.5,9.5,0,0,0,0,3.05,13.34,13.34,0,0,0,4.77,7.68s0,.1,0,.16l-3.61,1.93c-28.36,14.22-60.14,30-60.46,30.16a5,5,0,0,0-2,7.3c1.6,2.44,39.37,59.8,52.08,72.52,6,6,10.46,15.51,13.18,22.64,1.38,15.75,1.91,20.6,2.14,22.3a5.06,5.06,0,0,0,.38,2.7c0,.11,5.13,11.76,10,24.36,7.41,19.21,8.68,26,8.87,28.19a9.27,9.27,0,0,0-3,9.94c-9.1,26.52-34.5,97.44-34.76,98.17a5,5,0,0,0,4.75,6.75h.1s.69,0,1.83-.06c-.16.89-.31,1.79-.47,2.71v0c-1.47,8.48-2.83,18.73-4,30.48a5.05,5.05,0,0,0,3.74,5.4,5.16,5.16,0,0,0,1.28.16,5.05,5.05,0,0,0,4.63-3c3.55-8.08,6.31-15.73,8.37-22,2.44,15.65,4.11,37.88,4.13,38.16a5.05,5.05,0,0,0,9.73,1.49l25-62.62A147.47,147.47,0,0,0,187,516.28l.53.3.86,3.22.06.23c20.62,77.28,21.94,80.35,22.38,81.37a5.19,5.19,0,0,0,4.83,3.33,5.11,5.11,0,0,0,3.77-1.68l.09-.1c.42,1.43.86,2.94,1.32,4.55-.58,3.76-1.57,8.21-2.29,9.51-3.48,6.24-4.6,11.24-3.44,15.28a9.61,9.61,0,0,0,4.7,5.86c1.41.78,4.37,3,7.52,5.27,9.72,7.15,17.6,12.69,23.12,13.66a17.23,17.23,0,0,0,3,.24c7.94,0,18.51-4.69,20.38-5.55,3.38-1.3,7.48-3.6,8.29-7.33a6.23,6.23,0,0,0-1.77-5.81,5.09,5.09,0,0,0-3.36-1.48,16.42,16.42,0,0,1-5.41-1c-2.67-2.54-21.31-17.24-26.24-21.12-2.58-3.34-5.5-7.22-6.38-8.56-.48-1.27-1.69-3.5-4.68-8.5.54-2.95,1-8.39-.42-16.3-.86-4.78-1.27-24.74-1.13-54.93a5,5,0,0,0,2.72-.94,5.07,5.07,0,0,0,2.12-4c0-.88.42-19.48-1-39.44.42,0,.82.06,1.22.06,4.61,0,7-1.92,8.21-3.53a8.51,8.51,0,0,0,1.27-7.36,5.16,5.16,0,0,0-1.27-2.13l-5.78-5.77c1.4-4.81.73-11-2-18.49a77.94,77.94,0,0,0-4.17-9.37L268,374.63a5.08,5.08,0,0,0,0-5l-41-71.83a4.3,4.3,0,0,0-.29-.45,14.11,14.11,0,0,0-7.14-5.17q-.66-.75-1.41-1.5a5.06,5.06,0,0,0-3.1-1.46l-2.85-.26a13,13,0,0,0,7.41-6.45c10.15-20.18,14.78-47.09,12.17-70.48a5,5,0,0,0,0-2.11l-.06-.29a48.44,48.44,0,0,0,12.82-4.48,6.41,6.41,0,0,0,3.33-7.29,6.85,6.85,0,0,0-5.52-5.11l-.72-.43-.44-.23a12.9,12.9,0,0,0-2.36-1,15.06,15.06,0,0,0-4.76-3.52c.2-3-1.21-6.17-2.79-8.74a12.81,12.81,0,0,0,1.76-6.58c0-4.77-2.73-9.35-8-13.62A23,23,0,0,0,208,146.57a15.86,15.86,0,0,0-13-6.68,20,20,0,0,0-5.44.8,51.86,51.86,0,0,0-14.37-2.4ZM109.54,246.17c4.35-2.52,10.89-6.31,17.76-10.31,1.35,3.26,2.58,5.57,2.65,5.72s.24.4.38.59c.79,1.09,4.88,6.3,10.71,6.82a56.65,56.65,0,0,0,11.65,17.56l-.7,5.92v.11l-.79,6.73a18.18,18.18,0,0,1-1.33,4.54l-.88,0a58.13,58.13,0,0,1-9.15-1.09,9.39,9.39,0,0,0-6.6-2.82,9.51,9.51,0,0,0-3.68.76c-6-6.79-19.66-22.16-27-30.2,1.91-1.2,4.29-2.68,7-4.35ZM229.72,393c.51-6.64.93-14.5,1-22.92,0-2.91,0-5.95-.05-9.12l9.2,13.68L229.72,393Z" transform="translate(-1.18)"/></g></g></g></svg>