<svg xmlns="http://www.w3.org/2000/svg" xmlns:xlink="http://www.w3.org/1999/xlink" viewBox="0 0 848.82 745.38"><defs><style>.cls-1{fill:none;}.cls-2{fill:#eaa000;}.cls-3{fill:#97d8dd;}.cls-4{fill:#027e8f;}.cls-5{fill:#65c4d1;}.cls-6{fill:#ffd478;}.cls-7{fill:#fff;}.cls-8{clip-path:url(#clip-path);}.cls-9{fill:#6d472e;}.cls-10{fill:#eac2a7;}.cls-11{fill:#c9a68f;}.cls-12{fill:#d6aa8b;}.cls-13{fill:#d6d6d6;}.cls-14{fill:#c99f4b;}.cls-15{fill:#6d5f56;}.cls-16{fill:#493e38;}.cls-17{clip-path:url(#clip-path-2);}.cls-18{fill:#fcfcfc;}.cls-19{fill:#d32222;}.cls-20{fill:#f4f4f4;}.cls-21{clip-path:url(#clip-path-3);}.cls-22{fill:#b7b7b7;}.cls-23{fill:#c99e32;}.cls-24{clip-path:url(#clip-path-4);}.cls-25{fill:#aa7e30;}.cls-26{fill:#ddd;}.cls-27{fill:#846829;}.cls-28{fill:#e8cd95;}</style><clipPath id="clip-path"><path class="cls-1" d="M245.2,482.48s-47.6,36.16-127.33,6.45S38.14,231,38.14,231s73.33-109,89.74-106.07,112,21.45,112,56.61,42.56,193,42.56,193,17.88,69.22,8.94,74.49"/></clipPath><clipPath id="clip-path-2"><path class="cls-1" d="M168.64,242.13c-.34-.51,24.61,5.85,35.48.4,0,0-1.39,19.57-10.38,20.19C184.49,263.37,174.86,258.06,168.64,242.13Z"/></clipPath><clipPath id="clip-path-3"><path class="cls-1" d="M188.62,506.79c5.39,10.69,43.32,12.95,46.46,13.95,0,0,1-42.95-5.07-67.08S188.62,506.79,188.62,506.79Z"/></clipPath><clipPath id="clip-path-4"><path class="cls-1" d="M142.51,240.62c6.69,2.77.93-9.22.93-9.22s-.64-12-4-14.06a49.13,49.13,0,0,1-7.42-6.07l17.09-11.71,46.7-32s6.45-9-8.3-14.53a17.56,17.56,0,0,0-17.87-5.3s-6.45-7.72-15.79-.63c0,0-18.79-1.1-23.05,8.12a7,7,0,0,0-6.92,3.92s-3.92,1.5-4.67,4.67c0,0-9.51,3.75-10.09,10.09,0,0-5.18,7.26-1,13.14,0,0-2.74,5.16.8,8.7,0,0-7.95,8.71,0,14.12,0,0-2,5.65,9.69,8l3.45,7.14s3.33-1.51,12.92,8.07Z"/></clipPath></defs><title>1</title><g id="Camada_2" data-name="Camada 2"><g id="Camada_1-2" data-name="Camada 1"><path class="cls-2" d="M177.32,157.82c93.46.1,169.21,76.64,169.31,171.09S270.83,500,177.32,500,8,423.4,8,328.91,83.8,157.82,177.32,157.82m0-8h0a174.82,174.82,0,0,0-69,14.08A176.85,176.85,0,0,0,51.9,202.3a180.16,180.16,0,0,0,0,253.22,176.66,176.66,0,0,0,56.37,38.39,176.24,176.24,0,0,0,138.1,0,176.62,176.62,0,0,0,56.36-38.39,180.08,180.08,0,0,0-.06-253.16A176.68,176.68,0,0,0,246.34,164a174.72,174.72,0,0,0-69-14.14Z"/><path class="cls-3" d="M177.32,157.82C83.8,157.82,8,234.42,8,328.91S83.8,500,177.32,500s169.31-76.6,169.31-171.09S270.78,157.92,177.32,157.82Zm0,330.77c-87.28,0-158-71.49-158-159.68S90,169.22,177.32,169.22s158,71.49,158,159.69S264.55,488.49,177.32,488.59Z"/><path class="cls-3" d="M257.22,204.63a5.59,5.59,0,0,0-7.81,1.66l-9.23,14.34a5.73,5.73,0,0,0,1.79,8,76.27,76.27,0,0,1,6.33,4.56c1.27,1,2.54,2,3.53,2.67,1.75,1.45,3.44,3,5.11,4.54l-3.9,4A112.59,112.59,0,0,0,228.3,227.2L239.84,201a5.73,5.73,0,0,0,.11-4.36,5.61,5.61,0,0,0-3-3.17A146.3,146.3,0,0,0,185,181a5.59,5.59,0,0,0-4.08,1.45,5.73,5.73,0,0,0-1.85,3.95l-.87,17.09a5.69,5.69,0,0,0,5.33,6l5.94.3,6.33,1c.81.14,1.63.26,2.44.38,1.22.18,2.45.35,3.51.6l.78.2L201,217.51a114.13,114.13,0,0,0-29.89-2.45l-2.93-28.53a5.7,5.7,0,0,0-2.06-3.85,5.6,5.6,0,0,0-4.15-1.24,144.31,144.31,0,0,0-51.28,15.44,5.73,5.73,0,0,0-2.45,7.67l7.7,15.24a5.61,5.61,0,0,0,7.4,2.58c1.13-.53,2.26-1.09,3.38-1.64a58.25,58.25,0,0,1,8.07-3.51l1.44-.54c1.7-.63,3.35-1.25,5-1.81l1.46,5.52c-1.39.48-2.74,1-4.08,1.49l-1.34.51a52,52,0,0,0-8,3.44c-1,.48-1.93,1-3.39,1.66l-9.57,5.57-.65.36L99,210.31a5.6,5.6,0,0,0-7.89-1.25,147.55,147.55,0,0,0-36.8,39.11A5.72,5.72,0,0,0,56,256.06l14.19,9.34a5.63,5.63,0,0,0,7.9-1.82,74.75,74.75,0,0,1,4.5-6.38c1-1.29,2-2.59,2.65-3.59,1.44-1.77,3-3.47,4.5-5.16l3.9,4a113.35,113.35,0,0,0-17,25L50.77,265.73a5.62,5.62,0,0,0-7.45,2.89,150.26,150.26,0,0,0-12.39,52.56,5.69,5.69,0,0,0,5.35,6l16.91.88a5.56,5.56,0,0,0,4.07-1.44,5.67,5.67,0,0,0,1.85-3.94l.3-6,1-6.39c.15-.82.26-1.65.38-2.48.18-1.23.35-2.47.59-3.53l.2-.79,5.53,1.5a116.84,116.84,0,0,0-2.43,30.2l-28.23,3a5.69,5.69,0,0,0-5,6.27,149.65,149.65,0,0,0,15.28,51.82,5.6,5.6,0,0,0,7.59,2.48l15.07-7.78a5.74,5.74,0,0,0,2.56-7.48c-.52-1.13-1.07-2.25-1.61-3.36a59.16,59.16,0,0,1-3.48-8.2l-.56-1.51c-.63-1.7-1.23-3.35-1.77-5l5.53-1.5a113.71,113.71,0,0,0,12.89,27.3L60,408a5.73,5.73,0,0,0-1.24,8,147.36,147.36,0,0,0,38.7,37.19,5.59,5.59,0,0,0,4.25.81,5.65,5.65,0,0,0,3.56-2.47l9.23-14.34a5.74,5.74,0,0,0-1.79-8,73.9,73.9,0,0,1-6.33-4.55c-1.27-1-2.54-2-3.53-2.67-1.75-1.46-3.44-3-5.11-4.55l4-4c1.51,1.39,3.06,2.8,4.94,4.36,1.1.78,2.17,1.61,3.24,2.44a67.64,67.64,0,0,0,6.29,4.48l10.08,5.84.12.06-11.56,26.2a5.74,5.74,0,0,0,2.86,7.53,146.3,146.3,0,0,0,52,12.52H170a5.67,5.67,0,0,0,5.63-5.41l.88-17.08a5.68,5.68,0,0,0-5.33-6l-5.94-.3-6.33-1c-.81-.14-1.63-.26-2.44-.37-1.22-.18-2.44-.36-3.51-.6l-.78-.2,1.48-5.59a114.16,114.16,0,0,0,29.89,2.45l2.93,28.53a5.74,5.74,0,0,0,2.06,3.84,5.57,5.57,0,0,0,4.15,1.24,144.29,144.29,0,0,0,51.28-15.43,5.74,5.74,0,0,0,2.46-7.67L238.68,438a5.62,5.62,0,0,0-7.4-2.58c-1.14.53-2.26,1.08-3.39,1.64a58.08,58.08,0,0,1-8.06,3.5l-1.44.55c-1.7.63-3.35,1.25-5,1.8l-1.49-5.59a110.77,110.77,0,0,0,27-13l16.69,23.17a5.6,5.6,0,0,0,7.88,1.26,147.9,147.9,0,0,0,36.81-39.11,5.78,5.78,0,0,0,.79-4.29,5.7,5.7,0,0,0-2.45-3.61l-14.19-9.33a5.61,5.61,0,0,0-7.9,1.82,74,74,0,0,1-4.49,6.38c-1,1.29-2,2.58-2.65,3.59-1.45,1.77-3,3.47-4.51,5.16l-3.9-3.95a113.58,113.58,0,0,0,17-25l25.89,11.66a5.62,5.62,0,0,0,7.45-2.89,150.09,150.09,0,0,0,12.39-52.56,5.68,5.68,0,0,0-5.35-6l-16.91-.89a5.72,5.72,0,0,0-5.92,5.39l-.3,6-1,6.39c-.15.82-.26,1.65-.38,2.47-.17,1.24-.35,2.47-.59,3.54l-.19.79-5.45-1.47,0-.14c.31-1.33.5-2.68.69-4,.09-.63.17-1.26.29-2l.86-5.61a5.42,5.42,0,0,0,.06-.58l.3-6V322.94l0-.27,28.35-3a5.65,5.65,0,0,0,3.8-2.08,5.8,5.8,0,0,0,1.23-4.19A150,150,0,0,0,308,261.61a5.62,5.62,0,0,0-7.59-2.48l-15.08,7.78a5.73,5.73,0,0,0-2.55,7.48c.52,1.13,1.06,2.24,1.6,3.36a58,58,0,0,1,3.49,8.2l.55,1.51c.63,1.7,1.24,3.35,1.78,5l-5.53,1.49a113.47,113.47,0,0,0-12.89-27.29l22.93-16.86a5.73,5.73,0,0,0,1.24-8A147.16,147.16,0,0,0,257.22,204.63Zm3.44,56.06a5.75,5.75,0,0,0-1.24,8,102.28,102.28,0,0,1,15.91,33.69,5.65,5.65,0,0,0,6.9,4L298.59,302a5.71,5.71,0,0,0,4.07-6.7A84.63,84.63,0,0,0,299,283.49l-.46-1.23a58.3,58.3,0,0,0-3.16-7.73l5-2.6a139.24,139.24,0,0,1,10.93,37l-27.95,2.94a5.67,5.67,0,0,0-5.05,6l.28,5.53v10.91l-.27,5.37-.81,5.24c-.13.75-.23,1.49-.34,2.24-.14,1-.27,2-.46,2.88l-1.41,5.48a5.71,5.71,0,0,0,4,6.95l16.36,4.41a5.6,5.6,0,0,0,4.31-.58,5.73,5.73,0,0,0,2.62-3.5l1.65-6.51c.35-1.52.57-3.06.79-4.61.11-.73.21-1.46.35-2.28l1-7.05.05-.87,5.54.28a139.15,139.15,0,0,1-8.84,37.55l-25.66-11.56a5.62,5.62,0,0,0-7.45,2.9,102.17,102.17,0,0,1-20.93,30.87,5.77,5.77,0,0,0,0,8.06l12,12.1a5.5,5.5,0,0,0,4.15,1.67,5.63,5.63,0,0,0,4.05-1.91c1-1.15,2-2.28,3.06-3.41,2-2.14,3.91-4.29,6-6.86.86-1.22,1.77-2.41,2.67-3.61.63-.83,1.27-1.66,1.89-2.52l4.74,3.12a136.26,136.26,0,0,1-26.3,27.95l-16.55-23a5.6,5.6,0,0,0-7.88-1.26A100.37,100.37,0,0,1,203.6,428a5.62,5.62,0,0,0-3.44,2.65,5.74,5.74,0,0,0-.56,4.33L204,451.46a5.62,5.62,0,0,0,6.63,4.1,82.48,82.48,0,0,0,11.7-3.73l1.17-.44a58.84,58.84,0,0,0,7.65-3.2l2.57,5.08a135.29,135.29,0,0,1-36.64,11l-2.89-28.23a5.67,5.67,0,0,0-2-3.84A5.52,5.52,0,0,0,188,431a102.62,102.62,0,0,1-37-3,5.58,5.58,0,0,0-4.28.57,5.7,5.7,0,0,0-2.63,3.46l-4.38,16.54a5.8,5.8,0,0,0,.58,4.35,5.66,5.66,0,0,0,3.47,2.64l6.43,1.67c1.51.35,3.05.58,4.58.81.72.1,1.43.2,2.25.34l7,1.05.87.05-.29,5.6a135.68,135.68,0,0,1-37.16-8.94l11.44-25.92a5.73,5.73,0,0,0-2.7-7.46l-4.69-2.27-9.63-5.59a56,56,0,0,1-5.13-3.7c-1.2-.93-2.4-1.85-3.27-2.45-1.64-1.36-3.19-2.81-4.75-4.25-1.16-1.08-2.33-2.16-3.52-3.21a5.6,5.6,0,0,0-7.7.26l-12,12.1a5.73,5.73,0,0,0,.23,8.29c1.12,1,2.22,2,3.32,3.05,2.15,2,4.29,4,6.84,6.09,1.21.86,2.38,1.77,3.56,2.68.82.64,1.66,1.29,2.52,1.93l-3.09,4.79a135.9,135.9,0,0,1-27.66-26.59L94,397.13a5.73,5.73,0,0,0,1.25-8,102.14,102.14,0,0,1-15.91-33.7,5.66,5.66,0,0,0-6.91-4L56,355.85a5.7,5.7,0,0,0-4.06,6.7,83.44,83.44,0,0,0,3.68,11.79l.45,1.22a59.81,59.81,0,0,0,3.16,7.74l-5,2.59a138.58,138.58,0,0,1-10.93-37l27.94-2.93a5.68,5.68,0,0,0,5-6.22,105.63,105.63,0,0,1,3-37.35,5.74,5.74,0,0,0-.56-4.33,5.65,5.65,0,0,0-3.43-2.66L59,291a5.58,5.58,0,0,0-4.3.59A5.69,5.69,0,0,0,52,295l-1.66,6.51c-.34,1.52-.57,3.06-.79,4.61-.11.73-.21,1.46-.34,2.28l-1,7-.05.88-5.54-.29a139.33,139.33,0,0,1,8.84-37.55l25.66,11.56a5.54,5.54,0,0,0,4.32.11,5.65,5.65,0,0,0,3.14-3,102.26,102.26,0,0,1,20.92-30.87,5.74,5.74,0,0,0,0-8.05l-12-12.1a5.59,5.59,0,0,0-8.2.24c-1,1.15-2,2.27-3.06,3.4-2,2.15-3.91,4.3-6,6.86-.86,1.22-1.77,2.42-2.67,3.61-.63.83-1.27,1.67-1.89,2.53L67,249.68a135.75,135.75,0,0,1,26.3-28l16.55,23a5.6,5.6,0,0,0,7.89,1.25l1.31-1a18.68,18.68,0,0,1,2.77-1.91l9.24-5.41c1.08-.5,2.16-1,3.23-1.57a44.36,44.36,0,0,1,6.61-2.85l1.68-.63a56.29,56.29,0,0,1,8.17-2.62,5.64,5.64,0,0,0,3.67-2.59,5.79,5.79,0,0,0,.65-4.47l-4.38-16.53a5.63,5.63,0,0,0-6.63-4.1A83,83,0,0,0,132.31,206l-1.16.44a56.94,56.94,0,0,0-7.65,3.2l-2.57-5.08a135.18,135.18,0,0,1,36.64-11l2.89,28.23a5.68,5.68,0,0,0,2,3.84,5.55,5.55,0,0,0,4.13,1.25,102.88,102.88,0,0,1,37,3,5.58,5.58,0,0,0,4.28-.57,5.69,5.69,0,0,0,2.63-3.47l4.38-16.53a5.75,5.75,0,0,0-.58-4.35,5.66,5.66,0,0,0-3.47-2.64l-6.42-1.67c-1.52-.35-3-.59-4.59-.81-.71-.1-1.43-.21-2.24-.35l-7-1-.88-.05.29-5.6a135.3,135.3,0,0,1,37.16,8.93l-11.44,25.93a5.75,5.75,0,0,0-.11,4.37,5.66,5.66,0,0,0,3,3.17,101.33,101.33,0,0,1,30.55,21.14,5.6,5.6,0,0,0,8,0l12-12.1a5.73,5.73,0,0,0-.23-8.29c-1.12-1-2.22-2-3.32-3-2.15-2-4.29-4-6.84-6.1-1.21-.86-2.38-1.77-3.56-2.68-.82-.64-1.66-1.29-2.52-1.93l3.09-4.79A135.9,135.9,0,0,1,283.38,244Z"/><path class="cls-3" d="M177.32,237.66A90,90,0,0,0,99,283.43a91.89,91.89,0,0,0,.48,91.45c.11.2.22.4.35.59a91.64,91.64,0,0,0,23,26c.14.1.22.25.38.34l.12,0a88.88,88.88,0,0,0,108,0,.84.84,0,0,0,.14-.06,4.32,4.32,0,0,0,.39-.34,91.61,91.61,0,0,0,23-26,5.08,5.08,0,0,0,.35-.59,91.87,91.87,0,0,0,.48-91.45A89.94,89.94,0,0,0,177.32,237.66Zm-10.18,12.15L104.49,359.9a80.51,80.51,0,0,1,4.32-70.74A78.89,78.89,0,0,1,167.14,249.81ZM133.45,395.27l43.87-77.06,43.86,77.06a78.09,78.09,0,0,1-87.73,0Zm96.69-7.15-45.48-79.89a8.44,8.44,0,0,0-14.69,0l-45.48,79.89a80,80,0,0,1-13.73-16.35l66.56-117,12.91,22.62c.08.17.16.34.25.51l53.39,93.85a80.32,80.32,0,0,1-13.73,16.35Zm20-28.23-49.6-87.2c-.08-.18-.17-.35-.26-.52l-12.76-22.36a78.88,78.88,0,0,1,58.31,39.35,80.53,80.53,0,0,1,4.32,70.73Z"/><path class="cls-4" d="M596.18,33.17c-131.18,0-239,88.6-251.44,202l-74.67,29.74s-4.88,1.81-4.39,8.81a9.53,9.53,0,0,0,5.58,8.16l78.16,23.46C374.31,405.77,475.33,481,596.18,481c139.53,0,252.64-100.24,252.64-223.9S735.71,33.17,596.18,33.17Z"/><path class="cls-5" d="M596.14,0C465,0,357.14,88.6,344.7,202L270,231.7s-4.88,1.81-4.39,8.81a9.53,9.53,0,0,0,5.58,8.16l78.16,23.46C374.27,372.6,475.29,447.81,596.14,447.81c139.53,0,252.64-100.25,252.64-223.91S735.67,0,596.14,0Z"/><path class="cls-6" d="M537.73,77.27V82.4H527.57v21.89H521.5v-27Z"/><path class="cls-6" d="M553.05,102.93a15.23,15.23,0,0,1-7.62,1.8c-4.25,0-8.81-1.56-8.81-6A5,5,0,0,1,540.86,94v-.2a4.29,4.29,0,0,1-3.33-4.09c0-2.69,2.66-5.46,8.45-5.46a12.09,12.09,0,0,1,6.51,1.49l-1,3.85a10.36,10.36,0,0,0-4.57-1.13c-2.1,0-3.29.77-3.29,1.89s1.63,1.72,4.45,1.72H550v4h-1.86c-2.82,0-5,.44-5,2s1.87,2.2,3.89,2.2a13.25,13.25,0,0,0,5.2-1.2Z"/><path class="cls-6" d="M562.05,98.2c0,1.48.56,2,1.83,1.88l-.32,4.25a7.38,7.38,0,0,1-2.54.4c-3.13,0-5-1.32-5-6V84.68h6Z"/><path class="cls-6" d="M585.82,84.68c-.27,3.09-.55,8.63-.55,12.8,0,2.2.75,2.76,1.82,2.68l-.35,4.25a6.28,6.28,0,0,1-2.11.32c-2.26,0-3.65-1.2-4.2-3.56h-.08a7,7,0,0,1-6.23,3.56c-4.49,0-8.1-3.8-8.1-9.82,0-6.62,4.44-10.67,8.81-10.67a5.76,5.76,0,0,1,5.32,3h.16a20.13,20.13,0,0,1,.47-2.57Zm-10,15.24c1.75,0,3.14-1.72,3.53-3.65a15.63,15.63,0,0,0,.12-2,10.41,10.41,0,0,0-.08-1.65c-.35-2.24-1.7-3.77-3.41-3.77-2.34,0-3.81,2.61-3.81,5.7S573.64,99.92,575.78,99.92Z"/><path class="cls-6" d="M618.8,88.65c-.95,0-2.26-.08-4.21-.28l0,.2a8.47,8.47,0,0,1,2.54,6c0,7-4.76,10.14-9.88,10.14-5.68,0-10-3.68-10-10s4.09-10.47,10.75-10.47h11.16Zm-7.66,5.78c0-2.89-1.07-5.86-3.73-5.86-2.94,0-4,3-4,5.9,0,3.37,1.39,5.89,3.89,5.89C609.63,100.36,611.14,98,611.14,94.43Z"/><path class="cls-6" d="M641,94.27c0,7.18-5,10.46-10.24,10.46-5.68,0-10-3.76-10-10.1s4.13-10.39,10.36-10.39C637.05,84.24,641,88.37,641,94.27Zm-14,.2c0,3.37,1.39,5.89,4,5.89,2.34,0,3.85-2.36,3.85-5.89,0-2.93-1.11-5.9-3.85-5.9C628,88.57,627,91.58,627,94.47Z"/><path class="cls-6" d="M661.49,84.68A18.57,18.57,0,0,1,663,92.14c0,6.14-2.38,12.59-9.92,12.59-4.8,0-8.61-2.72-8.61-8.46V91.18a26.62,26.62,0,0,0-.48-6.5h5.92c.43.49.59,1.57.59,3.81v7.38c0,2.61,1.39,3.93,3.06,3.93,2.54,0,3.53-3.33,3.53-7.26a26,26,0,0,0-1.19-7.86Z"/><path class="cls-6" d="M666.21,101.09a3.56,3.56,0,1,1,3.57,3.64A3.47,3.47,0,0,1,666.21,101.09Zm1.31-5.66-.91-18.16h6.31l-.87,18.16Z"/><path class="cls-7" d="M422.67,180.32a9.32,9.32,0,0,1-2,6.25,6.55,6.55,0,0,1-5.27,2.41,6.45,6.45,0,0,1-5.21-2.41,9.49,9.49,0,0,1-2-6.25v-.22a9.49,9.49,0,0,1,2-6.25,6.39,6.39,0,0,1,5.19-2.42,6.57,6.57,0,0,1,5.29,2.42,9.39,9.39,0,0,1,2,6.25Zm-1.39-.25a8.42,8.42,0,0,0-1.6-5.36,5.2,5.2,0,0,0-4.33-2.05,5,5,0,0,0-4.23,2.05,8.6,8.6,0,0,0-1.56,5.36v.25a8.67,8.67,0,0,0,1.56,5.39,5.06,5.06,0,0,0,4.25,2,5.19,5.19,0,0,0,4.33-2,8.62,8.62,0,0,0,1.58-5.4Z"/><path class="cls-7" d="M424.81,171.5v-1.05h3.27v17.1l1.89.15v1h-5.16v-1l1.89-.15v-15.9Z"/><path class="cls-7" d="M440.82,188.73c-.09-.42-.16-.8-.2-1.11s-.05-.63-.05-1a5.51,5.51,0,0,1-1.86,1.65,5.17,5.17,0,0,1-2.61.66,4,4,0,0,1-2.85-1,3.43,3.43,0,0,1-1-2.6,3.23,3.23,0,0,1,1.5-2.79,7,7,0,0,1,4.05-1h2.78v-1.68a2.72,2.72,0,0,0-.87-2.13,3.47,3.47,0,0,0-2.42-.77,6,6,0,0,0-1.9.28,4.27,4.27,0,0,0-1.45.78l-.11,1.7h-1.15v-2.44a7.2,7.2,0,0,1,2.08-1.1,7.84,7.84,0,0,1,2.58-.42,5,5,0,0,1,3.34,1.07A3.79,3.79,0,0,1,442,180v6.23c0,.26,0,.51,0,.74a5.35,5.35,0,0,0,.08.7l1.25.08v1Zm-4.57-1a5.07,5.07,0,0,0,2.66-.7,4.2,4.2,0,0,0,1.66-1.82v-2.54h-2.8a5.15,5.15,0,0,0-3,.79,2.36,2.36,0,0,0-1.13,2,2.1,2.1,0,0,0,.7,1.64A2.79,2.79,0,0,0,436.25,187.74Zm2.36-16.52h1.7l0,.07-2.89,3h-1.24Z"/><path class="cls-7" d="M447.44,188.73H445.8v-1.95h1.64Zm-.14-5.6h-1.38V171.67h1.38Z"/><path class="cls-7" d="M468,176.73h-1.14l-.19-2.41a4.19,4.19,0,0,0-1.71-1.25,6.53,6.53,0,0,0-2.53-.45,5.15,5.15,0,0,0-3.25.92,2.76,2.76,0,0,0-1.17,2.27,2.66,2.66,0,0,0,1,2.15,9.92,9.92,0,0,0,3.64,1.52,10.49,10.49,0,0,1,4.15,1.9,3.92,3.92,0,0,1,1.42,3.15,3.8,3.8,0,0,1-1.65,3.24,6.91,6.91,0,0,1-4.21,1.21,8.63,8.63,0,0,1-3.36-.64,6.5,6.5,0,0,1-2.53-1.84v-3h1.14l.19,2.49a4.8,4.8,0,0,0,2,1.34,7.32,7.32,0,0,0,2.6.46,5.42,5.42,0,0,0,3.23-.89,2.78,2.78,0,0,0,1.23-2.36,2.86,2.86,0,0,0-1-2.28,9.31,9.31,0,0,0-3.59-1.56,11.32,11.32,0,0,1-4.2-1.83,3.67,3.67,0,0,1-1.43-3,3.8,3.8,0,0,1,1.63-3.18,6.72,6.72,0,0,1,4.18-1.23,8,8,0,0,1,3.29.64,5.71,5.71,0,0,1,2.28,1.75Z"/><path class="cls-7" d="M470.5,182.21a6.84,6.84,0,0,1,1.52-4.6,5.43,5.43,0,0,1,8.06,0,6.9,6.9,0,0,1,1.52,4.6v.38a6.86,6.86,0,0,1-1.52,4.6,5.43,5.43,0,0,1-8.06,0,6.81,6.81,0,0,1-1.52-4.6Zm1.39.38a6.13,6.13,0,0,0,1.1,3.71,3.6,3.6,0,0,0,3.07,1.5,3.55,3.55,0,0,0,3-1.5,6.07,6.07,0,0,0,1.11-3.71v-.38a6,6,0,0,0-1.11-3.68,3.85,3.85,0,0,0-6.11,0,6.1,6.1,0,0,0-1.1,3.68Z"/><path class="cls-7" d="M493.08,186.65a4.34,4.34,0,0,1-1.62,1.72A4.6,4.6,0,0,1,489,189a3.79,3.79,0,0,1-3.1-1.36,6.53,6.53,0,0,1-1.12-4.22v-6.15l-1.55-.15v-1h2.93v7.37a5.5,5.5,0,0,0,.78,3.32,2.65,2.65,0,0,0,2.22,1,4.1,4.1,0,0,0,2.52-.7,3.71,3.71,0,0,0,1.31-1.95v-7.86l-1.78-.15v-1h3.17v11.49l1.68.15v1h-2.89Z"/><path class="cls-7" d="M509.45,189a5,5,0,0,1-3.92-1.75,6.51,6.51,0,0,1-1.55-4.46v-.64a6.69,6.69,0,0,1,1.55-4.52,4.79,4.79,0,0,1,3.74-1.79,4.6,4.6,0,0,1,3.63,1.48,5.66,5.66,0,0,1,1.32,3.93v1.2h-8.86v.34a5.65,5.65,0,0,0,1.13,3.58,3.59,3.59,0,0,0,3,1.45,5.84,5.84,0,0,0,2.21-.37,4.32,4.32,0,0,0,1.56-1l.59,1a4.93,4.93,0,0,1-1.78,1.19A6.89,6.89,0,0,1,509.45,189Zm-.18-12a3.29,3.29,0,0,0-2.58,1.19,5.13,5.13,0,0,0-1.23,3l0,.06h7.35v-.36a4.07,4.07,0,0,0-1-2.76A3.27,3.27,0,0,0,509.27,177Z"/><path class="cls-7" d="M525.92,186.65a4.21,4.21,0,0,1-1.62,1.72,4.59,4.59,0,0,1-2.41.61,3.8,3.8,0,0,1-3.11-1.36,6.59,6.59,0,0,1-1.11-4.22v-6.15l-1.56-.15v-1h2.94v7.37a5.5,5.5,0,0,0,.78,3.32,2.62,2.62,0,0,0,2.22,1,4.06,4.06,0,0,0,2.51-.7,3.79,3.79,0,0,0,1.32-1.95v-7.86l-1.79-.15v-1h3.18v11.49l1.68.15v1h-2.9Z"/><path class="cls-7" d="M545.49,186.91a4.44,4.44,0,0,1-1.61,1.53,4.8,4.8,0,0,1-2.33.54,4.13,4.13,0,0,1-3.51-1.7,7.36,7.36,0,0,1-1.27-4.53v-.25a8.35,8.35,0,0,1,1.27-4.86,4.07,4.07,0,0,1,3.54-1.82,4.3,4.3,0,0,1,3.87,2.15v-6.32l-1.89-.15v-1.05h3.28v17.1l1.89.15v1H545.6Zm-7.32-4.16a6.43,6.43,0,0,0,.91,3.65,3.07,3.07,0,0,0,2.74,1.36,3.83,3.83,0,0,0,2.23-.61,4,4,0,0,0,1.4-1.67v-6a4.29,4.29,0,0,0-1.34-1.76,3.61,3.61,0,0,0-2.27-.68,3,3,0,0,0-2.75,1.52,7.53,7.53,0,0,0-.92,3.94Z"/><path class="cls-7" d="M556.4,189a5,5,0,0,1-3.92-1.75,6.46,6.46,0,0,1-1.55-4.46v-.64a6.68,6.68,0,0,1,1.54-4.52,4.8,4.8,0,0,1,3.74-1.79,4.6,4.6,0,0,1,3.63,1.48,5.62,5.62,0,0,1,1.33,3.93v1.2h-8.86v.34a5.6,5.6,0,0,0,1.13,3.58,3.59,3.59,0,0,0,3,1.45,5.79,5.79,0,0,0,2.2-.37,4.36,4.36,0,0,0,1.57-1l.59,1a5,5,0,0,1-1.79,1.19A6.8,6.8,0,0,1,556.4,189Zm-.19-12a3.29,3.29,0,0,0-2.58,1.19,5.12,5.12,0,0,0-1.22,3l0,.06h7.36v-.36a4,4,0,0,0-1-2.76A3.27,3.27,0,0,0,556.21,177Z"/><path class="cls-7" d="M573.07,177.1l-1.57.12,3.13,8.34.41,1.49h.07l.44-1.49,3.08-8.34-1.56-.12v-1h4.22v1l-1.23.1-4.43,11.53h-1.12l-4.44-11.53-1.23-.1v-1h4.23Z"/><path class="cls-7" d="M582.64,182.21a6.9,6.9,0,0,1,1.52-4.6,5.43,5.43,0,0,1,8.06,0,6.84,6.84,0,0,1,1.52,4.6v.38a6.85,6.85,0,0,1-1.51,4.6,5,5,0,0,1-4,1.79,5,5,0,0,1-4.05-1.79,6.86,6.86,0,0,1-1.52-4.6Zm1.4.38a6.07,6.07,0,0,0,1.1,3.71,3.86,3.86,0,0,0,6.11,0,6.13,6.13,0,0,0,1.1-3.71v-.38a6,6,0,0,0-1.11-3.68,3.84,3.84,0,0,0-6.1,0,6,6,0,0,0-1.1,3.68Z"/><path class="cls-7" d="M595.49,171.5v-1.05h3.27v17.1l1.89.15v1h-5.16v-1l1.9-.15v-15.9Z"/><path class="cls-7" d="M606,172.81v3.25h2.76v1.14H606v8.27a2.72,2.72,0,0,0,.44,1.76,1.49,1.49,0,0,0,1.19.52c.23,0,.44,0,.66,0s.45-.05.73-.1l.21,1a3.36,3.36,0,0,1-.84.24,6.85,6.85,0,0,1-1,.08,2.6,2.6,0,0,1-2.06-.84,4,4,0,0,1-.74-2.67V177.2h-2.15v-1.14h2.15v-3.25Z"/><path class="cls-7" d="M620,188.73c-.09-.42-.16-.8-.2-1.11a7.46,7.46,0,0,1,0-1,5.51,5.51,0,0,1-1.86,1.65,5.17,5.17,0,0,1-2.61.66,4,4,0,0,1-2.85-1,3.4,3.4,0,0,1-1-2.6,3.23,3.23,0,0,1,1.5-2.79,7,7,0,0,1,4.05-1h2.78v-1.68a2.72,2.72,0,0,0-.87-2.13,3.47,3.47,0,0,0-2.42-.77,6,6,0,0,0-1.9.28,4.27,4.27,0,0,0-1.45.78l-.11,1.7h-1.15v-2.44a7.2,7.2,0,0,1,2.08-1.1,7.84,7.84,0,0,1,2.58-.42,5,5,0,0,1,3.34,1.07,3.79,3.79,0,0,1,1.27,3.06v6.23c0,.26,0,.51,0,.74a5.35,5.35,0,0,0,.08.7l1.25.08v1Zm-4.57-1a5.07,5.07,0,0,0,2.66-.7,4.2,4.2,0,0,0,1.66-1.82v-2.54H617a5.15,5.15,0,0,0-3,.79,2.36,2.36,0,0,0-1.13,2,2.1,2.1,0,0,0,.7,1.64A2.79,2.79,0,0,0,615.44,187.74Z"/><path class="cls-7" d="M626.6,188.73H625v-1.92h1.59Z"/><path class="cls-7" d="M632,188.73h-1.59v-1.92H632Z"/><path class="cls-7" d="M637.41,188.73h-1.59v-1.92h1.59Z"/><path class="cls-7" d="M407.76,245.3l1.89-.15V230.47l-1.89-.16v-1h12.66V233h-1.23l-.1-2.55H411v6.67h7.05v1.2H411v6.81l1.89.15v1h-5.16Z"/><path class="cls-7" d="M422.56,245.3l1.89-.15v-10.3l-1.89-.15v-1h3.27v11.5l1.89.15v1h-5.16ZM425.83,230h-1.38v-2h1.38Z"/><path class="cls-7" d="M432,245.15h6.82l.11-2.4h1.24v3.58h-9.87v-1l7.56-10.44h-6.19l-.1,2.39H430.3v-3.6h9.28v1Z"/><path class="cls-7" d="M447.92,246.58a5,5,0,0,1-3.92-1.75,6.47,6.47,0,0,1-1.56-4.46v-.64a6.69,6.69,0,0,1,1.55-4.52,4.8,4.8,0,0,1,3.74-1.79,4.6,4.6,0,0,1,3.63,1.48,5.66,5.66,0,0,1,1.32,3.93V240h-8.86v.34A5.62,5.62,0,0,0,445,244a3.59,3.59,0,0,0,3,1.45,5.79,5.79,0,0,0,2.2-.37,4.36,4.36,0,0,0,1.57-1l.59,1a5,5,0,0,1-1.79,1.19A6.84,6.84,0,0,1,447.92,246.58Zm-.19-12a3.29,3.29,0,0,0-2.58,1.19,5.12,5.12,0,0,0-1.22,3l0,.06h7.35v-.36a4.07,4.07,0,0,0-1-2.76A3.27,3.27,0,0,0,447.73,234.62Z"/><path class="cls-7" d="M454.87,234.7v-1H458l.12,2.1a4.46,4.46,0,0,1,1.61-1.72,4.57,4.57,0,0,1,2.41-.61,4,4,0,0,1,2.4.71,3.92,3.92,0,0,1,1.38,2.16,4.82,4.82,0,0,1,1.61-2.1,4.25,4.25,0,0,1,2.56-.77,3.76,3.76,0,0,1,3.1,1.35,6.56,6.56,0,0,1,1.1,4.17v6.2l1.89.16v1H471v-1l1.89-.16v-6.22a5.18,5.18,0,0,0-.82-3.31,2.82,2.82,0,0,0-2.28-1,3.1,3.1,0,0,0-2.5,1,5.08,5.08,0,0,0-1.08,2.66v.18a1.22,1.22,0,0,1,0,.21v6.42l1.89.15v1h-5.17v-1l1.89-.15v-6.23a5.16,5.16,0,0,0-.83-3.29,2.83,2.83,0,0,0-2.28-1,3.47,3.47,0,0,0-2.35.75,4,4,0,0,0-1.21,2v7.72l1.89.15v1h-5.17v-1l1.89-.15v-10.3Z"/><path class="cls-7" d="M477.77,239.81a6.9,6.9,0,0,1,1.52-4.6,5.43,5.43,0,0,1,8.06,0,6.9,6.9,0,0,1,1.52,4.6v.38a6.86,6.86,0,0,1-1.52,4.6,5,5,0,0,1-4,1.79,5,5,0,0,1-4-1.79,6.86,6.86,0,0,1-1.52-4.6Zm1.39.38a6.13,6.13,0,0,0,1.1,3.71,3.61,3.61,0,0,0,3.08,1.5,3.54,3.54,0,0,0,3-1.5,6.07,6.07,0,0,0,1.11-3.71v-.38a6,6,0,0,0-1.11-3.68,3.85,3.85,0,0,0-6.11,0,6.1,6.1,0,0,0-1.1,3.68Z"/><path class="cls-7" d="M500.23,237.57H499.1l-.17-1.79a3.37,3.37,0,0,0-1.31-.86,5.16,5.16,0,0,0-1.83-.3,3.41,3.41,0,0,0-2.28.66,2,2,0,0,0-.76,1.55,1.83,1.83,0,0,0,.66,1.45,6.22,6.22,0,0,0,2.61,1,8.58,8.58,0,0,1,3.35,1.38,2.83,2.83,0,0,1,1.12,2.37,3.09,3.09,0,0,1-1.27,2.56,5.39,5.39,0,0,1-3.36,1,7.76,7.76,0,0,1-2.53-.39,5.88,5.88,0,0,1-2-1.11v-2.55h1.12l.2,1.8a3.09,3.09,0,0,0,1.41.81,6.18,6.18,0,0,0,1.78.26,3.85,3.85,0,0,0,2.38-.67,2,2,0,0,0,.87-1.62,2.06,2.06,0,0,0-.73-1.56,5.86,5.86,0,0,0-2.61-1.09,8.66,8.66,0,0,1-3.32-1.3,2.69,2.69,0,0,1-1.09-2.28,3.09,3.09,0,0,1,1.22-2.46,4.87,4.87,0,0,1,3.21-1,7,7,0,0,1,2.52.43,5.12,5.12,0,0,1,1.87,1.15Z"/><path class="cls-7" d="M518,244.25a4.27,4.27,0,0,1-1.62,1.72,4.6,4.6,0,0,1-2.42.61,3.79,3.79,0,0,1-3.1-1.36,6.61,6.61,0,0,1-1.12-4.22v-6.15l-1.55-.15v-1h2.93V241a5.42,5.42,0,0,0,.79,3.32,2.62,2.62,0,0,0,2.22,1,4.06,4.06,0,0,0,2.51-.7,3.71,3.71,0,0,0,1.31-1.95v-7.86l-1.78-.15v-1h3.18v11.5l1.68.15v1h-2.9Z"/><path class="cls-7" d="M522.78,234.7v-1h3.12l.12,2.1a4.33,4.33,0,0,1,4-2.33,3.62,3.62,0,0,1,3.78,2.87,4.92,4.92,0,0,1,1.62-2.1,4.22,4.22,0,0,1,2.55-.77,3.76,3.76,0,0,1,3.1,1.35,6.5,6.5,0,0,1,1.1,4.17v6.2l1.89.16v1H538.9v-1l1.89-.16v-6.22a5.12,5.12,0,0,0-.82-3.31,2.8,2.8,0,0,0-2.28-1,3.11,3.11,0,0,0-2.5,1,5.08,5.08,0,0,0-1.08,2.66v.18a1.22,1.22,0,0,1,0,.21v6.42l1.89.15v1h-5.17v-1l1.89-.15v-6.23a5.16,5.16,0,0,0-.83-3.29,2.81,2.81,0,0,0-2.28-1,3.47,3.47,0,0,0-2.35.75,4.11,4.11,0,0,0-1.21,2v7.72l1.89.15v1h-5.17v-1l1.89-.15v-10.3Z"/><path class="cls-7" d="M551.63,240.1a8.35,8.35,0,0,1,1.28-4.86,4.13,4.13,0,0,1,3.56-1.82,4.41,4.41,0,0,1,2.31.59,4.81,4.81,0,0,1,1.62,1.67l.16-2h1.17v12.52a5.47,5.47,0,0,1-1.31,3.87,4.74,4.74,0,0,1-3.65,1.42,9,9,0,0,1-1.93-.23,7.36,7.36,0,0,1-1.79-.61l.37-1.18A7.8,7.8,0,0,0,555,250a7.11,7.11,0,0,0,1.75.2,3.34,3.34,0,0,0,2.69-1.06,4.48,4.48,0,0,0,.9-3v-1.61a4.36,4.36,0,0,1-1.61,1.5,4.75,4.75,0,0,1-2.29.52,4.18,4.18,0,0,1-3.53-1.7,7.36,7.36,0,0,1-1.28-4.53Zm1.39.25a6.47,6.47,0,0,0,.92,3.65,3.12,3.12,0,0,0,2.76,1.36,3.93,3.93,0,0,0,2.26-.62,4,4,0,0,0,1.38-1.71v-5.88a4.39,4.39,0,0,0-1.33-1.81,3.52,3.52,0,0,0-2.29-.7,3,3,0,0,0-2.76,1.52,7.39,7.39,0,0,0-.94,3.94Z"/><path class="cls-7" d="M567.89,233.65l.17,2.11v.16a4.59,4.59,0,0,1,1.46-1.84,3.66,3.66,0,0,1,2.19-.66,2.85,2.85,0,0,1,.51,0l.41.09-.18,1.31-1-.07a3.14,3.14,0,0,0-2.16.75,4.06,4.06,0,0,0-1.2,2v7.57l1.89.15v1h-5.16v-1l1.89-.15v-10.3l-1.89-.15v-1h3.1Z"/><path class="cls-7" d="M583.09,246.33c-.09-.43-.15-.8-.19-1.11a7.46,7.46,0,0,1-.06-.95,5.33,5.33,0,0,1-1.86,1.65,5.17,5.17,0,0,1-2.61.66,4,4,0,0,1-2.85-1,3.43,3.43,0,0,1-1-2.6,3.23,3.23,0,0,1,1.5-2.79,7,7,0,0,1,4.06-1h2.77v-1.68a2.7,2.7,0,0,0-.87-2.13,3.46,3.46,0,0,0-2.41-.77,6,6,0,0,0-1.91.28,4.13,4.13,0,0,0-1.44.78l-.12,1.7h-1.15v-2.44a7.33,7.33,0,0,1,2.08-1.1,7.84,7.84,0,0,1,2.58-.42,5,5,0,0,1,3.34,1.07,3.76,3.76,0,0,1,1.27,3.06v6.23c0,.26,0,.51,0,.74a5.35,5.35,0,0,0,.07.7l1.25.08v1Zm-4.57-1a5,5,0,0,0,2.66-.7,4.14,4.14,0,0,0,1.66-1.82v-2.54H580a5.17,5.17,0,0,0-3,.79,2.35,2.35,0,0,0-1.13,2,2.14,2.14,0,0,0,.7,1.65A2.8,2.8,0,0,0,578.52,245.34Z"/><path class="cls-7" d="M587.28,245.3l1.89-.15v-10.3l-1.89-.15v-1h3.12l.13,2.22a4.33,4.33,0,0,1,4.06-2.45,3.83,3.83,0,0,1,3.1,1.26,6,6,0,0,1,1.07,3.93v6.54l1.89.15v1h-5.17v-1l1.89-.15v-6.53a4.6,4.6,0,0,0-.81-3.08,2.9,2.9,0,0,0-2.29-.9,3.57,3.57,0,0,0-2.38.78,4.38,4.38,0,0,0-1.33,2.07v7.66l1.89.15v1h-5.17Z"/><path class="cls-7" d="M611.44,244.51a4.44,4.44,0,0,1-1.61,1.53,4.79,4.79,0,0,1-2.32.54,4.15,4.15,0,0,1-3.52-1.7,7.36,7.36,0,0,1-1.27-4.53v-.25a8.35,8.35,0,0,1,1.27-4.86,4.07,4.07,0,0,1,3.54-1.82,4.47,4.47,0,0,1,2.27.56,4.56,4.56,0,0,1,1.6,1.58v-6.31l-1.89-.15v-1h3.28v17.1l1.89.15v1h-3.13Zm-7.32-4.16A6.43,6.43,0,0,0,605,244a3.07,3.07,0,0,0,2.74,1.36,3.89,3.89,0,0,0,2.24-.61,4,4,0,0,0,1.39-1.67v-6a4.29,4.29,0,0,0-1.34-1.76,3.6,3.6,0,0,0-2.26-.68,3,3,0,0,0-2.76,1.52,7.53,7.53,0,0,0-.92,3.94Z"/><path class="cls-7" d="M622.35,246.58a5,5,0,0,1-3.92-1.75,6.51,6.51,0,0,1-1.55-4.46v-.64a6.64,6.64,0,0,1,1.55-4.52,4.77,4.77,0,0,1,3.74-1.79,4.63,4.63,0,0,1,3.63,1.48,5.66,5.66,0,0,1,1.32,3.93V240h-8.86v.34a5.61,5.61,0,0,0,1.13,3.58,3.59,3.59,0,0,0,3,1.45,5.79,5.79,0,0,0,2.2-.37,4.27,4.27,0,0,0,1.57-1l.59,1a5,5,0,0,1-1.78,1.19A6.89,6.89,0,0,1,622.35,246.58Zm-.18-12a3.27,3.27,0,0,0-2.58,1.19,5.13,5.13,0,0,0-1.23,3l0,.06h7.35v-.36a4,4,0,0,0-1-2.76A3.27,3.27,0,0,0,622.17,234.62Z"/><path class="cls-7" d="M635,234.7v-1h3l.18,2a4.63,4.63,0,0,1,1.63-1.63,4.56,4.56,0,0,1,2.32-.57,4.09,4.09,0,0,1,3.54,1.82A8.35,8.35,0,0,1,647,240.1v.25a7.39,7.39,0,0,1-1.27,4.54,4.15,4.15,0,0,1-3.51,1.69,5,5,0,0,1-2.32-.51,4.26,4.26,0,0,1-1.62-1.45V250l1.89.16v1H635v-1l1.89-.16V234.85Zm10.6,5.4a7.3,7.3,0,0,0-1-3.94,3.08,3.08,0,0,0-2.78-1.52,3.61,3.61,0,0,0-2.28.67,4.28,4.28,0,0,0-1.32,1.75v6.1a3.89,3.89,0,0,0,1.38,1.64,3.94,3.94,0,0,0,2.24.6,3.13,3.13,0,0,0,2.77-1.39,6.37,6.37,0,0,0,.94-3.66Z"/><path class="cls-7" d="M648.86,229.1v-1h3.27v17.1l1.89.15v1h-5.16v-1l1.89-.15v-15.9Z"/><path class="cls-7" d="M664.88,246.33c-.09-.43-.16-.8-.2-1.11a7.46,7.46,0,0,1-.06-.95,5.38,5.38,0,0,1-1.85,1.65,5.22,5.22,0,0,1-2.61.66,4,4,0,0,1-2.86-1,3.43,3.43,0,0,1-1-2.6,3.24,3.24,0,0,1,1.49-2.79,7,7,0,0,1,4.06-1h2.77v-1.68a2.7,2.7,0,0,0-.86-2.13,3.48,3.48,0,0,0-2.42-.77,6.08,6.08,0,0,0-1.91.28,4.31,4.31,0,0,0-1.44.78l-.12,1.7h-1.15l0-2.44a7.2,7.2,0,0,1,2.08-1.1,7.84,7.84,0,0,1,2.58-.42,5,5,0,0,1,3.34,1.07,3.78,3.78,0,0,1,1.26,3.06v6.23c0,.26,0,.51,0,.74a5.35,5.35,0,0,0,.08.7l1.25.08v1Zm-4.57-1a5,5,0,0,0,2.65-.7,4.14,4.14,0,0,0,1.66-1.82v-2.54h-2.79a5.15,5.15,0,0,0-3,.79,2.33,2.33,0,0,0-1.13,2,2.1,2.1,0,0,0,.7,1.65A2.79,2.79,0,0,0,660.31,245.34Z"/><path class="cls-7" d="M669.06,245.3l1.89-.15v-10.3l-1.89-.15v-1h3.12l.13,2.22a4.33,4.33,0,0,1,4.06-2.45,3.85,3.85,0,0,1,3.11,1.26,6,6,0,0,1,1.07,3.93v6.54l1.89.15v1h-5.18v-1l1.89-.15v-6.53a4.61,4.61,0,0,0-.8-3.08,2.92,2.92,0,0,0-2.29-.9,3.58,3.58,0,0,0-2.39.78,4.36,4.36,0,0,0-1.32,2.07v7.66l1.89.15v1h-5.18Z"/><path class="cls-7" d="M690,246.58a5,5,0,0,1-3.92-1.75,6.51,6.51,0,0,1-1.55-4.46v-.64a6.64,6.64,0,0,1,1.55-4.52,4.79,4.79,0,0,1,3.74-1.79,4.62,4.62,0,0,1,3.63,1.48,5.66,5.66,0,0,1,1.32,3.93V240h-8.86v.34a5.61,5.61,0,0,0,1.13,3.58,3.59,3.59,0,0,0,3,1.45,5.88,5.88,0,0,0,2.21-.37,4.32,4.32,0,0,0,1.56-1l.59,1a4.93,4.93,0,0,1-1.78,1.19A6.89,6.89,0,0,1,690,246.58Zm-.18-12a3.29,3.29,0,0,0-2.58,1.19,5.13,5.13,0,0,0-1.23,3l0,.06h7.35v-.36a4.07,4.07,0,0,0-1-2.76A3.3,3.3,0,0,0,689.85,234.62Z"/><path class="cls-7" d="M700.82,247.38a4.41,4.41,0,0,1-.93,3,3.26,3.26,0,0,1-2.59,1.07,3.37,3.37,0,0,1-.66-.06,4.91,4.91,0,0,1-.63-.17l.15-1.18a3.5,3.5,0,0,0,.49.12,3.07,3.07,0,0,0,.57.06,2,2,0,0,0,1.63-.73,3.37,3.37,0,0,0,.58-2.12V234.85l-1.89-.15v-1h3.28Zm-.07-17.4h-1.39v-1.93h1.39Z"/><path class="cls-7" d="M712.46,246.33c-.09-.43-.16-.8-.2-1.11a7.46,7.46,0,0,1,0-.95,5.51,5.51,0,0,1-1.86,1.65,5.17,5.17,0,0,1-2.61.66,4,4,0,0,1-2.85-1,3.43,3.43,0,0,1-1-2.6,3.23,3.23,0,0,1,1.5-2.79,7,7,0,0,1,4-1h2.78v-1.68a2.7,2.7,0,0,0-.87-2.13,3.47,3.47,0,0,0-2.42-.77,6,6,0,0,0-1.9.28,4.27,4.27,0,0,0-1.45.78l-.11,1.7h-1.15v-2.44a7.2,7.2,0,0,1,2.08-1.1,7.84,7.84,0,0,1,2.58-.42,5,5,0,0,1,3.34,1.07,3.79,3.79,0,0,1,1.27,3.06v6.23c0,.26,0,.51,0,.74a5.35,5.35,0,0,0,.08.7l1.25.08v1Zm-4.57-1a5.07,5.07,0,0,0,2.66-.7,4.2,4.2,0,0,0,1.66-1.82v-2.54h-2.8a5.15,5.15,0,0,0-3,.79,2.35,2.35,0,0,0-1.13,2,2.1,2.1,0,0,0,.7,1.65A2.79,2.79,0,0,0,707.89,245.34Z"/><path class="cls-7" d="M716.6,234.7v-1h3.12l.13,2.1a4.46,4.46,0,0,1,1.61-1.72,4.51,4.51,0,0,1,2.4-.61,3.62,3.62,0,0,1,3.78,2.87,4.92,4.92,0,0,1,1.62-2.1,4.23,4.23,0,0,1,2.56-.77,3.77,3.77,0,0,1,3.1,1.35,6.56,6.56,0,0,1,1.09,4.17v6.2l1.89.16v1h-5.18v-1l1.89-.16v-6.22a5.12,5.12,0,0,0-.82-3.31,2.8,2.8,0,0,0-2.28-1,3.07,3.07,0,0,0-2.49,1,5,5,0,0,0-1.09,2.66,1.09,1.09,0,0,0,0,.18v6.63l1.89.15v1h-5.17v-1l1.89-.15v-6.23a5.16,5.16,0,0,0-.83-3.29,2.81,2.81,0,0,0-2.28-1,3.47,3.47,0,0,0-2.35.75,4.11,4.11,0,0,0-1.21,2v7.72l1.89.15v1H716.6v-1l1.89-.15v-10.3Z"/><path class="cls-7" d="M745,246.58a5,5,0,0,1-3.92-1.75,6.47,6.47,0,0,1-1.56-4.46v-.64a6.69,6.69,0,0,1,1.55-4.52,4.79,4.79,0,0,1,3.74-1.79,4.6,4.6,0,0,1,3.63,1.48,5.66,5.66,0,0,1,1.32,3.93V240h-8.86v.34a5.67,5.67,0,0,0,1.13,3.58,3.61,3.61,0,0,0,3,1.45,5.82,5.82,0,0,0,2.2-.37,4.45,4.45,0,0,0,1.57-1l.59,1a5,5,0,0,1-1.79,1.19A6.87,6.87,0,0,1,745,246.58Zm-.19-12a3.29,3.29,0,0,0-2.58,1.19,5.05,5.05,0,0,0-1.22,3l0,.06h7.35v-.36a4.07,4.07,0,0,0-1-2.76A3.27,3.27,0,0,0,744.85,234.62Z"/><path class="cls-7" d="M752,245.3l1.89-.15v-10.3L752,234.7v-1h3.12l.13,2.22a4.33,4.33,0,0,1,4.06-2.45,3.83,3.83,0,0,1,3.1,1.26,6,6,0,0,1,1.07,3.93v6.54l1.89.15v1h-5.17v-1l1.89-.15v-6.53a4.6,4.6,0,0,0-.81-3.08,2.9,2.9,0,0,0-2.29-.9,3.57,3.57,0,0,0-2.38.78,4.38,4.38,0,0,0-1.33,2.07v7.66l1.89.15v1H752Z"/><path class="cls-7" d="M770.77,230.41v3.24h2.76v1.15h-2.76v8.26a2.73,2.73,0,0,0,.45,1.77,1.48,1.48,0,0,0,1.19.52c.22,0,.44,0,.65,0s.46,0,.74-.1l.21,1a3.58,3.58,0,0,1-.85.24,6.63,6.63,0,0,1-1,.08,2.6,2.6,0,0,1-2.06-.84,4,4,0,0,1-.73-2.68V234.8h-2.16v-1.15h2.16v-3.24Z"/><path class="cls-7" d="M775.85,239.81a6.9,6.9,0,0,1,1.52-4.6,5.43,5.43,0,0,1,8.06,0,6.9,6.9,0,0,1,1.52,4.6v.38a6.85,6.85,0,0,1-1.51,4.6,5.44,5.44,0,0,1-8.07,0,6.86,6.86,0,0,1-1.52-4.6Zm1.39.38a6.13,6.13,0,0,0,1.1,3.71,3.87,3.87,0,0,0,6.12,0,6.13,6.13,0,0,0,1.1-3.71v-.38a6,6,0,0,0-1.11-3.68,3.85,3.85,0,0,0-6.11,0,6.1,6.1,0,0,0-1.1,3.68Z"/><path class="cls-7" d="M407.69,263.5v-1h3.05l.17,2a4.6,4.6,0,0,1,1.63-1.62,4.5,4.5,0,0,1,2.33-.58A4.07,4.07,0,0,1,418.4,264a8.27,8.27,0,0,1,1.28,4.86v.25a7.3,7.3,0,0,1-1.28,4.54,4.15,4.15,0,0,1-3.51,1.69,5,5,0,0,1-2.31-.51,4.26,4.26,0,0,1-1.62-1.45v5.39l1.89.16v1h-5.16v-1l1.89-.16V263.65Zm10.6,5.4a7.39,7.39,0,0,0-1-3.94,3.1,3.1,0,0,0-2.79-1.52,3.6,3.6,0,0,0-2.27.67,4.09,4.09,0,0,0-1.32,1.76V272a3.87,3.87,0,0,0,1.37,1.64,4,4,0,0,0,2.25.6,3.12,3.12,0,0,0,2.76-1.39,6.37,6.37,0,0,0,1-3.66Z"/><path class="cls-7" d="M430.6,275.14c-.09-.43-.15-.81-.19-1.12a7.46,7.46,0,0,1-.06-.95,5.45,5.45,0,0,1-1.86,1.66,5.25,5.25,0,0,1-2.6.65,4,4,0,0,1-2.86-1,3.43,3.43,0,0,1-1-2.6,3.23,3.23,0,0,1,1.5-2.79,7,7,0,0,1,4.06-1h2.77v-1.68a2.74,2.74,0,0,0-.86-2.13,3.5,3.5,0,0,0-2.42-.77,6.08,6.08,0,0,0-1.91.28,4.13,4.13,0,0,0-1.44.78l-.12,1.7h-1.15v-2.44a7.26,7.26,0,0,1,2.09-1.1,7.76,7.76,0,0,1,2.58-.42,5,5,0,0,1,3.34,1.07,3.78,3.78,0,0,1,1.26,3.06v6.23c0,.26,0,.51,0,.74a5.19,5.19,0,0,0,.07.7l1.25.08v1Zm-4.56-1a5,5,0,0,0,2.65-.7,4.14,4.14,0,0,0,1.66-1.82v-2.54h-2.8a5.17,5.17,0,0,0-3,.79,2.36,2.36,0,0,0-1.13,2,2.12,2.12,0,0,0,.7,1.64A2.81,2.81,0,0,0,426,274.14Z"/><path class="cls-7" d="M438.05,262.46l.17,2.1v.16a4.5,4.5,0,0,1,1.46-1.84,3.64,3.64,0,0,1,2.19-.66,2.85,2.85,0,0,1,.51,0l.41.09-.18,1.31-1-.07a3.12,3.12,0,0,0-2.16.75,4.06,4.06,0,0,0-1.2,2V274l1.89.15v1H435v-1l1.89-.15v-10.3L435,263.5v-1h3.1Z"/><path class="cls-7" d="M453.25,275.14a10.93,10.93,0,0,1-.19-1.12,7.46,7.46,0,0,1-.06-.95,5.55,5.55,0,0,1-1.86,1.66,5.26,5.26,0,0,1-2.61.65,4,4,0,0,1-2.85-1,3.43,3.43,0,0,1-1-2.6,3.23,3.23,0,0,1,1.5-2.79,7,7,0,0,1,4.06-1H453v-1.68a2.72,2.72,0,0,0-.87-2.13,3.46,3.46,0,0,0-2.41-.77,6,6,0,0,0-1.91.28,4.27,4.27,0,0,0-1.45.78l-.11,1.7H445.1v-2.44a7.33,7.33,0,0,1,2.08-1.1,7.84,7.84,0,0,1,2.58-.42,5,5,0,0,1,3.34,1.07,3.76,3.76,0,0,1,1.27,3.06v6.23c0,.26,0,.51,0,.74a5.19,5.19,0,0,0,.07.7l1.25.08v1Zm-4.57-1a5.07,5.07,0,0,0,2.66-.7,4.2,4.2,0,0,0,1.66-1.82v-2.54h-2.8a5.17,5.17,0,0,0-3,.79,2.36,2.36,0,0,0-1.13,2,2.12,2.12,0,0,0,.7,1.64A2.79,2.79,0,0,0,448.68,274.14Z"/><path class="cls-7" d="M477.91,275.14c-.09-.43-.16-.81-.2-1.12a7.46,7.46,0,0,1-.06-.95,5.51,5.51,0,0,1-1.85,1.66,5.32,5.32,0,0,1-2.61.65,4,4,0,0,1-2.85-1,3.4,3.4,0,0,1-1-2.6,3.24,3.24,0,0,1,1.49-2.79,7,7,0,0,1,4.06-1h2.77v-1.68a2.71,2.71,0,0,0-.86-2.13,3.48,3.48,0,0,0-2.42-.77,6.12,6.12,0,0,0-1.91.28,4.31,4.31,0,0,0-1.44.78l-.12,1.7h-1.14v-2.44a7.2,7.2,0,0,1,2.08-1.1,7.84,7.84,0,0,1,2.58-.42,5,5,0,0,1,3.34,1.07,3.78,3.78,0,0,1,1.26,3.06v6.23c0,.26,0,.51,0,.74a5.16,5.16,0,0,0,.08.7l1.25.08v1Zm-4.57-1a5,5,0,0,0,2.65-.7,4.14,4.14,0,0,0,1.66-1.82v-2.54h-2.79a5.15,5.15,0,0,0-3,.79,2.33,2.33,0,0,0-1.13,2,2.08,2.08,0,0,0,.7,1.64A2.79,2.79,0,0,0,473.34,274.14Z"/><path class="cls-7" d="M487.87,274.1l1.89-.15v-10.3l-1.89-.15v-1H491l.13,2.21a4.33,4.33,0,0,1,4.06-2.45,3.83,3.83,0,0,1,3.1,1.26,6,6,0,0,1,1.07,3.93V274l1.89.15v1h-5.17v-1L498,274v-6.53a4.6,4.6,0,0,0-.81-3.08,2.9,2.9,0,0,0-2.29-.9,3.55,3.55,0,0,0-2.38.78,4.38,4.38,0,0,0-1.33,2.07V274l1.89.15v1h-5.17Z"/><path class="cls-7" d="M503.31,268.61a6.84,6.84,0,0,1,1.52-4.6,5.43,5.43,0,0,1,8.06,0,6.89,6.89,0,0,1,1.51,4.6V269a6.85,6.85,0,0,1-1.51,4.6,5.43,5.43,0,0,1-8.06,0,6.81,6.81,0,0,1-1.52-4.6Zm1.39.38a6.07,6.07,0,0,0,1.1,3.71,3.86,3.86,0,0,0,6.11,0A6.07,6.07,0,0,0,513,269v-.38a6.1,6.1,0,0,0-1.1-3.68,3.85,3.85,0,0,0-6.11,0,6,6,0,0,0-1.1,3.68Z"/><path class="cls-7" d="M525.77,266.37h-1.14l-.16-1.79a3.48,3.48,0,0,0-1.32-.86,5.07,5.07,0,0,0-1.82-.3,3.41,3.41,0,0,0-2.28.66,2,2,0,0,0-.76,1.55,1.85,1.85,0,0,0,.65,1.45,6.27,6.27,0,0,0,2.62,1,8.58,8.58,0,0,1,3.35,1.38,2.85,2.85,0,0,1,1.11,2.37,3.08,3.08,0,0,1-1.26,2.56,5.33,5.33,0,0,1-3.36,1,7.87,7.87,0,0,1-2.54-.39,5.83,5.83,0,0,1-2-1.11v-2.55H518l.2,1.8a3.19,3.19,0,0,0,1.41.82,6.54,6.54,0,0,0,1.78.25,3.8,3.8,0,0,0,2.38-.67,2,2,0,0,0,.86-1.62,2.08,2.08,0,0,0-.72-1.56,6,6,0,0,0-2.62-1.09A8.73,8.73,0,0,1,518,268a2.71,2.71,0,0,1-1.08-2.28,3.06,3.06,0,0,1,1.22-2.46,4.93,4.93,0,0,1,3.21-1,7,7,0,0,1,2.52.43,5.07,5.07,0,0,1,1.86,1.15Z"/><path class="cls-7" d="M537.66,266.37h-1.14l-.16-1.79a3.48,3.48,0,0,0-1.32-.86,5.15,5.15,0,0,0-1.82-.3,3.37,3.37,0,0,0-2.28.66,2,2,0,0,0-.76,1.55,1.82,1.82,0,0,0,.65,1.45,6.27,6.27,0,0,0,2.62,1,8.58,8.58,0,0,1,3.35,1.38,2.85,2.85,0,0,1,1.11,2.37,3.06,3.06,0,0,1-1.27,2.56,5.29,5.29,0,0,1-3.36,1,7.81,7.81,0,0,1-2.53-.39,6,6,0,0,1-2-1.11v-2.55h1.13l.19,1.8a3.31,3.31,0,0,0,1.41.82,6.6,6.6,0,0,0,1.78.25,3.78,3.78,0,0,0,2.38-.67,2,2,0,0,0,.87-1.62,2.08,2.08,0,0,0-.72-1.56,6.08,6.08,0,0,0-2.62-1.09,8.66,8.66,0,0,1-3.32-1.3,2.72,2.72,0,0,1-1.09-2.28,3.09,3.09,0,0,1,1.22-2.46,5,5,0,0,1,3.22-1,7,7,0,0,1,2.52.43,5.07,5.07,0,0,1,1.86,1.15Z"/><path class="cls-7" d="M549.1,275.14a10.93,10.93,0,0,1-.19-1.12,7.46,7.46,0,0,1-.06-.95,5.65,5.65,0,0,1-1.86,1.66,5.26,5.26,0,0,1-2.61.65,4,4,0,0,1-2.85-1,3.43,3.43,0,0,1-1-2.6A3.23,3.23,0,0,1,542,269a7,7,0,0,1,4.06-1h2.77v-1.68a2.72,2.72,0,0,0-.87-2.13,3.46,3.46,0,0,0-2.41-.77,6,6,0,0,0-1.91.28,4.27,4.27,0,0,0-1.45.78l-.11,1.7H541v-2.44a7.33,7.33,0,0,1,2.08-1.1,7.84,7.84,0,0,1,2.58-.42,5,5,0,0,1,3.34,1.07,3.76,3.76,0,0,1,1.27,3.06v6.23c0,.26,0,.51,0,.74a5.19,5.19,0,0,0,.07.7l1.25.08v1Zm-4.57-1a5.07,5.07,0,0,0,2.66-.7,4.2,4.2,0,0,0,1.66-1.82v-2.54h-2.8a5.17,5.17,0,0,0-3,.79,2.36,2.36,0,0,0-1.13,2,2.12,2.12,0,0,0,.7,1.64A2.79,2.79,0,0,0,544.53,274.14Z"/><path class="cls-7" d="M562.86,276.18a4.45,4.45,0,0,1-.93,3,3.28,3.28,0,0,1-2.59,1.06,3.37,3.37,0,0,1-.66-.06A5.53,5.53,0,0,1,558,280l.15-1.18a3.71,3.71,0,0,0,.5.12,3.07,3.07,0,0,0,.57.06,2,2,0,0,0,1.63-.72,3.4,3.4,0,0,0,.58-2.13V263.65l-1.9-.15v-1h3.29Zm-.07-17.4H561.4v-1.93h1.39Z"/><path class="cls-7" d="M565.84,268.61a6.84,6.84,0,0,1,1.52-4.6,5.43,5.43,0,0,1,8.06,0,6.9,6.9,0,0,1,1.52,4.6V269a6.86,6.86,0,0,1-1.52,4.6,5.43,5.43,0,0,1-8.06,0,6.81,6.81,0,0,1-1.52-4.6Zm1.39.38a6.13,6.13,0,0,0,1.1,3.71,3.86,3.86,0,0,0,6.11,0,6.07,6.07,0,0,0,1.1-3.71v-.38a6,6,0,0,0-1.1-3.68,3.85,3.85,0,0,0-6.11,0,6.1,6.1,0,0,0-1.1,3.68Z"/><path class="cls-7" d="M582.2,262.46l.18,2.1v.16a4.48,4.48,0,0,1,1.45-1.84,3.66,3.66,0,0,1,2.19-.66,2.85,2.85,0,0,1,.51,0l.41.09-.18,1.31-1-.07a3.1,3.1,0,0,0-2.15.75,3.93,3.93,0,0,0-1.2,2V274l1.88.15v1H579.1v-1L581,274v-10.3l-1.9-.15v-1h3.1Z"/><path class="cls-7" d="M588.49,274.1l1.89-.15v-10.3l-1.89-.15v-1h3.12l.12,2.21a4.63,4.63,0,0,1,1.63-1.81,4.5,4.5,0,0,1,2.43-.64,3.85,3.85,0,0,1,3.11,1.26,6,6,0,0,1,1.07,3.93V274l1.89.15v1h-5.17v-1l1.89-.15v-6.53a4.6,4.6,0,0,0-.81-3.08,2.92,2.92,0,0,0-2.29-.9,3.55,3.55,0,0,0-2.38.78,4.31,4.31,0,0,0-1.33,2.07V274l1.89.15v1h-5.17Z"/><path class="cls-7" d="M612.7,275.14c-.09-.43-.16-.81-.2-1.12s0-.63,0-.95a5.65,5.65,0,0,1-1.86,1.66,5.26,5.26,0,0,1-2.61.65,4,4,0,0,1-2.85-1,3.43,3.43,0,0,1-1-2.6,3.23,3.23,0,0,1,1.5-2.79,7,7,0,0,1,4-1h2.78v-1.68a2.72,2.72,0,0,0-.87-2.13,3.47,3.47,0,0,0-2.42-.77,6,6,0,0,0-1.9.28,4.27,4.27,0,0,0-1.45.78l-.11,1.7h-1.15v-2.44a7.2,7.2,0,0,1,2.08-1.1,7.84,7.84,0,0,1,2.58-.42,5,5,0,0,1,3.34,1.07,3.79,3.79,0,0,1,1.27,3.06v6.23c0,.26,0,.51,0,.74a5.16,5.16,0,0,0,.08.7l1.25.08v1Zm-4.57-1a5.07,5.07,0,0,0,2.66-.7,4.2,4.2,0,0,0,1.66-1.82v-2.54h-2.8a5.15,5.15,0,0,0-3,.79,2.36,2.36,0,0,0-1.13,2,2.08,2.08,0,0,0,.7,1.64A2.79,2.79,0,0,0,608.13,274.14Z"/><path class="cls-7" d="M625.86,273.31a4.29,4.29,0,0,1-1.61,1.53,4.76,4.76,0,0,1-2.32.54,4.16,4.16,0,0,1-3.52-1.7,7.42,7.42,0,0,1-1.27-4.53v-.25a8.42,8.42,0,0,1,1.27-4.86,4.1,4.1,0,0,1,3.55-1.82,4.47,4.47,0,0,1,2.27.56,4.59,4.59,0,0,1,1.6,1.59v-6.32l-1.89-.15v-1h3.28V274l1.89.15v1H626Zm-7.31-4.16a6.43,6.43,0,0,0,.91,3.65,3.06,3.06,0,0,0,2.74,1.36,3.85,3.85,0,0,0,2.23-.61,4,4,0,0,0,1.4-1.67v-6a4.38,4.38,0,0,0-1.34-1.76,3.61,3.61,0,0,0-2.27-.68,3,3,0,0,0-2.75,1.52,7.44,7.44,0,0,0-.92,3.94Z"/><path class="cls-7" d="M639.91,275.14c-.09-.43-.16-.81-.2-1.12a7.46,7.46,0,0,1-.06-.95,5.51,5.51,0,0,1-1.85,1.66,5.32,5.32,0,0,1-2.61.65,4,4,0,0,1-2.85-1,3.4,3.4,0,0,1-1-2.6,3.24,3.24,0,0,1,1.49-2.79,7,7,0,0,1,4.06-1h2.77v-1.68a2.71,2.71,0,0,0-.86-2.13,3.48,3.48,0,0,0-2.42-.77,6.12,6.12,0,0,0-1.91.28,4.31,4.31,0,0,0-1.44.78l-.12,1.7h-1.14v-2.44a7.2,7.2,0,0,1,2.08-1.1,7.84,7.84,0,0,1,2.58-.42,5,5,0,0,1,3.34,1.07,3.78,3.78,0,0,1,1.26,3.06v6.23c0,.26,0,.51,0,.74a5.16,5.16,0,0,0,.08.7l1.25.08v1Zm-4.57-1a5,5,0,0,0,2.65-.7,4.14,4.14,0,0,0,1.66-1.82v-2.54h-2.79a5.15,5.15,0,0,0-3,.79,2.33,2.33,0,0,0-1.13,2,2.08,2.08,0,0,0,.7,1.64A2.79,2.79,0,0,0,635.34,274.14Z"/><path class="cls-7" d="M646.53,275.14h-1.65v-2h1.65Zm-.14-5.61H645V258.07h1.38Z"/><g class="cls-8"><path class="cls-2" d="M161.65,144.08a11.13,11.13,0,0,1,7.95,3.63,19.42,19.42,0,0,1,4.82-.63A17.54,17.54,0,0,1,187.47,153c14.34,5.38,8.65,14,8.32,14.51l.15,0s8.42,5.88,5.54,8.76c0,0,5.18,6.44,1,9.9a4.37,4.37,0,0,1-1.5.76c11.79,18.37,18.82,50.79,14.18,77.52-.92,5.3-7,9.1-23.27,9.1h0a86.71,86.71,0,0,1-15.77-1.39c.16,1.24.33,2.59.52,3.95h0c.82,5.82,2,12.44,3.31,13.42,8.31,6.24,20.71,8.82,27.68,9.83l10.09.94a25.6,25.6,0,0,1,2.24,2.55h.11c3,0,5.43,3.32,5.43,3.32l39.78,69.64L231,437.44s11.52,19.36,5.76,28.13l7.95,7.95s1.27,4.26-4.49,4.26c-1.72,0-4.14-.9-6.68-2.17a437.59,437.59,0,0,1,1.59,45.13,43,43,0,0,0-4.65-.7l0,2.94h0c-.12,20.47-.05,50,1.16,56.78,1.9,10.54,0,15.73,0,15.73s5.19,82.07,5.19,82.71,7.26,10,7.26,10,9.6,7.56,17.08,13.55h0s4.5,1.18,6.25,2.65a6.08,6.08,0,0,1,1.89,3.92c.5.34,1.32.9,2.27,1.58a24.15,24.15,0,0,0,6.49,1.21c1,1,0,2.14-1.34,3,.74.8,1.19,1.49,1.07,2-.49,1.8-7.45,9.12-20,9.12-.7,0-1.43,0-2.17-.07-13.2-.87-31.5-14.93-33-18.85a11.68,11.68,0,0,1,.19-7.9c0-3.34,2-7.34,3.14-9.34,1.72-3.11,2.94-11.93,2.94-11.93-19-66.74-8.13-76.13-10.21-81-1.32-3.07-13.07-46.76-21.46-78.19h0l0-.15c-.49-1.81-1-3.59-1.42-5.32a22.49,22.49,0,0,1-4.34-2.56A137.21,137.21,0,0,1,168.51,519l-2.41,6-22.66,56.83s-4.3,15.82-9.4,20.92a225.75,225.75,0,0,1-12.62,36.49c-8.65,19.36-12.45,46-12.45,46s6.19,15.73,6.92,25.55c7.29,10,13.83,22.29,5.15,25.92A49.81,49.81,0,0,1,102.16,740c-10.45,0-19.83-2.45-22-4.64-3.51-3.51,6.46-30.14,6.46-30.14.31-2.42,1-4.76,2.4-5.74,3.46-2.43,7.61-8.3,7.61-8.3s-1.3-3.46,2.33-8.13,9-34.61,9-38.53-4.84-33.2,11.3-44.73c0,0,1.84-37.43,6.57-64.51h0c.52-3.07,1.08-6,1.68-8.73-5,.41-7.92.46-7.92.46s4.78-13.35,10.91-30.53c-5.22-.5-1.79-8.61-1.79-8.61a42.76,42.76,0,0,0,6.13-3.61c.67-1.86,1.33-3.74,2-5.63-1.72-4.26,2.59-17.5,2.59-17.5l-15.85-11.95-46-34.74s37-87.26,38.5-88.76c1-1,8.12-5.15,13.05-8,5.15-5.16,16.23-9.24,16.23-9.24s10.55-11.93,12.79-14.18,1.22-8.47,1.22-8.47l-5.78-22.19c-10.2-6.41-14.22-13.55-14.22-13.55a5.15,5.15,0,0,1-3.76,1.51c-3.36,0-6.73-2.54-6.73-2.54s-14.64-14.64-10-21.56a4.34,4.34,0,0,1,3.79-2.09c3,0,6.61,2.48,9.14,4.62-5.19-4.54-8-5.15-9.09-5.15l-.35,0-.09.06-.07,0-.11,0,0-.11c-1.09-.54-6-3.23-6.41-7.79-8.27-2.59-6.68-7.2-6.68-7.2-7.95-5.41,0-14.12,0-14.12-3.54-3.54-.8-8.7-.8-8.7-4.15-5.88,1-13.14,1-13.14.58-6.34,10.09-10.09,10.09-10.09.75-3.17,4.67-4.67,4.67-4.67a6.93,6.93,0,0,1,6.39-3.94c.33,0,.53,0,.53,0C134.2,147.75,147.13,147,152,147c1.15,0,1.84,0,1.84,0a12.94,12.94,0,0,1,7.84-3m65,272.4L248,378l-20.3-30.17c.54,8.66.88,17.57.79,25.95a337.89,337.89,0,0,1-3,40.91,2.87,2.87,0,0,1,1.16,1.8m-78,28.67c2.07-5.91,3.87-11.08,5.21-15-2.13-4.29,1.21-6.22,2.22-6.68l.28-.93c2.07-7.61-17.47-44.93-17.47-44.93l-16.5-10.33L99.25,410.75l37,25.75,12.41,8.65M268.72,708h0M161.66,138.72h0a17.46,17.46,0,0,0-9.47,2.95H152c-7,0-18.65,1.17-24.32,8.4a12,12,0,0,0-7.61,5,13.62,13.62,0,0,0-5,4.75c-3.43,1.74-9.69,5.73-11.09,12.12-2.19,3.64-4.23,9.77-1.8,15.54a13.27,13.27,0,0,0,.26,8.07,16,16,0,0,0-2.39,9.71,12.05,12.05,0,0,0,3.45,7.11,10.1,10.1,0,0,0,.93,2.82,13.27,13.27,0,0,0,6.63,5.91,14.32,14.32,0,0,0,2.75,4.28c-2.6,4.76-1.32,11,3.82,18.53a69.55,69.55,0,0,0,7.38,9l.57.49c.8.6,5.05,3.63,10,3.63a10.83,10.83,0,0,0,2-.18A54.17,54.17,0,0,0,148.84,267L154,286.89a12.4,12.4,0,0,1,0,3.89c-2.34,2.41-9.3,10.25-11.87,13.15-3.25,1.3-11.37,4.82-16.33,9.45-12,6.91-13,7.88-13.59,8.52-1,1-1.67,1.67-20.95,46.62-9.34,21.76-18.61,43.62-18.7,43.84l1.71,6.38,46.05,34.73,12.86,9.7c-1.33,4.77-2.58,10.8-1.94,15.15l-.9,2.52a43.68,43.68,0,0,1-4,2.2l-2.64,2.75c-.72,1.72-2.89,7.66-.25,12.09a7.75,7.75,0,0,0,.51.76c-5.43,15.23-9.49,26.57-9.49,26.57l5.15,7.17,1.21,0c-.12.67-.24,1.36-.36,2.06h0c-4.09,23.42-6,53.89-6.51,62.7-14.35,12.54-12.28,37.07-11.58,45.38.07.83.15,1.76.15,2-.06,4.36-5.39,31.48-7.89,35.27A16.12,16.12,0,0,0,91,689.72a30.26,30.26,0,0,1-5.09,5.38c-2.42,1.69-3.91,4.58-4.55,8.82-.65,1.79-2.7,7.49-4.47,13.58-3.63,12.57-3.79,18.44-.55,21.67,4.07,4.08,16.07,6.21,25.81,6.21a55.15,55.15,0,0,0,21-3.73,11.48,11.48,0,0,0,7-7.64c1.72-6.15-1.14-14.17-9-25.19-1-8.72-5.12-20.23-6.6-24.18.89-5.56,4.67-27.2,11.83-43.22a233.75,233.75,0,0,0,12.61-36.1c5.07-6.21,8.7-18.54,9.6-21.78L171.08,527l1.47-3.68A142.75,142.75,0,0,0,191,516.07l.14.08.8,3,0,.08v0c18.17,68.08,20.86,76.71,21.55,78.54,0,.48-.2,1.47-.33,2.29-1.31,7.81-4.35,26,10.15,77.33-.55,3.54-1.49,7.78-2.15,9-2.29,4.12-3.56,7.8-3.78,11a16.75,16.75,0,0,0,.13,10.8c1.95,5.1,12.19,11.87,14.23,13.17,4.91,3.15,14.49,8.53,23.43,9.12.84,0,1.69.08,2.52.08,14.4,0,23.91-8.38,25.19-13.07A5.84,5.84,0,0,0,283,715a6.84,6.84,0,0,0,.7-2.36,6.54,6.54,0,0,0-2-5.33l-3.57-1.57a20.12,20.12,0,0,1-4.22-.66,10.53,10.53,0,0,0-3.21-4.81,21.88,21.88,0,0,0-7.19-3.4c-6.26-5-13.74-10.91-15.74-12.49-2.25-2.89-4.74-6.21-5.82-7.77-.26-4.24-1.24-20.09-5.06-80.53.6-2.44,1.5-8.21-.13-17.26-.84-4.68-1.24-24.55-1.09-54.59l4.69-3.35c0-.85.4-18.56-.95-37.73l.68,0c4.66,0,7.11-2,8.34-3.62A8.71,8.71,0,0,0,249.8,472l-1.34-2.26-5.41-5.41c1.28-4.71.61-10.72-2-17.94a76.51,76.51,0,0,0-4-8.92l32.89-59,0-5.27-39.78-69.64-.31-.47a14.21,14.21,0,0,0-7.06-5.17c-.4-.46-.83-.91-1.28-1.36L218.22,295l-10-.92c-6-.89-16.92-3.11-24.29-8.23a49.83,49.83,0,0,1-1.56-7.36c3.1.31,6.28.47,9.5.47,6.49,0,26.21,0,28.57-13.55,4.31-24.81-.95-56.41-12.54-77.29,2.49-3.77,1.73-8.58-.53-12.58a7.5,7.5,0,0,0,0-1.34c-.29-3.28-2.72-6.26-5.17-8.49a12.71,12.71,0,0,0-.28-6.56c-1.42-4.53-5.24-8.1-11.35-10.65a23.22,23.22,0,0,0-16.19-6.78,23.9,23.9,0,0,0-3.25.23,16,16,0,0,0-9.51-3.22ZM233,394c.42-6,.76-12.84.84-20.13q0-3.48,0-7.29l7.88,11.72L233,394Zm-126.81,15.1,18.2-34.2,10.37,6.5c1.43,2.79,5,9.77,8.38,17.3,6.36,14,7.67,19.69,7.92,21.7a9.87,9.87,0,0,0-2.78,4.05,9.63,9.63,0,0,0-.15,5.79q-1,2.85-2.25,6.51l-6.61-4.61-33.08-23Z"/><path class="cls-9" d="M222.72,698.37a11.68,11.68,0,0,0-.19,7.9c1.5,3.92,19.8,18,33,18.85,13.94.91,21.67-7.15,22.19-9s-9-8.11-9-8.11Z"/><path class="cls-9" d="M86.6,705.24s-10,26.63-6.46,30.14,25.6,7.72,40.9,1.32-16.69-39.77-16.69-39.77Z"/><path class="cls-10" d="M152.71,260.56l6.58,25.25s1,6.22-1.22,8.47-12.79,14.18-12.79,14.18l-5.88,11.59,34.06,19.36,40.64-10.89L212.89,300s-20.81-1.33-32.94-10.43c-2.39-1.79-4.41-22.6-4.41-22.6Z"/><path class="cls-11" d="M176.66,276.14c-.64-4.65-1.16-9.35-1.16-9.35l-22.83-6.39,1.83,7s7.15,4.65,9.37,5.63A43.65,43.65,0,0,0,176.66,276.14Z"/><path class="cls-10" d="M133.78,315S117.5,324.19,116,325.69s-38.5,88.76-38.5,88.76l46.05,34.74,15.85,11.95s-5,15.39-2.07,18.33-8.65,8.41-8.65,8.41-4.5,10.61,4.61,8.3,21.44-8.41,21.44-8.41l6.11-34.12L136.23,436.5l-37-25.75,23.13-43.49,16.5,10.33,20.23-14.78-14.52-36.19L138.36,313Z"/><path class="cls-10" d="M139.29,250.07s13.2,23.51,52.62,23.51c16.31,0,22.36-3.8,23.28-9.1,5.78-33.26-6.52-75.34-23.57-88.18-15-11.26-68,31.35-68,31.35L134.91,233s-11.53-12.45-16.14-5.53,10,21.56,10,21.56S135.37,254,139.29,250.07Z"/><path class="cls-10" d="M218.06,303.39c3.92-2.08,7.44,2.81,7.44,2.81l39.78,69.64L231,437.44s11.52,19.36,5.76,28.13l7.95,7.95s1.27,4.26-4.49,4.26-19.37-10.14-19.37-10.14l1.58-43.42L248,378l-23.54-35-7.36-6.52S210.75,307.26,218.06,303.39Z"/><path class="cls-10" d="M176.75,498.29l-33.31,83.54s-4.3,15.82-9.4,20.92a225.75,225.75,0,0,1-12.62,36.49c-8.65,19.36-12.45,46-12.45,46s7.87,20,6.92,29c0,0,7.52,10.38,4.49,16.34S105.51,733,105.51,733s-19.8,2.6-22.74-2.33,3.72-18.16,3.72-18.16-.95-10.54,2.51-13,7.61-8.3,7.61-8.3-1.3-3.46,2.33-8.13,9-34.61,9-38.53-4.84-33.2,11.3-44.73c0,0,3.92-79.54,15-90.6s42.54-17.64,42.54-17.64Z"/><path class="cls-12" d="M176.75,498.29,166.1,525s-14.74,6.58-18.47,7.49c-2.76.68-22.49,6.78-21.83,2.8,2.08-12.43,4.94-22.61,8.41-26.08,11.07-11.07,42.54-17.64,42.54-17.64Z"/><path class="cls-10" d="M188.62,485.92s27.9,105.36,30,110.2-8.82,14.24,10.2,81c0,0-1.21,8.82-2.93,11.93s-5.71,11.07-.7,13.84,21.27,16.6,28.19,17.81,19.88-4.84,19.88-4.84,6.92-2.6,4.76-4.76c0,0-6.31-.26-8.39-2.33S244,688.17,244,688.17s-7.26-9.34-7.26-10-5.19-82.71-5.19-82.71,1.9-5.19,0-15.73-1-77-1-77Z"/><path class="cls-12" d="M188.62,485.92l8.51,32c.75,2.8,33.28,5.05,33.28,5.05l.17-20.23Z"/><path class="cls-13" d="M188.62,506.79c5.39,10.69,43.32,12.95,46.46,13.95,0,0,1-42.95-5.07-67.08S188.62,506.79,188.62,506.79Z"/><path class="cls-14" d="M142.51,240.62c6.69,2.77.93-9.22.93-9.22s-.64-12-4-14.06a49.13,49.13,0,0,1-7.42-6.07l63.79-43.73s6.45-9-8.3-14.53a17.56,17.56,0,0,0-17.87-5.3s-6.45-7.72-15.79-.63c0,0-18.79-1.1-23.05,8.12a7,7,0,0,0-6.92,3.92s-3.92,1.5-4.67,4.67c0,0-9.51,3.75-10.09,10.09,0,0-5.18,7.26-1,13.14,0,0-2.74,5.16.8,8.7,0,0-7.95,8.71,0,14.12,0,0-2,5.65,9.69,8l3.45,7.14s3.33-1.51,12.92,8.07Z"/><path class="cls-11" d="M189,241.26a2.26,2.26,0,1,1,0-4.51c2.43,0,9.25-2.06,13.95-3.67-1.45-11.87-9-20.74-13.57-25.08a2.26,2.26,0,0,1,3.12-3.26c5.22,5,14.12,15.49,15.12,29.73l.12,1.7-1.61.58C204.81,237.21,193.38,241.26,189,241.26Z"/><path class="cls-15" d="M171.13,222.26H171a2.26,2.26,0,0,1-2.17-2.34c0-.66.39-6.46,4.51-8.66,2.62-1.4,5.89-.91,9.71,1.43a2.26,2.26,0,0,1-2.36,3.85c-2.3-1.41-4.15-1.87-5.23-1.3-1.63.87-2.08,4.06-2.12,4.86A2.26,2.26,0,0,1,171.13,222.26Z"/><path class="cls-15" d="M197.34,212.09a2.28,2.28,0,0,1-1-.22,2.26,2.26,0,0,1-1.06-3c1.53-3.2,3.52-4.91,5.94-5.06,3.93-.28,6.81,4,7.13,4.48a2.26,2.26,0,0,1-3.79,2.46c-.68-1-2.17-2.46-3.06-2.44-.48,0-1.29.71-2.15,2.5A2.25,2.25,0,0,1,197.34,212.09Z"/><path class="cls-16" d="M168.64,242.13c-.34-.51,24.61,5.85,35.48.4,0,0-1.39,19.57-10.38,20.19C184.49,263.37,174.86,258.06,168.64,242.13Z"/><g class="cls-17"><path class="cls-18" d="M166.46,244.87S189,255.68,201.29,247l-.5-5-35.08-3.6Z"/><path class="cls-19" d="M169.14,254.25s8.86-6,20.14.94-2.36,13.75-2.36,13.75Z"/></g><path class="cls-11" d="M191.26,264.28c-16.38,0-24-21.42-24-21.66l-.87-2.55,2.63.59c.23.05,23.26,5.16,34.58.48a1.5,1.5,0,0,1,1.15,2.78c-9.85,4.08-26.88,1.5-33.59.25,2.7,5.92,10.68,19.93,24.32,16.58a1.5,1.5,0,1,1,.72,2.92A20.45,20.45,0,0,1,191.26,264.28Z"/><path class="cls-11" d="M134.39,247.42s-.35-15.13-12-18.76"/><path class="cls-11" d="M122.38,367.26s10-13.37,8.66-11.34c-7.3,11.3,18.69,24.35,24.79,17.38,0,0-6.05,7.72-17,4.29Z"/><path class="cls-20" d="M145.28,308.46s-11.08,4.08-16.23,9.24c0,0,31,45,9.83,59.89,0,0,19.54,37.32,17.47,44.93S119.56,527,119.56,527s107.2-1.9,111-72l-5.07-40.35a337.89,337.89,0,0,0,3-40.91c.22-19.69-1.94-42.32-3.52-57.77a24.91,24.91,0,0,0-7.27-15.67l-10.09-.94s8,26.71-10.48,29.23C187.21,330,163.26,333.2,145.28,308.46Z"/><g class="cls-21"><path class="cls-22" d="M123.55,529.64s107.2-1.9,111-72Z"/></g><path class="cls-20" d="M145.28,308.46s-11.08,4.08-16.23,9.24c0,0,31,45,9.83,59.89,0,0,19.54,37.32,17.47,44.93S119.56,527,119.56,527s107.2-1.9,111-72l-5.07-40.35a337.89,337.89,0,0,0,3-40.91c.22-19.69-1.94-42.32-3.52-57.77a24.91,24.91,0,0,0-7.27-15.67l-10.09-.94s8,26.71-10.48,29.23C187.21,330,163.26,333.2,145.28,308.46Z"/><path class="cls-10" d="M123.55,449.19l15.85,11.95s-5,15.39-2.07,18.33-8.65,8.41-8.65,8.41-4.5,10.61,4.61,8.3,21.44-8.41,21.44-8.41l5.18-28.94s1.6-5.68-4.87-9.48c-5-2.93-18.81-12.85-18.81-12.85Z"/><path class="cls-9" d="M154,430.36s56.51,7.53,72.2-10.46c0,0,1.7-3.54-.66-5.22.34,3.33-26.55,17.81-69.16,8.65C156.35,423.33,151.2,425.17,154,430.36Z"/><circle class="cls-23" cx="200.91" cy="427.64" r="13.18"/><g class="cls-24"><path class="cls-25" d="M138.32,172.61s-5.66,6.86,1.51,11.44c2.52,1.61-7.43,9.34-7.43,9.34l-4,22.56s5.19-2.08,8.65-2.08l18.19,20.84L143.55,242l-37.23-25.1L81.53,169l31.93-29,34.93-8.13-6.14,12.16s-14.82,9.06-9.16,15.59C129.54,162.17,128.85,172,138.32,172.61Z"/></g><path class="cls-7" d="M122.17,224.94s-6.69-3-6.69-8.53,26.05-57.86,80.46-48.87c0,0,8.42,5.88,5.54,8.76,0,0,5.18,6.44,1,9.9S178.19,184.59,122.17,224.94Z"/><path class="cls-26" d="M125.11,212.73s34.81-42.42,72-36.89C197.15,175.84,162.46,177.7,125.11,212.73Z"/><path class="cls-9" d="M81.44,725.55s19.8-8.48,39.59-2a8.57,8.57,0,0,0-1.47-4.84c-1.64-2.6-26.45-6.57-37,2.12C82.56,720.84,80.31,724.08,81.44,725.55Z"/><path class="cls-9" d="M248.87,719s.77-17.44,19.85-11l.52.42a6.21,6.21,0,0,0-1.9-4c-1.75-1.47-6.25-2.65-6.25-2.65s-17.48-4.3-17.23,14.27C243.86,716,246.59,719.83,248.87,719Z"/><path class="cls-27" d="M202.36,438.65c-2.06,0-6.5-.41-9.42-3.66-2.52-2.82-3.23-6.91-2.1-12.16a2.26,2.26,0,0,1,4.42.95c-.81,3.76-.46,6.51,1,8.19,2.27,2.53,6.67,2.15,6.72,2.14a2.26,2.26,0,0,1,.47,4.49A10.21,10.21,0,0,1,202.36,438.65Z"/><path class="cls-28" d="M208.88,434.18a2.72,2.72,0,0,1-.49-.05,2.27,2.27,0,0,1-1.72-2.69c.84-3.76.5-6.52-1-8.2-2.25-2.54-6.65-2.18-6.7-2.18a2.26,2.26,0,0,1-.44-4.49c.28,0,6.72-.61,10.52,3.67,2.51,2.83,3.19,6.93,2,12.17A2.25,2.25,0,0,1,208.88,434.18Z"/><path class="cls-15" d="M167.82,208.18c.77-2.67,3.05-4.45,5.18-6.06,1.36-1,0-3.36-1.35-2.32-2.72,2.06-5.43,4.26-6.42,7.67a1.34,1.34,0,0,0,2.59.71Z"/><path class="cls-15" d="M196.3,196.17a5.74,5.74,0,0,1,4.76,1.66c1.23,1.21,3.13-.68,1.9-1.89a8.57,8.57,0,0,0-7.38-2.35c-1.7.23-1,2.81.72,2.58Z"/></g></g></g></svg>