<svg xmlns="http://www.w3.org/2000/svg" xmlns:xlink="http://www.w3.org/1999/xlink" viewBox="0 0 848.82 746.65"><defs><style>.cls-1{fill:none;}.cls-2{fill:#eaa000;}.cls-3{fill:#97d8dd;}.cls-4{fill:#027e8f;}.cls-5{fill:#65c4d1;}.cls-6{fill:#fff;}.cls-7{clip-path:url(#clip-path);}.cls-8{fill:#6d472e;}.cls-9{fill:#eac2a7;}.cls-10{fill:#c9a68f;}.cls-11{fill:#d6aa8b;}.cls-12{fill:#d6d6d6;}.cls-13{fill:#c99f4b;}.cls-14{fill:#f4f4f4;}.cls-15{clip-path:url(#clip-path-2);}.cls-16{fill:#b7b7b7;}.cls-17{fill:#c99e32;}.cls-18{clip-path:url(#clip-path-3);}.cls-19{fill:#aa7e30;}.cls-20{fill:#ddd;}.cls-21{fill:#846829;}.cls-22{fill:#e8cd95;}.cls-23{fill:#6d5f56;}.cls-24{fill:#493e38;}.cls-25{fill:#d32222;}.cls-26{fill:#fcfcfc;}</style><clipPath id="clip-path" transform="translate(-1.18)"><path class="cls-1" d="M238.76,182.77c-3.19-11.51-10-24.4-26.27-30.12-65.45-23-62.87-8.05-73.7-10-5.18-.92-26.7,12-44,37.5C81.94,199,80.87,235.93,80.87,235.93S30.66,460.48,116.71,490.19c80.43,27.77,128.74-5.05,128.74-5.05S305.66,424.57,238.76,182.77Z"/></clipPath><clipPath id="clip-path-2" transform="translate(-1.18)"><path class="cls-1" d="M187.47,508.05c5.39,10.7,43.31,13,46.45,13.95,0,0,1-42.95-5.06-67.07S187.47,508.05,187.47,508.05Z"/></clipPath><clipPath id="clip-path-3" transform="translate(-1.18)"><path class="cls-1" d="M141.36,241.89c6.68,2.76.92-9.23.92-9.23s-.63-12-4-14.06a48.68,48.68,0,0,1-7.42-6.06l17.09-11.72,46.7-32s6.46-9-8.3-14.52a17.55,17.55,0,0,0-17.86-5.3s-6.46-7.73-15.8-.64c0,0-18.79-1.09-23.05,8.13a7,7,0,0,0-6.92,3.92s-3.92,1.5-4.67,4.67c0,0-9.51,3.74-10.08,10.08,0,0-5.19,7.26-1,13.14,0,0-2.74,5.16.81,8.71,0,0-8,8.7,0,14.12,0,0-2,5.65,9.68,7.95l3.46,7.15s3.33-1.51,12.91,8.07Z"/></clipPath></defs><title>2</title><g id="Camada_2" data-name="Camada 2"><g id="Camada_1-2" data-name="Camada 1"><path class="cls-2" d="M178.5,157.82c93.46.1,169.21,76.64,169.31,171.09S272,500,178.5,500,9.18,423.4,9.18,328.91,85,157.82,178.5,157.82m0-8h0a174.9,174.9,0,0,0-69.06,14.08,176.81,176.81,0,0,0-56.36,38.4,180.13,180.13,0,0,0,0,253.22,176.62,176.62,0,0,0,56.36,38.39,176.26,176.26,0,0,0,138.11,0,176.62,176.62,0,0,0,56.36-38.39,180.08,180.08,0,0,0-.06-253.16A176.68,176.68,0,0,0,247.52,164a174.73,174.73,0,0,0-69-14.14Z" transform="translate(-1.18)"/><path class="cls-3" d="M178.49,157.82C85,157.82,9.18,234.42,9.18,328.91S85,500,178.49,500s169.32-76.6,169.32-171.09S272,157.92,178.49,157.82Zm0,330.77c-87.27,0-158-71.49-158-159.68s70.75-159.69,158-159.69,158,71.49,158,159.69S265.73,488.49,178.49,488.59Z" transform="translate(-1.18)"/><path class="cls-3" d="M258.4,204.63a5.59,5.59,0,0,0-7.81,1.66l-9.24,14.34a5.74,5.74,0,0,0-.77,4.37,5.67,5.67,0,0,0,2.57,3.61,76.27,76.27,0,0,1,6.33,4.56c1.27,1,2.54,2,3.53,2.67,1.75,1.45,3.44,3,5.11,4.54l-3.9,4a112.82,112.82,0,0,0-24.74-17.13L241,201a5.73,5.73,0,0,0,.11-4.36,5.61,5.61,0,0,0-3-3.17,146.35,146.35,0,0,0-52-12.52,5.59,5.59,0,0,0-4.08,1.45,5.73,5.73,0,0,0-1.85,3.95l-.87,17.09a5.69,5.69,0,0,0,5.33,6l5.94.3,6.33,1c.81.14,1.63.26,2.44.38,1.22.18,2.44.35,3.51.6l.78.2-1.48,5.59a114.13,114.13,0,0,0-29.89-2.45l-2.93-28.53a5.7,5.7,0,0,0-2.06-3.85,5.62,5.62,0,0,0-4.15-1.24,144.31,144.31,0,0,0-51.28,15.44,5.73,5.73,0,0,0-2.45,7.67l7.7,15.24a5.61,5.61,0,0,0,7.4,2.58c1.13-.53,2.25-1.09,3.38-1.64a57.74,57.74,0,0,1,8.07-3.51l1.44-.54c1.7-.63,3.34-1.25,5-1.81l1.46,5.52c-1.39.48-2.74,1-4.08,1.49l-1.34.51a52,52,0,0,0-8,3.44c-1,.48-1.93,1-3.4,1.66l-9.56,5.57-.65.36-16.64-23.11a5.6,5.6,0,0,0-7.89-1.25,147.55,147.55,0,0,0-36.8,39.11,5.72,5.72,0,0,0,1.65,7.89l14.19,9.34a5.63,5.63,0,0,0,7.9-1.82,74.64,74.64,0,0,1,4.49-6.38c1-1.29,2-2.59,2.65-3.59,1.45-1.77,3-3.47,4.51-5.16l3.9,4a113.35,113.35,0,0,0-17,25L52,265.73a5.63,5.63,0,0,0-7.46,2.89,150.47,150.47,0,0,0-12.38,52.56,5.68,5.68,0,0,0,5.35,6l16.91.88a5.56,5.56,0,0,0,4.07-1.44,5.71,5.71,0,0,0,1.85-3.94l.3-6,1-6.39c.15-.82.26-1.65.38-2.48.17-1.23.34-2.47.59-3.53l.19-.79,5.54,1.5a116.84,116.84,0,0,0-2.43,30.2l-28.24,3a5.69,5.69,0,0,0-5,6.27,149.65,149.65,0,0,0,15.28,51.82,5.6,5.6,0,0,0,7.59,2.48l15.07-7.78a5.74,5.74,0,0,0,2.56-7.48c-.52-1.13-1.07-2.25-1.61-3.36a60.45,60.45,0,0,1-3.49-8.2l-.55-1.51c-.63-1.7-1.23-3.35-1.77-5l5.53-1.5a113.68,113.68,0,0,0,12.88,27.3L61.13,408a5.73,5.73,0,0,0-1.24,8,147.36,147.36,0,0,0,38.7,37.19,5.59,5.59,0,0,0,4.25.81,5.65,5.65,0,0,0,3.56-2.47l9.23-14.34a5.74,5.74,0,0,0-1.79-8,72.36,72.36,0,0,1-6.33-4.55c-1.27-1-2.54-2-3.53-2.67-1.76-1.46-3.44-3-5.11-4.55l4-4c1.51,1.39,3.06,2.8,4.94,4.36,1.1.78,2.17,1.61,3.24,2.44a67.64,67.64,0,0,0,6.29,4.48l10.08,5.84.12.06L116,456.78a5.74,5.74,0,0,0,2.86,7.53,146.3,146.3,0,0,0,52,12.52h.29a5.67,5.67,0,0,0,5.63-5.41l.88-17.08a5.68,5.68,0,0,0-5.33-6l-5.94-.3-6.33-1c-.81-.14-1.63-.26-2.44-.37-1.22-.18-2.44-.36-3.51-.6l-.78-.2,1.48-5.59a114.13,114.13,0,0,0,29.89,2.45l2.93,28.53a5.7,5.7,0,0,0,2.06,3.84,5.57,5.57,0,0,0,4.15,1.24,144.29,144.29,0,0,0,51.28-15.43,5.74,5.74,0,0,0,2.46-7.67L239.85,438a5.61,5.61,0,0,0-7.39-2.58c-1.14.53-2.26,1.08-3.39,1.64a58.08,58.08,0,0,1-8.06,3.5l-1.44.55c-1.7.63-3.35,1.25-5,1.8l-1.49-5.59a110.77,110.77,0,0,0,27-13L256.8,447.5a5.61,5.61,0,0,0,7.89,1.26,147.9,147.9,0,0,0,36.81-39.11,5.78,5.78,0,0,0,.79-4.29,5.7,5.7,0,0,0-2.45-3.61l-14.19-9.33a5.61,5.61,0,0,0-7.9,1.82,76.25,76.25,0,0,1-4.49,6.38c-1,1.29-2,2.58-2.65,3.59-1.45,1.77-3,3.47-4.51,5.16l-3.9-3.95a113.58,113.58,0,0,0,16.95-25L305,392.09a5.62,5.62,0,0,0,7.45-2.89,150.31,150.31,0,0,0,12.39-52.56,5.69,5.69,0,0,0-5.35-6l-16.91-.89a5.71,5.71,0,0,0-5.92,5.39l-.3,6-1,6.39c-.15.82-.26,1.65-.38,2.47-.18,1.24-.35,2.47-.59,3.54l-.2.79-5.44-1.47,0-.14c.3-1.33.5-2.68.68-4,.09-.63.17-1.26.3-2l.86-5.61a5.42,5.42,0,0,0,.06-.58l.3-6V322.94l0-.27,28.35-3a5.68,5.68,0,0,0,3.8-2.08,5.8,5.8,0,0,0,1.23-4.19,150,150,0,0,0-15.28-51.82,5.62,5.62,0,0,0-7.59-2.48l-15.08,7.78a5.73,5.73,0,0,0-2.55,7.48c.52,1.13,1.06,2.24,1.6,3.36A58,58,0,0,1,289,286l.55,1.51c.63,1.7,1.24,3.35,1.78,5l-5.53,1.49a113.47,113.47,0,0,0-12.89-27.29l22.93-16.86a5.73,5.73,0,0,0,1.24-8A147.16,147.16,0,0,0,258.4,204.63Zm3.44,56.06a5.74,5.74,0,0,0-1.25,8,102.11,102.11,0,0,1,15.92,33.69,5.65,5.65,0,0,0,6.9,4L299.77,302a5.71,5.71,0,0,0,4.07-6.7,83.35,83.35,0,0,0-3.69-11.78l-.45-1.23a59.68,59.68,0,0,0-3.16-7.73l5-2.6a138.89,138.89,0,0,1,10.94,37l-27.95,2.94a5.67,5.67,0,0,0-5.05,6l.28,5.53v10.91l-.28,5.37-.8,5.24c-.13.75-.23,1.49-.34,2.24-.14,1-.27,2-.46,2.88l-1.41,5.48a5.71,5.71,0,0,0,4,6.95l16.36,4.41a5.61,5.61,0,0,0,4.31-.58,5.68,5.68,0,0,0,2.61-3.5l1.66-6.51c.35-1.52.57-3.06.79-4.61.11-.73.2-1.46.34-2.28l1-7.05.05-.87,5.54.28a139.15,139.15,0,0,1-8.84,37.55L278.7,367.73a5.63,5.63,0,0,0-4.32-.11,5.69,5.69,0,0,0-3.14,3,102.14,102.14,0,0,1-20.92,30.87,5.76,5.76,0,0,0,0,8.06l12,12.1a5.5,5.5,0,0,0,4.15,1.67,5.64,5.64,0,0,0,4.05-1.91c1-1.15,2-2.28,3.06-3.41,2-2.14,3.91-4.29,6-6.86.86-1.22,1.77-2.41,2.67-3.61.63-.83,1.27-1.66,1.89-2.52l4.74,3.12a136.26,136.26,0,0,1-26.3,27.95l-16.55-23a5.6,5.6,0,0,0-7.88-1.26A100.42,100.42,0,0,1,204.77,428a5.63,5.63,0,0,0-3.43,2.65,5.74,5.74,0,0,0-.56,4.33l4.37,16.53a5.64,5.64,0,0,0,6.64,4.1,82.89,82.89,0,0,0,11.7-3.73l1.17-.44a58.84,58.84,0,0,0,7.65-3.2l2.57,5.08a135.29,135.29,0,0,1-36.64,11l-2.9-28.23a5.62,5.62,0,0,0-2-3.84,5.52,5.52,0,0,0-4.13-1.25,102.62,102.62,0,0,1-37-3,5.58,5.58,0,0,0-4.28.57,5.7,5.7,0,0,0-2.63,3.46l-4.38,16.54a5.75,5.75,0,0,0,.58,4.35,5.66,5.66,0,0,0,3.47,2.64l6.43,1.67c1.51.35,3,.58,4.58.81.72.1,1.43.2,2.24.34l7,1.05.87.05-.29,5.6a135.68,135.68,0,0,1-37.16-8.94l11.44-25.92a5.73,5.73,0,0,0-2.7-7.46l-4.69-2.27-9.63-5.59a56,56,0,0,1-5.13-3.7c-1.2-.93-2.4-1.85-3.28-2.45-1.63-1.36-3.18-2.81-4.74-4.25-1.16-1.08-2.33-2.16-3.52-3.21a5.6,5.6,0,0,0-7.7.26l-12,12.1a5.73,5.73,0,0,0,.23,8.29c1.12,1,2.22,2,3.32,3.05,2.14,2,4.29,4,6.84,6.09,1.21.86,2.38,1.77,3.56,2.68.82.64,1.66,1.29,2.52,1.93l-3.09,4.79a135.9,135.9,0,0,1-27.66-26.59l22.72-16.71a5.73,5.73,0,0,0,1.25-8,102.36,102.36,0,0,1-15.92-33.7,5.64,5.64,0,0,0-6.9-4l-16.36,4.42a5.71,5.71,0,0,0-4.07,6.7,84.8,84.8,0,0,0,3.69,11.79l.45,1.22a59.81,59.81,0,0,0,3.16,7.74l-5,2.59a139,139,0,0,1-10.94-37l27.95-2.93a5.68,5.68,0,0,0,5-6.22,105.63,105.63,0,0,1,3-37.35,5.74,5.74,0,0,0-.56-4.33,5.67,5.67,0,0,0-3.44-2.66L60.13,291a5.61,5.61,0,0,0-4.31.59A5.73,5.73,0,0,0,53.2,295l-1.65,6.51c-.35,1.52-.57,3.06-.79,4.61-.11.73-.21,1.46-.34,2.28l-1,7-.05.88-5.54-.29a139.33,139.33,0,0,1,8.84-37.55l25.66,11.56a5.54,5.54,0,0,0,4.32.11,5.6,5.6,0,0,0,3.13-3,102.29,102.29,0,0,1,20.93-30.87,5.75,5.75,0,0,0,0-8.05l-12-12.1a5.59,5.59,0,0,0-8.2.24c-1,1.15-2,2.27-3.06,3.4-2,2.15-3.91,4.3-6,6.86-.87,1.22-1.77,2.42-2.67,3.61-.63.83-1.27,1.67-1.89,2.53l-4.75-3.12a136.07,136.07,0,0,1,26.31-28l16.55,23a5.6,5.6,0,0,0,7.89,1.25l1.31-1A18.68,18.68,0,0,1,123,243l9.23-5.41c1.09-.5,2.16-1,3.24-1.57A43.92,43.92,0,0,1,142,233.2l1.68-.63a56.29,56.29,0,0,1,8.17-2.62,5.64,5.64,0,0,0,3.67-2.59,5.79,5.79,0,0,0,.65-4.47l-4.38-16.53a5.63,5.63,0,0,0-6.63-4.1A83,83,0,0,0,133.49,206l-1.16.44a56.94,56.94,0,0,0-7.65,3.2l-2.57-5.08a135.18,135.18,0,0,1,36.64-11l2.89,28.23a5.64,5.64,0,0,0,2,3.84,5.55,5.55,0,0,0,4.13,1.25,102.88,102.88,0,0,1,37,3,5.58,5.58,0,0,0,4.28-.57,5.73,5.73,0,0,0,2.63-3.47l4.37-16.53a5.8,5.8,0,0,0-.57-4.35,5.66,5.66,0,0,0-3.47-2.64l-6.42-1.67c-1.52-.35-3.05-.59-4.59-.81-.72-.1-1.43-.21-2.25-.35l-7-1-.87-.05.29-5.6a135.3,135.3,0,0,1,37.16,8.93l-11.44,25.93a5.75,5.75,0,0,0-.11,4.37,5.66,5.66,0,0,0,3,3.17,101.33,101.33,0,0,1,30.55,21.14,5.6,5.6,0,0,0,8,0l12-12.1a5.73,5.73,0,0,0-.23-8.29c-1.12-1-2.22-2-3.32-3-2.15-2-4.29-4-6.84-6.1-1.21-.86-2.38-1.77-3.56-2.68-.82-.64-1.66-1.29-2.52-1.93l3.09-4.79A135.9,135.9,0,0,1,284.56,244Z" transform="translate(-1.18)"/><path class="cls-3" d="M178.49,237.66a90,90,0,0,0-78.36,45.77,91.9,91.9,0,0,0,.49,91.45c.11.2.22.4.35.59a91.61,91.61,0,0,0,23,26c.15.1.23.25.39.34s.08,0,.12,0a88.86,88.86,0,0,0,108,0,.67.67,0,0,0,.15-.06c.16-.09.24-.24.38-.34a91.49,91.49,0,0,0,23-26c.13-.19.24-.39.35-.59a91.87,91.87,0,0,0,.48-91.45A90,90,0,0,0,178.49,237.66Zm-10.17,12.15L105.67,359.9A80.51,80.51,0,0,1,110,289.16,78.89,78.89,0,0,1,168.32,249.81ZM134.63,395.27l43.86-77.06,43.87,77.06a78.09,78.09,0,0,1-87.73,0Zm96.69-7.15-45.48-79.89a8.44,8.44,0,0,0-14.69,0l-45.48,79.89a80,80,0,0,1-13.73-16.35l66.56-117,12.91,22.62c.07.17.16.34.25.51l53.39,93.85a80.32,80.32,0,0,1-13.73,16.35Zm20-28.23-49.6-87.2a5.12,5.12,0,0,0-.27-.52l-12.75-22.36A78.88,78.88,0,0,1,247,289.16a80.49,80.49,0,0,1,4.31,70.73Z" transform="translate(-1.18)"/><path class="cls-4" d="M597.35,33.17c-131.17,0-239,88.6-251.43,202l-74.67,29.74s-4.88,1.81-4.39,8.81a9.53,9.53,0,0,0,5.58,8.16L350.6,305.3C375.49,405.77,476.51,481,597.35,481,736.89,481,850,380.73,850,257.07S736.89,33.17,597.35,33.17Z" transform="translate(-1.18)"/><path class="cls-5" d="M597.31,0c-131.17,0-239,88.6-251.43,202L271.21,231.7s-4.88,1.81-4.39,8.81a9.53,9.53,0,0,0,5.58,8.16l78.16,23.46C375.45,372.6,476.47,447.81,597.31,447.81,736.85,447.81,850,347.56,850,223.9S736.85,0,597.31,0Z" transform="translate(-1.18)"/><path class="cls-6" d="M420.64,127v1l-1.89.15v11a5,5,0,0,1-1.38,3.71,4.82,4.82,0,0,1-3.55,1.37,5.4,5.4,0,0,1-3.76-1.24,4.48,4.48,0,0,1-1.32-3.63l0-.07h1.3a3.39,3.39,0,0,0,3.76,3.76,3.33,3.33,0,0,0,2.54-1.06,4,4,0,0,0,1-2.84v-11l-1.89-.15v-1h5.17Z" transform="translate(-1.18)"/><path class="cls-6" d="M431.33,144.06c-.09-.43-.16-.8-.2-1.12a7.46,7.46,0,0,1-.05-.95,5.65,5.65,0,0,1-1.86,1.66,5.26,5.26,0,0,1-2.61.65,4,4,0,0,1-2.85-1,3.4,3.4,0,0,1-1-2.6,3.24,3.24,0,0,1,1.49-2.79,7.06,7.06,0,0,1,4.06-1h2.78v-1.68a2.72,2.72,0,0,0-.87-2.13,3.51,3.51,0,0,0-2.42-.77,5.74,5.74,0,0,0-1.9.29,4.43,4.43,0,0,0-1.45.77l-.11,1.7h-1.15v-2.43a7.21,7.21,0,0,1,2.08-1.11,7.84,7.84,0,0,1,2.58-.42,5,5,0,0,1,3.34,1.07,3.79,3.79,0,0,1,1.27,3.06v6.23c0,.26,0,.51,0,.75a5.2,5.2,0,0,0,.08.69l1.25.09v1Zm-4.57-1a5,5,0,0,0,2.66-.7,4.26,4.26,0,0,0,1.66-1.82V138h-2.8a5.15,5.15,0,0,0-3,.79,2.37,2.37,0,0,0-1.13,2,2.07,2.07,0,0,0,.7,1.64A2.79,2.79,0,0,0,426.76,143.06Zm2.36-16.52h1.7l0,.07-2.88,3h-1.24Z" transform="translate(-1.18)"/><path class="cls-6" d="M447.08,144.3a5,5,0,0,1-3.92-1.75,6.45,6.45,0,0,1-1.56-4.46v-.64a6.64,6.64,0,0,1,1.55-4.51,4.78,4.78,0,0,1,3.74-1.8,4.6,4.6,0,0,1,3.63,1.48,5.69,5.69,0,0,1,1.33,3.94v1.19H443v.34a5.6,5.6,0,0,0,1.14,3.58,3.56,3.56,0,0,0,3,1.45,6,6,0,0,0,2.2-.36,4.38,4.38,0,0,0,1.57-1l.59,1a5,5,0,0,1-1.79,1.19A6.64,6.64,0,0,1,447.08,144.3Zm-.19-12a3.29,3.29,0,0,0-2.58,1.19,5.12,5.12,0,0,0-1.22,3l0,.06h7.36v-.35a4.1,4.1,0,0,0-1-2.77A3.27,3.27,0,0,0,446.89,132.34Z" transform="translate(-1.18)"/><path class="cls-6" d="M463.43,135.29h-1.14l-.16-1.79a3.56,3.56,0,0,0-1.31-.86,5.16,5.16,0,0,0-1.83-.3,3.41,3.41,0,0,0-2.28.66,2,2,0,0,0-.76,1.55,1.86,1.86,0,0,0,.66,1.46,6.32,6.32,0,0,0,2.61,1,8.58,8.58,0,0,1,3.35,1.38,2.86,2.86,0,0,1,1.12,2.37,3.09,3.09,0,0,1-1.27,2.56,5.33,5.33,0,0,1-3.36,1,7.87,7.87,0,0,1-2.54-.39,5.83,5.83,0,0,1-2-1.11v-2.55h1.12l.2,1.8a3.19,3.19,0,0,0,1.41.82,6.18,6.18,0,0,0,1.78.25,3.8,3.8,0,0,0,2.38-.67,2,2,0,0,0,.87-1.62,2.06,2.06,0,0,0-.73-1.55,5.75,5.75,0,0,0-2.61-1.09,8.87,8.87,0,0,1-3.33-1.31,2.68,2.68,0,0,1-1.08-2.28,3.09,3.09,0,0,1,1.22-2.46,4.93,4.93,0,0,1,3.21-1,7.24,7.24,0,0,1,2.52.43,5.21,5.21,0,0,1,1.86,1.15Z" transform="translate(-1.18)"/><path class="cls-6" d="M469.4,128.13v3.25h2.76v1.15H469.4v8.26a2.7,2.7,0,0,0,.45,1.76,1.48,1.48,0,0,0,1.19.52c.22,0,.44,0,.65,0s.46,0,.74-.1l.21,1.05a3.47,3.47,0,0,1-.85.23,5.51,5.51,0,0,1-1,.08,2.58,2.58,0,0,1-2.06-.84,4,4,0,0,1-.74-2.67v-8.26h-2.16v-1.15H468v-3.25Z" transform="translate(-1.18)"/><path class="cls-6" d="M474.48,137.53a6.85,6.85,0,0,1,1.52-4.59,5.41,5.41,0,0,1,8.06,0,6.85,6.85,0,0,1,1.52,4.59v.39a6.89,6.89,0,0,1-1.51,4.6,5.46,5.46,0,0,1-8.07,0,6.9,6.9,0,0,1-1.52-4.6Zm1.39.39a6.06,6.06,0,0,0,1.11,3.7,3.86,3.86,0,0,0,6.11,0,6.12,6.12,0,0,0,1.1-3.7v-.39a6,6,0,0,0-1.11-3.68,3.84,3.84,0,0,0-6.1,0,6,6,0,0,0-1.11,3.68Z" transform="translate(-1.18)"/><path class="cls-6" d="M497.06,142a4.21,4.21,0,0,1-1.62,1.72,4.59,4.59,0,0,1-2.41.61,3.8,3.8,0,0,1-3.11-1.36,6.59,6.59,0,0,1-1.11-4.22v-6.15l-1.56-.15v-1h2.93v7.37a5.54,5.54,0,0,0,.79,3.33,2.64,2.64,0,0,0,2.22,1,4.06,4.06,0,0,0,2.51-.7,3.8,3.8,0,0,0,1.32-1.94v-7.87l-1.79-.15v-1h3.18v11.49l1.68.16v1h-2.9Z" transform="translate(-1.18)"/><path class="cls-6" d="M513.26,143.12a4,4,0,0,0,2.44-.8,2.63,2.63,0,0,0,1.06-2.21H518l0,.07a3.5,3.5,0,0,1-1.39,2.94,5.12,5.12,0,0,1-3.36,1.18,4.76,4.76,0,0,1-3.95-1.77,7.14,7.14,0,0,1-1.4-4.57v-.49a7.12,7.12,0,0,1,1.4-4.55,4.76,4.76,0,0,1,3.94-1.78,6.46,6.46,0,0,1,2.66.55,5.29,5.29,0,0,1,2,1.5l.06,2.77h-1.19l-.22-2.25a3.9,3.9,0,0,0-1.38-1,4.55,4.55,0,0,0-1.89-.37,3.31,3.31,0,0,0-3,1.46,6.45,6.45,0,0,0-1,3.67V138a6.62,6.62,0,0,0,1,3.71A3.36,3.36,0,0,0,513.26,143.12Z" transform="translate(-1.18)"/><path class="cls-6" d="M520.59,137.53a6.85,6.85,0,0,1,1.52-4.59,5.41,5.41,0,0,1,8.06,0,6.8,6.8,0,0,1,1.52,4.59v.39a6.89,6.89,0,0,1-1.51,4.6,5,5,0,0,1-4,1.78,5.07,5.07,0,0,1-4-1.78,6.9,6.9,0,0,1-1.52-4.6Zm1.4.39a6.06,6.06,0,0,0,1.1,3.7,3.86,3.86,0,0,0,6.11,0,6.12,6.12,0,0,0,1.1-3.7v-.39a6,6,0,0,0-1.11-3.68,3.84,3.84,0,0,0-6.1,0,6,6,0,0,0-1.1,3.68Z" transform="translate(-1.18)"/><path class="cls-6" d="M537,131.38l.17,2.11v.15a4.57,4.57,0,0,1,1.46-1.84,3.63,3.63,0,0,1,2.18-.66,4.38,4.38,0,0,1,.52,0l.41.09-.18,1.31-1-.07a3.11,3.11,0,0,0-2.15.75,4.11,4.11,0,0,0-1.2,2v7.57L539,143v1h-5.16v-1l1.89-.16v-10.3l-1.89-.15v-1H537Z" transform="translate(-1.18)"/><path class="cls-6" d="M546.5,131.38l.18,2.11v.15a4.55,4.55,0,0,1,1.45-1.84,3.69,3.69,0,0,1,2.19-.66,4.06,4.06,0,0,1,.51,0l.42.09-.19,1.31-1-.07a3.1,3.1,0,0,0-2.15.75,4.11,4.11,0,0,0-1.2,2v7.57l1.89.16v1h-5.16v-1l1.89-.16v-10.3l-1.89-.15v-1h3.09Z" transform="translate(-1.18)"/><path class="cls-6" d="M558.35,144.3a5,5,0,0,1-3.92-1.75,6.49,6.49,0,0,1-1.55-4.46v-.64a6.64,6.64,0,0,1,1.55-4.51,4.77,4.77,0,0,1,3.74-1.8,4.6,4.6,0,0,1,3.63,1.48,5.69,5.69,0,0,1,1.32,3.94v1.19h-8.86v.34a5.65,5.65,0,0,0,1.13,3.58,3.56,3.56,0,0,0,3,1.45,6.05,6.05,0,0,0,2.21-.36,4.34,4.34,0,0,0,1.56-1l.59,1a4.93,4.93,0,0,1-1.78,1.19A6.7,6.7,0,0,1,558.35,144.3Zm-.18-12a3.29,3.29,0,0,0-2.58,1.19,5.13,5.13,0,0,0-1.23,3l0,.06h7.35v-.35a4.1,4.1,0,0,0-1-2.77A3.27,3.27,0,0,0,558.17,132.34Z" transform="translate(-1.18)"/><path class="cls-6" d="M565.35,143l1.89-.16v-10.3l-1.89-.15v-1h3.12l.12,2.21a4.33,4.33,0,0,1,4.06-2.45,3.85,3.85,0,0,1,3.11,1.26,6,6,0,0,1,1.07,3.93v6.54l1.89.16v1h-5.17v-1l1.89-.16v-6.52a4.64,4.64,0,0,0-.81-3.09,2.92,2.92,0,0,0-2.29-.9,3.55,3.55,0,0,0-2.38.78,4.31,4.31,0,0,0-1.33,2.07v7.66l1.89.16v1h-5.17Z" transform="translate(-1.18)"/><path class="cls-6" d="M589.5,142.23a4.29,4.29,0,0,1-1.61,1.53,4.76,4.76,0,0,1-2.32.54,4.13,4.13,0,0,1-3.52-1.7,7.42,7.42,0,0,1-1.27-4.53v-.25a8.42,8.42,0,0,1,1.27-4.86,4.1,4.1,0,0,1,3.55-1.82,4.47,4.47,0,0,1,2.27.56,4.59,4.59,0,0,1,1.6,1.59V127l-1.89-.15v-1h3.28v17.09l1.89.16v1h-3.13Zm-7.31-4.16a6.43,6.43,0,0,0,.91,3.65,3.06,3.06,0,0,0,2.74,1.36,3.85,3.85,0,0,0,2.23-.61,4,4,0,0,0,1.4-1.67v-6a4.38,4.38,0,0,0-1.34-1.76,3.61,3.61,0,0,0-2.27-.68,3,3,0,0,0-2.75,1.52,7.46,7.46,0,0,0-.92,3.94Z" transform="translate(-1.18)"/><path class="cls-6" d="M594.89,137.53a6.84,6.84,0,0,1,1.51-4.59,5.41,5.41,0,0,1,8.06,0,6.8,6.8,0,0,1,1.52,4.59v.39a6.89,6.89,0,0,1-1.51,4.6,5,5,0,0,1-4,1.78,5.07,5.07,0,0,1-4.05-1.78,6.89,6.89,0,0,1-1.51-4.6Zm1.39.39a6.06,6.06,0,0,0,1.1,3.7,3.86,3.86,0,0,0,6.11,0,6.06,6.06,0,0,0,1.1-3.7v-.39a6,6,0,0,0-1.11-3.68,3.84,3.84,0,0,0-6.1,0,6,6,0,0,0-1.1,3.68Z" transform="translate(-1.18)"/><path class="cls-6" d="M613.82,132.53v-1.15h2.08v-1.85a4.26,4.26,0,0,1,1-3,3.43,3.43,0,0,1,2.66-1,5.06,5.06,0,0,1,.76.06,8.08,8.08,0,0,1,.8.16l-.17,1.16-.57-.11a4.58,4.58,0,0,0-.69,0,2.14,2.14,0,0,0-1.74.73,3,3,0,0,0-.61,2v1.85h3v1.15h-3v10.34l1.89.16v1H614v-1l1.89-.16V132.53Z" transform="translate(-1.18)"/><path class="cls-6" d="M631.09,144.06c-.09-.43-.16-.8-.2-1.12a7.46,7.46,0,0,1,0-.95,5.65,5.65,0,0,1-1.86,1.66,5.26,5.26,0,0,1-2.61.65,4,4,0,0,1-2.85-1,3.43,3.43,0,0,1-1-2.6A3.23,3.23,0,0,1,624,138a7,7,0,0,1,4-1h2.78v-1.68a2.72,2.72,0,0,0-.87-2.13,3.51,3.51,0,0,0-2.42-.77,5.74,5.74,0,0,0-1.9.29,4.43,4.43,0,0,0-1.45.77l-.11,1.7h-1.15v-2.43a7.21,7.21,0,0,1,2.08-1.11,7.84,7.84,0,0,1,2.58-.42,5,5,0,0,1,3.34,1.07,3.79,3.79,0,0,1,1.27,3.06v6.23c0,.26,0,.51,0,.75a5.2,5.2,0,0,0,.08.69l1.25.09v1Zm-4.57-1a5,5,0,0,0,2.66-.7,4.2,4.2,0,0,0,1.66-1.82V138H628a5.15,5.15,0,0,0-3,.79,2.37,2.37,0,0,0-1.13,2,2.07,2.07,0,0,0,.7,1.64A2.79,2.79,0,0,0,626.52,143.06Z" transform="translate(-1.18)"/><path class="cls-6" d="M637.46,142.87h6.82l.1-2.4h1.24v3.59h-9.87v-1l7.56-10.45h-6.19L637,135h-1.24v-3.59h9.28v1Z" transform="translate(-1.18)"/><path class="cls-6" d="M653.53,132.42v-1h3.12l.13,2.09a4.46,4.46,0,0,1,1.61-1.72,4.6,4.6,0,0,1,2.4-.61,3.62,3.62,0,0,1,3.78,2.87,4.92,4.92,0,0,1,1.62-2.1,4.23,4.23,0,0,1,2.56-.77,3.77,3.77,0,0,1,3.1,1.35,6.56,6.56,0,0,1,1.09,4.17v6.2l1.89.17v1h-5.18v-1l1.89-.17v-6.22a5.14,5.14,0,0,0-.82-3.31,2.8,2.8,0,0,0-2.28-1,3.07,3.07,0,0,0-2.49,1,5,5,0,0,0-1.09,2.66,1,1,0,0,0,0,.18v6.63l1.89.16v1h-5.17v-1l1.89-.16v-6.23a5.16,5.16,0,0,0-.83-3.29,2.81,2.81,0,0,0-2.28-1,3.42,3.42,0,0,0-2.35.76,4,4,0,0,0-1.21,2v7.72l1.89.16v1h-5.17v-1l1.89-.16v-10.3Z" transform="translate(-1.18)"/><path class="cls-6" d="M685.21,144.06c-.09-.43-.15-.8-.19-1.12A7.46,7.46,0,0,1,685,142a5.45,5.45,0,0,1-1.86,1.66,5.26,5.26,0,0,1-2.61.65,4,4,0,0,1-2.85-1,3.43,3.43,0,0,1-1-2.6,3.23,3.23,0,0,1,1.5-2.79,7,7,0,0,1,4.06-1H685v-1.68a2.74,2.74,0,0,0-.86-2.13,3.55,3.55,0,0,0-2.42-.77,5.8,5.8,0,0,0-1.91.29,4.28,4.28,0,0,0-1.44.77l-.12,1.7h-1.15v-2.43a7.35,7.35,0,0,1,2.08-1.11,7.84,7.84,0,0,1,2.58-.42,5,5,0,0,1,3.34,1.07,3.76,3.76,0,0,1,1.27,3.06v6.23c0,.26,0,.51,0,.75a5.2,5.2,0,0,0,.07.69l1.25.09v1Zm-4.57-1a5,5,0,0,0,2.66-.7,4.14,4.14,0,0,0,1.66-1.82V138h-2.8a5.17,5.17,0,0,0-3,.79,2.37,2.37,0,0,0-1.13,2,2.1,2.1,0,0,0,.7,1.64A2.8,2.8,0,0,0,680.64,143.06Z" transform="translate(-1.18)"/><path class="cls-6" d="M689.56,143l1.89-.16v-10.3l-1.89-.15v-1h3.27v11.49l1.89.16v1h-5.16Zm3.27-15.29h-1.38v-2h1.38Z" transform="translate(-1.18)"/><path class="cls-6" d="M706.16,135.29H705l-.16-1.79a3.6,3.6,0,0,0-1.32-.86,5.15,5.15,0,0,0-1.82-.3,3.37,3.37,0,0,0-2.28.66,2,2,0,0,0-.76,1.55,1.88,1.88,0,0,0,.65,1.46,6.44,6.44,0,0,0,2.62,1,8.58,8.58,0,0,1,3.35,1.38,2.85,2.85,0,0,1,1.11,2.37,3.06,3.06,0,0,1-1.27,2.56,5.28,5.28,0,0,1-3.35,1,7.83,7.83,0,0,1-2.54-.39,5.83,5.83,0,0,1-2-1.11v-2.55h1.12l.2,1.8a3.19,3.19,0,0,0,1.41.82,6.13,6.13,0,0,0,1.78.25,3.77,3.77,0,0,0,2.37-.67,2,2,0,0,0,.87-1.62,2,2,0,0,0-.72-1.55,5.79,5.79,0,0,0-2.62-1.09,8.82,8.82,0,0,1-3.32-1.31,2.68,2.68,0,0,1-1.08-2.28,3.08,3.08,0,0,1,1.21-2.46,5,5,0,0,1,3.22-1,7.24,7.24,0,0,1,2.52.43,5.21,5.21,0,0,1,1.86,1.15Z" transform="translate(-1.18)"/><path class="cls-6" d="M723.44,142.23a4.44,4.44,0,0,1-1.61,1.53,4.76,4.76,0,0,1-2.32.54,4.12,4.12,0,0,1-3.52-1.7,7.36,7.36,0,0,1-1.27-4.53v-.25A8.35,8.35,0,0,1,716,133a4.07,4.07,0,0,1,3.54-1.82,4.3,4.3,0,0,1,3.87,2.15V127l-1.89-.15v-1h3.29v17.09l1.88.16v1h-3.13Zm-7.32-4.16a6.43,6.43,0,0,0,.91,3.65,3.07,3.07,0,0,0,2.74,1.36,3.89,3.89,0,0,0,2.24-.61,4,4,0,0,0,1.39-1.67v-6a4.29,4.29,0,0,0-1.34-1.76,3.6,3.6,0,0,0-2.26-.68,3,3,0,0,0-2.76,1.52,7.56,7.56,0,0,0-.92,3.94Z" transform="translate(-1.18)"/><path class="cls-6" d="M734.35,144.3a5,5,0,0,1-3.92-1.75,6.49,6.49,0,0,1-1.55-4.46v-.64a6.59,6.59,0,0,1,1.55-4.51,4.75,4.75,0,0,1,3.74-1.8,4.63,4.63,0,0,1,3.63,1.48,5.69,5.69,0,0,1,1.32,3.94v1.19h-8.86v.34a5.6,5.6,0,0,0,1.13,3.58,3.56,3.56,0,0,0,3,1.45,6.09,6.09,0,0,0,2.21-.36,4.34,4.34,0,0,0,1.56-1l.59,1a5,5,0,0,1-1.78,1.19A6.7,6.7,0,0,1,734.35,144.3Zm-.18-12a3.27,3.27,0,0,0-2.58,1.19,5.13,5.13,0,0,0-1.23,3l0,.06h7.35v-.35a4.05,4.05,0,0,0-1-2.77A3.27,3.27,0,0,0,734.17,132.34Z" transform="translate(-1.18)"/><path class="cls-6" d="M747.57,143l3-.16V128.48l-3.33.48v-1l4.72-1v15.92l3,.16v1h-7.45Z" transform="translate(-1.18)"/><path class="cls-6" d="M408.83,155.62v-1h3.27v7.76a4.72,4.72,0,0,1,1.67-1.76,4.56,4.56,0,0,1,2.44-.64,3.81,3.81,0,0,1,3,1.24,5.85,5.85,0,0,1,1.06,3.86v6.63l1.89.16v1H417v-1l1.89-.16V165a4.42,4.42,0,0,0-.8-3,2.84,2.84,0,0,0-2.23-.9,3.69,3.69,0,0,0-2.38.76,4.33,4.33,0,0,0-1.41,2v7.74l1.89.16v1h-5.16v-1l1.89-.16v-15.9Z" transform="translate(-1.18)"/><path class="cls-6" d="M424.17,166.33a6.85,6.85,0,0,1,1.52-4.59,5.41,5.41,0,0,1,8.06,0,6.8,6.8,0,0,1,1.52,4.59v.39a6.89,6.89,0,0,1-1.51,4.6,5,5,0,0,1-4,1.78,5.07,5.07,0,0,1-4.05-1.78,6.9,6.9,0,0,1-1.52-4.6Zm1.4.39a6.06,6.06,0,0,0,1.1,3.7,3.86,3.86,0,0,0,6.11,0,6.12,6.12,0,0,0,1.1-3.7v-.39a6,6,0,0,0-1.11-3.68,3.84,3.84,0,0,0-6.1,0,6,6,0,0,0-1.1,3.68Z" transform="translate(-1.18)"/><path class="cls-6" d="M440.54,160.18l.17,2.11v.15a4.57,4.57,0,0,1,1.46-1.84,3.63,3.63,0,0,1,2.18-.66,4.38,4.38,0,0,1,.52,0l.41.09-.18,1.31-1-.07a3.11,3.11,0,0,0-2.15.75,4.11,4.11,0,0,0-1.2,2v7.57l1.89.16v1h-5.16v-1l1.89-.16v-10.3l-1.89-.15v-1h3.1Z" transform="translate(-1.18)"/><path class="cls-6" d="M455.74,172.86c-.09-.43-.16-.8-.2-1.12s-.05-.63-.05-1a5.65,5.65,0,0,1-1.86,1.66,5.26,5.26,0,0,1-2.61.65,4,4,0,0,1-2.85-1,3.43,3.43,0,0,1-1-2.6,3.23,3.23,0,0,1,1.5-2.79,7,7,0,0,1,4-1h2.78V164a2.72,2.72,0,0,0-.87-2.13,3.51,3.51,0,0,0-2.42-.77,6,6,0,0,0-1.9.28,4.64,4.64,0,0,0-1.45.78l-.11,1.7h-1.15v-2.43a7.21,7.21,0,0,1,2.08-1.11,7.84,7.84,0,0,1,2.58-.42A5,5,0,0,1,455.6,161a3.79,3.79,0,0,1,1.27,3.06v6.23c0,.26,0,.51,0,.75a5.2,5.2,0,0,0,.08.69l1.25.09v1Zm-4.57-1a5,5,0,0,0,2.66-.7,4.2,4.2,0,0,0,1.66-1.82V166.8h-2.8a5.15,5.15,0,0,0-3,.79,2.37,2.37,0,0,0-1.13,2,2.07,2.07,0,0,0,.7,1.64A2.79,2.79,0,0,0,451.17,171.86Z" transform="translate(-1.18)"/><path class="cls-6" d="M471.49,173.1a5,5,0,0,1-3.92-1.75,6.45,6.45,0,0,1-1.55-4.46v-.64a6.64,6.64,0,0,1,1.54-4.51,4.78,4.78,0,0,1,3.74-1.8,4.6,4.6,0,0,1,3.63,1.48,5.65,5.65,0,0,1,1.33,3.94v1.19H467.4v.34a5.6,5.6,0,0,0,1.13,3.58,3.56,3.56,0,0,0,3,1.45,6,6,0,0,0,2.2-.36,4.38,4.38,0,0,0,1.57-1.05l.59,1a5,5,0,0,1-1.79,1.19A6.61,6.61,0,0,1,471.49,173.1Zm-.19-12a3.29,3.29,0,0,0-2.58,1.19,5.12,5.12,0,0,0-1.22,3l0,.06h7.36V165a4.05,4.05,0,0,0-1-2.77A3.27,3.27,0,0,0,471.3,161.14Z" transform="translate(-1.18)"/><path class="cls-6" d="M490.05,173.1a5,5,0,0,1-3.92-1.75,6.45,6.45,0,0,1-1.56-4.46v-.64a6.64,6.64,0,0,1,1.55-4.51,4.77,4.77,0,0,1,3.74-1.8,4.6,4.6,0,0,1,3.63,1.48,5.69,5.69,0,0,1,1.32,3.94v1.19H486v.34a5.65,5.65,0,0,0,1.13,3.58,3.58,3.58,0,0,0,3,1.45,6,6,0,0,0,2.2-.36,4.34,4.34,0,0,0,1.56-1.05l.6,1a5.06,5.06,0,0,1-1.79,1.19A6.68,6.68,0,0,1,490.05,173.1Zm-.19-12a3.29,3.29,0,0,0-2.58,1.19,5.05,5.05,0,0,0-1.22,3l0,.06h7.35V165a4.1,4.1,0,0,0-1-2.77A3.27,3.27,0,0,0,489.86,161.14Z" transform="translate(-1.18)"/><path class="cls-6" d="M506.4,164.09h-1.14l-.16-1.79a3.6,3.6,0,0,0-1.32-.86,5.15,5.15,0,0,0-1.82-.3,3.37,3.37,0,0,0-2.28.66,2,2,0,0,0-.76,1.55,1.88,1.88,0,0,0,.65,1.46,6.44,6.44,0,0,0,2.62,1,8.58,8.58,0,0,1,3.35,1.38,2.85,2.85,0,0,1,1.11,2.37,3.06,3.06,0,0,1-1.27,2.56,5.28,5.28,0,0,1-3.35,1,7.83,7.83,0,0,1-2.54-.39,5.83,5.83,0,0,1-2-1.11v-2.55h1.12l.2,1.8a3.19,3.19,0,0,0,1.41.82,6.13,6.13,0,0,0,1.78.25,3.77,3.77,0,0,0,2.37-.67,2,2,0,0,0,.87-1.62,2,2,0,0,0-.72-1.55,5.85,5.85,0,0,0-2.62-1.09,8.82,8.82,0,0,1-3.32-1.31,2.68,2.68,0,0,1-1.08-2.28,3.08,3.08,0,0,1,1.21-2.46,5,5,0,0,1,3.22-1,7.24,7.24,0,0,1,2.52.43,5.21,5.21,0,0,1,1.86,1.15Z" transform="translate(-1.18)"/><path class="cls-6" d="M512.37,156.93v3.25h2.76v1.15h-2.76v8.26a2.7,2.7,0,0,0,.45,1.76,1.46,1.46,0,0,0,1.19.52c.22,0,.44,0,.65,0s.46-.05.74-.1l.21,1a3.6,3.6,0,0,1-.85.23,5.62,5.62,0,0,1-1,.08,2.6,2.6,0,0,1-2.06-.84,4,4,0,0,1-.73-2.67v-8.26h-2.16v-1.15H511v-3.25Z" transform="translate(-1.18)"/><path class="cls-6" d="M517.45,166.33a6.85,6.85,0,0,1,1.52-4.59,5.41,5.41,0,0,1,8.06,0,6.85,6.85,0,0,1,1.52,4.59v.39a6.94,6.94,0,0,1-1.51,4.6,5.46,5.46,0,0,1-8.07,0,6.9,6.9,0,0,1-1.52-4.6Zm1.39.39a6.12,6.12,0,0,0,1.1,3.7,3.87,3.87,0,0,0,6.12,0,6.12,6.12,0,0,0,1.1-3.7v-.39a6,6,0,0,0-1.11-3.68,3.85,3.85,0,0,0-6.11,0,6.1,6.1,0,0,0-1.1,3.68Z" transform="translate(-1.18)"/><path class="cls-6" d="M540,170.77a4.21,4.21,0,0,1-1.62,1.72,4.6,4.6,0,0,1-2.42.61,3.79,3.79,0,0,1-3.1-1.36,6.59,6.59,0,0,1-1.12-4.22v-6.15l-1.55-.15v-1h2.93v7.37a5.47,5.47,0,0,0,.79,3.33,2.64,2.64,0,0,0,2.22,1,4.06,4.06,0,0,0,2.51-.7,3.73,3.73,0,0,0,1.31-1.94v-7.87l-1.78-.15v-1h3.18v11.49l1.68.16v1h-2.9Z" transform="translate(-1.18)"/><path class="cls-6" d="M556.23,171.92a4,4,0,0,0,2.44-.8,2.62,2.62,0,0,0,1.05-2.21H561l0,.07a3.53,3.53,0,0,1-1.39,2.94,5.12,5.12,0,0,1-3.36,1.18,4.74,4.74,0,0,1-4-1.77,7.14,7.14,0,0,1-1.41-4.57v-.49a7.12,7.12,0,0,1,1.41-4.55,4.74,4.74,0,0,1,3.94-1.78,6.46,6.46,0,0,1,2.66.55,5.37,5.37,0,0,1,2,1.5l0,2.77h-1.18l-.22-2.25a3.85,3.85,0,0,0-1.39-1,4.51,4.51,0,0,0-1.88-.37,3.34,3.34,0,0,0-3,1.46,6.52,6.52,0,0,0-1,3.67v.49a6.62,6.62,0,0,0,1,3.71A3.36,3.36,0,0,0,556.23,171.92Z" transform="translate(-1.18)"/><path class="cls-6" d="M563.56,166.33a6.85,6.85,0,0,1,1.52-4.59,5.41,5.41,0,0,1,8.06,0,6.85,6.85,0,0,1,1.52,4.59v.39a6.89,6.89,0,0,1-1.51,4.6,5.46,5.46,0,0,1-8.07,0,6.9,6.9,0,0,1-1.52-4.6Zm1.39.39a6.06,6.06,0,0,0,1.11,3.7,3.86,3.86,0,0,0,6.11,0,6.12,6.12,0,0,0,1.1-3.7v-.39a6,6,0,0,0-1.11-3.68,3.84,3.84,0,0,0-6.1,0,6,6,0,0,0-1.11,3.68Z" transform="translate(-1.18)"/><path class="cls-6" d="M576.62,161.22v-1h3.12l.13,2.09a4.46,4.46,0,0,1,1.61-1.72,4.6,4.6,0,0,1,2.4-.61,3.62,3.62,0,0,1,3.78,2.87,4.92,4.92,0,0,1,1.62-2.1,4.23,4.23,0,0,1,2.56-.77,3.77,3.77,0,0,1,3.1,1.35,6.56,6.56,0,0,1,1.09,4.17v6.2l1.89.17v1h-5.18v-1l1.89-.17v-6.22a5.14,5.14,0,0,0-.82-3.31,2.8,2.8,0,0,0-2.28-1,3.07,3.07,0,0,0-2.49,1,5,5,0,0,0-1.09,2.66,1,1,0,0,0,0,.18v6.63l1.89.16v1h-5.17v-1l1.89-.16v-6.23a5.16,5.16,0,0,0-.83-3.29,2.81,2.81,0,0,0-2.28-1,3.42,3.42,0,0,0-2.35.76,4,4,0,0,0-1.21,2v7.72l1.89.16v1h-5.17v-1l1.89-.16v-10.3Z" transform="translate(-1.18)"/><path class="cls-6" d="M605.11,161.22v-1h3.12l.13,2.09a4.46,4.46,0,0,1,1.61-1.72,4.65,4.65,0,0,1,2.4-.61,4,4,0,0,1,2.4.71,3.87,3.87,0,0,1,1.39,2.16,4.82,4.82,0,0,1,1.61-2.1,4.23,4.23,0,0,1,2.56-.77,3.76,3.76,0,0,1,3.1,1.35,6.56,6.56,0,0,1,1.1,4.17v6.2l1.89.17v1h-5.19v-1l1.9-.17v-6.22a5.2,5.2,0,0,0-.82-3.31,2.82,2.82,0,0,0-2.28-1,3.1,3.1,0,0,0-2.5,1,5.12,5.12,0,0,0-1.09,2.66c0,.07,0,.13,0,.18s0,.13,0,.21v6.42l1.89.16v1h-5.17v-1l1.88-.16v-6.23a5.17,5.17,0,0,0-.82-3.29,2.83,2.83,0,0,0-2.28-1,3.41,3.41,0,0,0-2.35.76,4,4,0,0,0-1.21,2v7.72l1.89.16v1h-5.18v-1l1.9-.16v-10.3Z" transform="translate(-1.18)"/><path class="cls-6" d="M637.35,170.77a4.25,4.25,0,0,1-1.61,1.72,4.63,4.63,0,0,1-2.42.61,3.78,3.78,0,0,1-3.1-1.36,6.53,6.53,0,0,1-1.12-4.22v-6.15l-1.56-.15v-1h2.94v7.37a5.55,5.55,0,0,0,.78,3.33,2.64,2.64,0,0,0,2.22,1,4.06,4.06,0,0,0,2.51-.7,3.8,3.8,0,0,0,1.32-1.94v-7.87l-1.79-.15v-1h3.18v11.49l1.68.16v1h-2.9Z" transform="translate(-1.18)"/><path class="cls-6" d="M642.33,171.83l1.89-.16v-10.3l-1.89-.15v-1h3.27v11.49l1.89.16v1h-5.16Zm3.27-15.29h-1.38v-2h1.38Z" transform="translate(-1.18)"/><path class="cls-6" d="M653,156.93v3.25h2.76v1.15H653v8.26a2.7,2.7,0,0,0,.45,1.76,1.48,1.48,0,0,0,1.19.52c.22,0,.44,0,.65,0s.46-.05.74-.1l.21,1a3.47,3.47,0,0,1-.85.23,5.55,5.55,0,0,1-1,.08,2.58,2.58,0,0,1-2-.84,3.94,3.94,0,0,1-.74-2.67v-8.26h-2.16v-1.15h2.16v-3.25Z" transform="translate(-1.18)"/><path class="cls-6" d="M667,172.86a10.8,10.8,0,0,1-.2-1.12,7.46,7.46,0,0,1-.06-1,5.51,5.51,0,0,1-1.85,1.66,5.32,5.32,0,0,1-2.61.65,4,4,0,0,1-2.86-1,3.43,3.43,0,0,1-1-2.6,3.23,3.23,0,0,1,1.5-2.79,7,7,0,0,1,4.06-1h2.77V164a2.74,2.74,0,0,0-.86-2.13,3.53,3.53,0,0,0-2.42-.77,6.08,6.08,0,0,0-1.91.28,4.59,4.59,0,0,0-1.44.78l-.12,1.7h-1.15l0-2.43a7.21,7.21,0,0,1,2.08-1.11,7.8,7.8,0,0,1,2.58-.42,5,5,0,0,1,3.34,1.07,3.78,3.78,0,0,1,1.26,3.06v6.23c0,.26,0,.51,0,.75s0,.47.07.69l1.26.09v1Zm-4.57-1a5,5,0,0,0,2.65-.7,4.14,4.14,0,0,0,1.66-1.82V166.8h-2.79a5.15,5.15,0,0,0-3,.79,2.36,2.36,0,0,0-1.14,2,2.08,2.08,0,0,0,.71,1.64A2.77,2.77,0,0,0,662.42,171.86Z" transform="translate(-1.18)"/><path class="cls-6" d="M686.31,164.09h-1.14L685,162.3a3.6,3.6,0,0,0-1.32-.86,5.15,5.15,0,0,0-1.82-.3,3.37,3.37,0,0,0-2.28.66,2,2,0,0,0-.76,1.55,1.88,1.88,0,0,0,.65,1.46,6.44,6.44,0,0,0,2.62,1,8.58,8.58,0,0,1,3.35,1.38,2.85,2.85,0,0,1,1.11,2.37,3.06,3.06,0,0,1-1.27,2.56,5.29,5.29,0,0,1-3.36,1,7.81,7.81,0,0,1-2.53-.39,6,6,0,0,1-2-1.11v-2.55h1.13l.2,1.8a3.21,3.21,0,0,0,1.4.82,6.22,6.22,0,0,0,1.78.25,3.78,3.78,0,0,0,2.38-.67,2,2,0,0,0,.87-1.62,2,2,0,0,0-.72-1.55,5.85,5.85,0,0,0-2.62-1.09,8.82,8.82,0,0,1-3.32-1.31,2.69,2.69,0,0,1-1.09-2.28,3.09,3.09,0,0,1,1.22-2.46,5,5,0,0,1,3.22-1,7.24,7.24,0,0,1,2.52.43,5.21,5.21,0,0,1,1.86,1.15Z" transform="translate(-1.18)"/><path class="cls-6" d="M694.62,173.1a5,5,0,0,1-3.92-1.75,6.49,6.49,0,0,1-1.55-4.46v-.64a6.59,6.59,0,0,1,1.55-4.51,4.77,4.77,0,0,1,3.74-1.8,4.62,4.62,0,0,1,3.63,1.48,5.69,5.69,0,0,1,1.32,3.94v1.19h-8.86v.34a5.6,5.6,0,0,0,1.13,3.58,3.56,3.56,0,0,0,3,1.45,6.09,6.09,0,0,0,2.21-.36,4.34,4.34,0,0,0,1.56-1.05l.59,1a4.93,4.93,0,0,1-1.78,1.19A6.7,6.7,0,0,1,694.62,173.1Zm-.18-12a3.29,3.29,0,0,0-2.58,1.19,5.13,5.13,0,0,0-1.23,3l0,.06H698V165a4.1,4.1,0,0,0-1-2.77A3.3,3.3,0,0,0,694.44,161.14Z" transform="translate(-1.18)"/><path class="cls-6" d="M710.59,171a4.37,4.37,0,0,1-1.61,1.53,4.76,4.76,0,0,1-2.32.54,4.13,4.13,0,0,1-3.52-1.7,7.36,7.36,0,0,1-1.27-4.53v-.25a8.35,8.35,0,0,1,1.27-4.86,4.09,4.09,0,0,1,3.54-1.82,4.51,4.51,0,0,1,2.28.56,4.59,4.59,0,0,1,1.6,1.59v-6.32l-1.89-.15v-1H712v17.09l1.89.16v1h-3.13Zm-7.32-4.16a6.51,6.51,0,0,0,.91,3.65,3.09,3.09,0,0,0,2.75,1.36,3.85,3.85,0,0,0,2.23-.61,4,4,0,0,0,1.4-1.67v-6a4.38,4.38,0,0,0-1.34-1.76,3.63,3.63,0,0,0-2.27-.68,3,3,0,0,0-2.75,1.52,7.44,7.44,0,0,0-.93,3.94Z" transform="translate(-1.18)"/><path class="cls-6" d="M721.51,173.1a5,5,0,0,1-3.92-1.75,6.45,6.45,0,0,1-1.56-4.46v-.64a6.64,6.64,0,0,1,1.55-4.51,4.77,4.77,0,0,1,3.74-1.8,4.6,4.6,0,0,1,3.63,1.48,5.69,5.69,0,0,1,1.32,3.94v1.19h-8.86v.34a5.65,5.65,0,0,0,1.13,3.58,3.58,3.58,0,0,0,3,1.45,6,6,0,0,0,2.2-.36,4.34,4.34,0,0,0,1.56-1.05l.6,1a5.06,5.06,0,0,1-1.79,1.19A6.68,6.68,0,0,1,721.51,173.1Zm-.19-12a3.29,3.29,0,0,0-2.58,1.19,5.05,5.05,0,0,0-1.22,3l0,.06h7.35V165a4.1,4.1,0,0,0-1-2.77A3.27,3.27,0,0,0,721.32,161.14Z" transform="translate(-1.18)"/><path class="cls-6" d="M730.93,172.86h-1.64v-2h1.64Zm-.14-5.61h-1.38V155.79h1.38Z" transform="translate(-1.18)"/><path class="cls-6" d="M420.86,218.46h-1.14l-.2-2.42a4.17,4.17,0,0,0-1.7-1.25,6.53,6.53,0,0,0-2.53-.45,5.13,5.13,0,0,0-3.25.92,2.78,2.78,0,0,0-1.17,2.27,2.66,2.66,0,0,0,1.05,2.15,9.68,9.68,0,0,0,3.64,1.52,10.44,10.44,0,0,1,4.14,1.9,3.9,3.9,0,0,1,1.42,3.15,3.82,3.82,0,0,1-1.64,3.25,7,7,0,0,1-4.21,1.2,8.63,8.63,0,0,1-3.36-.64,6.34,6.34,0,0,1-2.53-1.84v-3h1.13l.2,2.5a4.81,4.81,0,0,0,2,1.33,7.11,7.11,0,0,0,2.6.46,5.44,5.44,0,0,0,3.23-.89,2.77,2.77,0,0,0,1.23-2.36,2.86,2.86,0,0,0-1-2.28,9.46,9.46,0,0,0-3.59-1.56,11.32,11.32,0,0,1-4.2-1.83,3.66,3.66,0,0,1-1.43-3,3.82,3.82,0,0,1,1.62-3.19,6.77,6.77,0,0,1,4.19-1.23,8,8,0,0,1,3.29.64,5.71,5.71,0,0,1,2.28,1.75Z" transform="translate(-1.18)"/><path class="cls-6" d="M428.92,230.7A5,5,0,0,1,425,229a6.45,6.45,0,0,1-1.56-4.46v-.64a6.66,6.66,0,0,1,1.55-4.51,4.77,4.77,0,0,1,3.74-1.8,4.64,4.64,0,0,1,3.63,1.48,5.69,5.69,0,0,1,1.32,3.94v1.19h-8.86v.34a5.65,5.65,0,0,0,1.13,3.58,3.59,3.59,0,0,0,3,1.45,6,6,0,0,0,2.2-.36,4.47,4.47,0,0,0,1.57-1l.59,1a5,5,0,0,1-1.79,1.19A6.64,6.64,0,0,1,428.92,230.7Zm-.19-12a3.29,3.29,0,0,0-2.58,1.19,5.05,5.05,0,0,0-1.22,3l0,.06h7.35v-.35a4.1,4.1,0,0,0-1-2.77A3.27,3.27,0,0,0,428.73,218.74Z" transform="translate(-1.18)"/><path class="cls-6" d="M436.07,229.43l1.89-.16V219l-1.89-.15v-1h3.27v11.49l1.89.16v1h-5.16Zm3.27-15.29H438v-2h1.38Z" transform="translate(-1.18)"/><path class="cls-6" d="M449.34,224.22a8.29,8.29,0,0,1,1.27-4.85,4.08,4.08,0,0,1,3.54-1.83,4.29,4.29,0,0,1,3.85,2.11l.14-1.87h1.22v16.36l1.89.15v1h-5.17v-1l1.89-.15v-5.35a4.35,4.35,0,0,1-1.6,1.42,4.83,4.83,0,0,1-2.24.49,4.13,4.13,0,0,1-3.52-1.7,7.36,7.36,0,0,1-1.27-4.53Zm1.4.25a6.62,6.62,0,0,0,.91,3.67,3.08,3.08,0,0,0,2.75,1.38,3.88,3.88,0,0,0,2.18-.59A4,4,0,0,0,458,227.3v-6.18a4.59,4.59,0,0,0-1.35-1.71,3.47,3.47,0,0,0-2.2-.67,3,3,0,0,0-2.75,1.53,7.52,7.52,0,0,0-.93,3.95Z" transform="translate(-1.18)"/><path class="cls-6" d="M471.83,228.37a4.34,4.34,0,0,1-1.62,1.72,4.6,4.6,0,0,1-2.42.61,3.78,3.78,0,0,1-3.1-1.36,6.52,6.52,0,0,1-1.12-4.21V219l-1.55-.15v-1H465v7.37a5.53,5.53,0,0,0,.78,3.33,2.67,2.67,0,0,0,2.22,1,4.1,4.1,0,0,0,2.52-.7,3.73,3.73,0,0,0,1.31-1.94V219l-1.78-.15v-1h3.17v11.49l1.68.16v1H472Z" transform="translate(-1.18)"/><path class="cls-6" d="M482.43,230.7a5,5,0,0,1-3.92-1.75,6.45,6.45,0,0,1-1.56-4.46v-.64a6.66,6.66,0,0,1,1.55-4.51,4.77,4.77,0,0,1,3.74-1.8,4.64,4.64,0,0,1,3.63,1.48,5.69,5.69,0,0,1,1.32,3.94v1.19h-8.86v.34a5.65,5.65,0,0,0,1.13,3.58,3.59,3.59,0,0,0,3,1.45,6,6,0,0,0,2.2-.36,4.47,4.47,0,0,0,1.57-1l.59,1a5,5,0,0,1-1.79,1.19A6.64,6.64,0,0,1,482.43,230.7Zm-.19-12a3.29,3.29,0,0,0-2.58,1.19,5.05,5.05,0,0,0-1.22,3l0,.06h7.35v-.35a4.1,4.1,0,0,0-1-2.77A3.27,3.27,0,0,0,482.24,218.74Z" transform="translate(-1.18)"/><path class="cls-6" d="M495.08,218.82v-1h3.05l.17,2a4.4,4.4,0,0,1,4-2.21,4.08,4.08,0,0,1,3.54,1.83,8.29,8.29,0,0,1,1.27,4.85v.25A7.37,7.37,0,0,1,505.8,229a4.16,4.16,0,0,1-3.52,1.69,5,5,0,0,1-2.31-.51,4.32,4.32,0,0,1-1.62-1.44v5.39l1.89.15v1h-5.16v-1l1.89-.15V219Zm10.6,5.4a7.33,7.33,0,0,0-.95-3.93,3.07,3.07,0,0,0-2.78-1.53,3.62,3.62,0,0,0-2.28.68,4,4,0,0,0-1.32,1.75v6.09a3.83,3.83,0,0,0,1.38,1.64,3.91,3.91,0,0,0,2.24.6,3.13,3.13,0,0,0,2.76-1.38,6.42,6.42,0,0,0,.95-3.67Z" transform="translate(-1.18)"/><path class="cls-6" d="M512.34,217.78l.17,2.11V220a4.47,4.47,0,0,1,1.46-1.83,3.57,3.57,0,0,1,2.18-.67,4.38,4.38,0,0,1,.52,0l.41.09-.19,1.31-1-.07a3.11,3.11,0,0,0-2.15.75,4.11,4.11,0,0,0-1.2,2v7.57l1.89.16v1h-5.16v-1l1.89-.16V219l-1.89-.15v-1h3.1Z" transform="translate(-1.18)"/><path class="cls-6" d="M524.19,230.7a5,5,0,0,1-3.92-1.75,6.45,6.45,0,0,1-1.56-4.46v-.64a6.66,6.66,0,0,1,1.55-4.51,4.78,4.78,0,0,1,3.74-1.8,4.64,4.64,0,0,1,3.63,1.48A5.69,5.69,0,0,1,529,223v1.19h-8.86v.34a5.6,5.6,0,0,0,1.14,3.58,3.56,3.56,0,0,0,3,1.45,6,6,0,0,0,2.2-.36,4.47,4.47,0,0,0,1.57-1l.59,1a5,5,0,0,1-1.79,1.19A6.64,6.64,0,0,1,524.19,230.7Zm-.19-12a3.29,3.29,0,0,0-2.58,1.19,5.05,5.05,0,0,0-1.22,3l0,.06h7.35v-.35a4.1,4.1,0,0,0-1-2.77A3.27,3.27,0,0,0,524,218.74Z" transform="translate(-1.18)"/><path class="cls-6" d="M536.79,229.52a4,4,0,0,0,2.44-.8,2.63,2.63,0,0,0,1.06-2.21h1.23l0,.07a3.5,3.5,0,0,1-1.39,2.94,5.12,5.12,0,0,1-3.36,1.18,4.76,4.76,0,0,1-3.95-1.77,7.14,7.14,0,0,1-1.4-4.57v-.49a7.12,7.12,0,0,1,1.4-4.55,4.76,4.76,0,0,1,3.94-1.78,6.46,6.46,0,0,1,2.66.55,5.29,5.29,0,0,1,2,1.5l.06,2.77h-1.19l-.22-2.25a3.9,3.9,0,0,0-1.38-1,4.55,4.55,0,0,0-1.89-.37,3.31,3.31,0,0,0-3,1.46,6.45,6.45,0,0,0-1,3.67v.49a6.62,6.62,0,0,0,1,3.71A3.33,3.33,0,0,0,536.79,229.52Z" transform="translate(-1.18)"/><path class="cls-6" d="M544,229.43l1.89-.16V219l-1.89-.15v-1h3.27v11.49l1.89.16v1H544Zm3.27-15.29h-1.38v-2h1.38Z" transform="translate(-1.18)"/><path class="cls-6" d="M560.63,221.69h-1.14l-.16-1.79A3.6,3.6,0,0,0,558,219a5.15,5.15,0,0,0-1.82-.3,3.37,3.37,0,0,0-2.28.66,2,2,0,0,0-.76,1.55,1.88,1.88,0,0,0,.65,1.46,6.3,6.3,0,0,0,2.62,1,8.58,8.58,0,0,1,3.35,1.38,2.85,2.85,0,0,1,1.11,2.37,3.06,3.06,0,0,1-1.27,2.56,5.28,5.28,0,0,1-3.35,1,7.83,7.83,0,0,1-2.54-.39,6,6,0,0,1-2-1.11v-2.55h1.13l.2,1.8a3.19,3.19,0,0,0,1.41.82,6.13,6.13,0,0,0,1.78.25,3.77,3.77,0,0,0,2.37-.67,2,2,0,0,0,.87-1.62,2,2,0,0,0-.72-1.55,5.85,5.85,0,0,0-2.62-1.09,8.82,8.82,0,0,1-3.32-1.31,2.68,2.68,0,0,1-1.08-2.28,3.08,3.08,0,0,1,1.21-2.46,5,5,0,0,1,3.22-1,7.24,7.24,0,0,1,2.52.43,5.09,5.09,0,0,1,1.86,1.16Z" transform="translate(-1.18)"/><path class="cls-6" d="M563.41,223.93a6.85,6.85,0,0,1,1.52-4.59,5.41,5.41,0,0,1,8.06,0,6.85,6.85,0,0,1,1.52,4.59v.39a6.94,6.94,0,0,1-1.51,4.6,5.46,5.46,0,0,1-8.07,0,6.9,6.9,0,0,1-1.52-4.6Zm1.39.39a6.1,6.1,0,0,0,1.1,3.7,3.87,3.87,0,0,0,6.12,0,6.1,6.1,0,0,0,1.1-3.7v-.39a6,6,0,0,0-1.11-3.68,3.85,3.85,0,0,0-6.11,0,6.1,6.1,0,0,0-1.1,3.68Z" transform="translate(-1.18)"/><path class="cls-6" d="M585.73,214.53v3.25h2.76v1.15h-2.76v8.26a2.7,2.7,0,0,0,.45,1.76,1.48,1.48,0,0,0,1.19.52c.22,0,.44,0,.65,0s.46-.05.74-.1l.21,1a3.35,3.35,0,0,1-.85.23,5.51,5.51,0,0,1-1,.08,2.58,2.58,0,0,1-2.06-.84,4,4,0,0,1-.74-2.67v-8.26h-2.16v-1.15h2.16v-3.25Z" transform="translate(-1.18)"/><path class="cls-6" d="M590.81,223.93a6.85,6.85,0,0,1,1.52-4.59,5.41,5.41,0,0,1,8.06,0,6.8,6.8,0,0,1,1.52,4.59v.39a6.89,6.89,0,0,1-1.51,4.6,5,5,0,0,1-4,1.78,5.07,5.07,0,0,1-4-1.78,6.9,6.9,0,0,1-1.52-4.6Zm1.4.39a6,6,0,0,0,1.1,3.7,3.86,3.86,0,0,0,6.11,0,6.1,6.1,0,0,0,1.1-3.7v-.39a6,6,0,0,0-1.11-3.68,3.84,3.84,0,0,0-6.1,0,6,6,0,0,0-1.1,3.68Z" transform="translate(-1.18)"/><path class="cls-6" d="M603.87,218.82v-1H607l.13,2.1a4.42,4.42,0,0,1,1.61-1.73,4.65,4.65,0,0,1,2.4-.61,4,4,0,0,1,2.4.71,3.85,3.85,0,0,1,1.38,2.16,4.92,4.92,0,0,1,1.62-2.1,4.23,4.23,0,0,1,2.56-.77,3.76,3.76,0,0,1,3.1,1.35,6.56,6.56,0,0,1,1.1,4.17v6.2l1.89.17v1H620v-1l1.89-.17V223a5.21,5.21,0,0,0-.81-3.31,2.82,2.82,0,0,0-2.28-1,3.08,3.08,0,0,0-2.5,1,5,5,0,0,0-1.09,2.66c0,.07,0,.13,0,.18s0,.13,0,.21v6.42l1.89.16v1h-5.18v-1l1.89-.16V223a5.1,5.1,0,0,0-.83-3.29,2.8,2.8,0,0,0-2.27-1,3.41,3.41,0,0,0-2.35.76,4,4,0,0,0-1.21,2v7.72l1.89.16v1h-5.18v-1l1.89-.16V219Z" transform="translate(-1.18)"/><path class="cls-6" d="M635.56,230.46a10.8,10.8,0,0,1-.2-1.12,7.46,7.46,0,0,1-.06-1,5.51,5.51,0,0,1-1.85,1.66,5.32,5.32,0,0,1-2.61.65,4,4,0,0,1-2.86-1,3.43,3.43,0,0,1-1-2.6,3.22,3.22,0,0,1,1.49-2.79,7,7,0,0,1,4.06-1h2.77v-1.68a2.74,2.74,0,0,0-.86-2.13,3.53,3.53,0,0,0-2.42-.77,5.8,5.8,0,0,0-1.91.29,4.48,4.48,0,0,0-1.44.77l-.12,1.7H627.4l0-2.43A7.21,7.21,0,0,1,629.5,218a7.84,7.84,0,0,1,2.58-.42,5,5,0,0,1,3.34,1.07,3.78,3.78,0,0,1,1.26,3.06v6.23c0,.26,0,.51,0,.75s0,.47.07.69l1.26.09v1Zm-4.57-1a5,5,0,0,0,2.65-.7,4.14,4.14,0,0,0,1.66-1.82V224.4h-2.79a5.15,5.15,0,0,0-3,.79,2.36,2.36,0,0,0-1.14,2,2.08,2.08,0,0,0,.71,1.64A2.77,2.77,0,0,0,631,229.46Z" transform="translate(-1.18)"/><path class="cls-6" d="M643,217.78l.18,2.11V220a4.45,4.45,0,0,1,1.45-1.83,3.62,3.62,0,0,1,2.19-.67,4.06,4.06,0,0,1,.51,0l.42.09-.19,1.31-1-.07a3.1,3.1,0,0,0-2.15.75,4.11,4.11,0,0,0-1.2,2v7.57l1.89.16v1h-5.16v-1l1.89-.16V219l-1.89-.15v-1H643Z" transform="translate(-1.18)"/><path class="cls-6" d="M664,230.46c-.09-.43-.16-.8-.2-1.12a7.46,7.46,0,0,1,0-1,5.65,5.65,0,0,1-1.86,1.66,5.26,5.26,0,0,1-2.61.65,4,4,0,0,1-2.85-1,3.4,3.4,0,0,1-1-2.6,3.24,3.24,0,0,1,1.49-2.79,7.06,7.06,0,0,1,4.06-1h2.78v-1.68a2.72,2.72,0,0,0-.87-2.13,3.51,3.51,0,0,0-2.42-.77,5.74,5.74,0,0,0-1.9.29,4.43,4.43,0,0,0-1.45.77l-.11,1.7h-1.15v-2.43a7.21,7.21,0,0,1,2.08-1.11,7.84,7.84,0,0,1,2.58-.42,5,5,0,0,1,3.34,1.07,3.79,3.79,0,0,1,1.27,3.06v6.23c0,.26,0,.51,0,.75a5.2,5.2,0,0,0,.08.69l1.25.09v1Zm-4.57-1a5,5,0,0,0,2.66-.7,4.2,4.2,0,0,0,1.66-1.82V224.4h-2.8a5.15,5.15,0,0,0-3,.79,2.37,2.37,0,0,0-1.13,2,2.07,2.07,0,0,0,.7,1.64A2.79,2.79,0,0,0,659.41,229.46Zm2.36-16.52h1.7l0,.07-2.89,3h-1.24Z" transform="translate(-1.18)"/><path class="cls-6" d="M668.48,224.22a8.29,8.29,0,0,1,1.28-4.85,4.11,4.11,0,0,1,3.56-1.83,4.41,4.41,0,0,1,2.31.59,4.9,4.9,0,0,1,1.62,1.67l.16-2h1.17v12.51a5.5,5.5,0,0,1-1.31,3.87,4.7,4.7,0,0,1-3.65,1.42,9.68,9.68,0,0,1-1.93-.22,8.07,8.07,0,0,1-1.8-.61l.38-1.19a8.49,8.49,0,0,0,1.58.57,7.55,7.55,0,0,0,1.74.19,3.33,3.33,0,0,0,2.69-1.06,4.41,4.41,0,0,0,.91-3v-1.6a4.41,4.41,0,0,1-1.61,1.49,4.75,4.75,0,0,1-2.29.52,4.15,4.15,0,0,1-3.53-1.7,7.36,7.36,0,0,1-1.28-4.53Zm1.39.25a6.47,6.47,0,0,0,.92,3.65,3.12,3.12,0,0,0,2.76,1.36,3.83,3.83,0,0,0,2.25-.62,4,4,0,0,0,1.39-1.71v-5.88a4.46,4.46,0,0,0-1.33-1.81,3.54,3.54,0,0,0-2.29-.7,3,3,0,0,0-2.76,1.53,7.33,7.33,0,0,0-.94,3.93Z" transform="translate(-1.18)"/><path class="cls-6" d="M691,228.37a4.34,4.34,0,0,1-1.62,1.72,4.63,4.63,0,0,1-2.42.61,3.78,3.78,0,0,1-3.1-1.36,6.52,6.52,0,0,1-1.12-4.21V219l-1.56-.15v-1h2.94v7.37a5.53,5.53,0,0,0,.78,3.33,2.64,2.64,0,0,0,2.22,1,4.06,4.06,0,0,0,2.51-.7,3.74,3.74,0,0,0,1.32-1.94V219l-1.79-.15v-1h3.18v11.49l1.68.16v1h-2.9Z" transform="translate(-1.18)"/><path class="cls-6" d="M704.69,230.46a10.8,10.8,0,0,1-.2-1.12,7.46,7.46,0,0,1-.06-1,5.51,5.51,0,0,1-1.85,1.66,5.32,5.32,0,0,1-2.61.65,4,4,0,0,1-2.86-1,3.43,3.43,0,0,1-1-2.6,3.23,3.23,0,0,1,1.5-2.79,7,7,0,0,1,4.06-1h2.77v-1.68a2.74,2.74,0,0,0-.86-2.13,3.53,3.53,0,0,0-2.42-.77,5.8,5.8,0,0,0-1.91.29,4.38,4.38,0,0,0-1.44.77l-.12,1.7h-1.15l0-2.43a7.21,7.21,0,0,1,2.08-1.11,7.8,7.8,0,0,1,2.58-.42,5,5,0,0,1,3.34,1.07,3.78,3.78,0,0,1,1.26,3.06v6.23c0,.26,0,.51,0,.75s0,.47.07.69l1.26.09v1Zm-4.57-1a5,5,0,0,0,2.65-.7,4.14,4.14,0,0,0,1.66-1.82V224.4h-2.79a5.15,5.15,0,0,0-3,.79,2.36,2.36,0,0,0-1.14,2,2.08,2.08,0,0,0,.71,1.64A2.77,2.77,0,0,0,700.12,229.46Z" transform="translate(-1.18)"/><path class="cls-6" d="M714.9,223.93a6.85,6.85,0,0,1,1.52-4.59,5.41,5.41,0,0,1,8.06,0,6.8,6.8,0,0,1,1.52,4.59v.39a6.89,6.89,0,0,1-1.51,4.6,5.46,5.46,0,0,1-8.07,0,6.9,6.9,0,0,1-1.52-4.6Zm1.4.39a6,6,0,0,0,1.1,3.7,3.86,3.86,0,0,0,6.11,0,6.1,6.1,0,0,0,1.1-3.7v-.39a6,6,0,0,0-1.11-3.68,3.84,3.84,0,0,0-6.1,0,6,6,0,0,0-1.1,3.68Z" transform="translate(-1.18)"/><path class="cls-6" d="M737.48,228.37a4.21,4.21,0,0,1-1.62,1.72,4.59,4.59,0,0,1-2.41.61,3.76,3.76,0,0,1-3.1-1.36,6.52,6.52,0,0,1-1.12-4.21V219l-1.56-.15v-1h2.94v7.37a5.53,5.53,0,0,0,.78,3.33,2.64,2.64,0,0,0,2.22,1,4.06,4.06,0,0,0,2.51-.7,3.8,3.8,0,0,0,1.32-1.94V219l-1.79-.15v-1h3.18v11.49l1.68.16v1h-2.9Z" transform="translate(-1.18)"/><path class="cls-6" d="M408.87,247.62v-1h3.05l.17,2a4.4,4.4,0,0,1,4-2.21,4.07,4.07,0,0,1,3.53,1.83,8.29,8.29,0,0,1,1.28,4.85v.25a7.37,7.37,0,0,1-1.28,4.54,4.15,4.15,0,0,1-3.51,1.69,5,5,0,0,1-2.32-.51,4.21,4.21,0,0,1-1.61-1.44v5.39l1.89.15v1h-5.16v-1l1.89-.15V247.77Zm10.6,5.4a7.33,7.33,0,0,0-1-3.93,3.1,3.1,0,0,0-2.79-1.53,3.66,3.66,0,0,0-2.28.68,4.06,4.06,0,0,0-1.31,1.75v6.09a3.75,3.75,0,0,0,1.37,1.64,4,4,0,0,0,2.25.6,3.13,3.13,0,0,0,2.76-1.38,6.42,6.42,0,0,0,1-3.67Z" transform="translate(-1.18)"/><path class="cls-6" d="M423.12,252.73a6.85,6.85,0,0,1,1.52-4.59,5.41,5.41,0,0,1,8.06,0,6.85,6.85,0,0,1,1.52,4.59v.39a6.9,6.9,0,0,1-1.52,4.6,5,5,0,0,1-4,1.78,5,5,0,0,1-4.05-1.78,6.9,6.9,0,0,1-1.52-4.6Zm1.39.39a6.1,6.1,0,0,0,1.1,3.7,3.61,3.61,0,0,0,3.08,1.5,3.54,3.54,0,0,0,3-1.5,6,6,0,0,0,1.11-3.7v-.39a6,6,0,0,0-1.11-3.68,3.85,3.85,0,0,0-6.11,0,6.1,6.1,0,0,0-1.1,3.68Z" transform="translate(-1.18)"/><path class="cls-6" d="M445.58,250.49h-1.13l-.17-1.79a3.48,3.48,0,0,0-1.31-.86,5.16,5.16,0,0,0-1.83-.3,3.41,3.41,0,0,0-2.28.66,2,2,0,0,0-.76,1.55,1.86,1.86,0,0,0,.66,1.46,6.38,6.38,0,0,0,2.61,1,8.58,8.58,0,0,1,3.35,1.38,2.83,2.83,0,0,1,1.12,2.37,3.09,3.09,0,0,1-1.27,2.56,5.33,5.33,0,0,1-3.36,1,7.76,7.76,0,0,1-2.53-.39,5.88,5.88,0,0,1-2-1.11v-2.55h1.12l.2,1.8a3.19,3.19,0,0,0,1.41.82,6.18,6.18,0,0,0,1.78.25,3.78,3.78,0,0,0,2.38-.67,2,2,0,0,0,.87-1.62,2,2,0,0,0-.73-1.55,5.75,5.75,0,0,0-2.61-1.09,8.82,8.82,0,0,1-3.32-1.31,2.67,2.67,0,0,1-1.09-2.28,3.09,3.09,0,0,1,1.22-2.46,4.93,4.93,0,0,1,3.21-1,7.24,7.24,0,0,1,2.52.43,5.12,5.12,0,0,1,1.86,1.15Z" transform="translate(-1.18)"/><path class="cls-6" d="M457.47,250.49h-1.14l-.16-1.79a3.6,3.6,0,0,0-1.32-.86,5.11,5.11,0,0,0-1.82-.3,3.41,3.41,0,0,0-2.28.66,2,2,0,0,0-.76,1.55,1.88,1.88,0,0,0,.65,1.46,6.44,6.44,0,0,0,2.62,1,8.58,8.58,0,0,1,3.35,1.38,2.85,2.85,0,0,1,1.11,2.37,3.06,3.06,0,0,1-1.27,2.56,5.28,5.28,0,0,1-3.35,1,7.83,7.83,0,0,1-2.54-.39,5.83,5.83,0,0,1-2-1.11v-2.55h1.12l.2,1.8a3.19,3.19,0,0,0,1.41.82,6.18,6.18,0,0,0,1.78.25,3.82,3.82,0,0,0,2.38-.67,2,2,0,0,0,.86-1.62,2,2,0,0,0-.72-1.55,5.79,5.79,0,0,0-2.62-1.09,8.82,8.82,0,0,1-3.32-1.31,2.68,2.68,0,0,1-1.08-2.28,3.08,3.08,0,0,1,1.21-2.46,5,5,0,0,1,3.22-1,7.24,7.24,0,0,1,2.52.43,5.21,5.21,0,0,1,1.86,1.15Z" transform="translate(-1.18)"/><path class="cls-6" d="M460.25,252.73a6.85,6.85,0,0,1,1.52-4.59,5.41,5.41,0,0,1,8.06,0,6.85,6.85,0,0,1,1.52,4.59v.39a6.89,6.89,0,0,1-1.51,4.6,5.46,5.46,0,0,1-8.07,0,6.9,6.9,0,0,1-1.52-4.6Zm1.39.39a6,6,0,0,0,1.11,3.7,3.86,3.86,0,0,0,6.11,0,6.1,6.1,0,0,0,1.1-3.7v-.39a6,6,0,0,0-1.11-3.68,3.84,3.84,0,0,0-6.1,0,6,6,0,0,0-1.11,3.68Z" transform="translate(-1.18)"/><path class="cls-6" d="M479.13,258.23l1.89-.16v-10.3l-1.89-.15v-1h3.12l.13,2.21A4.48,4.48,0,0,1,484,247a4.54,4.54,0,0,1,2.43-.64,3.86,3.86,0,0,1,3.11,1.26,6,6,0,0,1,1.06,3.93v6.54l1.89.16v1h-5.17v-1l1.89-.16v-6.52a4.7,4.7,0,0,0-.8-3.09,2.93,2.93,0,0,0-2.29-.9,3.58,3.58,0,0,0-2.39.78,4.38,4.38,0,0,0-1.33,2.07v7.66l1.89.16v1h-5.17Z" transform="translate(-1.18)"/><path class="cls-6" d="M503.35,259.26a10.8,10.8,0,0,1-.2-1.12,7.46,7.46,0,0,1-.06-.95,5.51,5.51,0,0,1-1.85,1.66,5.32,5.32,0,0,1-2.61.65,4,4,0,0,1-2.86-1,3.43,3.43,0,0,1-1-2.6,3.22,3.22,0,0,1,1.49-2.79,7,7,0,0,1,4.06-1h2.77v-1.68a2.74,2.74,0,0,0-.86-2.13,3.53,3.53,0,0,0-2.42-.77,5.8,5.8,0,0,0-1.91.29,4.48,4.48,0,0,0-1.44.77l-.12,1.7h-1.15l0-2.43a7.21,7.21,0,0,1,2.08-1.11,7.84,7.84,0,0,1,2.58-.42,5,5,0,0,1,3.34,1.07,3.78,3.78,0,0,1,1.26,3.06v6.23c0,.26,0,.51,0,.75s0,.47.07.69l1.26.09v1Zm.5-17.57a2.41,2.41,0,0,1-.64,1.71,2.12,2.12,0,0,1-1.59.68,3,3,0,0,1-1.75-.64,2.81,2.81,0,0,0-1.52-.65,1.2,1.2,0,0,0-.92.41,1.5,1.5,0,0,0-.37,1.05l-.92-.22a2.41,2.41,0,0,1,.63-1.69,2,2,0,0,1,1.58-.68,3.17,3.17,0,0,1,1.71.64,3.06,3.06,0,0,0,1.56.64,1.22,1.22,0,0,0,.92-.42,1.53,1.53,0,0,0,.38-1.06Zm-5.07,16.57a5,5,0,0,0,2.65-.7,4.14,4.14,0,0,0,1.66-1.82V253.2H500.3a5.15,5.15,0,0,0-3,.79,2.36,2.36,0,0,0-1.14,2,2.08,2.08,0,0,0,.71,1.64A2.77,2.77,0,0,0,498.78,258.26Z" transform="translate(-1.18)"/><path class="cls-6" d="M507.79,252.73a6.8,6.8,0,0,1,1.52-4.59,5.41,5.41,0,0,1,8.06,0,6.85,6.85,0,0,1,1.52,4.59v.39a6.9,6.9,0,0,1-1.52,4.6,5.45,5.45,0,0,1-8.06,0,6.84,6.84,0,0,1-1.52-4.6Zm1.39.39a6.1,6.1,0,0,0,1.1,3.7,3.6,3.6,0,0,0,3.07,1.5,3.55,3.55,0,0,0,3-1.5,6,6,0,0,0,1.11-3.7v-.39a6,6,0,0,0-1.11-3.68,3.85,3.85,0,0,0-6.11,0,6.1,6.1,0,0,0-1.1,3.68Z" transform="translate(-1.18)"/><path class="cls-6" d="M532.28,258.32a4,4,0,0,0,2.44-.8,2.62,2.62,0,0,0,1-2.21H537l0,.07a3.5,3.5,0,0,1-1.38,2.94,5.12,5.12,0,0,1-3.36,1.18,4.74,4.74,0,0,1-3.95-1.77,7.14,7.14,0,0,1-1.41-4.57v-.49a7.12,7.12,0,0,1,1.41-4.55,4.74,4.74,0,0,1,3.94-1.78,6.46,6.46,0,0,1,2.66.55,5.37,5.37,0,0,1,2,1.5l.05,2.77h-1.18l-.22-2.25a3.85,3.85,0,0,0-1.39-1,4.51,4.51,0,0,0-1.88-.37,3.34,3.34,0,0,0-3,1.46,6.52,6.52,0,0,0-1,3.67v.49a6.62,6.62,0,0,0,1,3.71A3.33,3.33,0,0,0,532.28,258.32Z" transform="translate(-1.18)"/><path class="cls-6" d="M539.61,252.73a6.85,6.85,0,0,1,1.52-4.59,5.41,5.41,0,0,1,8.06,0,6.85,6.85,0,0,1,1.52,4.59v.39a6.89,6.89,0,0,1-1.51,4.6,5.46,5.46,0,0,1-8.07,0,6.9,6.9,0,0,1-1.52-4.6Zm1.39.39a6.1,6.1,0,0,0,1.1,3.7,3.87,3.87,0,0,0,6.12,0,6.1,6.1,0,0,0,1.1-3.7v-.39a6,6,0,0,0-1.11-3.68,3.85,3.85,0,0,0-6.11,0,6.1,6.1,0,0,0-1.1,3.68Z" transform="translate(-1.18)"/><path class="cls-6" d="M552.72,258.23l1.89-.16v-10.3l-1.89-.15v-1h3.12l.12,2.21a4.33,4.33,0,0,1,4.06-2.45,3.85,3.85,0,0,1,3.11,1.26,6,6,0,0,1,1.07,3.93v6.54l1.89.16v1h-5.17v-1l1.89-.16v-6.52a4.64,4.64,0,0,0-.81-3.09,2.92,2.92,0,0,0-2.29-.9,3.54,3.54,0,0,0-2.38.78,4.31,4.31,0,0,0-1.33,2.07v7.66l1.89.16v1h-5.17Z" transform="translate(-1.18)"/><path class="cls-6" d="M577.37,250.49h-1.14l-.16-1.79a3.48,3.48,0,0,0-1.31-.86,5.16,5.16,0,0,0-1.83-.3,3.41,3.41,0,0,0-2.28.66,2,2,0,0,0-.76,1.55,1.86,1.86,0,0,0,.66,1.46,6.32,6.32,0,0,0,2.61,1,8.58,8.58,0,0,1,3.35,1.38,2.83,2.83,0,0,1,1.12,2.37,3.09,3.09,0,0,1-1.27,2.56,5.33,5.33,0,0,1-3.36,1,7.76,7.76,0,0,1-2.53-.39,5.88,5.88,0,0,1-2-1.11v-2.55h1.12l.2,1.8a3.19,3.19,0,0,0,1.41.82,6.18,6.18,0,0,0,1.78.25,3.8,3.8,0,0,0,2.38-.67,2,2,0,0,0,.87-1.62,2,2,0,0,0-.73-1.55,5.75,5.75,0,0,0-2.61-1.09,8.87,8.87,0,0,1-3.33-1.31,2.68,2.68,0,0,1-1.08-2.28,3.09,3.09,0,0,1,1.22-2.46,4.93,4.93,0,0,1,3.21-1,7.24,7.24,0,0,1,2.52.43,5.21,5.21,0,0,1,1.86,1.15Z" transform="translate(-1.18)"/><path class="cls-6" d="M585.69,259.5a5,5,0,0,1-3.92-1.75,6.45,6.45,0,0,1-1.56-4.46v-.64a6.66,6.66,0,0,1,1.55-4.51,4.77,4.77,0,0,1,3.74-1.8,4.64,4.64,0,0,1,3.63,1.48,5.69,5.69,0,0,1,1.32,3.94V253h-8.86v.34a5.65,5.65,0,0,0,1.13,3.58,3.58,3.58,0,0,0,3,1.45,6,6,0,0,0,2.2-.36,4.47,4.47,0,0,0,1.57-1l.59,1a5,5,0,0,1-1.79,1.19A6.68,6.68,0,0,1,585.69,259.5Zm-.19-12a3.29,3.29,0,0,0-2.58,1.19,5.05,5.05,0,0,0-1.22,3l0,.06h7.35v-.35a4.1,4.1,0,0,0-1-2.77A3.27,3.27,0,0,0,585.5,247.54Z" transform="translate(-1.18)"/><path class="cls-6" d="M593,253a8.29,8.29,0,0,1,1.28-4.85,4.11,4.11,0,0,1,3.56-1.83,4.41,4.41,0,0,1,2.31.59,4.72,4.72,0,0,1,1.62,1.67l.16-2h1.17v12.51a5.45,5.45,0,0,1-1.31,3.87,4.7,4.7,0,0,1-3.65,1.42,9.68,9.68,0,0,1-1.93-.22,8,8,0,0,1-1.79-.61l.37-1.19a7.8,7.8,0,0,0,1.58.56,7.11,7.11,0,0,0,1.75.2,3.34,3.34,0,0,0,2.69-1.06,4.46,4.46,0,0,0,.9-3v-1.6a4.33,4.33,0,0,1-1.61,1.49,4.74,4.74,0,0,1-2.28.52,4.16,4.16,0,0,1-3.54-1.7,7.36,7.36,0,0,1-1.28-4.53Zm1.39.25a6.39,6.39,0,0,0,.93,3.65,3.09,3.09,0,0,0,2.75,1.36,3.84,3.84,0,0,0,2.26-.62A3.92,3.92,0,0,0,601.7,256v-5.88a4.46,4.46,0,0,0-1.33-1.81,3.52,3.52,0,0,0-2.29-.7,3,3,0,0,0-2.76,1.53,7.42,7.42,0,0,0-.94,3.93Z" transform="translate(-1.18)"/><path class="cls-6" d="M615.47,257.17a4.34,4.34,0,0,1-1.62,1.72,4.6,4.6,0,0,1-2.42.61,3.79,3.79,0,0,1-3.1-1.36,6.53,6.53,0,0,1-1.12-4.22v-6.15l-1.55-.15v-1h2.93V254a5.53,5.53,0,0,0,.78,3.33,2.67,2.67,0,0,0,2.22,1,4.1,4.1,0,0,0,2.52-.7,3.73,3.73,0,0,0,1.31-1.94v-7.87l-1.78-.15v-1h3.17v11.49l1.68.16v1H615.6Z" transform="translate(-1.18)"/><path class="cls-6" d="M620.44,258.23l1.89-.16v-10.3l-1.89-.15v-1h3.27v11.49l1.89.16v1h-5.16Zm3.27-15.29h-1.38v-2h1.38Z" transform="translate(-1.18)"/><path class="cls-6" d="M630.94,246.58l.17,2.11v.15a4.57,4.57,0,0,1,1.46-1.84,3.64,3.64,0,0,1,2.19-.66,4.38,4.38,0,0,1,.51,0l.41.09-.18,1.31-1-.07a3.12,3.12,0,0,0-2.16.75,4.11,4.11,0,0,0-1.2,2v7.57l1.89.16v1h-5.16v-1l1.89-.16v-10.3l-1.89-.15v-1h3.1Z" transform="translate(-1.18)"/><path class="cls-6" d="M648.61,258.32a4,4,0,0,0,2.44-.8,2.62,2.62,0,0,0,1.05-2.21h1.23l0,.07a3.53,3.53,0,0,1-1.39,2.94,5.12,5.12,0,0,1-3.36,1.18,4.74,4.74,0,0,1-4-1.77,7.14,7.14,0,0,1-1.4-4.57v-.49a7.12,7.12,0,0,1,1.4-4.55,4.74,4.74,0,0,1,3.94-1.78,6.46,6.46,0,0,1,2.66.55,5.37,5.37,0,0,1,2,1.5l0,2.77h-1.18l-.22-2.25a3.9,3.9,0,0,0-1.38-1,4.55,4.55,0,0,0-1.89-.37,3.31,3.31,0,0,0-3,1.46,6.45,6.45,0,0,0-1,3.67v.49a6.62,6.62,0,0,0,1,3.71A3.33,3.33,0,0,0,648.61,258.32Z" transform="translate(-1.18)"/><path class="cls-6" d="M655.54,242v-1h3.27v7.77a4.6,4.6,0,0,1,1.67-1.77,4.5,4.5,0,0,1,2.43-.64,3.8,3.8,0,0,1,3.05,1.25,5.86,5.86,0,0,1,1.06,3.85v6.63l1.89.16v1h-5.17v-1l1.89-.16v-6.65a4.37,4.37,0,0,0-.81-3,2.84,2.84,0,0,0-2.22-.9,3.67,3.67,0,0,0-2.38.76,4.33,4.33,0,0,0-1.41,2v7.74l1.89.16v1h-5.16v-1l1.89-.16v-15.9Z" transform="translate(-1.18)"/><path class="cls-6" d="M676.41,259.5a5,5,0,0,1-3.92-1.75,6.49,6.49,0,0,1-1.55-4.46v-.64a6.61,6.61,0,0,1,1.55-4.51,4.75,4.75,0,0,1,3.74-1.8,4.67,4.67,0,0,1,3.63,1.48,5.69,5.69,0,0,1,1.32,3.94V253h-8.86v.34a5.6,5.6,0,0,0,1.13,3.58,3.56,3.56,0,0,0,3,1.45,6,6,0,0,0,2.2-.36,4.3,4.3,0,0,0,1.57-1l.59,1a5,5,0,0,1-1.78,1.19A6.7,6.7,0,0,1,676.41,259.5Zm-.18-12a3.31,3.31,0,0,0-2.59,1.19,5.18,5.18,0,0,0-1.22,3l0,.06h7.36v-.35a4.05,4.05,0,0,0-1-2.77A3.27,3.27,0,0,0,676.23,247.54Z" transform="translate(-1.18)"/><path class="cls-6" d="M683.72,253a8.22,8.22,0,0,1,1.28-4.85,4.09,4.09,0,0,1,3.55-1.83,4.47,4.47,0,0,1,2.32.59,4.78,4.78,0,0,1,1.61,1.67l.17-2h1.17v12.51a5.5,5.5,0,0,1-1.31,3.87,4.72,4.72,0,0,1-3.66,1.42,9.77,9.77,0,0,1-1.93-.22,8,8,0,0,1-1.79-.61l.37-1.19a7.89,7.89,0,0,0,1.59.56,7,7,0,0,0,1.74.2,3.33,3.33,0,0,0,2.69-1.06,4.41,4.41,0,0,0,.91-3v-1.6a4.44,4.44,0,0,1-1.62,1.49,4.71,4.71,0,0,1-2.28.52,4.16,4.16,0,0,1-3.54-1.7,7.36,7.36,0,0,1-1.27-4.53Zm1.39.25a6.47,6.47,0,0,0,.92,3.65,3.11,3.11,0,0,0,2.76,1.36,3.83,3.83,0,0,0,2.25-.62,4,4,0,0,0,1.39-1.71v-5.88a4.48,4.48,0,0,0-1.34-1.81,3.51,3.51,0,0,0-2.28-.7,3.05,3.05,0,0,0-2.77,1.53,7.42,7.42,0,0,0-.93,3.93Z" transform="translate(-1.18)"/><path class="cls-6" d="M705.64,259.26a10.8,10.8,0,0,1-.2-1.12,7.46,7.46,0,0,1-.06-.95,5.51,5.51,0,0,1-1.85,1.66,5.32,5.32,0,0,1-2.61.65,4,4,0,0,1-2.86-1,3.43,3.43,0,0,1-1-2.6,3.23,3.23,0,0,1,1.5-2.79,7,7,0,0,1,4.06-1h2.77v-1.68a2.74,2.74,0,0,0-.86-2.13,3.53,3.53,0,0,0-2.42-.77,5.8,5.8,0,0,0-1.91.29,4.28,4.28,0,0,0-1.44.77l-.12,1.7h-1.15v-2.43a7.27,7.27,0,0,1,2.09-1.11,7.76,7.76,0,0,1,2.58-.42,5,5,0,0,1,3.34,1.07,3.78,3.78,0,0,1,1.26,3.06v6.23c0,.26,0,.51,0,.75a5.2,5.2,0,0,0,.07.69l1.26.09v1Zm-4.57-1a5,5,0,0,0,2.65-.7,4.14,4.14,0,0,0,1.66-1.82V253.2h-2.79a5.2,5.2,0,0,0-3,.79,2.37,2.37,0,0,0-1.13,2,2.08,2.08,0,0,0,.71,1.64A2.77,2.77,0,0,0,701.07,258.26Z" transform="translate(-1.18)"/><path class="cls-6" d="M713.08,246.58l.18,2.11v.15a4.55,4.55,0,0,1,1.45-1.84,3.66,3.66,0,0,1,2.19-.66,4.21,4.21,0,0,1,.51,0l.41.09-.18,1.31-1-.07a3.1,3.1,0,0,0-2.15.75,4,4,0,0,0-1.2,2v7.57l1.88.16v1H710v-1l1.9-.16v-10.3l-1.9-.15v-1h3.1Z" transform="translate(-1.18)"/><path class="cls-6" d="M734.12,257.43a4.44,4.44,0,0,1-1.61,1.53,4.76,4.76,0,0,1-2.32.54,4.12,4.12,0,0,1-3.52-1.7,7.36,7.36,0,0,1-1.27-4.53V253a8.29,8.29,0,0,1,1.27-4.85,4.05,4.05,0,0,1,3.54-1.83,4.3,4.3,0,0,1,3.87,2.15v-6.32l-1.89-.15v-1h3.29v17.09l1.88.16v1h-3.13Zm-7.32-4.16a6.43,6.43,0,0,0,.91,3.65,3.07,3.07,0,0,0,2.74,1.36,3.89,3.89,0,0,0,2.24-.61,4,4,0,0,0,1.39-1.67v-6a4.29,4.29,0,0,0-1.34-1.76,3.6,3.6,0,0,0-2.26-.68,3,3,0,0,0-2.76,1.52,7.56,7.56,0,0,0-.92,3.94Z" transform="translate(-1.18)"/><path class="cls-6" d="M745,259.5a5,5,0,0,1-3.92-1.75,6.49,6.49,0,0,1-1.55-4.46v-.64a6.61,6.61,0,0,1,1.55-4.51,4.75,4.75,0,0,1,3.74-1.8,4.67,4.67,0,0,1,3.63,1.48,5.69,5.69,0,0,1,1.32,3.94V253h-8.86v.34a5.6,5.6,0,0,0,1.13,3.58,3.56,3.56,0,0,0,3,1.45,6,6,0,0,0,2.2-.36,4.3,4.3,0,0,0,1.57-1l.59,1a5,5,0,0,1-1.78,1.19A6.7,6.7,0,0,1,745,259.5Zm-.18-12a3.27,3.27,0,0,0-2.58,1.19,5.13,5.13,0,0,0-1.23,3l0,.06h7.36v-.35a4.05,4.05,0,0,0-1-2.77A3.27,3.27,0,0,0,744.85,247.54Z" transform="translate(-1.18)"/><path class="cls-6" d="M755.77,247.62l-1.56.12,3.13,8.34.4,1.49h.07l.44-1.49,3.09-8.34-1.57-.12v-1H764v1l-1.23.11-4.43,11.53h-1.11l-4.44-11.53-1.23-.11v-1h4.22Z" transform="translate(-1.18)"/><path class="cls-6" d="M765.43,258.23l1.89-.16v-10.3l-1.89-.15v-1h3.27v11.49l1.89.16v1h-5.16Zm3.27-15.29h-1.38v-2h1.38Z" transform="translate(-1.18)"/><path class="cls-6" d="M781.64,257.43A4.29,4.29,0,0,1,780,259a4.74,4.74,0,0,1-2.32.54,4.13,4.13,0,0,1-3.52-1.7,7.42,7.42,0,0,1-1.27-4.53V253a8.37,8.37,0,0,1,1.27-4.85,4.08,4.08,0,0,1,3.55-1.83,4.47,4.47,0,0,1,2.27.56,4.59,4.59,0,0,1,1.6,1.59v-6.32l-1.89-.15v-1H783v17.09l1.89.16v1h-3.13Zm-7.31-4.16a6.43,6.43,0,0,0,.91,3.65,3.06,3.06,0,0,0,2.74,1.36,3.85,3.85,0,0,0,2.23-.61,4,4,0,0,0,1.4-1.67v-6a4.38,4.38,0,0,0-1.34-1.76,3.61,3.61,0,0,0-2.27-.68,3,3,0,0,0-2.75,1.52,7.46,7.46,0,0,0-.92,3.94Z" transform="translate(-1.18)"/><path class="cls-6" d="M787,252.73a6.8,6.8,0,0,1,1.52-4.59,5.4,5.4,0,0,1,8.05,0,6.8,6.8,0,0,1,1.52,4.59v.39a6.89,6.89,0,0,1-1.51,4.6,5.45,5.45,0,0,1-8.06,0,6.84,6.84,0,0,1-1.52-4.6Zm1.39.39a6,6,0,0,0,1.1,3.7,3.86,3.86,0,0,0,6.11,0,6,6,0,0,0,1.1-3.7v-.39a6.1,6.1,0,0,0-1.1-3.68,3.85,3.85,0,0,0-6.11,0,6,6,0,0,0-1.1,3.68Z" transform="translate(-1.18)"/><path class="cls-6" d="M417.9,288.06c-.09-.43-.16-.8-.2-1.12a7.46,7.46,0,0,1-.05-.95,5.65,5.65,0,0,1-1.86,1.66,5.26,5.26,0,0,1-2.61.65,4,4,0,0,1-2.85-1,3.4,3.4,0,0,1-1-2.6,3.24,3.24,0,0,1,1.49-2.79,7.06,7.06,0,0,1,4.06-1h2.78v-1.68a2.72,2.72,0,0,0-.87-2.13,3.51,3.51,0,0,0-2.42-.77,5.74,5.74,0,0,0-1.9.29,4.43,4.43,0,0,0-1.45.77l-.11,1.7h-1.15v-2.43a7.21,7.21,0,0,1,2.08-1.11,7.84,7.84,0,0,1,2.58-.42,5,5,0,0,1,3.34,1.07,3.79,3.79,0,0,1,1.27,3.06v6.23c0,.26,0,.51,0,.75a5.2,5.2,0,0,0,.08.69l1.25.09v1Zm-4.57-1a5,5,0,0,0,2.66-.7,4.2,4.2,0,0,0,1.66-1.82V282h-2.8a5.15,5.15,0,0,0-3,.79,2.37,2.37,0,0,0-1.13,2,2.07,2.07,0,0,0,.7,1.64A2.79,2.79,0,0,0,413.33,287.06Zm1.88-13.58h-1.36l-2.79-3.06,0-.06h1.79Z" transform="translate(-1.18)"/><path class="cls-6" d="M436.84,286.23a4.44,4.44,0,0,1-1.61,1.53,4.76,4.76,0,0,1-2.32.54,4.12,4.12,0,0,1-3.52-1.7,7.36,7.36,0,0,1-1.27-4.53v-.25a8.35,8.35,0,0,1,1.27-4.86,4.07,4.07,0,0,1,3.54-1.82,4.3,4.3,0,0,1,3.87,2.15V271l-1.89-.15v-1h3.29v17.09l1.89.16v1H437Zm-7.32-4.16a6.43,6.43,0,0,0,.91,3.65,3.07,3.07,0,0,0,2.74,1.36,3.89,3.89,0,0,0,2.24-.61,4,4,0,0,0,1.39-1.67v-6a4.29,4.29,0,0,0-1.34-1.76,3.6,3.6,0,0,0-2.26-.68,3,3,0,0,0-2.76,1.52,7.56,7.56,0,0,0-.92,3.94Z" transform="translate(-1.18)"/><path class="cls-6" d="M447.75,288.3a5,5,0,0,1-3.92-1.75,6.49,6.49,0,0,1-1.55-4.46v-.64a6.59,6.59,0,0,1,1.55-4.51,4.75,4.75,0,0,1,3.74-1.8,4.63,4.63,0,0,1,3.63,1.48,5.69,5.69,0,0,1,1.32,3.94v1.19h-8.86v.34a5.6,5.6,0,0,0,1.13,3.58,3.56,3.56,0,0,0,3,1.45,6.09,6.09,0,0,0,2.21-.36,4.34,4.34,0,0,0,1.56-1.05l.59,1a4.93,4.93,0,0,1-1.78,1.19A6.7,6.7,0,0,1,447.75,288.3Zm-.18-12a3.29,3.29,0,0,0-2.58,1.19,5.13,5.13,0,0,0-1.23,3l0,.06h7.35v-.35a4.1,4.1,0,0,0-1-2.77A3.3,3.3,0,0,0,447.57,276.34Z" transform="translate(-1.18)"/><path class="cls-6" d="M464.1,279.29H463l-.16-1.79a3.6,3.6,0,0,0-1.32-.86,5.16,5.16,0,0,0-1.83-.3,3.41,3.41,0,0,0-2.28.66,2,2,0,0,0-.76,1.55,1.86,1.86,0,0,0,.66,1.46,6.44,6.44,0,0,0,2.61,1,8.64,8.64,0,0,1,3.36,1.38,2.85,2.85,0,0,1,1.11,2.37,3.06,3.06,0,0,1-1.27,2.56,5.33,5.33,0,0,1-3.36,1,7.76,7.76,0,0,1-2.53-.39,6,6,0,0,1-2-1.11v-2.55h1.13l.19,1.8a3.19,3.19,0,0,0,1.41.82,6.18,6.18,0,0,0,1.78.25,3.78,3.78,0,0,0,2.38-.67,2,2,0,0,0,.87-1.62,2,2,0,0,0-.73-1.55,5.75,5.75,0,0,0-2.61-1.09,8.82,8.82,0,0,1-3.32-1.31,2.67,2.67,0,0,1-1.09-2.28,3.09,3.09,0,0,1,1.22-2.46,4.93,4.93,0,0,1,3.21-1,7.24,7.24,0,0,1,2.52.43,5.17,5.17,0,0,1,1.87,1.15Z" transform="translate(-1.18)"/><path class="cls-6" d="M466.79,287l1.89-.16v-10.3l-1.89-.15v-1h3.27v11.49L472,287v1h-5.16Zm3.27-15.29h-1.38v-2h1.38Z" transform="translate(-1.18)"/><path class="cls-6" d="M483,286.23a4.44,4.44,0,0,1-1.61,1.53,4.76,4.76,0,0,1-2.32.54,4.12,4.12,0,0,1-3.52-1.7,7.36,7.36,0,0,1-1.27-4.53v-.25a8.35,8.35,0,0,1,1.27-4.86,4.07,4.07,0,0,1,3.54-1.82,4.3,4.3,0,0,1,3.87,2.15V271l-1.89-.15v-1h3.28v17.09l1.89.16v1h-3.13Zm-7.32-4.16a6.43,6.43,0,0,0,.91,3.65,3.07,3.07,0,0,0,2.74,1.36,3.89,3.89,0,0,0,2.24-.61A4,4,0,0,0,483,284.8v-6a4.29,4.29,0,0,0-1.34-1.76,3.6,3.6,0,0,0-2.26-.68,3,3,0,0,0-2.76,1.52,7.56,7.56,0,0,0-.92,3.94Z" transform="translate(-1.18)"/><path class="cls-6" d="M491.39,275.38l.18,2.11v.15A4.55,4.55,0,0,1,493,275.8a3.69,3.69,0,0,1,2.19-.66,4.06,4.06,0,0,1,.51,0l.42.09-.19,1.31-1-.07a3.1,3.1,0,0,0-2.15.75,4.11,4.11,0,0,0-1.2,2v7.57l1.89.16v1H488.3v-1l1.89-.16v-10.3l-1.89-.15v-1h3.09Z" transform="translate(-1.18)"/><path class="cls-6" d="M506.6,288.06a10.8,10.8,0,0,1-.2-1.12,7.46,7.46,0,0,1-.06-.95,5.51,5.51,0,0,1-1.85,1.66,5.32,5.32,0,0,1-2.61.65,4,4,0,0,1-2.86-1,3.43,3.43,0,0,1-1-2.6,3.23,3.23,0,0,1,1.5-2.79,7,7,0,0,1,4.06-1h2.77v-1.68a2.74,2.74,0,0,0-.86-2.13,3.53,3.53,0,0,0-2.42-.77,5.8,5.8,0,0,0-1.91.29,4.28,4.28,0,0,0-1.44.77l-.12,1.7h-1.15v-2.43a7.27,7.27,0,0,1,2.09-1.11,7.76,7.76,0,0,1,2.58-.42,5,5,0,0,1,3.34,1.07,3.78,3.78,0,0,1,1.26,3.06v6.23c0,.26,0,.51,0,.75a5.2,5.2,0,0,0,.07.69l1.26.09v1Zm-4.57-1a5,5,0,0,0,2.65-.7,4.14,4.14,0,0,0,1.66-1.82V282h-2.79a5.2,5.2,0,0,0-3,.79,2.37,2.37,0,0,0-1.13,2,2.08,2.08,0,0,0,.71,1.64A2.77,2.77,0,0,0,502,287.06Z" transform="translate(-1.18)"/><path class="cls-6" d="M514.23,272.13v3.25H517v1.15h-2.76v8.26a2.76,2.76,0,0,0,.44,1.76,1.49,1.49,0,0,0,1.19.52c.23,0,.44,0,.66,0s.46-.05.73-.1l.21,1.05a3.38,3.38,0,0,1-.84.23,5.7,5.7,0,0,1-1,.08,2.6,2.6,0,0,1-2.06-.84,4,4,0,0,1-.74-2.67v-8.26h-2.15v-1.15h2.15v-3.25Z" transform="translate(-1.18)"/><path class="cls-6" d="M528.2,288.06c-.09-.43-.16-.8-.2-1.12s0-.63,0-.95a5.65,5.65,0,0,1-1.86,1.66,5.26,5.26,0,0,1-2.61.65,4,4,0,0,1-2.85-1,3.43,3.43,0,0,1-1-2.6,3.23,3.23,0,0,1,1.5-2.79,7,7,0,0,1,4-1H528v-1.68a2.72,2.72,0,0,0-.87-2.13,3.51,3.51,0,0,0-2.42-.77,5.74,5.74,0,0,0-1.9.29,4.43,4.43,0,0,0-1.45.77l-.11,1.7h-1.15v-2.43a7.21,7.21,0,0,1,2.08-1.11,7.84,7.84,0,0,1,2.58-.42,5,5,0,0,1,3.34,1.07,3.79,3.79,0,0,1,1.27,3.06v6.23c0,.26,0,.51,0,.75a5.2,5.2,0,0,0,.08.69l1.25.09v1Zm-4.57-1a5,5,0,0,0,2.66-.7,4.2,4.2,0,0,0,1.66-1.82V282h-2.8a5.15,5.15,0,0,0-3,.79,2.37,2.37,0,0,0-1.13,2,2.07,2.07,0,0,0,.7,1.64A2.79,2.79,0,0,0,523.63,287.06Z" transform="translate(-1.18)"/><path class="cls-6" d="M538,287.12a4,4,0,0,0,2.44-.8,2.62,2.62,0,0,0,1-2.21h1.23l0,.07a3.5,3.5,0,0,1-1.38,2.94A5.12,5.12,0,0,1,538,288.3a4.74,4.74,0,0,1-4-1.77,7.14,7.14,0,0,1-1.41-4.57v-.49a7.12,7.12,0,0,1,1.41-4.55,4.74,4.74,0,0,1,3.94-1.78,6.38,6.38,0,0,1,2.65.55,5.21,5.21,0,0,1,2,1.5l.06,2.77h-1.18l-.22-2.25a3.85,3.85,0,0,0-1.39-1,4.51,4.51,0,0,0-1.88-.37,3.32,3.32,0,0,0-3,1.46,6.53,6.53,0,0,0-1,3.67V282a6.54,6.54,0,0,0,1,3.71A3.36,3.36,0,0,0,538,287.12Zm.36,1-.13.75a2.75,2.75,0,0,1,1.48.57,1.75,1.75,0,0,1,.56,1.44,2,2,0,0,1-.91,1.7,4.53,4.53,0,0,1-2.62.64l-.08-.91a3.83,3.83,0,0,0,1.74-.36,1.12,1.12,0,0,0,.71-1.05,1,1,0,0,0-.47-.93,4.39,4.39,0,0,0-1.68-.36l.32-1.49Z" transform="translate(-1.18)"/><path class="cls-6" d="M554,288.06c-.09-.43-.15-.8-.19-1.12a7.46,7.46,0,0,1-.06-.95,5.55,5.55,0,0,1-1.86,1.66,5.26,5.26,0,0,1-2.61.65,4,4,0,0,1-2.85-1,3.43,3.43,0,0,1-1-2.6,3.23,3.23,0,0,1,1.5-2.79,7,7,0,0,1,4.06-1h2.77v-1.68a2.72,2.72,0,0,0-.87-2.13,3.5,3.5,0,0,0-2.41-.77,5.76,5.76,0,0,0-1.91.29,4.43,4.43,0,0,0-1.45.77l-.11,1.7h-1.15v-2.43a7.35,7.35,0,0,1,2.08-1.11,7.84,7.84,0,0,1,2.58-.42,5,5,0,0,1,3.34,1.07,3.76,3.76,0,0,1,1.27,3.06v6.23c0,.26,0,.51,0,.75a5.2,5.2,0,0,0,.07.69l1.25.09v1Zm.5-17.57a2.37,2.37,0,0,1-.64,1.71,2.08,2.08,0,0,1-1.58.68,3,3,0,0,1-1.76-.64,2.78,2.78,0,0,0-1.51-.65,1.2,1.2,0,0,0-.92.41,1.49,1.49,0,0,0-.37,1l-.92-.21a2.45,2.45,0,0,1,.62-1.69,2,2,0,0,1,1.59-.68,3.17,3.17,0,0,1,1.71.64,3,3,0,0,0,1.56.64,1.19,1.19,0,0,0,.91-.42,1.48,1.48,0,0,0,.38-1.06Zm-5.07,16.57a5,5,0,0,0,2.66-.7,4.14,4.14,0,0,0,1.66-1.82V282h-2.8a5.17,5.17,0,0,0-3,.79,2.37,2.37,0,0,0-1.13,2,2.1,2.1,0,0,0,.7,1.64A2.79,2.79,0,0,0,549.42,287.06Z" transform="translate(-1.18)"/><path class="cls-6" d="M558.43,281.53a6.85,6.85,0,0,1,1.52-4.59,5.41,5.41,0,0,1,8.06,0,6.8,6.8,0,0,1,1.52,4.59v.39a6.89,6.89,0,0,1-1.51,4.6,5,5,0,0,1-4,1.78,5.07,5.07,0,0,1-4-1.78,6.9,6.9,0,0,1-1.52-4.6Zm1.4.39a6.06,6.06,0,0,0,1.1,3.7,3.86,3.86,0,0,0,6.11,0,6.12,6.12,0,0,0,1.1-3.7v-.39a6,6,0,0,0-1.11-3.68,3.84,3.84,0,0,0-6.1,0,6,6,0,0,0-1.1,3.68Z" transform="translate(-1.18)"/><path class="cls-6" d="M573.94,288.06h-1.59v-1.93h1.59Z" transform="translate(-1.18)"/><path class="cls-6" d="M599.45,273.06l-.06,0-6.28,15h-1l-6.26-15-.07,0,.12,7.4v6.35l1.89.16v1h-5.16v-1l1.89-.16V272.19l-1.89-.15V271h3.71l6.21,15h.07l6.23-15h3.72V272l-1.89.15v14.68l1.89.16v1h-5.16v-1l1.89-.16v-6.35Z" transform="translate(-1.18)"/><path class="cls-6" d="M613.22,288.06c-.09-.43-.16-.8-.2-1.12a7.46,7.46,0,0,1,0-.95,5.65,5.65,0,0,1-1.86,1.66,5.26,5.26,0,0,1-2.61.65,4,4,0,0,1-2.85-1,3.4,3.4,0,0,1-1-2.6,3.24,3.24,0,0,1,1.49-2.79,7,7,0,0,1,4.06-1H613v-1.68a2.72,2.72,0,0,0-.87-2.13,3.53,3.53,0,0,0-2.42-.77,5.84,5.84,0,0,0-1.91.29,4.48,4.48,0,0,0-1.44.77l-.11,1.7h-1.15v-2.43a7.21,7.21,0,0,1,2.08-1.11,7.84,7.84,0,0,1,2.58-.42,5,5,0,0,1,3.34,1.07,3.79,3.79,0,0,1,1.27,3.06v6.23c0,.26,0,.51,0,.75a5.2,5.2,0,0,0,.08.69l1.25.09v1Zm-4.57-1a5,5,0,0,0,2.66-.7,4.26,4.26,0,0,0,1.66-1.82V282h-2.8a5.15,5.15,0,0,0-3,.79,2.35,2.35,0,0,0-1.13,2,2.07,2.07,0,0,0,.7,1.64A2.79,2.79,0,0,0,608.65,287.06Z" transform="translate(-1.18)"/><path class="cls-6" d="M626.77,279.29h-1.14l-.16-1.79a3.6,3.6,0,0,0-1.32-.86,5.16,5.16,0,0,0-1.83-.3A3.41,3.41,0,0,0,620,277a2,2,0,0,0-.76,1.55,1.86,1.86,0,0,0,.66,1.46,6.44,6.44,0,0,0,2.62,1,8.65,8.65,0,0,1,3.35,1.38,2.85,2.85,0,0,1,1.11,2.37,3.06,3.06,0,0,1-1.27,2.56,5.33,5.33,0,0,1-3.36,1,7.81,7.81,0,0,1-2.53-.39,6,6,0,0,1-2-1.11v-2.55H619l.19,1.8a3.19,3.19,0,0,0,1.41.82,6.18,6.18,0,0,0,1.78.25,3.78,3.78,0,0,0,2.38-.67,2,2,0,0,0,.87-1.62,2,2,0,0,0-.72-1.55,5.85,5.85,0,0,0-2.62-1.09,8.82,8.82,0,0,1-3.32-1.31,2.67,2.67,0,0,1-1.09-2.28,3.09,3.09,0,0,1,1.22-2.46,4.93,4.93,0,0,1,3.21-1,7.34,7.34,0,0,1,2.53.43,5.21,5.21,0,0,1,1.86,1.15Z" transform="translate(-1.18)"/><path class="cls-6" d="M635.32,281.53a6.85,6.85,0,0,1,1.52-4.59,5.41,5.41,0,0,1,8.06,0,6.8,6.8,0,0,1,1.52,4.59v.39a6.89,6.89,0,0,1-1.51,4.6,5.46,5.46,0,0,1-8.07,0,6.9,6.9,0,0,1-1.52-4.6Zm1.4.39a6.06,6.06,0,0,0,1.1,3.7,3.86,3.86,0,0,0,6.11,0,6.12,6.12,0,0,0,1.1-3.7v-.39a6,6,0,0,0-1.11-3.68,3.84,3.84,0,0,0-6.1,0,6,6,0,0,0-1.1,3.68Z" transform="translate(-1.18)"/><path class="cls-6" d="M648.43,287l1.89-.16v-10.3l-1.89-.15v-1h3.12l.13,2.21a4.48,4.48,0,0,1,1.63-1.81,4.53,4.53,0,0,1,2.42-.64,3.83,3.83,0,0,1,3.11,1.26,6,6,0,0,1,1.07,3.93v6.54l1.89.16v1h-5.17v-1l1.89-.16v-6.52a4.64,4.64,0,0,0-.81-3.09,2.9,2.9,0,0,0-2.29-.9,3.55,3.55,0,0,0-2.38.78,4.31,4.31,0,0,0-1.33,2.07v7.66l1.89.16v1h-5.17Z" transform="translate(-1.18)"/><path class="cls-6" d="M672.59,286.23a4.39,4.39,0,0,1-1.62,1.53,4.74,4.74,0,0,1-2.32.54,4.13,4.13,0,0,1-3.52-1.7,7.42,7.42,0,0,1-1.27-4.53v-.25a8.42,8.42,0,0,1,1.27-4.86,4.1,4.1,0,0,1,3.55-1.82,4.3,4.3,0,0,1,3.87,2.15V271l-1.89-.15v-1h3.28v17.09l1.89.16v1H672.7Zm-7.32-4.16a6.43,6.43,0,0,0,.91,3.65,3.06,3.06,0,0,0,2.74,1.36,3.85,3.85,0,0,0,2.23-.61,4,4,0,0,0,1.4-1.67v-6a4.29,4.29,0,0,0-1.34-1.76,3.61,3.61,0,0,0-2.27-.68,3,3,0,0,0-2.75,1.52,7.56,7.56,0,0,0-.92,3.94Z" transform="translate(-1.18)"/><path class="cls-6" d="M683.5,288.3a5,5,0,0,1-3.92-1.75,6.45,6.45,0,0,1-1.56-4.46v-.64a6.64,6.64,0,0,1,1.55-4.51,4.78,4.78,0,0,1,3.74-1.8,4.6,4.6,0,0,1,3.63,1.48,5.69,5.69,0,0,1,1.33,3.94v1.19H679.4v.34a5.6,5.6,0,0,0,1.14,3.58,3.56,3.56,0,0,0,3,1.45,6,6,0,0,0,2.2-.36,4.38,4.38,0,0,0,1.57-1.05l.59,1a5,5,0,0,1-1.79,1.19A6.64,6.64,0,0,1,683.5,288.3Zm-.19-12a3.29,3.29,0,0,0-2.58,1.19,5.12,5.12,0,0,0-1.22,3l0,.06h7.36v-.35a4.1,4.1,0,0,0-1-2.77A3.27,3.27,0,0,0,683.31,276.34Z" transform="translate(-1.18)"/><path class="cls-6" d="M700.16,276.42l-1.56.12,3.13,8.34.41,1.49h.07l.44-1.49,3.08-8.34-1.56-.12v-1h4.22v1l-1.23.11-4.43,11.53h-1.12l-4.44-11.53-1.23-.11v-1h4.22Z" transform="translate(-1.18)"/><path class="cls-6" d="M709.74,281.53a6.85,6.85,0,0,1,1.52-4.59,5.41,5.41,0,0,1,8.06,0,6.8,6.8,0,0,1,1.52,4.59v.39a6.89,6.89,0,0,1-1.51,4.6,5.46,5.46,0,0,1-8.07,0,6.9,6.9,0,0,1-1.52-4.6Zm1.4.39a6.06,6.06,0,0,0,1.1,3.7,3.86,3.86,0,0,0,6.11,0,6.12,6.12,0,0,0,1.1-3.7v-.39a6,6,0,0,0-1.11-3.68,3.84,3.84,0,0,0-6.1,0,6,6,0,0,0-1.1,3.68Z" transform="translate(-1.18)"/><path class="cls-6" d="M732.32,286a4.21,4.21,0,0,1-1.62,1.72,4.59,4.59,0,0,1-2.41.61,3.8,3.8,0,0,1-3.11-1.36,6.59,6.59,0,0,1-1.11-4.22v-6.15l-1.56-.15v-1h2.94v7.37a5.55,5.55,0,0,0,.78,3.33,2.64,2.64,0,0,0,2.22,1,4.06,4.06,0,0,0,2.51-.7,3.8,3.8,0,0,0,1.32-1.94v-7.87l-1.79-.15v-1h3.18v11.49l1.68.16v1h-2.9Z" transform="translate(-1.18)"/><path class="cls-6" d="M414.6,315.92a3.92,3.92,0,0,0,2.43-.8,2.63,2.63,0,0,0,1.06-2.21h1.23l0,.07a3.48,3.48,0,0,1-1.39,2.94,5.12,5.12,0,0,1-3.35,1.18,4.76,4.76,0,0,1-4-1.77,7.2,7.2,0,0,1-1.4-4.57v-.49a7.18,7.18,0,0,1,1.4-4.55,4.76,4.76,0,0,1,3.94-1.78,6.46,6.46,0,0,1,2.66.55,5.29,5.29,0,0,1,2,1.5l.06,2.77h-1.19l-.22-2.25a3.9,3.9,0,0,0-1.38-1,4.52,4.52,0,0,0-1.89-.37,3.31,3.31,0,0,0-3,1.46,6.45,6.45,0,0,0-1,3.67v.49a6.62,6.62,0,0,0,1,3.71A3.36,3.36,0,0,0,414.6,315.92Z" transform="translate(-1.18)"/><path class="cls-6" d="M421.93,310.33a6.84,6.84,0,0,1,1.51-4.59,5.41,5.41,0,0,1,8.06,0,6.8,6.8,0,0,1,1.52,4.59v.39a6.89,6.89,0,0,1-1.51,4.6,5,5,0,0,1-4,1.78,5.07,5.07,0,0,1-4.05-1.78,6.89,6.89,0,0,1-1.51-4.6Zm1.39.39a6.06,6.06,0,0,0,1.1,3.7,3.86,3.86,0,0,0,6.11,0,6.06,6.06,0,0,0,1.1-3.7v-.39a6,6,0,0,0-1.11-3.68,3.84,3.84,0,0,0-6.1,0,6,6,0,0,0-1.1,3.68Z" transform="translate(-1.18)"/><path class="cls-6" d="M435,315.83l1.89-.16v-10.3l-1.89-.15v-1h3.12l.13,2.21a4.48,4.48,0,0,1,1.63-1.81,4.54,4.54,0,0,1,2.43-.64,3.83,3.83,0,0,1,3.1,1.26,6,6,0,0,1,1.07,3.93v6.54l1.89.16v1h-5.17v-1l1.89-.16v-6.52a4.64,4.64,0,0,0-.81-3.09,2.9,2.9,0,0,0-2.29-.9,3.57,3.57,0,0,0-2.38.78,4.38,4.38,0,0,0-1.33,2.07v7.66l1.89.16v1H435Z" transform="translate(-1.18)"/><path class="cls-6" d="M459.69,308.09h-1.14l-.16-1.79a3.6,3.6,0,0,0-1.32-.86,5.16,5.16,0,0,0-1.83-.3,3.36,3.36,0,0,0-2.27.66,2,2,0,0,0-.76,1.55,1.85,1.85,0,0,0,.65,1.46,6.44,6.44,0,0,0,2.62,1,8.58,8.58,0,0,1,3.35,1.38,2.85,2.85,0,0,1,1.11,2.37,3.06,3.06,0,0,1-1.27,2.56,5.31,5.31,0,0,1-3.36,1,7.81,7.81,0,0,1-2.53-.39,6,6,0,0,1-2-1.11v-2.55h1.13l.19,1.8a3.31,3.31,0,0,0,1.41.82,6.22,6.22,0,0,0,1.78.25,3.78,3.78,0,0,0,2.38-.67,2,2,0,0,0,.87-1.62,2,2,0,0,0-.72-1.55,5.85,5.85,0,0,0-2.62-1.09,8.82,8.82,0,0,1-3.32-1.31,2.69,2.69,0,0,1-1.09-2.28,3.09,3.09,0,0,1,1.22-2.46,4.93,4.93,0,0,1,3.21-1,7.3,7.3,0,0,1,2.53.43,5.21,5.21,0,0,1,1.86,1.15Z" transform="translate(-1.18)"/><path class="cls-6" d="M468,317.1a5,5,0,0,1-3.92-1.75,6.49,6.49,0,0,1-1.55-4.46v-.64a6.59,6.59,0,0,1,1.55-4.51,4.75,4.75,0,0,1,3.73-1.8,4.64,4.64,0,0,1,3.64,1.48,5.69,5.69,0,0,1,1.32,3.94v1.19h-8.86v.34a5.6,5.6,0,0,0,1.13,3.58,3.56,3.56,0,0,0,3,1.45,6,6,0,0,0,2.2-.36,4.38,4.38,0,0,0,1.57-1.05l.59,1a5,5,0,0,1-1.78,1.19A6.7,6.7,0,0,1,468,317.1Zm-.19-12a3.29,3.29,0,0,0-2.58,1.19,5.18,5.18,0,0,0-1.22,3l0,.06h7.36V309a4.05,4.05,0,0,0-1-2.77A3.27,3.27,0,0,0,467.81,305.14Z" transform="translate(-1.18)"/><path class="cls-6" d="M475.31,310.62a8.27,8.27,0,0,1,1.28-4.86,4.11,4.11,0,0,1,3.55-1.82,4.47,4.47,0,0,1,2.32.59,4.78,4.78,0,0,1,1.61,1.67l.17-2h1.17v12.51a5.5,5.5,0,0,1-1.31,3.87,4.76,4.76,0,0,1-3.66,1.42,9.12,9.12,0,0,1-1.93-.23,7.51,7.51,0,0,1-1.79-.6l.37-1.19a7.89,7.89,0,0,0,1.59.56,7,7,0,0,0,1.74.2,3.33,3.33,0,0,0,2.69-1.06,4.41,4.41,0,0,0,.91-3v-1.6a4.44,4.44,0,0,1-1.62,1.49,4.71,4.71,0,0,1-2.28.52,4.16,4.16,0,0,1-3.54-1.7,7.36,7.36,0,0,1-1.27-4.53Zm1.39.25a6.47,6.47,0,0,0,.92,3.65,3.11,3.11,0,0,0,2.76,1.36,3.83,3.83,0,0,0,2.25-.62,4,4,0,0,0,1.39-1.71v-5.88a4.48,4.48,0,0,0-1.34-1.81,3.51,3.51,0,0,0-2.28-.7,3.07,3.07,0,0,0-2.77,1.52,7.49,7.49,0,0,0-.93,3.94Z" transform="translate(-1.18)"/><path class="cls-6" d="M497.78,314.77a4.21,4.21,0,0,1-1.62,1.72,4.59,4.59,0,0,1-2.41.61,3.8,3.8,0,0,1-3.11-1.36,6.59,6.59,0,0,1-1.11-4.22v-6.15l-1.56-.15v-1h2.94v7.37a5.55,5.55,0,0,0,.78,3.33,2.64,2.64,0,0,0,2.22,1,4.06,4.06,0,0,0,2.51-.7,3.8,3.8,0,0,0,1.32-1.94v-7.87l-1.79-.15v-1h3.18v11.49l1.68.16v1h-2.9Z" transform="translate(-1.18)"/><path class="cls-6" d="M502.76,315.83l1.89-.16v-10.3l-1.89-.15v-1H506v11.49l1.89.16v1h-5.16ZM506,300.54h-1.38v-2H506Z" transform="translate(-1.18)"/><path class="cls-6" d="M513.25,304.18l.18,2.11v.15a4.55,4.55,0,0,1,1.45-1.84,3.69,3.69,0,0,1,2.19-.66,4.38,4.38,0,0,1,.52,0l.41.09-.19,1.31-1-.07a3.11,3.11,0,0,0-2.15.75,4.11,4.11,0,0,0-1.2,2v7.57l1.89.16v1h-5.16v-1l1.89-.16v-10.3l-1.89-.15v-1h3.09Z" transform="translate(-1.18)"/><path class="cls-6" d="M534.23,316.86a10.5,10.5,0,0,1-.19-1.12,7.46,7.46,0,0,1-.06-.95,5.65,5.65,0,0,1-1.86,1.66,5.26,5.26,0,0,1-2.61.65,4,4,0,0,1-2.85-1,3.43,3.43,0,0,1-1-2.6,3.23,3.23,0,0,1,1.5-2.79,7,7,0,0,1,4.06-1H534V308a2.72,2.72,0,0,0-.87-2.13,3.5,3.5,0,0,0-2.41-.77,6,6,0,0,0-1.91.28,4.64,4.64,0,0,0-1.45.78l-.11,1.7h-1.15v-2.43a7.35,7.35,0,0,1,2.08-1.11,7.84,7.84,0,0,1,2.58-.42,5,5,0,0,1,3.34,1.07,3.76,3.76,0,0,1,1.27,3.06v6.23c0,.26,0,.51,0,.75a5.2,5.2,0,0,0,.07.69l1.25.09v1Zm-4.57-1a5,5,0,0,0,2.66-.7,4.2,4.2,0,0,0,1.66-1.82V310.8h-2.8a5.17,5.17,0,0,0-3,.79,2.37,2.37,0,0,0-1.13,2,2.1,2.1,0,0,0,.7,1.64A2.79,2.79,0,0,0,529.66,315.86ZM532,299.34h1.7l0,.07-2.89,3h-1.24Z" transform="translate(-1.18)"/><path class="cls-6" d="M538.73,310.62a8.35,8.35,0,0,1,1.28-4.86,4.13,4.13,0,0,1,3.56-1.82,4.41,4.41,0,0,1,2.31.59,4.9,4.9,0,0,1,1.62,1.67l.16-2h1.17v12.51a5.45,5.45,0,0,1-1.31,3.87,4.74,4.74,0,0,1-3.65,1.42,9,9,0,0,1-1.93-.23,7.37,7.37,0,0,1-1.79-.6l.37-1.19a7.8,7.8,0,0,0,1.58.56,7.11,7.11,0,0,0,1.75.2,3.34,3.34,0,0,0,2.69-1.06,4.46,4.46,0,0,0,.9-3v-1.6a4.33,4.33,0,0,1-1.61,1.49,4.74,4.74,0,0,1-2.28.52,4.16,4.16,0,0,1-3.54-1.7,7.36,7.36,0,0,1-1.28-4.53Zm1.39.25a6.39,6.39,0,0,0,.93,3.65,3.09,3.09,0,0,0,2.75,1.36,3.86,3.86,0,0,0,2.26-.62,4,4,0,0,0,1.38-1.71v-5.88a4.46,4.46,0,0,0-1.33-1.81,3.52,3.52,0,0,0-2.29-.7,3,3,0,0,0-2.76,1.52,7.39,7.39,0,0,0-.94,3.94Z" transform="translate(-1.18)"/><path class="cls-6" d="M561.21,314.77a4.34,4.34,0,0,1-1.62,1.72,4.6,4.6,0,0,1-2.42.61,3.78,3.78,0,0,1-3.1-1.36,6.53,6.53,0,0,1-1.12-4.22v-6.15l-1.55-.15v-1h2.93v7.37a5.55,5.55,0,0,0,.78,3.33,2.67,2.67,0,0,0,2.22,1,4.1,4.1,0,0,0,2.52-.7,3.73,3.73,0,0,0,1.31-1.94v-7.87l-1.78-.15v-1h3.17v11.49l1.68.16v1h-2.89Z" transform="translate(-1.18)"/><path class="cls-6" d="M574.94,316.86c-.09-.43-.16-.8-.2-1.12a7.46,7.46,0,0,1-.06-.95,5.51,5.51,0,0,1-1.85,1.66,5.29,5.29,0,0,1-2.61.65,4,4,0,0,1-2.85-1,3.4,3.4,0,0,1-1-2.6,3.24,3.24,0,0,1,1.49-2.79,7,7,0,0,1,4.06-1h2.77V308a2.71,2.71,0,0,0-.86-2.13,3.53,3.53,0,0,0-2.42-.77,6.12,6.12,0,0,0-1.91.28,4.7,4.7,0,0,0-1.44.78l-.12,1.7h-1.14v-2.43a7.21,7.21,0,0,1,2.08-1.11,7.84,7.84,0,0,1,2.58-.42A5,5,0,0,1,574.8,305a3.78,3.78,0,0,1,1.26,3.06v6.23c0,.26,0,.51,0,.75a5.2,5.2,0,0,0,.08.69l1.25.09v1Zm-4.57-1a5,5,0,0,0,2.65-.7,4.14,4.14,0,0,0,1.66-1.82V310.8h-2.79a5.15,5.15,0,0,0-3,.79,2.35,2.35,0,0,0-1.13,2,2.07,2.07,0,0,0,.7,1.64A2.79,2.79,0,0,0,570.37,315.86Z" transform="translate(-1.18)"/><path class="cls-6" d="M584.9,315.83l1.89-.16v-10.3l-1.89-.15v-1H588l.13,2.21a4.48,4.48,0,0,1,1.63-1.81,4.54,4.54,0,0,1,2.43-.64,3.83,3.83,0,0,1,3.1,1.26,6,6,0,0,1,1.07,3.93v6.54l1.89.16v1H593.1v-1l1.89-.16v-6.52a4.64,4.64,0,0,0-.81-3.09,2.9,2.9,0,0,0-2.29-.9,3.57,3.57,0,0,0-2.38.78,4.38,4.38,0,0,0-1.33,2.07v7.66l1.89.16v1H584.9Z" transform="translate(-1.18)"/><path class="cls-6" d="M600.34,310.33a6.8,6.8,0,0,1,1.52-4.59,5.41,5.41,0,0,1,8.06,0,6.84,6.84,0,0,1,1.51,4.59v.39a6.89,6.89,0,0,1-1.51,4.6,5.45,5.45,0,0,1-8.06,0,6.84,6.84,0,0,1-1.52-4.6Zm1.39.39a6.12,6.12,0,0,0,1.1,3.7,3.86,3.86,0,0,0,6.11,0,6.06,6.06,0,0,0,1.1-3.7v-.39a6.1,6.1,0,0,0-1.1-3.68,3.85,3.85,0,0,0-6.11,0,6.1,6.1,0,0,0-1.1,3.68Z" transform="translate(-1.18)"/><path class="cls-6" d="M624.83,315.92a4,4,0,0,0,2.44-.8,2.62,2.62,0,0,0,1.05-2.21h1.23l0,.07a3.5,3.5,0,0,1-1.38,2.94,5.12,5.12,0,0,1-3.36,1.18,4.74,4.74,0,0,1-4-1.77,7.14,7.14,0,0,1-1.41-4.57v-.49a7.12,7.12,0,0,1,1.41-4.55,4.74,4.74,0,0,1,3.94-1.78,6.41,6.41,0,0,1,2.65.55,5.21,5.21,0,0,1,2,1.5l.06,2.77h-1.18l-.22-2.25a3.85,3.85,0,0,0-1.39-1,4.51,4.51,0,0,0-1.88-.37,3.32,3.32,0,0,0-3,1.46,6.53,6.53,0,0,0-1,3.67v.49a6.54,6.54,0,0,0,1,3.71A3.36,3.36,0,0,0,624.83,315.92Z" transform="translate(-1.18)"/><path class="cls-6" d="M640.82,316.86a10.5,10.5,0,0,1-.19-1.12,7.46,7.46,0,0,1-.06-.95,5.65,5.65,0,0,1-1.86,1.66,5.26,5.26,0,0,1-2.61.65,4,4,0,0,1-2.85-1,3.43,3.43,0,0,1-1-2.6,3.23,3.23,0,0,1,1.5-2.79,7,7,0,0,1,4.06-1h2.77V308a2.72,2.72,0,0,0-.87-2.13,3.5,3.5,0,0,0-2.41-.77,6,6,0,0,0-1.91.28,4.64,4.64,0,0,0-1.45.78l-.11,1.7h-1.15v-2.43a7.35,7.35,0,0,1,2.08-1.11,7.84,7.84,0,0,1,2.58-.42,5,5,0,0,1,3.34,1.07,3.76,3.76,0,0,1,1.27,3.06v6.23c0,.26,0,.51,0,.75a5.2,5.2,0,0,0,.07.69l1.25.09v1Zm-4.57-1a5,5,0,0,0,2.66-.7,4.2,4.2,0,0,0,1.66-1.82V310.8h-2.8a5.17,5.17,0,0,0-3,.79,2.37,2.37,0,0,0-1.13,2,2.07,2.07,0,0,0,.7,1.64A2.79,2.79,0,0,0,636.25,315.86Z" transform="translate(-1.18)"/><path class="cls-6" d="M645,305.22v-1h3.12l.13,2.09a4.46,4.46,0,0,1,1.61-1.72,4.6,4.6,0,0,1,2.4-.61,4,4,0,0,1,2.4.71,3.86,3.86,0,0,1,1.38,2.16,4.92,4.92,0,0,1,1.62-2.1,4.23,4.23,0,0,1,2.56-.77,3.76,3.76,0,0,1,3.1,1.35,6.56,6.56,0,0,1,1.1,4.17v6.2l1.89.17v1h-5.19v-1l1.89-.17v-6.22a5.14,5.14,0,0,0-.82-3.31,2.79,2.79,0,0,0-2.27-1,3.08,3.08,0,0,0-2.5,1,5,5,0,0,0-1.09,2.66,1,1,0,0,0,0,.18v6.63l1.89.16v1H653v-1l1.89-.16v-6.23a5.1,5.1,0,0,0-.83-3.29,2.8,2.8,0,0,0-2.27-1,3.39,3.39,0,0,0-2.35.76,4,4,0,0,0-1.22,2v7.72l1.9.16v1H645v-1l1.89-.16v-10.3Z" transform="translate(-1.18)"/><path class="cls-6" d="M667.89,315.83l1.89-.16v-10.3l-1.89-.15v-1h3.27v11.49l1.89.16v1h-5.16Zm3.27-15.29h-1.38v-2h1.38Z" transform="translate(-1.18)"/><path class="cls-6" d="M675.13,315.83l1.89-.16v-10.3l-1.89-.15v-1h3.12l.12,2.21a4.33,4.33,0,0,1,4.06-2.45,3.85,3.85,0,0,1,3.11,1.26,6,6,0,0,1,1.07,3.93v6.54l1.89.16v1h-5.17v-1l1.89-.16v-6.52a4.64,4.64,0,0,0-.81-3.09,2.92,2.92,0,0,0-2.29-.9,3.55,3.55,0,0,0-2.38.78,4.31,4.31,0,0,0-1.33,2.07v7.66l1.89.16v1h-5.17Z" transform="translate(-1.18)"/><path class="cls-6" d="M690.27,299.62v-1h3.27v7.76a4.72,4.72,0,0,1,1.67-1.76,4.56,4.56,0,0,1,2.44-.64,3.79,3.79,0,0,1,3,1.24,5.85,5.85,0,0,1,1.06,3.86v6.63l1.89.16v1h-5.17v-1l1.89-.16V309a4.42,4.42,0,0,0-.8-3,2.84,2.84,0,0,0-2.22-.9,3.72,3.72,0,0,0-2.39.76,4.4,4.4,0,0,0-1.41,2v7.74l1.89.16v1h-5.16v-1l1.89-.16v-15.9Z" transform="translate(-1.18)"/><path class="cls-6" d="M705.62,310.33a6.8,6.8,0,0,1,1.52-4.59,5.4,5.4,0,0,1,8.05,0,6.8,6.8,0,0,1,1.52,4.59v.39a6.89,6.89,0,0,1-1.51,4.6,5.45,5.45,0,0,1-8.06,0,6.84,6.84,0,0,1-1.52-4.6Zm1.39.39a6.06,6.06,0,0,0,1.1,3.7,3.86,3.86,0,0,0,6.11,0,6.06,6.06,0,0,0,1.1-3.7v-.39a6.1,6.1,0,0,0-1.1-3.68,3.85,3.85,0,0,0-6.11,0,6,6,0,0,0-1.1,3.68Z" transform="translate(-1.18)"/><path class="cls-6" d="M722,312.12a6.5,6.5,0,0,1,.25-2.14,5.34,5.34,0,0,1,1.32-1.6,14.82,14.82,0,0,0,1.82-2.18,4.06,4.06,0,0,0,.58-2.26,3.24,3.24,0,0,0-.78-2.32,3,3,0,0,0-2.25-.82,3.08,3.08,0,0,0-2.21.8,2.91,2.91,0,0,0-.84,2.18h-1.29l0-.07a3.76,3.76,0,0,1,1.2-3,4.53,4.53,0,0,1,3.16-1.11,4.08,4.08,0,0,1,4.43,4.38,5.2,5.2,0,0,1-.77,2.81,14.13,14.13,0,0,1-2.19,2.56,2.67,2.67,0,0,0-.88,1.16,6.7,6.7,0,0,0-.15,1.66Zm1.56,4.74H722v-1.81h1.6Z" transform="translate(-1.18)"/><g class="cls-7"><path class="cls-2" d="M160.5,145.35a11.16,11.16,0,0,1,7.95,3.63,18.92,18.92,0,0,1,4.81-.64,17.54,17.54,0,0,1,13.05,5.94c14.34,5.38,8.65,14,8.32,14.5l.16,0s8.41,5.88,5.53,8.76c0,0,5.19,6.45,1,9.91a4.77,4.77,0,0,1-1.5.75C211.65,206.59,218.68,239,214,265.75c-.92,5.29-7,9.1-23.27,9.1h0a86.47,86.47,0,0,1-15.76-1.4c.15,1.24.33,2.6.51,3.95h0c.81,5.83,2,12.44,3.3,13.42,8.32,6.24,20.71,8.83,27.68,9.84l10.09.94a25.3,25.3,0,0,1,2.24,2.54h.11c3,0,5.43,3.33,5.43,3.33l39.78,69.63-34.33,61.6s11.53,19.37,5.76,28.13l8,7.95s1.27,4.27-4.5,4.27c-1.72,0-4.13-.91-6.68-2.17A434.15,434.15,0,0,1,233.92,522a43.08,43.08,0,0,0-4.64-.7l0,3h0c-.11,20.47-.05,50,1.17,56.77,1.9,10.55,0,15.73,0,15.73s5.18,82.08,5.18,82.71,7.27,10,7.27,10,9.6,7.56,17.07,13.56h0s4.5,1.17,6.26,2.64a6.1,6.1,0,0,1,1.88,3.93c.5.33,1.33.89,2.27,1.57a24.15,24.15,0,0,0,6.49,1.21c1,1,0,2.15-1.34,3,.75.8,1.2,1.5,1.07,2-.49,1.8-7.44,9.12-20,9.12-.71,0-1.44,0-2.18-.07-13.2-.87-31.5-14.93-33-18.85a11.64,11.64,0,0,1,.19-7.89c0-3.34,2-7.34,3.13-9.34,1.73-3.11,2.94-11.93,2.94-11.93-19-66.75-8.13-76.14-10.2-81-1.32-3.08-13.07-46.77-21.46-78.2h0l0-.14c-.48-1.82-1-3.6-1.42-5.32a22.5,22.5,0,0,1-4.34-2.57,136.25,136.25,0,0,1-22.82,9.05l-2.42,6-22.66,56.83S138,598.92,132.88,604a224.67,224.67,0,0,1-12.62,36.48c-8.64,19.37-12.45,46-12.45,46s6.2,15.73,6.92,25.56c7.29,10,13.83,22.28,5.15,25.91A49.76,49.76,0,0,1,101,741.28c-10.46,0-19.84-2.45-22-4.63-3.51-3.52,6.47-30.15,6.47-30.15.31-2.42,1-4.75,2.39-5.74,3.46-2.42,7.61-8.3,7.61-8.3s-1.3-3.46,2.33-8.13,9-34.61,9-38.53-4.85-33.2,11.29-44.72c0,0,1.85-37.44,6.58-64.52h0c.51-3.08,1.07-6,1.68-8.74-5,.41-7.93.46-7.93.46s4.79-13.35,10.91-30.53c-5.22-.5-1.79-8.6-1.79-8.6a43.68,43.68,0,0,0,6.14-3.61q1-2.81,2-5.63c-1.73-4.26,2.58-17.51,2.58-17.51L122.4,450.45,76.34,415.72s37-87.26,38.5-88.76c1-1,8.12-5.16,13-8,5.16-5.15,16.23-9.24,16.23-9.24s10.55-11.93,12.8-14.17,1.21-8.48,1.21-8.48l-5.77-22.18c-10.21-6.41-14.23-13.55-14.23-13.55a5.12,5.12,0,0,1-3.76,1.51c-3.36,0-6.73-2.55-6.73-2.55s-14.64-14.64-10-21.56a4.35,4.35,0,0,1,3.8-2.09c3,0,6.61,2.49,9.14,4.62-5.2-4.53-8-5.15-9.1-5.15l-.35,0-.09.07-.07,0-.1,0,0-.11c-1.09-.55-6-3.24-6.42-7.79-8.27-2.59-6.67-7.2-6.67-7.2-8-5.42,0-14.12,0-14.12-3.55-3.55-.81-8.71-.81-8.71-4.15-5.88,1-13.14,1-13.14.57-6.34,10.08-10.08,10.08-10.08.75-3.17,4.67-4.67,4.67-4.67a6.94,6.94,0,0,1,6.39-3.95,4,4,0,0,1,.53,0c3.45-7.45,16.38-8.17,21.21-8.17,1.15,0,1.84,0,1.84,0a12.92,12.92,0,0,1,7.85-3m65,272.39,21.34-38.49-20.29-30.17c.54,8.66.87,17.57.78,25.95a338.19,338.19,0,0,1-3,40.92,2.84,2.84,0,0,1,1.17,1.79m-78,28.67c2.06-5.9,3.86-11.07,5.21-15-2.14-4.29,1.21-6.22,2.22-6.68.11-.38.21-.7.27-.92,2.08-7.61-17.46-44.93-17.46-44.93l-16.5-10.34L98.1,412l37,25.76,12.41,8.64M267.57,709.22h0M160.5,140h0a17.47,17.47,0,0,0-9.47,3h-.22c-6.95,0-18.65,1.16-24.31,8.39a12.05,12.05,0,0,0-7.62,5,13.57,13.57,0,0,0-5,4.74c-3.43,1.75-9.7,5.73-11.09,12.13-2.19,3.63-4.23,9.76-1.8,15.53a13.15,13.15,0,0,0,.26,8.08,16,16,0,0,0-2.4,9.7,12,12,0,0,0,3.45,7.11,10,10,0,0,0,.94,2.82,13.21,13.21,0,0,0,6.62,5.92,14.22,14.22,0,0,0,2.76,4.27c-2.61,4.77-1.32,11,3.81,18.54a68.59,68.59,0,0,0,7.39,9l.56.49c.8.61,5.06,3.63,10,3.63a12,12,0,0,0,2-.17,53.91,53.91,0,0,0,11.32,10.2l5.18,19.92a12.29,12.29,0,0,1,0,3.88c-2.34,2.41-9.3,10.25-11.87,13.15-3.25,1.3-11.37,4.82-16.32,9.45-12,6.91-13,7.88-13.6,8.52-1,1-1.66,1.67-21,46.62-9.33,21.77-18.6,43.63-18.69,43.84l1.7,6.38,46.06,34.73,12.86,9.7c-1.34,4.77-2.59,10.81-1.95,15.15l-.89,2.52a42.38,42.38,0,0,1-4,2.2l-2.64,2.75c-.73,1.72-2.9,7.66-.26,12.09a8,8,0,0,0,.52.77c-5.43,15.22-9.5,26.57-9.5,26.57l5.15,7.17,1.21,0c-.12.68-.24,1.37-.35,2.06h0c-4.09,23.43-6,53.89-6.51,62.7-14.35,12.54-12.29,37.08-11.59,45.39.07.82.15,1.76.15,2-.06,4.37-5.38,31.48-7.89,35.27A16.12,16.12,0,0,0,89.86,691a30.17,30.17,0,0,1-5.09,5.37c-2.42,1.7-3.91,4.59-4.55,8.83-.66,1.78-2.71,7.48-4.47,13.57-3.64,12.57-3.79,18.44-.56,21.68,4.08,4.07,16.08,6.21,25.82,6.21A54.87,54.87,0,0,0,122,742.91a11.52,11.52,0,0,0,7-7.64c1.71-6.14-1.15-14.17-9-25.18-1-8.73-5.12-20.23-6.6-24.18.89-5.56,4.68-27.2,11.83-43.22a233,233,0,0,0,12.62-36.11c5.06-6.2,8.7-18.54,9.59-21.78l22.55-56.55,1.47-3.68a141.31,141.31,0,0,0,18.42-7.24l.14.08.81,3,0,.08v0c18.18,68.09,20.86,76.71,21.56,78.54,0,.49-.2,1.48-.34,2.29-1.3,7.82-4.34,26,10.16,77.34-.56,3.54-1.5,7.78-2.16,9-2.29,4.13-3.56,7.81-3.77,11a16.61,16.61,0,0,0,.13,10.8c1.94,5.09,12.19,11.86,14.22,13.17,4.92,3.15,14.49,8.53,23.43,9.11.84.06,1.69.08,2.53.08,14.4,0,23.91-8.38,25.19-13.07a6.12,6.12,0,0,0,.15-2.49,6.6,6.6,0,0,0,.69-2.37,6.51,6.51,0,0,0-2-5.33L277.06,707a20.86,20.86,0,0,1-4.23-.67,10.47,10.47,0,0,0-3.2-4.8,21.77,21.77,0,0,0-7.19-3.4c-6.27-5-13.74-10.91-15.75-12.49-2.24-2.9-4.74-6.21-5.82-7.77-.25-4.25-1.23-20.1-5.05-80.54.59-2.44,1.49-8.21-.14-17.25-.84-4.69-1.23-24.56-1.08-54.6l4.68-3.35c0-.84.41-18.56-.94-37.73l.67,0c4.67,0,7.11-2,8.34-3.61a8.74,8.74,0,0,0,1.3-7.55L247.3,471l-5.4-5.4c1.27-4.72.6-10.73-2-17.94a76.94,76.94,0,0,0-4-8.93l32.89-59,0-5.27L229,304.81l-.3-.48a14.27,14.27,0,0,0-7.06-5.17c-.41-.45-.83-.91-1.28-1.35l-3.3-1.55-9.95-.93c-6.05-.89-16.92-3.1-24.3-8.22a50.89,50.89,0,0,1-1.55-7.36c3.1.31,6.27.46,9.49.46,6.5,0,26.22,0,28.57-13.54,4.31-24.82-.94-56.42-12.53-77.29,2.49-3.78,1.72-8.59-.53-12.59a8.58,8.58,0,0,0,0-1.34c-.28-3.27-2.71-6.26-5.16-8.48a12.76,12.76,0,0,0-.29-6.57c-1.42-4.52-5.23-8.1-11.34-10.65a23.2,23.2,0,0,0-16.2-6.77,22.4,22.4,0,0,0-3.25.23A15.91,15.91,0,0,0,160.5,140Zm71.37,255.24c.42-6,.76-12.84.84-20.13q0-3.48,0-7.29l7.89,11.72-8.71,15.7Zm-126.8,15.11,18.19-34.21,10.38,6.5c1.43,2.79,5,9.77,8.37,17.31,6.36,14,7.67,19.69,7.92,21.69a9.84,9.84,0,0,0-2.77,4.05,9.62,9.62,0,0,0-.16,5.79q-1,2.85-2.25,6.51l-6.61-4.6-33.07-23Z" transform="translate(-1.18)"/><path class="cls-8" d="M221.57,699.64a11.64,11.64,0,0,0-.19,7.89c1.49,3.92,19.79,18,33,18.85,13.94.91,21.67-7.15,22.19-9s-9-8.11-9-8.11Z" transform="translate(-1.18)"/><path class="cls-8" d="M85.45,706.5s-10,26.63-6.47,30.15,25.61,7.71,40.9,1.31-16.69-39.77-16.69-39.77Z" transform="translate(-1.18)"/><path class="cls-9" d="M151.56,261.83l6.57,25.24s1,6.23-1.21,8.48-12.8,14.17-12.8,14.17l-5.88,11.59,34.07,19.36,40.63-10.89-1.21-28.53s-20.81-1.32-32.94-10.43c-2.38-1.79-4.41-22.59-4.41-22.59Z" transform="translate(-1.18)"/><path class="cls-10" d="M175.5,277.4c-.64-4.65-1.16-9.34-1.16-9.34l-22.82-6.4,1.83,7s7.14,4.66,9.36,5.63A43.29,43.29,0,0,0,175.5,277.4Z" transform="translate(-1.18)"/><path class="cls-9" d="M132.62,316.26s-16.28,9.2-17.78,10.7-38.5,88.76-38.5,88.76l46.06,34.73,15.84,11.95s-5,15.39-2.07,18.33-8.65,8.42-8.65,8.42-4.49,10.6,4.62,8.3S153.58,489,153.58,489l6.11-34.12-24.61-17.14L98.1,412l23.13-43.49,16.5,10.34L158,364.08l-14.53-36.2-6.22-13.6Z" transform="translate(-1.18)"/><path class="cls-9" d="M138.13,251.34s13.2,23.5,52.62,23.51c16.31,0,22.37-3.81,23.29-9.1,5.77-33.27-6.52-75.34-23.58-88.19-15-11.26-68,31.36-68,31.36l11.3,25.36s-11.53-12.45-16.14-5.54,10,21.56,10,21.56S134.21,255.26,138.13,251.34Z" transform="translate(-1.18)"/><path class="cls-9" d="M216.91,304.65c3.92-2.07,7.43,2.82,7.43,2.82l39.78,69.63-34.33,61.6s11.53,19.37,5.76,28.13l8,7.95s1.27,4.27-4.5,4.27-19.36-10.15-19.36-10.15l1.57-43.42,25.64-46.23-23.54-35L216,337.72S209.6,308.52,216.91,304.65Z" transform="translate(-1.18)"/><path class="cls-9" d="M175.59,499.56l-33.31,83.53S138,598.92,132.88,604a224.67,224.67,0,0,1-12.62,36.48c-8.64,19.37-12.45,46-12.45,46s7.87,20,6.92,29c0,0,7.52,10.37,4.49,16.34s-14.87,2.42-14.87,2.42-19.79,2.59-22.73-2.34,3.71-18.15,3.71-18.15-1-10.55,2.51-13,7.61-8.3,7.61-8.3-1.3-3.46,2.33-8.13,9-34.61,9-38.53-4.85-33.2,11.29-44.72c0,0,3.92-79.54,15-90.61s42.53-17.63,42.53-17.63Z" transform="translate(-1.18)"/><path class="cls-11" d="M175.59,499.56l-10.65,26.7s-14.73,6.58-18.46,7.5c-2.77.68-22.49,6.78-21.83,2.8,2.07-12.43,4.93-22.61,8.41-26.09,11.06-11.06,42.53-17.63,42.53-17.63Z" transform="translate(-1.18)"/><path class="cls-9" d="M187.47,487.19s27.89,105.36,30,110.2-8.82,14.23,10.2,81c0,0-1.21,8.82-2.94,11.93S219,701.36,224,704.13s21.27,16.6,28.18,17.81,19.89-4.84,19.89-4.84,6.91-2.59,4.75-4.76c0,0-6.31-.26-8.38-2.33s-25.59-20.58-25.59-20.58-7.27-9.33-7.27-10-5.18-82.71-5.18-82.71,1.9-5.18,0-15.73-1-77-1-77Z" transform="translate(-1.18)"/><path class="cls-11" d="M187.47,487.19s6.56,24.7,8.51,32c.75,2.8,33.27,5.06,33.27,5.06l.18-20.23Z" transform="translate(-1.18)"/><path class="cls-12" d="M187.47,508.05c5.39,10.7,43.31,13,46.45,13.95,0,0,1-42.95-5.06-67.07S187.47,508.05,187.47,508.05Z" transform="translate(-1.18)"/><path class="cls-13" d="M141.36,241.89c6.68,2.76.92-9.23.92-9.23s-.63-12-4-14.06a48.68,48.68,0,0,1-7.42-6.06l63.79-43.74s6.46-9-8.3-14.52a17.55,17.55,0,0,0-17.86-5.3s-6.46-7.73-15.8-.64c0,0-18.79-1.09-23.05,8.13a7,7,0,0,0-6.92,3.92s-3.92,1.5-4.67,4.67c0,0-9.51,3.74-10.08,10.08,0,0-5.19,7.26-1,13.14,0,0-2.74,5.16.81,8.71,0,0-8,8.7,0,14.12,0,0-2,5.65,9.68,7.95l3.46,7.15s3.33-1.51,12.91,8.07Z" transform="translate(-1.18)"/><path class="cls-10" d="M187.81,242.53a2.26,2.26,0,0,1,0-4.52c2.44,0,10.61-2,15.31-3.66-1.45-11.88-10.39-20.75-14.92-25.08a2.25,2.25,0,1,1,3.11-3.26c5.22,5,14.13,15.48,15.12,29.72l.12,1.71-1.61.58C203.65,238.48,192.23,242.53,187.81,242.53Z" transform="translate(-1.18)"/><path class="cls-10" d="M133.23,248.69s-.35-15.13-12-18.76" transform="translate(-1.18)"/><path class="cls-10" d="M121.23,368.52s10-13.37,8.66-11.33c-7.31,11.3,18.69,24.34,24.78,17.38,0,0-6,7.72-16.94,4.29Z" transform="translate(-1.18)"/><path class="cls-14" d="M144.12,309.72s-11.07,4.09-16.23,9.24c0,0,31.05,45,9.84,59.9,0,0,19.53,37.32,17.46,44.93S118.4,528.28,118.4,528.28s107.21-1.9,111-72L224.35,416a338.19,338.19,0,0,0,3-40.92c.22-19.69-1.93-42.32-3.51-57.76a24.93,24.93,0,0,0-7.28-15.67l-10.09-.94s8,26.7-10.47,29.23C186.05,331.25,162.11,334.46,144.12,309.72Z" transform="translate(-1.18)"/><g class="cls-15"><path class="cls-16" d="M122.4,530.91s107.2-1.91,111-72Z" transform="translate(-1.18)"/></g><path class="cls-14" d="M144.12,309.72s-11.07,4.09-16.23,9.24c0,0,31.05,45,9.84,59.9,0,0,19.53,37.32,17.46,44.93S118.4,528.28,118.4,528.28s107.21-1.9,111-72L224.35,416a338.19,338.19,0,0,0,3-40.92c.22-19.69-1.93-42.32-3.51-57.76a24.93,24.93,0,0,0-7.28-15.67l-10.09-.94s8,26.7-10.47,29.23C186.05,331.25,162.11,334.46,144.12,309.72Z" transform="translate(-1.18)"/><path class="cls-9" d="M122.4,450.45l15.84,11.95s-5,15.39-2.07,18.33-8.65,8.42-8.65,8.42-4.49,10.6,4.62,8.3S153.58,489,153.58,489l5.18-28.94s1.59-5.68-4.87-9.47c-5-2.93-18.81-12.85-18.81-12.85Z" transform="translate(-1.18)"/><path class="cls-8" d="M152.81,431.63s56.52,7.52,72.2-10.46c0,0,1.71-3.55-.66-5.22.34,3.32-26.54,17.8-69.16,8.64C155.19,424.59,150,426.44,152.81,431.63Z" transform="translate(-1.18)"/><circle class="cls-17" cx="198.58" cy="428.9" r="13.18"/><g class="cls-18"><path class="cls-19" d="M137.16,173.87s-5.66,6.86,1.52,11.45c2.51,1.6-7.44,9.33-7.44,9.33l-4,22.57s5.19-2.09,8.65-2.09L154.07,236l-11.68,7.29-37.23-25.09L80.38,170.3l31.93-29,34.93-8.13-6.14,12.17s-14.83,9.06-9.17,15.59C128.39,163.43,127.7,173.21,137.16,173.87Z" transform="translate(-1.18)"/></g><path class="cls-6" d="M121,226.21s-6.68-3-6.68-8.53,26.05-57.87,80.46-48.88c0,0,8.41,5.88,5.53,8.76,0,0,5.19,6.45,1,9.91S177,185.86,121,226.21Z" transform="translate(-1.18)"/><path class="cls-20" d="M124,214s34.81-42.43,72.05-36.9C196,177.1,161.3,179,124,214Z" transform="translate(-1.18)"/><path class="cls-8" d="M80.28,726.81s19.8-8.47,39.6-2a8.68,8.68,0,0,0-1.47-4.84c-1.64-2.59-26.46-6.57-37,2.12C81.41,722.1,79.16,725.34,80.28,726.81Z" transform="translate(-1.18)"/><path class="cls-8" d="M247.71,720.22s.77-17.44,19.86-11l.51.42a6.18,6.18,0,0,0-1.89-4c-1.76-1.47-6.26-2.64-6.26-2.64s-17.48-4.31-17.22,14.27C242.71,717.26,245.43,721.09,247.71,720.22Z" transform="translate(-1.18)"/><path class="cls-21" d="M201.21,439.91c-2.07,0-6.51-.41-9.42-3.66-2.53-2.82-3.23-6.91-2.1-12.16a2.26,2.26,0,1,1,4.41,1c-.81,3.76-.46,6.52,1.05,8.19,2.26,2.53,6.67,2.16,6.71,2.14a2.28,2.28,0,0,1,2.48,2,2.25,2.25,0,0,1-2,2.47A9.94,9.94,0,0,1,201.21,439.91Z" transform="translate(-1.18)"/><path class="cls-22" d="M207.72,435.44a2.09,2.09,0,0,1-.49-.05,2.26,2.26,0,0,1-1.71-2.69c.83-3.75.49-6.51-1-8.2-2.25-2.54-6.66-2.18-6.7-2.18a2.26,2.26,0,0,1-.45-4.49c.28,0,6.73-.61,10.53,3.68,2.5,2.83,3.19,6.92,2,12.16A2.26,2.26,0,0,1,207.72,435.44Z" transform="translate(-1.18)"/><path class="cls-23" d="M168.89,208.24c2-2,4.81-2.46,7.45-2.86,1.68-.25,1.62-2.94-.09-2.68-3.37.51-6.81,1.15-9.3,3.68-1.21,1.23.72,3.09,1.94,1.86Z" transform="translate(-1.18)"/><path class="cls-23" d="M194.84,202.65a5.72,5.72,0,0,1,5-.55,1.34,1.34,0,0,0,.9-2.52,8.6,8.6,0,0,0-7.67,1c-1.44.95.33,3,1.76,2Z" transform="translate(-1.18)"/><ellipse class="cls-23" cx="173.91" cy="213.01" rx="3.01" ry="4.11" transform="translate(-47.84 48.8) rotate(-14.1)"/><ellipse class="cls-23" cx="199.08" cy="208.96" rx="3.01" ry="4.11" transform="translate(-46.1 54.81) rotate(-14.1)"/><path class="cls-24" d="M202.87,247.15s-16.4,3-23.57,9.4c0,0,17.94,4.15,24.49-.11l.47-.56A17.64,17.64,0,0,1,202.87,247.15Z" transform="translate(-1.18)"/><path class="cls-25" d="M184.91,253.87s7.44-1.19,12,3.37l-13.94-.5s-3.35-1.38-.71-2.13Z" transform="translate(-1.18)"/><path class="cls-26" d="M184,254.43s16.32-2.8,20.23-4.25a19.22,19.22,0,0,0,0-2.31C204.14,247.34,188.74,250.68,184,254.43Z" transform="translate(-1.18)"/><path class="cls-10" d="M205.43,257.8a34.24,34.24,0,0,1-13.13,1.48,94.27,94.27,0,0,1-12.75-2h0a.78.78,0,0,1-.61-.91.85.85,0,0,1,.25-.43,38.54,38.54,0,0,1,12.33-7.05,100.42,100.42,0,0,1,13.62-3.65,1.5,1.5,0,0,1,.63,2.94h-.08a101.27,101.27,0,0,0-13.45,2.84,36.83,36.83,0,0,0-12.07,6.09l-.36-1.35h0A92.66,92.66,0,0,0,192.39,257a31.46,31.46,0,0,0,12-2,1.5,1.5,0,0,1,1.12,2.79l-.08,0Z" transform="translate(-1.18)"/></g></g></g></svg>