<svg xmlns="http://www.w3.org/2000/svg" xmlns:xlink="http://www.w3.org/1999/xlink" viewBox="0 0 848.82 729.97"><defs><style>.cls-1{fill:none;}.cls-2{fill:#eaa000;}.cls-3{fill:#97d8dd;}.cls-4{fill:#027e8f;}.cls-5{fill:#65c4d1;}.cls-6{fill:#fff;}.cls-7{clip-path:url(#clip-path);}.cls-8{fill:#c9a68f;}.cls-9{fill:#6d472e;}.cls-10{fill:#eac2a7;}.cls-11{fill:#d6aa8b;}.cls-12{fill:#d6d6d6;}.cls-13{fill:#c99f4b;}.cls-14{fill:#6d5f56;}.cls-15{fill:#f4f4f4;}.cls-16{clip-path:url(#clip-path-2);}.cls-17{fill:#b7b7b7;}.cls-18{fill:#c99e32;}.cls-19{clip-path:url(#clip-path-3);}.cls-20{fill:#aa7e30;}.cls-21{fill:#ddd;}.cls-22{fill:#846829;}.cls-23{fill:#e8cd95;}</style><clipPath id="clip-path" transform="translate(-1.18)"><path class="cls-1" d="M251.36,483.49s-46.93,35.65-125.54,6.36S47.21,235.52,47.21,235.52s72.3-107.46,88.47-104.59,110.46,21.16,110.46,55.82,42,190.29,42,190.29,17.62,68.24,8.81,73.44"/></clipPath><clipPath id="clip-path-2" transform="translate(-1.18)"><path class="cls-1" d="M187.5,498c5.23,10.37,42,12.56,45,13.52,0,0,1-41.62-4.91-65S187.5,498,187.5,498Z"/></clipPath><clipPath id="clip-path-3" transform="translate(-1.18)"><path class="cls-1" d="M142.82,240c6.48,2.68.9-8.94.9-8.94s-.62-11.65-3.91-13.63a47.23,47.23,0,0,1-7.2-5.88l16.56-11.35,45.26-31s6.26-8.71-8-14.07A17,17,0,0,0,169.07,150s-6.25-7.48-15.3-.61c0,0-18.21-1.06-22.34,7.87a6.79,6.79,0,0,0-6.7,3.8s-3.8,1.45-4.53,4.52c0,0-9.21,3.63-9.77,9.78,0,0-5,7-1,12.73,0,0-2.65,5,.79,8.44,0,0-7.71,8.43,0,13.68,0,0-1.9,5.47,9.38,7.71l3.35,6.92s3.23-1.46,12.51,7.82S142.82,240,142.82,240Z"/></clipPath></defs><title>3</title><g id="Camada_2" data-name="Camada 2"><g id="Camada_1-2" data-name="Camada 1"><path class="cls-2" d="M178.5,157.82c93.46.1,169.21,76.64,169.31,171.09S272,500,178.5,500,9.18,423.4,9.18,328.91,85,157.82,178.5,157.82m0-8h0a174.9,174.9,0,0,0-69.06,14.08,176.81,176.81,0,0,0-56.36,38.4,180.13,180.13,0,0,0,0,253.22,176.62,176.62,0,0,0,56.36,38.39,176.26,176.26,0,0,0,138.11,0,176.62,176.62,0,0,0,56.36-38.39,180.08,180.08,0,0,0-.06-253.16A176.68,176.68,0,0,0,247.52,164a174.73,174.73,0,0,0-69-14.14Z" transform="translate(-1.18)"/><path class="cls-3" d="M178.49,157.82C85,157.82,9.18,234.42,9.18,328.91S85,500,178.49,500s169.32-76.6,169.32-171.09S272,157.92,178.49,157.82Zm0,330.77c-87.27,0-158-71.49-158-159.68s70.75-159.69,158-159.69,158,71.49,158,159.69S265.73,488.49,178.49,488.59Z" transform="translate(-1.18)"/><path class="cls-3" d="M258.4,204.63a5.59,5.59,0,0,0-7.81,1.66l-9.24,14.34a5.74,5.74,0,0,0-.77,4.37,5.67,5.67,0,0,0,2.57,3.61,76.27,76.27,0,0,1,6.33,4.56c1.27,1,2.54,2,3.53,2.67,1.75,1.45,3.44,3,5.11,4.54l-3.9,4a112.82,112.82,0,0,0-24.74-17.13L241,201a5.73,5.73,0,0,0,.11-4.36,5.61,5.61,0,0,0-3-3.17,146.35,146.35,0,0,0-52-12.52,5.59,5.59,0,0,0-4.08,1.45,5.73,5.73,0,0,0-1.85,3.95l-.87,17.09a5.69,5.69,0,0,0,5.33,6l5.94.3,6.33,1c.81.14,1.63.26,2.44.38,1.22.18,2.44.35,3.51.6l.78.2-1.48,5.59a114.13,114.13,0,0,0-29.89-2.45l-2.93-28.53a5.7,5.7,0,0,0-2.06-3.85,5.62,5.62,0,0,0-4.15-1.24,144.31,144.31,0,0,0-51.28,15.44,5.73,5.73,0,0,0-2.45,7.67l7.7,15.24a5.61,5.61,0,0,0,7.4,2.58c1.13-.53,2.25-1.09,3.38-1.64a57.74,57.74,0,0,1,8.07-3.51l1.44-.54c1.7-.63,3.34-1.25,5-1.81l1.46,5.52c-1.39.48-2.74,1-4.08,1.49l-1.34.51a52,52,0,0,0-8,3.44c-1,.48-1.93,1-3.4,1.66l-9.56,5.57-.65.36-16.64-23.11a5.6,5.6,0,0,0-7.89-1.25,147.55,147.55,0,0,0-36.8,39.11,5.72,5.72,0,0,0,1.65,7.89l14.19,9.34a5.63,5.63,0,0,0,7.9-1.82,74.64,74.64,0,0,1,4.49-6.38c1-1.29,2-2.59,2.65-3.59,1.45-1.77,3-3.47,4.51-5.16l3.9,4a113.35,113.35,0,0,0-17,25L52,265.73a5.63,5.63,0,0,0-7.46,2.89,150.47,150.47,0,0,0-12.38,52.56,5.68,5.68,0,0,0,5.35,6l16.91.88a5.56,5.56,0,0,0,4.07-1.44,5.71,5.71,0,0,0,1.85-3.94l.3-6,1-6.39c.15-.82.26-1.65.38-2.48.17-1.23.34-2.47.59-3.53l.19-.79,5.54,1.5a116.84,116.84,0,0,0-2.43,30.2l-28.24,3a5.69,5.69,0,0,0-5,6.27,149.65,149.65,0,0,0,15.28,51.82,5.6,5.6,0,0,0,7.59,2.48l15.07-7.78a5.74,5.74,0,0,0,2.56-7.48c-.52-1.13-1.07-2.25-1.61-3.36a60.45,60.45,0,0,1-3.49-8.2l-.55-1.51c-.63-1.7-1.23-3.35-1.77-5l5.53-1.5a113.68,113.68,0,0,0,12.88,27.3L61.13,408a5.73,5.73,0,0,0-1.24,8,147.36,147.36,0,0,0,38.7,37.19,5.59,5.59,0,0,0,4.25.81,5.65,5.65,0,0,0,3.56-2.47l9.23-14.34a5.74,5.74,0,0,0-1.79-8,72.36,72.36,0,0,1-6.33-4.55c-1.27-1-2.54-2-3.53-2.67-1.76-1.46-3.44-3-5.11-4.55l4-4c1.51,1.39,3.06,2.8,4.94,4.36,1.1.78,2.17,1.61,3.24,2.44a67.64,67.64,0,0,0,6.29,4.48l10.08,5.84.12.06L116,456.78a5.74,5.74,0,0,0,2.86,7.53,146.3,146.3,0,0,0,52,12.52h.29a5.67,5.67,0,0,0,5.63-5.41l.88-17.08a5.68,5.68,0,0,0-5.33-6l-5.94-.3-6.33-1c-.81-.14-1.63-.26-2.44-.37-1.22-.18-2.44-.36-3.51-.6l-.78-.2,1.48-5.59a114.13,114.13,0,0,0,29.89,2.45l2.93,28.53a5.7,5.7,0,0,0,2.06,3.84,5.57,5.57,0,0,0,4.15,1.24,144.29,144.29,0,0,0,51.28-15.43,5.74,5.74,0,0,0,2.46-7.67L239.85,438a5.61,5.61,0,0,0-7.39-2.58c-1.14.53-2.26,1.08-3.39,1.64a58.08,58.08,0,0,1-8.06,3.5l-1.44.55c-1.7.63-3.35,1.25-5,1.8l-1.49-5.59a110.77,110.77,0,0,0,27-13L256.8,447.5a5.61,5.61,0,0,0,7.89,1.26,147.9,147.9,0,0,0,36.81-39.11,5.78,5.78,0,0,0,.79-4.29,5.7,5.7,0,0,0-2.45-3.61l-14.19-9.33a5.61,5.61,0,0,0-7.9,1.82,76.25,76.25,0,0,1-4.49,6.38c-1,1.29-2,2.58-2.65,3.59-1.45,1.77-3,3.47-4.51,5.16l-3.9-3.95a113.58,113.58,0,0,0,16.95-25L305,392.09a5.62,5.62,0,0,0,7.45-2.89,150.31,150.31,0,0,0,12.39-52.56,5.69,5.69,0,0,0-5.35-6l-16.91-.89a5.71,5.71,0,0,0-5.92,5.39l-.3,6-1,6.39c-.15.82-.26,1.65-.38,2.47-.18,1.24-.35,2.47-.59,3.54l-.2.79-5.44-1.47,0-.14c.3-1.33.5-2.68.68-4,.09-.63.17-1.26.3-2l.86-5.61a5.42,5.42,0,0,0,.06-.58l.3-6V322.94l0-.27,28.35-3a5.68,5.68,0,0,0,3.8-2.08,5.8,5.8,0,0,0,1.23-4.19,150,150,0,0,0-15.28-51.82,5.62,5.62,0,0,0-7.59-2.48l-15.08,7.78a5.73,5.73,0,0,0-2.55,7.48c.52,1.13,1.06,2.24,1.6,3.36A58,58,0,0,1,289,286l.55,1.51c.63,1.7,1.24,3.35,1.78,5l-5.53,1.49a113.47,113.47,0,0,0-12.89-27.29l22.93-16.86a5.73,5.73,0,0,0,1.24-8A147.16,147.16,0,0,0,258.4,204.63Zm3.44,56.06a5.74,5.74,0,0,0-1.25,8,102.11,102.11,0,0,1,15.92,33.69,5.65,5.65,0,0,0,6.9,4L299.77,302a5.71,5.71,0,0,0,4.07-6.7,83.35,83.35,0,0,0-3.69-11.78l-.45-1.23a59.68,59.68,0,0,0-3.16-7.73l5-2.6a138.89,138.89,0,0,1,10.94,37l-27.95,2.94a5.67,5.67,0,0,0-5.05,6l.28,5.53v10.91l-.28,5.37-.8,5.24c-.13.75-.23,1.49-.34,2.24-.14,1-.27,2-.46,2.88l-1.41,5.48a5.71,5.71,0,0,0,4,6.95l16.36,4.41a5.61,5.61,0,0,0,4.31-.58,5.68,5.68,0,0,0,2.61-3.5l1.66-6.51c.35-1.52.57-3.06.79-4.61.11-.73.2-1.46.34-2.28l1-7.05.05-.87,5.54.28a139.15,139.15,0,0,1-8.84,37.55L278.7,367.73a5.63,5.63,0,0,0-4.32-.11,5.69,5.69,0,0,0-3.14,3,102.14,102.14,0,0,1-20.92,30.87,5.76,5.76,0,0,0,0,8.06l12,12.1a5.5,5.5,0,0,0,4.15,1.67,5.64,5.64,0,0,0,4.05-1.91c1-1.15,2-2.28,3.06-3.41,2-2.14,3.91-4.29,6-6.86.86-1.22,1.77-2.41,2.67-3.61.63-.83,1.27-1.66,1.89-2.52l4.74,3.12a136.26,136.26,0,0,1-26.3,27.95l-16.55-23a5.6,5.6,0,0,0-7.88-1.26A100.42,100.42,0,0,1,204.77,428a5.63,5.63,0,0,0-3.43,2.65,5.74,5.74,0,0,0-.56,4.33l4.37,16.53a5.64,5.64,0,0,0,6.64,4.1,82.89,82.89,0,0,0,11.7-3.73l1.17-.44a58.84,58.84,0,0,0,7.65-3.2l2.57,5.08a135.29,135.29,0,0,1-36.64,11l-2.9-28.23a5.62,5.62,0,0,0-2-3.84,5.52,5.52,0,0,0-4.13-1.25,102.62,102.62,0,0,1-37-3,5.58,5.58,0,0,0-4.28.57,5.7,5.7,0,0,0-2.63,3.46l-4.38,16.54a5.75,5.75,0,0,0,.58,4.35,5.66,5.66,0,0,0,3.47,2.64l6.43,1.67c1.51.35,3,.58,4.58.81.72.1,1.43.2,2.24.34l7,1.05.87.05-.29,5.6a135.68,135.68,0,0,1-37.16-8.94l11.44-25.92a5.73,5.73,0,0,0-2.7-7.46l-4.69-2.27-9.63-5.59a56,56,0,0,1-5.13-3.7c-1.2-.93-2.4-1.85-3.28-2.45-1.63-1.36-3.18-2.81-4.74-4.25-1.16-1.08-2.33-2.16-3.52-3.21a5.6,5.6,0,0,0-7.7.26l-12,12.1a5.73,5.73,0,0,0,.23,8.29c1.12,1,2.22,2,3.32,3.05,2.14,2,4.29,4,6.84,6.09,1.21.86,2.38,1.77,3.56,2.68.82.64,1.66,1.29,2.52,1.93l-3.09,4.79a135.9,135.9,0,0,1-27.66-26.59l22.72-16.71a5.73,5.73,0,0,0,1.25-8,102.36,102.36,0,0,1-15.92-33.7,5.64,5.64,0,0,0-6.9-4l-16.36,4.42a5.71,5.71,0,0,0-4.07,6.7,84.8,84.8,0,0,0,3.69,11.79l.45,1.22a59.81,59.81,0,0,0,3.16,7.74l-5,2.59a139,139,0,0,1-10.94-37l27.95-2.93a5.68,5.68,0,0,0,5-6.22,105.63,105.63,0,0,1,3-37.35,5.74,5.74,0,0,0-.56-4.33,5.67,5.67,0,0,0-3.44-2.66L60.13,291a5.61,5.61,0,0,0-4.31.59A5.73,5.73,0,0,0,53.2,295l-1.65,6.51c-.35,1.52-.57,3.06-.79,4.61-.11.73-.21,1.46-.34,2.28l-1,7-.05.88-5.54-.29a139.33,139.33,0,0,1,8.84-37.55l25.66,11.56a5.54,5.54,0,0,0,4.32.11,5.6,5.6,0,0,0,3.13-3,102.29,102.29,0,0,1,20.93-30.87,5.75,5.75,0,0,0,0-8.05l-12-12.1a5.59,5.59,0,0,0-8.2.24c-1,1.15-2,2.27-3.06,3.4-2,2.15-3.91,4.3-6,6.86-.87,1.22-1.77,2.42-2.67,3.61-.63.83-1.27,1.67-1.89,2.53l-4.75-3.12a136.07,136.07,0,0,1,26.31-28l16.55,23a5.6,5.6,0,0,0,7.89,1.25l1.31-1A18.68,18.68,0,0,1,123,243l9.23-5.41c1.09-.5,2.16-1,3.24-1.57A43.92,43.92,0,0,1,142,233.2l1.68-.63a56.29,56.29,0,0,1,8.17-2.62,5.64,5.64,0,0,0,3.67-2.59,5.79,5.79,0,0,0,.65-4.47l-4.38-16.53a5.63,5.63,0,0,0-6.63-4.1A83,83,0,0,0,133.49,206l-1.16.44a56.94,56.94,0,0,0-7.65,3.2l-2.57-5.08a135.18,135.18,0,0,1,36.64-11l2.89,28.23a5.64,5.64,0,0,0,2,3.84,5.55,5.55,0,0,0,4.13,1.25,102.88,102.88,0,0,1,37,3,5.58,5.58,0,0,0,4.28-.57,5.73,5.73,0,0,0,2.63-3.47l4.37-16.53a5.8,5.8,0,0,0-.57-4.35,5.66,5.66,0,0,0-3.47-2.64l-6.42-1.67c-1.52-.35-3.05-.59-4.59-.81-.72-.1-1.43-.21-2.25-.35l-7-1-.87-.05.29-5.6a135.3,135.3,0,0,1,37.16,8.93l-11.44,25.93a5.75,5.75,0,0,0-.11,4.37,5.66,5.66,0,0,0,3,3.17,101.33,101.33,0,0,1,30.55,21.14,5.6,5.6,0,0,0,8,0l12-12.1a5.73,5.73,0,0,0-.23-8.29c-1.12-1-2.22-2-3.32-3-2.15-2-4.29-4-6.84-6.1-1.21-.86-2.38-1.77-3.56-2.68-.82-.64-1.66-1.29-2.52-1.93l3.09-4.79A135.9,135.9,0,0,1,284.56,244Z" transform="translate(-1.18)"/><path class="cls-3" d="M178.49,237.66a90,90,0,0,0-78.36,45.77,91.9,91.9,0,0,0,.49,91.45c.11.2.22.4.35.59a91.61,91.61,0,0,0,23,26c.15.1.23.25.39.34s.08,0,.12,0a88.86,88.86,0,0,0,108,0,.67.67,0,0,0,.15-.06c.16-.09.24-.24.38-.34a91.49,91.49,0,0,0,23-26c.13-.19.24-.39.35-.59a91.87,91.87,0,0,0,.48-91.45A90,90,0,0,0,178.49,237.66Zm-10.17,12.15L105.67,359.9A80.51,80.51,0,0,1,110,289.16,78.89,78.89,0,0,1,168.32,249.81ZM134.63,395.27l43.86-77.06,43.87,77.06a78.09,78.09,0,0,1-87.73,0Zm96.69-7.15-45.48-79.89a8.44,8.44,0,0,0-14.69,0l-45.48,79.89a80,80,0,0,1-13.73-16.35l66.56-117,12.91,22.62c.07.17.16.34.25.51l53.39,93.85a80.32,80.32,0,0,1-13.73,16.35Zm20-28.23-49.6-87.2a5.12,5.12,0,0,0-.27-.52l-12.75-22.36A78.88,78.88,0,0,1,247,289.16a80.49,80.49,0,0,1,4.31,70.73Z" transform="translate(-1.18)"/><path class="cls-4" d="M597.35,33.17c-131.17,0-239,88.6-251.43,202l-74.67,29.74s-4.88,1.81-4.39,8.81a9.53,9.53,0,0,0,5.58,8.16L350.6,305.3C375.49,405.77,476.51,481,597.35,481,736.89,481,850,380.73,850,257.07S736.89,33.17,597.35,33.17Z" transform="translate(-1.18)"/><path class="cls-5" d="M597.31,0c-131.17,0-239,88.6-251.43,202L271.21,231.7s-4.88,1.81-4.39,8.81a9.53,9.53,0,0,0,5.58,8.16l78.16,23.46C375.45,372.6,476.47,447.81,597.31,447.81,736.85,447.81,850,347.56,850,223.9S736.85,0,597.31,0Z" transform="translate(-1.18)"/><path class="cls-6" d="M420.86,136.31h-1.14l-.2-2.42a4.09,4.09,0,0,0-1.7-1.25,6.53,6.53,0,0,0-2.53-.45,5.13,5.13,0,0,0-3.25.92,2.77,2.77,0,0,0-1.17,2.27,2.66,2.66,0,0,0,1.05,2.15,9.84,9.84,0,0,0,3.64,1.52,10.44,10.44,0,0,1,4.14,1.9,3.89,3.89,0,0,1,1.42,3.15,3.79,3.79,0,0,1-1.64,3.24,6.91,6.91,0,0,1-4.21,1.21,8.63,8.63,0,0,1-3.36-.64,6.43,6.43,0,0,1-2.53-1.84v-3h1.13l.2,2.5a4.81,4.81,0,0,0,2,1.33,7.11,7.11,0,0,0,2.6.46,5.44,5.44,0,0,0,3.23-.89,2.78,2.78,0,0,0,1.23-2.36,2.86,2.86,0,0,0-1-2.28,9.46,9.46,0,0,0-3.59-1.56,11.32,11.32,0,0,1-4.2-1.83,3.66,3.66,0,0,1-1.43-3,3.82,3.82,0,0,1,1.62-3.19,6.77,6.77,0,0,1,4.19-1.23,8,8,0,0,1,3.29.64,5.71,5.71,0,0,1,2.28,1.75Z" transform="translate(-1.18)"/><path class="cls-6" d="M428.92,148.55A5,5,0,0,1,425,146.8a6.45,6.45,0,0,1-1.56-4.46v-.64a6.69,6.69,0,0,1,1.55-4.52,4.79,4.79,0,0,1,3.74-1.79,4.6,4.6,0,0,1,3.63,1.48,5.69,5.69,0,0,1,1.32,3.94V142h-8.86v.34a5.65,5.65,0,0,0,1.13,3.58,3.59,3.59,0,0,0,3,1.45,5.79,5.79,0,0,0,2.2-.37,4.31,4.31,0,0,0,1.57-1l.59,1a5,5,0,0,1-1.79,1.19A6.64,6.64,0,0,1,428.92,148.55Zm-.19-12a3.29,3.29,0,0,0-2.58,1.19,5.05,5.05,0,0,0-1.22,3l0,.06h7.35v-.35a4.08,4.08,0,0,0-1-2.77A3.27,3.27,0,0,0,428.73,136.59Z" transform="translate(-1.18)"/><path class="cls-6" d="M436.07,147.27l1.89-.15v-10.3l-1.89-.15v-1h3.27v11.49l1.89.15v1h-5.16ZM439.34,132H438v-2h1.38Z" transform="translate(-1.18)"/><path class="cls-6" d="M449.34,142.07a8.35,8.35,0,0,1,1.27-4.86,4.09,4.09,0,0,1,3.54-1.82A4.29,4.29,0,0,1,458,137.5l.14-1.87h1.22V152l1.89.15v1h-5.17v-1L458,152v-5.35a4.35,4.35,0,0,1-1.6,1.42,4.83,4.83,0,0,1-2.24.49,4.13,4.13,0,0,1-3.52-1.7,7.36,7.36,0,0,1-1.27-4.53Zm1.4.25a6.62,6.62,0,0,0,.91,3.67,3.08,3.08,0,0,0,2.75,1.38,3.88,3.88,0,0,0,2.18-.59,4,4,0,0,0,1.39-1.63V139a4.6,4.6,0,0,0-1.35-1.72,3.53,3.53,0,0,0-2.2-.66,3,3,0,0,0-2.75,1.53,7.5,7.5,0,0,0-.93,3.95Z" transform="translate(-1.18)"/><path class="cls-6" d="M471.83,146.22a4.34,4.34,0,0,1-1.62,1.72,4.6,4.6,0,0,1-2.42.61,3.79,3.79,0,0,1-3.1-1.36,6.53,6.53,0,0,1-1.12-4.22v-6.15l-1.55-.15v-1H465V143a5.55,5.55,0,0,0,.78,3.33,2.67,2.67,0,0,0,2.22,1,4.1,4.1,0,0,0,2.52-.7,3.71,3.71,0,0,0,1.31-1.95v-7.86l-1.78-.15v-1h3.17v11.49l1.68.15v1H472Z" transform="translate(-1.18)"/><path class="cls-6" d="M482.43,148.55a5,5,0,0,1-3.92-1.75,6.45,6.45,0,0,1-1.56-4.46v-.64a6.69,6.69,0,0,1,1.55-4.52,4.79,4.79,0,0,1,3.74-1.79,4.6,4.6,0,0,1,3.63,1.48,5.69,5.69,0,0,1,1.32,3.94V142h-8.86v.34a5.65,5.65,0,0,0,1.13,3.58,3.59,3.59,0,0,0,3,1.45,5.79,5.79,0,0,0,2.2-.37,4.31,4.31,0,0,0,1.57-1l.59,1a5,5,0,0,1-1.79,1.19A6.64,6.64,0,0,1,482.43,148.55Zm-.19-12a3.29,3.29,0,0,0-2.58,1.19,5.05,5.05,0,0,0-1.22,3l0,.06h7.35v-.35a4.08,4.08,0,0,0-1-2.77A3.27,3.27,0,0,0,482.24,136.59Z" transform="translate(-1.18)"/><path class="cls-6" d="M495.08,136.67v-1h3.05l.17,2a4.6,4.6,0,0,1,1.63-1.62,4.53,4.53,0,0,1,2.33-.58,4.09,4.09,0,0,1,3.54,1.82,8.35,8.35,0,0,1,1.27,4.86v.25a7.37,7.37,0,0,1-1.27,4.54,4.16,4.16,0,0,1-3.52,1.69A5,5,0,0,1,500,148a4.26,4.26,0,0,1-1.62-1.45V152l1.89.15v1h-5.16v-1L497,152V136.82Zm10.6,5.4a7.39,7.39,0,0,0-.95-3.94,3.08,3.08,0,0,0-2.78-1.52,3.68,3.68,0,0,0-2.28.67,4.17,4.17,0,0,0-1.32,1.76v6.09a3.83,3.83,0,0,0,1.38,1.64,3.91,3.91,0,0,0,2.24.6,3.13,3.13,0,0,0,2.76-1.38,6.42,6.42,0,0,0,.95-3.67Z" transform="translate(-1.18)"/><path class="cls-6" d="M512.34,135.63l.17,2.11v.15a4.57,4.57,0,0,1,1.46-1.84,3.63,3.63,0,0,1,2.18-.66,4.38,4.38,0,0,1,.52,0l.41.09-.18,1.31-1-.07a3.11,3.11,0,0,0-2.15.75,4.06,4.06,0,0,0-1.2,2v7.57l1.89.15v1h-5.16v-1l1.89-.15v-10.3l-1.89-.15v-1h3.1Z" transform="translate(-1.18)"/><path class="cls-6" d="M518.65,141.78a6.89,6.89,0,0,1,1.51-4.6,5.43,5.43,0,0,1,8.06,0,6.84,6.84,0,0,1,1.52,4.6v.39a6.84,6.84,0,0,1-1.51,4.59,5,5,0,0,1-4,1.79,5,5,0,0,1-4.05-1.79,6.84,6.84,0,0,1-1.51-4.59Zm1.39.39a6.06,6.06,0,0,0,1.1,3.7,3.86,3.86,0,0,0,6.11,0,6.12,6.12,0,0,0,1.1-3.7v-.39a6,6,0,0,0-1.11-3.68,3.84,3.84,0,0,0-6.1,0,6,6,0,0,0-1.1,3.68Zm5.45-11.37h1.7l0,.07-2.89,3H523.1Z" transform="translate(-1.18)"/><path class="cls-6" d="M531.48,147.27l1.41-.12,4-5.3-3.78-5-1.41-.13v-1h4.25v1l-1.3.07,3,4.07,3-4.08-1.29-.06v-1h4.26v1l-1.4.13-3.78,5,4,5.3,1.41.12v1h-4.24v-1l1.29-.05-3.19-4.32-3.18,4.32,1.29.05v1h-4.25Z" transform="translate(-1.18)"/><path class="cls-6" d="M545.49,147.27l1.89-.15v-10.3l-1.89-.15v-1h3.27v11.49l1.89.15v1h-5.16ZM548.76,132h-1.38v-2h1.38Z" transform="translate(-1.18)"/><path class="cls-6" d="M552.68,136.67v-1h3.12l.13,2.09a4.46,4.46,0,0,1,1.61-1.72,4.56,4.56,0,0,1,2.4-.61,4,4,0,0,1,2.4.71,3.86,3.86,0,0,1,1.38,2.16,4.92,4.92,0,0,1,1.62-2.1,4.23,4.23,0,0,1,2.56-.77,3.76,3.76,0,0,1,3.1,1.35,6.56,6.56,0,0,1,1.1,4.17v6.2l1.89.16v1H568.8v-1l1.89-.16v-6.22a5.21,5.21,0,0,0-.81-3.31,2.82,2.82,0,0,0-2.28-1,3.08,3.08,0,0,0-2.5,1,5,5,0,0,0-1.09,2.66c0,.07,0,.12,0,.18v6.63l1.9.15v1h-5.18v-1l1.89-.15v-6.23a5.1,5.1,0,0,0-.83-3.29,2.8,2.8,0,0,0-2.27-1,3.41,3.41,0,0,0-2.35.76,4,4,0,0,0-1.21,2v7.72l1.89.15v1h-5.18v-1l1.89-.15v-10.3Z" transform="translate(-1.18)"/><path class="cls-6" d="M575.59,141.78a6.84,6.84,0,0,1,1.52-4.6,5.43,5.43,0,0,1,8.06,0,6.9,6.9,0,0,1,1.52,4.6v.39a6.85,6.85,0,0,1-1.52,4.59,5.43,5.43,0,0,1-8.06,0,6.8,6.8,0,0,1-1.52-4.59Zm1.39.39a6.12,6.12,0,0,0,1.1,3.7,3.86,3.86,0,0,0,6.11,0,6.06,6.06,0,0,0,1.1-3.7v-.39a6,6,0,0,0-1.1-3.68,3.85,3.85,0,0,0-6.11,0,6.1,6.1,0,0,0-1.1,3.68Z" transform="translate(-1.18)"/><path class="cls-6" d="M603.39,148.31a11.29,11.29,0,0,1-.2-1.12,7.46,7.46,0,0,1-.06-.95,5.51,5.51,0,0,1-1.85,1.66,5.32,5.32,0,0,1-2.61.65,4,4,0,0,1-2.86-1,3.43,3.43,0,0,1-1-2.6,3.23,3.23,0,0,1,1.5-2.79,7,7,0,0,1,4.06-1h2.77v-1.68a2.74,2.74,0,0,0-.86-2.13,3.48,3.48,0,0,0-2.42-.77,6.08,6.08,0,0,0-1.91.28,4.48,4.48,0,0,0-1.44.78l-.12,1.7h-1.15v-2.43a7,7,0,0,1,2.09-1.11,7.76,7.76,0,0,1,2.58-.42,5,5,0,0,1,3.34,1.07,3.78,3.78,0,0,1,1.26,3.06v6.23c0,.26,0,.51,0,.75a5.2,5.2,0,0,0,.07.69l1.26.08v1Zm-4.57-1a5,5,0,0,0,2.65-.7,4.14,4.14,0,0,0,1.66-1.82v-2.54h-2.79a5.2,5.2,0,0,0-3,.79,2.37,2.37,0,0,0-1.13,2,2.09,2.09,0,0,0,.71,1.64A2.77,2.77,0,0,0,598.82,147.31Z" transform="translate(-1.18)"/><path class="cls-6" d="M620.32,131.25a6.4,6.4,0,0,1,4.17,1.2,4.22,4.22,0,0,1,1.45,3.46,4,4,0,0,1-.77,2.4,4.36,4.36,0,0,1-2.2,1.55,3.65,3.65,0,0,1,2.26,1.42,4.53,4.53,0,0,1,.69,2.58v1.56a2.5,2.5,0,0,0,.28,1.34,1,1,0,0,0,.84.47l.57,0v1.05h-.88a1.83,1.83,0,0,1-1.72-.85,4.1,4.1,0,0,1-.48-2.06v-1.51a3.22,3.22,0,0,0-1-2.46,4,4,0,0,0-2.73-.94h-4.25v6.63l1.89.17v1H613.3v-1l1.89-.17V132.45l-1.89-.16v-1Zm-3.75,8h3.59a5,5,0,0,0,3.34-.92,3.13,3.13,0,0,0,1-2.47,3.18,3.18,0,0,0-1-2.55,4.83,4.83,0,0,0-3.18-.9h-3.75Z" transform="translate(-1.18)"/><path class="cls-6" d="M638.2,148.31c-.09-.43-.16-.81-.2-1.12a7.46,7.46,0,0,1,0-.95,5.65,5.65,0,0,1-1.86,1.66,5.26,5.26,0,0,1-2.61.65,4,4,0,0,1-2.85-1,3.4,3.4,0,0,1-1-2.6,3.24,3.24,0,0,1,1.49-2.79,7.06,7.06,0,0,1,4.06-1H638v-1.68a2.72,2.72,0,0,0-.87-2.13,3.47,3.47,0,0,0-2.42-.77,6,6,0,0,0-1.9.28,4.64,4.64,0,0,0-1.45.78l-.11,1.7h-1.15v-2.43a7,7,0,0,1,2.08-1.11,7.84,7.84,0,0,1,2.58-.42,5,5,0,0,1,3.34,1.07,3.79,3.79,0,0,1,1.27,3.06v6.23c0,.26,0,.51,0,.75a5.2,5.2,0,0,0,.08.69l1.25.08v1Zm-4.57-1a5,5,0,0,0,2.66-.7,4.26,4.26,0,0,0,1.66-1.82v-2.54h-2.8a5.15,5.15,0,0,0-3,.79,2.37,2.37,0,0,0-1.13,2,2.08,2.08,0,0,0,.7,1.64A2.79,2.79,0,0,0,633.63,147.31Z" transform="translate(-1.18)"/><path class="cls-6" d="M642.39,147.27l1.89-.15V136.77H642.2v-1.14h2.08V134a4.25,4.25,0,0,1,1.1-3.13,4.19,4.19,0,0,1,3.07-1.1A7.85,7.85,0,0,1,650,130a9.8,9.8,0,0,1,1.62.52l-.22,1.21a8.49,8.49,0,0,0-1.37-.46,6.39,6.39,0,0,0-1.52-.16,2.82,2.82,0,0,0-2.14.76,3.08,3.08,0,0,0-.72,2.19v1.62h7.2v11.49l1.89.15v1H649.6v-1l1.89-.15V136.77h-5.82v10.35l1.89.15v1h-5.17Z" transform="translate(-1.18)"/><path class="cls-6" d="M656.41,147.27l1.89-.15v-10.3l-1.89-.15v-1h3.12l.12,2.21a4.63,4.63,0,0,1,1.63-1.81,4.5,4.5,0,0,1,2.43-.64,3.85,3.85,0,0,1,3.11,1.26,6,6,0,0,1,1.07,3.93v6.54l1.89.15v1h-5.17v-1l1.89-.15v-6.53a4.6,4.6,0,0,0-.81-3.08,2.92,2.92,0,0,0-2.29-.9,3.55,3.55,0,0,0-2.38.78,4.31,4.31,0,0,0-1.33,2.07v7.66l1.89.15v1h-5.17Z" transform="translate(-1.18)"/><path class="cls-6" d="M680.62,148.31a10.93,10.93,0,0,1-.19-1.12,7.46,7.46,0,0,1-.06-.95,5.65,5.65,0,0,1-1.86,1.66,5.26,5.26,0,0,1-2.61.65,4,4,0,0,1-2.85-1,3.43,3.43,0,0,1-1-2.6,3.23,3.23,0,0,1,1.5-2.79,7,7,0,0,1,4.06-1h2.77v-1.68a2.72,2.72,0,0,0-.87-2.13,3.46,3.46,0,0,0-2.41-.77,6,6,0,0,0-1.91.28,4.64,4.64,0,0,0-1.45.78l-.11,1.7h-1.15v-2.43a7.1,7.1,0,0,1,2.08-1.11,7.84,7.84,0,0,1,2.58-.42,5,5,0,0,1,3.34,1.07,3.76,3.76,0,0,1,1.27,3.06v6.23c0,.26,0,.51,0,.75a5.2,5.2,0,0,0,.07.69l1.25.08v1Zm-4.57-1a5,5,0,0,0,2.66-.7,4.2,4.2,0,0,0,1.66-1.82v-2.54h-2.8a5.17,5.17,0,0,0-3,.79,2.37,2.37,0,0,0-1.13,2,2.08,2.08,0,0,0,.7,1.64A2.79,2.79,0,0,0,676.05,147.31Z" transform="translate(-1.18)"/><path class="cls-6" d="M690.43,131.07v-1h3.27v7.77a4.82,4.82,0,0,1,1.67-1.77,4.64,4.64,0,0,1,2.44-.63,3.79,3.79,0,0,1,3,1.24,5.85,5.85,0,0,1,1.06,3.86v6.63l1.9.15v1h-5.18v-1l1.89-.15v-6.65a4.41,4.41,0,0,0-.8-3,2.84,2.84,0,0,0-2.22-.9,3.72,3.72,0,0,0-2.39.76,4.48,4.48,0,0,0-1.41,2v7.74l1.89.15v1h-5.16v-1l1.89-.15v-15.9Z" transform="translate(-1.18)"/><path class="cls-6" d="M714.56,148.31a11.29,11.29,0,0,1-.2-1.12,7.46,7.46,0,0,1-.06-.95,5.45,5.45,0,0,1-1.86,1.66,5.25,5.25,0,0,1-2.6.65,4,4,0,0,1-2.86-1,3.43,3.43,0,0,1-1-2.6,3.23,3.23,0,0,1,1.5-2.79,7,7,0,0,1,4.06-1h2.77v-1.68a2.74,2.74,0,0,0-.86-2.13,3.5,3.5,0,0,0-2.42-.77,6.08,6.08,0,0,0-1.91.28,4.48,4.48,0,0,0-1.44.78l-.12,1.7H706.4v-2.43a7,7,0,0,1,2.09-1.11,7.76,7.76,0,0,1,2.58-.42,5,5,0,0,1,3.34,1.07,3.78,3.78,0,0,1,1.26,3.06v6.23c0,.26,0,.51,0,.75a5.2,5.2,0,0,0,.07.69l1.25.08v1Zm-4.57-1a5,5,0,0,0,2.65-.7,4.14,4.14,0,0,0,1.66-1.82v-2.54h-2.79a5.18,5.18,0,0,0-3,.79,2.37,2.37,0,0,0-1.13,2,2.09,2.09,0,0,0,.71,1.64A2.77,2.77,0,0,0,710,147.31Zm2.35-16.52H714l0,.07-2.89,3H710Z" transform="translate(-1.18)"/><path class="cls-6" d="M733.44,148.31a11.29,11.29,0,0,1-.2-1.12,7.46,7.46,0,0,1-.06-.95,5.45,5.45,0,0,1-1.86,1.66,5.25,5.25,0,0,1-2.6.65,4,4,0,0,1-2.86-1,3.43,3.43,0,0,1-1-2.6,3.23,3.23,0,0,1,1.5-2.79,7,7,0,0,1,4.06-1h2.77v-1.68a2.74,2.74,0,0,0-.86-2.13,3.5,3.5,0,0,0-2.42-.77,6.08,6.08,0,0,0-1.91.28,4.48,4.48,0,0,0-1.44.78l-.12,1.7h-1.15v-2.43a7,7,0,0,1,2.09-1.11,7.76,7.76,0,0,1,2.58-.42,5,5,0,0,1,3.34,1.07,3.78,3.78,0,0,1,1.26,3.06v6.23c0,.26,0,.51,0,.75a5.2,5.2,0,0,0,.07.69l1.25.08v1Zm-4.57-1a5,5,0,0,0,2.65-.7,4.14,4.14,0,0,0,1.66-1.82v-2.54h-2.79a5.18,5.18,0,0,0-3,.79,2.37,2.37,0,0,0-1.13,2,2.09,2.09,0,0,0,.71,1.64A2.77,2.77,0,0,0,728.87,147.31Z" transform="translate(-1.18)"/><path class="cls-6" d="M737.6,131.07v-1h3.27v17.1l1.89.15v1H737.6v-1l1.89-.15v-15.9Z" transform="translate(-1.18)"/><path class="cls-6" d="M744.89,142.07a8.27,8.27,0,0,1,1.29-4.86,4.1,4.1,0,0,1,3.55-1.82A4.41,4.41,0,0,1,752,136a4.64,4.64,0,0,1,1.62,1.67l.16-2H755v12.51a5.47,5.47,0,0,1-1.31,3.87,4.74,4.74,0,0,1-3.65,1.42,9,9,0,0,1-1.93-.23,7.09,7.09,0,0,1-1.79-.61l.37-1.18a7.8,7.8,0,0,0,1.58.56,7.11,7.11,0,0,0,1.75.2,3.33,3.33,0,0,0,2.69-1.06,4.46,4.46,0,0,0,.9-3v-1.6A4.42,4.42,0,0,1,752,148a4.74,4.74,0,0,1-2.28.52,4.16,4.16,0,0,1-3.54-1.7,7.36,7.36,0,0,1-1.28-4.53Zm1.39.25a6.39,6.39,0,0,0,.93,3.65,3.09,3.09,0,0,0,2.75,1.36,3.84,3.84,0,0,0,2.26-.62A3.92,3.92,0,0,0,753.6,145v-5.88a4.46,4.46,0,0,0-1.33-1.81,3.52,3.52,0,0,0-2.29-.7,3,3,0,0,0-2.76,1.52,7.48,7.48,0,0,0-.94,3.94Z" transform="translate(-1.18)"/><path class="cls-6" d="M767.37,146.22a4.27,4.27,0,0,1-1.62,1.72,4.6,4.6,0,0,1-2.42.61,3.79,3.79,0,0,1-3.1-1.36,6.53,6.53,0,0,1-1.12-4.22v-6.15l-1.55-.15v-1h2.93V143a5.55,5.55,0,0,0,.78,3.33,2.67,2.67,0,0,0,2.22,1,4.1,4.1,0,0,0,2.52-.7,3.71,3.71,0,0,0,1.31-1.95v-7.86l-1.78-.15v-1h3.17v11.49l1.69.15v1h-2.9Z" transform="translate(-1.18)"/><path class="cls-6" d="M772.18,147.27l1.89-.15v-10.3l-1.89-.15v-1h3.12l.13,2.21a4.33,4.33,0,0,1,4.06-2.45,3.86,3.86,0,0,1,3.11,1.26,6,6,0,0,1,1.06,3.93v6.54l1.89.15v1h-5.17v-1l1.89-.15v-6.53a4.67,4.67,0,0,0-.8-3.08,2.93,2.93,0,0,0-2.29-.9,3.58,3.58,0,0,0-2.39.78,4.38,4.38,0,0,0-1.33,2.07v7.66l1.89.15v1h-5.17Z" transform="translate(-1.18)"/><path class="cls-6" d="M796.84,139.54H795.7l-.16-1.79a3.48,3.48,0,0,0-1.32-.86,5.15,5.15,0,0,0-1.82-.3,3.37,3.37,0,0,0-2.28.66,2,2,0,0,0-.76,1.55,1.85,1.85,0,0,0,.65,1.45,6.27,6.27,0,0,0,2.62,1,8.58,8.58,0,0,1,3.35,1.38,2.85,2.85,0,0,1,1.11,2.37,3.06,3.06,0,0,1-1.27,2.56,5.28,5.28,0,0,1-3.35,1,7.83,7.83,0,0,1-2.54-.39,6,6,0,0,1-2-1.11V144.5h1.13l.2,1.8a3.19,3.19,0,0,0,1.41.82,6.49,6.49,0,0,0,1.78.25,3.77,3.77,0,0,0,2.37-.67,2,2,0,0,0,.87-1.62,2.08,2.08,0,0,0-.72-1.56,6.08,6.08,0,0,0-2.62-1.09,8.66,8.66,0,0,1-3.32-1.3,2.68,2.68,0,0,1-1.08-2.28,3.08,3.08,0,0,1,1.21-2.46,5,5,0,0,1,3.22-1,7,7,0,0,1,2.52.43,5.07,5.07,0,0,1,1.86,1.15Z" transform="translate(-1.18)"/><path class="cls-6" d="M414.6,176.17a3.92,3.92,0,0,0,2.43-.8,2.63,2.63,0,0,0,1.06-2.21h1.23l0,.07a3.48,3.48,0,0,1-1.39,2.94,5.12,5.12,0,0,1-3.35,1.18,4.77,4.77,0,0,1-4-1.77,7.2,7.2,0,0,1-1.4-4.57v-.49a7.18,7.18,0,0,1,1.4-4.55,4.76,4.76,0,0,1,3.94-1.78,6.42,6.42,0,0,1,2.66.55,5.29,5.29,0,0,1,2,1.5l.06,2.77h-1.19l-.22-2.25a3.9,3.9,0,0,0-1.38-1,4.52,4.52,0,0,0-1.89-.37,3.31,3.31,0,0,0-3,1.46,6.45,6.45,0,0,0-1,3.67V171a6.56,6.56,0,0,0,1,3.7A3.35,3.35,0,0,0,414.6,176.17Z" transform="translate(-1.18)"/><path class="cls-6" d="M421.93,170.58a6.89,6.89,0,0,1,1.51-4.6,5.43,5.43,0,0,1,8.06,0,6.84,6.84,0,0,1,1.52,4.6V171a6.85,6.85,0,0,1-1.51,4.6,5,5,0,0,1-4,1.79,5,5,0,0,1-4.05-1.79,6.85,6.85,0,0,1-1.51-4.6Zm1.39.38a6.07,6.07,0,0,0,1.1,3.71,3.86,3.86,0,0,0,6.11,0,6.07,6.07,0,0,0,1.1-3.71v-.38a6,6,0,0,0-1.11-3.68,3.84,3.84,0,0,0-6.1,0,6,6,0,0,0-1.1,3.68Zm5.45-11.36h1.7l0,.07-2.89,3h-1.24Z" transform="translate(-1.18)"/><path class="cls-6" d="M438.29,164.43l.17,2.11v.15a4.57,4.57,0,0,1,1.46-1.84,3.63,3.63,0,0,1,2.18-.66,4.38,4.38,0,0,1,.52,0l.41.09-.18,1.31-1-.07a3.11,3.11,0,0,0-2.15.75,4.06,4.06,0,0,0-1.2,2v7.57l1.89.15v1h-5.16v-1l1.89-.15v-10.3l-1.89-.15v-1h3.1Z" transform="translate(-1.18)"/><path class="cls-6" d="M447.83,164.43l.18,2.11v.15a4.55,4.55,0,0,1,1.45-1.84,3.69,3.69,0,0,1,2.19-.66,4.06,4.06,0,0,1,.51,0l.42.09-.19,1.31-1-.07a3.1,3.1,0,0,0-2.15.75,4.06,4.06,0,0,0-1.2,2v7.57l1.89.15v1h-5.16v-1l1.89-.15v-10.3l-1.89-.15v-1h3.09Z" transform="translate(-1.18)"/><path class="cls-6" d="M459.69,177.35a5,5,0,0,1-3.92-1.75,6.45,6.45,0,0,1-1.56-4.46v-.64a6.69,6.69,0,0,1,1.55-4.52,4.79,4.79,0,0,1,3.74-1.79,4.6,4.6,0,0,1,3.63,1.48,5.67,5.67,0,0,1,1.32,3.94v1.19h-8.86v.34a5.65,5.65,0,0,0,1.13,3.58,3.58,3.58,0,0,0,3,1.45,5.82,5.82,0,0,0,2.2-.37,4.32,4.32,0,0,0,1.56-1l.6,1a5.06,5.06,0,0,1-1.79,1.19A6.68,6.68,0,0,1,459.69,177.35Zm-.19-12a3.29,3.29,0,0,0-2.58,1.19,5.13,5.13,0,0,0-1.23,3l0,.06h7.35v-.35a4.08,4.08,0,0,0-1-2.77A3.27,3.27,0,0,0,459.5,165.39Z" transform="translate(-1.18)"/><path class="cls-6" d="M467,170.87a8.35,8.35,0,0,1,1.28-4.86,4.13,4.13,0,0,1,3.56-1.82,4.41,4.41,0,0,1,2.31.59,4.81,4.81,0,0,1,1.62,1.67l.16-2h1.17v12.51a5.51,5.51,0,0,1-1.31,3.87,4.74,4.74,0,0,1-3.65,1.42,9,9,0,0,1-1.93-.23,7,7,0,0,1-1.79-.61l.37-1.18a7.8,7.8,0,0,0,1.58.56,7,7,0,0,0,1.74.2,3.35,3.35,0,0,0,2.7-1.06,4.46,4.46,0,0,0,.9-3v-1.6a4.5,4.5,0,0,1-1.61,1.49,4.75,4.75,0,0,1-2.29.52,4.15,4.15,0,0,1-3.53-1.7,7.36,7.36,0,0,1-1.28-4.53Zm1.39.25a6.47,6.47,0,0,0,.92,3.65,3.12,3.12,0,0,0,2.76,1.36,3.8,3.8,0,0,0,2.25-.62,3.94,3.94,0,0,0,1.39-1.71v-5.88a4.46,4.46,0,0,0-1.33-1.81,3.54,3.54,0,0,0-2.29-.7,3,3,0,0,0-2.76,1.52,7.39,7.39,0,0,0-.94,3.94Z" transform="translate(-1.18)"/><path class="cls-6" d="M480.25,170.58a6.84,6.84,0,0,1,1.52-4.6,5.43,5.43,0,0,1,8.06,0,6.9,6.9,0,0,1,1.52,4.6V171a6.86,6.86,0,0,1-1.52,4.6,5.43,5.43,0,0,1-8.06,0,6.81,6.81,0,0,1-1.52-4.6Zm1.39.38a6.13,6.13,0,0,0,1.1,3.71,3.86,3.86,0,0,0,6.11,0A6.07,6.07,0,0,0,490,171v-.38a6.1,6.1,0,0,0-1.1-3.68,3.85,3.85,0,0,0-6.11,0,6.1,6.1,0,0,0-1.1,3.68Z" transform="translate(-1.18)"/><path class="cls-6" d="M502.71,168.34h-1.14l-.16-1.79a3.48,3.48,0,0,0-1.32-.86,5.11,5.11,0,0,0-1.82-.3,3.41,3.41,0,0,0-2.28.66,2,2,0,0,0-.76,1.55,1.85,1.85,0,0,0,.65,1.45,6.27,6.27,0,0,0,2.62,1,8.58,8.58,0,0,1,3.35,1.38,2.85,2.85,0,0,1,1.11,2.37,3.06,3.06,0,0,1-1.27,2.56,5.28,5.28,0,0,1-3.35,1,7.83,7.83,0,0,1-2.54-.39,5.83,5.83,0,0,1-2-1.11V173.3H495l.2,1.8a3.19,3.19,0,0,0,1.41.82,6.54,6.54,0,0,0,1.78.25,3.8,3.8,0,0,0,2.38-.67,2,2,0,0,0,.86-1.62,2.08,2.08,0,0,0-.72-1.56,6,6,0,0,0-2.62-1.09,8.73,8.73,0,0,1-3.32-1.3,2.7,2.7,0,0,1-1.08-2.28,3.06,3.06,0,0,1,1.22-2.46,4.93,4.93,0,0,1,3.21-1,7,7,0,0,1,2.52.43,5.07,5.07,0,0,1,1.86,1.15Z" transform="translate(-1.18)"/><path class="cls-6" d="M511,165.47v-1h3.12l.12,2.09a4.33,4.33,0,0,1,4-2.33,4,4,0,0,1,2.4.71,3.92,3.92,0,0,1,1.38,2.16,5,5,0,0,1,1.61-2.1,4.25,4.25,0,0,1,2.56-.77,3.76,3.76,0,0,1,3.1,1.35,6.5,6.5,0,0,1,1.1,4.17v6.2l1.89.16v1h-5.18v-1l1.89-.16v-6.22a5.2,5.2,0,0,0-.82-3.31,2.82,2.82,0,0,0-2.28-1,3.1,3.1,0,0,0-2.5,1,5.12,5.12,0,0,0-1.08,2.66v.18a1.22,1.22,0,0,1,0,.21v6.42l1.89.15v1H519v-1l1.89-.15v-6.23a5.16,5.16,0,0,0-.83-3.29,2.83,2.83,0,0,0-2.28-1,3.42,3.42,0,0,0-2.35.76,4,4,0,0,0-1.21,2v7.72l1.89.15v1H511v-1l1.89-.15v-10.3Z" transform="translate(-1.18)"/><path class="cls-6" d="M543.21,175a4.34,4.34,0,0,1-1.62,1.72,4.63,4.63,0,0,1-2.42.61,3.78,3.78,0,0,1-3.1-1.36,6.53,6.53,0,0,1-1.12-4.22v-6.15l-1.55-.15v-1h2.93v7.37a5.55,5.55,0,0,0,.78,3.33,2.64,2.64,0,0,0,2.22,1,4.06,4.06,0,0,0,2.51-.7,3.73,3.73,0,0,0,1.32-2v-7.86l-1.79-.15v-1h3.18v11.49l1.68.15v1h-2.9Z" transform="translate(-1.18)"/><path class="cls-6" d="M548.18,176.07l1.89-.15v-10.3l-1.89-.15v-1h3.27v11.49l1.89.15v1h-5.16Zm3.27-15.28h-1.38v-2h1.38Z" transform="translate(-1.18)"/><path class="cls-6" d="M558.86,161.18v3.25h2.76v1.14h-2.76v8.27a2.72,2.72,0,0,0,.45,1.76,1.48,1.48,0,0,0,1.19.52c.22,0,.44,0,.65,0s.46-.05.74-.1l.21,1a4,4,0,0,1-.85.23,6.61,6.61,0,0,1-1,.08,2.58,2.58,0,0,1-2.06-.84,4,4,0,0,1-.74-2.67v-8.27H555.3v-1.14h2.16v-3.25Z" transform="translate(-1.18)"/><path class="cls-6" d="M563.94,170.58a6.9,6.9,0,0,1,1.52-4.6,5.43,5.43,0,0,1,8.06,0,6.84,6.84,0,0,1,1.52,4.6V171a6.85,6.85,0,0,1-1.51,4.6,5.44,5.44,0,0,1-8.07,0,6.86,6.86,0,0,1-1.52-4.6Zm1.4.38a6.07,6.07,0,0,0,1.1,3.71,3.86,3.86,0,0,0,6.11,0,6.13,6.13,0,0,0,1.1-3.71v-.38a6,6,0,0,0-1.11-3.68,3.84,3.84,0,0,0-6.1,0,6,6,0,0,0-1.1,3.68Z" transform="translate(-1.18)"/><path class="cls-6" d="M582.71,165.47v-1h3l.17,2a4.6,4.6,0,0,1,1.63-1.62,4.5,4.5,0,0,1,2.33-.58,4.07,4.07,0,0,1,3.53,1.82,8.35,8.35,0,0,1,1.28,4.86v.25a7.37,7.37,0,0,1-1.28,4.54,4.15,4.15,0,0,1-3.51,1.69,5,5,0,0,1-2.31-.51,4.26,4.26,0,0,1-1.62-1.45v5.4l1.89.15v1h-5.16v-1l1.89-.15V165.62Zm10.6,5.4a7.39,7.39,0,0,0-.95-3.94,3.1,3.1,0,0,0-2.79-1.52,3.6,3.6,0,0,0-2.27.67,4.09,4.09,0,0,0-1.32,1.76v6.09a3.81,3.81,0,0,0,1.37,1.64,4,4,0,0,0,2.25.6,3.13,3.13,0,0,0,2.76-1.38,6.42,6.42,0,0,0,.95-3.67Z" transform="translate(-1.18)"/><path class="cls-6" d="M602.49,177.35a5,5,0,0,1-3.92-1.75,6.49,6.49,0,0,1-1.55-4.46v-.64a6.69,6.69,0,0,1,1.55-4.52,4.79,4.79,0,0,1,3.74-1.79,4.6,4.6,0,0,1,3.63,1.48,5.67,5.67,0,0,1,1.32,3.94v1.19H598.4v.34a5.65,5.65,0,0,0,1.13,3.58,3.56,3.56,0,0,0,3,1.45,5.84,5.84,0,0,0,2.21-.37,4.32,4.32,0,0,0,1.56-1l.59,1a4.93,4.93,0,0,1-1.78,1.19A6.7,6.7,0,0,1,602.49,177.35Zm-.18-12a3.29,3.29,0,0,0-2.58,1.19,5.13,5.13,0,0,0-1.23,3l0,.06h7.35v-.35a4.08,4.08,0,0,0-1-2.77A3.29,3.29,0,0,0,602.31,165.39Z" transform="translate(-1.18)"/><path class="cls-6" d="M609.74,170.87A8.35,8.35,0,0,1,611,166a4.09,4.09,0,0,1,3.54-1.82,4.29,4.29,0,0,1,3.85,2.11l.14-1.87h1.22v16.36l1.89.15v1h-5.17v-1l1.89-.15v-5.35a4.35,4.35,0,0,1-1.6,1.42,4.83,4.83,0,0,1-2.24.49,4.13,4.13,0,0,1-3.52-1.7,7.36,7.36,0,0,1-1.27-4.53Zm1.41.25a6.54,6.54,0,0,0,.91,3.67,3.05,3.05,0,0,0,2.74,1.38,3.88,3.88,0,0,0,2.18-.59,4,4,0,0,0,1.39-1.63v-6.18a4.6,4.6,0,0,0-1.35-1.72,3.53,3.53,0,0,0-2.2-.66,3,3,0,0,0-2.75,1.53,7.5,7.5,0,0,0-.92,4Z" transform="translate(-1.18)"/><path class="cls-6" d="M632.23,175a4.27,4.27,0,0,1-1.62,1.72,4.6,4.6,0,0,1-2.42.61,3.79,3.79,0,0,1-3.1-1.36,6.53,6.53,0,0,1-1.12-4.22v-6.15l-1.55-.15v-1h2.93v7.37a5.55,5.55,0,0,0,.78,3.33,2.67,2.67,0,0,0,2.22,1,4.1,4.1,0,0,0,2.52-.7,3.71,3.71,0,0,0,1.31-2v-7.86l-1.78-.15v-1h3.17v11.49l1.69.15v1h-2.9Z" transform="translate(-1.18)"/><path class="cls-6" d="M642.83,177.35a5,5,0,0,1-3.92-1.75,6.45,6.45,0,0,1-1.56-4.46v-.64A6.69,6.69,0,0,1,638.9,166a4.8,4.8,0,0,1,3.74-1.79,4.6,4.6,0,0,1,3.63,1.48,5.68,5.68,0,0,1,1.33,3.94v1.19h-8.87v.34a5.6,5.6,0,0,0,1.14,3.58,3.56,3.56,0,0,0,3,1.45,5.79,5.79,0,0,0,2.2-.37,4.36,4.36,0,0,0,1.57-1l.59,1a5,5,0,0,1-1.79,1.19A6.61,6.61,0,0,1,642.83,177.35Zm-.19-12a3.29,3.29,0,0,0-2.58,1.19,5.12,5.12,0,0,0-1.22,3l0,.06h7.36v-.35a4,4,0,0,0-1-2.77A3.27,3.27,0,0,0,642.64,165.39Z" transform="translate(-1.18)"/><path class="cls-6" d="M649.82,176.07l1.89-.15v-10.3l-1.89-.15v-1h3.12l.13,2.21a4.55,4.55,0,0,1,1.63-1.81,4.45,4.45,0,0,1,2.43-.64,3.86,3.86,0,0,1,3.11,1.26,6,6,0,0,1,1.06,3.93v6.54l1.89.15v1H658v-1l1.89-.15v-6.53a4.67,4.67,0,0,0-.8-3.08,2.92,2.92,0,0,0-2.29-.9,3.58,3.58,0,0,0-2.39.78,4.38,4.38,0,0,0-1.33,2.07v7.66l1.89.15v1h-5.17Z" transform="translate(-1.18)"/><path class="cls-6" d="M665.26,170.58a6.84,6.84,0,0,1,1.52-4.6,5.43,5.43,0,0,1,8.06,0,6.9,6.9,0,0,1,1.52,4.6V171a6.86,6.86,0,0,1-1.52,4.6,5.43,5.43,0,0,1-8.06,0,6.81,6.81,0,0,1-1.52-4.6Zm1.39.38a6.13,6.13,0,0,0,1.1,3.71,3.6,3.6,0,0,0,3.07,1.5,3.55,3.55,0,0,0,3-1.5A6.07,6.07,0,0,0,675,171v-.38a6,6,0,0,0-1.11-3.68,3.85,3.85,0,0,0-6.11,0,6.1,6.1,0,0,0-1.1,3.68Z" transform="translate(-1.18)"/><path class="cls-6" d="M687.72,168.34h-1.14l-.16-1.79a3.44,3.44,0,0,0-1.31-.86,5.16,5.16,0,0,0-1.83-.3,3.41,3.41,0,0,0-2.28.66,2,2,0,0,0-.76,1.55,1.83,1.83,0,0,0,.66,1.45,6.16,6.16,0,0,0,2.61,1,8.58,8.58,0,0,1,3.35,1.38,2.86,2.86,0,0,1,1.12,2.37,3.09,3.09,0,0,1-1.27,2.56,5.33,5.33,0,0,1-3.36,1,7.87,7.87,0,0,1-2.54-.39,5.93,5.93,0,0,1-2-1.11V173.3H680l.2,1.8a3.19,3.19,0,0,0,1.41.82,6.54,6.54,0,0,0,1.78.25,3.8,3.8,0,0,0,2.38-.67,2,2,0,0,0,.87-1.62,2.09,2.09,0,0,0-.73-1.56,6,6,0,0,0-2.61-1.09,8.72,8.72,0,0,1-3.33-1.3,2.7,2.7,0,0,1-1.08-2.28,3.09,3.09,0,0,1,1.22-2.46,4.93,4.93,0,0,1,3.21-1,7,7,0,0,1,2.52.43,5.07,5.07,0,0,1,1.86,1.15Z" transform="translate(-1.18)"/><path class="cls-6" d="M701.81,177.35a5,5,0,0,1-3.92-1.75,6.49,6.49,0,0,1-1.55-4.46v-.64a6.64,6.64,0,0,1,1.55-4.52,4.77,4.77,0,0,1,3.74-1.79,4.63,4.63,0,0,1,3.63,1.48,5.67,5.67,0,0,1,1.32,3.94v1.19h-8.86v.34a5.6,5.6,0,0,0,1.13,3.58,3.56,3.56,0,0,0,3,1.45,5.88,5.88,0,0,0,2.21-.37,4.32,4.32,0,0,0,1.56-1l.59,1a5,5,0,0,1-1.78,1.19A6.7,6.7,0,0,1,701.81,177.35Zm-.18-12a3.27,3.27,0,0,0-2.58,1.19,5.13,5.13,0,0,0-1.23,3l0,.06h7.35v-.35a4,4,0,0,0-1-2.77A3.27,3.27,0,0,0,701.63,165.39Z" transform="translate(-1.18)"/><path class="cls-6" d="M714.46,165.47v-1h3l.18,2a4.52,4.52,0,0,1,1.63-1.62,4.47,4.47,0,0,1,2.32-.58,4.09,4.09,0,0,1,3.54,1.82,8.35,8.35,0,0,1,1.28,4.86v.25a7.37,7.37,0,0,1-1.28,4.54,4.15,4.15,0,0,1-3.51,1.69,5,5,0,0,1-2.32-.51,4.26,4.26,0,0,1-1.62-1.45v5.4l1.89.15v1h-5.16v-1l1.89-.15V165.62Zm10.6,5.4a7.3,7.3,0,0,0-.95-3.94,3.08,3.08,0,0,0-2.78-1.52,3.61,3.61,0,0,0-2.28.67,4.25,4.25,0,0,0-1.32,1.76v6.09a3.83,3.83,0,0,0,1.38,1.64,4,4,0,0,0,2.24.6,3.14,3.14,0,0,0,2.77-1.38,6.42,6.42,0,0,0,.94-3.67Z" transform="translate(-1.18)"/><path class="cls-6" d="M731.72,164.43l.18,2.11v.15a4.55,4.55,0,0,1,1.45-1.84,3.66,3.66,0,0,1,2.19-.66,4.21,4.21,0,0,1,.51,0l.41.09-.18,1.31-1-.07a3.1,3.1,0,0,0-2.15.75,3.93,3.93,0,0,0-1.2,2v7.57l1.88.15v1h-5.16v-1l1.9-.15v-10.3l-1.9-.15v-1h3.1Z" transform="translate(-1.18)"/><path class="cls-6" d="M743.57,177.35a5,5,0,0,1-3.92-1.75,6.49,6.49,0,0,1-1.55-4.46v-.64a6.69,6.69,0,0,1,1.55-4.52,4.79,4.79,0,0,1,3.74-1.79,4.6,4.6,0,0,1,3.63,1.48,5.67,5.67,0,0,1,1.32,3.94v1.19h-8.86v.34a5.65,5.65,0,0,0,1.13,3.58,3.56,3.56,0,0,0,3,1.45,5.84,5.84,0,0,0,2.21-.37,4.32,4.32,0,0,0,1.56-1l.59,1a4.93,4.93,0,0,1-1.78,1.19A6.7,6.7,0,0,1,743.57,177.35Zm-.18-12a3.29,3.29,0,0,0-2.58,1.19,5.13,5.13,0,0,0-1.23,3l0,.06H747v-.35a4.08,4.08,0,0,0-1-2.77A3.29,3.29,0,0,0,743.39,165.39Z" transform="translate(-1.18)"/><path class="cls-6" d="M756.18,176.17a3.92,3.92,0,0,0,2.43-.8,2.6,2.6,0,0,0,1.06-2.21h1.23l0,.07a3.5,3.5,0,0,1-1.38,2.94,5.16,5.16,0,0,1-3.36,1.18,4.77,4.77,0,0,1-4-1.77,7.2,7.2,0,0,1-1.4-4.57v-.49a7.18,7.18,0,0,1,1.4-4.55,4.76,4.76,0,0,1,3.95-1.78,6.41,6.41,0,0,1,2.65.55,5.21,5.21,0,0,1,2,1.5l.06,2.77h-1.18l-.22-2.25a3.94,3.94,0,0,0-1.39-1,4.51,4.51,0,0,0-1.88-.37,3.32,3.32,0,0,0-3,1.46,6.45,6.45,0,0,0-1,3.67V171a6.48,6.48,0,0,0,1,3.7A3.34,3.34,0,0,0,756.18,176.17Z" transform="translate(-1.18)"/><path class="cls-6" d="M763.42,176.07l1.89-.15v-10.3l-1.89-.15v-1h3.27v11.49l1.89.15v1h-5.16Zm3.27-15.28h-1.38v-2h1.38Z" transform="translate(-1.18)"/><path class="cls-6" d="M780,168.34h-1.13l-.17-1.79a3.37,3.37,0,0,0-1.31-.86,5.16,5.16,0,0,0-1.83-.3,3.41,3.41,0,0,0-2.28.66,2,2,0,0,0-.76,1.55,1.83,1.83,0,0,0,.66,1.45,6.22,6.22,0,0,0,2.61,1,8.58,8.58,0,0,1,3.35,1.38,2.83,2.83,0,0,1,1.12,2.37,3.09,3.09,0,0,1-1.27,2.56,5.33,5.33,0,0,1-3.36,1,7.76,7.76,0,0,1-2.53-.39,5.88,5.88,0,0,1-2-1.11V173.3h1.12l.2,1.8a3.19,3.19,0,0,0,1.41.82,6.54,6.54,0,0,0,1.78.25,3.78,3.78,0,0,0,2.38-.67,2,2,0,0,0,.87-1.62,2.06,2.06,0,0,0-.73-1.56,6,6,0,0,0-2.61-1.09,8.66,8.66,0,0,1-3.32-1.3,2.68,2.68,0,0,1-1.09-2.28,3.09,3.09,0,0,1,1.22-2.46,4.93,4.93,0,0,1,3.21-1,7,7,0,0,1,2.52.43,5,5,0,0,1,1.86,1.15Z" transform="translate(-1.18)"/><path class="cls-6" d="M782.8,170.58a6.89,6.89,0,0,1,1.51-4.6,5.43,5.43,0,0,1,8.06,0,6.84,6.84,0,0,1,1.52,4.6V171a6.85,6.85,0,0,1-1.51,4.6,5,5,0,0,1-4,1.79,5,5,0,0,1-4.05-1.79,6.85,6.85,0,0,1-1.51-4.6Zm1.39.38a6.07,6.07,0,0,0,1.1,3.71,3.86,3.86,0,0,0,6.11,0,6.07,6.07,0,0,0,1.1-3.71v-.38a6.1,6.1,0,0,0-1.1-3.68,3.85,3.85,0,0,0-6.11,0,6,6,0,0,0-1.1,3.68Z" transform="translate(-1.18)"/><path class="cls-6" d="M409.15,204.87l1.89-.15v-10.3l-1.89-.15v-1h3.27v11.49l1.89.15v1h-5.16Zm3.27-15.28H411v-2h1.38Z" transform="translate(-1.18)"/><path class="cls-6" d="M425.36,204.08a4.44,4.44,0,0,1-1.61,1.53,4.76,4.76,0,0,1-2.32.54,4.12,4.12,0,0,1-3.52-1.7,7.36,7.36,0,0,1-1.27-4.53v-.25a8.35,8.35,0,0,1,1.27-4.86,4.07,4.07,0,0,1,3.54-1.82,4.3,4.3,0,0,1,3.87,2.15v-6.32l-1.89-.15v-1h3.29v17.1l1.88.15v1h-3.13ZM418,199.92a6.43,6.43,0,0,0,.91,3.65,3.07,3.07,0,0,0,2.74,1.36,3.89,3.89,0,0,0,2.24-.61,4,4,0,0,0,1.39-1.67v-6a4.29,4.29,0,0,0-1.34-1.76,3.6,3.6,0,0,0-2.26-.68,3,3,0,0,0-2.76,1.52,7.53,7.53,0,0,0-.92,3.94Z" transform="translate(-1.18)"/><path class="cls-6" d="M436.27,206.15a5,5,0,0,1-3.92-1.75,6.49,6.49,0,0,1-1.55-4.46v-.64a6.64,6.64,0,0,1,1.55-4.52,4.77,4.77,0,0,1,3.74-1.79,4.63,4.63,0,0,1,3.63,1.48,5.67,5.67,0,0,1,1.32,3.94v1.19h-8.86v.34a5.6,5.6,0,0,0,1.13,3.58,3.56,3.56,0,0,0,3,1.45,5.88,5.88,0,0,0,2.21-.37,4.32,4.32,0,0,0,1.56-1l.59,1a5,5,0,0,1-1.78,1.19A6.89,6.89,0,0,1,436.27,206.15Zm-.18-12a3.27,3.27,0,0,0-2.58,1.19,5.13,5.13,0,0,0-1.23,3l0,.06h7.35v-.35a4,4,0,0,0-1-2.77A3.27,3.27,0,0,0,436.09,194.19Z" transform="translate(-1.18)"/><path class="cls-6" d="M443.27,204.87l1.88-.15v-10.3l-1.88-.15v-1h3.11l.13,2.21a4.55,4.55,0,0,1,1.63-1.81,4.5,4.5,0,0,1,2.43-.64,3.85,3.85,0,0,1,3.11,1.26,6,6,0,0,1,1.07,3.93v6.54l1.89.15v1h-5.18v-1l1.89-.15v-6.53a4.61,4.61,0,0,0-.8-3.08,2.92,2.92,0,0,0-2.29-.9,3.58,3.58,0,0,0-2.39.78,4.36,4.36,0,0,0-1.32,2.07v7.66l1.89.15v1h-5.17Z" transform="translate(-1.18)"/><path class="cls-6" d="M462,190v3.25h2.76v1.14H462v8.27a2.72,2.72,0,0,0,.44,1.76,1.49,1.49,0,0,0,1.19.52c.23,0,.44,0,.66,0s.45,0,.73-.1l.21,1.05a3.88,3.88,0,0,1-.84.23,6.85,6.85,0,0,1-1,.08,2.6,2.6,0,0,1-2.06-.84,4,4,0,0,1-.74-2.67v-8.27h-2.15v-1.14h2.15V190Z" transform="translate(-1.18)"/><path class="cls-6" d="M467.23,204.87l1.89-.15v-10.3l-1.89-.15v-1h3.27v11.49l1.89.15v1h-5.16Zm3.27-15.28h-1.38v-2h1.38Z" transform="translate(-1.18)"/><path class="cls-6" d="M474.46,204.87l1.89-.15V194.37h-2.07v-1.14h2.07v-1.62a3.84,3.84,0,0,1,4.18-4.23,7.68,7.68,0,0,1,1.56.17,9.6,9.6,0,0,1,1.63.52l-.22,1.21a8.83,8.83,0,0,0-1.37-.46,6.45,6.45,0,0,0-1.52-.16,2.81,2.81,0,0,0-2.14.76,3.06,3.06,0,0,0-.73,2.19v1.62H485v11.49l1.89.15v1h-5.16v-1l1.89-.15V194.37h-5.83v10.35l1.89.15v1h-5.17Z" transform="translate(-1.18)"/><path class="cls-6" d="M494.1,205a3.92,3.92,0,0,0,2.43-.8,2.63,2.63,0,0,0,1.06-2.21h1.23l0,.07a3.48,3.48,0,0,1-1.39,2.94,5.12,5.12,0,0,1-3.35,1.18,4.77,4.77,0,0,1-4-1.77,7.2,7.2,0,0,1-1.4-4.57v-.49a7.18,7.18,0,0,1,1.4-4.55,4.76,4.76,0,0,1,3.94-1.78,6.27,6.27,0,0,1,2.66.55,5.29,5.29,0,0,1,2,1.5l.06,2.77h-1.19l-.22-2.25a3.9,3.9,0,0,0-1.38-1,4.52,4.52,0,0,0-1.89-.37,3.31,3.31,0,0,0-3,1.46,6.45,6.45,0,0,0-1,3.67v.49a6.56,6.56,0,0,0,1,3.7A3.35,3.35,0,0,0,494.1,205Z" transform="translate(-1.18)"/><path class="cls-6" d="M510.09,205.91c-.09-.43-.16-.81-.2-1.12a7.46,7.46,0,0,1-.06-.95A5.51,5.51,0,0,1,508,205.5a5.32,5.32,0,0,1-2.61.65,4,4,0,0,1-2.85-1,3.4,3.4,0,0,1-1-2.6A3.24,3.24,0,0,1,503,199.8a7,7,0,0,1,4.06-1h2.77v-1.68A2.71,2.71,0,0,0,509,195a3.48,3.48,0,0,0-2.42-.77,6.08,6.08,0,0,0-1.91.28,4.5,4.5,0,0,0-1.44.78l-.12,1.7h-1.14v-2.44a7.2,7.2,0,0,1,2.08-1.1,7.84,7.84,0,0,1,2.58-.42,5,5,0,0,1,3.34,1.07,3.78,3.78,0,0,1,1.26,3.06v6.23c0,.26,0,.51,0,.74a5.16,5.16,0,0,0,.08.7l1.25.08v1Zm-4.57-1a5,5,0,0,0,2.65-.7,4.14,4.14,0,0,0,1.66-1.82v-2.54H507a5.15,5.15,0,0,0-3,.79,2.35,2.35,0,0,0-1.13,2,2.08,2.08,0,0,0,.7,1.64A2.79,2.79,0,0,0,505.52,204.91Z" transform="translate(-1.18)"/><path class="cls-6" d="M517.53,193.23l.18,2.11v.15a4.48,4.48,0,0,1,1.45-1.84,3.69,3.69,0,0,1,2.19-.66,2.78,2.78,0,0,1,.51,0l.42.09-.19,1.31-1-.07a3.11,3.11,0,0,0-2.15.75,4.06,4.06,0,0,0-1.2,2v7.57l1.89.15v1h-5.16v-1l1.89-.15v-10.3l-1.89-.15v-1h3.09Z" transform="translate(-1.18)"/><path class="cls-6" d="M538.51,205.91c-.09-.43-.16-.81-.2-1.12s0-.63,0-.95a5.65,5.65,0,0,1-1.86,1.66,5.26,5.26,0,0,1-2.61.65,4,4,0,0,1-2.85-1,3.43,3.43,0,0,1-1-2.6,3.23,3.23,0,0,1,1.5-2.79,7,7,0,0,1,4.05-1h2.78v-1.68a2.72,2.72,0,0,0-.87-2.13,3.46,3.46,0,0,0-2.41-.77,6,6,0,0,0-1.91.28,4.45,4.45,0,0,0-1.45.78l-.11,1.7h-1.15v-2.44a7.33,7.33,0,0,1,2.08-1.1A7.84,7.84,0,0,1,535,193a5,5,0,0,1,3.34,1.07,3.76,3.76,0,0,1,1.27,3.06v6.23c0,.26,0,.51,0,.74s0,.48.08.7l1.25.08v1Zm-4.57-1a5.07,5.07,0,0,0,2.66-.7,4.2,4.2,0,0,0,1.66-1.82v-2.54h-2.8a5.15,5.15,0,0,0-3,.79,2.37,2.37,0,0,0-1.13,2,2.08,2.08,0,0,0,.7,1.64A2.79,2.79,0,0,0,533.94,204.91Z" transform="translate(-1.18)"/><path class="cls-6" d="M552.37,194.27l-1.56.12,3.13,8.34.4,1.49h.07l.44-1.49,3.09-8.34-1.57-.12v-1h4.22v1l-1.23.1-4.43,11.54h-1.11l-4.44-11.54-1.23-.1v-1h4.22Z" transform="translate(-1.18)"/><path class="cls-6" d="M567.51,206.15a5,5,0,0,1-3.92-1.75,6.45,6.45,0,0,1-1.56-4.46v-.64a6.69,6.69,0,0,1,1.55-4.52,4.79,4.79,0,0,1,3.74-1.79,4.6,4.6,0,0,1,3.63,1.48,5.67,5.67,0,0,1,1.32,3.94v1.19h-8.86v.34a5.65,5.65,0,0,0,1.13,3.58,3.58,3.58,0,0,0,3,1.45,5.82,5.82,0,0,0,2.2-.37,4.32,4.32,0,0,0,1.56-1l.6,1a5.06,5.06,0,0,1-1.79,1.19A6.87,6.87,0,0,1,567.51,206.15Zm-.19-12a3.29,3.29,0,0,0-2.58,1.19,5.05,5.05,0,0,0-1.22,3l0,.06h7.35v-.35a4.08,4.08,0,0,0-1-2.77A3.27,3.27,0,0,0,567.32,194.19Z" transform="translate(-1.18)"/><path class="cls-6" d="M574.81,199.67a8.35,8.35,0,0,1,1.28-4.86,4.13,4.13,0,0,1,3.56-1.82,4.41,4.41,0,0,1,2.31.59,4.81,4.81,0,0,1,1.62,1.67l.16-2h1.17v12.51a5.47,5.47,0,0,1-1.31,3.87A4.74,4.74,0,0,1,580,211a9,9,0,0,1-1.93-.23,7,7,0,0,1-1.79-.61l.37-1.18a7.8,7.8,0,0,0,1.58.56,7.06,7.06,0,0,0,1.75.2,3.34,3.34,0,0,0,2.69-1.06,4.46,4.46,0,0,0,.9-3v-1.6a4.42,4.42,0,0,1-1.61,1.49,4.75,4.75,0,0,1-2.29.52,4.15,4.15,0,0,1-3.53-1.7,7.36,7.36,0,0,1-1.28-4.53Zm1.39.25a6.47,6.47,0,0,0,.92,3.65,3.12,3.12,0,0,0,2.76,1.36,3.86,3.86,0,0,0,2.26-.62,4,4,0,0,0,1.38-1.71v-5.88a4.46,4.46,0,0,0-1.33-1.81,3.52,3.52,0,0,0-2.29-.7,3,3,0,0,0-2.76,1.52,7.39,7.39,0,0,0-.94,3.94Z" transform="translate(-1.18)"/><path class="cls-6" d="M593.6,206.15a5,5,0,0,1-3.92-1.75,6.45,6.45,0,0,1-1.56-4.46v-.64a6.69,6.69,0,0,1,1.55-4.52,4.8,4.8,0,0,1,3.74-1.79,4.6,4.6,0,0,1,3.63,1.48,5.67,5.67,0,0,1,1.32,3.94v1.19H589.5v.34a5.6,5.6,0,0,0,1.14,3.58,3.56,3.56,0,0,0,3,1.45,5.79,5.79,0,0,0,2.2-.37,4.36,4.36,0,0,0,1.57-1l.59,1a5,5,0,0,1-1.79,1.19A6.84,6.84,0,0,1,593.6,206.15Zm-.19-12a3.29,3.29,0,0,0-2.58,1.19,5.12,5.12,0,0,0-1.22,3l0,.06H597v-.35a4.08,4.08,0,0,0-1-2.77A3.27,3.27,0,0,0,593.41,194.19Z" transform="translate(-1.18)"/><path class="cls-6" d="M604,190v3.25h2.76v1.14H604v8.27a2.78,2.78,0,0,0,.44,1.76,1.49,1.49,0,0,0,1.19.52c.23,0,.44,0,.66,0s.45,0,.73-.1l.21,1.05a3.88,3.88,0,0,1-.84.23,6.85,6.85,0,0,1-1,.08,2.6,2.6,0,0,1-2.06-.84,4,4,0,0,1-.74-2.67v-8.27h-2.15v-1.14h2.15V190Z" transform="translate(-1.18)"/><path class="cls-6" d="M618,205.91c-.09-.43-.16-.81-.2-1.12a7.46,7.46,0,0,1,0-.95,5.65,5.65,0,0,1-1.86,1.66,5.26,5.26,0,0,1-2.61.65,4,4,0,0,1-2.85-1,3.43,3.43,0,0,1-1-2.6,3.23,3.23,0,0,1,1.5-2.79,7,7,0,0,1,4.05-1h2.78v-1.68a2.72,2.72,0,0,0-.87-2.13,3.47,3.47,0,0,0-2.42-.77,6,6,0,0,0-1.9.28,4.45,4.45,0,0,0-1.45.78L611,197h-1.15v-2.44a7.2,7.2,0,0,1,2.08-1.1,7.84,7.84,0,0,1,2.58-.42,5,5,0,0,1,3.34,1.07,3.79,3.79,0,0,1,1.27,3.06v6.23c0,.26,0,.51,0,.74a5.16,5.16,0,0,0,.08.7l1.25.08v1Zm-4.57-1a5.07,5.07,0,0,0,2.66-.7,4.2,4.2,0,0,0,1.66-1.82v-2.54H615a5.15,5.15,0,0,0-3,.79,2.37,2.37,0,0,0-1.13,2,2.08,2.08,0,0,0,.7,1.64A2.79,2.79,0,0,0,613.44,204.91Z" transform="translate(-1.18)"/><path class="cls-6" d="M627.81,205a4,4,0,0,0,2.44-.8,2.62,2.62,0,0,0,1-2.21h1.23l0,.07a3.5,3.5,0,0,1-1.38,2.94,5.12,5.12,0,0,1-3.36,1.18,4.74,4.74,0,0,1-3.95-1.77,7.14,7.14,0,0,1-1.41-4.57v-.49a7.12,7.12,0,0,1,1.41-4.55A4.74,4.74,0,0,1,627.8,193a6.22,6.22,0,0,1,2.65.55,5.21,5.21,0,0,1,2,1.5l.06,2.77h-1.18l-.22-2.25a3.85,3.85,0,0,0-1.39-1,4.51,4.51,0,0,0-1.88-.37,3.32,3.32,0,0,0-3,1.46,6.53,6.53,0,0,0-1,3.67v.49a6.48,6.48,0,0,0,1,3.7A3.34,3.34,0,0,0,627.81,205Zm.36,1-.13.75a2.75,2.75,0,0,1,1.48.57,1.74,1.74,0,0,1,.56,1.43,2,2,0,0,1-.91,1.71,4.53,4.53,0,0,1-2.62.64l-.08-.92a3.86,3.86,0,0,0,1.74-.35,1.12,1.12,0,0,0,.71-1.05,1,1,0,0,0-.47-.93,4.39,4.39,0,0,0-1.68-.36l.32-1.49Z" transform="translate(-1.18)"/><path class="cls-6" d="M643.8,205.91c-.09-.43-.15-.81-.19-1.12a7.46,7.46,0,0,1-.06-.95,5.55,5.55,0,0,1-1.86,1.66,5.26,5.26,0,0,1-2.61.65,4,4,0,0,1-2.85-1,3.43,3.43,0,0,1-1-2.6,3.23,3.23,0,0,1,1.5-2.79,7,7,0,0,1,4.06-1h2.77v-1.68a2.72,2.72,0,0,0-.87-2.13,3.46,3.46,0,0,0-2.41-.77,6,6,0,0,0-1.91.28,4.45,4.45,0,0,0-1.45.78l-.11,1.7h-1.15v-2.44a7.33,7.33,0,0,1,2.08-1.1,7.84,7.84,0,0,1,2.58-.42,5,5,0,0,1,3.34,1.07,3.76,3.76,0,0,1,1.27,3.06v6.23c0,.26,0,.51,0,.74a5.19,5.19,0,0,0,.07.7l1.25.08v1Zm.5-17.57a2.37,2.37,0,0,1-.64,1.71,2.09,2.09,0,0,1-1.59.68,3.07,3.07,0,0,1-1.75-.64,2.78,2.78,0,0,0-1.51-.65,1.2,1.2,0,0,0-.92.41,1.47,1.47,0,0,0-.37,1l-.92-.21a2.45,2.45,0,0,1,.62-1.69,2,2,0,0,1,1.59-.69,3.19,3.19,0,0,1,1.71.65,3,3,0,0,0,1.55.64,1.19,1.19,0,0,0,.92-.42,1.51,1.51,0,0,0,.38-1.07Zm-5.07,16.57a5.07,5.07,0,0,0,2.66-.7,4.2,4.2,0,0,0,1.66-1.82v-2.54h-2.8a5.17,5.17,0,0,0-3,.79,2.37,2.37,0,0,0-1.13,2,2.12,2.12,0,0,0,.7,1.64A2.79,2.79,0,0,0,639.23,204.91Z" transform="translate(-1.18)"/><path class="cls-6" d="M648.24,199.38a6.9,6.9,0,0,1,1.52-4.6,5.43,5.43,0,0,1,8.06,0,6.84,6.84,0,0,1,1.52,4.6v.38a6.85,6.85,0,0,1-1.51,4.6,5,5,0,0,1-4,1.79,5,5,0,0,1-4-1.79,6.86,6.86,0,0,1-1.52-4.6Zm1.4.38a6.07,6.07,0,0,0,1.1,3.71,3.86,3.86,0,0,0,6.11,0,6.13,6.13,0,0,0,1.1-3.71v-.38a6,6,0,0,0-1.11-3.68,3.84,3.84,0,0,0-6.1,0,6,6,0,0,0-1.1,3.68Z" transform="translate(-1.18)"/><path class="cls-6" d="M667.38,199.67a8.35,8.35,0,0,1,1.27-4.86,4.09,4.09,0,0,1,3.54-1.82A4.29,4.29,0,0,1,676,195.1l.14-1.87h1.22v16.36l1.89.15v1h-5.17v-1l1.89-.15v-5.35a4.35,4.35,0,0,1-1.6,1.42,4.83,4.83,0,0,1-2.24.49,4.13,4.13,0,0,1-3.52-1.7,7.36,7.36,0,0,1-1.27-4.53Zm1.4.25a6.62,6.62,0,0,0,.91,3.67,3.07,3.07,0,0,0,2.75,1.38,3.88,3.88,0,0,0,2.18-.59,4,4,0,0,0,1.39-1.63v-6.18a4.71,4.71,0,0,0-1.35-1.72,3.53,3.53,0,0,0-2.2-.66,3,3,0,0,0-2.76,1.53,7.6,7.6,0,0,0-.92,3.95Z" transform="translate(-1.18)"/><path class="cls-6" d="M689.87,203.82a4.34,4.34,0,0,1-1.62,1.72,4.63,4.63,0,0,1-2.42.61,3.78,3.78,0,0,1-3.1-1.36,6.53,6.53,0,0,1-1.12-4.22v-6.15l-1.55-.15v-1H683v7.37a5.5,5.5,0,0,0,.78,3.32,2.62,2.62,0,0,0,2.22,1,4.06,4.06,0,0,0,2.51-.7,3.73,3.73,0,0,0,1.32-1.95v-7.86l-1.79-.15v-1h3.18v11.49l1.68.15v1H690Z" transform="translate(-1.18)"/><path class="cls-6" d="M700.47,206.15a5,5,0,0,1-3.92-1.75,6.45,6.45,0,0,1-1.56-4.46v-.64a6.69,6.69,0,0,1,1.55-4.52,4.79,4.79,0,0,1,3.74-1.79,4.6,4.6,0,0,1,3.63,1.48,5.67,5.67,0,0,1,1.32,3.94v1.19h-8.86v.34a5.65,5.65,0,0,0,1.13,3.58,3.58,3.58,0,0,0,3,1.45,5.82,5.82,0,0,0,2.2-.37,4.45,4.45,0,0,0,1.57-1l.59,1a5,5,0,0,1-1.79,1.19A6.87,6.87,0,0,1,700.47,206.15Zm-.19-12a3.29,3.29,0,0,0-2.58,1.19,5.05,5.05,0,0,0-1.22,3l0,.06h7.35v-.35a4.08,4.08,0,0,0-1-2.77A3.27,3.27,0,0,0,700.28,194.19Z" transform="translate(-1.18)"/><path class="cls-6" d="M713.24,204.87l1.89-.15V194.37h-2.08v-1.14h2.08v-1.62a3.83,3.83,0,0,1,4.17-4.23,7.85,7.85,0,0,1,1.57.17,9.8,9.8,0,0,1,1.62.52l-.22,1.21a8.49,8.49,0,0,0-1.37-.46,6.39,6.39,0,0,0-1.52-.16,2.82,2.82,0,0,0-2.14.76,3.06,3.06,0,0,0-.72,2.19v1.62h7.2v11.49l1.89.15v1h-5.16v-1l1.89-.15V194.37h-5.82v10.35l1.89.15v1h-5.17Z" transform="translate(-1.18)"/><path class="cls-6" d="M732.87,205a3.92,3.92,0,0,0,2.43-.8,2.6,2.6,0,0,0,1.06-2.21h1.23l0,.07a3.5,3.5,0,0,1-1.38,2.94,5.14,5.14,0,0,1-3.36,1.18,4.77,4.77,0,0,1-4-1.77,7.2,7.2,0,0,1-1.4-4.57v-.49a7.18,7.18,0,0,1,1.4-4.55,4.76,4.76,0,0,1,4-1.78,6.26,6.26,0,0,1,2.65.55,5.21,5.21,0,0,1,2,1.5l.06,2.77h-1.18l-.22-2.25a3.94,3.94,0,0,0-1.39-1,4.51,4.51,0,0,0-1.88-.37,3.32,3.32,0,0,0-3,1.46,6.53,6.53,0,0,0-1,3.67v.49a6.48,6.48,0,0,0,1,3.7A3.34,3.34,0,0,0,732.87,205Z" transform="translate(-1.18)"/><path class="cls-6" d="M748.86,205.91c-.09-.43-.16-.81-.2-1.12s0-.63,0-.95a5.65,5.65,0,0,1-1.86,1.66,5.26,5.26,0,0,1-2.61.65,4,4,0,0,1-2.85-1,3.43,3.43,0,0,1-1-2.6,3.23,3.23,0,0,1,1.5-2.79,7,7,0,0,1,4.05-1h2.78v-1.68a2.72,2.72,0,0,0-.87-2.13,3.47,3.47,0,0,0-2.42-.77,6,6,0,0,0-1.9.28,4.45,4.45,0,0,0-1.45.78l-.11,1.7h-1.15v-2.44a7.2,7.2,0,0,1,2.08-1.1,7.84,7.84,0,0,1,2.58-.42,5,5,0,0,1,3.34,1.07,3.79,3.79,0,0,1,1.27,3.06v6.23c0,.26,0,.51,0,.74s0,.48.08.7l1.25.08v1Zm-4.57-1a5.07,5.07,0,0,0,2.66-.7,4.2,4.2,0,0,0,1.66-1.82v-2.54h-2.8a5.15,5.15,0,0,0-3,.79,2.37,2.37,0,0,0-1.13,2,2.08,2.08,0,0,0,.7,1.64A2.79,2.79,0,0,0,744.29,204.91Z" transform="translate(-1.18)"/><path class="cls-6" d="M764.61,206.15a5,5,0,0,1-3.92-1.75,6.45,6.45,0,0,1-1.55-4.46v-.64a6.64,6.64,0,0,1,1.55-4.52,4.77,4.77,0,0,1,3.73-1.79,4.64,4.64,0,0,1,3.64,1.48,5.67,5.67,0,0,1,1.32,3.94v1.19h-8.86v.34a5.6,5.6,0,0,0,1.13,3.58,3.56,3.56,0,0,0,3,1.45,5.79,5.79,0,0,0,2.2-.37,4.36,4.36,0,0,0,1.57-1l.59,1a5,5,0,0,1-1.78,1.19A6.89,6.89,0,0,1,764.61,206.15Zm-.19-12a3.29,3.29,0,0,0-2.58,1.19,5.18,5.18,0,0,0-1.22,3l0,.06H768v-.35a4,4,0,0,0-1-2.77A3.27,3.27,0,0,0,764.42,194.19Z" transform="translate(-1.18)"/><path class="cls-6" d="M771.56,194.27v-1h3.12l.12,2.09a4.33,4.33,0,0,1,4-2.33,3.62,3.62,0,0,1,3.78,2.87,4.92,4.92,0,0,1,1.62-2.1,4.22,4.22,0,0,1,2.55-.77,3.76,3.76,0,0,1,3.1,1.35,6.5,6.5,0,0,1,1.1,4.17v6.2l1.89.16v1h-5.18v-1l1.89-.16v-6.22a5.12,5.12,0,0,0-.82-3.31,2.81,2.81,0,0,0-2.28-1,3.11,3.11,0,0,0-2.5,1,5.12,5.12,0,0,0-1.08,2.66v.18a1.22,1.22,0,0,1,0,.21v6.42l1.89.15v1h-5.17v-1l1.89-.15v-6.23a5.16,5.16,0,0,0-.83-3.29,2.81,2.81,0,0,0-2.28-1,3.42,3.42,0,0,0-2.35.76,4,4,0,0,0-1.21,2v7.72l1.89.15v1h-5.17v-1l1.89-.15v-10.3Z" transform="translate(-1.18)"/><path class="cls-6" d="M412.43,218.78V222h2.76v1.14h-2.76v8.27a2.78,2.78,0,0,0,.44,1.76,1.49,1.49,0,0,0,1.19.52c.23,0,.44,0,.66,0s.46-.05.73-.1l.21,1a3.38,3.38,0,0,1-.84.23,6.85,6.85,0,0,1-1,.08,2.6,2.6,0,0,1-2.06-.84,4,4,0,0,1-.74-2.67v-8.27h-2.15V222H411v-3.25Z" transform="translate(-1.18)"/><path class="cls-6" d="M417.51,228.18a6.8,6.8,0,0,1,1.52-4.59,5.41,5.41,0,0,1,8.06,0,6.84,6.84,0,0,1,1.51,4.59v.39a6.89,6.89,0,0,1-1.51,4.6,5.45,5.45,0,0,1-8.06,0,6.84,6.84,0,0,1-1.52-4.6Zm1.39.39a6.12,6.12,0,0,0,1.1,3.7,3.86,3.86,0,0,0,6.11,0,6.06,6.06,0,0,0,1.1-3.7v-.39a6.1,6.1,0,0,0-1.1-3.68,3.85,3.85,0,0,0-6.11,0,6.1,6.1,0,0,0-1.1,3.68Z" transform="translate(-1.18)"/><path class="cls-6" d="M433.87,222l.17,2.11v.15a4.57,4.57,0,0,1,1.46-1.84,3.64,3.64,0,0,1,2.19-.66,4.38,4.38,0,0,1,.51,0l.41.09-.18,1.31-1-.07a3.12,3.12,0,0,0-2.16.75,4.11,4.11,0,0,0-1.2,2v7.57l1.89.15v1h-5.16v-1l1.89-.15v-10.3l-1.89-.15v-1h3.1Z" transform="translate(-1.18)"/><path class="cls-6" d="M440.16,233.67l1.89-.15v-10.3l-1.89-.15v-1h3.11l.13,2.21a4.55,4.55,0,0,1,1.63-1.81,4.5,4.5,0,0,1,2.43-.64,3.85,3.85,0,0,1,3.11,1.26,6,6,0,0,1,1.07,3.93v6.54l1.89.15v1h-5.18v-1l1.89-.15V227a4.62,4.62,0,0,0-.8-3.09,2.92,2.92,0,0,0-2.29-.9,3.54,3.54,0,0,0-2.38.78,4.31,4.31,0,0,0-1.33,2.07v7.66l1.89.15v1h-5.17Z" transform="translate(-1.18)"/><path class="cls-6" d="M455.59,228.18a6.85,6.85,0,0,1,1.52-4.59,5.41,5.41,0,0,1,8.06,0,6.85,6.85,0,0,1,1.52,4.59v.39a6.89,6.89,0,0,1-1.51,4.6,5.46,5.46,0,0,1-8.07,0,6.9,6.9,0,0,1-1.52-4.6Zm1.39.39a6.12,6.12,0,0,0,1.1,3.7,3.87,3.87,0,0,0,6.12,0,6.12,6.12,0,0,0,1.1-3.7v-.39a6,6,0,0,0-1.11-3.68,3.85,3.85,0,0,0-6.11,0,6.1,6.1,0,0,0-1.1,3.68Z" transform="translate(-1.18)"/><path class="cls-6" d="M483.45,232.88a4.44,4.44,0,0,1-1.61,1.53,4.76,4.76,0,0,1-2.32.54,4.12,4.12,0,0,1-3.52-1.7,7.36,7.36,0,0,1-1.27-4.53v-.25a8.35,8.35,0,0,1,1.27-4.86,4.07,4.07,0,0,1,3.54-1.82,4.3,4.3,0,0,1,3.87,2.15v-6.32l-1.89-.15v-1.05h3.29v17.1l1.88.15v1h-3.13Zm-7.32-4.16a6.43,6.43,0,0,0,.91,3.65,3.07,3.07,0,0,0,2.74,1.36,3.89,3.89,0,0,0,2.24-.61,4,4,0,0,0,1.39-1.67v-6a4.29,4.29,0,0,0-1.34-1.76,3.6,3.6,0,0,0-2.26-.68,3,3,0,0,0-2.76,1.52,7.53,7.53,0,0,0-.92,3.94Z" transform="translate(-1.18)"/><path class="cls-6" d="M494.36,235a5,5,0,0,1-3.92-1.75,6.49,6.49,0,0,1-1.55-4.46v-.64a6.59,6.59,0,0,1,1.55-4.51,4.75,4.75,0,0,1,3.74-1.8,4.63,4.63,0,0,1,3.63,1.48,5.69,5.69,0,0,1,1.32,3.94v1.19h-8.86v.34a5.6,5.6,0,0,0,1.13,3.58,3.56,3.56,0,0,0,3,1.45,6,6,0,0,0,2.2-.36,4.3,4.3,0,0,0,1.57-1l.59,1a5,5,0,0,1-1.78,1.19A6.7,6.7,0,0,1,494.36,235Zm-.18-12a3.27,3.27,0,0,0-2.58,1.19,5.13,5.13,0,0,0-1.23,3l0,.06h7.35v-.35a4,4,0,0,0-1-2.77A3.27,3.27,0,0,0,494.18,223Z" transform="translate(-1.18)"/><path class="cls-6" d="M501.33,217.47v-1.05h3.27v17.1l1.89.15v1h-5.16v-1l1.89-.15v-15.9Z" transform="translate(-1.18)"/><path class="cls-6" d="M514.22,235a5,5,0,0,1-3.92-1.75,6.45,6.45,0,0,1-1.56-4.46v-.64a6.64,6.64,0,0,1,1.55-4.51,4.77,4.77,0,0,1,3.74-1.8,4.6,4.6,0,0,1,3.63,1.48,5.69,5.69,0,0,1,1.32,3.94v1.19h-8.86v.34a5.65,5.65,0,0,0,1.13,3.58,3.58,3.58,0,0,0,3,1.45,6,6,0,0,0,2.2-.36,4.34,4.34,0,0,0,1.56-1l.6,1a5.06,5.06,0,0,1-1.79,1.19A6.68,6.68,0,0,1,514.22,235ZM514,223a3.29,3.29,0,0,0-2.58,1.19,5.05,5.05,0,0,0-1.22,3l0,.06h7.35v-.35a4.08,4.08,0,0,0-1-2.77A3.27,3.27,0,0,0,514,223Z" transform="translate(-1.18)"/><path class="cls-6" d="M530.57,225.94h-1.14l-.16-1.79a3.6,3.6,0,0,0-1.32-.86,5.15,5.15,0,0,0-1.82-.3,3.37,3.37,0,0,0-2.28.66,2,2,0,0,0-.76,1.55,1.88,1.88,0,0,0,.65,1.46,6.44,6.44,0,0,0,2.62,1,8.58,8.58,0,0,1,3.35,1.38,2.85,2.85,0,0,1,1.11,2.37,3.06,3.06,0,0,1-1.27,2.56,5.28,5.28,0,0,1-3.35,1,7.83,7.83,0,0,1-2.54-.39,5.83,5.83,0,0,1-2-1.11V230.9h1.12l.2,1.8a3.19,3.19,0,0,0,1.41.82,6.49,6.49,0,0,0,1.78.25,3.77,3.77,0,0,0,2.37-.67,2,2,0,0,0,.87-1.62,2.08,2.08,0,0,0-.72-1.56,6,6,0,0,0-2.62-1.08,8.82,8.82,0,0,1-3.32-1.31,2.68,2.68,0,0,1-1.08-2.28,3.08,3.08,0,0,1,1.21-2.46,5,5,0,0,1,3.22-1,7,7,0,0,1,2.52.43,5.07,5.07,0,0,1,1.86,1.15Z" transform="translate(-1.18)"/><path class="cls-6" d="M535.37,234.14a5.36,5.36,0,0,1-.44,2.11,5.15,5.15,0,0,1-1.18,1.75l-.83-.61a6.19,6.19,0,0,0,.81-1.54,5.24,5.24,0,0,0,.26-1.68V232.5h1.38Z" transform="translate(-1.18)"/><path class="cls-6" d="M543.3,223.07v-1h3.05l.17,2a4.4,4.4,0,0,1,4-2.21,4.09,4.09,0,0,1,3.54,1.82,8.35,8.35,0,0,1,1.27,4.86v.25a7.37,7.37,0,0,1-1.27,4.54A4.16,4.16,0,0,1,550.5,235a5,5,0,0,1-2.31-.51,4.32,4.32,0,0,1-1.62-1.44v5.39l1.89.15v1H543.3v-1l1.89-.15V223.22Zm10.6,5.4a7.39,7.39,0,0,0-.95-3.94,3.08,3.08,0,0,0-2.78-1.52,3.68,3.68,0,0,0-2.28.67,4.17,4.17,0,0,0-1.32,1.76v6.09a3.83,3.83,0,0,0,1.38,1.64,3.91,3.91,0,0,0,2.24.6,3.15,3.15,0,0,0,2.77-1.38,6.42,6.42,0,0,0,.94-3.67Z" transform="translate(-1.18)"/><path class="cls-6" d="M566.22,234.71a10.8,10.8,0,0,1-.2-1.12,7.46,7.46,0,0,1-.06-1,5.51,5.51,0,0,1-1.85,1.66,5.32,5.32,0,0,1-2.61.65,4,4,0,0,1-2.86-1,3.43,3.43,0,0,1-1-2.6,3.22,3.22,0,0,1,1.49-2.79,7,7,0,0,1,4.06-1H566v-1.68a2.74,2.74,0,0,0-.86-2.13,3.53,3.53,0,0,0-2.42-.77,6.08,6.08,0,0,0-1.91.28,4.7,4.7,0,0,0-1.44.78l-.12,1.7h-1.15l0-2.43a7.21,7.21,0,0,1,2.08-1.11,7.84,7.84,0,0,1,2.58-.42,5,5,0,0,1,3.34,1.07,3.78,3.78,0,0,1,1.26,3.06v6.23c0,.26,0,.51,0,.75a5.2,5.2,0,0,0,.08.69l1.25.08v1Zm-4.57-1a5,5,0,0,0,2.65-.7,4.14,4.14,0,0,0,1.66-1.82v-2.54h-2.79a5.15,5.15,0,0,0-3,.79,2.35,2.35,0,0,0-1.13,2,2.07,2.07,0,0,0,.7,1.64A2.79,2.79,0,0,0,561.65,233.71Z" transform="translate(-1.18)"/><path class="cls-6" d="M573.66,222l.18,2.11v.15a4.55,4.55,0,0,1,1.45-1.84,3.69,3.69,0,0,1,2.19-.66,4.06,4.06,0,0,1,.51,0l.42.09-.19,1.31-1-.07a3.1,3.1,0,0,0-2.15.75,4.11,4.11,0,0,0-1.2,2v7.57l1.89.15v1h-5.16v-1l1.89-.15v-10.3l-1.89-.15v-1h3.09Z" transform="translate(-1.18)"/><path class="cls-6" d="M588.87,234.71a10.8,10.8,0,0,1-.2-1.12,7.46,7.46,0,0,1-.06-1,5.51,5.51,0,0,1-1.85,1.66,5.32,5.32,0,0,1-2.61.65,4,4,0,0,1-2.86-1,3.43,3.43,0,0,1-1-2.6,3.23,3.23,0,0,1,1.5-2.79,7,7,0,0,1,4.06-1h2.77v-1.68a2.74,2.74,0,0,0-.86-2.13,3.55,3.55,0,0,0-2.42-.77,6.08,6.08,0,0,0-1.91.28,4.48,4.48,0,0,0-1.44.78l-.12,1.7h-1.15v-2.43a7.27,7.27,0,0,1,2.09-1.11,7.76,7.76,0,0,1,2.58-.42,5,5,0,0,1,3.34,1.07,3.78,3.78,0,0,1,1.26,3.06v6.23c0,.26,0,.51,0,.75a5.2,5.2,0,0,0,.07.69l1.26.08v1Zm-4.57-1A5,5,0,0,0,587,233a4.14,4.14,0,0,0,1.66-1.82v-2.54h-2.79a5.2,5.2,0,0,0-3,.79,2.37,2.37,0,0,0-1.13,2,2.08,2.08,0,0,0,.71,1.64A2.77,2.77,0,0,0,584.3,233.71Z" transform="translate(-1.18)"/><path class="cls-6" d="M604.44,233.77a4,4,0,0,0,2.44-.8,2.62,2.62,0,0,0,1-2.21h1.23l0,.07a3.5,3.5,0,0,1-1.38,2.94,5.12,5.12,0,0,1-3.36,1.18,4.74,4.74,0,0,1-4-1.77,7.14,7.14,0,0,1-1.41-4.57v-.49a7.12,7.12,0,0,1,1.41-4.55,4.74,4.74,0,0,1,3.94-1.78,6.38,6.38,0,0,1,2.65.55,5.21,5.21,0,0,1,2,1.5l.06,2.77h-1.18l-.22-2.25a3.85,3.85,0,0,0-1.39-1,4.51,4.51,0,0,0-1.88-.37,3.32,3.32,0,0,0-3,1.46,6.53,6.53,0,0,0-1,3.67v.49a6.54,6.54,0,0,0,1,3.71A3.36,3.36,0,0,0,604.44,233.77Z" transform="translate(-1.18)"/><path class="cls-6" d="M611.77,228.18a6.85,6.85,0,0,1,1.52-4.59,5.41,5.41,0,0,1,8.06,0,6.85,6.85,0,0,1,1.52,4.59v.39a6.9,6.9,0,0,1-1.52,4.6,5,5,0,0,1-4,1.78,5,5,0,0,1-4.05-1.78,6.9,6.9,0,0,1-1.52-4.6Zm1.39.39a6.12,6.12,0,0,0,1.1,3.7,3.61,3.61,0,0,0,3.08,1.5,3.54,3.54,0,0,0,3-1.5,6.06,6.06,0,0,0,1.11-3.7v-.39a6,6,0,0,0-1.11-3.68,3.85,3.85,0,0,0-6.11,0,6.1,6.1,0,0,0-1.1,3.68Z" transform="translate(-1.18)"/><path class="cls-6" d="M624.87,233.67l1.89-.15v-10.3l-1.89-.15v-1H628l.13,2.21a4.55,4.55,0,0,1,1.63-1.81,4.47,4.47,0,0,1,2.43-.64,3.85,3.85,0,0,1,3.11,1.26,6,6,0,0,1,1.06,3.93v6.54l1.9.15v1h-5.18v-1l1.89-.15V227a4.68,4.68,0,0,0-.8-3.09,2.92,2.92,0,0,0-2.29-.9,3.58,3.58,0,0,0-2.39.78,4.36,4.36,0,0,0-1.32,2.07v7.66l1.89.15v1h-5.18Z" transform="translate(-1.18)"/><path class="cls-6" d="M649.53,225.94h-1.14l-.16-1.79a3.6,3.6,0,0,0-1.32-.86,5.07,5.07,0,0,0-1.82-.3,3.41,3.41,0,0,0-2.28.66,2,2,0,0,0-.76,1.55,1.88,1.88,0,0,0,.65,1.46,6.44,6.44,0,0,0,2.62,1,8.58,8.58,0,0,1,3.35,1.38,2.85,2.85,0,0,1,1.11,2.37,3.08,3.08,0,0,1-1.26,2.56,5.33,5.33,0,0,1-3.36,1,7.87,7.87,0,0,1-2.54-.39,5.83,5.83,0,0,1-2-1.11V230.9h1.12l.2,1.8a3.19,3.19,0,0,0,1.41.82,6.54,6.54,0,0,0,1.78.25,3.8,3.8,0,0,0,2.38-.67,2,2,0,0,0,.86-1.62,2.08,2.08,0,0,0-.72-1.56,5.92,5.92,0,0,0-2.62-1.08,8.89,8.89,0,0,1-3.32-1.31,2.68,2.68,0,0,1-1.08-2.28,3.06,3.06,0,0,1,1.22-2.46,4.93,4.93,0,0,1,3.21-1,7,7,0,0,1,2.52.43,5.07,5.07,0,0,1,1.86,1.15Z" transform="translate(-1.18)"/><path class="cls-6" d="M657.85,235a5,5,0,0,1-3.92-1.75,6.45,6.45,0,0,1-1.56-4.46v-.64a6.64,6.64,0,0,1,1.55-4.51,4.77,4.77,0,0,1,3.74-1.8,4.6,4.6,0,0,1,3.63,1.48,5.69,5.69,0,0,1,1.32,3.94v1.19h-8.86v.34a5.65,5.65,0,0,0,1.13,3.58,3.58,3.58,0,0,0,3,1.45,6,6,0,0,0,2.2-.36,4.34,4.34,0,0,0,1.56-1l.6,1a5.06,5.06,0,0,1-1.79,1.19A6.68,6.68,0,0,1,657.85,235Zm-.19-12a3.29,3.29,0,0,0-2.58,1.19,5.13,5.13,0,0,0-1.23,3l0,.06h7.35v-.35a4.08,4.08,0,0,0-1-2.77A3.27,3.27,0,0,0,657.66,223Z" transform="translate(-1.18)"/><path class="cls-6" d="M665.15,228.47a8.35,8.35,0,0,1,1.28-4.86,4.13,4.13,0,0,1,3.56-1.82,4.41,4.41,0,0,1,2.31.59,4.9,4.9,0,0,1,1.62,1.67l.16-2h1.17v12.51a5.51,5.51,0,0,1-1.31,3.87,4.74,4.74,0,0,1-3.65,1.42,9,9,0,0,1-1.93-.23,7.37,7.37,0,0,1-1.79-.6l.37-1.19a7.8,7.8,0,0,0,1.58.56,7.06,7.06,0,0,0,1.75.2,3.34,3.34,0,0,0,2.69-1.06,4.46,4.46,0,0,0,.9-3v-1.6a4.33,4.33,0,0,1-1.61,1.49A4.75,4.75,0,0,1,670,235a4.15,4.15,0,0,1-3.53-1.7,7.36,7.36,0,0,1-1.28-4.53Zm1.39.25a6.47,6.47,0,0,0,.92,3.65,3.12,3.12,0,0,0,2.76,1.36,3.86,3.86,0,0,0,2.26-.62,4,4,0,0,0,1.38-1.71v-5.88a4.46,4.46,0,0,0-1.33-1.81,3.52,3.52,0,0,0-2.29-.7,3,3,0,0,0-2.76,1.52,7.39,7.39,0,0,0-.94,3.94Z" transform="translate(-1.18)"/><path class="cls-6" d="M687.63,232.62a4.34,4.34,0,0,1-1.62,1.72,4.63,4.63,0,0,1-2.42.61,3.78,3.78,0,0,1-3.1-1.36,6.53,6.53,0,0,1-1.12-4.22v-6.15l-1.56-.15v-1h2.94v7.37a5.55,5.55,0,0,0,.78,3.33,2.64,2.64,0,0,0,2.22,1,4.06,4.06,0,0,0,2.51-.7,3.74,3.74,0,0,0,1.32-1.94v-7.87l-1.79-.15v-1H689v11.49l1.68.15v1h-2.9Z" transform="translate(-1.18)"/><path class="cls-6" d="M692.6,233.67l1.89-.15v-10.3l-1.89-.15v-1h3.27v11.49l1.89.15v1H692.6Zm3.27-15.28h-1.38v-2h1.38Z" transform="translate(-1.18)"/><path class="cls-6" d="M703.1,222l.17,2.11v.15a4.57,4.57,0,0,1,1.46-1.84,3.63,3.63,0,0,1,2.18-.66,4.38,4.38,0,0,1,.52,0l.41.09-.18,1.31-1-.07a3.11,3.11,0,0,0-2.15.75,4.11,4.11,0,0,0-1.2,2v7.57l1.89.15v1H700v-1l1.89-.15v-10.3l-1.89-.15v-1h3.1Z" transform="translate(-1.18)"/><path class="cls-6" d="M417.9,263.51c-.09-.43-.16-.8-.2-1.12a7.46,7.46,0,0,1-.05-.95,5.65,5.65,0,0,1-1.86,1.66,5.26,5.26,0,0,1-2.61.65,4,4,0,0,1-2.85-1,3.4,3.4,0,0,1-1-2.6,3.24,3.24,0,0,1,1.49-2.79,7.06,7.06,0,0,1,4.06-1h2.78v-1.68a2.72,2.72,0,0,0-.87-2.13,3.51,3.51,0,0,0-2.42-.77,6,6,0,0,0-1.9.28,4.64,4.64,0,0,0-1.45.78l-.11,1.7h-1.15v-2.43a7.21,7.21,0,0,1,2.08-1.11,7.84,7.84,0,0,1,2.58-.42,5,5,0,0,1,3.34,1.07,3.79,3.79,0,0,1,1.27,3.06V261c0,.26,0,.51,0,.75a5.2,5.2,0,0,0,.08.69l1.25.08v1Zm-4.57-1a5,5,0,0,0,2.66-.7,4.2,4.2,0,0,0,1.66-1.82v-2.54h-2.8a5.15,5.15,0,0,0-3,.79,2.37,2.37,0,0,0-1.13,2,2.08,2.08,0,0,0,.7,1.64A2.79,2.79,0,0,0,413.33,262.51Z" transform="translate(-1.18)"/><path class="cls-6" d="M427.7,262.57a4,4,0,0,0,2.44-.8,2.62,2.62,0,0,0,1.05-2.21h1.23l0,.07a3.5,3.5,0,0,1-1.38,2.94,5.12,5.12,0,0,1-3.36,1.18,4.74,4.74,0,0,1-3.95-1.77,7.14,7.14,0,0,1-1.41-4.57v-.49a7.12,7.12,0,0,1,1.41-4.55,4.74,4.74,0,0,1,3.94-1.78,6.41,6.41,0,0,1,2.65.55,5.21,5.21,0,0,1,2,1.5l.06,2.77h-1.18l-.22-2.25a3.85,3.85,0,0,0-1.39-1,4.51,4.51,0,0,0-1.88-.37,3.32,3.32,0,0,0-3,1.46,6.53,6.53,0,0,0-1,3.67v.49a6.54,6.54,0,0,0,1,3.71A3.36,3.36,0,0,0,427.7,262.57Z" transform="translate(-1.18)"/><path class="cls-6" d="M434.62,246.27v-1.05h3.27V253a4.82,4.82,0,0,1,1.67-1.77,4.64,4.64,0,0,1,2.44-.63,3.79,3.79,0,0,1,3,1.24,5.85,5.85,0,0,1,1.06,3.86v6.63l1.9.15v1h-5.18v-1l1.89-.15v-6.65a4.41,4.41,0,0,0-.8-3,2.84,2.84,0,0,0-2.22-.9,3.72,3.72,0,0,0-2.39.76,4.48,4.48,0,0,0-1.41,2v7.74l1.89.15v1h-5.16v-1l1.89-.15v-15.9Z" transform="translate(-1.18)"/><path class="cls-6" d="M458.75,263.51a10.8,10.8,0,0,1-.2-1.12,7.46,7.46,0,0,1-.06-.95,5.51,5.51,0,0,1-1.85,1.66,5.32,5.32,0,0,1-2.61.65,4,4,0,0,1-2.86-1,3.43,3.43,0,0,1-1-2.6,3.23,3.23,0,0,1,1.5-2.79,7,7,0,0,1,4.06-1h2.77v-1.68a2.74,2.74,0,0,0-.86-2.13,3.55,3.55,0,0,0-2.42-.77,6.08,6.08,0,0,0-1.91.28,4.48,4.48,0,0,0-1.44.78l-.12,1.7h-1.15v-2.43a7.27,7.27,0,0,1,2.09-1.11,7.76,7.76,0,0,1,2.58-.42,5,5,0,0,1,3.34,1.07,3.78,3.78,0,0,1,1.26,3.06V261c0,.26,0,.51,0,.75a5.2,5.2,0,0,0,.07.69l1.26.08v1Zm-4.57-1a5,5,0,0,0,2.65-.7,4.14,4.14,0,0,0,1.66-1.82v-2.54H455.7a5.2,5.2,0,0,0-3,.79,2.37,2.37,0,0,0-1.13,2,2.09,2.09,0,0,0,.71,1.64A2.77,2.77,0,0,0,454.18,262.51ZM456.53,246h1.7l0,.07-2.89,3h-1.24Z" transform="translate(-1.18)"/><path class="cls-6" d="M469.39,256.83h-5.54v-1.19h5.54Z" transform="translate(-1.18)"/><path class="cls-6" d="M472.1,246.27v-1.05h3.28v17.1l1.89.15v1H472.1v-1l1.9-.15v-15.9Z" transform="translate(-1.18)"/><path class="cls-6" d="M479.23,257a6.89,6.89,0,0,1,1.51-4.6,5.43,5.43,0,0,1,8.06,0,6.84,6.84,0,0,1,1.52,4.6v.39a6.84,6.84,0,0,1-1.51,4.59,5,5,0,0,1-4,1.79,5,5,0,0,1-4.05-1.79,6.84,6.84,0,0,1-1.51-4.59Zm1.39.39a6.06,6.06,0,0,0,1.1,3.7,3.86,3.86,0,0,0,6.11,0,6.12,6.12,0,0,0,1.1-3.7V257a6,6,0,0,0-1.11-3.68,3.84,3.84,0,0,0-6.1,0,6,6,0,0,0-1.1,3.68Z" transform="translate(-1.18)"/><path class="cls-6" d="M501.69,254.74h-1.14l-.16-1.79a3.6,3.6,0,0,0-1.32-.86,5.15,5.15,0,0,0-1.82-.3,3.37,3.37,0,0,0-2.28.66,2,2,0,0,0-.76,1.55,1.88,1.88,0,0,0,.65,1.46,6.44,6.44,0,0,0,2.62,1,8.58,8.58,0,0,1,3.35,1.38,2.85,2.85,0,0,1,1.11,2.37,3.06,3.06,0,0,1-1.27,2.56,5.28,5.28,0,0,1-3.35,1,7.83,7.83,0,0,1-2.54-.39,5.83,5.83,0,0,1-2-1.11V259.7h1.12l.2,1.8a3.19,3.19,0,0,0,1.41.82,6.49,6.49,0,0,0,1.78.25,3.77,3.77,0,0,0,2.37-.67,2,2,0,0,0,.87-1.62,2.08,2.08,0,0,0-.72-1.56,6.08,6.08,0,0,0-2.62-1.09,8.66,8.66,0,0,1-3.32-1.3,2.68,2.68,0,0,1-1.08-2.28,3.08,3.08,0,0,1,1.21-2.46,5,5,0,0,1,3.22-1,7,7,0,0,1,2.52.43,5.07,5.07,0,0,1,1.86,1.15Z" transform="translate(-1.18)"/><path class="cls-6" d="M519,261.68a4.44,4.44,0,0,1-1.61,1.53,4.76,4.76,0,0,1-2.32.54,4.12,4.12,0,0,1-3.52-1.7,7.36,7.36,0,0,1-1.27-4.53v-.25a8.35,8.35,0,0,1,1.27-4.86,4.07,4.07,0,0,1,3.54-1.82,4.3,4.3,0,0,1,3.87,2.15v-6.32l-1.89-.15v-1.05h3.28v17.1l1.89.15v1h-3.13Zm-7.32-4.16a6.43,6.43,0,0,0,.91,3.65,3.07,3.07,0,0,0,2.74,1.36,3.89,3.89,0,0,0,2.24-.61,4,4,0,0,0,1.39-1.67v-6a4.29,4.29,0,0,0-1.34-1.76,3.6,3.6,0,0,0-2.26-.68,3,3,0,0,0-2.76,1.52,7.53,7.53,0,0,0-.92,3.94Z" transform="translate(-1.18)"/><path class="cls-6" d="M533.57,261.42a4.21,4.21,0,0,1-1.62,1.72,4.6,4.6,0,0,1-2.42.61,3.79,3.79,0,0,1-3.1-1.36,6.59,6.59,0,0,1-1.12-4.22V252l-1.55-.15v-1h2.93v7.37a5.47,5.47,0,0,0,.79,3.33,2.64,2.64,0,0,0,2.22,1,4.08,4.08,0,0,0,2.51-.7,3.71,3.71,0,0,0,1.31-1.95V252l-1.78-.15v-1h3.17v11.49l1.69.15v1h-2.9Z" transform="translate(-1.18)"/><path class="cls-6" d="M541.64,250.83l.17,2.11v.15a4.66,4.66,0,0,1,1.46-1.84,3.66,3.66,0,0,1,2.19-.66,4.21,4.21,0,0,1,.51,0l.41.09L546.2,252l-1-.07a3.1,3.1,0,0,0-2.15.75,4,4,0,0,0-1.21,2v7.57l1.89.15v1h-5.16v-1l1.9-.15V252l-1.9-.15v-1h3.1Z" transform="translate(-1.18)"/><path class="cls-6" d="M556.85,263.51a10.8,10.8,0,0,1-.2-1.12,7.46,7.46,0,0,1-.06-.95,5.45,5.45,0,0,1-1.86,1.66,5.25,5.25,0,0,1-2.6.65,4,4,0,0,1-2.86-1,3.43,3.43,0,0,1-1-2.6,3.23,3.23,0,0,1,1.5-2.79,7,7,0,0,1,4.06-1h2.77v-1.68a2.74,2.74,0,0,0-.86-2.13,3.55,3.55,0,0,0-2.42-.77,6.08,6.08,0,0,0-1.91.28,4.48,4.48,0,0,0-1.44.78l-.12,1.7h-1.15v-2.43a7.27,7.27,0,0,1,2.09-1.11,7.76,7.76,0,0,1,2.58-.42,5,5,0,0,1,3.34,1.07,3.78,3.78,0,0,1,1.26,3.06V261c0,.26,0,.51,0,.75a5.2,5.2,0,0,0,.07.69l1.25.08v1Zm-4.57-1a5,5,0,0,0,2.65-.7,4.14,4.14,0,0,0,1.66-1.82v-2.54H553.8a5.18,5.18,0,0,0-3,.79,2.37,2.37,0,0,0-1.13,2,2.09,2.09,0,0,0,.71,1.64A2.77,2.77,0,0,0,552.28,262.51Z" transform="translate(-1.18)"/><path class="cls-6" d="M561,262.47l1.89-.15V252l-1.89-.15v-1h3.12l.13,2.21a4.33,4.33,0,0,1,4.06-2.45,3.83,3.83,0,0,1,3.1,1.26,6,6,0,0,1,1.07,3.93v6.54l1.89.15v1h-5.17v-1l1.89-.15V255.8a4.62,4.62,0,0,0-.81-3.09,2.9,2.9,0,0,0-2.29-.9,3.57,3.57,0,0,0-2.38.78,4.38,4.38,0,0,0-1.33,2.07v7.66l1.89.15v1H561Z" transform="translate(-1.18)"/><path class="cls-6" d="M579.77,247.58v3.25h2.76V252h-2.76v8.27a2.72,2.72,0,0,0,.45,1.76,1.48,1.48,0,0,0,1.19.52c.22,0,.44,0,.65,0s.46-.05.74-.1l.21,1.05a3.6,3.6,0,0,1-.85.23,6.63,6.63,0,0,1-1,.08,2.61,2.61,0,0,1-2.06-.84,4,4,0,0,1-.73-2.67V252h-2.16v-1.14h2.16v-3.25Z" transform="translate(-1.18)"/><path class="cls-6" d="M590.62,263.75A5,5,0,0,1,586.7,262a6.45,6.45,0,0,1-1.56-4.46v-.64a6.69,6.69,0,0,1,1.55-4.52,4.79,4.79,0,0,1,3.74-1.79,4.6,4.6,0,0,1,3.63,1.48,5.69,5.69,0,0,1,1.32,3.94v1.19h-8.86v.34a5.65,5.65,0,0,0,1.13,3.58,3.58,3.58,0,0,0,3,1.45,6,6,0,0,0,2.2-.36,4.47,4.47,0,0,0,1.57-1l.59,1a5,5,0,0,1-1.79,1.19A6.68,6.68,0,0,1,590.62,263.75Zm-.19-12a3.29,3.29,0,0,0-2.58,1.19,5.05,5.05,0,0,0-1.22,3l0,.06H594v-.35a4.08,4.08,0,0,0-1-2.77A3.27,3.27,0,0,0,590.43,251.79Z" transform="translate(-1.18)"/><path class="cls-6" d="M612.3,263.51c-.09-.43-.16-.8-.2-1.12s-.05-.63-.05-.95a5.65,5.65,0,0,1-1.86,1.66,5.26,5.26,0,0,1-2.61.65,4,4,0,0,1-2.85-1,3.43,3.43,0,0,1-1-2.6,3.23,3.23,0,0,1,1.5-2.79,7,7,0,0,1,4-1h2.78v-1.68a2.72,2.72,0,0,0-.87-2.13,3.5,3.5,0,0,0-2.41-.77,6,6,0,0,0-1.91.28,4.64,4.64,0,0,0-1.45.78l-.11,1.7h-1.15v-2.43a7.35,7.35,0,0,1,2.08-1.11,7.84,7.84,0,0,1,2.58-.42,5,5,0,0,1,3.34,1.07,3.76,3.76,0,0,1,1.27,3.06V261c0,.26,0,.51,0,.75s0,.47.08.69l1.25.08v1Zm-4.57-1a5,5,0,0,0,2.66-.7,4.2,4.2,0,0,0,1.66-1.82v-2.54h-2.8a5.15,5.15,0,0,0-3,.79,2.37,2.37,0,0,0-1.13,2,2.08,2.08,0,0,0,.7,1.64A2.79,2.79,0,0,0,607.73,262.51Z" transform="translate(-1.18)"/><path class="cls-6" d="M627.88,262.57a3.92,3.92,0,0,0,2.43-.8,2.6,2.6,0,0,0,1.06-2.21h1.23l0,.07a3.48,3.48,0,0,1-1.39,2.94,5.12,5.12,0,0,1-3.35,1.18,4.77,4.77,0,0,1-4-1.77,7.2,7.2,0,0,1-1.4-4.57v-.49a7.18,7.18,0,0,1,1.4-4.55,4.76,4.76,0,0,1,4-1.78,6.41,6.41,0,0,1,2.65.55,5.21,5.21,0,0,1,2,1.5l.06,2.77h-1.18l-.22-2.25a3.94,3.94,0,0,0-1.39-1,4.51,4.51,0,0,0-1.88-.37,3.32,3.32,0,0,0-3,1.46,6.45,6.45,0,0,0-1,3.67v.49a6.62,6.62,0,0,0,1,3.71A3.39,3.39,0,0,0,627.88,262.57Z" transform="translate(-1.18)"/><path class="cls-6" d="M635.21,257a6.84,6.84,0,0,1,1.52-4.6,5.43,5.43,0,0,1,8.06,0,6.9,6.9,0,0,1,1.52,4.6v.39a6.85,6.85,0,0,1-1.52,4.59,5.43,5.43,0,0,1-8.06,0,6.8,6.8,0,0,1-1.52-4.59Zm1.39.39a6.12,6.12,0,0,0,1.1,3.7,3.6,3.6,0,0,0,3.07,1.5,3.56,3.56,0,0,0,3-1.5,6.06,6.06,0,0,0,1.1-3.7V257a6,6,0,0,0-1.1-3.68,3.85,3.85,0,0,0-6.11,0,6.1,6.1,0,0,0-1.1,3.68Z" transform="translate(-1.18)"/><path class="cls-6" d="M651.57,250.83l.17,2.11v.15a4.66,4.66,0,0,1,1.46-1.84,3.64,3.64,0,0,1,2.19-.66,4.21,4.21,0,0,1,.51,0l.41.09-.18,1.31-1-.07a3.14,3.14,0,0,0-2.16.75,4.06,4.06,0,0,0-1.2,2v7.57l1.89.15v1h-5.16v-1l1.89-.15V252l-1.89-.15v-1h3.1Z" transform="translate(-1.18)"/><path class="cls-6" d="M661.12,250.83l.17,2.11v.15a4.64,4.64,0,0,1,1.45-1.84,3.69,3.69,0,0,1,2.19-.66,4.38,4.38,0,0,1,.52,0l.41.09-.19,1.31-1-.07a3.11,3.11,0,0,0-2.15.75,4.06,4.06,0,0,0-1.2,2v7.57l1.89.15v1H658v-1l1.89-.15V252l-1.89-.15v-1h3.1Z" transform="translate(-1.18)"/><path class="cls-6" d="M667.56,262.47l1.89-.15V252l-1.89-.15v-1h3.27v11.49l1.89.15v1h-5.16Zm3.27-15.28h-1.38v-2h1.38Z" transform="translate(-1.18)"/><path class="cls-6" d="M683.78,261.68a4.39,4.39,0,0,1-1.62,1.53,4.74,4.74,0,0,1-2.32.54,4.13,4.13,0,0,1-3.52-1.7,7.42,7.42,0,0,1-1.26-4.53v-.25a8.42,8.42,0,0,1,1.26-4.86,4.1,4.1,0,0,1,3.55-1.82,4.3,4.3,0,0,1,3.87,2.15v-6.32l-1.89-.15v-1.05h3.28v17.1l1.89.15v1h-3.13Zm-7.32-4.16a6.43,6.43,0,0,0,.91,3.65,3.07,3.07,0,0,0,2.74,1.36,3.85,3.85,0,0,0,2.23-.61,4,4,0,0,0,1.4-1.67v-6a4.29,4.29,0,0,0-1.34-1.76,3.61,3.61,0,0,0-2.27-.68,3,3,0,0,0-2.75,1.52,7.53,7.53,0,0,0-.92,3.94Z" transform="translate(-1.18)"/><path class="cls-6" d="M697.82,263.51c-.09-.43-.16-.8-.2-1.12a7.46,7.46,0,0,1-.06-.95,5.51,5.51,0,0,1-1.85,1.66,5.26,5.26,0,0,1-2.61.65,4,4,0,0,1-2.85-1,3.4,3.4,0,0,1-1-2.6,3.24,3.24,0,0,1,1.49-2.79,7,7,0,0,1,4.06-1h2.77v-1.68a2.71,2.71,0,0,0-.86-2.13,3.53,3.53,0,0,0-2.42-.77,6.12,6.12,0,0,0-1.91.28,4.7,4.7,0,0,0-1.44.78l-.12,1.7h-1.14v-2.43a7.21,7.21,0,0,1,2.08-1.11,7.84,7.84,0,0,1,2.58-.42,5,5,0,0,1,3.34,1.07,3.78,3.78,0,0,1,1.26,3.06V261c0,.26,0,.51,0,.75a5.2,5.2,0,0,0,.08.69l1.25.08v1Zm-4.57-1a5,5,0,0,0,2.66-.7,4.17,4.17,0,0,0,1.65-1.82v-2.54h-2.79a5.15,5.15,0,0,0-3,.79,2.35,2.35,0,0,0-1.13,2,2.08,2.08,0,0,0,.7,1.64A2.79,2.79,0,0,0,693.25,262.51Z" transform="translate(-1.18)"/><path class="cls-6" d="M704.44,263.51H702.8v-2h1.64Zm-.14-5.61h-1.38V246.44h1.38Z" transform="translate(-1.18)"/><path class="cls-6" d="M408.94,305.09v-1h5.16v1l-1.89.15v6.82h9.6v-6.82l-1.89-.15v-1h5.16v1l-1.89.15v14.68l1.89.15v1h-5.16v-1l1.89-.15v-6.67h-9.6v6.67l1.89.15v1h-5.16v-1l1.89-.15V305.24Z" transform="translate(-1.18)"/><path class="cls-6" d="M432.6,321.35a5,5,0,0,1-3.92-1.75,6.45,6.45,0,0,1-1.56-4.46v-.64a6.69,6.69,0,0,1,1.55-4.52,4.79,4.79,0,0,1,3.74-1.79,4.6,4.6,0,0,1,3.63,1.48,5.67,5.67,0,0,1,1.32,3.94v1.19H428.5v.34a5.65,5.65,0,0,0,1.13,3.58,3.58,3.58,0,0,0,3,1.45,5.82,5.82,0,0,0,2.2-.37,4.32,4.32,0,0,0,1.56-1l.6,1a5.06,5.06,0,0,1-1.79,1.19A6.68,6.68,0,0,1,432.6,321.35Zm-.19-12a3.29,3.29,0,0,0-2.58,1.19,5.13,5.13,0,0,0-1.23,3l0,.06H436v-.35a4.08,4.08,0,0,0-1-2.77A3.27,3.27,0,0,0,432.41,309.39Z" transform="translate(-1.18)"/><path class="cls-6" d="M442.85,308.43l.17,2.11v.15a4.57,4.57,0,0,1,1.46-1.84,3.63,3.63,0,0,1,2.18-.66,4.38,4.38,0,0,1,.52,0l.41.09-.19,1.31-1-.07a3.11,3.11,0,0,0-2.15.75,4.06,4.06,0,0,0-1.2,2v7.57l1.89.15v1h-5.16v-1l1.89-.15v-10.3l-1.89-.15v-1h3.1Z" transform="translate(-1.18)"/><path class="cls-6" d="M458.05,321.11c-.09-.43-.16-.81-.2-1.12a7.46,7.46,0,0,1-.05-.95,5.65,5.65,0,0,1-1.86,1.66,5.26,5.26,0,0,1-2.61.65,4,4,0,0,1-2.85-1,3.4,3.4,0,0,1-1-2.6A3.24,3.24,0,0,1,451,315a7,7,0,0,1,4.06-1h2.78v-1.68a2.72,2.72,0,0,0-.87-2.13,3.48,3.48,0,0,0-2.42-.77,6.12,6.12,0,0,0-1.91.28,4.7,4.7,0,0,0-1.44.78l-.11,1.7H449.9v-2.44a7.2,7.2,0,0,1,2.08-1.1,7.84,7.84,0,0,1,2.58-.42,5,5,0,0,1,3.34,1.07,3.79,3.79,0,0,1,1.27,3.06v6.23c0,.26,0,.51,0,.75a5.2,5.2,0,0,0,.08.69l1.25.08v1Zm-4.57-1a5,5,0,0,0,2.66-.7,4.26,4.26,0,0,0,1.66-1.82v-2.54H455a5.15,5.15,0,0,0-3,.79,2.37,2.37,0,0,0-1.13,2,2.08,2.08,0,0,0,.7,1.64A2.79,2.79,0,0,0,453.48,320.11Z" transform="translate(-1.18)"/><path class="cls-6" d="M464.51,320.54a5.39,5.39,0,0,1-.44,2.11,5.15,5.15,0,0,1-1.18,1.75l-.83-.61a6.19,6.19,0,0,0,.81-1.54,5.24,5.24,0,0,0,.26-1.68V318.9h1.38Z" transform="translate(-1.18)"/><path class="cls-6" d="M479.31,304a6.81,6.81,0,0,1,5.11,2.09,7.35,7.35,0,0,1,2,5.35v2.2a7.33,7.33,0,0,1-2,5.35,6.84,6.84,0,0,1-5.11,2.08h-6.8v-1l1.89-.15V305.24l-1.89-.15v-1h6.8Zm-3.53,1.2v14.68h3.53a5.34,5.34,0,0,0,4.12-1.77,6.37,6.37,0,0,0,1.62-4.47v-2.23a6.29,6.29,0,0,0-1.63-4.44,5.33,5.33,0,0,0-4.11-1.77Z" transform="translate(-1.18)"/><path class="cls-6" d="M494.59,321.35a5,5,0,0,1-3.92-1.75,6.49,6.49,0,0,1-1.55-4.46v-.64a6.64,6.64,0,0,1,1.55-4.52,4.77,4.77,0,0,1,3.74-1.79,4.63,4.63,0,0,1,3.63,1.48,5.67,5.67,0,0,1,1.32,3.94v1.19H490.5v.34a5.6,5.6,0,0,0,1.13,3.58,3.56,3.56,0,0,0,3,1.45,5.88,5.88,0,0,0,2.21-.37,4.32,4.32,0,0,0,1.56-1l.59,1a4.93,4.93,0,0,1-1.78,1.19A6.7,6.7,0,0,1,494.59,321.35Zm-.18-12a3.29,3.29,0,0,0-2.58,1.19,5.13,5.13,0,0,0-1.23,3l0,.06H498v-.35a4.08,4.08,0,0,0-1-2.77A3.3,3.3,0,0,0,494.41,309.39Z" transform="translate(-1.18)"/><path class="cls-6" d="M511.06,319a4.21,4.21,0,0,1-1.62,1.72,4.6,4.6,0,0,1-2.42.61,3.79,3.79,0,0,1-3.1-1.36,6.59,6.59,0,0,1-1.12-4.22v-6.15l-1.55-.15v-1h2.93v7.37a5.47,5.47,0,0,0,.79,3.33,2.64,2.64,0,0,0,2.22,1,4.08,4.08,0,0,0,2.51-.7,3.71,3.71,0,0,0,1.31-1.95v-7.86l-1.78-.15v-1h3.17v11.49l1.69.15v1h-2.9Z" transform="translate(-1.18)"/><path class="cls-6" d="M525.23,312.34H524.1l-.17-1.79a3.37,3.37,0,0,0-1.31-.86,5.16,5.16,0,0,0-1.83-.3,3.41,3.41,0,0,0-2.28.66,2,2,0,0,0-.76,1.55,1.83,1.83,0,0,0,.66,1.45,6.22,6.22,0,0,0,2.61,1,8.58,8.58,0,0,1,3.35,1.38,2.83,2.83,0,0,1,1.12,2.37,3.09,3.09,0,0,1-1.27,2.56,5.33,5.33,0,0,1-3.36,1,7.76,7.76,0,0,1-2.53-.39,5.88,5.88,0,0,1-2-1.11V317.3h1.12l.2,1.8a3.19,3.19,0,0,0,1.41.82,6.54,6.54,0,0,0,1.78.25,3.8,3.8,0,0,0,2.38-.67,2,2,0,0,0,.87-1.62,2.06,2.06,0,0,0-.73-1.56,6,6,0,0,0-2.61-1.09,8.72,8.72,0,0,1-3.33-1.3,2.7,2.7,0,0,1-1.08-2.28,3.09,3.09,0,0,1,1.22-2.46,4.93,4.93,0,0,1,3.21-1,7,7,0,0,1,2.52.43,5.07,5.07,0,0,1,1.86,1.15Z" transform="translate(-1.18)"/><path class="cls-6" d="M536.68,321.11c-.09-.43-.16-.81-.2-1.12a7.46,7.46,0,0,1-.06-.95,5.51,5.51,0,0,1-1.85,1.66,5.32,5.32,0,0,1-2.61.65,4,4,0,0,1-2.86-1,3.43,3.43,0,0,1-1-2.6,3.24,3.24,0,0,1,1.49-2.79,7,7,0,0,1,4.06-1h2.77v-1.68a2.71,2.71,0,0,0-.86-2.13,3.48,3.48,0,0,0-2.42-.77,6.08,6.08,0,0,0-1.91.28,4.7,4.7,0,0,0-1.44.78l-.12,1.7h-1.15l0-2.44a7.2,7.2,0,0,1,2.08-1.1,7.84,7.84,0,0,1,2.58-.42,5,5,0,0,1,3.34,1.07,3.78,3.78,0,0,1,1.26,3.06v6.23c0,.26,0,.51,0,.75a5.2,5.2,0,0,0,.08.69l1.25.08v1Zm-4.57-1a5,5,0,0,0,2.65-.7,4.14,4.14,0,0,0,1.66-1.82v-2.54h-2.79a5.15,5.15,0,0,0-3,.79,2.35,2.35,0,0,0-1.13,2,2.08,2.08,0,0,0,.7,1.64A2.79,2.79,0,0,0,532.11,320.11Z" transform="translate(-1.18)"/><path class="cls-6" d="M555.62,319.28a4.39,4.39,0,0,1-1.62,1.53,4.74,4.74,0,0,1-2.32.54,4.13,4.13,0,0,1-3.52-1.7,7.42,7.42,0,0,1-1.26-4.53v-.25a8.42,8.42,0,0,1,1.26-4.86,4.1,4.1,0,0,1,3.55-1.82,4.3,4.3,0,0,1,3.87,2.15V304l-1.89-.15v-1.05H557v17.1l1.89.15v1h-3.13Zm-7.32-4.16a6.43,6.43,0,0,0,.91,3.65,3.06,3.06,0,0,0,2.74,1.36,3.85,3.85,0,0,0,2.23-.61,4,4,0,0,0,1.4-1.67v-6a4.29,4.29,0,0,0-1.34-1.76,3.61,3.61,0,0,0-2.27-.68,3,3,0,0,0-2.75,1.52,7.53,7.53,0,0,0-.92,3.94Z" transform="translate(-1.18)"/><path class="cls-6" d="M569.66,321.11c-.09-.43-.16-.81-.2-1.12a7.46,7.46,0,0,1-.05-.95,5.65,5.65,0,0,1-1.86,1.66,5.26,5.26,0,0,1-2.61.65,4,4,0,0,1-2.85-1,3.4,3.4,0,0,1-1-2.6,3.24,3.24,0,0,1,1.49-2.79,7.06,7.06,0,0,1,4.06-1h2.78v-1.68a2.72,2.72,0,0,0-.87-2.13,3.47,3.47,0,0,0-2.42-.77,6,6,0,0,0-1.9.28,4.64,4.64,0,0,0-1.45.78l-.11,1.7h-1.15v-2.44a7.2,7.2,0,0,1,2.08-1.1,7.84,7.84,0,0,1,2.58-.42,5,5,0,0,1,3.34,1.07,3.79,3.79,0,0,1,1.27,3.06v6.23c0,.26,0,.51,0,.75a5.2,5.2,0,0,0,.08.69l1.25.08v1Zm-4.57-1a5,5,0,0,0,2.66-.7,4.26,4.26,0,0,0,1.66-1.82v-2.54h-2.8a5.15,5.15,0,0,0-3,.79,2.37,2.37,0,0,0-1.13,2,2.08,2.08,0,0,0,.7,1.64A2.79,2.79,0,0,0,565.09,320.11Z" transform="translate(-1.18)"/><path class="cls-6" d="M583.21,312.34h-1.14l-.16-1.79a3.48,3.48,0,0,0-1.32-.86,5.16,5.16,0,0,0-1.83-.3,3.41,3.41,0,0,0-2.28.66,2,2,0,0,0-.75,1.55,1.82,1.82,0,0,0,.65,1.45,6.27,6.27,0,0,0,2.62,1,8.65,8.65,0,0,1,3.35,1.38,2.85,2.85,0,0,1,1.11,2.37,3.06,3.06,0,0,1-1.27,2.56,5.31,5.31,0,0,1-3.36,1,7.81,7.81,0,0,1-2.53-.39,6,6,0,0,1-2-1.11V317.3h1.13l.19,1.8a3.25,3.25,0,0,0,1.41.82,6.6,6.6,0,0,0,1.78.25,3.78,3.78,0,0,0,2.38-.67,2,2,0,0,0,.87-1.62,2.08,2.08,0,0,0-.72-1.56,6.08,6.08,0,0,0-2.62-1.09,8.66,8.66,0,0,1-3.32-1.3,2.68,2.68,0,0,1-1.09-2.28,3.09,3.09,0,0,1,1.22-2.46,4.93,4.93,0,0,1,3.21-1,7.11,7.11,0,0,1,2.53.43,5.07,5.07,0,0,1,1.86,1.15Z" transform="translate(-1.18)"/><path class="cls-6" d="M591.39,309.47v-1h3.05l.18,2a4.52,4.52,0,0,1,1.63-1.62,4.47,4.47,0,0,1,2.32-.58,4.09,4.09,0,0,1,3.54,1.82,8.35,8.35,0,0,1,1.27,4.86v.25a7.37,7.37,0,0,1-1.27,4.54,4.15,4.15,0,0,1-3.51,1.69,5,5,0,0,1-2.32-.51,4.26,4.26,0,0,1-1.62-1.45v5.4l1.89.15v1h-5.16v-1l1.89-.15V309.62Zm10.6,5.4a7.3,7.3,0,0,0-1-3.94,3.08,3.08,0,0,0-2.78-1.52,3.61,3.61,0,0,0-2.28.67,4.25,4.25,0,0,0-1.32,1.76v6.09a3.83,3.83,0,0,0,1.38,1.64,3.94,3.94,0,0,0,2.24.6,3.14,3.14,0,0,0,2.77-1.38,6.42,6.42,0,0,0,.94-3.67Z" transform="translate(-1.18)"/><path class="cls-6" d="M605.25,303.87v-1.05h3.27v17.1l1.89.15v1h-5.16v-1l1.89-.15V304Z" transform="translate(-1.18)"/><path class="cls-6" d="M621.27,321.11a11.29,11.29,0,0,1-.2-1.12A7.46,7.46,0,0,1,621,319a5.51,5.51,0,0,1-1.85,1.66,5.32,5.32,0,0,1-2.61.65,4,4,0,0,1-2.86-1,3.43,3.43,0,0,1-1-2.6,3.22,3.22,0,0,1,1.49-2.79,7,7,0,0,1,4.06-1H621v-1.68a2.74,2.74,0,0,0-.86-2.13,3.48,3.48,0,0,0-2.42-.77,6.08,6.08,0,0,0-1.91.28,4.7,4.7,0,0,0-1.44.78l-.12,1.7h-1.15l0-2.44a7.2,7.2,0,0,1,2.08-1.1,7.84,7.84,0,0,1,2.58-.42,5,5,0,0,1,3.34,1.07,3.78,3.78,0,0,1,1.26,3.06v6.23c0,.26,0,.51,0,.75s0,.47.07.69l1.26.08v1Zm-4.57-1a5,5,0,0,0,2.65-.7,4.14,4.14,0,0,0,1.66-1.82v-2.54h-2.79a5.15,5.15,0,0,0-3,.79,2.36,2.36,0,0,0-1.14,2,2.09,2.09,0,0,0,.71,1.64A2.77,2.77,0,0,0,616.7,320.11Z" transform="translate(-1.18)"/><path class="cls-6" d="M625.45,320.07l1.89-.15v-10.3l-1.89-.15v-1h3.12l.13,2.21a4.55,4.55,0,0,1,1.63-1.81,4.45,4.45,0,0,1,2.43-.64,3.85,3.85,0,0,1,3.11,1.26,6,6,0,0,1,1.06,3.93v6.54l1.89.15v1h-5.17v-1l1.89-.15v-6.53a4.67,4.67,0,0,0-.8-3.08,2.92,2.92,0,0,0-2.29-.9,3.58,3.58,0,0,0-2.39.78,4.46,4.46,0,0,0-1.33,2.07v7.66l1.9.15v1h-5.18Z" transform="translate(-1.18)"/><path class="cls-6" d="M644.19,305.18v3.25H647v1.14h-2.76v8.27a2.72,2.72,0,0,0,.45,1.76,1.48,1.48,0,0,0,1.19.52c.22,0,.44,0,.65,0s.46,0,.74-.1l.21,1.05a3.83,3.83,0,0,1-.85.23,6.61,6.61,0,0,1-1,.08,2.58,2.58,0,0,1-2.06-.84,4,4,0,0,1-.74-2.67v-8.27h-2.16v-1.14h2.16v-3.25Z" transform="translate(-1.18)"/><path class="cls-6" d="M658.17,321.11c-.09-.43-.16-.81-.2-1.12a7.46,7.46,0,0,1-.06-.95,5.51,5.51,0,0,1-1.85,1.66,5.26,5.26,0,0,1-2.61.65,4,4,0,0,1-2.85-1,3.4,3.4,0,0,1-1-2.6,3.24,3.24,0,0,1,1.49-2.79,7,7,0,0,1,4.06-1h2.77v-1.68a2.71,2.71,0,0,0-.86-2.13,3.48,3.48,0,0,0-2.42-.77,6.12,6.12,0,0,0-1.91.28,4.7,4.7,0,0,0-1.44.78l-.12,1.7H650v-2.44a7.2,7.2,0,0,1,2.08-1.1,7.84,7.84,0,0,1,2.58-.42,5,5,0,0,1,3.34,1.07,3.78,3.78,0,0,1,1.26,3.06v6.23c0,.26,0,.51,0,.75a5.2,5.2,0,0,0,.08.69l1.25.08v1Zm-4.57-1a5,5,0,0,0,2.66-.7,4.17,4.17,0,0,0,1.65-1.82v-2.54h-2.79a5.15,5.15,0,0,0-3,.79,2.35,2.35,0,0,0-1.13,2,2.08,2.08,0,0,0,.7,1.64A2.79,2.79,0,0,0,653.6,320.11Z" transform="translate(-1.18)"/><path class="cls-6" d="M671.71,312.34h-1.13l-.16-1.79a3.48,3.48,0,0,0-1.32-.86,5.16,5.16,0,0,0-1.83-.3,3.41,3.41,0,0,0-2.28.66,2,2,0,0,0-.76,1.55,1.83,1.83,0,0,0,.66,1.45,6.28,6.28,0,0,0,2.61,1,8.64,8.64,0,0,1,3.36,1.38,2.85,2.85,0,0,1,1.11,2.37,3.06,3.06,0,0,1-1.27,2.56,5.33,5.33,0,0,1-3.36,1,7.76,7.76,0,0,1-2.53-.39,6,6,0,0,1-2-1.11V317.3H664l.19,1.8a3.19,3.19,0,0,0,1.41.82,6.54,6.54,0,0,0,1.78.25,3.78,3.78,0,0,0,2.38-.67,2,2,0,0,0,.87-1.62,2.06,2.06,0,0,0-.73-1.56,6,6,0,0,0-2.61-1.09,8.66,8.66,0,0,1-3.32-1.3,2.68,2.68,0,0,1-1.09-2.28,3.09,3.09,0,0,1,1.22-2.46,4.93,4.93,0,0,1,3.21-1,7.11,7.11,0,0,1,2.53.43,5.07,5.07,0,0,1,1.86,1.15Z" transform="translate(-1.18)"/><path class="cls-6" d="M676.52,320.54a5.39,5.39,0,0,1-.44,2.11,5.17,5.17,0,0,1-1.19,1.75l-.82-.61a6.14,6.14,0,0,0,.8-1.54,5,5,0,0,0,.27-1.68V318.9h1.38Z" transform="translate(-1.18)"/><path class="cls-6" d="M684.52,309.47v-1h3.12l.12,2.09a4.33,4.33,0,0,1,4-2.33,3.62,3.62,0,0,1,3.78,2.87,4.92,4.92,0,0,1,1.62-2.1,4.22,4.22,0,0,1,2.55-.77,3.76,3.76,0,0,1,3.1,1.35,6.5,6.5,0,0,1,1.1,4.17v6.2l1.89.16v1h-5.18v-1l1.89-.16v-6.22a5.14,5.14,0,0,0-.82-3.31,2.81,2.81,0,0,0-2.28-1,3.11,3.11,0,0,0-2.5,1,5.12,5.12,0,0,0-1.08,2.66v.18a1.22,1.22,0,0,1,0,.21v6.42l1.89.15v1h-5.17v-1l1.89-.15v-6.23a5.16,5.16,0,0,0-.83-3.29,2.81,2.81,0,0,0-2.28-1,3.42,3.42,0,0,0-2.35.76,4,4,0,0,0-1.21,2v7.72l1.89.15v1h-5.17v-1l1.89-.15v-10.3Z" transform="translate(-1.18)"/><path class="cls-6" d="M713,321.35A5,5,0,0,1,709,319.6a6.49,6.49,0,0,1-1.55-4.46v-.64A6.69,6.69,0,0,1,709,310a4.79,4.79,0,0,1,3.74-1.79,4.6,4.6,0,0,1,3.63,1.48,5.67,5.67,0,0,1,1.32,3.94v1.19h-8.86v.34a5.65,5.65,0,0,0,1.13,3.58,3.56,3.56,0,0,0,3,1.45,5.84,5.84,0,0,0,2.21-.37,4.32,4.32,0,0,0,1.56-1l.59,1a4.93,4.93,0,0,1-1.78,1.19A6.7,6.7,0,0,1,713,321.35Zm-.18-12a3.29,3.29,0,0,0-2.58,1.19,5.13,5.13,0,0,0-1.23,3l0,.06h7.35v-.35a4.08,4.08,0,0,0-1-2.77A3.27,3.27,0,0,0,712.77,309.39Z" transform="translate(-1.18)"/><path class="cls-6" d="M734.64,321.11c-.09-.43-.16-.81-.2-1.12a7.46,7.46,0,0,1-.05-.95,5.65,5.65,0,0,1-1.86,1.66,5.26,5.26,0,0,1-2.61.65,4,4,0,0,1-2.85-1,3.4,3.4,0,0,1-1-2.6,3.24,3.24,0,0,1,1.49-2.79,7,7,0,0,1,4.06-1h2.78v-1.68a2.72,2.72,0,0,0-.87-2.13,3.48,3.48,0,0,0-2.42-.77,6.12,6.12,0,0,0-1.91.28,4.7,4.7,0,0,0-1.44.78l-.11,1.7h-1.15v-2.44a7.2,7.2,0,0,1,2.08-1.1,7.84,7.84,0,0,1,2.58-.42,5,5,0,0,1,3.34,1.07,3.79,3.79,0,0,1,1.27,3.06v6.23c0,.26,0,.51,0,.75a5.2,5.2,0,0,0,.08.69l1.25.08v1Zm-4.57-1a5,5,0,0,0,2.66-.7,4.26,4.26,0,0,0,1.66-1.82v-2.54h-2.8a5.15,5.15,0,0,0-3,.79,2.35,2.35,0,0,0-1.13,2,2.08,2.08,0,0,0,.7,1.64A2.79,2.79,0,0,0,730.07,320.11Z" transform="translate(-1.18)"/><path class="cls-6" d="M742.62,322.15a4.45,4.45,0,0,1-.93,3,3.27,3.27,0,0,1-2.58,1.06,3.48,3.48,0,0,1-.67-.06,4.91,4.91,0,0,1-.63-.17l.15-1.18a3.5,3.5,0,0,0,.49.12,3.07,3.07,0,0,0,.57.06,2,2,0,0,0,1.63-.72,3.38,3.38,0,0,0,.58-2.13V309.62l-1.89-.15v-1h3.28Zm-.07-17.4h-1.39v-1.93h1.39Z" transform="translate(-1.18)"/><path class="cls-6" d="M754.82,319a4.21,4.21,0,0,1-1.62,1.72,4.6,4.6,0,0,1-2.42.61,3.79,3.79,0,0,1-3.1-1.36,6.59,6.59,0,0,1-1.12-4.22v-6.15l-1.55-.15v-1h2.93v7.37a5.47,5.47,0,0,0,.79,3.33,2.64,2.64,0,0,0,2.22,1,4.08,4.08,0,0,0,2.51-.7,3.71,3.71,0,0,0,1.31-1.95v-7.86l-1.78-.15v-1h3.17v11.49l1.69.15v1H755Z" transform="translate(-1.18)"/><path class="cls-6" d="M768.61,319.28a4.44,4.44,0,0,1-1.61,1.53,4.76,4.76,0,0,1-2.32.54,4.12,4.12,0,0,1-3.52-1.7,7.36,7.36,0,0,1-1.27-4.53v-.25a8.35,8.35,0,0,1,1.27-4.86,4.07,4.07,0,0,1,3.54-1.82,4.3,4.3,0,0,1,3.87,2.15V304l-1.89-.15v-1.05H770v17.1l1.88.15v1h-3.13Zm-7.32-4.16a6.43,6.43,0,0,0,.91,3.65,3.07,3.07,0,0,0,2.74,1.36,3.89,3.89,0,0,0,2.24-.61,4,4,0,0,0,1.39-1.67v-6a4.29,4.29,0,0,0-1.34-1.76,3.6,3.6,0,0,0-2.26-.68,3,3,0,0,0-2.76,1.52,7.53,7.53,0,0,0-.92,3.94Z" transform="translate(-1.18)"/><path class="cls-6" d="M779.52,321.35a5,5,0,0,1-3.92-1.75,6.49,6.49,0,0,1-1.55-4.46v-.64A6.64,6.64,0,0,1,775.6,310a4.79,4.79,0,0,1,3.74-1.79,4.6,4.6,0,0,1,3.63,1.48,5.67,5.67,0,0,1,1.32,3.94v1.19h-8.86v.34a5.65,5.65,0,0,0,1.13,3.58,3.56,3.56,0,0,0,3,1.45,5.88,5.88,0,0,0,2.21-.37,4.32,4.32,0,0,0,1.56-1l.59,1a4.93,4.93,0,0,1-1.78,1.19A6.7,6.7,0,0,1,779.52,321.35Zm-.18-12a3.29,3.29,0,0,0-2.58,1.19,5.13,5.13,0,0,0-1.23,3l0,.06h7.35v-.35a4.08,4.08,0,0,0-1-2.77A3.29,3.29,0,0,0,779.34,309.39Z" transform="translate(-1.18)"/><path class="cls-6" d="M789,321.11H787.3v-2H789Zm-.14-5.61h-1.38V304h1.38Z" transform="translate(-1.18)"/><g class="cls-7"><polyline class="cls-8" points="138.13 372.76 129.79 358.66 147.05 361 143.37 372.76"/><path class="cls-9" d="M220.55,683.61a11.3,11.3,0,0,0-.19,7.65c1.46,3.8,19.19,17.42,32,18.26,13.51.89,21-6.92,21.5-8.77s-8.71-7.86-8.71-7.86Z" transform="translate(-1.18)"/><path class="cls-9" d="M88.64,690.26S79,716.07,82.38,719.47,107.19,727,122,720.75s-16.17-38.54-16.17-38.54Z" transform="translate(-1.18)"/><path class="cls-10" d="M152.71,259.35l6.37,24.46s1,6-1.18,8.21-12.4,13.74-12.4,13.74L139.81,317l33,18.77,39.37-10.56L211,297.55s-20.16-1.28-31.92-10.11c-2.31-1.73-4.27-21.89-4.27-21.89Z" transform="translate(-1.18)"/><path class="cls-8" d="M175.91,274.44c-.62-4.51-1.12-9.05-1.12-9.05l-22.12-6.2,1.77,6.81s6.92,4.51,9.08,5.46A42.12,42.12,0,0,0,175.91,274.44Z" transform="translate(-1.18)"/><path class="cls-10" d="M139.7,249.19s12.79,22.77,51,22.78c15.8,0,21.67-3.69,22.56-8.82,5.6-32.24-6.31-73-22.84-85.46-14.49-10.91-65.91,30.39-65.91,30.39l10.95,24.57s-11.17-12.06-15.64-5.36,9.72,20.89,9.72,20.89S135.9,253,139.7,249.19Z" transform="translate(-1.18)"/><path class="cls-10" d="M216,300.85c3.79-2,7.2,2.73,7.2,2.73l38.55,67.48-33.27,59.69s11.17,18.77,5.58,27.26l7.71,7.7s1.23,4.14-4.36,4.14S218.69,460,218.69,460l1.53-42.08,24.84-44.8-22.81-33.92-7.14-6.32S209,304.6,216,300.85Z" transform="translate(-1.18)"/><path class="cls-10" d="M176,489.72l-32.28,80.95S139.56,586,134.61,591a218,218,0,0,1-12.23,35.35c-8.38,18.77-12.06,44.57-12.06,44.57s7.62,19.35,6.7,28.07c0,0,7.29,10,4.36,15.83S107,717.12,107,717.12s-19.19,2.51-22-2.27,3.6-17.59,3.6-17.59S87.61,687,91,684.69s7.38-8,7.38-8-1.26-3.35,2.26-7.87,8.71-33.54,8.71-37.34-4.69-32.17,11-43.34c0,0,3.8-77.08,14.52-87.8S176,483.21,176,483.21Z" transform="translate(-1.18)"/><path class="cls-11" d="M176,489.72,165.68,515.6s-14.28,6.37-17.9,7.26c-2.68.66-21.79,6.57-21.15,2.72,2-12.05,4.78-21.92,8.15-25.28C145.5,489.57,176,483.21,176,483.21Z" transform="translate(-1.18)"/><path class="cls-10" d="M187.51,477.73s27,102.1,29,106.79S208,598.32,226.43,663c0,0-1.17,8.54-2.84,11.56s-5.53,10.72-.67,13.4,20.6,16.09,27.31,17.26,19.27-4.69,19.27-4.69,6.7-2.51,4.6-4.61c0,0-6.11-.25-8.12-2.26s-24.8-19.94-24.8-19.94-7-9.05-7-9.66-5-80.15-5-80.15,1.84-5,0-15.25-1-74.62-1-74.62Z" transform="translate(-1.18)"/><path class="cls-11" d="M187.51,477.73l8.24,31c.73,2.71,32.25,4.9,32.25,4.9l.17-19.61Z" transform="translate(-1.18)"/><path class="cls-12" d="M187.5,498c5.23,10.37,42,12.56,45,13.52,0,0,1-41.62-4.91-65S187.5,498,187.5,498Z" transform="translate(-1.18)"/><path class="cls-13" d="M142.82,240c6.48,2.68.9-8.94.9-8.94s-.62-11.65-3.91-13.63a47.23,47.23,0,0,1-7.2-5.88l61.82-42.38s6.26-8.71-8-14.07A17,17,0,0,0,169.07,150s-6.25-7.48-15.3-.61c0,0-18.21-1.06-22.34,7.87a6.79,6.79,0,0,0-6.7,3.8s-3.8,1.45-4.53,4.52c0,0-9.21,3.63-9.77,9.78,0,0-5,7-1,12.73,0,0-2.65,5,.79,8.44,0,0-7.71,8.43,0,13.68,0,0-1.9,5.47,9.38,7.71l3.35,6.92s3.23-1.46,12.51,7.82S142.82,240,142.82,240Z" transform="translate(-1.18)"/><path class="cls-8" d="M187.84,240a1.5,1.5,0,0,1,0-3c2.79,0,10.44-2.45,14.27-3.77-1.26-12-8.89-20.94-13.42-25.27a1.5,1.5,0,1,1,2.07-2.17c5,4.77,13.49,14.79,14.44,28.36l.08,1.14-1.07.38C203,236.07,192,240,187.84,240Z" transform="translate(-1.18)"/><ellipse class="cls-14" cx="166.38" cy="213" rx="3.01" ry="4.11" transform="translate(-48.07 46.96) rotate(-14.1)"/><path class="cls-14" d="M163.3,214.5h-.07a1.5,1.5,0,0,1-1.43-1.56c0-.22.27-5.41,3.8-7.31,2.23-1.21,5.08-.8,8.46,1.22a1.5,1.5,0,0,1-1.53,2.58c-1.66-1-4-2-5.5-1.17-1.69.91-2.18,3.78-2.23,4.81A1.51,1.51,0,0,1,163.3,214.5Z" transform="translate(-1.18)"/><ellipse class="cls-14" cx="193.46" cy="205.68" rx="3.01" ry="4.11" transform="translate(-45.47 53.34) rotate(-14.1)"/><path class="cls-14" d="M190.38,205.55a1.37,1.37,0,0,1-.4-.05,1.51,1.51,0,0,1-1-1.85c.06-.21,1.47-5.2,5.34-6.27,2.44-.68,5.13.36,8,3.09a1.5,1.5,0,0,1-2.08,2.17c-1.4-1.34-3.42-2.84-5.11-2.37-1.85.51-3,3.26-3.24,4.18A1.48,1.48,0,0,1,190.38,205.55Z" transform="translate(-1.18)"/><path class="cls-8" d="M135,246.62s-.34-14.66-11.65-18.18" transform="translate(-1.18)"/><path class="cls-15" d="M145.5,305.76s-10.73,4-15.72,8.95c0,0,30.08,43.63,9.53,58.05,0,0,18.93,36.16,16.92,43.54s-35.65,101.26-35.65,101.26,103.88-1.85,107.59-69.76l-4.92-39.1a328,328,0,0,0,2.9-39.65c.22-19.08-1.87-41-3.4-56a24.15,24.15,0,0,0-7.05-15.18l-9.78-.91s7.72,25.87-10.15,28.32C186.14,326.63,162.93,329.74,145.5,305.76Z" transform="translate(-1.18)"/><g class="cls-16"><path class="cls-17" d="M124.45,520.1S228.33,518.25,232,450.34Z" transform="translate(-1.18)"/></g><path class="cls-15" d="M145.5,305.76s-10.73,4-15.72,8.95c0,0,30.08,43.63,9.53,58.05,0,0,18.93,36.16,16.92,43.54s-35.65,101.26-35.65,101.26,103.88-1.85,107.59-69.76l-4.92-39.1a328,328,0,0,0,2.9-39.65c.22-19.08-1.87-41-3.4-56a24.15,24.15,0,0,0-7.05-15.18l-9.78-.91s7.72,25.87-10.15,28.32C186.14,326.63,162.93,329.74,145.5,305.76Z" transform="translate(-1.18)"/><path class="cls-9" d="M153.92,423.89s54.77,7.29,70-10.13c0,0,1.65-3.44-.64-5.06.33,3.22-25.73,17.25-67,8.38C156.23,417.08,151.24,418.87,153.92,423.89Z" transform="translate(-1.18)"/><circle class="cls-18" cx="198.24" cy="421.25" r="12.78"/><g class="cls-19"><path class="cls-20" d="M138.76,174.12s-5.49,6.65,1.47,11.09c2.43,1.55-7.21,9-7.21,9l-3.89,21.87s5-2,8.38-2l17.63,20.2-11.31,7.07-36.08-24.32-24-46.39,30.94-28.1,33.85-7.87-6,11.79s-14.37,8.78-8.88,15.1C130.26,164,129.59,173.48,138.76,174.12Z" transform="translate(-1.18)"/></g><path class="cls-6" d="M123.11,224.83s-6.48-2.9-6.48-8.26,25.24-56.08,78-47.37c0,0,8.15,5.7,5.36,8.49,0,0,5,6.25,1,9.6S177.4,185.73,123.11,224.83Z" transform="translate(-1.18)"/><path class="cls-21" d="M126,213s33.73-41.11,69.81-35.75C195.77,177.25,162.15,179.05,126,213Z" transform="translate(-1.18)"/><path class="cls-9" d="M83.64,709.94S102.82,701.73,122,708a8.34,8.34,0,0,0-1.43-4.69C119,700.81,95,697,84.73,705.38,84.73,705.38,82.55,708.52,83.64,709.94Z" transform="translate(-1.18)"/><path class="cls-9" d="M245.89,703.55s.74-16.9,19.24-10.66l.49.42a6,6,0,0,0-1.83-3.9c-1.7-1.42-6.06-2.56-6.06-2.56s-16.94-4.17-16.7,13.83C241,700.68,243.68,704.4,245.89,703.55Z" transform="translate(-1.18)"/><path class="cls-22" d="M200.8,431.24c-1.9,0-6-.38-8.6-3.33-2.29-2.55-2.92-6.31-1.87-11.17a1.51,1.51,0,0,1,1.78-1.15,1.49,1.49,0,0,1,1.15,1.78c-.83,3.86-.44,6.73,1.17,8.53,2.44,2.73,7,2.31,7.1,2.31a1.5,1.5,0,0,1,.31,3A8.73,8.73,0,0,1,200.8,431.24Z" transform="translate(-1.18)"/><path class="cls-23" d="M207.14,426.91a1.86,1.86,0,0,1-.33,0,1.5,1.5,0,0,1-1.14-1.79c.86-3.86.48-6.74-1.13-8.55-2.4-2.71-7-2.34-7.07-2.34a1.5,1.5,0,1,1-.3-3c.26,0,6.17-.56,9.62,3.33,2.27,2.57,2.88,6.33,1.81,11.19A1.51,1.51,0,0,1,207.14,426.91Z" transform="translate(-1.18)"/><path class="cls-8" d="M189.25,251.24l8.26-4,3.82-1.84,1.91-.92a3.56,3.56,0,0,0,2.55-2.54c-1.41,1.33.72,3.44,2.12,2.12,2.33-2.2-.51-4.31-2.85-3.72-2.65.67-5.34,2.51-7.79,3.7l-9.54,4.6c-1.73.84-.22,3.43,1.52,2.6Z" transform="translate(-1.18)"/><path class="cls-10" d="M134.36,312.1s-15.78,8.91-17.23,10.36S114.27,343,114.27,343l7.82,18.32,61.33,14.43,19.5,2.68,7.12-74-15.9-4.07-4.35,56.3-34-8.94-11-24.35-6-13.18Z" transform="translate(-1.18)"/><path class="cls-10" d="M209.44,305.25c1.57-2.26,5.71-8.69,7.94-10.16,3.84-2.52.88-7.15,1.22-7.75a6,6,0,0,0,1-4.64c-.68-2.86-2-.83-1.55-3.72a6.07,6.07,0,0,0,0-2.59c-1.13-2.12-2.59-.55-2.56-3,0-1.41,1.74-5.52,2.78-8.24a7.4,7.4,0,0,0-.88-5.84,2.2,2.2,0,0,0-2.79-.81c-1.56,1-2,3.88-3.06,5.4-2.44,3.41-2.73,3.16-5.76,6-1.17,1.08-6.46,8.12-8.19,7.88-1.52-.21-3.53-5.84-6.2-5.84-4.49,0-8-.53-8-.29,0,2.2,2.76,10.3,3.59,11.13,1.09,1.09,5.41,6.77,5.88,10.67s1.78,6.63,1.13,10.48Z" transform="translate(-1.18)"/><path class="cls-8" d="M191.14,358.55l-35.83-9.43c-.52-.2-12.75-4.81-15.53-12.87a1.5,1.5,0,0,1,2.84-1c2.23,6.47,12.75,10.66,13.67,11l32.14,8.46c.7-9.07,3.75-48.3,4.11-51,.29-2.22-.71-8-1.12-10l0-.3c0-2.66-4.28-8.45-5.44-9.61-.85-.85-2.19-4.83-4-11.82a1.5,1.5,0,0,1,2.91-.74c1.12,4.39,2.67,9.62,3.24,10.49.84.89,6.12,7.37,6.26,11.51.25,1.26,1.52,7.86,1.13,10.84s-4.19,52.11-4.23,52.61Zm-3.07-76.8,0,0Z" transform="translate(-1.18)"/><path class="cls-8" d="M197.58,279.31a1.5,1.5,0,0,1-.93-2.68c.12-.09,12-9.46,15.85-18a3.3,3.3,0,0,1,1.81-1.95,3.16,3.16,0,0,1,2.77.32,1.51,1.51,0,0,1,.55,2.05,1.49,1.49,0,0,1-2,.56l-.2-.1-.08.16-.05.13C211.11,269,199,278.59,198.5,279A1.45,1.45,0,0,1,197.58,279.31Z" transform="translate(-1.18)"/><path class="cls-8" d="M203.14,262.52a1,1,0,0,1-.4-.08,1,1,0,0,1-.51-1.32c.16-.38,4.11-9.33,9.47-7.38a1,1,0,0,1-.69,1.88c-3.52-1.29-6.92,6.22-6.95,6.3A1,1,0,0,1,203.14,262.52Z" transform="translate(-1.18)"/><path class="cls-15" d="M129.78,314.71s17,9.09,21.51,21.05S142.52,307,142.52,307,134.13,310.36,129.78,314.71Z" transform="translate(-1.18)"/><path class="cls-2" d="M161.37,146.48a10.8,10.8,0,0,1,7.7,3.51,18.68,18.68,0,0,1,4.67-.61,17,17,0,0,1,12.65,5.75c13.89,5.21,8.38,13.59,8.06,14.05l.15,0s8.15,5.7,5.36,8.49c0,0,5,6.25,1,9.6a4.32,4.32,0,0,1-1.46.73c10.86,16.92,17.55,46.13,14.33,71.23a2.8,2.8,0,0,1,.75-.71,1.66,1.66,0,0,1,.86-.23,2.45,2.45,0,0,1,1.93,1,7.4,7.4,0,0,1,.88,5.84c-1,2.72-2.77,6.83-2.78,8.24,0,2.41,1.43.84,2.56,3a6.07,6.07,0,0,1,0,2.59c-.45,2.89.87.86,1.55,3.72a6,6,0,0,1-1,4.64c-.34.6,2.62,5.23-1.22,7.75a13.94,13.94,0,0,0-2.64,2.71l1,.09a25.12,25.12,0,0,1,2.17,2.47H218c2.94,0,5.26,3.22,5.26,3.22l38.55,67.48-33.27,59.69s11.17,18.77,5.58,27.26l7.71,7.7s1.23,4.14-4.36,4.14c-1.66,0-4-.88-6.47-2.11a422,422,0,0,1,1.54,43.73,42.4,42.4,0,0,0-4.5-.68l0,2.86h0c-.11,19.83-.05,48.48,1.13,55,1.84,10.22,0,15.25,0,15.25s5,79.53,5,80.15,7,9.66,7,9.66,9.31,7.32,16.55,13.13h0s4.36,1.14,6.06,2.56a6,6,0,0,1,1.83,3.81c.48.33,1.28.87,2.19,1.53a23.7,23.7,0,0,0,6.29,1.17c1,1,0,2.08-1.29,3,.72.77,1.15,1.44,1,1.88-.47,1.75-7.21,8.84-19.39,8.84-.69,0-1.39,0-2.11-.07-12.79-.84-30.52-14.46-32-18.26a11.3,11.3,0,0,1,.19-7.65c0-3.24,2-7.11,3-9.05,1.67-3,2.84-11.56,2.84-11.56-18.43-64.68-7.87-73.79-9.88-78.48-1.28-3-12.67-45.32-20.8-75.77h0a.36.36,0,0,0,0-.1q-.72-2.67-1.39-5.2a21.86,21.86,0,0,1-4.2-2.48A132.46,132.46,0,0,1,168,509.73l-24.3,60.94S139.56,586,134.61,591a218,218,0,0,1-12.23,35.35c-8.38,18.77-12.06,44.57-12.06,44.57s6,15.24,6.7,24.76c7.06,9.67,13.4,21.6,5,25.12A48.32,48.32,0,0,1,103.72,724c-10.13,0-19.22-2.38-21.34-4.5-3.4-3.4,6.27-29.21,6.27-29.21.29-2.35.95-4.61,2.31-5.57,3.36-2.34,7.38-8,7.38-8s-1.26-3.35,2.26-7.87,8.71-33.54,8.71-37.34-4.69-32.17,11-43.34c0,0,1.79-36.28,6.37-62.52h0c.5-3,1-5.82,1.63-8.47-4.8.4-7.68.45-7.68.45s25.1-70.07,33.23-93.89c-2.07-4.16,1.18-6,2.15-6.48.12-.37.21-.67.27-.89,2-7.38-16.92-43.54-16.92-43.54l-5.06-8.56-12.16-2.86L114.27,343s1.41-19.1,2.86-20.56c.94-.94,7.87-5,12.65-7.74h0c5-5,15.72-8.95,15.72-8.95S155.73,294.2,157.9,292s1.18-8.21,1.18-8.21l-5.6-21.49c-9.88-6.22-13.78-13.13-13.78-13.13a5,5,0,0,1-3.65,1.46c-3.25,0-6.52-2.47-6.52-2.47s-14.19-14.19-9.72-20.89a4.21,4.21,0,0,1,3.68-2c2.92,0,6.41,2.41,8.86,4.48-5-4.39-7.72-5-8.82-5l-.34,0-.08.06-.07,0-.1,0,0-.11c-1.06-.52-5.8-3.13-6.22-7.54-8-2.51-6.46-7-6.46-7-7.71-5.25,0-13.68,0-13.68-3.44-3.44-.79-8.44-.79-8.44-4-5.69,1-12.73,1-12.73.56-6.15,9.77-9.78,9.77-9.78.73-3.07,4.53-4.52,4.53-4.52a6.7,6.7,0,0,1,6.19-3.82c.32,0,.51,0,.51,0,3.34-7.22,15.87-7.91,20.56-7.91,1.11,0,1.78,0,1.78,0a12.54,12.54,0,0,1,7.6-2.9m36.3,131.34c1.68,0,6.19-5.83,7.77-7.55-3.42,1.06-8.12,1.67-14.41,1.69h.35c2.67,0,4.68,5.63,6.2,5.84h.09m-21.76-3.38h0c.8,5.65,2,12.06,3.21,13A46,46,0,0,0,193,294.1c0-.2-.06-.41-.08-.62-.47-3.9-4.79-9.58-5.88-10.67-.83-.83-3.57-8.93-3.59-11.13h0a78,78,0,0,1-8-1.06c.15,1.21.32,2.52.5,3.83m48.47,136,20.68-37.3L225.4,343.91c.52,8.39.85,17,.75,25.14a328,328,0,0,1-2.9,39.65,2.78,2.78,0,0,1,1.13,1.74m40.75,282.45h0M161.37,140.48h0a17.6,17.6,0,0,0-9.4,2.86c-6.83,0-18.24,1.15-24,8.21a12.39,12.39,0,0,0-7.47,4.91,13.77,13.77,0,0,0-4.88,4.63c-3.46,1.8-9.47,5.75-10.91,12-2.16,3.64-4.12,9.67-1.83,15.41a13.7,13.7,0,0,0,.2,7.67,16,16,0,0,0-2.22,9.59,12.36,12.36,0,0,0,3.39,7.18,10.57,10.57,0,0,0,.94,2.71,13.41,13.41,0,0,0,6.51,6,14.4,14.4,0,0,0,2.33,3.66c-2.34,4.83-1,11,4,18.3a68.71,68.71,0,0,0,7.25,8.79l.29.3.34.25c.81.61,5.13,3.68,10.13,3.68a11.9,11.9,0,0,0,1.59-.11,52.71,52.71,0,0,0,10.62,9.52l4.93,19a12.46,12.46,0,0,1,0,3.22c-2.39,2.49-8.72,9.61-11.24,12.46-3.29,1.32-11,4.72-15.83,9.18-11.63,6.71-12.57,7.65-13.26,8.34-1.49,1.49-3,3-4.6,24.36l-.11,1.45.57,1.34,7.82,18.32,1.2,2.79,3,.7,9.66,2.27,3.68,6.22c.58,1.11,4.63,9,8.57,17.62,5.87,12.93,7.31,18.47,7.65,20.61a9.92,9.92,0,0,0-2.82,9.8c-8.66,25.2-32.28,91.15-32.53,91.84L112,523.72l8.69-.16h.2c0,.19-.07.38-.1.57l-.29.87.06.46c-3.81,22.34-5.65,50.81-6.15,59.66-13.93,12.48-11.92,36.31-11.24,44.42.06.74.14,1.66.14,1.92-.1,4.22-5.09,29.8-7.5,33.71a16.1,16.1,0,0,0-3.7,9.79,28.11,28.11,0,0,1-4.59,4.83c-2.51,1.76-4.06,4.71-4.73,9-.66,1.82-2.62,7.29-4.32,13.13-3.66,12.67-3.75,18.37-.33,21.79C82.43,728,94.41,730,103.72,730a54.13,54.13,0,0,0,20.61-3.69,11.91,11.91,0,0,0,7.21-7.92c1.72-6.18-1-14.12-8.71-24.92-1-8.38-4.85-19.22-6.34-23.22.92-5.67,4.56-26.23,11.37-41.47a227.76,227.76,0,0,0,12.23-35c4.93-6.18,8.43-18,9.32-21.22l23.12-58A139.59,139.59,0,0,0,189.35,508l.58,2.16,0,.05c17,63.84,20.05,73.83,20.85,76-.05.47-.19,1.29-.3,2-1.27,7.62-4.24,25.37,9.81,75.12a40.1,40.1,0,0,1-2,8.25c-2.29,4.12-3.52,7.68-3.75,10.84a17.1,17.1,0,0,0,.17,10.92c1.93,5,11.28,11.34,14.1,13.15,4.83,3.1,14.25,8.38,23.09,9,.83,0,1.67.08,2.5.08,14.36,0,23.88-8.5,25.18-13.26a6.58,6.58,0,0,0,.2-2.49,7.08,7.08,0,0,0,.64-2.35,7.18,7.18,0,0,0-2.12-5.81L276.69,690l-2.33-.1a19.8,19.8,0,0,1-3.51-.51,11,11,0,0,0-3.21-4.61,21.92,21.92,0,0,0-7.11-3.4c-6-4.78-13-10.34-15.06-11.95-2.06-2.66-4.35-5.69-5.43-7.23-.27-4.49-1.25-20.36-4.87-77.68.62-2.55,1.44-8.15-.15-16.95-.37-2.08-1.2-11-1.05-49.38l4.37,1.38.18-8c0-.81.38-17.49-.86-35.76,4.72-.06,7.24-2.11,8.52-3.83a9.23,9.23,0,0,0,1.38-8l-.43-1.45-1.08-1.08-4.92-4.92c2.11-8.88-2.77-20.09-5.75-25.79L267,374l1.65-3L267,368.08,228.45,300.6l-.16-.27-.18-.26a16,16,0,0,0-3.91-3.74,11.64,11.64,0,0,0,.73-8.21,11.27,11.27,0,0,0,.52-6.81,9.8,9.8,0,0,0-1.28-3.09,8.13,8.13,0,0,0-.84-4.67,9,9,0,0,0-1.19-1.73c.36-1,.79-2.09,1.08-2.85.23-.57.45-1.13.64-1.64,1.47-3.84.34-8.62-1.53-11.36a8.51,8.51,0,0,0-2-2c1.5-22.09-3.63-47.24-13.22-64.78,2.26-3.79,1.53-8.47-.63-12.4a7.9,7.9,0,0,0,0-1.19c-.29-3.27-2.56-6.21-4.93-8.44a13,13,0,0,0-.39-6.32c-1.44-4.59-5.25-8.2-11.32-10.76a22.85,22.85,0,0,0-16.13-6.68,24.42,24.42,0,0,0-2.94.18,16.26,16.26,0,0,0-9.43-3.08Zm70.2,244.61c.3-4.9.52-10.31.58-16,0-1.43,0-2.89,0-4.4l5.87,8.72-6.46,11.65Z" transform="translate(-1.18)"/><path class="cls-8" d="M195,275.12a1.56,1.56,0,0,1-.87-.27,52.79,52.79,0,0,0-6-3.5,4.05,4.05,0,0,0-2.13-.3,1.53,1.53,0,0,0-1.11,1,1.49,1.49,0,0,1-1.83,1.05,1.47,1.47,0,0,1-1.07-1.78,4.45,4.45,0,0,1,3.37-3.21,6.87,6.87,0,0,1,3.81.42,50.64,50.64,0,0,1,6.69,3.86,1.5,1.5,0,0,1-.86,2.72Z" transform="translate(-1.18)"/></g></g></g></svg>