<svg xmlns="http://www.w3.org/2000/svg" viewBox="0 0 191.17 37"><defs><style>.cls-1{fill:#ffd478;}.cls-2{fill:#eaa000;}.cls-3{fill:#027e8f;}</style></defs><title>3-botãoOutrosExemplos</title><g id="Camada_2" data-name="Camada 2"><g id="Camada_1-2" data-name="Camada 1"><rect class="cls-1" x="0.5" y="0.5" width="190.17" height="36" rx="12.5" ry="12.5"/><path class="cls-2" d="M178.17,1a12,12,0,0,1,12,12V24a12,12,0,0,1-12,12H13A12,12,0,0,1,1,24V13A12,12,0,0,1,13,1H178.17m0-1H13A13,13,0,0,0,0,13V24A13,13,0,0,0,13,37H178.17a13,13,0,0,0,13-13V13a13,13,0,0,0-13-13Z"/><path class="cls-3" d="M28.67,19.82a7.41,7.41,0,0,1-.6,3.09,4.55,4.55,0,0,1-1.69,2,4.74,4.74,0,0,1-2.56.69,4.58,4.58,0,0,1-2.53-.7,4.63,4.63,0,0,1-1.72-2,7.25,7.25,0,0,1-.62-3v-.87a7.46,7.46,0,0,1,.6-3.08,4.63,4.63,0,0,1,1.72-2,4.53,4.53,0,0,1,2.53-.71,4.66,4.66,0,0,1,2.56.7,4.47,4.47,0,0,1,1.71,2,7.49,7.49,0,0,1,.6,3.1ZM27.08,19a5.42,5.42,0,0,0-.86-3.29,3.06,3.06,0,0,0-4.8,0,5.37,5.37,0,0,0-.89,3.19v.89a5.38,5.38,0,0,0,.88,3.27,3.07,3.07,0,0,0,4.8.07,5.47,5.47,0,0,0,.87-3.23Z"/><path class="cls-3" d="M39.57,13.38V21.6a3.9,3.9,0,0,1-1.08,2.8,4.35,4.35,0,0,1-2.89,1.22h-.43A4.5,4.5,0,0,1,32,24.56a3.82,3.82,0,0,1-1.19-2.94V13.38h1.57v8.19a2.53,2.53,0,0,0,2.78,2.76,2.81,2.81,0,0,0,2.08-.72,2.8,2.8,0,0,0,.71-2V13.38Z"/><path class="cls-3" d="M50.43,14.68H46.55V25.47H45V14.68H41.08v-1.3h9.35Z"/><path class="cls-3" d="M56.66,20.58H53.82v4.89h-1.6V13.38h4a4.73,4.73,0,0,1,3.14.93A3.36,3.36,0,0,1,60.46,17a3.25,3.25,0,0,1-.61,2,3.72,3.72,0,0,1-1.7,1.25L61,25.37v.1H59.28Zm-2.84-1.3h2.45a2.78,2.78,0,0,0,1.89-.62,2.11,2.11,0,0,0,.7-1.65,2.21,2.21,0,0,0-.67-1.72,2.86,2.86,0,0,0-1.93-.61H53.82Z"/><path class="cls-3" d="M72,19.82a7.41,7.41,0,0,1-.6,3.09,4.55,4.55,0,0,1-1.69,2,4.69,4.69,0,0,1-2.56.69,4.61,4.61,0,0,1-2.53-.7,4.55,4.55,0,0,1-1.71-2,7.09,7.09,0,0,1-.63-3v-.87A7.3,7.3,0,0,1,62.88,16a4.48,4.48,0,0,1,4.25-2.75,4.68,4.68,0,0,1,2.56.7,4.51,4.51,0,0,1,1.7,2,7.49,7.49,0,0,1,.6,3.1ZM70.4,19a5.35,5.35,0,0,0-.86-3.29,2.84,2.84,0,0,0-2.41-1.16,2.81,2.81,0,0,0-2.38,1.16,5.3,5.3,0,0,0-.9,3.19v.89a5.45,5.45,0,0,0,.88,3.27,2.84,2.84,0,0,0,2.41,1.19,2.81,2.81,0,0,0,2.39-1.12,5.33,5.33,0,0,0,.87-3.23Z"/><path class="cls-3" d="M77.94,20.08a7.43,7.43,0,0,1-3-1.45A2.74,2.74,0,0,1,74,16.51a2.92,2.92,0,0,1,1.14-2.36,4.57,4.57,0,0,1,3-.93,5,5,0,0,1,2.22.48A3.57,3.57,0,0,1,81.86,15a3.36,3.36,0,0,1,.54,1.85H80.8a2.22,2.22,0,0,0-.7-1.73,2.84,2.84,0,0,0-2-.63,2.9,2.9,0,0,0-1.84.52,1.74,1.74,0,0,0-.66,1.44,1.56,1.56,0,0,0,.63,1.25,6.14,6.14,0,0,0,2.13.94,9.79,9.79,0,0,1,2.36.93A3.54,3.54,0,0,1,82,20.79a3,3,0,0,1,.41,1.61,2.82,2.82,0,0,1-1.14,2.35,4.9,4.9,0,0,1-3.06.88,5.84,5.84,0,0,1-2.33-.47,3.94,3.94,0,0,1-1.66-1.31A3.19,3.19,0,0,1,73.64,22h1.6a2.09,2.09,0,0,0,.81,1.74,3.44,3.44,0,0,0,2.17.63,3.15,3.15,0,0,0,1.93-.51,1.69,1.69,0,0,0,.67-1.41A1.64,1.64,0,0,0,80.2,21,7.45,7.45,0,0,0,77.94,20.08Z"/><path class="cls-3" d="M95.5,19.88H90.27v4.28h6.08v1.31H88.67V13.38h7.6v1.3h-6v3.9H95.5Z"/><path class="cls-3" d="M102.28,18l2.89-4.63h1.88l-3.82,6,3.91,6.1h-1.89l-3-4.72-3,4.72H97.4l3.92-6.1-3.82-6h1.86Z"/><path class="cls-3" d="M115.82,19.88h-5.23v4.28h6.08v1.31H109V13.38h7.6v1.3h-6v3.9h5.23Z"/><path class="cls-3" d="M120.71,13.38l4,9.86,4-9.86h2.06V25.47h-1.59V20.76l.15-5.08-4,9.79h-1.22l-4-9.76.16,5.05v4.71h-1.6V13.38Z"/><path class="cls-3" d="M135.09,20.74v4.73H133.5V13.38H138a4.49,4.49,0,0,1,3.11,1,3.44,3.44,0,0,1,1.13,2.68,3.42,3.42,0,0,1-1.1,2.72,4.7,4.7,0,0,1-3.15.95Zm0-1.31H138a2.86,2.86,0,0,0,2-.6,2.18,2.18,0,0,0,.68-1.74,2.25,2.25,0,0,0-.68-1.73,2.69,2.69,0,0,0-1.86-.68h-3Z"/><path class="cls-3" d="M145.82,24.16h5.73v1.31h-7.33V13.38h1.6Z"/><path class="cls-3" d="M162.13,19.82a7.41,7.41,0,0,1-.6,3.09,4.55,4.55,0,0,1-1.69,2,4.74,4.74,0,0,1-2.56.69,4.58,4.58,0,0,1-2.53-.7,4.63,4.63,0,0,1-1.72-2,7.25,7.25,0,0,1-.62-3v-.87A7.46,7.46,0,0,1,153,16a4.63,4.63,0,0,1,1.72-2,4.53,4.53,0,0,1,2.53-.71,4.66,4.66,0,0,1,2.56.7,4.47,4.47,0,0,1,1.71,2,7.49,7.49,0,0,1,.6,3.1ZM160.54,19a5.42,5.42,0,0,0-.86-3.29,3.06,3.06,0,0,0-4.8,0,5.37,5.37,0,0,0-.89,3.19v.89a5.38,5.38,0,0,0,.88,3.27,3.07,3.07,0,0,0,4.8.07,5.47,5.47,0,0,0,.87-3.23Z"/><path class="cls-3" d="M168.08,20.08a7.55,7.55,0,0,1-3-1.45,2.77,2.77,0,0,1-.93-2.12,2.92,2.92,0,0,1,1.14-2.36,4.55,4.55,0,0,1,3-.93,5,5,0,0,1,2.22.48A3.63,3.63,0,0,1,172,15a3.36,3.36,0,0,1,.54,1.85h-1.61a2.22,2.22,0,0,0-.69-1.73,2.84,2.84,0,0,0-2-.63,2.88,2.88,0,0,0-1.84.52,1.74,1.74,0,0,0-.66,1.44,1.56,1.56,0,0,0,.63,1.25,6.14,6.14,0,0,0,2.13.94,9.79,9.79,0,0,1,2.36.93,3.54,3.54,0,0,1,1.26,1.19,3.11,3.11,0,0,1,.41,1.61,2.82,2.82,0,0,1-1.14,2.35,4.91,4.91,0,0,1-3.07.88,5.8,5.8,0,0,1-2.32-.47,4,4,0,0,1-1.67-1.31,3.18,3.18,0,0,1-.58-1.89h1.6a2.09,2.09,0,0,0,.81,1.74,3.42,3.42,0,0,0,2.16.63,3.18,3.18,0,0,0,1.94-.51,1.72,1.72,0,0,0,.67-1.41,1.64,1.64,0,0,0-.62-1.37A7.45,7.45,0,0,0,168.08,20.08Z"/></g></g></svg>