<svg xmlns="http://www.w3.org/2000/svg" viewBox="0 0 751 556.72"><defs><style>.cls-1{fill:#41b4c4;}.cls-2{fill:none;stroke:#41b4c4;stroke-linecap:round;stroke-miterlimit:10;}</style></defs><title>4-1</title><g id="Camada_2" data-name="Camada 2"><g id="Camada_1-2" data-name="Camada 1"><path class="cls-1" d="M375.5.79a3.81,3.81,0,0,1,1.68.41,3,3,0,0,1,1.69,2.93v.21a3.23,3.23,0,0,1-.2,1,3.94,3.94,0,0,1-.91,1.54,5.82,5.82,0,0,0-1.59,3.83v.8h.06v.14l.06,0a1.48,1.48,0,0,0,2.3.59,5.5,5.5,0,0,0,.42-.37l.55-.56-.05-.05a5.75,5.75,0,0,0,1.09-3.23A3.73,3.73,0,0,1,381,6.32a3.43,3.43,0,0,1,.57-.87l.08-.09,0,0a3.34,3.34,0,0,1,2.38-1,3.79,3.79,0,0,1,.58.05,3.37,3.37,0,0,1,1.8,5.7l0,0-.11.09a3.48,3.48,0,0,1-.86.57,3.8,3.8,0,0,1-1.73.44A5.86,5.86,0,0,0,380,12.73h0l-.07.07c-.13.13-.25.28-.4.46a1.45,1.45,0,0,0-.3.89,1.48,1.48,0,0,0,1.3,1.46,4.27,4.27,0,0,0,.59,0h.21a5.91,5.91,0,0,0,3.63-1.59,3.85,3.85,0,0,1,1.54-.91,3.16,3.16,0,0,1,.75-.18l.48,0h.22a2.89,2.89,0,0,1,2.56,1.45,3.58,3.58,0,0,1,.06,3.63,3.38,3.38,0,0,1-2.9,1.66h-.18a3.33,3.33,0,0,1-1-.22,3.67,3.67,0,0,1-1.52-.9A5.92,5.92,0,0,0,381.1,17H380l0,.12a5,5,0,0,0-3.85,4.83,5.92,5.92,0,0,0,1.59,3.84,3.9,3.9,0,0,1,.93,1.59,3.41,3.41,0,0,1,.18.92l0,.24a3.06,3.06,0,0,1-1.7,2.93,3.76,3.76,0,0,1-1.67.4,3.37,3.37,0,0,1-3.37-3.36.46.46,0,0,0,0-.16,3.55,3.55,0,0,1,.23-1.08,3.79,3.79,0,0,1,.89-1.48,5.86,5.86,0,0,0,1.59-3.84A5,5,0,0,0,370,17h-.1a5.92,5.92,0,0,0-3.84,1.59,3.87,3.87,0,0,1-1.56.92,3.48,3.48,0,0,1-1,.2h-.16a3.37,3.37,0,0,1-2.86-1.58,3.53,3.53,0,0,1-.11-3.47,3.06,3.06,0,0,1,2.76-1.69h.14l.6.05a4.05,4.05,0,0,1,.64.17,3.91,3.91,0,0,1,1.55.91,5.84,5.84,0,0,0,3.75,1.59h.09a4.52,4.52,0,0,0,.6,0,1.47,1.47,0,0,0,1.28-1.46,1.49,1.49,0,0,0-.29-.88c-.14-.18-.28-.33-.41-.47l-.6-.6-.06.07a5.69,5.69,0,0,0-3.18-1.06,3.87,3.87,0,0,1-1.72-.43,3.62,3.62,0,0,1-.9-.6l-.08-.07,0,0a3.37,3.37,0,0,1,1.8-5.7,3.79,3.79,0,0,1,.58-.05,3.34,3.34,0,0,1,2.38,1l0,0,.09.1a3.64,3.64,0,0,1,.54.82,3.77,3.77,0,0,1,.46,1.77,5.85,5.85,0,0,0,1.45,3.68v0l.13.14a4.28,4.28,0,0,0,.43.37l.38.3.1,0a1.31,1.31,0,0,0,.44.07,1.47,1.47,0,0,0,1.37-.92l.06,0,.05-.45a3.91,3.91,0,0,0,0-.49v-.58h-.05a5.7,5.7,0,0,0-1.54-3.24,3.91,3.91,0,0,1-.92-1.57,3.48,3.48,0,0,1-.2-1,.45.45,0,0,0,0-.13v0A3.38,3.38,0,0,1,375.5.79m0-.79a4.16,4.16,0,0,0-4.16,4.16h0s0,.08,0,.23a4.34,4.34,0,0,0,.25,1.2,4.58,4.58,0,0,0,1.1,1.85,5.07,5.07,0,0,1,1.36,3.27h0a2.75,2.75,0,0,1,0,.41h0s0,.06,0,.1v0a.69.69,0,0,1-.67.54.67.67,0,0,1-.43-.16h0l-.36-.31h0a5.09,5.09,0,0,1-1.36-3.28,4.65,4.65,0,0,0-.55-2.14,4.28,4.28,0,0,0-.65-1l-.15-.16h0a4.15,4.15,0,0,0-2.94-1.22,4.34,4.34,0,0,0-.71.06,4.16,4.16,0,0,0-2.23,7h0l.15.14a4.18,4.18,0,0,0,1.09.71,4.58,4.58,0,0,0,2,.5,5.09,5.09,0,0,1,3.28,1.36h0c.12.13.23.26.34.4a.65.65,0,0,1,.13.39.69.69,0,0,1-.6.68,3.91,3.91,0,0,1-.49,0h0a5.06,5.06,0,0,1-3.27-1.36,4.68,4.68,0,0,0-1.86-1.1,4,4,0,0,0-1.19-.24l-.23,0h-.21a3.84,3.84,0,0,0-3.47,2.14,4.2,4.2,0,0,0,3.68,6.18h.22a4.41,4.41,0,0,0,1.21-.25,4.49,4.49,0,0,0,1.84-1.1,5.09,5.09,0,0,1,3.28-1.36h0a4.16,4.16,0,0,1,4.16,4.16,5.09,5.09,0,0,1-1.36,3.28A4.57,4.57,0,0,0,371.62,27a4.3,4.3,0,0,0-.27,1.29c0,.12,0,.19,0,.19a4.16,4.16,0,0,0,4.16,4.16,4.71,4.71,0,0,0,2-.47,3.87,3.87,0,0,0,2.15-3.69h0a2.32,2.32,0,0,0,0-.26,4.12,4.12,0,0,0-.22-1.13,4.65,4.65,0,0,0-1.12-1.89,5.09,5.09,0,0,1-1.36-3.28,4.16,4.16,0,0,1,4.16-4.16h0a5.09,5.09,0,0,1,3.28,1.36,4.49,4.49,0,0,0,1.84,1.1,4.34,4.34,0,0,0,1.21.25h.22A4.22,4.22,0,0,0,391.19,14a3.7,3.7,0,0,0-3.26-1.87h-.5a4.08,4.08,0,0,0-1.22.26,4.54,4.54,0,0,0-1.83,1.09,5.09,5.09,0,0,1-3.28,1.36h0a4.19,4.19,0,0,1-.5,0,.69.69,0,0,1-.6-.68.75.75,0,0,1,.14-.41h0c.11-.13.21-.26.33-.38h0A5.11,5.11,0,0,1,383.75,12a4.55,4.55,0,0,0,2.1-.54,3.87,3.87,0,0,0,1-.68l.16-.14h0a4.16,4.16,0,0,0-2.23-7,4.34,4.34,0,0,0-.71-.06,4.18,4.18,0,0,0-2.94,1.22h0l-.14.16a4.18,4.18,0,0,0-.7,1,4.71,4.71,0,0,0-.51,2.07,5.09,5.09,0,0,1-1.36,3.28h0c-.11.11-.23.21-.35.31h0a.63.63,0,0,1-.43.16.69.69,0,0,1-.67-.55h0a.57.57,0,0,1,0-.13h0c0-.13,0-.27,0-.41h0a5.07,5.07,0,0,1,1.36-3.27,4.68,4.68,0,0,0,1.1-1.86,4.35,4.35,0,0,0,.25-1.19c0-.15,0-.23,0-.23h0A3.86,3.86,0,0,0,377.53.48a4.7,4.7,0,0,0-2-.48Z"/><path class="cls-2" d="M355.74,15H5.5c-2.76,0-5,1.58-5,3.53V552.7c0,1.94,2.24,3.52,5,3.52h740c2.76,0,5-1.58,5-3.52V18.5c0-1.95-2.24-3.53-5-3.53H395.26"/></g></g></svg>