<svg xmlns="http://www.w3.org/2000/svg" xmlns:xlink="http://www.w3.org/1999/xlink" viewBox="0 0 709.69 346.28"><defs><style>.cls-1{fill:none;}.cls-2{fill:#ffd478;}.cls-3{fill:#027e8f;}.cls-4{fill:#f9f9f9;}.cls-5{clip-path:url(#clip-path);}.cls-6{fill:#eaa000;}.cls-7{fill:#eac2a7;}.cls-8{fill:#6d472e;}.cls-9{fill:#c9a68f;}.cls-10{fill:#d6aa8b;}.cls-11{fill:#d6d6d6;}.cls-12{fill:#c99f4b;}.cls-13{fill:#6d5f56;}.cls-14{fill:#493e38;}.cls-15{clip-path:url(#clip-path-2);}.cls-16{fill:#fcfcfc;}.cls-17{fill:#d32222;}.cls-18{fill:#f4f4f4;}.cls-19{clip-path:url(#clip-path-3);}.cls-20{fill:#b7b7b7;}.cls-21{fill:#c99e32;}.cls-22{clip-path:url(#clip-path-4);}.cls-23{fill:#aa7e30;}.cls-24{fill:#fff;}.cls-25{fill:#ddd;}.cls-26{fill:#846829;}.cls-27{fill:#e8cd95;}</style><clipPath id="clip-path" transform="translate(-23.84 -6.13)"><ellipse class="cls-1" cx="119.61" cy="115.73" rx="119.61" ry="115.73"/></clipPath><clipPath id="clip-path-2" transform="translate(-23.84 -6.13)"><path class="cls-1" d="M107.56,70.08c-.21-.23,12.88.82,17.87-2.86,0,0,1,10-3.47,11S112.06,77.55,107.56,70.08Z"/></clipPath><clipPath id="clip-path-3" transform="translate(-23.84 -6.13)"><path class="cls-1" d="M115,217.49c3,6,24.42,7.3,26.19,7.86,0,0,.56-24.21-2.85-37.82S115,217.49,115,217.49Z"/></clipPath><clipPath id="clip-path-4" transform="translate(-23.84 -6.13)"><path class="cls-1" d="M89,67.42c3.77,1.56.52-5.2.52-5.2s-.35-6.78-2.27-7.93A27.4,27.4,0,0,1,83,50.87l9.64-6.6L119,26.21s3.64-5.07-4.68-8.19a9.91,9.91,0,0,0-10.07-3s-3.64-4.35-8.91-.35c0,0-10.59-.62-13,4.58a3.93,3.93,0,0,0-3.89,2.21s-2.21.84-2.64,2.63c0,0-5.36,2.11-5.68,5.69,0,0-2.93,4.09-.59,7.41,0,0-1.54,2.9.46,4.9,0,0-4.49,4.91,0,8,0,0-1.11,3.19,5.46,4.49l2,4s1.87-.85,7.27,4.55S89,67.42,89,67.42Z"/></clipPath></defs><title>6-info</title><g id="Camada_2" data-name="Camada 2"><g id="Camada_1-2" data-name="Camada 1"><path class="cls-2" d="M124.1,61.42H699.69a10,10,0,0,1,10,10V214.19a10,10,0,0,1-10,10H124.1a0,0,0,0,1,0,0V61.42A0,0,0,0,1,124.1,61.42Z"/><path class="cls-3" d="M239.65,101l1-.07,4.9-12h1.08l4.86,12,1,.07v.77h-3.41V101l1.21-.09-1.14-2.86H243l-1.15,2.86,1.21.09v.77h-3.4Zm3.72-3.9h5.46l-2.69-6.76h0Z" transform="translate(-23.84 -6.13)"/><path class="cls-3" d="M263,97.29a5.26,5.26,0,0,1-1,3.41,3.56,3.56,0,0,1-2.88,1.27,4.18,4.18,0,0,1-1.94-.42,3.32,3.32,0,0,1-1.32-1.2l-.13,1.43h-1V89l-1.54-.12v-.78h2.67v5.7a3.61,3.61,0,0,1,1.31-1.24,4,4,0,0,1,1.9-.43,3.44,3.44,0,0,1,2.9,1.36,5.9,5.9,0,0,1,1,3.65Zm-1.15-.18a5.2,5.2,0,0,0-.76-3A2.51,2.51,0,0,0,258.82,93a3.1,3.1,0,0,0-1.92.55A3.3,3.3,0,0,0,255.82,95v4.3a3.18,3.18,0,0,0,1.14,1.32,3.43,3.43,0,0,0,1.88.48,2.59,2.59,0,0,0,2.23-1,4.52,4.52,0,0,0,.75-2.74Z" transform="translate(-23.84 -6.13)"/><path class="cls-3" d="M272,101.78a7.38,7.38,0,0,1-.16-.83,4.24,4.24,0,0,1-.05-.71,4.45,4.45,0,0,1-1.52,1.23,4.53,4.53,0,0,1-2.14.5,3.44,3.44,0,0,1-2.33-.72,2.49,2.49,0,0,1-.83-2,2.37,2.37,0,0,1,1.23-2.09,6.23,6.23,0,0,1,3.32-.77h2.27V95.17a2,2,0,0,0-.71-1.6,3.07,3.07,0,0,0-2-.58,5.44,5.44,0,0,0-1.56.22,3.72,3.72,0,0,0-1.18.58l-.09,1.28h-.94V93.24a6.18,6.18,0,0,1,1.71-.83,6.9,6.9,0,0,1,2.11-.31,4.3,4.3,0,0,1,2.73.8,2.71,2.71,0,0,1,1,2.29v4.68c0,.19,0,.38,0,.55a4.52,4.52,0,0,0,.06.53l1,.06v.77Zm-3.74-.75a4.36,4.36,0,0,0,2.17-.52,3.24,3.24,0,0,0,1.36-1.36V97.24h-2.29a4.58,4.58,0,0,0-2.47.59,1.75,1.75,0,0,0-.93,1.5,1.52,1.52,0,0,0,.58,1.24A2.44,2.44,0,0,0,268.25,101Z" transform="translate(-23.84 -6.13)"/><path class="cls-3" d="M275.55,101l1.54-.12V93.17l-1.54-.12v-.78h2.67v8.62l1.55.12v.77h-4.22Zm2.67-11.46h-1.13V88.07h1.13Z" transform="translate(-23.84 -6.13)"/><path class="cls-3" d="M281.45,101l1.15-.1,3.25-4-3.1-3.79-1.16-.1v-.78h3.49v.78l-1.07.06,2.45,3,2.46-3.06-1.05,0v-.78h3.48v.78l-1.15.1-3.09,3.79,3.23,4,1.16.1v.77H288V101l1.05-.05-2.61-3.23-2.6,3.23,1.05.05v.77h-3.47Z" transform="translate(-23.84 -6.13)"/><path class="cls-3" d="M292.8,96.89a4.89,4.89,0,0,1,1.25-3.45,4.72,4.72,0,0,1,6.59,0,4.89,4.89,0,0,1,1.25,3.45v.29a4.93,4.93,0,0,1-1.24,3.45,4.73,4.73,0,0,1-6.6,0,4.89,4.89,0,0,1-1.25-3.45Zm1.14.29a4.29,4.29,0,0,0,.9,2.77,3,3,0,0,0,2.52,1.13,3,3,0,0,0,2.48-1.13,4.29,4.29,0,0,0,.91-2.77v-.29a4.28,4.28,0,0,0-.91-2.76,3.31,3.31,0,0,0-5,0,4.28,4.28,0,0,0-.9,2.76Z" transform="translate(-23.84 -6.13)"/><path class="cls-3" d="M305.39,101.36a3.68,3.68,0,0,1-.36,1.58,3.86,3.86,0,0,1-1,1.31l-.68-.46a4.24,4.24,0,0,0,.66-1.15,3.4,3.4,0,0,0,.22-1.26v-1.25h1.13Z" transform="translate(-23.84 -6.13)"/><path class="cls-3" d="M319.27,101.78c-.07-.32-.13-.6-.16-.83a5.65,5.65,0,0,1-.05-.71,4.41,4.41,0,0,1-1.51,1.23,4.59,4.59,0,0,1-2.14.5,3.42,3.42,0,0,1-2.33-.72,2.46,2.46,0,0,1-.83-2,2.38,2.38,0,0,1,1.22-2.09,6.26,6.26,0,0,1,3.33-.77h2.26V95.17a2,2,0,0,0-.7-1.6,3.07,3.07,0,0,0-2-.58,5.44,5.44,0,0,0-1.56.22,3.61,3.61,0,0,0-1.18.58l-.1,1.28h-.94V93.24a6,6,0,0,1,1.7-.83,7,7,0,0,1,2.12-.31,4.3,4.3,0,0,1,2.73.8,2.71,2.71,0,0,1,1,2.29v4.68c0,.19,0,.38,0,.55a4.52,4.52,0,0,0,.06.53l1,.06v.77Zm-3.74-.75a4.39,4.39,0,0,0,2.18-.52,3.21,3.21,0,0,0,1.35-1.36V97.24h-2.28a4.62,4.62,0,0,0-2.48.59,1.76,1.76,0,0,0-.92,1.5,1.54,1.54,0,0,0,.57,1.24A2.46,2.46,0,0,0,315.53,101Z" transform="translate(-23.84 -6.13)"/><path class="cls-3" d="M322.68,88.85v-.78h2.68v12.82l1.54.12v.77h-4.22V101l1.55-.12V89Z" transform="translate(-23.84 -6.13)"/><path class="cls-3" d="M328.65,97.11a5.84,5.84,0,0,1,1.05-3.65,3.46,3.46,0,0,1,2.91-1.36,3.88,3.88,0,0,1,1.89.44,3.7,3.7,0,0,1,1.33,1.25l.13-1.52h1v9.39a3.93,3.93,0,0,1-1.07,2.9,4.09,4.09,0,0,1-3,1.06,8.22,8.22,0,0,1-1.58-.16,7.18,7.18,0,0,1-1.46-.46l.3-.89a7.05,7.05,0,0,0,1.3.42,6.6,6.6,0,0,0,1.43.15,2.88,2.88,0,0,0,2.2-.8,3.15,3.15,0,0,0,.74-2.22v-1.21a3.5,3.5,0,0,1-1.32,1.13,4.36,4.36,0,0,1-1.87.39,3.56,3.56,0,0,1-2.9-1.28,5.23,5.23,0,0,1-1-3.4Zm1.14.18a4.54,4.54,0,0,0,.75,2.74,2.64,2.64,0,0,0,2.26,1,3.37,3.37,0,0,0,1.84-.46,3.11,3.11,0,0,0,1.14-1.29V94.89a3.48,3.48,0,0,0-1.09-1.36,3.09,3.09,0,0,0-1.87-.52,2.56,2.56,0,0,0-2.27,1.14,5.22,5.22,0,0,0-.76,3Z" transform="translate(-23.84 -6.13)"/><path class="cls-3" d="M347,100.22a3.41,3.41,0,0,1-1.32,1.29,4.14,4.14,0,0,1-2,.46,3.24,3.24,0,0,1-2.54-1,4.65,4.65,0,0,1-.91-3.17V93.17L339,93.05v-.78h2.41V97.8a3.87,3.87,0,0,0,.64,2.5,2.24,2.24,0,0,0,1.81.75,3.52,3.52,0,0,0,2.06-.53A2.79,2.79,0,0,0,347,99.07v-5.9l-1.46-.12v-.78h2.6v8.62l1.37.12v.77h-2.37Z" transform="translate(-23.84 -6.13)"/><path class="cls-3" d="M351,93.05v-.78h2.55l.1,1.57a3.55,3.55,0,0,1,1.32-1.29,4.07,4.07,0,0,1,2-.45,3.38,3.38,0,0,1,2,.53A2.89,2.89,0,0,1,360,94.25a3.8,3.8,0,0,1,1.32-1.58,3.75,3.75,0,0,1,2.1-.57,3.21,3.21,0,0,1,2.54,1,4.64,4.64,0,0,1,.89,3.13v4.65l1.55.12v.77h-4.24V101l1.54-.12V96.22a3.67,3.67,0,0,0-.66-2.48,2.4,2.4,0,0,0-1.87-.73,2.61,2.61,0,0,0-2,.78,3.58,3.58,0,0,0-.89,2v.13a.71.71,0,0,1,0,.16v4.81l1.54.12v.77h-4.23V101l1.55-.12V96.22a3.65,3.65,0,0,0-.68-2.47,2.4,2.4,0,0,0-1.86-.74,3,3,0,0,0-1.93.57,3,3,0,0,0-1,1.52v5.79l1.55.12v.77H351V101l1.54-.12V93.17Z" transform="translate(-23.84 -6.13)"/><path class="cls-3" d="M376.88,101.78c-.08-.32-.13-.6-.17-.83a5.63,5.63,0,0,1,0-.71,4.45,4.45,0,0,1-1.52,1.23,4.59,4.59,0,0,1-2.14.5,3.44,3.44,0,0,1-2.33-.72,2.49,2.49,0,0,1-.83-2,2.37,2.37,0,0,1,1.23-2.09,6.2,6.2,0,0,1,3.32-.77h2.27V95.17a2,2,0,0,0-.71-1.6,3.07,3.07,0,0,0-2-.58,5.44,5.44,0,0,0-1.56.22,3.61,3.61,0,0,0-1.18.58l-.1,1.28h-.94V93.24a6.18,6.18,0,0,1,1.71-.83A6.9,6.9,0,0,1,374,92.1a4.3,4.3,0,0,1,2.73.8,2.71,2.71,0,0,1,1,2.29v4.68c0,.19,0,.38,0,.55a4.52,4.52,0,0,0,.06.53l1,.06v.77Zm-3.74-.75a4.38,4.38,0,0,0,2.17-.52,3.24,3.24,0,0,0,1.36-1.36V97.24h-2.29a4.56,4.56,0,0,0-2.47.59,1.75,1.75,0,0,0-.93,1.5,1.52,1.52,0,0,0,.58,1.24A2.44,2.44,0,0,0,373.14,101Z" transform="translate(-23.84 -6.13)"/><path class="cls-3" d="M388,95.21H387l-.13-1.35a3,3,0,0,0-1.08-.64,4.53,4.53,0,0,0-1.49-.23,3,3,0,0,0-1.87.5,1.47,1.47,0,0,0-.62,1.16,1.33,1.33,0,0,0,.54,1.09,5.4,5.4,0,0,0,2.13.76,7.39,7.39,0,0,1,2.75,1,2.08,2.08,0,0,1,.91,1.78,2.26,2.26,0,0,1-1,1.92,4.66,4.66,0,0,1-2.75.74,6.72,6.72,0,0,1-2.07-.3,4.87,4.87,0,0,1-1.62-.83V98.92h.92l.16,1.36a2.8,2.8,0,0,0,1.16.61,5.34,5.34,0,0,0,1.45.19,3.39,3.39,0,0,0,1.95-.5,1.42,1.42,0,0,0,.12-2.38,5,5,0,0,0-2.14-.82,7.57,7.57,0,0,1-2.72-1,2,2,0,0,1-.89-1.71,2.22,2.22,0,0,1,1-1.84,4.25,4.25,0,0,1,2.63-.75,6.14,6.14,0,0,1,2.06.32,4.2,4.2,0,0,1,1.52.86Z" transform="translate(-23.84 -6.13)"/><path class="cls-3" d="M402.42,95.21h-.93l-.14-1.35a2.91,2.91,0,0,0-1.07-.64,4.63,4.63,0,0,0-1.5-.23,2.93,2.93,0,0,0-1.86.5,1.45,1.45,0,0,0-.63,1.16,1.33,1.33,0,0,0,.54,1.09,5.47,5.47,0,0,0,2.14.76,7.33,7.33,0,0,1,2.74,1,2.08,2.08,0,0,1,.91,1.78,2.25,2.25,0,0,1-1,1.92,4.68,4.68,0,0,1-2.75.74,6.83,6.83,0,0,1-2.08-.3,5,5,0,0,1-1.62-.83V98.92h.93l.16,1.36a2.76,2.76,0,0,0,1.15.61,5.41,5.41,0,0,0,1.46.19,3.34,3.34,0,0,0,1.94-.5,1.42,1.42,0,0,0,.12-2.38,4.9,4.9,0,0,0-2.14-.82,7.57,7.57,0,0,1-2.72-1,2,2,0,0,1-.89-1.71,2.25,2.25,0,0,1,1-1.84,4.27,4.27,0,0,1,2.63-.75,6.24,6.24,0,0,1,2.07.32,4.2,4.2,0,0,1,1.52.86Z" transform="translate(-23.84 -6.13)"/><path class="cls-3" d="M412.24,100.22a3.48,3.48,0,0,1-1.32,1.29,4.16,4.16,0,0,1-2,.46,3.23,3.23,0,0,1-2.54-1,4.65,4.65,0,0,1-.92-3.17V93.17l-1.27-.12v-.78h2.4V97.8a3.87,3.87,0,0,0,.64,2.5,2.26,2.26,0,0,0,1.82.75,3.48,3.48,0,0,0,2.05-.53,2.79,2.79,0,0,0,1.08-1.45v-5.9l-1.46-.12v-.78h2.6v8.62l1.38.12v.77h-2.38Z" transform="translate(-23.84 -6.13)"/><path class="cls-3" d="M416.43,97.11a5.84,5.84,0,0,1,1.05-3.65,3.46,3.46,0,0,1,2.91-1.36,4,4,0,0,1,1.9.44,3.75,3.75,0,0,1,1.32,1.25l.13-1.52h1v9.39a3.93,3.93,0,0,1-1.07,2.9,4.06,4.06,0,0,1-3,1.06,8.14,8.14,0,0,1-1.58-.16,7.28,7.28,0,0,1-1.47-.46l.31-.89a7,7,0,0,0,1.29.42,6.6,6.6,0,0,0,1.43.15,2.86,2.86,0,0,0,2.2-.8,3.1,3.1,0,0,0,.74-2.22v-1.21a3.5,3.5,0,0,1-1.32,1.13,4.33,4.33,0,0,1-1.87.39,3.53,3.53,0,0,1-2.89-1.28,5.18,5.18,0,0,1-1.05-3.4Zm1.14.18a4.47,4.47,0,0,0,.76,2.74,2.61,2.61,0,0,0,2.25,1,3.41,3.41,0,0,0,1.85-.46,3,3,0,0,0,1.13-1.29V94.89a3.32,3.32,0,0,0-1.09-1.36A3.07,3.07,0,0,0,420.6,93a2.54,2.54,0,0,0-2.26,1.14,5.22,5.22,0,0,0-.77,3Z" transform="translate(-23.84 -6.13)"/><path class="cls-3" d="M431.81,102a4.28,4.28,0,0,1-3.21-1.32,4.59,4.59,0,0,1-1.27-3.34v-.48a4.74,4.74,0,0,1,1.27-3.39,4.35,4.35,0,0,1,6-.24,4.07,4.07,0,0,1,1.08,3v.89h-7.25v.26a4,4,0,0,0,.93,2.68,3,3,0,0,0,2.42,1.09,5.33,5.33,0,0,0,1.8-.27,3.69,3.69,0,0,0,1.28-.79l.49.73a4.23,4.23,0,0,1-1.46.89A6,6,0,0,1,431.81,102Zm-.15-9a2.79,2.79,0,0,0-2.11.9,3.66,3.66,0,0,0-1,2.23l0,0h6V95.9a2.88,2.88,0,0,0-.79-2.07A2.76,2.76,0,0,0,431.66,93Z" transform="translate(-23.84 -6.13)"/><path class="cls-3" d="M445.19,95.21h-.93l-.13-1.35a3,3,0,0,0-1.08-.64,4.53,4.53,0,0,0-1.49-.23,3,3,0,0,0-1.87.5,1.47,1.47,0,0,0-.62,1.16,1.33,1.33,0,0,0,.54,1.09,5.4,5.4,0,0,0,2.14.76,7.4,7.4,0,0,1,2.74,1,2.08,2.08,0,0,1,.91,1.78,2.26,2.26,0,0,1-1,1.92,4.66,4.66,0,0,1-2.75.74,6.72,6.72,0,0,1-2.07-.3,5,5,0,0,1-1.62-.83V98.92h.92l.16,1.36a2.8,2.8,0,0,0,1.16.61,5.34,5.34,0,0,0,1.45.19,3.35,3.35,0,0,0,1.95-.5,1.42,1.42,0,0,0,.12-2.38,5,5,0,0,0-2.14-.82,7.57,7.57,0,0,1-2.72-1,2,2,0,0,1-.89-1.71,2.22,2.22,0,0,1,1-1.84,4.25,4.25,0,0,1,2.63-.75,6.14,6.14,0,0,1,2.06.32,4.2,4.2,0,0,1,1.52.86Z" transform="translate(-23.84 -6.13)"/><path class="cls-3" d="M450.08,89.84v2.43h2.26v.86h-2.26v6.2a1.88,1.88,0,0,0,.37,1.32,1.25,1.25,0,0,0,1,.39,4.61,4.61,0,0,0,.53,0c.18,0,.38,0,.61-.07l.17.78a3.43,3.43,0,0,1-.69.18,5.76,5.76,0,0,1-.82.06,2.25,2.25,0,0,1-1.69-.64,2.83,2.83,0,0,1-.6-2v-6.2h-1.76v-.86h1.76V89.84Z" transform="translate(-23.84 -6.13)"/><path class="cls-3" d="M454.24,96.89a4.89,4.89,0,0,1,1.24-3.45,4.73,4.73,0,0,1,6.6,0,4.89,4.89,0,0,1,1.24,3.45v.29a4.89,4.89,0,0,1-1.24,3.45,4.27,4.27,0,0,1-3.29,1.34,4.31,4.31,0,0,1-3.31-1.34,4.89,4.89,0,0,1-1.24-3.45Zm1.14.29a4.29,4.29,0,0,0,.9,2.77,3.33,3.33,0,0,0,5,0,4.29,4.29,0,0,0,.9-2.77v-.29a4.23,4.23,0,0,0-.91-2.76,3.3,3.3,0,0,0-5,0,4.28,4.28,0,0,0-.9,2.76Zm6.68-8.56a1.75,1.75,0,0,1-.52,1.28,1.8,1.8,0,0,1-1.3.51,2.57,2.57,0,0,1-1.44-.49,2.38,2.38,0,0,0-1.24-.48,1,1,0,0,0-.75.31,1.07,1.07,0,0,0-.3.78l-.75-.16a1.78,1.78,0,0,1,.5-1.27,1.76,1.76,0,0,1,1.3-.51,2.76,2.76,0,0,1,1.4.48,2.59,2.59,0,0,0,1.28.49,1,1,0,0,0,.75-.32,1.13,1.13,0,0,0,.31-.8Z" transform="translate(-23.84 -6.13)"/><path class="cls-3" d="M469.7,102a4.28,4.28,0,0,1-3.21-1.32,4.59,4.59,0,0,1-1.27-3.34v-.48a4.74,4.74,0,0,1,1.27-3.39,4.35,4.35,0,0,1,6-.24,4.07,4.07,0,0,1,1.08,3v.89h-7.25v.26a4,4,0,0,0,.92,2.68,3,3,0,0,0,2.43,1.09,5.33,5.33,0,0,0,1.8-.27,3.69,3.69,0,0,0,1.28-.79l.49.73a4.28,4.28,0,0,1-1.47.89A6,6,0,0,1,469.7,102Zm-.15-9a2.83,2.83,0,0,0-2.12.9,3.71,3.71,0,0,0-1,2.23l0,0h6V95.9a2.88,2.88,0,0,0-.79-2.07A2.78,2.78,0,0,0,469.55,93Z" transform="translate(-23.84 -6.13)"/><path class="cls-3" d="M483.08,95.21h-.93L482,93.86a3,3,0,0,0-1.08-.64,4.53,4.53,0,0,0-1.49-.23,3,3,0,0,0-1.87.5,1.47,1.47,0,0,0-.62,1.16,1.33,1.33,0,0,0,.54,1.09,5.4,5.4,0,0,0,2.14.76,7.4,7.4,0,0,1,2.74,1,2.08,2.08,0,0,1,.91,1.78,2.26,2.26,0,0,1-1,1.92,4.66,4.66,0,0,1-2.75.74,6.72,6.72,0,0,1-2.07-.3,4.87,4.87,0,0,1-1.62-.83V98.92h.92l.16,1.36a2.8,2.8,0,0,0,1.16.61,5.34,5.34,0,0,0,1.45.19,3.39,3.39,0,0,0,1.95-.5,1.42,1.42,0,0,0,.12-2.38,5,5,0,0,0-2.14-.82,7.57,7.57,0,0,1-2.72-1,2,2,0,0,1-.89-1.71,2.22,2.22,0,0,1,1-1.84,4.25,4.25,0,0,1,2.63-.75,6.14,6.14,0,0,1,2.06.32,4.2,4.2,0,0,1,1.52.86Z" transform="translate(-23.84 -6.13)"/><path class="cls-3" d="M497.22,100.41a3.41,3.41,0,0,1-1.32,1.15A4.15,4.15,0,0,1,494,102a3.54,3.54,0,0,1-2.89-1.28,5.22,5.22,0,0,1-1-3.4v-.18a5.9,5.9,0,0,1,1-3.65A3.44,3.44,0,0,1,494,92.1a4,4,0,0,1,1.86.41,3.56,3.56,0,0,1,1.31,1.19V89l-1.54-.12v-.78h2.68v12.82l1.55.12v.77h-2.56Zm-6-3.12A4.52,4.52,0,0,0,492,100a2.58,2.58,0,0,0,2.24,1,3.36,3.36,0,0,0,1.83-.46,3.06,3.06,0,0,0,1.14-1.25v-4.5a3.26,3.26,0,0,0-1.09-1.32,3.15,3.15,0,0,0-1.86-.51A2.51,2.51,0,0,0,492,94.15a5.2,5.2,0,0,0-.76,3Z" transform="translate(-23.84 -6.13)"/><path class="cls-3" d="M506.15,102a4.24,4.24,0,0,1-3.2-1.32,4.59,4.59,0,0,1-1.28-3.34v-.48a4.78,4.78,0,0,1,1.27-3.39A4.05,4.05,0,0,1,506,92.1a4,4,0,0,1,3,1.1,4.07,4.07,0,0,1,1.08,3v.89H502.8v.26a4,4,0,0,0,.93,2.68,3,3,0,0,0,2.42,1.09,5.35,5.35,0,0,0,1.81-.27,3.79,3.79,0,0,0,1.28-.79l.48.73a4.14,4.14,0,0,1-1.46.89A6,6,0,0,1,506.15,102ZM506,93a2.81,2.81,0,0,0-2.11.9,3.65,3.65,0,0,0-1,2.23l0,0h6V95.9a2.92,2.92,0,0,0-.79-2.07A2.8,2.8,0,0,0,506,93Z" transform="translate(-23.84 -6.13)"/><path class="cls-3" d="M516.51,93.05v-.78H519l.15,1.48a3.46,3.46,0,0,1,1.33-1.22,4,4,0,0,1,1.9-.43,3.44,3.44,0,0,1,2.9,1.36,5.9,5.9,0,0,1,1,3.65v.18a5.26,5.26,0,0,1-1,3.41A3.56,3.56,0,0,1,522.4,102a4.31,4.31,0,0,1-1.89-.39,3.42,3.42,0,0,1-1.33-1.08v4l1.55.12v.78h-4.22v-.78l1.54-.12V93.17Zm8.67,4.06a5.15,5.15,0,0,0-.78-3A2.56,2.56,0,0,0,522.13,93a3,3,0,0,0-3,1.82V99.4a3,3,0,0,0,1.13,1.23,3.46,3.46,0,0,0,1.84.45,2.66,2.66,0,0,0,2.26-1,4.46,4.46,0,0,0,.77-2.75Z" transform="translate(-23.84 -6.13)"/><path class="cls-3" d="M530.63,92.27l.14,1.58V94A3.43,3.43,0,0,1,532,92.59a3.2,3.2,0,0,1,1.79-.49,3,3,0,0,1,.43,0l.33.06-.15,1-.84-.06a2.69,2.69,0,0,0-1.76.56,3.13,3.13,0,0,0-1,1.54v5.67l1.55.12v.77H528.1V101l1.54-.12V93.17l-1.54-.12v-.78h2.53Z" transform="translate(-23.84 -6.13)"/><path class="cls-3" d="M535.8,96.89A4.89,4.89,0,0,1,537,93.44a4.73,4.73,0,0,1,6.6,0,4.93,4.93,0,0,1,1.24,3.45v.29a4.89,4.89,0,0,1-1.24,3.45,4.73,4.73,0,0,1-6.6,0,4.89,4.89,0,0,1-1.24-3.45Zm1.13.29a4.24,4.24,0,0,0,.91,2.77,3.33,3.33,0,0,0,5,0,4.29,4.29,0,0,0,.9-2.77v-.29a4.23,4.23,0,0,0-.91-2.76,3.3,3.3,0,0,0-5,0,4.23,4.23,0,0,0-.91,2.76Z" transform="translate(-23.84 -6.13)"/><path class="cls-3" d="M555.55,97.29a5.2,5.2,0,0,1-1,3.41,3.52,3.52,0,0,1-2.87,1.27,4.19,4.19,0,0,1-1.95-.42,3.46,3.46,0,0,1-1.32-1.2l-.12,1.43h-1V89l-1.55-.12v-.78h2.68v5.7a3.53,3.53,0,0,1,1.31-1.24,3.89,3.89,0,0,1,1.9-.43,3.42,3.42,0,0,1,2.89,1.36,5.84,5.84,0,0,1,1,3.65Zm-1.14-.18a5.28,5.28,0,0,0-.76-3A2.53,2.53,0,0,0,551.41,93a3.06,3.06,0,0,0-1.92.55A3.15,3.15,0,0,0,548.41,95v4.3a3.08,3.08,0,0,0,1.13,1.32,3.47,3.47,0,0,0,1.89.48,2.6,2.6,0,0,0,2.23-1,4.52,4.52,0,0,0,.75-2.74Z" transform="translate(-23.84 -6.13)"/><path class="cls-3" d="M557.16,88.85v-.78h2.68v12.82l1.54.12v.77h-4.22V101l1.55-.12V89Z" transform="translate(-23.84 -6.13)"/><path class="cls-3" d="M567.71,102a4.26,4.26,0,0,1-3.21-1.32,4.59,4.59,0,0,1-1.28-3.34v-.48a4.78,4.78,0,0,1,1.27-3.39,4.05,4.05,0,0,1,3.06-1.34,4,4,0,0,1,3,1.1,4,4,0,0,1,1.09,3v.89h-7.26v.26a4,4,0,0,0,.93,2.68,3,3,0,0,0,2.43,1.09,5.33,5.33,0,0,0,1.8-.27,3.79,3.79,0,0,0,1.28-.79l.48.73a4.14,4.14,0,0,1-1.46.89A6,6,0,0,1,567.71,102Zm-.16-9a2.81,2.81,0,0,0-2.11.9,3.71,3.71,0,0,0-1,2.23l0,0h6V95.9a2.92,2.92,0,0,0-.79-2.07A2.8,2.8,0,0,0,567.55,93Z" transform="translate(-23.84 -6.13)"/><path class="cls-3" d="M573.39,93.05v-.78h2.55l.11,1.57a3.55,3.55,0,0,1,1.32-1.29,4,4,0,0,1,2-.45,3.41,3.41,0,0,1,2,.53,2.93,2.93,0,0,1,1.13,1.62,3.8,3.8,0,0,1,1.32-1.58,3.69,3.69,0,0,1,2.09-.57,3.19,3.19,0,0,1,2.54,1,4.59,4.59,0,0,1,.9,3.13v4.65l1.55.12v.77h-4.25V101l1.55-.12V96.22a3.61,3.61,0,0,0-.67-2.48A2.4,2.4,0,0,0,585.6,93a2.65,2.65,0,0,0-2.05.78,3.65,3.65,0,0,0-.89,2,.57.57,0,0,0,0,.13v5l1.55.12v.77H580V101l1.54-.12V96.22a3.59,3.59,0,0,0-.68-2.47A2.4,2.4,0,0,0,579,93a2.76,2.76,0,0,0-2.91,2.09v5.79l1.54.12v.77h-4.23V101l1.55-.12V93.17Z" transform="translate(-23.84 -6.13)"/><path class="cls-3" d="M599.32,101.78a7.38,7.38,0,0,1-.16-.83,5.65,5.65,0,0,1,0-.71,4.36,4.36,0,0,1-1.52,1.23,4.52,4.52,0,0,1-2.13.5,3.45,3.45,0,0,1-2.34-.72,2.49,2.49,0,0,1-.82-2,2.38,2.38,0,0,1,1.22-2.09,6.23,6.23,0,0,1,3.32-.77h2.27V95.17a1.94,1.94,0,0,0-.71-1.6,3.06,3.06,0,0,0-2-.58,5.57,5.57,0,0,0-1.57.22,3.72,3.72,0,0,0-1.18.58l-.09,1.28h-.94V93.24a6,6,0,0,1,1.7-.83,7,7,0,0,1,2.11-.31,4.31,4.31,0,0,1,2.74.8,2.71,2.71,0,0,1,1,2.29v4.68c0,.19,0,.38,0,.55a3.07,3.07,0,0,0,.06.53l1,.06v.77Zm-3.74-.75a4.36,4.36,0,0,0,2.17-.52,3.24,3.24,0,0,0,1.36-1.36V97.24h-2.29a4.58,4.58,0,0,0-2.47.59,1.74,1.74,0,0,0-.92,1.5,1.54,1.54,0,0,0,.57,1.24A2.44,2.44,0,0,0,595.58,101Z" transform="translate(-23.84 -6.13)"/><path class="cls-3" d="M610.41,95.21h-.93l-.14-1.35a2.91,2.91,0,0,0-1.07-.64,4.63,4.63,0,0,0-1.5-.23,2.93,2.93,0,0,0-1.86.5,1.45,1.45,0,0,0-.63,1.16,1.33,1.33,0,0,0,.54,1.09,5.47,5.47,0,0,0,2.14.76,7.33,7.33,0,0,1,2.74,1,2.08,2.08,0,0,1,.91,1.78,2.25,2.25,0,0,1-1,1.92,4.68,4.68,0,0,1-2.75.74,6.83,6.83,0,0,1-2.08-.3,4.81,4.81,0,0,1-1.61-.83V98.92h.92l.16,1.36a2.76,2.76,0,0,0,1.15.61,5.41,5.41,0,0,0,1.46.19,3.34,3.34,0,0,0,1.94-.5,1.42,1.42,0,0,0,.12-2.38,4.9,4.9,0,0,0-2.14-.82,7.57,7.57,0,0,1-2.72-1,2,2,0,0,1-.89-1.71,2.25,2.25,0,0,1,1-1.84,4.27,4.27,0,0,1,2.63-.75,6.24,6.24,0,0,1,2.07.32,4.2,4.2,0,0,1,1.52.86Z" transform="translate(-23.84 -6.13)"/><path class="cls-3" d="M617.11,93.05v-.78h2.49l.15,1.48a3.46,3.46,0,0,1,1.33-1.22,4,4,0,0,1,1.9-.43,3.44,3.44,0,0,1,2.9,1.36,5.9,5.9,0,0,1,1,3.65v.18a5.26,5.26,0,0,1-1,3.41A3.56,3.56,0,0,1,623,102a4.31,4.31,0,0,1-1.89-.39,3.35,3.35,0,0,1-1.33-1.08v4l1.55.12v.78h-4.22v-.78l1.54-.12V93.17Zm8.67,4.06a5.15,5.15,0,0,0-.78-3A2.59,2.59,0,0,0,622.72,93a3.15,3.15,0,0,0-1.86.51,3.07,3.07,0,0,0-1.08,1.31V99.4a3,3,0,0,0,1.13,1.23,3.45,3.45,0,0,0,1.83.45,2.66,2.66,0,0,0,2.27-1,4.53,4.53,0,0,0,.77-2.75Z" transform="translate(-23.84 -6.13)"/><path class="cls-3" d="M635.86,101.78c-.07-.32-.13-.6-.16-.83a5.65,5.65,0,0,1-.05-.71,4.36,4.36,0,0,1-1.52,1.23,4.52,4.52,0,0,1-2.13.5,3.45,3.45,0,0,1-2.34-.72,2.49,2.49,0,0,1-.82-2,2.38,2.38,0,0,1,1.22-2.09,6.25,6.25,0,0,1,3.32-.77h2.27V95.17a2,2,0,0,0-.7-1.6,3.11,3.11,0,0,0-2-.58,5.44,5.44,0,0,0-1.56.22,3.67,3.67,0,0,0-1.19.58l-.09,1.28h-.94V93.24a6,6,0,0,1,1.7-.83A7,7,0,0,1,633,92.1a4.31,4.31,0,0,1,2.74.8,2.71,2.71,0,0,1,1,2.29v4.68c0,.19,0,.38,0,.55a4.52,4.52,0,0,0,.06.53l1,.06v.77Zm-3.74-.75a4.42,4.42,0,0,0,2.18-.52,3.27,3.27,0,0,0,1.35-1.36V97.24h-2.28a4.6,4.6,0,0,0-2.48.59,1.76,1.76,0,0,0-.92,1.5,1.54,1.54,0,0,0,.57,1.24A2.44,2.44,0,0,0,632.12,101Z" transform="translate(-23.84 -6.13)"/><path class="cls-3" d="M642,92.27l.15,1.58V94a3.35,3.35,0,0,1,1.19-1.38,3.18,3.18,0,0,1,1.79-.49,3,3,0,0,1,.42,0l.34.06-.16,1-.84-.06a2.71,2.71,0,0,0-1.76.56,3,3,0,0,0-1,1.54v5.67l1.54.12v.77h-4.22V101l1.55-.12V93.17l-1.55-.12v-.78H642Z" transform="translate(-23.84 -6.13)"/><path class="cls-3" d="M654.4,101.78a7.38,7.38,0,0,1-.16-.83,4.24,4.24,0,0,1,0-.71,4.45,4.45,0,0,1-1.52,1.23,4.56,4.56,0,0,1-2.14.5,3.44,3.44,0,0,1-2.33-.72,2.49,2.49,0,0,1-.83-2,2.37,2.37,0,0,1,1.23-2.09,6.2,6.2,0,0,1,3.32-.77h2.27V95.17a2,2,0,0,0-.71-1.6,3.07,3.07,0,0,0-2-.58,5.44,5.44,0,0,0-1.56.22,3.72,3.72,0,0,0-1.18.58l-.1,1.28h-.94V93.24a6.18,6.18,0,0,1,1.71-.83,6.9,6.9,0,0,1,2.11-.31,4.3,4.3,0,0,1,2.73.8,2.71,2.71,0,0,1,1,2.29v4.68c0,.19,0,.38,0,.55a4.52,4.52,0,0,0,.06.53l1,.06v.77Zm-3.74-.75a4.38,4.38,0,0,0,2.17-.52,3.24,3.24,0,0,0,1.36-1.36V97.24H651.9a4.58,4.58,0,0,0-2.47.59,1.75,1.75,0,0,0-.93,1.5,1.52,1.52,0,0,0,.58,1.24A2.44,2.44,0,0,0,650.66,101Z" transform="translate(-23.84 -6.13)"/><path class="cls-3" d="M665.74,93.05l-1.28.09L667,99.4l.33,1.12h.06l.36-1.12,2.52-6.26L669,93.05v-.78h3.46v.78l-1,.08-3.62,8.65h-.92l-3.63-8.65-1-.08v-.78h3.46Z" transform="translate(-23.84 -6.13)"/><path class="cls-3" d="M673.58,96.89a4.89,4.89,0,0,1,1.24-3.45,4.73,4.73,0,0,1,6.6,0,4.89,4.89,0,0,1,1.24,3.45v.29a4.89,4.89,0,0,1-1.24,3.45,4.27,4.27,0,0,1-3.29,1.34,4.31,4.31,0,0,1-3.31-1.34,4.89,4.89,0,0,1-1.24-3.45Zm1.14.29a4.29,4.29,0,0,0,.9,2.77,3.33,3.33,0,0,0,5,0,4.29,4.29,0,0,0,.9-2.77v-.29a4.28,4.28,0,0,0-.9-2.76A3,3,0,0,0,678.11,93a3,3,0,0,0-2.49,1.14,4.28,4.28,0,0,0-.9,2.76Z" transform="translate(-23.84 -6.13)"/><path class="cls-3" d="M688.9,101.08a3.41,3.41,0,0,0,2-.6,1.89,1.89,0,0,0,.86-1.66h1l0,.05a2.55,2.55,0,0,1-1.14,2.21,4.43,4.43,0,0,1-2.74.89,4.07,4.07,0,0,1-3.24-1.33,5,5,0,0,1-1.15-3.43v-.37a5,5,0,0,1,1.15-3.41,4,4,0,0,1,3.23-1.33,5.48,5.48,0,0,1,2.17.41,4.19,4.19,0,0,1,1.6,1.12l.05,2.08h-1L691.56,94a3.11,3.11,0,0,0-1.13-.75,4,4,0,0,0-1.54-.28,2.83,2.83,0,0,0-2.45,1.1,4.56,4.56,0,0,0-.79,2.75v.37a4.6,4.6,0,0,0,.79,2.78A2.81,2.81,0,0,0,688.9,101.08Z" transform="translate(-23.84 -6.13)"/><path class="cls-3" d="M699.42,102a4.24,4.24,0,0,1-3.2-1.32,4.59,4.59,0,0,1-1.28-3.34v-.48a4.78,4.78,0,0,1,1.27-3.39,4,4,0,0,1,3.06-1.34,4,4,0,0,1,3,1.1,4.07,4.07,0,0,1,1.08,3v.89h-7.25v.26A4,4,0,0,0,697,100a3,3,0,0,0,2.42,1.09,5.35,5.35,0,0,0,1.81-.27,3.79,3.79,0,0,0,1.28-.79l.48.73a4.14,4.14,0,0,1-1.46.89A6,6,0,0,1,699.42,102Zm-.15-9a2.81,2.81,0,0,0-2.11.9,3.65,3.65,0,0,0-1,2.23l0,0h6V95.9a2.91,2.91,0,0,0-.78-2.07A2.8,2.8,0,0,0,699.27,93ZM702,90.44v.16h-1.07l-1.58-1.47-1.58,1.47h-1v-.18l2.14-1.94h.93Z" transform="translate(-23.84 -6.13)"/><path class="cls-3" d="M247.19,122a3.41,3.41,0,0,1-1.32,1.15,4.19,4.19,0,0,1-1.9.41,3.51,3.51,0,0,1-2.88-1.28,5.23,5.23,0,0,1-1-3.4v-.18a5.9,5.9,0,0,1,1-3.65,3.43,3.43,0,0,1,2.9-1.36,3.92,3.92,0,0,1,1.86.41,3.72,3.72,0,0,1,1.31,1.19v-4.73l-1.55-.12v-.78h2.69v12.82l1.55.12v.77h-2.57Zm-6-3.12a4.59,4.59,0,0,0,.74,2.74,2.61,2.61,0,0,0,2.25,1,3.32,3.32,0,0,0,1.82-.46,3,3,0,0,0,1.15-1.25v-4.5a3.29,3.29,0,0,0-1.1-1.32,3.09,3.09,0,0,0-1.85-.51,2.54,2.54,0,0,0-2.26,1.14,5.28,5.28,0,0,0-.75,3Z" transform="translate(-23.84 -6.13)"/><path class="cls-3" d="M256.12,123.57a4.28,4.28,0,0,1-3.21-1.32,4.59,4.59,0,0,1-1.27-3.34v-.49a4.73,4.73,0,0,1,1.27-3.38,4.35,4.35,0,0,1,6-.24,4.07,4.07,0,0,1,1.08,3v.89h-7.25v.26a4,4,0,0,0,.92,2.68,3,3,0,0,0,2.43,1.09,5.33,5.33,0,0,0,1.8-.27,3.69,3.69,0,0,0,1.28-.79l.49.72a4.2,4.2,0,0,1-1.46.9A6.07,6.07,0,0,1,256.12,123.57Zm-.15-9a2.83,2.83,0,0,0-2.12.9,3.71,3.71,0,0,0-1,2.23l0,0h6v-.26a2.86,2.86,0,0,0-.79-2.07A2.76,2.76,0,0,0,256,114.59Z" transform="translate(-23.84 -6.13)"/><path class="cls-3" d="M269.5,116.81h-.93l-.13-1.35a3,3,0,0,0-1.08-.64,4.53,4.53,0,0,0-1.49-.23,3,3,0,0,0-1.87.5,1.47,1.47,0,0,0-.62,1.16,1.33,1.33,0,0,0,.54,1.09,5.4,5.4,0,0,0,2.14.76,7.4,7.4,0,0,1,2.74,1,2.08,2.08,0,0,1,.91,1.78,2.26,2.26,0,0,1-1,1.92,4.66,4.66,0,0,1-2.75.74,6.72,6.72,0,0,1-2.07-.3,5,5,0,0,1-1.62-.83v-1.92h.92l.16,1.36a2.8,2.8,0,0,0,1.16.61,5.34,5.34,0,0,0,1.45.19,3.37,3.37,0,0,0,1.95-.5,1.42,1.42,0,0,0,.12-2.38,5,5,0,0,0-2.14-.82,7.57,7.57,0,0,1-2.72-1,2,2,0,0,1-.89-1.71,2.22,2.22,0,0,1,1-1.84,4.25,4.25,0,0,1,2.63-.75,6.14,6.14,0,0,1,2.06.32,4.2,4.2,0,0,1,1.52.86Z" transform="translate(-23.84 -6.13)"/><path class="cls-3" d="M276.31,123.57a4.28,4.28,0,0,1-3.21-1.32,4.59,4.59,0,0,1-1.27-3.34v-.49a4.77,4.77,0,0,1,1.26-3.38,4,4,0,0,1,7.12,2.72v.89H273v.26a4,4,0,0,0,.92,2.68,3,3,0,0,0,2.43,1.09,5.33,5.33,0,0,0,1.8-.27,3.69,3.69,0,0,0,1.28-.79l.49.72a4.15,4.15,0,0,1-1.47.9A6,6,0,0,1,276.31,123.57Zm-.16-9a2.82,2.82,0,0,0-2.11.9,3.71,3.71,0,0,0-1,2.23l0,0h6v-.26a2.86,2.86,0,0,0-.79-2.07A2.8,2.8,0,0,0,276.15,114.59Z" transform="translate(-23.84 -6.13)"/><path class="cls-3" d="M282,122.61l1.55-.12v-7.72l-1.55-.12v-.78h2.55l.11,1.66a3.62,3.62,0,0,1,1.33-1.36,4,4,0,0,1,2-.47,3.28,3.28,0,0,1,2.54.94,4.2,4.2,0,0,1,.88,3v4.9l1.54.12v.77h-4.23v-.77l1.55-.12V117.6a3.25,3.25,0,0,0-.66-2.31,2.48,2.48,0,0,0-1.88-.68,3.18,3.18,0,0,0-1.95.58,3.24,3.24,0,0,0-1.08,1.56v5.74l1.54.12v.77H282Z" transform="translate(-23.84 -6.13)"/><path class="cls-3" d="M297.74,114.65l-1.28.09L299,121l.33,1.12h.06l.36-1.12,2.52-6.26-1.28-.09v-.78h3.46v.78l-1,.08-3.62,8.65h-.91l-3.64-8.65-1-.08v-.78h3.46Z" transform="translate(-23.84 -6.13)"/><path class="cls-3" d="M305.58,118.49a4.87,4.87,0,0,1,1.24-3.45,4.73,4.73,0,0,1,6.6,0,4.87,4.87,0,0,1,1.24,3.45v.29a4.89,4.89,0,0,1-1.24,3.45,4.27,4.27,0,0,1-3.29,1.34,4.31,4.31,0,0,1-3.31-1.34,4.89,4.89,0,0,1-1.24-3.45Zm1.14.29a4.29,4.29,0,0,0,.9,2.77,3.33,3.33,0,0,0,5,0,4.29,4.29,0,0,0,.9-2.77v-.29a4.28,4.28,0,0,0-.9-2.76,3,3,0,0,0-2.51-1.14,3,3,0,0,0-2.49,1.14,4.28,4.28,0,0,0-.9,2.76Z" transform="translate(-23.84 -6.13)"/><path class="cls-3" d="M316.1,110.45v-.78h2.67v12.82l1.55.12v.77H316.1v-.77l1.54-.12V110.57Z" transform="translate(-23.84 -6.13)"/><path class="cls-3" d="M325.09,114.65l-1.28.09,2.56,6.26.34,1.12h.05l.36-1.12,2.53-6.26-1.28-.09v-.78h3.45v.78l-1,.08-3.63,8.65h-.91l-3.64-8.65-1-.08v-.78h3.45Z" transform="translate(-23.84 -6.13)"/><path class="cls-3" d="M337.48,123.57a4.28,4.28,0,0,1-3.21-1.32,4.59,4.59,0,0,1-1.27-3.34v-.49a4.73,4.73,0,0,1,1.27-3.38,4.35,4.35,0,0,1,6-.24,4.07,4.07,0,0,1,1.08,3v.89h-7.25v.26a4,4,0,0,0,.92,2.68,3,3,0,0,0,2.43,1.09,5.33,5.33,0,0,0,1.8-.27,3.69,3.69,0,0,0,1.28-.79l.49.72a4.2,4.2,0,0,1-1.46.9A6.07,6.07,0,0,1,337.48,123.57Zm-.15-9a2.83,2.83,0,0,0-2.12.9,3.71,3.71,0,0,0-1,2.23l0,0h6v-.26a2.86,2.86,0,0,0-.79-2.07A2.78,2.78,0,0,0,337.33,114.59Z" transform="translate(-23.84 -6.13)"/><path class="cls-3" d="M345.87,113.87l.14,1.58v.12a3.43,3.43,0,0,1,1.19-1.38,3.2,3.2,0,0,1,1.79-.49,2.77,2.77,0,0,1,.42,0l.34.06-.15,1-.85-.06a2.73,2.73,0,0,0-1.76.56,3.07,3.07,0,0,0-1,1.54v5.67l1.55.12v.77h-4.23v-.77l1.55-.12v-7.72l-1.55-.12v-.78h2.54Z" transform="translate(-23.84 -6.13)"/><path class="cls-3" d="M363,123.38a7.38,7.38,0,0,1-.16-.83,5.68,5.68,0,0,1-.05-.72,4.36,4.36,0,0,1-1.52,1.24,4.52,4.52,0,0,1-2.13.5,3.4,3.4,0,0,1-2.34-.73,2.46,2.46,0,0,1-.83-2,2.37,2.37,0,0,1,1.23-2.09,6.2,6.2,0,0,1,3.32-.77h2.27v-1.26a2,2,0,0,0-.71-1.6,3.07,3.07,0,0,0-2-.58,5.11,5.11,0,0,0-1.56.22,3.72,3.72,0,0,0-1.18.58l-.1,1.28h-.93v-1.83a6,6,0,0,1,1.7-.83,6.9,6.9,0,0,1,2.11-.31,4.3,4.3,0,0,1,2.73.8,2.71,2.71,0,0,1,1,2.29v4.68c0,.19,0,.37,0,.55a4.52,4.52,0,0,0,.06.53l1,.06v.77Zm-3.74-.75a4.36,4.36,0,0,0,2.17-.52,3.29,3.29,0,0,0,1.36-1.36v-1.91h-2.29a4.58,4.58,0,0,0-2.47.59,1.75,1.75,0,0,0-.93,1.5,1.52,1.52,0,0,0,.58,1.23A2.38,2.38,0,0,0,359.3,122.63Z" transform="translate(-23.84 -6.13)"/><path class="cls-3" d="M366.6,122.61l1.54-.12v-7.72l-1.54-.12v-.78h2.67v8.62l1.55.12v.77H366.6Zm2.67-11.46h-1.13v-1.48h1.13Z" transform="translate(-23.84 -6.13)"/><path class="cls-3" d="M372.52,122.61l1.55-.12v-7.72l-1.55-.12v-.78h2.55l.11,1.66a3.62,3.62,0,0,1,1.33-1.36,4,4,0,0,1,2-.47,3.28,3.28,0,0,1,2.54.94,4.24,4.24,0,0,1,.88,3v4.9l1.54.12v.77h-4.23v-.77l1.55-.12V117.6a3.25,3.25,0,0,0-.66-2.31,2.48,2.48,0,0,0-1.88-.68,3.18,3.18,0,0,0-1.95.58,3.24,3.24,0,0,0-1.08,1.56v5.74l1.54.12v.77h-4.23Z" transform="translate(-23.84 -6.13)"/><path class="cls-3" d="M392.29,122a3.41,3.41,0,0,1-1.32,1.15,4.19,4.19,0,0,1-1.9.41,3.51,3.51,0,0,1-2.88-1.28,5.23,5.23,0,0,1-1-3.4v-.18a5.9,5.9,0,0,1,1-3.65,3.43,3.43,0,0,1,2.9-1.36,3.9,3.9,0,0,1,1.86.41,3.64,3.64,0,0,1,1.31,1.19v-4.73l-1.55-.12v-.78h2.69v12.82l1.55.12v.77h-2.57Zm-6-3.12a4.52,4.52,0,0,0,.75,2.74,2.58,2.58,0,0,0,2.24,1,3.36,3.36,0,0,0,1.83-.46,3.06,3.06,0,0,0,1.14-1.25v-4.5a3.29,3.29,0,0,0-1.1-1.32,3.09,3.09,0,0,0-1.85-.51,2.54,2.54,0,0,0-2.26,1.14,5.28,5.28,0,0,0-.75,3Z" transform="translate(-23.84 -6.13)"/><path class="cls-3" d="M403.78,123.38c-.07-.32-.13-.6-.16-.83a5.68,5.68,0,0,1-.05-.72,4.27,4.27,0,0,1-1.52,1.24,4.52,4.52,0,0,1-2.13.5,3.42,3.42,0,0,1-2.34-.73,2.45,2.45,0,0,1-.82-2A2.38,2.38,0,0,1,398,118.8a6.25,6.25,0,0,1,3.32-.77h2.27v-1.26a2,2,0,0,0-.7-1.6,3.09,3.09,0,0,0-2-.58,5.11,5.11,0,0,0-1.56.22,3.67,3.67,0,0,0-1.19.58l-.09,1.28h-.94v-1.83a6,6,0,0,1,1.7-.83,7,7,0,0,1,2.11-.31,4.31,4.31,0,0,1,2.74.8,2.71,2.71,0,0,1,1,2.29v4.68c0,.19,0,.37,0,.55a4.52,4.52,0,0,0,.06.53l1,.06v.77Zm-3.74-.75a4.39,4.39,0,0,0,2.18-.52,3.27,3.27,0,0,0,1.35-1.36v-1.91h-2.28a4.62,4.62,0,0,0-2.48.59,1.76,1.76,0,0,0-.92,1.5,1.51,1.51,0,0,0,.57,1.23A2.4,2.4,0,0,0,400,122.63Z" transform="translate(-23.84 -6.13)"/><path class="cls-3" d="M411.9,114.65v-.78h2.55l.1,1.57a3.55,3.55,0,0,1,1.32-1.29,4.07,4.07,0,0,1,2-.45,3.38,3.38,0,0,1,2,.53,2.89,2.89,0,0,1,1.13,1.62,3.75,3.75,0,0,1,1.33-1.58,3.69,3.69,0,0,1,2.09-.57,3.21,3.21,0,0,1,2.54,1,4.58,4.58,0,0,1,.9,3.12v4.66l1.54.12v.77h-4.24v-.77l1.55-.12v-4.67a3.71,3.71,0,0,0-.67-2.49,2.43,2.43,0,0,0-1.87-.72,2.62,2.62,0,0,0-2,.78,3.58,3.58,0,0,0-.89,2v.13a.71.71,0,0,1,0,.16v4.81l1.55.12v.77h-4.24v-.77l1.55-.12v-4.67a3.65,3.65,0,0,0-.68-2.47,2.4,2.4,0,0,0-1.86-.74,3,3,0,0,0-1.93.57,3,3,0,0,0-1,1.52v5.79l1.55.12v.77H411.9v-.77l1.54-.12v-7.72Z" transform="translate(-23.84 -6.13)"/><path class="cls-3" d="M437.83,123.38a7.38,7.38,0,0,1-.16-.83,4.28,4.28,0,0,1-.05-.72,4.36,4.36,0,0,1-1.52,1.24,4.53,4.53,0,0,1-2.14.5,3.39,3.39,0,0,1-2.33-.73,2.46,2.46,0,0,1-.83-2A2.37,2.37,0,0,1,432,118.8a6.2,6.2,0,0,1,3.32-.77h2.27v-1.26a2,2,0,0,0-.71-1.6,3.07,3.07,0,0,0-2-.58,5.11,5.11,0,0,0-1.56.22,3.72,3.72,0,0,0-1.18.58l-.09,1.28h-1v-1.83a6.18,6.18,0,0,1,1.71-.83,6.9,6.9,0,0,1,2.11-.31,4.3,4.3,0,0,1,2.73.8,2.71,2.71,0,0,1,1,2.29v4.68c0,.19,0,.37,0,.55a4.52,4.52,0,0,0,.06.53l1,.06v.77Zm-3.74-.75a4.36,4.36,0,0,0,2.17-.52,3.29,3.29,0,0,0,1.36-1.36v-1.91h-2.29a4.58,4.58,0,0,0-2.47.59,1.75,1.75,0,0,0-.93,1.5,1.49,1.49,0,0,0,.58,1.23A2.38,2.38,0,0,0,434.09,122.63Z" transform="translate(-23.84 -6.13)"/><path class="cls-3" d="M441.39,122.61l1.54-.12v-7.72l-1.54-.12v-.78h2.67v8.62l1.55.12v.77h-4.22Zm2.67-11.46h-1.13v-1.48h1.13Z" transform="translate(-23.84 -6.13)"/><path class="cls-3" d="M455,116.81H454l-.13-1.35a3,3,0,0,0-1.08-.64,4.59,4.59,0,0,0-1.5-.23,2.93,2.93,0,0,0-1.86.5,1.44,1.44,0,0,0-.62,1.16,1.32,1.32,0,0,0,.53,1.09,5.47,5.47,0,0,0,2.14.76,7.46,7.46,0,0,1,2.75,1,2.1,2.1,0,0,1,.91,1.78,2.26,2.26,0,0,1-1,1.92,4.68,4.68,0,0,1-2.75.74,6.72,6.72,0,0,1-2.07-.3,4.77,4.77,0,0,1-1.62-.83v-1.92h.92l.16,1.36a2.76,2.76,0,0,0,1.15.61,5.41,5.41,0,0,0,1.46.19,3.39,3.39,0,0,0,1.95-.5,1.41,1.41,0,0,0,.11-2.38,4.85,4.85,0,0,0-2.14-.82,7.51,7.51,0,0,1-2.71-1,2,2,0,0,1-.89-1.71,2.23,2.23,0,0,1,1-1.84,4.27,4.27,0,0,1,2.63-.75,6.2,6.2,0,0,1,2.07.32,4.2,4.2,0,0,1,1.52.86Z" transform="translate(-23.84 -6.13)"/><path class="cls-3" d="M462,118.49a4.88,4.88,0,0,1,1.25-3.45,4.72,4.72,0,0,1,6.59,0,4.88,4.88,0,0,1,1.25,3.45v.29a4.93,4.93,0,0,1-1.24,3.45,4.73,4.73,0,0,1-6.6,0,4.89,4.89,0,0,1-1.25-3.45Zm1.14.29a4.29,4.29,0,0,0,.9,2.77,3,3,0,0,0,2.52,1.13,3,3,0,0,0,2.48-1.13,4.24,4.24,0,0,0,.91-2.77v-.29a4.28,4.28,0,0,0-.91-2.76,3.31,3.31,0,0,0-5,0,4.28,4.28,0,0,0-.9,2.76Z" transform="translate(-23.84 -6.13)"/><path class="cls-3" d="M477.33,114.65v-.78h2.5l.14,1.48a3.53,3.53,0,0,1,1.33-1.22,4,4,0,0,1,1.9-.43,3.44,3.44,0,0,1,2.9,1.36,5.84,5.84,0,0,1,1,3.65v.18a5.2,5.2,0,0,1-1,3.41,3.56,3.56,0,0,1-2.88,1.27,4.31,4.31,0,0,1-1.89-.39A3.32,3.32,0,0,1,480,122.1v4l1.54.11V127h-4.22v-.79l1.55-.11V114.77Zm8.67,4.06a5.22,5.22,0,0,0-.77-3,2.59,2.59,0,0,0-2.28-1.14,3.16,3.16,0,0,0-1.87.51,3.05,3.05,0,0,0-1.07,1.31V121a2.89,2.89,0,0,0,1.12,1.23,3.46,3.46,0,0,0,1.84.45,2.64,2.64,0,0,0,2.26-1,4.46,4.46,0,0,0,.77-2.75Z" transform="translate(-23.84 -6.13)"/><path class="cls-3" d="M488.92,122.61l1.55-.12v-7.72l-1.55-.12v-.78h2.68v8.62l1.54.12v.77h-4.22Zm2.68-11.46h-1.13v-1.48h1.13Z" transform="translate(-23.84 -6.13)"/><path class="cls-3" d="M494.82,110.45v-.78h2.68v12.82l1.55.12v.77h-4.23v-.77l1.55-.12V110.57Z" transform="translate(-23.84 -6.13)"/><path class="cls-3" d="M507.93,123.38a7.38,7.38,0,0,1-.16-.83,5.68,5.68,0,0,1,0-.72,4.27,4.27,0,0,1-1.52,1.24,4.52,4.52,0,0,1-2.13.5,3.4,3.4,0,0,1-2.34-.73,2.45,2.45,0,0,1-.82-2,2.36,2.36,0,0,1,1.22-2.09,6.23,6.23,0,0,1,3.32-.77h2.27v-1.26a1.94,1.94,0,0,0-.71-1.6,3.06,3.06,0,0,0-2-.58,5.18,5.18,0,0,0-1.57.22,3.72,3.72,0,0,0-1.18.58l-.09,1.28h-.94v-1.83A6,6,0,0,1,503,114a7,7,0,0,1,2.11-.31,4.31,4.31,0,0,1,2.74.8,2.71,2.71,0,0,1,1,2.29v4.68c0,.19,0,.37,0,.55a3.07,3.07,0,0,0,.07.53l1,.06v.77Zm-3.74-.75a4.36,4.36,0,0,0,2.17-.52,3.29,3.29,0,0,0,1.36-1.36v-1.91h-2.29a4.58,4.58,0,0,0-2.47.59,1.74,1.74,0,0,0-.92,1.5,1.51,1.51,0,0,0,.57,1.23A2.38,2.38,0,0,0,504.19,122.63Z" transform="translate(-23.84 -6.13)"/><path class="cls-3" d="M514,113.87l.15,1.58v.12a3.35,3.35,0,0,1,1.19-1.38,3.18,3.18,0,0,1,1.79-.49,3,3,0,0,1,.42,0l.33.06-.15,1-.84-.06a2.71,2.71,0,0,0-1.76.56,3,3,0,0,0-1,1.54v5.67l1.54.12v.77h-4.22v-.77l1.55-.12v-7.72l-1.55-.12v-.78H514Z" transform="translate(-23.84 -6.13)"/><path class="cls-3" d="M531.24,122a3.41,3.41,0,0,1-1.32,1.15,4.19,4.19,0,0,1-1.9.41,3.52,3.52,0,0,1-2.88-1.28,5.23,5.23,0,0,1-1-3.4v-.18a5.9,5.9,0,0,1,1-3.65,3.43,3.43,0,0,1,2.9-1.36,3.87,3.87,0,0,1,1.86.41,3.64,3.64,0,0,1,1.31,1.19v-4.73l-1.55-.12v-.78h2.69v12.82l1.55.12v.77h-2.56Zm-6-3.12a4.52,4.52,0,0,0,.75,2.74,2.58,2.58,0,0,0,2.24,1,3.36,3.36,0,0,0,1.83-.46,3.06,3.06,0,0,0,1.14-1.25v-4.5a3.34,3.34,0,0,0-1.09-1.32,3.15,3.15,0,0,0-1.86-.51,2.51,2.51,0,0,0-2.25,1.14,5.2,5.2,0,0,0-.76,3Z" transform="translate(-23.84 -6.13)"/><path class="cls-3" d="M542.73,123.38c-.07-.32-.13-.6-.16-.83a5.68,5.68,0,0,1-.05-.72,4.33,4.33,0,0,1-1.51,1.24,4.59,4.59,0,0,1-2.14.5,3.37,3.37,0,0,1-2.33-.73,2.46,2.46,0,0,1-.83-2,2.38,2.38,0,0,1,1.22-2.09,6.26,6.26,0,0,1,3.33-.77h2.26v-1.26a2,2,0,0,0-.7-1.6,3.07,3.07,0,0,0-2-.58,5.11,5.11,0,0,0-1.56.22,3.61,3.61,0,0,0-1.18.58l-.1,1.28h-.94v-1.83a6.12,6.12,0,0,1,1.7-.83,7,7,0,0,1,2.12-.31,4.3,4.3,0,0,1,2.73.8,2.71,2.71,0,0,1,1,2.29v4.68c0,.19,0,.37,0,.55a4.52,4.52,0,0,0,.06.53l1,.06v.77Zm-3.74-.75a4.39,4.39,0,0,0,2.18-.52,3.27,3.27,0,0,0,1.35-1.36v-1.91h-2.28a4.62,4.62,0,0,0-2.48.59,1.76,1.76,0,0,0-.92,1.5,1.51,1.51,0,0,0,.57,1.23A2.4,2.4,0,0,0,539,122.63Z" transform="translate(-23.84 -6.13)"/><path class="cls-3" d="M556.41,110.58a5.88,5.88,0,0,1,4.19,1.57,5.28,5.28,0,0,1,1.65,4v1.65a5.28,5.28,0,0,1-1.65,4,5.91,5.91,0,0,1-4.19,1.55h-5.56v-.77l1.54-.12v-11l-1.54-.11v-.79h5.56Zm-2.89.9v11h2.89a4.53,4.53,0,0,0,4.7-4.68v-1.67a4.48,4.48,0,0,0-1.33-3.33,4.56,4.56,0,0,0-3.37-1.33Z" transform="translate(-23.84 -6.13)"/><path class="cls-3" d="M568.92,123.57a4.28,4.28,0,0,1-3.21-1.32,4.59,4.59,0,0,1-1.27-3.34v-.49a4.73,4.73,0,0,1,1.27-3.38,4.35,4.35,0,0,1,6-.24,4.07,4.07,0,0,1,1.08,3v.89h-7.25v.26a4,4,0,0,0,.92,2.68,3,3,0,0,0,2.43,1.09,5.33,5.33,0,0,0,1.8-.27,3.69,3.69,0,0,0,1.28-.79l.49.72a4.2,4.2,0,0,1-1.46.9A6,6,0,0,1,568.92,123.57Zm-.15-9a2.79,2.79,0,0,0-2.11.9,3.66,3.66,0,0,0-1,2.23l0,0h6v-.26a2.86,2.86,0,0,0-.79-2.07A2.76,2.76,0,0,0,568.77,114.59Z" transform="translate(-23.84 -6.13)"/><path class="cls-3" d="M579.24,122.68a3.41,3.41,0,0,0,2-.6,1.92,1.92,0,0,0,.86-1.66h1l0,0a2.55,2.55,0,0,1-1.14,2.21,4.43,4.43,0,0,1-2.74.89,4.06,4.06,0,0,1-3.24-1.33,5,5,0,0,1-1.15-3.43v-.37A5,5,0,0,1,576,115a4,4,0,0,1,3.23-1.33,5.48,5.48,0,0,1,2.17.41,4.19,4.19,0,0,1,1.6,1.12l0,2.08h-1l-.18-1.69a3.11,3.11,0,0,0-1.13-.75,4,4,0,0,0-1.54-.28,2.83,2.83,0,0,0-2.45,1.1,4.54,4.54,0,0,0-.79,2.75v.37a4.6,4.6,0,0,0,.79,2.78A2.81,2.81,0,0,0,579.24,122.68Z" transform="translate(-23.84 -6.13)"/><path class="cls-3" d="M585.23,118.49a4.88,4.88,0,0,1,1.25-3.45,4.72,4.72,0,0,1,6.59,0,4.88,4.88,0,0,1,1.25,3.45v.29a4.93,4.93,0,0,1-1.24,3.45,4.73,4.73,0,0,1-6.6,0,4.89,4.89,0,0,1-1.25-3.45Zm1.14.29a4.29,4.29,0,0,0,.9,2.77,3.06,3.06,0,0,0,2.52,1.13,3,3,0,0,0,2.49-1.13,4.29,4.29,0,0,0,.9-2.77v-.29a4.23,4.23,0,0,0-.91-2.76,3.31,3.31,0,0,0-5,0,4.28,4.28,0,0,0-.9,2.76Z" transform="translate(-23.84 -6.13)"/><path class="cls-3" d="M595.92,114.65v-.78h2.55l.11,1.57a3.55,3.55,0,0,1,1.32-1.29,4,4,0,0,1,2-.45,3.41,3.41,0,0,1,2,.53,2.93,2.93,0,0,1,1.13,1.62,3.8,3.8,0,0,1,1.32-1.58,3.69,3.69,0,0,1,2.09-.57,3.19,3.19,0,0,1,2.54,1,4.58,4.58,0,0,1,.9,3.12v4.66l1.55.12v.77h-4.25v-.77l1.55-.12v-4.67a3.66,3.66,0,0,0-.67-2.49,2.41,2.41,0,0,0-1.86-.72,2.65,2.65,0,0,0-2,.78,3.65,3.65,0,0,0-.89,2s0,.09,0,.13v5l1.55.12v.77h-4.23v-.77l1.54-.12v-4.67a3.65,3.65,0,0,0-.67-2.47,2.44,2.44,0,0,0-1.87-.74,2.76,2.76,0,0,0-2.91,2.09v5.79l1.54.12v.77h-4.23v-.77l1.55-.12v-7.72Z" transform="translate(-23.84 -6.13)"/><path class="cls-3" d="M614.46,114.65v-.78H617l.15,1.48a3.46,3.46,0,0,1,1.33-1.22,4,4,0,0,1,1.9-.43,3.44,3.44,0,0,1,2.9,1.36,5.9,5.9,0,0,1,1,3.65v.18a5.26,5.26,0,0,1-1,3.41,3.56,3.56,0,0,1-2.88,1.27,4.31,4.31,0,0,1-1.89-.39,3.42,3.42,0,0,1-1.33-1.08v4l1.55.11V127h-4.22v-.79l1.55-.11V114.77Zm8.67,4.06a5.15,5.15,0,0,0-.78-3,2.56,2.56,0,0,0-2.27-1.14,3,3,0,0,0-3,1.82V121a3,3,0,0,0,1.13,1.23,3.46,3.46,0,0,0,1.84.45,2.66,2.66,0,0,0,2.26-1,4.46,4.46,0,0,0,.77-2.75Z" transform="translate(-23.84 -6.13)"/><path class="cls-3" d="M626.12,118.49a4.88,4.88,0,0,1,1.25-3.45,4.72,4.72,0,0,1,6.59,0,4.88,4.88,0,0,1,1.25,3.45v.29a4.93,4.93,0,0,1-1.24,3.45,4.73,4.73,0,0,1-6.6,0,4.89,4.89,0,0,1-1.25-3.45Zm1.14.29a4.29,4.29,0,0,0,.9,2.77,3.34,3.34,0,0,0,5,0,4.29,4.29,0,0,0,.9-2.77v-.29a4.28,4.28,0,0,0-.91-2.76,3.31,3.31,0,0,0-5,0,4.28,4.28,0,0,0-.9,2.76Z" transform="translate(-23.84 -6.13)"/><path class="cls-3" d="M644.51,116.81h-.93l-.14-1.35a2.91,2.91,0,0,0-1.07-.64,4.63,4.63,0,0,0-1.5-.23,2.93,2.93,0,0,0-1.86.5,1.44,1.44,0,0,0-.62,1.16,1.32,1.32,0,0,0,.53,1.09,5.47,5.47,0,0,0,2.14.76,7.33,7.33,0,0,1,2.74,1,2.08,2.08,0,0,1,.92,1.78,2.26,2.26,0,0,1-1,1.92,4.68,4.68,0,0,1-2.75.74,6.83,6.83,0,0,1-2.08-.3,4.81,4.81,0,0,1-1.61-.83v-1.92h.92l.16,1.36a2.76,2.76,0,0,0,1.15.61,5.41,5.41,0,0,0,1.46.19,3.34,3.34,0,0,0,1.94-.5,1.41,1.41,0,0,0,.12-2.38,4.9,4.9,0,0,0-2.14-.82,7.65,7.65,0,0,1-2.72-1,2,2,0,0,1-.88-1.71,2.23,2.23,0,0,1,1-1.84,4.27,4.27,0,0,1,2.63-.75,6.2,6.2,0,0,1,2.07.32,4.2,4.2,0,0,1,1.52.86Z" transform="translate(-23.84 -6.13)"/><path class="cls-3" d="M646.71,122.61l1.55-.12v-7.72l-1.55-.12v-.78h2.68v8.62l1.54.12v.77h-4.22Zm2.68-11.46h-1.13v-1.48h1.13Z" transform="translate(-23.84 -6.13)"/><path class="cls-3" d="M657.23,122.68a3.41,3.41,0,0,0,2-.6,1.92,1.92,0,0,0,.86-1.66h1l0,0a2.55,2.55,0,0,1-1.14,2.21,4.43,4.43,0,0,1-2.74.89,4.07,4.07,0,0,1-3.24-1.33,5,5,0,0,1-1.15-3.43v-.37A5,5,0,0,1,654,115a4,4,0,0,1,3.23-1.33,5.48,5.48,0,0,1,2.17.41,4.19,4.19,0,0,1,1.6,1.12l0,2.08h-1l-.18-1.69a3.11,3.11,0,0,0-1.13-.75,4,4,0,0,0-1.54-.28,2.83,2.83,0,0,0-2.45,1.1,4.54,4.54,0,0,0-.79,2.75v.37a4.6,4.6,0,0,0,.79,2.78A2.81,2.81,0,0,0,657.23,122.68Zm.29.78-.1.56a2.49,2.49,0,0,1,1.21.43,1.28,1.28,0,0,1,.46,1.08,1.46,1.46,0,0,1-.75,1.28,4.11,4.11,0,0,1-2.15.47l-.06-.68a3.36,3.36,0,0,0,1.42-.27.86.86,0,0,0,.59-.79.73.73,0,0,0-.39-.7,3.91,3.91,0,0,0-1.38-.26l.27-1.12Z" transform="translate(-23.84 -6.13)"/><path class="cls-3" d="M670.31,123.38c-.07-.32-.13-.6-.16-.83a5.69,5.69,0,0,1,0-.72,4.36,4.36,0,0,1-1.52,1.24,4.59,4.59,0,0,1-2.14.5,3.39,3.39,0,0,1-2.33-.73,2.46,2.46,0,0,1-.83-2,2.37,2.37,0,0,1,1.23-2.09,6.2,6.2,0,0,1,3.32-.77h2.27v-1.26a2,2,0,0,0-.71-1.6,3.07,3.07,0,0,0-2-.58,5.11,5.11,0,0,0-1.56.22,3.61,3.61,0,0,0-1.18.58l-.1,1.28h-.94v-1.83a6,6,0,0,1,1.71-.83,6.9,6.9,0,0,1,2.11-.31,4.3,4.3,0,0,1,2.73.8,2.71,2.71,0,0,1,1,2.29v4.68c0,.19,0,.37,0,.55a4.52,4.52,0,0,0,.06.53l1,.06v.77Zm.41-13.17a1.71,1.71,0,0,1-.52,1.28,1.79,1.79,0,0,1-1.3.51,2.58,2.58,0,0,1-1.43-.48,2.35,2.35,0,0,0-1.25-.49,1.06,1.06,0,0,0-.75.31,1.09,1.09,0,0,0-.3.78l-.75-.16a1.74,1.74,0,0,1,1.8-1.78,2.73,2.73,0,0,1,1.4.48,2.62,2.62,0,0,0,1.28.49,1,1,0,0,0,.75-.32,1.09,1.09,0,0,0,.31-.8Zm-4.14,12.42a4.38,4.38,0,0,0,2.17-.52,3.29,3.29,0,0,0,1.36-1.36v-1.91h-2.29a4.56,4.56,0,0,0-2.47.59,1.75,1.75,0,0,0-.93,1.5,1.51,1.51,0,0,0,.57,1.23A2.41,2.41,0,0,0,666.58,122.63Z" transform="translate(-23.84 -6.13)"/><path class="cls-3" d="M674,118.49a4.87,4.87,0,0,1,1.24-3.45,4.73,4.73,0,0,1,6.6,0,4.87,4.87,0,0,1,1.24,3.45v.29a4.89,4.89,0,0,1-1.24,3.45,4.26,4.26,0,0,1-3.28,1.34,4.33,4.33,0,0,1-3.32-1.34,4.89,4.89,0,0,1-1.24-3.45Zm1.14.29a4.29,4.29,0,0,0,.9,2.77,3,3,0,0,0,2.52,1.13,3,3,0,0,0,2.48-1.13,4.29,4.29,0,0,0,.9-2.77v-.29a4.28,4.28,0,0,0-.9-2.76,3.31,3.31,0,0,0-5,0,4.28,4.28,0,0,0-.9,2.76Z" transform="translate(-23.84 -6.13)"/><path class="cls-3" d="M686.67,123.38h-1.35v-1.47h1.35Zm-.12-4.2h-1.13v-8.6h1.13Z" transform="translate(-23.84 -6.13)"/><path class="cls-3" d="M253.07,153.78v.79l-1.55.11v11.9H250.4l-7.85-11h-.06v10.1l1.55.12v.77H239.8v-.77l1.55-.12v-11l-1.55-.11v-.79h2.69l7.85,11h.06V154.68l-1.55-.11v-.79h4.22Z" transform="translate(-23.84 -6.13)"/><path class="cls-3" d="M261.72,166.58a7.38,7.38,0,0,1-.16-.83,5.81,5.81,0,0,1-.05-.72,4.36,4.36,0,0,1-1.52,1.24,4.52,4.52,0,0,1-2.13.5,3.45,3.45,0,0,1-2.34-.72,2.47,2.47,0,0,1-.82-2,2.37,2.37,0,0,1,1.22-2.09,6.23,6.23,0,0,1,3.32-.77h2.27V160a2,2,0,0,0-.71-1.6,3.07,3.07,0,0,0-2-.58,5.11,5.11,0,0,0-1.56.22,3.72,3.72,0,0,0-1.18.58l-.09,1.28h-.94V158a6,6,0,0,1,1.7-.83,6.9,6.9,0,0,1,2.11-.31,4.28,4.28,0,0,1,2.73.8,2.71,2.71,0,0,1,1,2.29v4.67c0,.2,0,.39,0,.56a3.07,3.07,0,0,0,.07.53l1,.06v.77Zm-3.74-.75a4.36,4.36,0,0,0,2.17-.52,3.2,3.2,0,0,0,1.36-1.37V162h-2.29a4.58,4.58,0,0,0-2.47.59,1.75,1.75,0,0,0-.93,1.5,1.52,1.52,0,0,0,.58,1.23A2.38,2.38,0,0,0,258,165.83Z" transform="translate(-23.84 -6.13)"/><path class="cls-3" d="M277.63,165a3.5,3.5,0,0,1-1.33,1.29,4.14,4.14,0,0,1-2,.46,3.24,3.24,0,0,1-2.54-1,4.65,4.65,0,0,1-.91-3.17V158l-1.27-.12v-.78H272v5.53a3.87,3.87,0,0,0,.64,2.5,2.26,2.26,0,0,0,1.82.75,3.56,3.56,0,0,0,2.05-.52,2.85,2.85,0,0,0,1.08-1.46V158l-1.46-.12v-.78h2.6v8.62l1.37.12v.77h-2.37Z" transform="translate(-23.84 -6.13)"/><path class="cls-3" d="M281.56,165.81l1.55-.12V158l-1.55-.12v-.78h2.56l.1,1.66a3.57,3.57,0,0,1,1.34-1.36,4,4,0,0,1,2-.47,3.29,3.29,0,0,1,2.55.94,4.24,4.24,0,0,1,.87,2.95v4.9l1.55.12v.77h-4.23v-.77l1.54-.12V160.8a3.25,3.25,0,0,0-.66-2.31,2.49,2.49,0,0,0-1.87-.68,3.08,3.08,0,0,0-2,.58,3.19,3.19,0,0,0-1.09,1.56v5.74l1.55.12v.77h-4.24Z" transform="translate(-23.84 -6.13)"/><path class="cls-3" d="M294.22,165.81l1.54-.12V158l-1.54-.12v-.78h2.67v8.62l1.55.12v.77h-4.22Zm2.67-11.46h-1.13v-1.48h1.13Z" transform="translate(-23.84 -6.13)"/><path class="cls-3" d="M307.49,165.21a3.56,3.56,0,0,1-1.32,1.15,4.19,4.19,0,0,1-1.9.41,3.51,3.51,0,0,1-2.88-1.28,5.17,5.17,0,0,1-1-3.4v-.18a5.84,5.84,0,0,1,1-3.65,3.43,3.43,0,0,1,2.9-1.36,4,4,0,0,1,1.86.41,3.72,3.72,0,0,1,1.31,1.19v-4.73l-1.55-.12v-.78h2.69v12.82l1.54.12v.77h-2.56Zm-6-3.12a4.52,4.52,0,0,0,.74,2.74,2.61,2.61,0,0,0,2.25,1,3.44,3.44,0,0,0,1.82-.45,3.25,3.25,0,0,0,1.15-1.26v-4.5a3.37,3.37,0,0,0-1.1-1.32,3.13,3.13,0,0,0-1.85-.51,2.53,2.53,0,0,0-2.26,1.14,5.28,5.28,0,0,0-.75,3Z" transform="translate(-23.84 -6.13)"/><path class="cls-3" d="M319,166.58a7.38,7.38,0,0,1-.16-.83,5.81,5.81,0,0,1-.05-.72,4.27,4.27,0,0,1-1.52,1.24,4.52,4.52,0,0,1-2.13.5,3.45,3.45,0,0,1-2.34-.72,2.47,2.47,0,0,1-.82-2,2.37,2.37,0,0,1,1.22-2.09,6.23,6.23,0,0,1,3.32-.77h2.27V160a2,2,0,0,0-.71-1.6,3.07,3.07,0,0,0-2-.58,5.11,5.11,0,0,0-1.56.22,3.72,3.72,0,0,0-1.18.58l-.09,1.28h-.94V158a6,6,0,0,1,1.7-.83,7,7,0,0,1,2.11-.31,4.33,4.33,0,0,1,2.74.8,2.73,2.73,0,0,1,1,2.29v4.67c0,.2,0,.39,0,.56a3.07,3.07,0,0,0,.07.53l1,.06v.77Zm-3.74-.75a4.36,4.36,0,0,0,2.17-.52,3.2,3.2,0,0,0,1.36-1.37V162h-2.29a4.58,4.58,0,0,0-2.47.59,1.74,1.74,0,0,0-.92,1.5,1.51,1.51,0,0,0,.57,1.23A2.38,2.38,0,0,0,315.24,165.83Z" transform="translate(-23.84 -6.13)"/><path class="cls-3" d="M329.75,165.21a3.41,3.41,0,0,1-1.32,1.15,4.19,4.19,0,0,1-1.9.41,3.53,3.53,0,0,1-2.88-1.28,5.23,5.23,0,0,1-1-3.4v-.18a5.9,5.9,0,0,1,1-3.65,3.44,3.44,0,0,1,2.9-1.36,4,4,0,0,1,1.86.41,3.56,3.56,0,0,1,1.31,1.19v-4.73l-1.54-.12v-.78h2.68v12.82l1.55.12v.77h-2.56Zm-6-3.12a4.52,4.52,0,0,0,.75,2.74,2.59,2.59,0,0,0,2.24,1,3.45,3.45,0,0,0,1.83-.45,3.16,3.16,0,0,0,1.14-1.26v-4.5a3.34,3.34,0,0,0-1.09-1.32,3.15,3.15,0,0,0-1.86-.51,2.51,2.51,0,0,0-2.25,1.14,5.2,5.2,0,0,0-.76,3Z" transform="translate(-23.84 -6.13)"/><path class="cls-3" d="M338.68,166.77a4.28,4.28,0,0,1-3.21-1.32,4.63,4.63,0,0,1-1.27-3.34v-.49a4.76,4.76,0,0,1,1.27-3.38,4.05,4.05,0,0,1,3.06-1.34,4,4,0,0,1,3,1.1,4.07,4.07,0,0,1,1.08,3v.89h-7.25v.26a4,4,0,0,0,.93,2.68,3,3,0,0,0,2.42,1.09,5.35,5.35,0,0,0,1.81-.27,3.79,3.79,0,0,0,1.28-.79l.48.72a4,4,0,0,1-1.46.9A6,6,0,0,1,338.68,166.77Zm-.15-9a2.83,2.83,0,0,0-2.11.89,3.68,3.68,0,0,0-1,2.24l0,.05h6v-.27a2.91,2.91,0,0,0-.78-2.07A2.8,2.8,0,0,0,338.53,157.79Z" transform="translate(-23.84 -6.13)"/><path class="cls-3" d="M356.79,160h-.93l-.13-1.35a3,3,0,0,0-1.08-.64,4.53,4.53,0,0,0-1.49-.23,3,3,0,0,0-1.87.5,1.47,1.47,0,0,0-.62,1.16,1.33,1.33,0,0,0,.54,1.09,5.4,5.4,0,0,0,2.14.76,7.4,7.4,0,0,1,2.74,1,2.08,2.08,0,0,1,.91,1.78,2.26,2.26,0,0,1-1,1.92,4.66,4.66,0,0,1-2.75.74,6.77,6.77,0,0,1-2.07-.3,5,5,0,0,1-1.62-.83v-1.91h.92l.16,1.35a2.8,2.8,0,0,0,1.16.61,5.34,5.34,0,0,0,1.45.19,3.35,3.35,0,0,0,2-.5,1.45,1.45,0,0,0,.71-1.22,1.49,1.49,0,0,0-.59-1.16,5,5,0,0,0-2.14-.82,7.57,7.57,0,0,1-2.72-1,2,2,0,0,1-.89-1.71,2.22,2.22,0,0,1,1-1.84,4.25,4.25,0,0,1,2.63-.75,6.14,6.14,0,0,1,2.06.32,4.25,4.25,0,0,1,1.53.86Z" transform="translate(-23.84 -6.13)"/><path class="cls-3" d="M363.6,166.77a4.28,4.28,0,0,1-3.21-1.32,4.59,4.59,0,0,1-1.27-3.34v-.49a4.72,4.72,0,0,1,1.27-3.38,4,4,0,0,1,3.06-1.34,4,4,0,0,1,3,1.1,4.07,4.07,0,0,1,1.08,3v.89h-7.25v.26a4,4,0,0,0,.92,2.68,3,3,0,0,0,2.43,1.09,5.33,5.33,0,0,0,1.8-.27,3.69,3.69,0,0,0,1.28-.79l.49.72a4.2,4.2,0,0,1-1.46.9A6.07,6.07,0,0,1,363.6,166.77Zm-.15-9a2.85,2.85,0,0,0-2.12.89,3.74,3.74,0,0,0-1,2.24l0,.05h6v-.27a2.88,2.88,0,0,0-.79-2.07A2.78,2.78,0,0,0,363.45,157.79Z" transform="translate(-23.84 -6.13)"/><path class="cls-3" d="M369.58,161.91a5.84,5.84,0,0,1,1.05-3.65,3.46,3.46,0,0,1,2.91-1.36,3.83,3.83,0,0,1,1.89.44,3.75,3.75,0,0,1,1.32,1.25l.14-1.52h1v9.39a3.89,3.89,0,0,1-1.08,2.9,4,4,0,0,1-3,1.06,7.54,7.54,0,0,1-1.58-.17,6.45,6.45,0,0,1-1.46-.45l.3-.89a7,7,0,0,0,1.29.42,6.67,6.67,0,0,0,1.43.15,2.85,2.85,0,0,0,2.21-.8,3.15,3.15,0,0,0,.74-2.22v-1.21a3.48,3.48,0,0,1-1.32,1.12,4.12,4.12,0,0,1-1.87.4,3.55,3.55,0,0,1-2.9-1.28,5.23,5.23,0,0,1-1-3.4Zm1.14.18a4.54,4.54,0,0,0,.75,2.74,2.61,2.61,0,0,0,2.25,1,3.38,3.38,0,0,0,1.85-.46,3.11,3.11,0,0,0,1.14-1.29v-4.41a3.42,3.42,0,0,0-1.1-1.36,3.12,3.12,0,0,0-1.87-.52,2.54,2.54,0,0,0-2.26,1.14,5.22,5.22,0,0,0-.76,3Z" transform="translate(-23.84 -6.13)"/><path class="cls-3" d="M388,165a3.41,3.41,0,0,1-1.32,1.29,4.14,4.14,0,0,1-2,.46,3.24,3.24,0,0,1-2.54-1,4.65,4.65,0,0,1-.92-3.17V158l-1.27-.12v-.78h2.4v5.53a3.93,3.93,0,0,0,.64,2.5,2.28,2.28,0,0,0,1.82.75,3.59,3.59,0,0,0,2.06-.52,2.83,2.83,0,0,0,1.07-1.46V158l-1.46-.12v-.78h2.6v8.62l1.38.12v.77h-2.37Z" transform="translate(-23.84 -6.13)"/><path class="cls-3" d="M392,165.81l1.55-.12V158l-1.55-.12v-.78h2.68v8.62l1.55.12v.77H392Zm2.68-11.46h-1.13v-1.48h1.13Z" transform="translate(-23.84 -6.13)"/><path class="cls-3" d="M398,165.81l1.54-.12V158l-1.54-.12v-.78h2.55l.1,1.66a3.57,3.57,0,0,1,1.34-1.36,4,4,0,0,1,2-.47,3.28,3.28,0,0,1,2.54.94,4.24,4.24,0,0,1,.87,2.95v4.9l1.55.12v.77h-4.23v-.77l1.54-.12V160.8a3.25,3.25,0,0,0-.66-2.31,2.49,2.49,0,0,0-1.87-.68,3.08,3.08,0,0,0-1.95.58,3.26,3.26,0,0,0-1.09,1.56v5.74l1.55.12v.77H398Z" transform="translate(-23.84 -6.13)"/><path class="cls-3" d="M413.3,154.64v2.43h2.26v.86H413.3v6.2a1.93,1.93,0,0,0,.37,1.32,1.27,1.27,0,0,0,1,.39,4.78,4.78,0,0,0,.54,0l.6-.07.17.78a3.48,3.48,0,0,1-.69.17,4.54,4.54,0,0,1-.82.07,2.18,2.18,0,0,1-1.68-.64,2.83,2.83,0,0,1-.61-2v-6.2h-1.76v-.86h1.76v-2.43Z" transform="translate(-23.84 -6.13)"/><path class="cls-3" d="M422.18,166.77a4.28,4.28,0,0,1-3.21-1.32,4.59,4.59,0,0,1-1.27-3.34v-.49a4.72,4.72,0,0,1,1.27-3.38A4,4,0,0,1,422,156.9a4,4,0,0,1,3,1.1,4.07,4.07,0,0,1,1.08,3v.89h-7.25v.26a4,4,0,0,0,.92,2.68,3,3,0,0,0,2.43,1.09,5.33,5.33,0,0,0,1.8-.27,3.69,3.69,0,0,0,1.28-.79l.49.72a4.15,4.15,0,0,1-1.47.9A6,6,0,0,1,422.18,166.77Zm-.15-9a2.85,2.85,0,0,0-2.12.89,3.74,3.74,0,0,0-1,2.24l0,.05h6v-.27a2.88,2.88,0,0,0-.79-2.07A2.78,2.78,0,0,0,422,157.79Z" transform="translate(-23.84 -6.13)"/><path class="cls-3" d="M429.76,166.16a3.68,3.68,0,0,1-.36,1.58,3.74,3.74,0,0,1-1,1.31l-.67-.46a4.24,4.24,0,0,0,.66-1.15,3.62,3.62,0,0,0,.21-1.26v-1.25h1.13Z" transform="translate(-23.84 -6.13)"/><path class="cls-3" d="M439.54,157.85l-1.28.09,2.56,6.26.33,1.12h.06l.36-1.12,2.52-6.26-1.28-.09v-.78h3.46v.78l-1,.08-3.63,8.65h-.91l-3.63-8.65-1-.08v-.78h3.46Z" transform="translate(-23.84 -6.13)"/><path class="cls-3" d="M451.92,166.77a4.24,4.24,0,0,1-3.2-1.32,4.59,4.59,0,0,1-1.28-3.34v-.49a4.76,4.76,0,0,1,1.27-3.38,4,4,0,0,1,3.06-1.34,4,4,0,0,1,3,1.1,4.07,4.07,0,0,1,1.08,3v.89h-7.25v.26a4,4,0,0,0,.93,2.68,3,3,0,0,0,2.42,1.09,5.35,5.35,0,0,0,1.81-.27,3.79,3.79,0,0,0,1.28-.79l.48.72a4,4,0,0,1-1.46.9A6,6,0,0,1,451.92,166.77Zm-.15-9a2.83,2.83,0,0,0-2.11.89,3.68,3.68,0,0,0-1,2.24l0,.05h6v-.27a2.91,2.91,0,0,0-.78-2.07A2.8,2.8,0,0,0,451.77,157.79Z" transform="translate(-23.84 -6.13)"/><path class="cls-3" d="M460.31,157.07l.15,1.58v.12a3.35,3.35,0,0,1,1.19-1.38,3.18,3.18,0,0,1,1.79-.49,3,3,0,0,1,.42,0l.33.06-.15,1-.84-.06a2.71,2.71,0,0,0-1.76.56,3,3,0,0,0-1,1.54v5.67l1.54.12v.77h-4.22v-.77l1.55-.12V158l-1.55-.12v-.78h2.53Z" transform="translate(-23.84 -6.13)"/><path class="cls-3" d="M470,166.77a4.28,4.28,0,0,1-3.21-1.32,4.63,4.63,0,0,1-1.27-3.34v-.49a4.76,4.76,0,0,1,1.27-3.38,4,4,0,0,1,3.06-1.34,4,4,0,0,1,3,1.1,4.07,4.07,0,0,1,1.08,3v.89h-7.25v.26a4,4,0,0,0,.93,2.68,3,3,0,0,0,2.42,1.09,5.35,5.35,0,0,0,1.81-.27,3.79,3.79,0,0,0,1.28-.79l.48.72a4,4,0,0,1-1.46.9A6,6,0,0,1,470,166.77Zm-.15-9a2.83,2.83,0,0,0-2.11.89,3.68,3.68,0,0,0-1,2.24l0,.05h6v-.27a2.91,2.91,0,0,0-.78-2.07A2.8,2.8,0,0,0,469.86,157.79Z" transform="translate(-23.84 -6.13)"/><path class="cls-3" d="M475.7,157.85v-.78h2.55l.1,1.58a3.5,3.5,0,0,1,1.32-1.3,4.07,4.07,0,0,1,2-.45,3.38,3.38,0,0,1,2,.53,2.84,2.84,0,0,1,1.13,1.62,3.75,3.75,0,0,1,1.33-1.58,3.69,3.69,0,0,1,2.09-.57,3.21,3.21,0,0,1,2.54,1,4.59,4.59,0,0,1,.9,3.13v4.64l1.54.13v.77h-4.24v-.77l1.55-.13V161a3.71,3.71,0,0,0-.67-2.49,2.43,2.43,0,0,0-1.87-.72,2.64,2.64,0,0,0-2,.78,3.58,3.58,0,0,0-.89,2v.13a.71.71,0,0,1,0,.16v4.81l1.55.12v.77h-4.24v-.77l1.55-.12V161a3.65,3.65,0,0,0-.68-2.47,2.4,2.4,0,0,0-1.86-.74,3,3,0,0,0-1.92.57,2.9,2.9,0,0,0-1,1.52v5.79l1.55.12v.77H475.7v-.77l1.54-.12V158Z" transform="translate(-23.84 -6.13)"/><path class="cls-3" d="M494.44,161.69a4.89,4.89,0,0,1,1.25-3.45,4.72,4.72,0,0,1,6.59,0,4.89,4.89,0,0,1,1.25,3.45V162a4.89,4.89,0,0,1-1.24,3.44,4.71,4.71,0,0,1-6.6,0,4.85,4.85,0,0,1-1.25-3.44Zm1.14.29a4.29,4.29,0,0,0,.9,2.77,3.06,3.06,0,0,0,2.52,1.13,3,3,0,0,0,2.49-1.13,4.29,4.29,0,0,0,.9-2.77v-.29a4.23,4.23,0,0,0-.91-2.76,3.31,3.31,0,0,0-5,0,4.28,4.28,0,0,0-.9,2.76Z" transform="translate(-23.84 -6.13)"/><path class="cls-3" d="M512.83,160h-.93l-.14-1.35a2.91,2.91,0,0,0-1.07-.64,4.59,4.59,0,0,0-1.5-.23,2.93,2.93,0,0,0-1.86.5,1.44,1.44,0,0,0-.62,1.16,1.32,1.32,0,0,0,.53,1.09,5.47,5.47,0,0,0,2.14.76,7.46,7.46,0,0,1,2.75,1,2.1,2.1,0,0,1,.91,1.78,2.26,2.26,0,0,1-1,1.92,4.68,4.68,0,0,1-2.75.74,6.72,6.72,0,0,1-2.07-.3,4.77,4.77,0,0,1-1.62-.83v-1.91h.92l.16,1.35a2.76,2.76,0,0,0,1.15.61,5.41,5.41,0,0,0,1.46.19,3.34,3.34,0,0,0,1.94-.5,1.41,1.41,0,0,0,.12-2.38,4.9,4.9,0,0,0-2.14-.82,7.65,7.65,0,0,1-2.72-1,2,2,0,0,1-.88-1.71,2.23,2.23,0,0,1,1-1.84,4.27,4.27,0,0,1,2.63-.75,6.2,6.2,0,0,1,2.07.32,4.2,4.2,0,0,1,1.52.86Z" transform="translate(-23.84 -6.13)"/><path class="cls-3" d="M519.83,161.69a4.89,4.89,0,0,1,1.25-3.45,4.72,4.72,0,0,1,6.59,0,4.89,4.89,0,0,1,1.25,3.45V162a4.89,4.89,0,0,1-1.24,3.44,4.71,4.71,0,0,1-6.6,0,4.85,4.85,0,0,1-1.25-3.44ZM521,162a4.29,4.29,0,0,0,.9,2.77,3,3,0,0,0,2.52,1.13,3,3,0,0,0,2.48-1.13,4.24,4.24,0,0,0,.91-2.77v-.29a4.28,4.28,0,0,0-.91-2.76,3.31,3.31,0,0,0-5,0,4.28,4.28,0,0,0-.9,2.76Z" transform="translate(-23.84 -6.13)"/><path class="cls-3" d="M535.19,157.85v-.78h2.49l.15,1.48a3.53,3.53,0,0,1,1.33-1.22,4,4,0,0,1,1.9-.43,3.44,3.44,0,0,1,2.9,1.36,5.9,5.9,0,0,1,1,3.65v.18a5.26,5.26,0,0,1-1,3.41,3.56,3.56,0,0,1-2.88,1.27,4.31,4.31,0,0,1-1.89-.39,3.42,3.42,0,0,1-1.33-1.08v4l1.55.12v.78h-4.22v-.78l1.55-.12V158Zm8.67,4.06a5.22,5.22,0,0,0-.77-3,2.59,2.59,0,0,0-2.28-1.14,3,3,0,0,0-2.95,1.82v4.57a3,3,0,0,0,1.13,1.23,3.46,3.46,0,0,0,1.84.45,2.66,2.66,0,0,0,2.26-1,4.46,4.46,0,0,0,.77-2.75Z" transform="translate(-23.84 -6.13)"/><path class="cls-3" d="M546.78,165.81l1.54-.12V158l-1.54-.12v-.78h2.67v8.62l1.55.12v.77h-4.22Zm2.67-11.46h-1.13v-1.48h1.13Z" transform="translate(-23.84 -6.13)"/><path class="cls-3" d="M552.68,153.65v-.78h2.68v12.82l1.54.12v.77h-4.22v-.77l1.55-.12V153.77Z" transform="translate(-23.84 -6.13)"/><path class="cls-3" d="M565.79,166.58a7.38,7.38,0,0,1-.16-.83,5.81,5.81,0,0,1,0-.72,4.36,4.36,0,0,1-1.52,1.24,4.52,4.52,0,0,1-2.13.5,3.45,3.45,0,0,1-2.34-.72,2.47,2.47,0,0,1-.82-2A2.37,2.37,0,0,1,560,162a6.23,6.23,0,0,1,3.32-.77h2.27V160a1.94,1.94,0,0,0-.71-1.6,3.07,3.07,0,0,0-2-.58,5.11,5.11,0,0,0-1.56.22,3.72,3.72,0,0,0-1.18.58l-.09,1.28h-.94V158a6,6,0,0,1,1.7-.83,7,7,0,0,1,2.11-.31,4.33,4.33,0,0,1,2.74.8,2.73,2.73,0,0,1,1,2.29v4.67c0,.2,0,.39,0,.56a3.07,3.07,0,0,0,.07.53l1,.06v.77Zm-3.74-.75a4.36,4.36,0,0,0,2.17-.52,3.2,3.2,0,0,0,1.36-1.37V162h-2.29a4.58,4.58,0,0,0-2.47.59,1.75,1.75,0,0,0-.93,1.5,1.52,1.52,0,0,0,.58,1.23A2.38,2.38,0,0,0,562.05,165.83Z" transform="translate(-23.84 -6.13)"/><path class="cls-3" d="M571.88,157.07l.14,1.58v.12a3.45,3.45,0,0,1,1.2-1.38,3.16,3.16,0,0,1,1.79-.49,3,3,0,0,1,.42,0l.33.06-.15,1-.84-.06a2.71,2.71,0,0,0-1.76.56,3.08,3.08,0,0,0-1,1.54v5.67l1.55.12v.77h-4.22v-.77l1.54-.12V158l-1.54-.12v-.78h2.53Z" transform="translate(-23.84 -6.13)"/><path class="cls-3" d="M589.1,165.21a3.41,3.41,0,0,1-1.32,1.15,4.19,4.19,0,0,1-1.9.41,3.51,3.51,0,0,1-2.88-1.28,5.23,5.23,0,0,1-1-3.4v-.18a5.9,5.9,0,0,1,1-3.65,3.43,3.43,0,0,1,2.9-1.36,4,4,0,0,1,1.86.41,3.64,3.64,0,0,1,1.31,1.19v-4.73l-1.55-.12v-.78h2.69v12.82l1.55.12v.77h-2.57Zm-6-3.12a4.52,4.52,0,0,0,.75,2.74,2.58,2.58,0,0,0,2.24,1,3.45,3.45,0,0,0,1.83-.45,3.16,3.16,0,0,0,1.14-1.26v-4.5a3.29,3.29,0,0,0-1.1-1.32,3.09,3.09,0,0,0-1.85-.51,2.54,2.54,0,0,0-2.26,1.14,5.28,5.28,0,0,0-.75,3Z" transform="translate(-23.84 -6.13)"/><path class="cls-3" d="M600.59,166.58c-.07-.32-.13-.6-.16-.83a5.81,5.81,0,0,1,0-.72,4.33,4.33,0,0,1-1.51,1.24,4.59,4.59,0,0,1-2.14.5,3.47,3.47,0,0,1-2.34-.72,2.51,2.51,0,0,1-.82-2,2.39,2.39,0,0,1,1.22-2.09,6.26,6.26,0,0,1,3.33-.77h2.26V160a2,2,0,0,0-.7-1.6,3.07,3.07,0,0,0-2-.58,5.11,5.11,0,0,0-1.56.22,3.61,3.61,0,0,0-1.18.58l-.1,1.28h-.94V158a6,6,0,0,1,1.7-.83,7,7,0,0,1,2.12-.31,4.3,4.3,0,0,1,2.73.8,2.71,2.71,0,0,1,1,2.29v4.67c0,.2,0,.39,0,.56a4.52,4.52,0,0,0,.06.53l1,.06v.77Zm-3.74-.75a4.39,4.39,0,0,0,2.18-.52,3.18,3.18,0,0,0,1.35-1.37V162H598.1a4.62,4.62,0,0,0-2.48.59,1.76,1.76,0,0,0-.92,1.5,1.51,1.51,0,0,0,.57,1.23A2.4,2.4,0,0,0,596.85,165.83Z" transform="translate(-23.84 -6.13)"/><path class="cls-3" d="M608.56,165.47l1-.13,4.83-11.56H616l4.74,11.56,1,.13v1.11h-4v-1.11l1-.16-.91-2.36h-5.53l-.94,2.36,1,.16v1.11h-4Zm4.43-4h4.38L615.23,156h-.06Z" transform="translate(-23.84 -6.13)"/><path class="cls-3" d="M632.51,162.19a4.9,4.9,0,0,1-1.07,3.31,3.61,3.61,0,0,1-2.93,1.27,4,4,0,0,1-1.75-.36,3.19,3.19,0,0,1-1.23-1l-.17,1.22h-1.62V154.23l-1.55-.24v-1.12h3.42v5.33a3.06,3.06,0,0,1,1.2-1,4,4,0,0,1,1.68-.33,3.5,3.5,0,0,1,3,1.4,6,6,0,0,1,1.06,3.7Zm-1.88-.19a5,5,0,0,0-.64-2.67,2.19,2.19,0,0,0-2-1,2.57,2.57,0,0,0-1.45.39,2.81,2.81,0,0,0-.95,1v4.2a2.68,2.68,0,0,0,1,1,2.63,2.63,0,0,0,1.46.39,2.28,2.28,0,0,0,2-.87,3.78,3.78,0,0,0,.64-2.3Z" transform="translate(-23.84 -6.13)"/><path class="cls-3" d="M642.23,160.06h-1.4l-.31-1.14a2.44,2.44,0,0,0-.86-.48,3.51,3.51,0,0,0-1.17-.18,2.27,2.27,0,0,0-1.48.4,1.24,1.24,0,0,0-.48,1,1.08,1.08,0,0,0,.42.89,4.87,4.87,0,0,0,1.74.58,7.62,7.62,0,0,1,2.9,1,2.06,2.06,0,0,1,.94,1.78,2.38,2.38,0,0,1-1.1,2,4.91,4.91,0,0,1-2.89.79,7.94,7.94,0,0,1-2.1-.26,5.53,5.53,0,0,1-1.66-.72v-2.17h1.41l.35,1.27a1.85,1.85,0,0,0,.87.4,5.38,5.38,0,0,0,1.14.12,2.81,2.81,0,0,0,1.56-.37,1.13,1.13,0,0,0,.57-1,1.15,1.15,0,0,0-.47-.94,4.6,4.6,0,0,0-1.78-.64,7.81,7.81,0,0,1-2.82-1,2,2,0,0,1-1-1.76,2.42,2.42,0,0,1,1.07-2,4.45,4.45,0,0,1,2.77-.81,7.17,7.17,0,0,1,2.1.28,4.51,4.51,0,0,1,1.55.78Z" transform="translate(-23.84 -6.13)"/><path class="cls-3" d="M647.55,154.78v2.29h1.94v1.28h-1.94v5.78a1.22,1.22,0,0,0,.3.94,1.13,1.13,0,0,0,.79.27,3.74,3.74,0,0,0,.55,0,4.46,4.46,0,0,0,.52-.08l.26,1.19a2.55,2.55,0,0,1-.78.25,5.07,5.07,0,0,1-1,.11,2.55,2.55,0,0,1-1.81-.64,2.64,2.64,0,0,1-.67-2v-5.78h-1.63v-1.28h1.63v-2.29Z" transform="translate(-23.84 -6.13)"/><path class="cls-3" d="M651.4,158.19v-1.12h3.22l.18,1.38a3.38,3.38,0,0,1,1.08-1.14,2.57,2.57,0,0,1,1.46-.41,3.4,3.4,0,0,1,.45,0l.36.06-.25,1.61-1.06,0a2.28,2.28,0,0,0-1.24.32,2,2,0,0,0-.78.9v5.46l1.54.24v1.11h-5v-1.11l1.55-.24v-6.8Z" transform="translate(-23.84 -6.13)"/><path class="cls-3" d="M666.14,166.58c-.06-.26-.1-.49-.13-.69a4.36,4.36,0,0,1-.07-.62,4.35,4.35,0,0,1-1.35,1.07,3.72,3.72,0,0,1-1.73.43,3.63,3.63,0,0,1-2.44-.73,2.54,2.54,0,0,1-.84-2,2.31,2.31,0,0,1,1.18-2.09,6.12,6.12,0,0,1,3.24-.73h1.93v-1.11a1.63,1.63,0,0,0-.57-1.32,2.34,2.34,0,0,0-1.58-.49,4.19,4.19,0,0,0-1.24.16,2.55,2.55,0,0,0-.87.46l-.2,1H660V158a5.61,5.61,0,0,1,1.7-.83,7.09,7.09,0,0,1,2.16-.31,4.55,4.55,0,0,1,2.83.82,2.8,2.8,0,0,1,1.08,2.37V165l0,.35.76.09v1.11Zm-3-1.26a3.48,3.48,0,0,0,1.7-.42,2.62,2.62,0,0,0,1.1-1v-1.57h-2a3,3,0,0,0-1.82.5,1.42,1.42,0,0,0-.67,1.19,1.15,1.15,0,0,0,.42,1A2,2,0,0,0,663.13,165.32Z" transform="translate(-23.84 -6.13)"/><path class="cls-3" d="M674.76,165.41a2.59,2.59,0,0,0,1.63-.53,1.56,1.56,0,0,0,.71-1.3h1.68l0,0a2.59,2.59,0,0,1-1.18,2.18,4.51,4.51,0,0,1-2.86,1,4.25,4.25,0,0,1-3.42-1.36,5,5,0,0,1-1.19-3.4v-.37a5,5,0,0,1,1.19-3.39,4.31,4.31,0,0,1,3.42-1.35,6.13,6.13,0,0,1,2.21.37,4.57,4.57,0,0,1,1.63,1l.09,2.11H677.2l-.41-1.49a2.62,2.62,0,0,0-.86-.49,3.55,3.55,0,0,0-1.17-.18,2.29,2.29,0,0,0-2.1,1,4.25,4.25,0,0,0-.64,2.4V162a4.39,4.39,0,0,0,.63,2.43A2.31,2.31,0,0,0,674.76,165.41Zm.07,1.25-.11.46a1.85,1.85,0,0,1,1,.46,1.31,1.31,0,0,1,.41,1.06,1.54,1.54,0,0,1-.75,1.34,3.78,3.78,0,0,1-2.14.5l-.07-.95a2.44,2.44,0,0,0,1.1-.22.7.7,0,0,0,.41-.65.58.58,0,0,0-.34-.58,3.29,3.29,0,0,0-1.17-.23l.31-1.19Z" transform="translate(-23.84 -6.13)"/><path class="cls-3" d="M687.32,166.58c-.05-.26-.1-.49-.13-.69s-.05-.41-.06-.62a4.52,4.52,0,0,1-1.36,1.07,3.72,3.72,0,0,1-1.73.43,3.65,3.65,0,0,1-2.44-.73,2.53,2.53,0,0,1-.83-2,2.31,2.31,0,0,1,1.18-2.09,6.1,6.1,0,0,1,3.24-.73h1.93v-1.11a1.63,1.63,0,0,0-.57-1.32,2.35,2.35,0,0,0-1.59-.49,4.24,4.24,0,0,0-1.24.16,2.65,2.65,0,0,0-.87.46l-.2,1h-1.44V158a5.73,5.73,0,0,1,1.7-.83,7.18,7.18,0,0,1,2.16-.31,4.53,4.53,0,0,1,2.83.82,2.8,2.8,0,0,1,1.08,2.37v4.57c0,.13,0,.25,0,.37s0,.23,0,.35l.76.09v1.11Zm.93-13.35a1.9,1.9,0,0,1-.56,1.4,1.92,1.92,0,0,1-1.42.57,2.87,2.87,0,0,1-1.4-.41,2.72,2.72,0,0,0-1.22-.41.94.94,0,0,0-.68.29,1,1,0,0,0-.28.69l-1-.23a2,2,0,0,1,.55-1.42,1.86,1.86,0,0,1,1.42-.6,3.09,3.09,0,0,1,1.33.41,2.93,2.93,0,0,0,1.29.41.91.91,0,0,0,.67-.28,1,1,0,0,0,.29-.7Zm-3.93,12.09a3.44,3.44,0,0,0,1.69-.42,2.65,2.65,0,0,0,1.11-1v-1.57h-2a3,3,0,0,0-1.82.5,1.43,1.43,0,0,0-.66,1.19,1.14,1.14,0,0,0,.41,1A2,2,0,0,0,684.32,165.32Z" transform="translate(-23.84 -6.13)"/><path class="cls-3" d="M691.34,161.74a5,5,0,0,1,1.23-3.48,4.28,4.28,0,0,1,3.35-1.36,4.33,4.33,0,0,1,3.37,1.36,5,5,0,0,1,1.24,3.48v.19a5,5,0,0,1-1.24,3.48,4.28,4.28,0,0,1-3.35,1.36,4.35,4.35,0,0,1-3.37-1.36,5,5,0,0,1-1.23-3.48Zm1.87.19a4.26,4.26,0,0,0,.69,2.5,2.34,2.34,0,0,0,2,1,2.32,2.32,0,0,0,2-1,4.2,4.2,0,0,0,.7-2.5v-.19a4.18,4.18,0,0,0-.7-2.49,2.59,2.59,0,0,0-4.07,0,4.32,4.32,0,0,0-.68,2.49Z" transform="translate(-23.84 -6.13)"/><path class="cls-3" d="M704.1,166.58h-1.35v-1.47h1.35Zm-.12-4.2h-1.13v-8.6H704Z" transform="translate(-23.84 -6.13)"/><path class="cls-3" d="M246.29,198l-1.4.24,3.26,10.23.23.93h.08l.21-.91L252,198.22l-1.39-.24v-2.06h6.73V198l-1.54.19L250.32,213h-3.8l-5.44-14.81-1.52-.19v-2.06h6.73Z" transform="translate(-23.84 -6.13)"/><path class="cls-3" d="M266.64,213a5.18,5.18,0,0,1-.26-.65,4.16,4.16,0,0,1-.18-.67,5,5,0,0,1-1.6,1.13,5.11,5.11,0,0,1-2.16.44,4.75,4.75,0,0,1-3.2-1,3.45,3.45,0,0,1-1.18-2.76,3.09,3.09,0,0,1,1.55-2.75,8.55,8.55,0,0,1,4.53-1H266v-1.24a1.79,1.79,0,0,0-.57-1.42,2.45,2.45,0,0,0-1.68-.51,4.31,4.31,0,0,0-1.13.14,3.15,3.15,0,0,0-.79.32l-.25,1.36h-2.78v-2.81a10.89,10.89,0,0,1,2.33-1.07,9,9,0,0,1,2.85-.43,6.85,6.85,0,0,1,4.13,1.15,3.83,3.83,0,0,1,1.59,3.29v5.24c0,.19,0,.38,0,.55a3.89,3.89,0,0,0,0,.49l1.13.14v2Zm-3.2-2.28a3.46,3.46,0,0,0,1.52-.34,2.83,2.83,0,0,0,1.06-.84v-1.93h-1.88a2.73,2.73,0,0,0-1.79.51,1.57,1.57,0,0,0-.61,1.23,1.22,1.22,0,0,0,.45,1A1.9,1.9,0,0,0,263.44,210.7Z" transform="translate(-23.84 -6.13)"/><path class="cls-3" d="M271.73,202.36V200.3h5.4l.15,1.68a4.43,4.43,0,0,1,1.66-1.41,4.92,4.92,0,0,1,2.29-.5,4.47,4.47,0,0,1,2.26.54,3.39,3.39,0,0,1,1.41,1.63,4.52,4.52,0,0,1,1.65-1.6,4.76,4.76,0,0,1,2.38-.57,4.09,4.09,0,0,1,3.19,1.29,5.75,5.75,0,0,1,1.17,3.95v5.27l1.79.35v2H288v-2l1.6-.35v-5.29a3,3,0,0,0-.51-2,1.9,1.9,0,0,0-1.5-.56,2.72,2.72,0,0,0-1.37.32,2.38,2.38,0,0,0-.91.9c0,.14,0,.27,0,.38s0,.21,0,.32v5.93l1.5.35v2h-6.67v-2l1.49-.35v-5.29a3,3,0,0,0-.51-2,1.87,1.87,0,0,0-1.51-.58,3.12,3.12,0,0,0-1.31.26,2.36,2.36,0,0,0-.93.75v6.84l1.59.35v2h-7.06v-2l1.78-.35v-7.86Z" transform="translate(-23.84 -6.13)"/><path class="cls-3" d="M296.14,206.52a6.43,6.43,0,0,1,1.72-4.64,6.19,6.19,0,0,1,4.74-1.81,6.26,6.26,0,0,1,4.75,1.8,6.51,6.51,0,0,1,1.71,4.65v.25a6.48,6.48,0,0,1-1.71,4.66,7.15,7.15,0,0,1-9.49,0,6.45,6.45,0,0,1-1.72-4.66Zm3.7.25a5.15,5.15,0,0,0,.65,2.78,2.33,2.33,0,0,0,2.13,1,2.29,2.29,0,0,0,2.09-1,5.11,5.11,0,0,0,.67-2.78v-.25a5.16,5.16,0,0,0-.67-2.75,2.62,2.62,0,0,0-4.22,0,5.16,5.16,0,0,0-.65,2.75Z" transform="translate(-23.84 -6.13)"/><path class="cls-3" d="M321.84,204.66h-2.48l-.39-1.58a3.3,3.3,0,0,0-1-.47,4.18,4.18,0,0,0-1.27-.19,2.6,2.6,0,0,0-1.54.41,1.19,1.19,0,0,0-.57,1,1.15,1.15,0,0,0,.54,1,6.41,6.41,0,0,0,2.18.67,9.14,9.14,0,0,1,3.77,1.38,2.93,2.93,0,0,1,1.23,2.5,3.25,3.25,0,0,1-1.59,2.79,7.23,7.23,0,0,1-4.18,1.09,9.56,9.56,0,0,1-2.91-.43,7.66,7.66,0,0,1-2.34-1.22l0-2.85h2.58l.51,1.65a2.16,2.16,0,0,0,.89.38,5.79,5.79,0,0,0,1.19.12,3.21,3.21,0,0,0,1.72-.37,1.13,1.13,0,0,0,0-2,6.11,6.11,0,0,0-2.19-.73,9.27,9.27,0,0,1-3.65-1.35A2.88,2.88,0,0,1,311.1,204a3.41,3.41,0,0,1,1.42-2.74,6.22,6.22,0,0,1,4-1.16,11,11,0,0,1,3,.4,6.35,6.35,0,0,1,2.23,1Z" transform="translate(-23.84 -6.13)"/><path class="cls-3" d="M330,196.76V194.7h5.67v15.88l1.78.35v2h-7.26v-2l1.78-.35V197.11Z" transform="translate(-23.84 -6.13)"/><path class="cls-3" d="M347.34,213a5.18,5.18,0,0,1-.26-.65,4.16,4.16,0,0,1-.18-.67,5,5,0,0,1-1.6,1.13,5.11,5.11,0,0,1-2.16.44,4.7,4.7,0,0,1-3.19-1,3.43,3.43,0,0,1-1.19-2.76,3.09,3.09,0,0,1,1.55-2.75,8.57,8.57,0,0,1,4.53-1h1.88v-1.24a1.79,1.79,0,0,0-.57-1.42,2.45,2.45,0,0,0-1.68-.51,4.31,4.31,0,0,0-1.13.14,3.15,3.15,0,0,0-.79.32l-.24,1.36h-2.79v-2.81a10.89,10.89,0,0,1,2.33-1.07,9,9,0,0,1,2.85-.43,6.85,6.85,0,0,1,4.13,1.15,3.83,3.83,0,0,1,1.59,3.29v5.24c0,.19,0,.38,0,.55a3.89,3.89,0,0,0,0,.49l1.13.14v2Zm-3.2-2.28a3.46,3.46,0,0,0,1.52-.34,2.75,2.75,0,0,0,1.06-.84v-1.93h-1.88a2.73,2.73,0,0,0-1.79.51,1.56,1.56,0,0,0-.6,1.23,1.24,1.24,0,0,0,.44,1A1.9,1.9,0,0,0,344.14,210.7Zm1.24-15.32h3.91l0,.07-3.5,3.05h-3Z" transform="translate(-23.84 -6.13)"/><path class="cls-3" d="M357.26,207.1h-3.69V195.92h3.69Zm0,5.88h-3.69v-3h3.69Z" transform="translate(-23.84 -6.13)"/><circle class="cls-4" cx="91" cy="140.61" r="88"/><path class="cls-3" d="M114.84,61.74a85,85,0,1,1-85,85,85,85,0,0,1,85-85m0-6a91,91,0,1,0,91,91,91.11,91.11,0,0,0-91-91Z" transform="translate(-23.84 -6.13)"/><path class="cls-2" d="M114.61,61.9a84.78,84.78,0,1,0,84.78,84.77A84.77,84.77,0,0,0,114.61,61.9Zm0,163.9a79.13,79.13,0,1,1,79.13-79.13A79.12,79.12,0,0,1,114.61,225.8Z" transform="translate(-23.84 -6.13)"/><path class="cls-2" d="M154.62,85.09a2.82,2.82,0,0,0-3.91.82L146.09,93a2.81,2.81,0,0,0-.39,2.17A2.85,2.85,0,0,0,147,97a35.55,35.55,0,0,1,3.17,2.25c.64.49,1.28,1,1.77,1.33.88.72,1.72,1.48,2.56,2.25l-1.95,2a56.11,56.11,0,0,0-12.39-8.48l5.78-13a2.84,2.84,0,0,0,.06-2.16,2.87,2.87,0,0,0-1.49-1.57,73.93,73.93,0,0,0-26-6.2,2.86,2.86,0,0,0-2,.72,2.81,2.81,0,0,0-.92,2L115,84.52a2.83,2.83,0,0,0,2.67,3l3,.15,3.17.48,1.22.19c.62.09,1.23.17,1.76.3l.39.1-.74,2.76a57.8,57.8,0,0,0-15-1.21l-1.47-14.14a2.85,2.85,0,0,0-1-1.9,2.79,2.79,0,0,0-2.08-.62,72.89,72.89,0,0,0-25.67,7.65A2.83,2.83,0,0,0,80,85.05l3.85,7.55a2.82,2.82,0,0,0,3.71,1.28c.56-.26,1.13-.53,1.69-.81a29.45,29.45,0,0,1,4-1.74l.72-.27c.85-.31,1.68-.62,2.49-.89l.73,2.73c-.69.24-1.37.49-2,.74l-.67.25a26.7,26.7,0,0,0-4,1.71l-1.7.82-4.79,2.76-.32.18L75.4,87.91a2.81,2.81,0,0,0-1.84-1.13,2.76,2.76,0,0,0-2.1.51A73.42,73.42,0,0,0,53,106.67a2.82,2.82,0,0,0,.83,3.91L61,115.2a2.81,2.81,0,0,0,2.17.39,2.87,2.87,0,0,0,1.79-1.29,36.28,36.28,0,0,1,2.25-3.16c.49-.64,1-1.28,1.32-1.78.73-.87,1.49-1.72,2.26-2.55l2,2a56.11,56.11,0,0,0-8.48,12.39l-13-5.78a2.82,2.82,0,0,0-3.73,1.43,73.71,73.71,0,0,0-6.2,26,2.83,2.83,0,0,0,2.68,3l8.46.43a2.78,2.78,0,0,0,2-.71,2.82,2.82,0,0,0,.93-1.95l.15-3,.48-3.17c.07-.4.13-.81.19-1.22.09-.61.17-1.23.29-1.76l.1-.39,2.77.74a57,57,0,0,0-1.21,15l-14.14,1.47a2.83,2.83,0,0,0-2.52,3.1A73.63,73.63,0,0,0,49.19,180a2.83,2.83,0,0,0,3.8,1.23l7.55-3.85a2.83,2.83,0,0,0,1.28-3.71c-.26-.56-.53-1.11-.8-1.67A28.07,28.07,0,0,1,59.27,168l-.28-.75c-.31-.84-.61-1.66-.88-2.47l2.76-.74a56.09,56.09,0,0,0,6.46,13.53l-11.48,8.35a2.82,2.82,0,0,0-.62,4A73.54,73.54,0,0,0,74.6,208.26a2.83,2.83,0,0,0,3.92-.83l4.62-7.1a2.82,2.82,0,0,0-.9-4,38.83,38.83,0,0,1-3.17-2.26c-.63-.49-1.27-1-1.77-1.32-.88-.72-1.72-1.48-2.56-2.25l2-2c.76.69,1.53,1.39,2.48,2.16.55.39,1.08.8,1.62,1.21A34.36,34.36,0,0,0,84,194.13L89,197l.06,0-5.78,13a2.82,2.82,0,0,0-.06,2.17,2.78,2.78,0,0,0,1.49,1.56,73.89,73.89,0,0,0,26,6.21h.15a2.83,2.83,0,0,0,2.82-2.68l.43-8.46a2.82,2.82,0,0,0-2.66-3l-3-.15-3.17-.49c-.4-.07-.81-.12-1.22-.18-.61-.09-1.22-.18-1.76-.3l-.39-.1.75-2.77a57.81,57.81,0,0,0,15,1.22l1.47,14.14a2.82,2.82,0,0,0,3.11,2.51A72.74,72.74,0,0,0,148,212.09a2.82,2.82,0,0,0,1.23-3.8l-3.85-7.55a2.84,2.84,0,0,0-3.71-1.28l-1.69.82a29.45,29.45,0,0,1-4,1.74l-.72.26c-.85.32-1.68.63-2.5.9l-.74-2.77A56.06,56.06,0,0,0,145.47,194l8.35,11.48a2.83,2.83,0,0,0,4,.62,73.57,73.57,0,0,0,18.43-19.38,2.81,2.81,0,0,0-.83-3.91l-7.11-4.63a2.84,2.84,0,0,0-3.95.9,35,35,0,0,1-2.25,3.17c-.49.64-1,1.28-1.33,1.78-.72.87-1.48,1.71-2.25,2.55l-2-1.95A56.15,56.15,0,0,0,165,172.2L178,178a2.84,2.84,0,0,0,3.74-1.43,74.15,74.15,0,0,0,6.2-26.05,2.83,2.83,0,0,0-2.68-3l-8.47-.44a2.84,2.84,0,0,0-3,2.67l-.15,3-.48,3.16c-.08.41-.13.82-.19,1.23-.09.61-.18,1.23-.3,1.75l-.1.39-2.72-.72,0-.07c.15-.66.25-1.33.34-2,.05-.32.09-.63.15-1l.43-2.78a2.58,2.58,0,0,0,0-.29l.15-2.95v-5.91l14.19-1.47a2.87,2.87,0,0,0,1.91-1,2.82,2.82,0,0,0,.61-2.07A73.63,73.63,0,0,0,180,113.33a2.82,2.82,0,0,0-3.8-1.23L168.68,116a2.83,2.83,0,0,0-1.28,3.71c.26.56.54,1.11.81,1.67a28,28,0,0,1,1.74,4.06l.28.74c.31.85.62,1.66.89,2.47l-2.77.74a56.55,56.55,0,0,0-6.45-13.52l11.48-8.36a2.81,2.81,0,0,0,.62-3.94A73.42,73.42,0,0,0,154.62,85.09Zm1.72,27.78a2.85,2.85,0,0,0-.62,3.95,50.46,50.46,0,0,1,8,16.7,2.84,2.84,0,0,0,3.46,2l8.19-2.19a2.82,2.82,0,0,0,2-3.32,40.81,40.81,0,0,0-1.84-5.84l-.23-.61a28.32,28.32,0,0,0-1.58-3.83l2.51-1.29a68.37,68.37,0,0,1,5.48,18.35l-14,1.45a2.84,2.84,0,0,0-2.54,3l.15,2.74v5.4l-.14,2.66-.4,2.6c-.06.37-.12.74-.17,1.11s-.13,1-.23,1.42l-.71,2.72a2.83,2.83,0,0,0,2,3.44l8.19,2.19a2.83,2.83,0,0,0,3.47-2l.82-3.23c.18-.75.29-1.52.4-2.28.05-.37.1-.73.17-1.13l.52-3.49,0-.44,2.77.14a68.84,68.84,0,0,1-4.42,18.61l-12.85-5.73a2.86,2.86,0,0,0-2.17,0,2.83,2.83,0,0,0-1.57,1.49,50.63,50.63,0,0,1-10.47,15.29,2.84,2.84,0,0,0,0,4l6,6a2.74,2.74,0,0,0,2.08.83,2.83,2.83,0,0,0,2-1c.5-.57,1-1.12,1.53-1.68,1-1.07,1.95-2.13,3-3.4.43-.61.89-1.2,1.34-1.79l.95-1.25,2.37,1.54a67.58,67.58,0,0,1-13.17,13.85l-8.29-11.38a2.81,2.81,0,0,0-3.94-.62,50.27,50.27,0,0,1-16.7,8,2.83,2.83,0,0,0-1.72,1.31,2.88,2.88,0,0,0-.28,2.15L128,207.4a2.82,2.82,0,0,0,3.32,2,41.11,41.11,0,0,0,5.86-1.85l.59-.22a28.32,28.32,0,0,0,3.83-1.58l1.28,2.52a68.65,68.65,0,0,1-18.34,5.47l-1.45-14a2.8,2.8,0,0,0-3.09-2.52,52,52,0,0,1-18.5-1.51,2.88,2.88,0,0,0-2.15.28A2.8,2.8,0,0,0,98,197.75l-2.19,8.19a2.78,2.78,0,0,0,.29,2.16,2.82,2.82,0,0,0,1.73,1.31l3.22.82c.76.18,1.53.29,2.3.4l1.12.18,3.49.51.44,0-.15,2.77a68.77,68.77,0,0,1-18.6-4.42l5.72-12.85a2.82,2.82,0,0,0-1.35-3.7L91.67,192l-4.82-2.77a27.21,27.21,0,0,1-2.57-1.83c-.6-.46-1.2-.92-1.64-1.22-.81-.67-1.59-1.39-2.37-2.1-.59-.54-1.17-1.07-1.77-1.6a2.83,2.83,0,0,0-3.85.13l-6,6a2.79,2.79,0,0,0-.82,2.08,2.82,2.82,0,0,0,.94,2c.56.49,1.11,1,1.66,1.51,1.08,1,2.15,2,3.43,3,.6.43,1.19.88,1.78,1.34l1.26.95-1.55,2.37A68.1,68.1,0,0,1,61.5,188.76l11.38-8.28A2.77,2.77,0,0,0,74,178.64a2.82,2.82,0,0,0-.5-2.11,50.17,50.17,0,0,1-8-16.7,2.84,2.84,0,0,0-3.46-2L53.89,160a2.83,2.83,0,0,0-2,3.33,39.46,39.46,0,0,0,1.84,5.83l.23.61a27.79,27.79,0,0,0,1.58,3.83L53,174.91a68.46,68.46,0,0,1-5.47-18.35l14-1.45A2.83,2.83,0,0,0,64,152a51.75,51.75,0,0,1,1.51-18.5,2.83,2.83,0,0,0-2-3.47l-8.19-2.18a2.83,2.83,0,0,0-3.47,2l-.83,3.23c-.17.75-.29,1.51-.4,2.28,0,.36-.1.72-.17,1.13L50,140l0,.43-2.77-.14a68,68,0,0,1,4.42-18.6l12.85,5.73A2.83,2.83,0,0,0,68.17,126a50.71,50.71,0,0,1,10.48-15.3,2.82,2.82,0,0,0,0-4l-6-6a2.87,2.87,0,0,0-2.08-.82,2.79,2.79,0,0,0-2,1L67,102.52c-1,1.06-2,2.13-3,3.4-.43.61-.88,1.2-1.33,1.79-.32.41-.64.82-1,1.25l-2.37-1.54A67.89,67.89,0,0,1,72.53,93.56l8.28,11.38a2.8,2.8,0,0,0,1.85,1.13,2.76,2.76,0,0,0,2.1-.51l.66-.49a10,10,0,0,1,1.39-.95l4.62-2.68q.81-.37,1.62-.78a21.94,21.94,0,0,1,3.31-1.41l.84-.31a28.16,28.16,0,0,1,4.09-1.3,2.83,2.83,0,0,0,1.84-1.28,2.8,2.8,0,0,0,.32-2.22L101.26,86a2.82,2.82,0,0,0-3.32-2,41.93,41.93,0,0,0-5.86,1.85L91.5,86a27.29,27.29,0,0,0-3.83,1.58l-1.29-2.52a68.71,68.71,0,0,1,18.35-5.47l1.44,14a2.86,2.86,0,0,0,1,1.91,2.82,2.82,0,0,0,2.07.61,52,52,0,0,1,18.51,1.51,2.82,2.82,0,0,0,3.46-2l2.19-8.19a2.82,2.82,0,0,0-2-3.47l-3.21-.82c-.76-.18-1.53-.29-2.3-.4l-1.12-.18L121.27,82l-.44,0,.15-2.77a68.12,68.12,0,0,1,18.6,4.42L133.85,96.5a2.86,2.86,0,0,0,0,2.17,2.75,2.75,0,0,0,1.49,1.56,50.89,50.89,0,0,1,15.3,10.48,2.82,2.82,0,0,0,4,0l6-6a2.82,2.82,0,0,0-.12-4.11c-.55-.49-1.11-1-1.66-1.51-1.07-1-2.15-2-3.42-3-.61-.43-1.2-.88-1.78-1.34l-1.26-.95,1.54-2.37a67.58,67.58,0,0,1,13.85,13.17Z" transform="translate(-23.84 -6.13)"/><path class="cls-2" d="M114.61,101.46a45.13,45.13,0,0,0-39,68,1.75,1.75,0,0,0,.18.29,45.4,45.4,0,0,0,11.52,12.9c.08.05.12.12.2.17l.06,0a44.88,44.88,0,0,0,54.06,0s.05,0,.07,0,.12-.12.19-.17a45.43,45.43,0,0,0,11.53-12.9l.18-.29a45.13,45.13,0,0,0-39-68Zm-5.09,6L78.15,162a39.53,39.53,0,0,1,31.37-54.55ZM92.65,179.56l22-38.18,22,38.18a39.48,39.48,0,0,1-43.93,0ZM141.06,176l-22.77-39.58a4.24,4.24,0,0,0-7.35,0L88.17,176a39.49,39.49,0,0,1-6.88-8.1l33.33-58,6.46,11.21c0,.08.08.17.13.25l26.73,46.5a39.8,39.8,0,0,1-6.88,8.1Zm10-14-24.83-43.21a2.15,2.15,0,0,0-.14-.26l-6.38-11.08A39.52,39.52,0,0,1,151.07,162Z" transform="translate(-23.84 -6.13)"/><g class="cls-5"><path class="cls-6" d="M99.77,13a6.29,6.29,0,0,1,4.48,2,10.78,10.78,0,0,1,2.71-.35A9.89,9.89,0,0,1,114.32,18c8.09,3,4.88,7.91,4.69,8.18h.09s4.74,3.32,3.12,4.94c0,0,2.92,3.63.58,5.58a2.44,2.44,0,0,1-.84.43c6.64,10.36,10.61,28.64,8,43.71-.52,3-3.93,5.13-13.12,5.13h0a48,48,0,0,1-8.89-.79c.09.71.19,1.47.3,2.23h0c.46,3.29,1.13,7,1.86,7.57,4.69,3.52,11.68,5,15.61,5.54l5.69.53a13.77,13.77,0,0,1,3,4.34h0l33.21,30.83,26.21-22.17s1.74-6.84,11.44-6.84a25.68,25.68,0,0,1,4,.34c13.23,2.15-1.19,3.71-1.19,3.71s1.49-.13,3.7-.13c3.32,0,8.23.28,12.09,1.69l2,2.44-4.58,4.58a162.51,162.51,0,0,1-16.61,1.46c-1.92,0-3.39-.15-3.92-.54a.37.37,0,0,0-.23-.06c-3.6,0-33.2,27.92-33.2,27.92L136.75,124c.45,6.05.78,12.51.71,18.49a190.62,190.62,0,0,1-1.69,23.07c1.33.94.37,2.94.37,2.94l2.49,19.8c0,.15,0,.3,0,.44,3.1,13.78,2.57,36.61,2.57,36.61a25,25,0,0,0-2.62-.39v1.66h0c-.06,11.54,0,28.21.66,32,1.07,5.94,0,8.87,0,8.87s2.93,46.27,2.93,46.63,4.09,5.62,4.09,5.62,5.41,4.26,9.63,7.64h0a12.64,12.64,0,0,1,3.53,1.49,3.47,3.47,0,0,1,1.06,2.22c.28.19.74.5,1.28.89a13.63,13.63,0,0,0,3.66.68c.57.58,0,1.21-.76,1.71.42.45.67.85.6,1.1-.27,1-4.19,5.14-11.28,5.14-.4,0-.81,0-1.23,0-7.44-.48-17.76-8.41-18.6-10.62a6.57,6.57,0,0,1,.11-4.46,12.37,12.37,0,0,1,1.76-5.26c1-1.76,1.66-6.73,1.66-6.73-10.72-37.63-4.58-42.92-5.75-45.65-.74-1.74-7.37-26.37-12.1-44.09h0v-.06c-.28-1-.55-2-.81-3a12.88,12.88,0,0,1-2.45-1.45,76.55,76.55,0,0,1-12.87,5.1L89.49,259.8s-2.42,8.92-5.29,11.79a127.75,127.75,0,0,1-7.12,20.57c-4.87,10.92-7,25.93-7,25.93S73.55,327,74,332.5c4.11,5.63,7.8,12.57,2.91,14.61A28,28,0,0,1,66.22,349c-5.89,0-11.18-1.39-12.41-2.62-2-2,3.64-17,3.64-17,.17-1.37.56-2.69,1.35-3.24a24.38,24.38,0,0,0,4.29-4.68s-.73-1.95,1.32-4.58,5.07-19.52,5.07-21.73-2.73-18.72,6.37-25.21c0,0,1-21.11,3.7-36.38h0c.29-1.73.61-3.39,1-4.93-2.79.23-4.47.26-4.47.26s2.7-7.53,6.15-17.21c-2.94-.28-1-4.85-1-4.85a24.39,24.39,0,0,0,3.46-2c.38-1,.75-2.11,1.13-3.17-1-2.4,1.46-9.87,1.46-9.87L78.28,185l-26-19.58S73.18,116.23,74,115.38c.54-.54,4.57-2.91,7.35-4.51,2.91-2.9,9.15-5.2,9.15-5.2s6-6.73,7.22-8,.68-4.78.68-4.78l-3.26-12.5a24.6,24.6,0,0,1-8-7.64A2.9,2.9,0,0,1,85,73.6a7.45,7.45,0,0,1-3.79-1.44S73,63.91,75.59,60a2.43,2.43,0,0,1,2.14-1.18c1.7,0,3.72,1.4,5.15,2.6-2.93-2.55-4.49-2.9-5.13-2.9h-.2l0,0,0,0,0,0,0-.06c-.62-.31-3.38-1.83-3.62-4.4C69.1,52.66,70,50.06,70,50.06c-4.49-3.05,0-8,0-8-2-2-.46-4.9-.46-4.9-2.34-3.32.59-7.41.59-7.41.32-3.58,5.68-5.69,5.68-5.69.43-1.79,2.64-2.63,2.64-2.63a3.9,3.9,0,0,1,3.6-2.23,1.79,1.79,0,0,1,.29,0c2-4.2,9.24-4.61,12-4.61.65,0,1,0,1,0A7.28,7.28,0,0,1,99.77,13M92.43,182.73c1.17-3.33,2.18-6.24,2.94-8.46a2.55,2.55,0,0,1,1.25-3.77c.07-.22.12-.4.15-.52,1.17-4.29-9.84-25.33-9.84-25.33l-9.3-5.83-13,24.52,20.85,14.52,7,4.87m67.7,148.18h0M99.77,9.56h0a10.18,10.18,0,0,0-5.46,1.67h0c-4,0-10.6.66-13.93,4.77A7.21,7.21,0,0,0,76,18.84a7.93,7.93,0,0,0-2.83,2.7c-2,1-5.5,3.33-6.34,7-1.25,2.11-2.39,5.62-1,8.94a7.87,7.87,0,0,0,.12,4.47,9.17,9.17,0,0,0-1.3,5.57,7.11,7.11,0,0,0,2,4.16,5.92,5.92,0,0,0,.54,1.58,7.83,7.83,0,0,0,3.78,3.45,8.65,8.65,0,0,0,1.38,2.17c-1.37,2.79-.6,6.36,2.31,10.62a39.4,39.4,0,0,0,4.21,5.11l.17.16.19.15A10.68,10.68,0,0,0,85,77,7.23,7.23,0,0,0,86,77a30.94,30.94,0,0,0,6.21,5.57l2.88,11a7.25,7.25,0,0,1,0,1.92c-1.38,1.44-5.09,5.62-6.56,7.27-1.9.77-6.41,2.75-9.21,5.34C72.55,112,72,112.56,71.6,113c-.66.66-1,1-11.89,26.41-5.27,12.27-10.49,24.6-10.55,24.72l-1,2.46,2.13,1.61,26,19.59,7,5.3c-.72,2.64-1.37,5.9-1,8.34l-.43,1.2c-1,.64-2.06,1.13-2.07,1.14l-1.18.56-.51,1.2c-.43,1-1.7,4.52-.12,7.18l.19.29-5.28,14.78-1.68,4.67,5-.09h.19l-.12.67v0c-2.28,13.08-3.37,30-3.66,35.19C64.4,275.46,65.57,289.32,66,294c0,.43.08,1,.08,1.12,0,2.46-3,17.38-4.38,19.65a9.32,9.32,0,0,0-2.14,5.68,16.63,16.63,0,0,1-2.69,2.84c-1.45,1-2.35,2.72-2.73,5.2-.39,1.06-1.53,4.24-2.51,7.65-2.13,7.34-2.19,10.64-.22,12.61,2.49,2.49,9.44,3.62,14.84,3.62a31.62,31.62,0,0,0,12-2.13,6.9,6.9,0,0,0,4.16-4.57c1-3.58-.62-8.19-5.07-14.46-.59-4.88-2.83-11.21-3.69-13.53.53-3.27,2.65-15.27,6.62-24.16a131.84,131.84,0,0,0,7.11-20.34c2.87-3.58,4.91-10.47,5.43-12.33l13.46-33.76a81.62,81.62,0,0,0,9.88-3.87l.35,1.33v0c10,37.3,11.69,43,12.14,44.25,0,.27-.11.76-.18,1.17-.74,4.42-2.46,14.75,5.71,43.69a23.18,23.18,0,0,1-1.15,4.84,15.62,15.62,0,0,0-2.18,6.28,9.87,9.87,0,0,0,.1,6.32c1.11,2.92,6.54,6.57,8.18,7.62,2.8,1.8,8.27,4.87,13.4,5.2.48,0,1,.05,1.45.05,8.32,0,13.84-4.92,14.59-7.67a3.71,3.71,0,0,0,.11-1.44,4.31,4.31,0,0,0,.38-1.36,4.11,4.11,0,0,0-1.22-3.33l-.94-.95-1.34-.05a11.89,11.89,0,0,1-2.09-.31,6.17,6.17,0,0,0-1.86-2.68,12.34,12.34,0,0,0-4.12-2c-3.48-2.79-7.6-6-8.78-7-1.21-1.56-2.55-3.34-3.17-4.23-.16-2.58-.73-11.78-2.84-45.22a24,24,0,0,0-.09-9.85c-.22-1.21-.7-6.44-.61-28.83l2.54.8.11-4.56c0-.94.49-22.88-2.54-36.93h0l0-.31,0-.3-2.39-19a6,6,0,0,0-.29-4.25,196.86,196.86,0,0,0,1.53-22.1c0-3.34,0-7-.23-11l24.43,19.75,2.33,1.89,2.18-2.06c12.14-11.45,26.78-24.36,30.88-26.76a17.15,17.15,0,0,0,4.12.37,164,164,0,0,0,17.08-1.49l1.14-.16.81-.81,4.58-4.58,2.2-2.2-2-2.4-2-2.43-.6-.73-.88-.32a31.52,31.52,0,0,0-7-1.55,4.88,4.88,0,0,0-3.29-2.76,30.53,30.53,0,0,0-5-1.12,29.16,29.16,0,0,0-4.54-.38c-9.68,0-13.23,5.67-14.33,8.22l-23.21,19.63-30.49-28.3a17.14,17.14,0,0,0-3.36-4.71l-.87-.87-1.24-.12-5.6-.52c-3.34-.49-9.32-1.71-13.4-4.49a26.58,26.58,0,0,1-.74-3.44c1.6.14,3.22.21,4.87.21,3.75,0,15.12,0,16.51-8,2.43-14-.5-31.78-7-43.63,1.33-2.2.9-4.92-.35-7.2a4.1,4.1,0,0,0,0-.7A8.13,8.13,0,0,0,123.09,25a7.53,7.53,0,0,0-.22-3.69c-.83-2.65-3-4.74-6.56-6.22A13.21,13.21,0,0,0,107,11.25a14.48,14.48,0,0,0-1.73.11,9.38,9.38,0,0,0-5.46-1.8ZM69,162.26l9.88-18.59,5.39,3.38c.83,1.62,2.75,5.42,4.62,9.53,3.43,7.57,4.26,10.8,4.45,12a6,6,0,0,0-1.52,2.3,5.83,5.83,0,0,0-.12,3.39c-.32.91-.67,1.92-1.06,3.05l-3.29-2.29L69,162.26Z" transform="translate(-23.84 -6.13)"/><path class="cls-7" d="M134.33,105.42l33.21,30.83,26.21-22.17s2.2-8.64,15.43-6.5-1.19,3.71-1.19,3.71,9.36-.78,15.79,1.56l2,2.44-4.58,4.58s-18.33,2.53-20.53.92-33.43,27.86-33.43,27.86L136.75,124l-6-5.11Z" transform="translate(-23.84 -6.13)"/><path class="cls-8" d="M134.2,325.5a6.57,6.57,0,0,0-.11,4.46c.84,2.21,11.16,10.14,18.6,10.62,7.86.52,12.22-4,12.51-5.1s-5.07-4.57-5.07-4.57Z" transform="translate(-23.84 -6.13)"/><path class="cls-8" d="M57.45,329.38s-5.62,15-3.64,17,14.43,4.35,23.06.74-9.41-22.42-9.41-22.42Z" transform="translate(-23.84 -6.13)"/><path class="cls-7" d="M94.73,78.66l3.7,14.24s.59,3.5-.68,4.77-7.22,8-7.22,8l-3.31,6.53,19.2,10.92L129.33,117l-.68-16.08s-11.73-.75-18.57-5.88c-1.34-1-2.49-12.74-2.49-12.74Z" transform="translate(-23.84 -6.13)"/><path class="cls-9" d="M108.23,87.44c-.36-2.62-.66-5.27-.66-5.27L94.7,78.57l1,4s4,2.63,5.28,3.18A24.63,24.63,0,0,0,108.23,87.44Z" transform="translate(-23.84 -6.13)"/><path class="cls-7" d="M84.05,109.35s-9.18,5.19-10,6-21.71,50.05-21.71,50.05l26,19.58,8.94,6.74s-2.83,8.68-1.17,10.33-4.88,4.75-4.88,4.75-2.53,6,2.6,4.68a76.4,76.4,0,0,0,12.09-4.75l3.45-19.24-13.88-9.66L64.58,163.34l13-24.52,9.3,5.83,11.4-8.34L90.14,115.9l-3.51-7.67Z" transform="translate(-23.84 -6.13)"/><path class="cls-7" d="M87.15,72.75S94.6,86,116.82,86c9.2,0,12.61-2.14,13.13-5.13,3.26-18.75-3.67-42.48-13.29-49.72-8.43-6.35-38.34,17.68-38.34,17.68l6.36,14.3s-6.49-7-9.09-3.12,5.65,12.15,5.65,12.15S84.94,75,87.15,72.75Z" transform="translate(-23.84 -6.13)"/><path class="cls-7" d="M108.28,212.7,89.49,259.8s-2.42,8.92-5.29,11.79a127.75,127.75,0,0,1-7.12,20.57c-4.87,10.92-7,25.93-7,25.93s4.44,11.26,3.9,16.33c0,0,4.24,5.85,2.54,9.22S68.11,345,68.11,345,57,346.46,55.29,343.69s2.1-10.24,2.1-10.24-.54-5.95,1.41-7.31a24.38,24.38,0,0,0,4.29-4.68s-.73-1.95,1.32-4.58,5.07-19.52,5.07-21.73-2.73-18.72,6.37-25.21c0,0,2.21-44.85,8.44-51.09s24-9.94,24-9.94Z" transform="translate(-23.84 -6.13)"/><path class="cls-10" d="M108.28,212.7l-6,15.05S94,231.46,91.86,232c-1.56.38-12.68,3.82-12.31,1.58,1.17-7,2.79-12.75,4.74-14.71,6.24-6.24,24-9.94,24-9.94Z" transform="translate(-23.84 -6.13)"/><path class="cls-7" d="M115,205.72s15.73,59.41,16.9,62.14-5,8,5.75,45.65c0,0-.68,5-1.66,6.73s-3.21,6.24-.39,7.8,12,9.36,15.89,10,11.22-2.73,11.22-2.73,3.9-1.46,2.68-2.68c0,0-3.56-.15-4.73-1.32s-14.43-11.6-14.43-11.6-4.09-5.26-4.09-5.62-2.93-46.63-2.93-46.63,1.07-2.93,0-8.87-.55-43.42-.55-43.42Z" transform="translate(-23.84 -6.13)"/><path class="cls-10" d="M115,205.72s3.7,13.93,4.8,18.05c.42,1.58,18.76,2.85,18.76,2.85l.1-11.41Z" transform="translate(-23.84 -6.13)"/><path class="cls-11" d="M115,217.49c3,6,24.42,7.3,26.19,7.86,0,0,.56-24.21-2.85-37.82S115,217.49,115,217.49Z" transform="translate(-23.84 -6.13)"/><path class="cls-12" d="M89,67.42c3.77,1.56.52-5.2.52-5.2s-.35-6.78-2.27-7.93A27.4,27.4,0,0,1,83,50.87l36-24.66s3.64-5.07-4.68-8.19a9.91,9.91,0,0,0-10.07-3s-3.64-4.35-8.91-.35c0,0-10.59-.62-13,4.58a3.93,3.93,0,0,0-3.89,2.21s-2.21.84-2.64,2.63c0,0-5.36,2.11-5.68,5.69,0,0-2.93,4.09-.59,7.41,0,0-1.54,2.9.46,4.9,0,0-4.49,4.91,0,8,0,0-1.11,3.19,5.46,4.49l2,4s1.87-.85,7.27,4.55S89,67.42,89,67.42Z" transform="translate(-23.84 -6.13)"/><ellipse class="cls-13" cx="105.11" cy="54.27" rx="1.75" ry="2.39" transform="translate(-33.89 21.12) rotate(-14.1)"/><path class="cls-13" d="M102.86,53.19h-.07a1.49,1.49,0,0,1-1.43-1.56c0-.36.21-3.52,2.54-4.78,1.5-.81,3.37-.57,5.54.73a1.5,1.5,0,0,1-1.53,2.57c-1.15-.68-2.09-.93-2.58-.66-.66.35-.94,1.71-1,2.27A1.49,1.49,0,0,1,102.86,53.19Z" transform="translate(-23.84 -6.13)"/><ellipse class="cls-13" cx="120.99" cy="50.42" rx="1.75" ry="2.39" transform="translate(-32.48 24.87) rotate(-14.1)"/><path class="cls-13" d="M119.13,49.13a1.39,1.39,0,0,1-.4-.06,1.49,1.49,0,0,1-1-1.84c.09-.34,1-3.38,3.54-4.09,1.65-.45,3.41.2,5.24,2a1.5,1.5,0,0,1-2.07,2.17c-1-.92-1.83-1.37-2.37-1.22-.72.19-1.3,1.45-1.45,2A1.51,1.51,0,0,1,119.13,49.13Z" transform="translate(-23.84 -6.13)"/><path class="cls-14" d="M107.56,70.08c-.21-.23,12.88.82,17.87-2.86,0,0,1,10-3.47,11S112.06,77.55,107.56,70.08Z" transform="translate(-23.84 -6.13)"/><g class="cls-15"><path class="cls-16" d="M106.7,71.64s12.25,3.5,17.69-2l-.68-2.47-17.94,1.21Z" transform="translate(-23.84 -6.13)"/><path class="cls-17" d="M108.86,76.13s3.93-3.81,10.21-1.27,0,7.12,0,7.12Z" transform="translate(-23.84 -6.13)"/></g><path class="cls-9" d="M119.3,79.62c-5.94,0-10.68-5.53-12.62-9.06L105.82,69l1.79.1c.12,0,12.07.58,17.29-2.71A1,1,0,1,1,126,68.06c-4.47,2.82-12.81,3.08-16.56,3.06,2,2.87,6.9,8.5,13.14,5.79a1,1,0,0,1,.79,1.84A10.16,10.16,0,0,1,119.3,79.62Z" transform="translate(-23.84 -6.13)"/><path class="cls-9" d="M84.39,71.25s-.19-8.53-6.77-10.58" transform="translate(-23.84 -6.13)"/><path class="cls-9" d="M77.63,138.82s5.62-7.54,4.88-6.39c-4.12,6.37,10.53,13.72,14,9.79a8.78,8.78,0,0,1-9.55,2.43Z" transform="translate(-23.84 -6.13)"/><path class="cls-18" d="M90.53,105.67s-6.24,2.3-9.15,5.2c0,0,17.51,25.39,5.55,33.78,0,0,11,21,9.84,25.33S76,228.89,76,228.89s60.44-1.07,62.6-40.59l-2.86-22.74a190.62,190.62,0,0,0,1.69-23.07c.12-11.1-1.09-23.86-2-32.57a14.12,14.12,0,0,0-4.1-8.84l-5.69-.53s4.48,15.06-5.91,16.49C114.17,117.8,100.67,119.61,90.53,105.67Z" transform="translate(-23.84 -6.13)"/><g class="cls-19"><path class="cls-20" d="M78.28,230.37s60.45-1.07,62.6-40.59Z" transform="translate(-23.84 -6.13)"/></g><path class="cls-18" d="M90.53,105.67s-6.24,2.3-9.15,5.2c0,0,17.51,25.39,5.55,33.78,0,0,11,21,9.84,25.33S76,228.89,76,228.89s60.44-1.07,62.6-40.59l-2.86-22.74a190.62,190.62,0,0,0,1.69-23.07c.12-11.1-1.09-23.86-2-32.57a14.12,14.12,0,0,0-4.1-8.84l-5.69-.53s4.48,15.06-5.91,16.49C114.17,117.8,100.67,119.61,90.53,105.67Z" transform="translate(-23.84 -6.13)"/><path class="cls-7" d="M78.28,185l8.94,6.74s-2.83,8.68-1.17,10.33-4.88,4.75-4.88,4.75-2.53,6,2.6,4.68a76.4,76.4,0,0,0,12.09-4.75l2.92-16.32s.9-3.2-2.74-5.34c-2.82-1.65-10.61-7.24-10.61-7.24Z" transform="translate(-23.84 -6.13)"/><path class="cls-8" d="M95.43,174.4s31.87,4.24,40.71-5.9c0,0,1-2-.37-2.94.19,1.87-15,10-39,4.87A2.62,2.62,0,0,0,95.43,174.4Z" transform="translate(-23.84 -6.13)"/><circle class="cls-21" cx="98.07" cy="166.73" r="7.43"/><g class="cls-22"><path class="cls-23" d="M86.61,29.07s-3.19,3.87.85,6.45c1.42.91-4.19,5.27-4.19,5.27L81,53.51a17,17,0,0,1,4.88-1.18L96.14,64.09,89.56,68.2l-21-14.15-14-27,18-16.35L92.29,6.13,88.83,13s-8.36,5.11-5.17,8.79C81.66,23.18,81.27,28.7,86.61,29.07Z" transform="translate(-23.84 -6.13)"/></g><path class="cls-24" d="M77.5,58.58s-3.77-1.69-3.77-4.81S88.42,21.14,119.1,26.21c0,0,4.74,3.32,3.12,4.94,0,0,2.92,3.63.58,5.58S109.09,35.83,77.5,58.58Z" transform="translate(-23.84 -6.13)"/><path class="cls-25" d="M79.16,51.69s19.63-23.92,40.62-20.8C119.78,30.89,100.22,31.94,79.16,51.69Z" transform="translate(-23.84 -6.13)"/><path class="cls-8" d="M54.54,340.83s11.16-4.78,22.32-1.12A4.84,4.84,0,0,0,76,337c-.92-1.47-14.91-3.71-20.86,1.19C55.17,338.17,53.9,340,54.54,340.83Z" transform="translate(-23.84 -6.13)"/><path class="cls-8" d="M148.94,337.11s.43-9.83,11.19-6.2l.29.24a3.49,3.49,0,0,0-1.06-2.27,12.64,12.64,0,0,0-3.53-1.49s-9.86-2.42-9.71,8.05C146.12,335.44,147.65,337.6,148.94,337.11Z" transform="translate(-23.84 -6.13)"/><path class="cls-26" d="M122.73,179.29a7.46,7.46,0,0,1-5.49-2.13c-1.48-1.65-1.89-4-1.24-7.06a1.51,1.51,0,0,1,1.78-1.15,1.49,1.49,0,0,1,1.15,1.78c-.44,2.05-.25,3.53.54,4.42,1.18,1.32,3.57,1.14,3.59,1.13a1.52,1.52,0,0,1,1.65,1.34,1.5,1.5,0,0,1-1.34,1.65S123.1,179.29,122.73,179.29Z" transform="translate(-23.84 -6.13)"/><path class="cls-27" d="M126.39,176.78a1.22,1.22,0,0,1-.32,0,1.5,1.5,0,0,1-1.14-1.79c.45-2,.28-3.53-.51-4.42-1.18-1.32-3.57-1.16-3.59-1.15a1.5,1.5,0,1,1-.29-3c.15,0,3.9-.35,6.12,2.15,1.47,1.65,1.87,4,1.2,7.06A1.51,1.51,0,0,1,126.39,176.78Z" transform="translate(-23.84 -6.13)"/><path class="cls-9" d="M115.17,68a1.5,1.5,0,0,1,0-3c1.31,0,5-1.11,7.61-2-.86-6.53-5-11.42-7.55-13.82A1.5,1.5,0,1,1,117.3,47c3,2.84,8,8.81,8.59,16.91l.08,1.14-1.07.38C124.17,65.71,117.69,68,115.17,68Z" transform="translate(-23.84 -6.13)"/><path class="cls-9" d="M204.26,115.3a4,4,0,0,1-.69-.06,1.5,1.5,0,1,1,.52-3c.88.16,2.17-1.12,2.66-1.84a1.5,1.5,0,0,1,2.48,1.69C209,112.48,207,115.3,204.26,115.3Z" transform="translate(-23.84 -6.13)"/><path class="cls-9" d="M214.1,120.15a1.07,1.07,0,0,1-.35-.06,1,1,0,0,1-.59-1.28c.62-1.72-1.5-4.7-2.29-5.61a1,1,0,0,1,1.51-1.32c.39.45,3.8,4.49,2.66,7.62A1,1,0,0,1,214.1,120.15Z" transform="translate(-23.84 -6.13)"/></g></g></g></svg>