<svg id="Camada_1" data-name="Camada 1" xmlns="http://www.w3.org/2000/svg" xmlns:xlink="http://www.w3.org/1999/xlink" viewBox="0 0 881 249.76"><defs><style>.cls-1{fill:none;}.cls-2{fill:#65c4d1;}.cls-3{fill:#f9f9f9;}.cls-4{fill:#97d8dd;}.cls-5{fill:#fff;}.cls-6{clip-path:url(#clip-path);}.cls-7{fill:#eaa000;}.cls-8{fill:#eac2a7;}.cls-9{fill:#c9a68f;}.cls-10{fill:#d6aa8b;}.cls-11{fill:#d6d6d6;}.cls-12{fill:#c99f4b;}.cls-13{fill:#6d5f56;}.cls-14{fill:#493e38;}.cls-15{clip-path:url(#clip-path-2);}.cls-16{fill:#fcfcfc;}.cls-17{fill:#d32222;}.cls-18{fill:#f4f4f4;}.cls-19{clip-path:url(#clip-path-3);}.cls-20{fill:#b7b7b7;}.cls-21{fill:#6d472e;}.cls-22{fill:#c99e32;}.cls-23{clip-path:url(#clip-path-4);}.cls-24{fill:#aa7e30;}.cls-25{fill:#ddd;}.cls-26{fill:#846829;}.cls-27{fill:#e8cd95;}</style><clipPath id="clip-path"><path class="cls-1" d="M239,116.46C239,46.35,158.5,0,86,0S9.27,49.28,9.27,119.4s26.06,124,98.53,124S239,186.58,239,116.46Z"/></clipPath><clipPath id="clip-path-2"><path class="cls-1" d="M94.58,66.38c-.23-.24,14.13.9,19.61-3.13,0,0,1.08,10.92-3.82,12.12S99.52,74.58,94.58,66.38Z"/></clipPath><clipPath id="clip-path-3"><path class="cls-1" d="M102.71,228.09c3.33,6.62,26.79,8,28.73,8.63,0,0,.61-26.56-3.13-41.48S102.71,228.09,102.71,228.09Z"/></clipPath><clipPath id="clip-path-4"><path class="cls-1" d="M74.19,63.47c4.13,1.71.57-5.71.57-5.71s-.39-7.43-2.5-8.69a30.8,30.8,0,0,1-4.59-3.75l10.57-7.25,28.89-19.8s4-5.57-5.13-9A10.87,10.87,0,0,0,90.94,6s-4-4.77-9.76-.39c0,0-11.62-.68-14.26,5a4.33,4.33,0,0,0-4.28,2.42S60.22,14,59.75,16c0,0-5.88,2.32-6.24,6.24,0,0-3.21,4.49-.64,8.13,0,0-1.69,3.19.5,5.38,0,0-4.92,5.38,0,8.73,0,0-1.21,3.5,6,4.92l2.14,4.42s2.06-.93,8,5Z"/></clipPath></defs><title>9-intro</title><path class="cls-2" d="M871,195.33H152V108H871a10,10,0,0,1,10,10v67.36A10,10,0,0,1,871,195.33Z"/><circle class="cls-3" cx="106" cy="143.76" r="103"/><path class="cls-2" d="M106,43.76a100,100,0,1,1-100,100,100,100,0,0,1,100-100m0-6a106,106,0,1,0,106,106,106.12,106.12,0,0,0-106-106Z"/><path class="cls-4" d="M105.74,43.94a99.74,99.74,0,1,0,99.74,99.74A99.73,99.73,0,0,0,105.74,43.94Zm0,192.83a93.09,93.09,0,1,1,93.09-93.09A93.09,93.09,0,0,1,105.74,236.77Z"/><path class="cls-4" d="M152.81,71.23a3.27,3.27,0,0,0-2.51-.47,3.35,3.35,0,0,0-2.1,1.44l-5.43,8.36a3.32,3.32,0,0,0,1,4.65,42.72,42.72,0,0,1,3.73,2.66c.75.57,1.5,1.14,2.08,1.55,1,.85,2,1.75,3,2.65l-2.3,2.3a66.28,66.28,0,0,0-14.57-10l6.8-15.25a3.32,3.32,0,0,0-1.69-4.4,86.89,86.89,0,0,0-30.63-7.29,3.3,3.3,0,0,0-3.49,3.15l-.52,10a3.33,3.33,0,0,0,3.14,3.49l3.5.17,3.73.57,1.44.22c.72.11,1.44.21,2.07.35l.45.12-.87,3.25a68,68,0,0,0-17.61-1.42l-1.72-16.64a3.31,3.31,0,0,0-3.66-3,85.73,85.73,0,0,0-30.2,9,3.32,3.32,0,0,0-1.45,4.47l4.54,8.88A3.31,3.31,0,0,0,74,81.57c.67-.31,1.33-.63,2-1a34.31,34.31,0,0,1,4.75-2l.85-.32c1-.37,2-.73,2.93-1l.86,3.22c-.82.28-1.61.57-2.4.86l-.79.3a31.13,31.13,0,0,0-4.72,2l-2,1L69.8,87.8l-.38.21L59.61,74.54a3.35,3.35,0,0,0-2.17-1.33,3.3,3.3,0,0,0-2.47.6,86.67,86.67,0,0,0-21.69,22.8,3.33,3.33,0,0,0,1,4.6l8.36,5.44a3.31,3.31,0,0,0,4.65-1.06q1.23-1.92,2.65-3.72c.58-.75,1.15-1.5,1.56-2.09.85-1,1.75-2,2.65-3l2.3,2.3a66.28,66.28,0,0,0-10,14.57l-15.25-6.8a3.34,3.34,0,0,0-4.4,1.69,86.94,86.94,0,0,0-7.29,30.64,3.34,3.34,0,0,0,3.15,3.49l10,.51A3.3,3.3,0,0,0,36.11,140l.18-3.5.56-3.72c.09-.48.16-1,.22-1.45.11-.72.21-1.44.35-2.06l.12-.46,3.25.87a67.61,67.61,0,0,0-1.42,17.61l-16.64,1.73a3.33,3.33,0,0,0-3,3.65,86.8,86.8,0,0,0,9,30.21,3.31,3.31,0,0,0,4.47,1.44l8.88-4.53a3.32,3.32,0,0,0,1.51-4.36c-.31-.66-.63-1.31-1-2a34.73,34.73,0,0,1-2-4.78l-.33-.88c-.37-1-.72-2-1-2.9l3.26-.87A65.71,65.71,0,0,0,50.11,180L36.6,189.8a3.32,3.32,0,0,0-.73,4.65,86.47,86.47,0,0,0,22.8,21.68,3.32,3.32,0,0,0,4.6-1l5.44-8.36a3.32,3.32,0,0,0-1.06-4.66c-1.28-.82-2.53-1.7-3.73-2.65-.74-.58-1.49-1.15-2.08-1.56-1-.85-2-1.74-3-2.65l2.35-2.35c.89.81,1.81,1.63,2.92,2.54.64.46,1.27.94,1.9,1.43a38,38,0,0,0,3.71,2.6l5.93,3.41.08,0-6.81,15.27a3.29,3.29,0,0,0-.07,2.54,3.34,3.34,0,0,0,1.75,1.85,86.78,86.78,0,0,0,30.64,7.29h.17a3.33,3.33,0,0,0,3.32-3.15l.51-10a3.31,3.31,0,0,0-3.14-3.49l-3.49-.18-3.73-.57-1.44-.22c-.72-.1-1.44-.2-2.07-.35l-.46-.12.88-3.25a67.57,67.57,0,0,0,17.6,1.42l1.73,16.64a3.31,3.31,0,0,0,3.65,3,85.57,85.57,0,0,0,30.21-9,3.32,3.32,0,0,0,1.45-4.47l-4.54-8.88a3.32,3.32,0,0,0-4.35-1.51c-.67.31-1.33.64-2,1a34.31,34.31,0,0,1-4.75,2l-.85.32c-1,.37-2,.73-2.93,1.05l-.88-3.25A65.63,65.63,0,0,0,142,199.3l9.83,13.51a3.32,3.32,0,0,0,4.64.73,86.43,86.43,0,0,0,21.68-22.79,3.37,3.37,0,0,0,.47-2.51,3.32,3.32,0,0,0-1.44-2.1l-8.36-5.44a3.32,3.32,0,0,0-2.55-.45,3.28,3.28,0,0,0-2.1,1.51,42.46,42.46,0,0,1-2.65,3.72c-.58.75-1.15,1.51-1.56,2.09-.85,1-1.75,2-2.66,3l-2.29-2.3a66.28,66.28,0,0,0,10-14.57l15.25,6.8a3.33,3.33,0,0,0,4.39-1.69,86.91,86.91,0,0,0,7.3-30.64,3.32,3.32,0,0,0-3.15-3.48l-10-.52a3.35,3.35,0,0,0-3.49,3.14l-.18,3.5-.57,3.73c-.08.48-.15,1-.22,1.44-.1.72-.2,1.44-.35,2.06l-.11.46-3.21-.86,0-.08a23.08,23.08,0,0,0,.41-2.35c.05-.37.1-.74.17-1.15l.51-3.27c0-.11,0-.22,0-.34l.17-3.48V140l16.7-1.73a3.33,3.33,0,0,0,3-3.66,86.8,86.8,0,0,0-9-30.21,3.32,3.32,0,0,0-4.47-1.44l-8.88,4.53a3.33,3.33,0,0,0-1.51,4.36c.31.66.63,1.31.95,2a34.09,34.09,0,0,1,2.05,4.77l.33.88c.37,1,.73,1.95,1,2.91l-3.25.87a66.08,66.08,0,0,0-7.59-15.91l13.5-9.83a3.33,3.33,0,0,0,.74-4.64A86.47,86.47,0,0,0,152.81,71.23Zm2,32.68a3.31,3.31,0,0,0-.73,4.64,59.27,59.27,0,0,1,9.37,19.65,3.34,3.34,0,0,0,4.07,2.35l9.64-2.57a3.33,3.33,0,0,0,2.39-3.91,48.49,48.49,0,0,0-2.17-6.87l-.26-.71a35,35,0,0,0-1.87-4.52l3-1.51A80.26,80.26,0,0,1,184.67,132l-16.46,1.71a3.34,3.34,0,0,0-3,3.48l.17,3.23v6.35l-.17,3.14-.47,3.05c-.07.43-.14.87-.2,1.31-.08.59-.16,1.18-.27,1.67l-.83,3.2a3.32,3.32,0,0,0,2.36,4l9.63,2.57a3.32,3.32,0,0,0,4.08-2.38l1-3.79c.2-.89.33-1.79.46-2.69.06-.43.12-.85.2-1.33l.62-4.11,0-.51,3.27.17a80.93,80.93,0,0,1-5.21,21.89l-15.11-6.74a3.36,3.36,0,0,0-2.55-.07,3.33,3.33,0,0,0-1.85,1.76,59.45,59.45,0,0,1-12.32,18,3.32,3.32,0,0,0,0,4.69l7.05,7.06a3.31,3.31,0,0,0,4.83-.15l1.8-2c1.16-1.25,2.31-2.5,3.53-4,.5-.71,1-1.41,1.57-2.1.37-.49.74-1,1.11-1.47l2.8,1.81a79.87,79.87,0,0,1-15.5,16.3l-9.75-13.39a3.31,3.31,0,0,0-4.64-.73,59.12,59.12,0,0,1-19.64,9.37,3.34,3.34,0,0,0-2.36,4.07l2.58,9.64a3.33,3.33,0,0,0,3.91,2.39,48.78,48.78,0,0,0,6.89-2.18l.69-.25a34.82,34.82,0,0,0,4.51-1.87l1.51,3a80.26,80.26,0,0,1-21.58,6.44l-1.71-16.46a3.28,3.28,0,0,0-1.19-2.24,3.35,3.35,0,0,0-2.44-.73,60.77,60.77,0,0,1-21.77-1.77,3.34,3.34,0,0,0-4.07,2.35l-2.58,9.64a3.32,3.32,0,0,0,.34,2.54,3.37,3.37,0,0,0,2,1.54l3.79,1c.89.21,1.8.34,2.7.47.42.06.85.12,1.32.21l4.11.61.51,0L98.25,223a80.77,80.77,0,0,1-21.88-5.21l6.73-15.11a3.32,3.32,0,0,0-1.59-4.35L78.75,197l-5.67-3.26a32,32,0,0,1-3-2.16c-.7-.54-1.41-1.08-1.92-1.43-1-.79-1.88-1.63-2.8-2.48-.68-.63-1.37-1.26-2.07-1.87a3.33,3.33,0,0,0-4.54.16l-7,7.05a3.33,3.33,0,0,0-1,2.44,3.36,3.36,0,0,0,1.12,2.39l1.95,1.78c1.27,1.16,2.53,2.31,4,3.55.71.5,1.4,1,2.1,1.56l1.48,1.12-1.82,2.8a79.82,79.82,0,0,1-16.29-15.5l13.38-9.74A3.28,3.28,0,0,0,58,181.28a3.33,3.33,0,0,0-.59-2.48A59.34,59.34,0,0,1,48,159.16a3.32,3.32,0,0,0-4.06-2.35l-9.64,2.57a3.33,3.33,0,0,0-2.39,3.91,48.45,48.45,0,0,0,2.16,6.87l.27.71a34.2,34.2,0,0,0,1.86,4.51l-3,1.51a80.51,80.51,0,0,1-6.44-21.58l16.46-1.71a3.33,3.33,0,0,0,3-3.63A61,61,0,0,1,48,128.2a3.33,3.33,0,0,0-2.35-4.08L36,121.55a3.29,3.29,0,0,0-2.53.34,3.35,3.35,0,0,0-1.55,2l-1,3.8c-.2.88-.34,1.78-.47,2.68-.06.43-.12.86-.2,1.33l-.61,4.11,0,.51-3.26-.17a80.54,80.54,0,0,1,5.2-21.89L46.71,121a3.31,3.31,0,0,0,4.39-1.69,59.74,59.74,0,0,1,12.33-18,3.33,3.33,0,0,0,0-4.7l-7.05-7a3.34,3.34,0,0,0-4.84.14c-.59.67-1.19,1.32-1.8,2-1.15,1.25-2.3,2.51-3.52,4-.51.71-1,1.41-1.57,2.11-.37.48-.75,1-1.12,1.47l-2.79-1.82a79.87,79.87,0,0,1,15.5-16.3L66,94.58a3.33,3.33,0,0,0,4.65.73l.77-.58A12.07,12.07,0,0,1,73,93.61l5.44-3.15c.64-.29,1.28-.6,1.91-.91a26.19,26.19,0,0,1,3.89-1.67l1-.37A34.11,34.11,0,0,1,90.07,86a3.36,3.36,0,0,0,2.16-1.51,3.32,3.32,0,0,0,.38-2.61L90,72.24a3.33,3.33,0,0,0-3.91-2.39A49.15,49.15,0,0,0,79.23,72l-.69.26A34.64,34.64,0,0,0,74,74.14l-1.52-3a80.69,80.69,0,0,1,21.59-6.44l1.7,16.46a3.31,3.31,0,0,0,3.63,3,61.2,61.2,0,0,1,21.77,1.77,3.34,3.34,0,0,0,2.53-.33,3.3,3.3,0,0,0,1.54-2L127.86,74a3.3,3.3,0,0,0-.34-2.53,3.35,3.35,0,0,0-2-1.55l-3.78-1c-.9-.2-1.8-.34-2.71-.47l-1.32-.2-4.1-.61-.52,0,.17-3.26a80.45,80.45,0,0,1,21.89,5.2l-6.74,15.12a3.32,3.32,0,0,0,1.7,4.39,59.74,59.74,0,0,1,18,12.33,3.33,3.33,0,0,0,4.7,0l7.05-7a3.34,3.34,0,0,0-.14-4.84c-.66-.58-1.31-1.17-2-1.77-1.26-1.16-2.52-2.32-4-3.55-.71-.51-1.4-1-2.09-1.57l-1.48-1.12,1.81-2.79a79.61,79.61,0,0,1,16.3,15.5Z"/><path class="cls-4" d="M105.74,90.48a53.09,53.09,0,0,0-45.87,80l.2.34A53.59,53.59,0,0,0,73.63,186c.09.06.14.15.23.2l.07,0a52.79,52.79,0,0,0,63.6,0l.09,0c.09-.05.14-.14.22-.2a53.29,53.29,0,0,0,13.56-15.17,3.13,3.13,0,0,0,.21-.34,53.09,53.09,0,0,0-45.87-80Zm-6,7.09-36.9,64.17a46.49,46.49,0,0,1,36.9-64.17ZM79.9,182.36l25.84-44.92,25.84,44.92a46.4,46.4,0,0,1-51.68,0Zm56.95-4.17-26.79-46.57a5,5,0,0,0-8.65,0L74.62,178.19a46.7,46.7,0,0,1-8.09-9.53l39.21-68.19,7.6,13.19.15.29,31.45,54.71a46.7,46.7,0,0,1-8.09,9.53Zm11.78-16.45L119.41,110.9c0-.1-.1-.2-.15-.3l-7.52-13a46.5,46.5,0,0,1,36.89,64.17Z"/><path class="cls-5" d="M258.13,129.85l-1.56.25,3.82,11.08.39,1.35h.07l.39-1.35,3.81-11.09-1.54-.24v-1.49h5.38v1.49l-1.37.19-5.72,15.38h-2L254.1,130l-1.36-.19v-1.49h5.39Z"/><path class="cls-5" d="M278.19,145.42c-.07-.34-.12-.65-.16-.92a7.58,7.58,0,0,1-.08-.82,5.63,5.63,0,0,1-1.67,1.42,4.77,4.77,0,0,1-5.15-.4,3.53,3.53,0,0,1-1-2.72,3.14,3.14,0,0,1,1.46-2.78,7,7,0,0,1,4-1h2.38v-1.48a2.28,2.28,0,0,0-.71-1.76,2.74,2.74,0,0,0-2-.65,4.75,4.75,0,0,0-1.53.22,3,3,0,0,0-1.08.61l-.24,1.34h-1.78V134a6.69,6.69,0,0,1,2.09-1.1,8.32,8.32,0,0,1,2.68-.42,5.34,5.34,0,0,1,3.49,1.1,3.86,3.86,0,0,1,1.33,3.15v6.11c0,.16,0,.32,0,.48a3.71,3.71,0,0,0,0,.47l.94.13v1.47Zm-3.71-1.68a4.22,4.22,0,0,0,2.1-.55,3.48,3.48,0,0,0,1.36-1.33v-2.08h-2.46a3.56,3.56,0,0,0-2.25.65,2,2,0,0,0-.83,1.6,1.59,1.59,0,0,0,.52,1.27A2.36,2.36,0,0,0,274.48,143.74Z"/><path class="cls-5" d="M282.68,144l1.91-.33v-9.06l-1.91-.33v-1.48h4l.15,1.65a4.23,4.23,0,0,1,1.57-1.4,4.79,4.79,0,0,1,2.23-.49,3.94,3.94,0,0,1,2.17.59,3.47,3.47,0,0,1,1.36,1.75,4.84,4.84,0,0,1,1.59-1.71,4.14,4.14,0,0,1,2.29-.63,3.79,3.79,0,0,1,3.07,1.33,6.08,6.08,0,0,1,1.13,4v5.78l1.91.33v1.47H298V144l1.91-.33v-5.8a4.18,4.18,0,0,0-.65-2.65,2.33,2.33,0,0,0-1.91-.78,2.43,2.43,0,0,0-1.94.85,3.64,3.64,0,0,0-.84,2.13v6.25l1.91.33v1.47h-6.13V144l1.91-.33v-5.8a4.1,4.1,0,0,0-.67-2.61,2.3,2.3,0,0,0-1.91-.82,3.21,3.21,0,0,0-1.74.43,2.77,2.77,0,0,0-1,1.22v7.58l1.91.33v1.47h-6.13Z"/><path class="cls-5" d="M305.71,139a7,7,0,0,1,1.52-4.64,5.63,5.63,0,0,1,8.29,0,7,7,0,0,1,1.53,4.64v.26a6.93,6.93,0,0,1-1.52,4.64,5.67,5.67,0,0,1-8.3,0,7,7,0,0,1-1.52-4.63Zm2.31.26a6,6,0,0,0,.85,3.32,3,3,0,0,0,5,0,6,6,0,0,0,.85-3.32V139a6,6,0,0,0-.85-3.32,3.06,3.06,0,0,0-5,0A6.08,6.08,0,0,0,308,139Z"/><path class="cls-5" d="M328.87,136.73h-1.74l-.37-1.52a3.1,3.1,0,0,0-1.06-.64,4.12,4.12,0,0,0-1.45-.24,2.67,2.67,0,0,0-1.83.54,1.68,1.68,0,0,0-.6,1.3,1.45,1.45,0,0,0,.53,1.18,5.37,5.37,0,0,0,2.14.77,9.3,9.3,0,0,1,3.58,1.4,2.84,2.84,0,0,1,1.17,2.38,3.28,3.28,0,0,1-1.36,2.73,5.75,5.75,0,0,1-3.57,1,9.35,9.35,0,0,1-2.59-.33,7.06,7.06,0,0,1-2.05-1l0-2.89h1.74l.43,1.69a2.37,2.37,0,0,0,1.09.53,5.9,5.9,0,0,0,1.4.17,3.25,3.25,0,0,0,1.92-.5,1.53,1.53,0,0,0,.7-1.31,1.55,1.55,0,0,0-.58-1.25,5.35,5.35,0,0,0-2.2-.86,9.22,9.22,0,0,1-3.48-1.37,2.77,2.77,0,0,1-1.17-2.34,3.32,3.32,0,0,1,1.32-2.64,5.19,5.19,0,0,1,3.43-1.09,8.34,8.34,0,0,1,2.59.38,5.39,5.39,0,0,1,1.91,1Z"/><path class="cls-5" d="M341.71,134.23l-1.52.24,2.61,7.22.21.91h.07l.22-.91,2.53-7.22-1.53-.24v-1.48h4.9v1.48l-1.05.18-4.25,11h-1.75l-4.3-11-1-.18v-1.48h4.9Z"/><path class="cls-5" d="M356.39,145.67a5.36,5.36,0,0,1-4.21-1.76,6.66,6.66,0,0,1-1.56-4.58v-.51a6.48,6.48,0,0,1,1.61-4.51,5,5,0,0,1,3.81-1.8,4.8,4.8,0,0,1,3.87,1.55,6.12,6.12,0,0,1,1.32,4.12v1.44H353l0,.06a5,5,0,0,0,.93,3,3,3,0,0,0,2.49,1.18,5.67,5.67,0,0,0,2.06-.34,4.7,4.7,0,0,0,1.53-.92l.9,1.5a5.42,5.42,0,0,1-1.8,1.11A7.18,7.18,0,0,1,356.39,145.67ZM356,134.33a2.49,2.49,0,0,0-2,1,4.64,4.64,0,0,0-1,2.45l0,.06h5.84v-.31a3.56,3.56,0,0,0-.72-2.27A2.6,2.6,0,0,0,356,134.33Z"/><path class="cls-5" d="M363.51,134.23v-1.48h4l.22,1.84a4.44,4.44,0,0,1,1.33-1.53,3.07,3.07,0,0,1,1.81-.55,3.6,3.6,0,0,1,.56,0l.44.09-.31,2.14-1.31-.07a2.65,2.65,0,0,0-1.53.43,2.73,2.73,0,0,0-1,1.2v7.28l1.91.33v1.47h-6.13V144l1.91-.33v-9.06Z"/><path class="cls-5" d="M387.67,145.42c-.07-.34-.12-.65-.16-.92s-.07-.55-.09-.82a5.51,5.51,0,0,1-1.67,1.42,4.77,4.77,0,0,1-5.15-.4,3.56,3.56,0,0,1-1-2.72A3.16,3.16,0,0,1,381,139.2a7,7,0,0,1,4-1h2.38v-1.48a2.27,2.27,0,0,0-.7-1.76,2.75,2.75,0,0,0-2-.65,4.75,4.75,0,0,0-1.53.22,2.84,2.84,0,0,0-1.07.61l-.25,1.34h-1.78V134a6.74,6.74,0,0,1,2.1-1.1,8.21,8.21,0,0,1,2.67-.42,5.37,5.37,0,0,1,3.5,1.1,3.86,3.86,0,0,1,1.33,3.15v6.11c0,.16,0,.32,0,.48a3.71,3.71,0,0,0,0,.47l.93.13v1.47ZM384,143.74a4.15,4.15,0,0,0,2.09-.55,3.35,3.35,0,0,0,1.36-1.33v-2.08H385a3.55,3.55,0,0,0-2.24.65,2,2,0,0,0-.83,1.6,1.56,1.56,0,0,0,.52,1.27A2.36,2.36,0,0,0,384,143.74Z"/><path class="cls-5" d="M398.58,134.23v-1.48h4l.23,1.84a4.44,4.44,0,0,1,1.33-1.53,3.05,3.05,0,0,1,1.81-.55,3.48,3.48,0,0,1,.55,0l.44.09-.3,2.14-1.31-.07a2.69,2.69,0,0,0-1.54.43,2.88,2.88,0,0,0-1,1.2v7.28l1.91.33v1.47h-6.13V144l1.91-.33v-9.06Z"/><path class="cls-5" d="M414.07,145.67a5.36,5.36,0,0,1-4.21-1.76,6.66,6.66,0,0,1-1.56-4.58v-.51a6.48,6.48,0,0,1,1.61-4.51,5,5,0,0,1,3.81-1.8,4.8,4.8,0,0,1,3.87,1.55,6.12,6.12,0,0,1,1.32,4.12v1.44h-8.22l0,.06a5,5,0,0,0,.93,3,3,3,0,0,0,2.49,1.18,5.67,5.67,0,0,0,2.06-.34,4.7,4.7,0,0,0,1.53-.92l.9,1.5a5.42,5.42,0,0,1-1.8,1.11A7.18,7.18,0,0,1,414.07,145.67Zm-.35-11.34a2.49,2.49,0,0,0-2,1,4.64,4.64,0,0,0-1,2.45l0,.06h5.84v-.31a3.56,3.56,0,0,0-.72-2.27A2.6,2.6,0,0,0,413.72,134.33Z"/><path class="cls-5" d="M420.87,128.63v-1.49h4.22v16.48L427,144v1.47h-6.13V144l1.91-.33V129Z"/><path class="cls-5" d="M437,145.42c-.07-.34-.13-.65-.17-.92s-.06-.55-.08-.82a5.51,5.51,0,0,1-1.67,1.42,4.77,4.77,0,0,1-5.15-.4,3.53,3.53,0,0,1-1-2.72,3.16,3.16,0,0,1,1.46-2.78,7,7,0,0,1,4-1h2.38v-1.48a2.27,2.27,0,0,0-.7-1.76,2.75,2.75,0,0,0-2-.65,4.75,4.75,0,0,0-1.53.22,2.84,2.84,0,0,0-1.07.61l-.25,1.34h-1.78V134a6.74,6.74,0,0,1,2.1-1.1,8.21,8.21,0,0,1,2.67-.42,5.32,5.32,0,0,1,3.49,1.1,3.87,3.87,0,0,1,1.34,3.15v6.59l0,.47.94.13v1.47Zm-3.72-1.68a4.16,4.16,0,0,0,2.1-.55,3.42,3.42,0,0,0,1.36-1.33v-2.08H434.3a3.53,3.53,0,0,0-2.24.65,2,2,0,0,0-.83,1.6,1.59,1.59,0,0,0,.51,1.27A2.4,2.4,0,0,0,433.3,143.74Z"/><path class="cls-5" d="M447.66,143.87a3.13,3.13,0,0,0,2-.71,2.19,2.19,0,0,0,.87-1.74h2.08l0,.07a3.56,3.56,0,0,1-1.46,2.91,5.32,5.32,0,0,1-3.53,1.27,5.15,5.15,0,0,1-4.23-1.8,7,7,0,0,1-1.45-4.54v-.49a6.93,6.93,0,0,1,1.46-4.52,5.1,5.1,0,0,1,4.22-1.81,7.23,7.23,0,0,1,2.74.5,5.57,5.57,0,0,1,2,1.39l.11,2.81h-1.84l-.5-2a3.17,3.17,0,0,0-1.06-.65,4.12,4.12,0,0,0-1.45-.24,2.79,2.79,0,0,0-2.6,1.3,6.18,6.18,0,0,0-.78,3.21v.49a6.17,6.17,0,0,0,.78,3.24A2.79,2.79,0,0,0,447.66,143.87Zm.09,1.66-.14.61a2.41,2.41,0,0,1,1.27.61,1.89,1.89,0,0,1,.5,1.42,2.11,2.11,0,0,1-.92,1.79,4.45,4.45,0,0,1-2.65.67l-.08-1.28a2.65,2.65,0,0,0,1.35-.29.92.92,0,0,0,.51-.86.81.81,0,0,0-.42-.78,4.14,4.14,0,0,0-1.44-.31l.37-1.58Z"/><path class="cls-5" d="M463.17,145.42c-.07-.34-.12-.65-.16-.92a7.58,7.58,0,0,1-.08-.82,5.63,5.63,0,0,1-1.67,1.42,4.77,4.77,0,0,1-5.15-.4,3.53,3.53,0,0,1-1-2.72,3.14,3.14,0,0,1,1.46-2.78,7,7,0,0,1,4-1h2.38v-1.48a2.28,2.28,0,0,0-.71-1.76,2.74,2.74,0,0,0-1.95-.65,4.75,4.75,0,0,0-1.53.22,3,3,0,0,0-1.08.61l-.24,1.34h-1.78V134a6.63,6.63,0,0,1,2.1-1.1,8.21,8.21,0,0,1,2.67-.42,5.34,5.34,0,0,1,3.49,1.1,3.87,3.87,0,0,1,1.34,3.15v6.59a3.71,3.71,0,0,0,0,.47l.94.13v1.47Zm1.15-17.8a2.69,2.69,0,0,1-.69,1.87,2.28,2.28,0,0,1-1.76.76,3.3,3.3,0,0,1-1.73-.55,3.11,3.11,0,0,0-1.5-.54,1.1,1.1,0,0,0-.84.38,1.31,1.31,0,0,0-.34.92l-1.26-.3a2.83,2.83,0,0,1,.69-1.9,2.2,2.2,0,0,1,1.75-.8,3.54,3.54,0,0,1,1.64.55,3.52,3.52,0,0,0,1.59.55,1.13,1.13,0,0,0,.84-.38,1.33,1.33,0,0,0,.35-.93Zm-4.86,16.12a4.19,4.19,0,0,0,2.1-.55,3.48,3.48,0,0,0,1.36-1.33v-2.08h-2.46a3.56,3.56,0,0,0-2.25.65,2,2,0,0,0-.82,1.6,1.59,1.59,0,0,0,.51,1.27A2.36,2.36,0,0,0,459.46,143.74Z"/><path class="cls-5" d="M468.13,139a7,7,0,0,1,1.52-4.64,5.64,5.64,0,0,1,8.3,0,7,7,0,0,1,1.53,4.64v.26a6.94,6.94,0,0,1-1.53,4.64,5.67,5.67,0,0,1-8.3,0,7,7,0,0,1-1.52-4.63Zm2.31.26a6,6,0,0,0,.85,3.32,2.82,2.82,0,0,0,2.53,1.32,2.78,2.78,0,0,0,2.49-1.32,6,6,0,0,0,.86-3.32V139a6,6,0,0,0-.86-3.32,3.06,3.06,0,0,0-5,0,6.08,6.08,0,0,0-.84,3.32Z"/><path class="cls-5" d="M496.09,143.91a4.08,4.08,0,0,1-1.52,1.32,4.68,4.68,0,0,1-2.08.44,4.33,4.33,0,0,1-3.62-1.68,7,7,0,0,1-1.31-4.42v-.25a8.46,8.46,0,0,1,1.31-4.93,4.2,4.2,0,0,1,3.65-1.88,4.44,4.44,0,0,1,2,.42,4,4,0,0,1,1.48,1.2V129l-1.91-.33v-1.49h4.21v16.48l1.91.33v1.47h-3.91Zm-6.22-4.34a5.44,5.44,0,0,0,.78,3.07,2.75,2.75,0,0,0,2.43,1.16,3.09,3.09,0,0,0,1.74-.47A3.79,3.79,0,0,0,496,142v-5.88a3.74,3.74,0,0,0-1.16-1.27,3.09,3.09,0,0,0-1.72-.46,2.62,2.62,0,0,0-2.44,1.37,7,7,0,0,0-.79,3.56Z"/><path class="cls-5" d="M502,139a7,7,0,0,1,1.53-4.64,5.1,5.1,0,0,1,4.13-1.82,5.16,5.16,0,0,1,4.16,1.82,7,7,0,0,1,1.53,4.64v.26a6.94,6.94,0,0,1-1.53,4.64,5.66,5.66,0,0,1-8.29,0,6.93,6.93,0,0,1-1.53-4.63Zm2.31.26a6,6,0,0,0,.85,3.32,2.82,2.82,0,0,0,2.53,1.32,2.78,2.78,0,0,0,2.49-1.32,6,6,0,0,0,.86-3.32V139a6,6,0,0,0-.86-3.32,2.81,2.81,0,0,0-2.52-1.32,2.77,2.77,0,0,0-2.5,1.32,6,6,0,0,0-.85,3.32Z"/><path class="cls-5" d="M525.12,136.73h-1.73l-.38-1.52a3,3,0,0,0-1.06-.64,4.12,4.12,0,0,0-1.45-.24,2.67,2.67,0,0,0-1.83.54,1.71,1.71,0,0,0-.59,1.3,1.44,1.44,0,0,0,.52,1.18,5.44,5.44,0,0,0,2.15.77,9.31,9.31,0,0,1,3.57,1.4,2.84,2.84,0,0,1,1.17,2.38,3.28,3.28,0,0,1-1.36,2.73,5.75,5.75,0,0,1-3.57,1,9.41,9.41,0,0,1-2.59-.33,7.18,7.18,0,0,1-2.05-1v-2.89h1.73l.44,1.69a2.28,2.28,0,0,0,1.08.53,6,6,0,0,0,1.4.17,3.3,3.3,0,0,0,1.93-.5,1.55,1.55,0,0,0,.7-1.31,1.58,1.58,0,0,0-.58-1.25,5.41,5.41,0,0,0-2.2-.86,9.08,9.08,0,0,1-3.48-1.37,2.77,2.77,0,0,1-1.17-2.34,3.34,3.34,0,0,1,1.31-2.64,5.2,5.2,0,0,1,3.43-1.09,8.3,8.3,0,0,1,2.59.38,5.3,5.3,0,0,1,1.91,1Z"/><path class="cls-5" d="M541.24,128.36a6,6,0,0,1,4.25,1.41,5.29,5.29,0,0,1,0,7.42,6,6,0,0,1-4.25,1.39h-3.62v5l1.91.33v1.47H533.4V144l1.92-.33V130.18l-1.92-.33v-1.49h7.84Zm-3.62,8.42h3.62a3.11,3.11,0,0,0,3.46-3.28,3.4,3.4,0,0,0-.86-2.37,3.34,3.34,0,0,0-2.6-.95h-3.62Z"/><path class="cls-5" d="M548.86,144l1.91-.33v-9.06l-1.91-.33v-1.48h4.22v10.87L555,144v1.47h-6.13Zm4.22-14.45h-2.31v-2.36h2.31Z"/><path class="cls-5" d="M556.43,128.63v-1.49h4.22v16.48l1.91.33v1.47h-6.13V144l1.91-.33V129Z"/><path class="cls-5" d="M572.58,145.42c-.07-.34-.12-.65-.16-.92s-.07-.55-.09-.82a5.51,5.51,0,0,1-1.67,1.42,4.77,4.77,0,0,1-5.15-.4,3.56,3.56,0,0,1-1-2.72,3.16,3.16,0,0,1,1.46-2.78,7,7,0,0,1,4-1h2.38v-1.48a2.27,2.27,0,0,0-.7-1.76,2.75,2.75,0,0,0-2-.65,4.75,4.75,0,0,0-1.53.22,2.84,2.84,0,0,0-1.07.61l-.24,1.34H565V134a6.74,6.74,0,0,1,2.1-1.1,8.21,8.21,0,0,1,2.67-.42,5.37,5.37,0,0,1,3.5,1.1,3.86,3.86,0,0,1,1.33,3.15v6.11c0,.16,0,.32,0,.48a3.71,3.71,0,0,0,0,.47l.93.13v1.47Zm-3.71-1.68a4.15,4.15,0,0,0,2.09-.55,3.35,3.35,0,0,0,1.36-1.33v-2.08h-2.46a3.55,3.55,0,0,0-2.24.65,2,2,0,0,0-.83,1.6,1.56,1.56,0,0,0,.52,1.27A2.36,2.36,0,0,0,568.87,143.74Z"/><path class="cls-5" d="M577.53,134.23v-1.48h4l.22,1.84a4.44,4.44,0,0,1,1.33-1.53,3.07,3.07,0,0,1,1.81-.55,3.6,3.6,0,0,1,.56,0l.44.09-.31,2.14-1.31-.07a2.65,2.65,0,0,0-1.53.43,2.83,2.83,0,0,0-1,1.2v7.28l1.91.33v1.47h-6.12V144l1.91-.33v-9.06Z"/><path class="cls-5" d="M593,145.67a5.35,5.35,0,0,1-4.21-1.76,6.62,6.62,0,0,1-1.57-4.58v-.51a6.52,6.52,0,0,1,1.61-4.51,5,5,0,0,1,3.82-1.8,4.81,4.81,0,0,1,3.87,1.55,6.12,6.12,0,0,1,1.32,4.12v1.44h-8.23l0,.06a5,5,0,0,0,.92,3,3,3,0,0,0,2.5,1.18,5.61,5.61,0,0,0,2.05-.34,4.7,4.7,0,0,0,1.53-.92l.91,1.5a5.63,5.63,0,0,1-1.8,1.11A7.21,7.21,0,0,1,593,145.67Zm-.35-11.34a2.46,2.46,0,0,0-2,1,4.56,4.56,0,0,0-1,2.45l0,.06h5.85v-.31a3.51,3.51,0,0,0-.73-2.27A2.57,2.57,0,0,0,592.67,134.33Z"/><path class="cls-5" d="M609.83,136.73H608.1l-.37-1.52a3.14,3.14,0,0,0-1.07-.64,4,4,0,0,0-1.44-.24,2.67,2.67,0,0,0-1.83.54,1.68,1.68,0,0,0-.6,1.3,1.45,1.45,0,0,0,.53,1.18,5.37,5.37,0,0,0,2.14.77,9.3,9.3,0,0,1,3.58,1.4,2.84,2.84,0,0,1,1.17,2.38,3.29,3.29,0,0,1-1.37,2.73,5.74,5.74,0,0,1-3.56,1,9.35,9.35,0,0,1-2.59-.33,7.06,7.06,0,0,1-2.05-1l0-2.89h1.74l.43,1.69a2.37,2.37,0,0,0,1.09.53,5.9,5.9,0,0,0,1.4.17,3.25,3.25,0,0,0,1.92-.5,1.53,1.53,0,0,0,.7-1.31,1.55,1.55,0,0,0-.58-1.25,5.41,5.41,0,0,0-2.2-.86,9.08,9.08,0,0,1-3.48-1.37,2.77,2.77,0,0,1-1.17-2.34,3.32,3.32,0,0,1,1.32-2.64,5.19,5.19,0,0,1,3.43-1.09,8.34,8.34,0,0,1,2.59.38,5.39,5.39,0,0,1,1.91,1Z"/><path class="cls-5" d="M626.87,143.91a4.13,4.13,0,0,1-1.51,1.32,4.72,4.72,0,0,1-2.08.44,4.34,4.34,0,0,1-3.63-1.68,7,7,0,0,1-1.31-4.42v-.25a8.46,8.46,0,0,1,1.31-4.93,4.2,4.2,0,0,1,3.65-1.88,4.51,4.51,0,0,1,2,.42,4,4,0,0,1,1.47,1.2V129l-1.91-.33v-1.49h4.22v16.48L631,144v1.47h-3.92Zm-6.22-4.34a5.36,5.36,0,0,0,.79,3.07,2.72,2.72,0,0,0,2.42,1.16,3.09,3.09,0,0,0,1.74-.47,3.69,3.69,0,0,0,1.16-1.33v-5.88a3.74,3.74,0,0,0-1.16-1.27,3.08,3.08,0,0,0-1.71-.46,2.62,2.62,0,0,0-2.45,1.37,7,7,0,0,0-.79,3.56Z"/><path class="cls-5" d="M632.74,139a7,7,0,0,1,1.53-4.64,5.1,5.1,0,0,1,4.13-1.82,5.16,5.16,0,0,1,4.16,1.82,7,7,0,0,1,1.53,4.64v.26a7,7,0,0,1-1.52,4.64,5.67,5.67,0,0,1-8.3,0,6.93,6.93,0,0,1-1.53-4.63Zm2.31.26a6,6,0,0,0,.85,3.32,2.82,2.82,0,0,0,2.53,1.32,2.78,2.78,0,0,0,2.49-1.32,6,6,0,0,0,.86-3.32V139a6,6,0,0,0-.86-3.32,2.81,2.81,0,0,0-2.52-1.32,2.78,2.78,0,0,0-2.5,1.32,6,6,0,0,0-.85,3.32Z"/><path class="cls-5" d="M659.79,128.36a6,6,0,0,1,4.25,1.41,5.29,5.29,0,0,1,0,7.42,6,6,0,0,1-4.25,1.39h-3.62v5l1.91.33v1.47H652V144l1.91-.33V130.18l-1.91-.33v-1.49h7.84Zm-3.62,8.42h3.62a3.11,3.11,0,0,0,3.46-3.28,3.4,3.4,0,0,0-.86-2.37,3.35,3.35,0,0,0-2.6-.95h-3.62Z"/><path class="cls-5" d="M673.05,145.67a5.38,5.38,0,0,1-4.22-1.76,6.66,6.66,0,0,1-1.56-4.58v-.51a6.52,6.52,0,0,1,1.61-4.51,5,5,0,0,1,3.81-1.8,4.82,4.82,0,0,1,3.88,1.55,6.12,6.12,0,0,1,1.32,4.12v1.44h-8.23l0,.06a5.11,5.11,0,0,0,.93,3,3,3,0,0,0,2.5,1.18,5.61,5.61,0,0,0,2.05-.34,4.7,4.7,0,0,0,1.53-.92l.9,1.5a5.42,5.42,0,0,1-1.8,1.11A7.16,7.16,0,0,1,673.05,145.67Zm-.36-11.34a2.49,2.49,0,0,0-2,1,4.63,4.63,0,0,0-1,2.45l0,.06h5.85v-.31a3.57,3.57,0,0,0-.73-2.27A2.58,2.58,0,0,0,672.69,134.33Z"/><path class="cls-5" d="M679.82,144l1.91-.33v-9.06l-1.91-.33v-1.48h4l.17,1.88a4.62,4.62,0,0,1,1.58-1.56,4.26,4.26,0,0,1,2.18-.56,4.14,4.14,0,0,1,3.17,1.2,5.28,5.28,0,0,1,1.13,3.71v6.2l1.91.33v1.47H687.8V144l1.91-.33v-6.15a3.44,3.44,0,0,0-.66-2.38,2.65,2.65,0,0,0-2-.7,3.26,3.26,0,0,0-1.77.48,3.43,3.43,0,0,0-1.22,1.31v7.44L686,144v1.47h-6.13Z"/><path class="cls-5" d="M705.31,136.73h-1.74l-.37-1.52a3.1,3.1,0,0,0-1.06-.64,4.12,4.12,0,0,0-1.45-.24,2.67,2.67,0,0,0-1.83.54,1.68,1.68,0,0,0-.6,1.3,1.45,1.45,0,0,0,.53,1.18,5.37,5.37,0,0,0,2.15.77,9.31,9.31,0,0,1,3.57,1.4,2.84,2.84,0,0,1,1.17,2.38,3.28,3.28,0,0,1-1.36,2.73,5.75,5.75,0,0,1-3.57,1,9.35,9.35,0,0,1-2.59-.33,7.06,7.06,0,0,1-2-1v-2.89h1.73l.43,1.69a2.37,2.37,0,0,0,1.09.53,6,6,0,0,0,1.4.17,3.3,3.3,0,0,0,1.93-.5,1.61,1.61,0,0,0,.11-2.56,5.35,5.35,0,0,0-2.19-.86,9.08,9.08,0,0,1-3.48-1.37,2.75,2.75,0,0,1-1.18-2.34,3.32,3.32,0,0,1,1.32-2.64,5.19,5.19,0,0,1,3.43-1.09,8.34,8.34,0,0,1,2.59.38,5.3,5.3,0,0,1,1.91,1Z"/><path class="cls-5" d="M716.11,145.42c-.07-.34-.12-.65-.16-.92a7.58,7.58,0,0,1-.08-.82,5.76,5.76,0,0,1-1.67,1.42,4.26,4.26,0,0,1-2.14.57,4.21,4.21,0,0,1-3-1,3.53,3.53,0,0,1-1-2.72,3.16,3.16,0,0,1,1.46-2.78,7.08,7.08,0,0,1,4-1h2.37v-1.48a2.27,2.27,0,0,0-.7-1.76,2.75,2.75,0,0,0-2-.65,4.83,4.83,0,0,0-1.53.22,2.92,2.92,0,0,0-1.07.61l-.24,1.34h-1.78V134a6.58,6.58,0,0,1,2.09-1.1,8.21,8.21,0,0,1,2.67-.42,5.35,5.35,0,0,1,3.5,1.1,3.86,3.86,0,0,1,1.33,3.15v6.11c0,.16,0,.32,0,.48a3.71,3.71,0,0,0,0,.47l.94.13v1.47Zm-3.71-1.68a4.15,4.15,0,0,0,2.09-.55,3.35,3.35,0,0,0,1.36-1.33v-2.08h-2.46a3.55,3.55,0,0,0-2.24.65,2,2,0,0,0-.83,1.6,1.56,1.56,0,0,0,.52,1.27A2.36,2.36,0,0,0,712.4,143.74Z"/><path class="cls-5" d="M720.6,144l1.91-.33v-9.06l-1.91-.33v-1.48h4l.16,1.65a4.15,4.15,0,0,1,1.57-1.4,4.78,4.78,0,0,1,2.22-.49,4,4,0,0,1,2.18.59,3.52,3.52,0,0,1,1.36,1.75,4.91,4.91,0,0,1,1.58-1.71,4.2,4.2,0,0,1,2.3-.63,3.79,3.79,0,0,1,3.07,1.33,6.08,6.08,0,0,1,1.13,4v5.78l1.91.33v1.47h-6.14V144l1.91-.33v-5.8a4.18,4.18,0,0,0-.65-2.65,2.33,2.33,0,0,0-1.91-.78,2.43,2.43,0,0,0-1.94.85,3.65,3.65,0,0,0-.85,2.13v6.25l1.91.33v1.47h-6.13V144l1.91-.33v-5.8a4.17,4.17,0,0,0-.66-2.61,2.3,2.3,0,0,0-1.91-.82,3.18,3.18,0,0,0-1.74.43,2.77,2.77,0,0,0-1,1.22v7.58l1.91.33v1.47H720.6Z"/><path class="cls-5" d="M749.4,145.67a5.36,5.36,0,0,1-4.21-1.76,6.66,6.66,0,0,1-1.56-4.58v-.51a6.48,6.48,0,0,1,1.61-4.51,5,5,0,0,1,3.81-1.8,4.82,4.82,0,0,1,3.88,1.55,6.12,6.12,0,0,1,1.31,4.12v1.44H746l0,.06a5.11,5.11,0,0,0,.93,3,3,3,0,0,0,2.49,1.18,5.63,5.63,0,0,0,2.06-.34,4.7,4.7,0,0,0,1.53-.92l.9,1.5a5.42,5.42,0,0,1-1.8,1.11A7.18,7.18,0,0,1,749.4,145.67Zm-.35-11.34a2.49,2.49,0,0,0-2,1,4.63,4.63,0,0,0-1,2.45l0,.06h5.85v-.31a3.57,3.57,0,0,0-.73-2.27A2.58,2.58,0,0,0,749.05,134.33Z"/><path class="cls-5" d="M756.18,144l1.91-.33v-9.06l-1.91-.33v-1.48h4l.17,1.88a4.62,4.62,0,0,1,1.58-1.56,4.26,4.26,0,0,1,2.18-.56,4.14,4.14,0,0,1,3.17,1.2,5.28,5.28,0,0,1,1.13,3.71v6.2l1.91.33v1.47h-6.13V144l1.91-.33v-6.15a3.44,3.44,0,0,0-.66-2.38,2.65,2.65,0,0,0-2-.7,3.26,3.26,0,0,0-1.77.48,3.43,3.43,0,0,0-1.22,1.31v7.44l1.91.33v1.47h-6.13Z"/><path class="cls-5" d="M776,129.69v3.06h2.41v1.71H776v7.7a1.74,1.74,0,0,0,.37,1.25,1.36,1.36,0,0,0,1,.36,4.39,4.39,0,0,0,.69-.05l.64-.11.31,1.58a3,3,0,0,1-1,.35,6,6,0,0,1-1.26.13,3,3,0,0,1-2.24-.85,3.64,3.64,0,0,1-.83-2.66v-7.7h-2v-1.71h2v-3.06Z"/><path class="cls-5" d="M780.53,139a7,7,0,0,1,1.52-4.64,5.63,5.63,0,0,1,8.29,0,7,7,0,0,1,1.53,4.64v.26a6.93,6.93,0,0,1-1.52,4.64,5.67,5.67,0,0,1-8.3,0,7,7,0,0,1-1.52-4.63Zm2.31.26a6,6,0,0,0,.85,3.32,3,3,0,0,0,5,0,6,6,0,0,0,.86-3.32V139a6,6,0,0,0-.86-3.32,3.06,3.06,0,0,0-5,0,6.08,6.08,0,0,0-.84,3.32Z"/><path class="cls-5" d="M266.25,162.4h-1.63l-.43-2.41a4.54,4.54,0,0,0-1.38-.91,5,5,0,0,0-2-.35,4.8,4.8,0,0,0-4.09,1.93,8,8,0,0,0-1.43,4.89v.27a8.22,8.22,0,0,0,1.4,4.91,4.53,4.53,0,0,0,3.89,1.94,5.74,5.74,0,0,0,2.11-.37,4,4,0,0,0,1.46-.89l.43-2.41h1.63v3a6.36,6.36,0,0,1-2.21,1.7,7.61,7.61,0,0,1-3.42.74,6.93,6.93,0,0,1-5.47-2.46,9.11,9.11,0,0,1-2.13-6.19v-.24a9.23,9.23,0,0,1,2.1-6.21,6.87,6.87,0,0,1,5.5-2.45,7.49,7.49,0,0,1,3.42.75,6.61,6.61,0,0,1,2.21,1.7Z"/><path class="cls-5" d="M268.73,167.77a7,7,0,0,1,1.52-4.64,5.63,5.63,0,0,1,8.29,0,6.94,6.94,0,0,1,1.53,4.64V168a7,7,0,0,1-1.52,4.64,5.67,5.67,0,0,1-8.3,0,6.92,6.92,0,0,1-1.52-4.63Zm2.3.26a6,6,0,0,0,.85,3.32,2.82,2.82,0,0,0,2.53,1.32,2.78,2.78,0,0,0,2.49-1.32,5.87,5.87,0,0,0,.86-3.32v-.26a5.92,5.92,0,0,0-.86-3.32,3,3,0,0,0-5,0,6.08,6.08,0,0,0-.85,3.32Z"/><path class="cls-5" d="M281.72,172.75l1.91-.33v-9.06l-1.91-.33v-1.48h4l.15,1.65a4.15,4.15,0,0,1,1.57-1.4,4.78,4.78,0,0,1,2.22-.49,4,4,0,0,1,2.18.59,3.52,3.52,0,0,1,1.36,1.75,4.84,4.84,0,0,1,1.59-1.71,4.14,4.14,0,0,1,2.29-.63,3.79,3.79,0,0,1,3.07,1.33,6.08,6.08,0,0,1,1.13,4v5.78l1.91.33v1.47H297v-1.47l1.91-.33v-5.8a4.23,4.23,0,0,0-.65-2.66,2.35,2.35,0,0,0-1.91-.77,2.43,2.43,0,0,0-1.94.85,3.72,3.72,0,0,0-.85,2.13v6.25l1.91.33v1.47h-6.12v-1.47l1.91-.33v-5.8a4.17,4.17,0,0,0-.67-2.61,2.3,2.3,0,0,0-1.91-.82,3.18,3.18,0,0,0-1.74.43,2.77,2.77,0,0,0-1,1.22v7.58l1.91.33v1.47h-6.13Z"/><path class="cls-5" d="M304.57,177.61l1.91-.33V163.36l-1.91-.33v-1.48h3.89l.21,1.54a4.25,4.25,0,0,1,1.55-1.32,4.51,4.51,0,0,1,2.1-.46,4.2,4.2,0,0,1,3.66,1.87,8.47,8.47,0,0,1,1.31,4.94v.25a7,7,0,0,1-1.31,4.42,4.36,4.36,0,0,1-3.63,1.68,5,5,0,0,1-2.05-.39,4,4,0,0,1-1.51-1.17v4.37l1.91.33v1.49h-6.13Zm10.4-9.49a6.64,6.64,0,0,0-.85-3.55,2.74,2.74,0,0,0-2.5-1.38,3.06,3.06,0,0,0-1.69.44,3.35,3.35,0,0,0-1.14,1.22V171a3,3,0,0,0,2.85,1.64,2.84,2.84,0,0,0,2.48-1.2,5.21,5.21,0,0,0,.85-3.1Z"/><path class="cls-5" d="M328.46,172.35a4.32,4.32,0,0,1-1.55,1.57,4.17,4.17,0,0,1-2.17.55,4.06,4.06,0,0,1-3.22-1.32,6.14,6.14,0,0,1-1.16-4.13v-5.66L318.9,163v-1.48h3.77v7.5a4.75,4.75,0,0,0,.59,2.78,2.23,2.23,0,0,0,1.87.77,3.79,3.79,0,0,0,2-.5,3,3,0,0,0,1.21-1.41v-7.33l-1.7-.33v-1.48h4v10.87l1.46.33v1.47h-3.53Z"/><path class="cls-5" d="M338,158.49v3.06h2.41v1.71H338V171a1.74,1.74,0,0,0,.37,1.25,1.36,1.36,0,0,0,1,.36,6,6,0,0,0,.69,0l.64-.11L341,174a3,3,0,0,1-1,.35,6,6,0,0,1-1.26.13,3,3,0,0,1-2.24-.85,3.66,3.66,0,0,1-.83-2.66v-7.7h-2v-1.71h2v-3.06Z"/><path class="cls-5" d="M351,174.22c-.07-.34-.13-.65-.17-.92s-.06-.55-.08-.82a5.63,5.63,0,0,1-1.67,1.42,4.77,4.77,0,0,1-5.15-.4,3.53,3.53,0,0,1-1-2.72,3.14,3.14,0,0,1,1.46-2.78,7,7,0,0,1,4-1h2.38v-1.48a2.3,2.3,0,0,0-.7-1.76,2.76,2.76,0,0,0-2-.65,4.75,4.75,0,0,0-1.53.22,2.84,2.84,0,0,0-1.07.61l-.25,1.34h-1.78v-2.47a6.74,6.74,0,0,1,2.1-1.1,8.21,8.21,0,0,1,2.67-.42,5.32,5.32,0,0,1,3.49,1.1,3.87,3.87,0,0,1,1.34,3.15v6.59l0,.47.94.13v1.47Zm-3.72-1.68a4.16,4.16,0,0,0,2.1-.55,3.48,3.48,0,0,0,1.36-1.33v-2.08h-2.46a3.56,3.56,0,0,0-2.25.65,2,2,0,0,0-.82,1.6,1.6,1.6,0,0,0,.51,1.27A2.4,2.4,0,0,0,347.31,172.54Z"/><path class="cls-5" d="M361.67,172.67a3.13,3.13,0,0,0,2-.71,2.19,2.19,0,0,0,.87-1.74h2.08l0,.07a3.56,3.56,0,0,1-1.46,2.91,5.32,5.32,0,0,1-3.53,1.27,5.12,5.12,0,0,1-4.23-1.8,7,7,0,0,1-1.46-4.54v-.49a6.94,6.94,0,0,1,1.47-4.52,5.09,5.09,0,0,1,4.22-1.81,7.18,7.18,0,0,1,2.73.5,5.52,5.52,0,0,1,2,1.39l.11,2.81h-1.84l-.51-2a3,3,0,0,0-1.05-.65,4.12,4.12,0,0,0-1.45-.24,2.79,2.79,0,0,0-2.6,1.3,6.16,6.16,0,0,0-.78,3.21v.49a6.17,6.17,0,0,0,.78,3.24A2.79,2.79,0,0,0,361.67,172.67Z"/><path class="cls-5" d="M368.91,172.75l1.91-.33v-9.06l-1.91-.33v-1.48h4.22v10.87l1.91.33v1.47h-6.13Zm4.22-14.45h-2.31v-2.36h2.31Z"/><path class="cls-5" d="M376.81,167.77a7,7,0,0,1,1.52-4.64,5.63,5.63,0,0,1,8.29,0,6.94,6.94,0,0,1,1.53,4.64V168a7,7,0,0,1-1.52,4.64,5.67,5.67,0,0,1-8.3,0,7,7,0,0,1-1.52-4.63Zm2.31.26a6,6,0,0,0,.85,3.32,3,3,0,0,0,5,0,6,6,0,0,0,.85-3.32v-.26a6,6,0,0,0-.85-3.32,3.06,3.06,0,0,0-5,0,6.08,6.08,0,0,0-.84,3.32Z"/><path class="cls-5" d="M389.92,172.75l1.91-.33v-9.06l-1.91-.33v-1.48h4l.17,1.88a4.56,4.56,0,0,1,1.59-1.56,4.22,4.22,0,0,1,2.17-.56,4.12,4.12,0,0,1,3.17,1.2,5.28,5.28,0,0,1,1.13,3.71v6.2l1.91.33v1.47H397.9v-1.47l1.91-.33v-6.15a3.44,3.44,0,0,0-.66-2.38,2.65,2.65,0,0,0-2-.7,3.28,3.28,0,0,0-1.77.48,3.43,3.43,0,0,0-1.22,1.31v7.44l1.91.33v1.47h-6.13Z"/><path class="cls-5" d="M414,174.22c-.07-.34-.13-.65-.16-.92s-.07-.55-.09-.82a5.51,5.51,0,0,1-1.67,1.42,4.77,4.77,0,0,1-5.15-.4,3.56,3.56,0,0,1-1-2.72,3.16,3.16,0,0,1,1.46-2.78,7,7,0,0,1,4-1h2.38v-1.48a2.27,2.27,0,0,0-.7-1.76,2.75,2.75,0,0,0-2-.65,4.75,4.75,0,0,0-1.53.22,2.84,2.84,0,0,0-1.07.61l-.25,1.34h-1.78v-2.47a6.74,6.74,0,0,1,2.1-1.1,8.21,8.21,0,0,1,2.67-.42,5.32,5.32,0,0,1,3.49,1.1,3.87,3.87,0,0,1,1.34,3.15v6.11c0,.16,0,.32,0,.48a3.71,3.71,0,0,0,0,.47l.93.13v1.47Zm-3.72-1.68a4.16,4.16,0,0,0,2.1-.55,3.42,3.42,0,0,0,1.36-1.33v-2.08h-2.46a3.55,3.55,0,0,0-2.24.65,2,2,0,0,0-.83,1.6,1.57,1.57,0,0,0,.52,1.27A2.35,2.35,0,0,0,410.26,172.54Z"/><path class="cls-5" d="M418.61,157.43v-1.49h4.22v16.48l1.91.33v1.47h-6.13v-1.47l1.91-.33V157.76Z"/><path class="cls-5" d="M438.14,172.67a3.11,3.11,0,0,0,2-.71,2.17,2.17,0,0,0,.88-1.74h2.07l0,.07a3.59,3.59,0,0,1-1.46,2.91,5.34,5.34,0,0,1-3.54,1.27,5.11,5.11,0,0,1-4.22-1.8,7,7,0,0,1-1.46-4.54v-.49a7,7,0,0,1,1.46-4.52,5.12,5.12,0,0,1,4.22-1.81,7.19,7.19,0,0,1,2.74.5,5.52,5.52,0,0,1,2,1.39L443,166h-1.84l-.5-2a3,3,0,0,0-1-.65,4.18,4.18,0,0,0-1.46-.24,2.77,2.77,0,0,0-2.59,1.3,6.16,6.16,0,0,0-.78,3.21v.49a6.27,6.27,0,0,0,.77,3.24A2.8,2.8,0,0,0,438.14,172.67Z"/><path class="cls-5" d="M445.4,167.77a7,7,0,0,1,1.52-4.64,5.63,5.63,0,0,1,8.29,0,6.94,6.94,0,0,1,1.53,4.64V168a7,7,0,0,1-1.52,4.64,5.67,5.67,0,0,1-8.3,0A6.92,6.92,0,0,1,445.4,168Zm2.31.26a6,6,0,0,0,.85,3.32,3,3,0,0,0,5,0,6,6,0,0,0,.85-3.32v-.26a6,6,0,0,0-.85-3.32,3.06,3.06,0,0,0-5,0,6.08,6.08,0,0,0-.84,3.32Z"/><path class="cls-5" d="M458.39,172.75l1.91-.33v-9.06l-1.91-.33v-1.48h4l.15,1.65a4.23,4.23,0,0,1,1.57-1.4,4.79,4.79,0,0,1,2.23-.49,3.91,3.91,0,0,1,2.17.59,3.54,3.54,0,0,1,1.37,1.75,4.73,4.73,0,0,1,1.58-1.71,4.14,4.14,0,0,1,2.29-.63,3.81,3.81,0,0,1,3.08,1.33,6.08,6.08,0,0,1,1.12,4v5.78l1.91.33v1.47h-6.14v-1.47l1.91-.33v-5.8A4.3,4.3,0,0,0,475,164a2.36,2.36,0,0,0-1.91-.77,2.41,2.41,0,0,0-1.94.85,3.59,3.59,0,0,0-.85,2.13v6.25l1.91.33v1.47h-6.13v-1.47l1.91-.33v-5.8a4.17,4.17,0,0,0-.66-2.61,2.32,2.32,0,0,0-1.92-.82,3.21,3.21,0,0,0-1.74.43,2.77,2.77,0,0,0-1,1.22v7.58l1.91.33v1.47h-6.13Z"/><path class="cls-5" d="M495.76,174.22c-.07-.34-.12-.65-.16-.92a7.58,7.58,0,0,1-.08-.82,5.63,5.63,0,0,1-1.67,1.42,4.77,4.77,0,0,1-5.15-.4,3.53,3.53,0,0,1-1-2.72,3.14,3.14,0,0,1,1.46-2.78,7,7,0,0,1,4-1h2.38v-1.48a2.28,2.28,0,0,0-.71-1.76,2.74,2.74,0,0,0-1.95-.65,4.75,4.75,0,0,0-1.53.22,3,3,0,0,0-1.08.61L490,165.3h-1.78v-2.47a6.63,6.63,0,0,1,2.1-1.1,8.21,8.21,0,0,1,2.67-.42,5.34,5.34,0,0,1,3.49,1.1,3.87,3.87,0,0,1,1.34,3.15v6.59a3.71,3.71,0,0,0,0,.47l.94.13v1.47Zm-3.71-1.68a4.19,4.19,0,0,0,2.1-.55,3.48,3.48,0,0,0,1.36-1.33v-2.08h-2.46a3.56,3.56,0,0,0-2.25.65,2,2,0,0,0-.82,1.6,1.6,1.6,0,0,0,.51,1.27A2.36,2.36,0,0,0,492.05,172.54Z"/><path class="cls-5" d="M506.28,172.75l1.26-.18,6-15.41h2l5.86,15.41,1.25.18v1.47h-4.9v-1.47l1.29-.22-1.12-3.15H511l-1.16,3.15,1.29.22v1.47h-4.88Zm5.47-5.3h5.41l-2.65-7.32h-.07Z"/><path class="cls-5" d="M524.25,163v-1.48h4l.22,1.83a4.5,4.5,0,0,1,1.33-1.52,3.07,3.07,0,0,1,1.81-.55,3.69,3.69,0,0,1,.56,0l.43.09-.3,2.14-1.31-.07a2.71,2.71,0,0,0-1.54.43,2.88,2.88,0,0,0-1,1.2v7.28l1.91.33v1.47h-6.13v-1.47l1.91-.33v-9.06Z"/><path class="cls-5" d="M534,168.12a8.46,8.46,0,0,1,1.3-4.93,4.22,4.22,0,0,1,3.65-1.88,4.44,4.44,0,0,1,2,.42,3.92,3.92,0,0,1,1.48,1.21l.19-1.39h2v15.73l1.91.33v1.49h-6.13v-1.49l1.91-.33V173a3.88,3.88,0,0,1-1.44,1.08,4.82,4.82,0,0,1-1.91.36,4.35,4.35,0,0,1-3.63-1.68,7,7,0,0,1-1.3-4.42Zm2.31.25a5.6,5.6,0,0,0,.78,3.11,2.71,2.71,0,0,0,2.43,1.19,2.94,2.94,0,0,0,1.63-.43,3.41,3.41,0,0,0,1.13-1.19v-6.36a3.52,3.52,0,0,0-1.13-1.14,3,3,0,0,0-1.61-.42,2.6,2.6,0,0,0-2.44,1.4,7.2,7.2,0,0,0-.79,3.59Z"/><path class="cls-5" d="M556.56,172.35a4.3,4.3,0,0,1-1.54,1.57,4.19,4.19,0,0,1-2.17.55,4.08,4.08,0,0,1-3.23-1.32,6.19,6.19,0,0,1-1.16-4.13v-5.66L547,163v-1.48h3.76v7.5a4.66,4.66,0,0,0,.6,2.78,2.22,2.22,0,0,0,1.86.77,3.85,3.85,0,0,0,2-.5,3.1,3.1,0,0,0,1.21-1.41v-7.33l-1.7-.33v-1.48h4v10.87l1.45.33v1.47h-3.53Z"/><path class="cls-5" d="M562.07,172.75l1.91-.33v-9.06l-1.91-.33v-1.48h4.22v10.87l1.91.33v1.47h-6.13Zm4.22-14.45H564v-2.36h2.31Z"/><path class="cls-5" d="M574,158.49v3.06h2.4v1.71H574V171a1.7,1.7,0,0,0,.37,1.25,1.32,1.32,0,0,0,1,.36,5.89,5.89,0,0,0,.69,0c.25,0,.47-.07.64-.11L577,174a3,3,0,0,1-1,.35,6,6,0,0,1-1.26.13,3,3,0,0,1-2.24-.85,3.7,3.7,0,0,1-.83-2.66v-7.7h-2v-1.71h2v-3.06Z"/><path class="cls-5" d="M584.53,174.47a5.36,5.36,0,0,1-4.21-1.76,6.66,6.66,0,0,1-1.56-4.58v-.51a6.48,6.48,0,0,1,1.61-4.51,5,5,0,0,1,3.81-1.8,4.82,4.82,0,0,1,3.88,1.55,6.17,6.17,0,0,1,1.31,4.12v1.44h-8.22l0,.06a5,5,0,0,0,.93,3,3,3,0,0,0,2.49,1.18,5.85,5.85,0,0,0,2.06-.34,4.7,4.7,0,0,0,1.53-.92l.9,1.5a5.42,5.42,0,0,1-1.8,1.11A7.18,7.18,0,0,1,584.53,174.47Zm-.35-11.34a2.49,2.49,0,0,0-2,1,4.64,4.64,0,0,0-1,2.45l0,.06h5.85v-.31a3.57,3.57,0,0,0-.73-2.27A2.59,2.59,0,0,0,584.18,163.13Z"/><path class="cls-5" d="M595.68,158.49v3.06h2.4v1.71h-2.4V171a1.7,1.7,0,0,0,.37,1.25,1.33,1.33,0,0,0,1,.36,5.89,5.89,0,0,0,.68,0c.26,0,.47-.07.64-.11l.32,1.58a3,3,0,0,1-1,.35,6.15,6.15,0,0,1-1.27.13,3,3,0,0,1-2.24-.85,3.7,3.7,0,0,1-.83-2.66v-7.7h-2v-1.71h2v-3.06Z"/><path class="cls-5" d="M609.51,172.35a4.38,4.38,0,0,1-1.54,1.57,4.23,4.23,0,0,1-2.18.55,4.06,4.06,0,0,1-3.22-1.32,6.19,6.19,0,0,1-1.16-4.13v-5.66L600,163v-1.48h3.76v7.5a4.66,4.66,0,0,0,.6,2.78,2.2,2.2,0,0,0,1.86.77,3.79,3.79,0,0,0,2-.5,3,3,0,0,0,1.21-1.41v-7.33l-1.69-.33v-1.48h4v10.87l1.46.33v1.47h-3.53Z"/><path class="cls-5" d="M615,163v-1.48h4l.22,1.83a4.5,4.5,0,0,1,1.33-1.52,3.07,3.07,0,0,1,1.81-.55,3.6,3.6,0,0,1,.56,0l.44.09-.31,2.14-1.31-.07a2.71,2.71,0,0,0-1.54.43,2.88,2.88,0,0,0-1,1.2v7.28l1.91.33v1.47H615v-1.47l1.91-.33v-9.06Z"/><path class="cls-5" d="M633.21,174.22c-.07-.34-.12-.65-.16-.92a7.58,7.58,0,0,1-.08-.82,5.63,5.63,0,0,1-1.67,1.42,4.26,4.26,0,0,1-2.14.57,4.21,4.21,0,0,1-3-1,3.53,3.53,0,0,1-1-2.72,3.15,3.15,0,0,1,1.45-2.78,7.08,7.08,0,0,1,4-1H633v-1.48a2.28,2.28,0,0,0-.71-1.76,2.74,2.74,0,0,0-2-.65,4.75,4.75,0,0,0-1.53.22,2.88,2.88,0,0,0-1.08.61l-.24,1.34h-1.78v-2.47a6.58,6.58,0,0,1,2.09-1.1,8.27,8.27,0,0,1,2.68-.42,5.34,5.34,0,0,1,3.49,1.1,3.86,3.86,0,0,1,1.33,3.15v6.11c0,.16,0,.32,0,.48a3.71,3.71,0,0,0,0,.47l.94.13v1.47Zm-3.71-1.68a4.22,4.22,0,0,0,2.1-.55,3.48,3.48,0,0,0,1.36-1.33v-2.08h-2.47a3.55,3.55,0,0,0-2.24.65,2,2,0,0,0-.83,1.6,1.61,1.61,0,0,0,.52,1.27A2.36,2.36,0,0,0,629.5,172.54Z"/><path class="cls-5" d="M651.75,157.16a6,6,0,0,1,4.25,1.41,5.29,5.29,0,0,1,0,7.42,6,6,0,0,1-4.25,1.39h-3.62v5l1.91.33v1.47h-6.13v-1.47l1.91-.33V159l-1.91-.33v-1.49h7.84Zm-3.62,8.42h3.62a3.11,3.11,0,0,0,3.46-3.28,3.4,3.4,0,0,0-.86-2.37,3.35,3.35,0,0,0-2.6-1h-3.62Z"/><path class="cls-5" d="M665,174.47a5.38,5.38,0,0,1-4.22-1.76,6.66,6.66,0,0,1-1.56-4.58v-.51a6.52,6.52,0,0,1,1.61-4.51,5,5,0,0,1,3.81-1.8,4.82,4.82,0,0,1,3.88,1.55,6.12,6.12,0,0,1,1.32,4.12v1.44h-8.23l0,.06a5.11,5.11,0,0,0,.93,3,3,3,0,0,0,2.5,1.18,5.83,5.83,0,0,0,2-.34,4.7,4.7,0,0,0,1.53-.92l.9,1.5A5.47,5.47,0,0,1,667.7,174,7.25,7.25,0,0,1,665,174.47Zm-.36-11.34a2.49,2.49,0,0,0-2,1,4.63,4.63,0,0,0-1,2.45l0,.06h5.85v-.31a3.51,3.51,0,0,0-.73-2.27A2.58,2.58,0,0,0,664.65,163.13Z"/><path class="cls-5" d="M680.66,172.71a4.13,4.13,0,0,1-1.51,1.32,4.75,4.75,0,0,1-2.08.44,4.34,4.34,0,0,1-3.63-1.68,7,7,0,0,1-1.31-4.42v-.25a8.46,8.46,0,0,1,1.31-4.93,4.2,4.2,0,0,1,3.65-1.88,4.44,4.44,0,0,1,2,.42,4,4,0,0,1,1.48,1.2v-5.17l-1.91-.33v-1.49h4.21v16.48l1.91.33v1.47h-3.91Zm-6.22-4.34a5.36,5.36,0,0,0,.79,3.07,2.72,2.72,0,0,0,2.42,1.16,3.09,3.09,0,0,0,1.74-.47,3.79,3.79,0,0,0,1.16-1.33v-5.88a3.74,3.74,0,0,0-1.16-1.27,3.09,3.09,0,0,0-1.72-.46,2.62,2.62,0,0,0-2.44,1.37,7,7,0,0,0-.79,3.56Z"/><path class="cls-5" d="M694.8,174.22c-.07-.34-.13-.65-.17-.92s-.06-.55-.08-.82a5.63,5.63,0,0,1-1.67,1.42,4.77,4.77,0,0,1-5.15-.4,3.53,3.53,0,0,1-1-2.72,3.14,3.14,0,0,1,1.46-2.78,7,7,0,0,1,4-1h2.38v-1.48a2.28,2.28,0,0,0-.71-1.76,2.72,2.72,0,0,0-2-.65,4.75,4.75,0,0,0-1.53.22,2.84,2.84,0,0,0-1.07.61L689,165.3h-1.78v-2.47a6.74,6.74,0,0,1,2.1-1.1,8.21,8.21,0,0,1,2.67-.42,5.32,5.32,0,0,1,3.49,1.1,3.87,3.87,0,0,1,1.34,3.15v6.59l0,.47.94.13v1.47Zm-3.72-1.68a4.16,4.16,0,0,0,2.1-.55,3.48,3.48,0,0,0,1.36-1.33v-2.08h-2.46a3.56,3.56,0,0,0-2.25.65,2,2,0,0,0-.82,1.6,1.6,1.6,0,0,0,.51,1.27A2.4,2.4,0,0,0,691.08,172.54Z"/><path class="cls-5" d="M699.75,168.12a8.31,8.31,0,0,1,1.34-4.93,4.29,4.29,0,0,1,3.69-1.88,4.52,4.52,0,0,1,2.1.47,4.17,4.17,0,0,1,1.51,1.36l.21-1.59h1.95v12.51a5.3,5.3,0,0,1-1.38,3.87,5.14,5.14,0,0,1-3.9,1.42,8.56,8.56,0,0,1-2-.26,7.34,7.34,0,0,1-1.87-.68l.59-1.79a7.33,7.33,0,0,0,1.53.56,6.8,6.8,0,0,0,1.71.22,2.78,2.78,0,0,0,2.27-.87,3.75,3.75,0,0,0,.72-2.47v-1.21a4.11,4.11,0,0,1-1.49,1.21,4.65,4.65,0,0,1-2,.41,4.41,4.41,0,0,1-3.67-1.69,6.88,6.88,0,0,1-1.34-4.41Zm2.31.25a5.28,5.28,0,0,0,.81,3.07,2.81,2.81,0,0,0,2.46,1.16,3,3,0,0,0,1.75-.48,3.65,3.65,0,0,0,1.16-1.34v-5.84a3.68,3.68,0,0,0-1.16-1.28,3,3,0,0,0-1.73-.47,2.69,2.69,0,0,0-2.47,1.38,6.83,6.83,0,0,0-.82,3.55Z"/><path class="cls-5" d="M713.33,167.77a7,7,0,0,1,1.53-4.64,5.1,5.1,0,0,1,4.13-1.82,5.16,5.16,0,0,1,4.16,1.82,6.94,6.94,0,0,1,1.53,4.64V168a6.94,6.94,0,0,1-1.53,4.64,5.66,5.66,0,0,1-8.29,0,6.93,6.93,0,0,1-1.53-4.63Zm2.31.26a6,6,0,0,0,.85,3.32,2.82,2.82,0,0,0,2.53,1.32,2.78,2.78,0,0,0,2.49-1.32,6,6,0,0,0,.86-3.32v-.26a6,6,0,0,0-.86-3.32,2.81,2.81,0,0,0-2.52-1.32,2.78,2.78,0,0,0-2.5,1.32,6,6,0,0,0-.85,3.32Zm4-11.36h2.7l0,.07-3.15,3h-1.72Z"/><path class="cls-5" d="M726.8,168.12a8.24,8.24,0,0,1,1.34-4.93,4.29,4.29,0,0,1,3.69-1.88,4.5,4.5,0,0,1,2.09.47,4.12,4.12,0,0,1,1.52,1.36l.21-1.59h1.94v12.51a5.29,5.29,0,0,1-1.37,3.87,5.14,5.14,0,0,1-3.9,1.42,8.56,8.56,0,0,1-2-.26,7.42,7.42,0,0,1-1.88-.68l.6-1.79a7.44,7.44,0,0,0,1.52.56,6.94,6.94,0,0,0,1.72.22,2.76,2.76,0,0,0,2.26-.87,3.75,3.75,0,0,0,.72-2.47v-1.21a4.08,4.08,0,0,1-1.48,1.21,4.7,4.7,0,0,1-2,.41,4.4,4.4,0,0,1-3.66-1.69,6.82,6.82,0,0,1-1.34-4.41Zm2.31.25a5.28,5.28,0,0,0,.81,3.07,2.81,2.81,0,0,0,2.46,1.16,3,3,0,0,0,1.74-.48,3.56,3.56,0,0,0,1.16-1.34v-5.84a3.5,3.5,0,0,0-1.16-1.28,3,3,0,0,0-1.72-.47,2.69,2.69,0,0,0-2.47,1.38,6.83,6.83,0,0,0-.82,3.55Z"/><path class="cls-5" d="M740.37,172.75l1.91-.33v-9.06l-1.91-.33v-1.48h4.22v10.87l1.91.33v1.47h-6.13Zm4.22-14.45h-2.31v-2.36h2.31Z"/><path class="cls-5" d="M754,172.67a3.11,3.11,0,0,0,2-.71,2.17,2.17,0,0,0,.88-1.74h2.07l0,.07a3.54,3.54,0,0,1-1.46,2.91,5.3,5.3,0,0,1-3.53,1.27,5.11,5.11,0,0,1-4.22-1.8,7,7,0,0,1-1.46-4.54v-.49a7,7,0,0,1,1.46-4.52,5.12,5.12,0,0,1,4.22-1.81,7.19,7.19,0,0,1,2.74.5,5.52,5.52,0,0,1,2,1.39l.1,2.81H757l-.5-2a3.08,3.08,0,0,0-1.06-.65,4.08,4.08,0,0,0-1.45-.24,2.77,2.77,0,0,0-2.59,1.3,6.16,6.16,0,0,0-.78,3.21v.49a6.17,6.17,0,0,0,.77,3.24A2.8,2.8,0,0,0,754,172.67Z"/><path class="cls-5" d="M769.47,174.22c-.07-.34-.13-.65-.17-.92s-.06-.55-.08-.82a5.51,5.51,0,0,1-1.67,1.42,4.77,4.77,0,0,1-5.15-.4,3.53,3.53,0,0,1-1-2.72,3.16,3.16,0,0,1,1.46-2.78,7,7,0,0,1,4-1h2.38v-1.48a2.27,2.27,0,0,0-.7-1.76,2.75,2.75,0,0,0-2-.65,4.75,4.75,0,0,0-1.53.22A2.84,2.84,0,0,0,764,164l-.25,1.34h-1.78v-2.47a6.74,6.74,0,0,1,2.1-1.1,8.21,8.21,0,0,1,2.67-.42,5.32,5.32,0,0,1,3.49,1.1,3.87,3.87,0,0,1,1.34,3.15v6.59l0,.47.94.13v1.47Zm-3.72-1.68a4.16,4.16,0,0,0,2.1-.55,3.42,3.42,0,0,0,1.36-1.33v-2.08h-2.46a3.58,3.58,0,0,0-2.25.65,2,2,0,0,0-.82,1.6,1.6,1.6,0,0,0,.51,1.27A2.4,2.4,0,0,0,765.75,172.54Z"/><g class="cls-6"><path class="cls-7" d="M86,3.76A6.87,6.87,0,0,1,90.94,6a12.15,12.15,0,0,1,3-.39A10.88,10.88,0,0,1,102,9.28c8.87,3.33,5.34,8.67,5.14,9l.1,0s5.2,3.63,3.42,5.41c0,0,3.21,4,.64,6.13a2.88,2.88,0,0,1-.93.47c7.3,11.36,11.64,31.41,8.77,48-.57,3.27-4.31,5.63-14.39,5.63h0A53.37,53.37,0,0,1,95,83c.1.77.2,1.61.32,2.45h0c.5,3.6,1.24,7.69,2,8.29,5.15,3.87,12.81,5.46,17.12,6.09l6.25.58a15.16,15.16,0,0,1,3.24,4.76h0L160.38,139l28.75-24.31s1.91-7.5,12.55-7.5a27.32,27.32,0,0,1,4.38.37c14.52,2.35-1.31,4.07-1.31,4.07s1.64-.14,4.06-.14c3.64,0,9,.31,13.26,1.85l2.19,2.67-5,5s-11.59,1.6-18.22,1.6c-2.11,0-3.71-.16-4.29-.59a.5.5,0,0,0-.26-.07c-3.95,0-36.43,30.63-36.43,30.63l-33.44-27c.5,6.63.85,13.72.78,20.28a210,210,0,0,1-1.86,25.31c1.47,1,.41,3.23.41,3.23l2.73,21.72c0,.16,0,.32,0,.48,3.4,15.11,2.82,40.16,2.82,40.16-.35-.11-1.39-.24-2.87-.43l0,1.82h0c-.07,12.66,0,30.95.72,35.12,1.17,6.52,0,9.73,0,9.73s3.21,50.76,3.21,51.15,4.49,6.17,4.49,6.17,5.94,4.68,10.56,8.38h0a13.52,13.52,0,0,1,3.87,1.64,3.82,3.82,0,0,1,1.17,2.43c.3.21.81.55,1.4,1a14.91,14.91,0,0,0,4,.75c.64.64,0,1.33-.83,1.88.47.5.74.93.67,1.21-.31,1.11-4.61,5.64-12.38,5.64-.44,0-.89,0-1.35-.05-8.16-.53-19.48-9.23-20.41-11.65a7.21,7.21,0,0,1,.12-4.89c0-2.06,1.25-4.54,1.94-5.77,1.07-1.93,1.82-7.38,1.82-7.38-11.77-41.28-5-47.09-6.31-50.09-.82-1.9-8.09-28.93-13.28-48.37h0v-.06c-.31-1.13-.6-2.24-.89-3.31a14.37,14.37,0,0,1-2.68-1.59,84.58,84.58,0,0,1-14.12,5.59l-15.51,38.9S72.1,284.3,69,287.45A139.19,139.19,0,0,1,61.14,310c-5.35,12-7.7,28.44-7.7,28.44s3.83,9.73,4.28,15.81c4.51,6.17,8.56,13.78,3.19,16a31,31,0,0,1-11.68,2.05c-6.47,0-12.27-1.52-13.62-2.87-2.17-2.17,4-18.64,4-18.64.19-1.5.61-2.94,1.48-3.55a26.67,26.67,0,0,0,4.71-5.14s-.81-2.14,1.44-5,5.56-21.41,5.56-23.83-3-20.54,7-27.67c0,0,1.14-23.15,4.07-39.9h0c.31-1.9.66-3.72,1-5.41-3.06.26-4.9.29-4.9.29s3-8.26,6.75-18.89c-3.23-.31-1.11-5.32-1.11-5.32a26.26,26.26,0,0,0,3.8-2.23c.41-1.15.82-2.32,1.23-3.48-1.06-2.64,1.6-10.83,1.6-10.83l-9.8-7.39L34,171s22.88-54,23.81-54.9c.6-.6,5-3.19,8.07-5,3.19-3.19,10-5.71,10-5.71s6.52-7.38,7.91-8.77.75-5.24.75-5.24L81,77.7c-6.31-4-8.8-8.38-8.8-8.38a3.17,3.17,0,0,1-2.32.93,8.15,8.15,0,0,1-4.16-1.58s-9.06-9.05-6.21-13.33a2.68,2.68,0,0,1,2.35-1.29c1.87,0,4.09,1.53,5.65,2.85-3.21-2.8-4.93-3.18-5.62-3.18h-.22l0,0,0,0-.06,0,0-.07c-.68-.33-3.71-2-4-4.82-5.12-1.6-4.13-4.45-4.13-4.45-4.92-3.35,0-8.73,0-8.73-2.19-2.19-.5-5.38-.5-5.38-2.57-3.64.64-8.13.64-8.13.36-3.92,6.24-6.24,6.24-6.24.47-2,2.89-2.89,2.89-2.89a4.29,4.29,0,0,1,4-2.44,2.22,2.22,0,0,1,.33,0C69.05,6,77.05,5.59,80,5.59c.71,0,1.14,0,1.14,0A8,8,0,0,1,86,3.76M78,190c1.28-3.65,2.39-6.85,3.22-9.29a2.79,2.79,0,0,1,1.38-4.13l.17-.57c1.28-4.71-10.81-27.79-10.81-27.79l-10.2-6.4-14.31,26.9,22.88,15.93L78,190m74.27,162.55h0M86,0h0a11.09,11.09,0,0,0-6,1.83h0c-4.35,0-11.64.73-15.29,5.23A7.88,7.88,0,0,0,60,10.18a8.75,8.75,0,0,0-3.1,3c-2.2,1.14-6,3.65-7,7.66-1.38,2.32-2.63,6.16-1.16,9.81a8.49,8.49,0,0,0,.13,4.9,10.09,10.09,0,0,0-1.43,6.11,7.92,7.92,0,0,0,2.16,4.56,6.62,6.62,0,0,0,.6,1.73,8.51,8.51,0,0,0,4.15,3.79,9.12,9.12,0,0,0,1.51,2.38c-1.5,3.06-.66,7,2.53,11.65a42.67,42.67,0,0,0,4.62,5.6l.18.19.21.15A11.68,11.68,0,0,0,69.87,74a8.93,8.93,0,0,0,1-.07A33.7,33.7,0,0,0,77.72,80l3.16,12.13a8.26,8.26,0,0,1,0,2.11c-1.51,1.57-5.59,6.16-7.2,8-2.09.84-7,3-10.1,5.86-7.42,4.28-8,4.88-8.46,5.32-.72.72-1.09,1.09-13.05,29-5.77,13.46-11.51,27-11.56,27.12l-1.15,2.7L31.71,174,60.2,195.47l7.71,5.82c-.79,2.89-1.5,6.47-1.15,9.14l-.46,1.32A23.4,23.4,0,0,1,64,213l-1.3.62-.56,1.32c-.47,1.1-1.87,4.95-.13,7.87.07.11.13.21.21.32-3.32,9.3-5.8,16.21-5.8,16.21l-1.83,5.13,5.44-.1h.21l-.12.75v0c-2.5,14.35-3.69,32.93-4,38.61-8.89,7.93-7.61,23.14-7.17,28.31,0,.47.09,1.06.09,1.23-.06,2.7-3.25,19.07-4.8,21.56a10.19,10.19,0,0,0-2.35,6.23,18,18,0,0,1-3,3.12c-1.59,1.11-2.57,3-3,5.7-.42,1.16-1.67,4.66-2.75,8.39-2.34,8.06-2.4,11.68-.24,13.84,2.73,2.73,10.35,4,16.28,4a34.58,34.58,0,0,0,13.13-2.34,7.54,7.54,0,0,0,4.56-5c1.09-3.92-.67-9-5.56-15.86-.64-5.35-3.1-12.3-4-14.83.58-3.6,2.91-16.76,7.26-26.51a144.3,144.3,0,0,0,7.81-22.31c3.15-3.93,5.38-11.49,6-13.53l14.77-37a89.94,89.94,0,0,0,10.84-4.24l.39,1.46v0c10.92,40.92,12.81,47.17,13.31,48.54,0,.3-.12.84-.2,1.28-.81,4.86-2.7,16.19,6.27,47.94a25.69,25.69,0,0,1-1.27,5.3,17.1,17.1,0,0,0-2.38,6.9,10.82,10.82,0,0,0,.1,6.93c1.22,3.2,7.18,7.2,9,8.36,3.08,2,9.08,5.34,14.71,5.7q.79.06,1.59.06c9.13,0,15.18-5.4,16-8.42a3.84,3.84,0,0,0,.12-1.58,4.31,4.31,0,0,0,.42-1.49,4.57,4.57,0,0,0-1.34-3.66l-1-1-1.46-.06a13.24,13.24,0,0,1-2.29-.34,6.93,6.93,0,0,0-2-2.94,13.88,13.88,0,0,0-4.52-2.17c-3.82-3.05-8.34-6.62-9.64-7.64-1.32-1.71-2.79-3.66-3.48-4.64-.17-2.83-.79-12.92-3.11-49.61.4-1.61.92-5.18-.09-10.8-.24-1.33-.77-7.06-.68-31.63l2.79.88.12-5c0-1,.53-25.1-2.79-40.51h0l0-.34,0-.34-2.62-20.83a6.62,6.62,0,0,0-.31-4.67,218.74,218.74,0,0,0,1.68-24.25c0-3.65,0-7.63-.26-12l26.8,21.67,2.55,2.07,2.39-2.25C175.94,142.76,192,128.59,196.51,126a18.93,18.93,0,0,0,4.51.41,177.65,177.65,0,0,0,18.73-1.64l1.25-.17.9-.9,5-5,2.41-2.41-2.16-2.63L225,110.92l-.65-.79-1-.36a34.56,34.56,0,0,0-7.66-1.69c-.41-1.12-1.42-2.27-3.61-3a34.18,34.18,0,0,0-5.43-1.22,31.38,31.38,0,0,0-5-.42c-10.62,0-14.51,6.23-15.72,9L160.5,134l-33.45-31a18.62,18.62,0,0,0-3.69-5.17l-1-1-1.35-.12-6.14-.57c-3.67-.54-10.23-1.88-14.71-4.93a30.6,30.6,0,0,1-.8-3.78c1.75.16,3.53.23,5.34.24,4.11,0,16.59,0,18.11-8.75C125.51,63.53,122.3,44,115.17,31c1.46-2.41,1-5.39-.39-7.9a5,5,0,0,0,0-.77c-.18-2.08-1.64-3.95-3.16-5.36a8.23,8.23,0,0,0-.23-4c-.92-2.91-3.34-5.21-7.2-6.83A14.52,14.52,0,0,0,93.92,1.85,15.11,15.11,0,0,0,92,2a10.34,10.34,0,0,0-6-2ZM52.32,167.51l10.84-20.39,5.92,3.71c.9,1.77,3,5.94,5.06,10.45,3.77,8.31,4.67,11.84,4.88,13.19A6.52,6.52,0,0,0,77.36,177a6.41,6.41,0,0,0-.14,3.72c-.34,1-.73,2.11-1.16,3.34l-3.61-2.51-20.13-14Zm83.91,166.6Z"/><path class="cls-8" d="M124,105.16,160.38,139l28.75-24.31s2.42-9.48,16.93-7.13-1.31,4.07-1.31,4.07,10.26-.86,17.32,1.71l2.19,2.67-5,5s-20.11,2.78-22.51,1S160,152.58,160,152.58l-33.44-27-6.56-5.6Z"/><path class="cls-8" d="M80.5,75.8l4.06,15.62s.65,3.85-.75,5.24-7.91,8.77-7.91,8.77l-3.64,7.16,21.07,12,25.14-6.74-.75-17.64s-12.87-.82-20.38-6.46c-1.47-1.1-2.72-14-2.72-14Z"/><path class="cls-9" d="M95.31,85.44c-.4-2.88-.72-5.78-.72-5.78l-14.12-4,1.13,4.35s4.42,2.88,5.8,3.48A26.92,26.92,0,0,0,95.31,85.44Z"/><path class="cls-8" d="M68.79,109.47s-10.07,5.69-11,6.62S34,171,34,171l28.48,21.48,9.8,7.39s-3.1,9.52-1.28,11.34-5.35,5.2-5.35,5.2-2.78,6.56,2.86,5.14a84.56,84.56,0,0,0,13.26-5.21l3.78-21.1L70.31,184.62,47.43,168.69l14.31-26.9,10.2,6.4L84.46,139l-9-22.38-3.85-8.42Z"/><path class="cls-8" d="M72.19,69.32s8.17,14.53,32.55,14.54c10.09,0,13.83-2.36,14.4-5.63,3.58-20.58-4-46.6-14.58-54.55-9.25-7-42.06,19.4-42.06,19.4l7,15.68s-7.13-7.7-10-3.42,6.21,13.33,6.21,13.33S69.77,71.74,72.19,69.32Z"/><path class="cls-8" d="M95.36,222.84l-20.6,51.67S72.1,284.3,69,287.45A139.19,139.19,0,0,1,61.14,310c-5.35,12-7.7,28.44-7.7,28.44s4.87,12.36,4.28,17.92c0,0,4.65,6.41,2.78,10.1s-9.2,1.5-9.2,1.5-12.24,1.6-14.06-1.44,2.3-11.23,2.3-11.23-.59-6.53,1.55-8a26.67,26.67,0,0,0,4.71-5.14s-.81-2.14,1.44-5,5.56-21.41,5.56-23.83-3-20.54,7-27.67c0,0,2.42-49.19,9.27-56s26.3-10.91,26.3-10.91Z"/><path class="cls-10" d="M95.36,222.84l-6.58,16.52s-9.12,4.07-11.42,4.63c-1.71.43-13.92,4.2-13.5,1.74,1.28-7.69,3-14,5.2-16.14,6.84-6.84,26.3-10.91,26.3-10.91Z"/><path class="cls-8" d="M102.71,215.19s17.25,65.17,18.54,68.16-5.46,8.81,6.31,50.09c0,0-.75,5.45-1.82,7.38s-3.53,6.84-.43,8.55,13.15,10.27,17.43,11,12.3-3,12.3-3,4.28-1.6,2.94-2.94c0,0-3.9-.16-5.18-1.44S137,340.28,137,340.28s-4.49-5.77-4.49-6.17S129.27,283,129.27,283s1.17-3.21,0-9.73-.61-47.63-.61-47.63Z"/><path class="cls-10" d="M102.71,215.19,108,235c.47,1.74,20.58,3.13,20.58,3.13l.11-12.51Z"/><path class="cls-11" d="M102.71,228.09c3.33,6.62,26.79,8,28.73,8.63,0,0,.61-26.56-3.13-41.48S102.71,228.09,102.71,228.09Z"/><path class="cls-12" d="M74.19,63.47c4.13,1.71.57-5.71.57-5.71s-.39-7.43-2.5-8.69a30.8,30.8,0,0,1-4.59-3.75l39.46-27s4-5.57-5.13-9A10.87,10.87,0,0,0,90.94,6s-4-4.77-9.76-.39c0,0-11.62-.68-14.26,5a4.33,4.33,0,0,0-4.28,2.42S60.22,14,59.75,16c0,0-5.88,2.32-6.24,6.24,0,0-3.21,4.49-.64,8.13,0,0-1.69,3.19.5,5.38,0,0-4.92,5.38,0,8.73,0,0-1.21,3.5,6,4.92l2.14,4.42s2.06-.93,8,5Z"/><ellipse class="cls-13" cx="91.89" cy="49.05" rx="1.92" ry="2.62" transform="translate(-9.18 23.87) rotate(-14.1)"/><path class="cls-13" d="M89.42,47.72h-.07a1.49,1.49,0,0,1-1.43-1.55c0-.39.23-3.79,2.71-5.13,1.6-.86,3.6-.59,5.94.8A1.5,1.5,0,0,1,95,44.41c-1.32-.79-2.38-1-3-.74-.78.42-1.11,1.95-1.14,2.62A1.51,1.51,0,0,1,89.42,47.72Z"/><ellipse class="cls-13" cx="109.31" cy="44.82" rx="1.92" ry="2.62" transform="translate(-7.63 27.99) rotate(-14.1)"/><path class="cls-13" d="M107.27,43.26a1.44,1.44,0,0,1-.4-.06,1.49,1.49,0,0,1-1-1.83c.1-.37,1.07-3.64,3.78-4.39,1.76-.49,3.65.22,5.61,2.1a1.5,1.5,0,0,1-2.07,2.17c-1.11-1.07-2.09-1.56-2.73-1.38-.86.23-1.52,1.65-1.7,2.3A1.51,1.51,0,0,1,107.27,43.26Z"/><path class="cls-14" d="M94.58,66.38c-.23-.24,14.13.9,19.61-3.13,0,0,1.08,10.92-3.82,12.12S99.52,74.58,94.58,66.38Z"/><g class="cls-15"><path class="cls-16" d="M93.64,68.1s13.44,3.84,19.41-2.14l-.75-2.71L92.61,64.57Z"/><path class="cls-17" d="M96,73s4.31-4.17,11.19-1.39,0,7.81,0,7.81Z"/></g><path class="cls-9" d="M107.42,76.77c-8.18,0-13.65-9.79-13.72-9.91l-.86-1.57,1.79.09c.13,0,13.27.65,19-3a1,1,0,0,1,1.38.31,1,1,0,0,1-.31,1.38c-5,3.13-14.29,3.4-18.3,3.34C98.55,70.55,104,77,111.06,74a1,1,0,0,1,.79,1.84A11,11,0,0,1,107.42,76.77Z"/><path class="cls-9" d="M69.16,67.68S69,58.32,61.73,56.07"/><path class="cls-9" d="M61.74,141.79s6.17-8.26,5.36-7c-4.52,7,11.55,15.06,15.32,10.75a9.63,9.63,0,0,1-10.48,2.66Z"/><path class="cls-18" d="M75.9,105.43s-6.85,2.52-10,5.71c0,0,19.2,27.85,6.08,37.05,0,0,12.09,23.08,10.81,27.79S60,240.61,60,240.61s66.31-1.18,68.67-44.53l-3.14-25a210,210,0,0,0,1.86-25.31c.13-12.18-1.2-26.17-2.18-35.73a15.47,15.47,0,0,0-4.49-9.69l-6.25-.58s4.93,16.52-6.48,18.08C101.84,118.74,87,120.73,75.9,105.43Z"/><g class="cls-19"><path class="cls-20" d="M62.46,242.23s66.31-1.18,68.67-44.53Z"/></g><path class="cls-18" d="M75.9,105.43s-6.85,2.52-10,5.71c0,0,19.2,27.85,6.08,37.05,0,0,12.09,23.08,10.81,27.79S60,240.61,60,240.61s66.31-1.18,68.67-44.53l-3.14-25a210,210,0,0,0,1.86-25.31c.13-12.18-1.2-26.17-2.18-35.73a15.47,15.47,0,0,0-4.49-9.69l-6.25-.58s4.93,16.52-6.48,18.08C101.84,118.74,87,120.73,75.9,105.43Z"/><path class="cls-8" d="M62.46,192.47l9.8,7.39s-3.1,9.52-1.28,11.34-5.35,5.2-5.35,5.2-2.78,6.56,2.86,5.14a84.56,84.56,0,0,0,13.26-5.21l3.2-17.9s1-3.51-3-5.86c-3.09-1.81-11.63-7.95-11.63-7.95Z"/><path class="cls-21" d="M81.27,180.82s35,4.66,44.66-6.46c0,0,1.06-2.2-.41-3.23.21,2.05-16.42,11-42.77,5.35A2.86,2.86,0,0,0,81.27,180.82Z"/><circle class="cls-22" cx="110.31" cy="179.14" r="8.15"/><g class="cls-23"><path class="cls-24" d="M71.59,21.4s-3.5,4.25.94,7.08c1.56,1-4.6,5.77-4.6,5.77l-2.48,14a18.62,18.62,0,0,1,5.35-1.29L82.05,59.81l-7.22,4.51L51.8,48.8,36.47,19.19,56.22,1.26l21.61-5L74,3.76s-9.17,5.6-5.67,9.64C66.17,14.94,65.74,21,71.59,21.4Z"/></g><path class="cls-5" d="M61.61,53.77s-4.14-1.85-4.14-5.27,16.11-35.8,49.77-30.23c0,0,5.2,3.63,3.42,5.41,0,0,3.21,4,.64,6.13S96.26,28.81,61.61,53.77Z"/><path class="cls-25" d="M63.42,46.22S85,20,108,23.4C108,23.4,86.52,24.55,63.42,46.22Z"/><path class="cls-26" d="M111.21,186.05a8,8,0,0,1-5.91-2.3c-1.58-1.76-2-4.32-1.32-7.61a1.5,1.5,0,1,1,2.93.64c-.49,2.29-.28,4,.63,5,1.36,1.53,4,1.29,4.06,1.29a1.5,1.5,0,0,1,1.65,1.34,1.49,1.49,0,0,1-1.34,1.64A5.49,5.49,0,0,1,111.21,186.05Z"/><path class="cls-27" d="M115.24,183.29a1.84,1.84,0,0,1-.33,0,1.5,1.5,0,0,1-1.14-1.79c.51-2.28.31-3.95-.58-5-1.36-1.55-4-1.33-4.08-1.33a1.5,1.5,0,0,1-.28-3c.17,0,4.21-.38,6.59,2.31,1.58,1.77,2,4.34,1.28,7.62A1.49,1.49,0,0,1,115.24,183.29Z"/><path class="cls-9" d="M102.92,64a1.5,1.5,0,1,1,0-3c1.48,0,5.62-1.25,8.52-2.24-.92-7.27-5.57-12.7-8.35-15.36a1.5,1.5,0,1,1,2.07-2.17c3.24,3.1,8.77,9.61,9.38,18.46l.08,1.13-1.07.38C112.75,61.46,105.67,64,102.92,64Z"/><path class="cls-9" d="M200.66,115.85a3.78,3.78,0,0,1-.74-.07,1.5,1.5,0,0,1,.52-3c1.09.19,2.54-1.32,3.07-2.08a1.5,1.5,0,0,1,2.48,1.69C205.73,112.81,203.57,115.85,200.66,115.85Z"/><path class="cls-9" d="M211.45,121.22a1,1,0,0,1-.34-.06,1,1,0,0,1-.6-1.28c.71-1.93-1.64-5.25-2.52-6.25a1,1,0,1,1,1.5-1.32c.43.49,4.14,4.87,2.9,8.26A1,1,0,0,1,211.45,121.22Z"/></g></svg>