<svg id="Camada_1" data-name="Camada 1" xmlns="http://www.w3.org/2000/svg" xmlns:xlink="http://www.w3.org/1999/xlink" viewBox="0 0 709.69 220.53"><defs><style>.cls-1,.cls-12,.cls-13,.cls-18,.cls-28,.cls-29{fill:none;}.cls-2{fill:#ffd478;}.cls-3{fill:#027e8f;}.cls-4{fill:#f9f9f9;}.cls-5{clip-path:url(#clip-path);}.cls-6{fill:#eaa000;}.cls-7{fill:#eac2a7;}.cls-8{fill:#c9a68f;}.cls-9{fill:#d6aa8b;}.cls-10{fill:#d6d6d6;}.cls-11{fill:#c99f4b;}.cls-12,.cls-18{stroke:#c9a68f;}.cls-12,.cls-13,.cls-18,.cls-28,.cls-29{stroke-linecap:round;stroke-miterlimit:10;}.cls-12,.cls-13,.cls-28,.cls-29{stroke-width:3px;}.cls-13{stroke:#6d5f56;}.cls-14{fill:#493e38;}.cls-15{clip-path:url(#clip-path-2);}.cls-16{fill:#fcfcfc;}.cls-17{fill:#d32222;}.cls-18{stroke-width:2px;}.cls-19{fill:#f4f4f4;}.cls-20{clip-path:url(#clip-path-3);}.cls-21{fill:#b7b7b7;}.cls-22{fill:#6d472e;}.cls-23{fill:#c99e32;}.cls-24{clip-path:url(#clip-path-4);}.cls-25{fill:#aa7e30;}.cls-26{fill:#fff;}.cls-27{fill:#ddd;}.cls-28{stroke:#846829;}.cls-29{stroke:#e8cd95;}.cls-30{fill:#6d5f56;}</style><clipPath id="clip-path"><path class="cls-1" d="M131.35,205.74s-28.28,21.48-75.64,3.83S8.34,56.33,8.34,56.33s43.57-64.74,53.31-63S128.21,6.06,128.21,27,153.49,141.6,153.49,141.6s10.62,41.12,5.31,44.25"/></clipPath><clipPath id="clip-path-2"><path class="cls-1" d="M85.87,63c-.2-.3,14.62,3.48,21.08.24,0,0-.83,11.62-6.17,12C95.28,75.58,89.56,72.43,85.87,63Z"/></clipPath><clipPath id="clip-path-3"><path class="cls-1" d="M97.74,220.18c3.2,6.35,25.73,7.7,27.59,8.28,0,0,.59-25.51-3-39.84S97.74,220.18,97.74,220.18Z"/></clipPath><clipPath id="clip-path-4"><path class="cls-1" d="M70.35,62.07c4,1.64.55-5.48.55-5.48s-.38-7.14-2.4-8.36a28.85,28.85,0,0,1-4.41-3.6l10.15-7,27.74-19s3.84-5.34-4.93-8.63A10.44,10.44,0,0,0,86.44,6.87S82.6,2.29,77.06,6.5c0,0-11.16-.65-13.7,4.82a4.18,4.18,0,0,0-4.11,2.33s-2.32.89-2.77,2.78c0,0-5.65,2.22-6,6,0,0-3.08,4.31-.62,7.8,0,0-1.62,3.07.48,5.17,0,0-4.72,5.17,0,8.39,0,0-1.16,3.36,5.75,4.73l2.06,4.24s2-.9,7.67,4.8Z"/></clipPath></defs><title>Prancheta 33</title><path class="cls-2" d="M131.74,54.85H699.69a10,10,0,0,1,10,10V198.59a10,10,0,0,1-10,10H131.74a0,0,0,0,1,0,0V54.85A0,0,0,0,1,131.74,54.85Z"/><path class="cls-3" d="M343.57,81.37l-.06,0-5.13,11.27h-.79l-5.12-11.21h-.06l.1,5.56v4.76l1.55.12v.77h-4.22v-.77l1.54-.12v-11l-1.54-.11v-.79h3L338,91.09H338l5.09-11.27h3v.79l-1.55.11v11l1.55.12v.77h-4.22v-.77l1.55-.12V87Z"/><path class="cls-3" d="M352.27,92.8a4.23,4.23,0,0,1-3.2-1.31,4.59,4.59,0,0,1-1.28-3.34v-.49a4.76,4.76,0,0,1,1.27-3.38,4,4,0,0,1,3.06-1.35,4,4,0,0,1,3,1.11,4.05,4.05,0,0,1,1.08,3v.89h-7.25v.26a4,4,0,0,0,.93,2.68,3,3,0,0,0,2.42,1.09,5.1,5.1,0,0,0,1.81-.28,3.61,3.61,0,0,0,1.28-.78l.48.72a4.16,4.16,0,0,1-1.46.9A6.29,6.29,0,0,1,352.27,92.8Zm-.15-9a2.83,2.83,0,0,0-2.11.89A3.68,3.68,0,0,0,349,87l0,0h6v-.26a2.9,2.9,0,0,0-.79-2.07A2.8,2.8,0,0,0,352.12,83.83Z"/><path class="cls-3" d="M370,92.62c-.07-.32-.13-.6-.16-.83a5.81,5.81,0,0,1-.05-.72,4.38,4.38,0,0,1-1.52,1.24,4.52,4.52,0,0,1-2.13.49,3.45,3.45,0,0,1-2.34-.72,2.45,2.45,0,0,1-.82-2A2.38,2.38,0,0,1,364.22,88a6.25,6.25,0,0,1,3.32-.77h2.27V86a2,2,0,0,0-.7-1.6,3,3,0,0,0-2-.58,5.11,5.11,0,0,0-1.56.22,3.48,3.48,0,0,0-1.19.58l-.09,1.28h-.94V84.08a6,6,0,0,1,1.7-.83,7,7,0,0,1,2.11-.32,4.37,4.37,0,0,1,2.74.8,2.74,2.74,0,0,1,1,2.3V90.7c0,.2,0,.38,0,.56a4.52,4.52,0,0,0,.06.53l1,.06v.77Zm-3.74-.75a4.42,4.42,0,0,0,2.18-.52A3.29,3.29,0,0,0,369.81,90v-1.9h-2.28a4.51,4.51,0,0,0-2.48.59,1.75,1.75,0,0,0-.92,1.5,1.51,1.51,0,0,0,.57,1.23A2.38,2.38,0,0,0,366.28,91.87Z"/><path class="cls-3" d="M378,91.92a3.39,3.39,0,0,0,2-.6,1.9,1.9,0,0,0,.87-1.66h1l0,0a2.54,2.54,0,0,1-1.13,2.21,4.47,4.47,0,0,1-2.75.88,4,4,0,0,1-3.23-1.33,5,5,0,0,1-1.15-3.42v-.37a5,5,0,0,1,1.15-3.41A4,4,0,0,1,378,82.93a5.54,5.54,0,0,1,2.18.42,4.27,4.27,0,0,1,1.6,1.12l.05,2.08h-1l-.18-1.69a3.15,3.15,0,0,0-1.14-.75,3.92,3.92,0,0,0-1.54-.28,2.83,2.83,0,0,0-2.44,1.09,4.6,4.6,0,0,0-.79,2.76v.37a4.68,4.68,0,0,0,.78,2.78A2.86,2.86,0,0,0,378,91.92Z"/><path class="cls-3" d="M384,87.72a4.86,4.86,0,0,1,1.24-3.44,4.71,4.71,0,0,1,6.6,0,4.86,4.86,0,0,1,1.24,3.44V88a4.89,4.89,0,0,1-1.23,3.45,4.75,4.75,0,0,1-6.61,0A4.85,4.85,0,0,1,384,88Zm1.14.29a4.3,4.3,0,0,0,.9,2.78,3,3,0,0,0,2.52,1.13,3,3,0,0,0,2.48-1.13A4.3,4.3,0,0,0,392,88v-.29a4.32,4.32,0,0,0-.9-2.76,3.33,3.33,0,0,0-5,0,4.32,4.32,0,0,0-.9,2.76Z"/><path class="cls-3" d="M394.73,83.89v-.78h2.55l.1,1.57a3.55,3.55,0,0,1,1.32-1.29,4.07,4.07,0,0,1,2-.46,3.38,3.38,0,0,1,2,.54,2.89,2.89,0,0,1,1.13,1.62,3.58,3.58,0,0,1,3.42-2.16,3.21,3.21,0,0,1,2.54,1,4.58,4.58,0,0,1,.9,3.12v4.65l1.54.13v.77h-4.24v-.77l1.55-.13V87.06a3.69,3.69,0,0,0-.67-2.49,2.43,2.43,0,0,0-1.87-.72,2.62,2.62,0,0,0-2,.78,3.58,3.58,0,0,0-.89,2v.13a.71.71,0,0,1,0,.16v4.81l1.55.12v.77h-4.24v-.77l1.55-.12V87.06a3.65,3.65,0,0,0-.68-2.47,2.4,2.4,0,0,0-1.86-.74,3,3,0,0,0-1.93.57,2.94,2.94,0,0,0-1,1.52v5.79l1.55.12v.77h-4.23v-.77l1.54-.12V84Z"/><path class="cls-3" d="M413.26,83.89v-.78h2.5l.14,1.48a3.53,3.53,0,0,1,1.33-1.22,4,4,0,0,1,1.91-.44A3.43,3.43,0,0,1,422,84.3a5.83,5.83,0,0,1,1.05,3.64v.19a5.16,5.16,0,0,1-1.05,3.4,3.49,3.49,0,0,1-2.87,1.27,4.39,4.39,0,0,1-1.9-.38,3.32,3.32,0,0,1-1.32-1.08v4l1.55.11v.79h-4.23v-.79l1.55-.11V84Zm8.68,4a5.14,5.14,0,0,0-.78-3,2.59,2.59,0,0,0-2.28-1.14,3.2,3.2,0,0,0-1.86.5,3.16,3.16,0,0,0-1.08,1.32v4.57a2.92,2.92,0,0,0,1.13,1.23,3.45,3.45,0,0,0,1.83.45,2.63,2.63,0,0,0,2.26-1,4.46,4.46,0,0,0,.78-2.75Z"/><path class="cls-3" d="M432,92.62a7.38,7.38,0,0,1-.16-.83,4.36,4.36,0,0,1-.05-.72,4.48,4.48,0,0,1-1.52,1.24,4.53,4.53,0,0,1-2.14.49,3.44,3.44,0,0,1-2.33-.72,2.46,2.46,0,0,1-.83-2A2.37,2.37,0,0,1,426.22,88a6.23,6.23,0,0,1,3.32-.77h2.27V86a2,2,0,0,0-.71-1.6,3,3,0,0,0-2-.58,5.11,5.11,0,0,0-1.56.22,3.52,3.52,0,0,0-1.18.58l-.09,1.28h-.94V84.08a6,6,0,0,1,1.7-.83,6.9,6.9,0,0,1,2.11-.32,4.34,4.34,0,0,1,2.73.8,2.75,2.75,0,0,1,1,2.3V90.7c0,.2,0,.38,0,.56a4.52,4.52,0,0,0,.06.53l1,.06v.77Zm-3.74-.75a4.36,4.36,0,0,0,2.17-.52A3.26,3.26,0,0,0,431.81,90v-1.9h-2.29a4.49,4.49,0,0,0-2.47.59,1.74,1.74,0,0,0-.93,1.5,1.52,1.52,0,0,0,.58,1.23A2.38,2.38,0,0,0,428.28,91.87Z"/><path class="cls-3" d="M435.44,91.85l1.55-.12V84l-1.55-.12v-.78H438l.1,1.66a3.57,3.57,0,0,1,1.34-1.36,3.9,3.9,0,0,1,2-.48,3.3,3.3,0,0,1,2.55.95,4.24,4.24,0,0,1,.87,3v4.9l1.55.12v.77h-4.24v-.77l1.55-.12V86.84a3.25,3.25,0,0,0-.66-2.31,2.46,2.46,0,0,0-1.87-.68,3.08,3.08,0,0,0-1.95.58A3.21,3.21,0,0,0,438.13,86v5.75l1.55.12v.77h-4.24Z"/><path class="cls-3" d="M447.84,79.69v-.78h2.68v5.83a3.62,3.62,0,0,1,1.36-1.33,4,4,0,0,1,2-.48,3.25,3.25,0,0,1,2.49.94,4.11,4.11,0,0,1,.86,2.89v5l1.55.12v.77h-4.23v-.77l1.55-.12v-5a3.1,3.1,0,0,0-.66-2.22,2.43,2.43,0,0,0-1.82-.67,3.22,3.22,0,0,0-1.95.57,3.25,3.25,0,0,0-1.15,1.5v5.81l1.54.12v.77h-4.22v-.77l1.55-.12V79.81Z"/><path class="cls-3" d="M464.92,92.8a4.23,4.23,0,0,1-3.2-1.31,4.59,4.59,0,0,1-1.28-3.34v-.49a4.76,4.76,0,0,1,1.27-3.38,4.06,4.06,0,0,1,3.06-1.35,4,4,0,0,1,3,1.11,4.05,4.05,0,0,1,1.08,3v.89h-7.25v.26a4,4,0,0,0,.93,2.68,3,3,0,0,0,2.42,1.09,5.1,5.1,0,0,0,1.81-.28,3.61,3.61,0,0,0,1.28-.78l.48.72a4.16,4.16,0,0,1-1.46.9A6.29,6.29,0,0,1,464.92,92.8Zm-.15-9a2.83,2.83,0,0,0-2.11.89,3.68,3.68,0,0,0-1,2.24l0,0h6v-.26a2.9,2.9,0,0,0-.79-2.07A2.8,2.8,0,0,0,464.77,83.83Z"/><path class="cls-3" d="M475.37,91.85l1.55-.12V84l-1.55-.12v-.78h2.56l.1,1.66a3.55,3.55,0,0,1,1.33-1.36,4,4,0,0,1,2-.48,3.31,3.31,0,0,1,2.55.95,4.24,4.24,0,0,1,.87,3v4.9l1.55.12v.77h-4.24v-.77l1.55-.12V86.84a3.25,3.25,0,0,0-.66-2.31,2.46,2.46,0,0,0-1.87-.68,3.08,3.08,0,0,0-2,.58A3.21,3.21,0,0,0,478.06,86v5.75l1.55.12v.77h-4.24Z"/><path class="cls-3" d="M492.53,92.8a4.27,4.27,0,0,1-3.21-1.31,4.63,4.63,0,0,1-1.27-3.34v-.49a4.76,4.76,0,0,1,1.27-3.38,4,4,0,0,1,3.06-1.35,4,4,0,0,1,3,1.11,4.05,4.05,0,0,1,1.08,3v.89h-7.25v.26a4,4,0,0,0,.93,2.68,3,3,0,0,0,2.42,1.09,5.14,5.14,0,0,0,1.81-.28,3.61,3.61,0,0,0,1.28-.78l.48.72a4.16,4.16,0,0,1-1.46.9A6.29,6.29,0,0,1,492.53,92.8Zm-.15-9a2.83,2.83,0,0,0-2.11.89,3.68,3.68,0,0,0-1,2.24l0,0h6v-.26a2.9,2.9,0,0,0-.79-2.07A2.8,2.8,0,0,0,492.38,83.83Z"/><path class="cls-3" d="M505.91,86.05H505l-.13-1.35a2.91,2.91,0,0,0-1.07-.64,4.63,4.63,0,0,0-1.5-.23,3,3,0,0,0-1.87.5,1.47,1.47,0,0,0-.62,1.16,1.34,1.34,0,0,0,.54,1.09,5.47,5.47,0,0,0,2.14.76,7.16,7.16,0,0,1,2.74,1,2.08,2.08,0,0,1,.91,1.78,2.24,2.24,0,0,1-1,1.92,4.63,4.63,0,0,1-2.74.73,6.84,6.84,0,0,1-2.08-.29,5,5,0,0,1-1.61-.83V89.76h.92l.16,1.36a2.7,2.7,0,0,0,1.15.61,5.78,5.78,0,0,0,1.46.19,3.34,3.34,0,0,0,1.94-.5A1.45,1.45,0,0,0,505,90.2,1.5,1.5,0,0,0,504.4,89a5,5,0,0,0-2.14-.81,7.77,7.77,0,0,1-2.72-1,2,2,0,0,1-.89-1.71,2.25,2.25,0,0,1,1-1.84,4.21,4.21,0,0,1,2.63-.76,6.4,6.4,0,0,1,2.06.32,4.33,4.33,0,0,1,1.53.87Z"/><path class="cls-3" d="M510.8,80.68v2.43h2.26V84H510.8v6.2a1.88,1.88,0,0,0,.37,1.32,1.27,1.27,0,0,0,1,.39,4.87,4.87,0,0,0,.54,0l.6-.07.17.78a3.48,3.48,0,0,1-.69.17,5.66,5.66,0,0,1-.82.06,2.21,2.21,0,0,1-1.68-.63,2.83,2.83,0,0,1-.61-2V84h-1.76v-.86h1.76V80.68Z"/><path class="cls-3" d="M522.24,92.62a7.38,7.38,0,0,1-.16-.83,5.81,5.81,0,0,1-.05-.72,4.38,4.38,0,0,1-1.52,1.24,4.52,4.52,0,0,1-2.13.49,3.45,3.45,0,0,1-2.34-.72,2.45,2.45,0,0,1-.82-2A2.38,2.38,0,0,1,516.44,88a6.23,6.23,0,0,1,3.32-.77H522V86a1.94,1.94,0,0,0-.71-1.6,3,3,0,0,0-2-.58,5.18,5.18,0,0,0-1.57.22,3.52,3.52,0,0,0-1.18.58l-.09,1.28h-.94V84.08a6,6,0,0,1,1.7-.83,7,7,0,0,1,2.11-.32,4.37,4.37,0,0,1,2.74.8,2.74,2.74,0,0,1,1,2.3V90.7c0,.2,0,.38,0,.56a4.51,4.51,0,0,0,.07.53l1,.06v.77Zm-3.74-.75a4.36,4.36,0,0,0,2.17-.52A3.26,3.26,0,0,0,522,90v-1.9h-2.29a4.49,4.49,0,0,0-2.47.59,1.73,1.73,0,0,0-.92,1.5,1.51,1.51,0,0,0,.57,1.23A2.38,2.38,0,0,0,518.5,91.87Z"/><path class="cls-3" d="M533.58,83.89,532.3,84l2.56,6.26.34,1.11h0l.36-1.11L538.14,84l-1.28-.09v-.78h3.45v.78l-1,.08-3.63,8.65h-.91L531.13,84l-1-.08v-.78h3.45Z"/><path class="cls-3" d="M541.49,91.85l1.54-.12V84l-1.54-.12v-.78h2.67v8.62l1.55.12v.77h-4.22Zm2.67-11.46H543V78.91h1.13Z"/><path class="cls-3" d="M554.71,92.62a7.38,7.38,0,0,1-.16-.83,5.81,5.81,0,0,1,0-.72,4.57,4.57,0,0,1-3.65,1.73,3.45,3.45,0,0,1-2.34-.72,2.45,2.45,0,0,1-.82-2A2.36,2.36,0,0,1,548.91,88a6.23,6.23,0,0,1,3.32-.77h2.27V86a2,2,0,0,0-.71-1.6,3,3,0,0,0-2-.58,5.14,5.14,0,0,0-1.57.22,3.52,3.52,0,0,0-1.18.58L549,85.91H548V84.08a6,6,0,0,1,1.7-.83,7,7,0,0,1,2.11-.32,4.36,4.36,0,0,1,2.73.8,2.75,2.75,0,0,1,1,2.3V90.7c0,.2,0,.38,0,.56a3.07,3.07,0,0,0,.07.53l1,.06v.77ZM551,91.87a4.36,4.36,0,0,0,2.17-.52A3.26,3.26,0,0,0,554.5,90v-1.9h-2.29a4.49,4.49,0,0,0-2.47.59,1.73,1.73,0,0,0-.92,1.5,1.51,1.51,0,0,0,.57,1.23A2.38,2.38,0,0,0,551,91.87Z"/><path class="cls-3" d="M558.39,87.94a5.83,5.83,0,0,1,1.05-3.64,3.47,3.47,0,0,1,2.91-1.37,3.78,3.78,0,0,1,1.89.45,3.61,3.61,0,0,1,1.33,1.25l.13-1.52h1V92.5a3.89,3.89,0,0,1-1.08,2.9,4,4,0,0,1-3,1.06,7.4,7.4,0,0,1-1.58-.17,6.71,6.71,0,0,1-1.47-.45l.3-.89a7.05,7.05,0,0,0,1.3.42,6.6,6.6,0,0,0,1.43.15,2.86,2.86,0,0,0,2.2-.8,3.15,3.15,0,0,0,.74-2.22V91.29a3.48,3.48,0,0,1-1.32,1.12,4.19,4.19,0,0,1-1.87.39,3.55,3.55,0,0,1-2.9-1.27,5.23,5.23,0,0,1-1-3.4Zm1.14.19a4.56,4.56,0,0,0,.75,2.74,2.64,2.64,0,0,0,2.26,1,3.32,3.32,0,0,0,1.85-.47,3.06,3.06,0,0,0,1.13-1.28V85.73a3.4,3.4,0,0,0-1.09-1.36,3.09,3.09,0,0,0-1.87-.52A2.56,2.56,0,0,0,560.29,85a5.21,5.21,0,0,0-.76,3Z"/><path class="cls-3" d="M573.77,92.8a4.27,4.27,0,0,1-3.21-1.31,4.59,4.59,0,0,1-1.27-3.34v-.49a4.75,4.75,0,0,1,1.26-3.38,4.06,4.06,0,0,1,3.06-1.35,4,4,0,0,1,3,1.11,4,4,0,0,1,1.09,3v.89h-7.25v.26a4,4,0,0,0,.92,2.68,3,3,0,0,0,2.43,1.09,5.08,5.08,0,0,0,1.8-.28,3.53,3.53,0,0,0,1.28-.78l.48.72a4.16,4.16,0,0,1-1.46.9A6.23,6.23,0,0,1,573.77,92.8Zm-.16-9a2.83,2.83,0,0,0-2.11.89,3.74,3.74,0,0,0-1,2.24l0,0h6v-.26a2.86,2.86,0,0,0-.79-2.07A2.79,2.79,0,0,0,573.61,83.83Z"/><path class="cls-3" d="M579.45,83.89v-.78H582l.11,1.57a3.55,3.55,0,0,1,1.32-1.29,4,4,0,0,1,2-.46,3.41,3.41,0,0,1,2,.54,2.93,2.93,0,0,1,1.13,1.62,3.74,3.74,0,0,1,1.32-1.58,3.69,3.69,0,0,1,2.09-.58,3.2,3.2,0,0,1,2.54,1,4.58,4.58,0,0,1,.9,3.12v4.65l1.55.13v.77h-4.25v-.77l1.55-.13V87.06a3.64,3.64,0,0,0-.67-2.49,2.41,2.41,0,0,0-1.86-.72,2.65,2.65,0,0,0-2,.78,3.57,3.57,0,0,0-.88,2v5.1l1.55.12v.77h-4.23v-.77l1.54-.12V87.06a3.65,3.65,0,0,0-.67-2.47,2.44,2.44,0,0,0-1.87-.74,2.76,2.76,0,0,0-2.91,2.09v5.79l1.54.12v.77h-4.23v-.77l1.55-.12V84Z"/><path class="cls-3" d="M600.08,92.62h-1.35V91.15h1.35Zm-.12-4.2h-1.13v-8.6H600Z"/><path class="cls-3" d="M405.32,182.45A3.41,3.41,0,0,1,404,183.6a4.19,4.19,0,0,1-1.9.4,3.51,3.51,0,0,1-2.88-1.27,5.23,5.23,0,0,1-1-3.4v-.19a5.89,5.89,0,0,1,1-3.64,3.44,3.44,0,0,1,2.9-1.37,3.87,3.87,0,0,1,1.86.42,3.64,3.64,0,0,1,1.31,1.19V171l-1.55-.12v-.78h2.69v12.82l1.55.12v.77h-2.57Zm-6-3.12a4.52,4.52,0,0,0,.75,2.74,2.58,2.58,0,0,0,2.24,1,3.36,3.36,0,0,0,1.83-.46,3.06,3.06,0,0,0,1.14-1.25v-4.5a3.34,3.34,0,0,0-1.09-1.32,3.15,3.15,0,0,0-1.86-.51,2.54,2.54,0,0,0-2.26,1.14,5.27,5.27,0,0,0-.75,2.95Z"/><path class="cls-3" d="M409.65,183.05l1.54-.12v-7.72l-1.54-.12v-.78h2.67v8.62l1.55.12v.77h-4.22Zm2.67-11.46h-1.13v-1.48h1.13Z"/><path class="cls-3" d="M415.83,179.14a5.83,5.83,0,0,1,1.05-3.64,3.44,3.44,0,0,1,2.9-1.37,3.84,3.84,0,0,1,1.9.45,3.75,3.75,0,0,1,1.32,1.25l.14-1.52h.95v9.39a3.93,3.93,0,0,1-1.07,2.9,4,4,0,0,1-3,1.06,7.54,7.54,0,0,1-1.58-.17A6.71,6.71,0,0,1,417,187l.31-.89a7,7,0,0,0,1.29.42,6.67,6.67,0,0,0,1.43.15,2.85,2.85,0,0,0,2.2-.8,3.1,3.1,0,0,0,.74-2.22v-1.21a3.38,3.38,0,0,1-1.31,1.12,4.25,4.25,0,0,1-1.87.39,3.54,3.54,0,0,1-2.9-1.27,5.17,5.17,0,0,1-1-3.4Zm1.14.19a4.56,4.56,0,0,0,.75,2.74,2.63,2.63,0,0,0,2.26,1,3.37,3.37,0,0,0,1.84-.46,3.08,3.08,0,0,0,1.13-1.29v-4.41a3.32,3.32,0,0,0-1.09-1.36,3.07,3.07,0,0,0-1.87-.52,2.54,2.54,0,0,0-2.26,1.14,5.21,5.21,0,0,0-.76,2.95Z"/><path class="cls-3" d="M426.67,178.92a4.87,4.87,0,0,1,1.25-3.44,4.7,4.7,0,0,1,6.59,0,4.87,4.87,0,0,1,1.25,3.44v.29a4.9,4.9,0,0,1-1.24,3.45,4.73,4.73,0,0,1-6.6,0,4.86,4.86,0,0,1-1.25-3.45Zm1.14.29a4.25,4.25,0,0,0,.91,2.78,3.33,3.33,0,0,0,5,0,4.3,4.3,0,0,0,.9-2.78v-.29a4.22,4.22,0,0,0-.91-2.75,3.3,3.3,0,0,0-5,0,4.22,4.22,0,0,0-.91,2.75Z"/><path class="cls-3" d="M439.36,183.82h-1.3v-1.44h1.3Z"/><path class="cls-3" d="M443.79,183.82h-1.3v-1.44h1.3Z"/><path class="cls-3" d="M448.21,183.82h-1.3v-1.44h1.3Z"/><path class="cls-3" d="M455.07,182.28l1-.13,4.2-11.13h2.84l4.18,11.13,1,.13v1.54h-4.7v-1.54l1-.16-.61-1.75h-4.48l-.61,1.75,1,.16v1.54h-4.71Zm5-3.8h3.17L461.7,174h-.06Z"/><path class="cls-3" d="M472.22,172v2.33H474v1.8h-1.81V181a1.1,1.1,0,0,0,.25.79,1,1,0,0,0,.66.23,3.78,3.78,0,0,0,.5,0c.14,0,.3,0,.48-.07l.24,1.85a8,8,0,0,1-.92.2,7.63,7.63,0,0,1-1,.06,3.13,3.13,0,0,1-2.21-.72,3.09,3.09,0,0,1-.77-2.32v-4.85H468v-1.8h1.51V172Z"/><path class="cls-3" d="M480.3,184a4.82,4.82,0,0,1-3.55-1.31,4.51,4.51,0,0,1-1.33-3.35V179a4.94,4.94,0,0,1,1.26-3.49,4.95,4.95,0,0,1,6.6-.21,4.26,4.26,0,0,1,1.15,3.14v1.4H478.3l0,0a2.39,2.39,0,0,0,.68,1.55,2.2,2.2,0,0,0,1.63.61,5.88,5.88,0,0,0,1.53-.17,7.39,7.39,0,0,0,1.33-.55l.75,1.59a5.51,5.51,0,0,1-1.65.78A7.51,7.51,0,0,1,480.3,184Zm-.17-13.39h2.93l0,0L480.46,173h-2.22Zm-.08,5.5a1.47,1.47,0,0,0-1.21.55,2.68,2.68,0,0,0-.55,1.43l0,0h3.39v-.22a1.94,1.94,0,0,0-.41-1.31A1.55,1.55,0,0,0,480.05,176.11Z"/><path class="cls-3" d="M490.21,171.66v-1.55h4.25V182l1.34.26v1.54h-5.45v-1.54l1.34-.26v-10.1Z"/><path class="cls-3" d="M496.51,179a4.87,4.87,0,0,1,1.29-3.49,5.33,5.33,0,0,1,7.11,0A4.84,4.84,0,0,1,506.2,179v.18a4.86,4.86,0,0,1-1.29,3.5,5.39,5.39,0,0,1-7.11,0,4.86,4.86,0,0,1-1.29-3.5Zm2.77.18a3.87,3.87,0,0,0,.5,2.09,2,2,0,0,0,3.16,0,3.92,3.92,0,0,0,.5-2.09V179a3.89,3.89,0,0,0-.5-2.07,1.76,1.76,0,0,0-1.59-.8,1.7,1.7,0,0,0-1.57.8,3.89,3.89,0,0,0-.5,2.07Z"/><path class="cls-3" d="M507.58,179.14a5.78,5.78,0,0,1,1.06-3.63,3.51,3.51,0,0,1,3-1.38,3.11,3.11,0,0,1,1.52.36,3.29,3.29,0,0,1,1.12,1l.2-1.2h2.41v9.23a3.81,3.81,0,0,1-1.28,3,5.11,5.11,0,0,1-3.5,1.12,7.15,7.15,0,0,1-1.66-.2,7.81,7.81,0,0,1-1.61-.54l.51-1.8a8.86,8.86,0,0,0,1.33.42,6.35,6.35,0,0,0,1.41.15,1.94,1.94,0,0,0,1.52-.57,2.35,2.35,0,0,0,.5-1.59v-.62a3.1,3.1,0,0,1-1.07.81,3.4,3.4,0,0,1-1.42.28,3.57,3.57,0,0,1-2.94-1.28,5.15,5.15,0,0,1-1.06-3.39Zm2.77.19a3.65,3.65,0,0,0,.45,2,1.63,1.63,0,0,0,1.48.72,2.34,2.34,0,0,0,1.08-.22,1.77,1.77,0,0,0,.71-.62V177a1.9,1.9,0,0,0-.71-.67,2.18,2.18,0,0,0-1.06-.24,1.59,1.59,0,0,0-1.48.83,4.38,4.38,0,0,0-.47,2.18Z"/><path class="cls-3" d="M518.51,179a4.87,4.87,0,0,1,1.29-3.49,5.33,5.33,0,0,1,7.11,0A4.84,4.84,0,0,1,528.2,179v.18a4.86,4.86,0,0,1-1.29,3.5,5.39,5.39,0,0,1-7.11,0,4.86,4.86,0,0,1-1.29-3.5Zm2.77.18a3.87,3.87,0,0,0,.5,2.09,2,2,0,0,0,3.16,0,3.92,3.92,0,0,0,.5-2.09V179a3.89,3.89,0,0,0-.5-2.07,1.76,1.76,0,0,0-1.59-.8,1.7,1.7,0,0,0-1.57.8,3.89,3.89,0,0,0-.5,2.07Z"/><path class="cls-3" d="M532.71,179.41h-2.77V171h2.77Zm0,4.41h-2.77v-2.25h2.77Z"/><path class="cls-3" d="M344,133.46a7.12,7.12,0,0,1-1.68,5.13,6,6,0,0,1-4.54,1.76,6.06,6.06,0,0,1-4.57-1.76,7.12,7.12,0,0,1-1.68-5.13v-3.77a7.14,7.14,0,0,1,1.68-5.13,6,6,0,0,1,4.55-1.77,6,6,0,0,1,4.55,1.77,7.14,7.14,0,0,1,1.69,5.13Zm-8.79-3.2h5.1v-.92a5.26,5.26,0,0,0-.66-3,2.38,2.38,0,0,0-3.79,0,5.31,5.31,0,0,0-.65,3Zm5.1,2.54h-5.1v1a5.38,5.38,0,0,0,.65,3,2.19,2.19,0,0,0,1.92.94,2.14,2.14,0,0,0,1.89-.94,5.39,5.39,0,0,0,.64-3Z"/><path class="cls-3" d="M358.43,127.43v8.63a2.46,2.46,0,0,0,.22,1.23.75.75,0,0,0,.67.35h.15a.34.34,0,0,0,.12,0l.32,2.45a2.9,2.9,0,0,1-.76.24,4.19,4.19,0,0,1-.84.07,3.77,3.77,0,0,1-2-.48,2.87,2.87,0,0,1-1.21-1.45,4.2,4.2,0,0,1-1.48,1.43,4,4,0,0,1-2,.5,4.82,4.82,0,0,1-3.94-1.71,7,7,0,0,1-1.4-4.53v-.24a7.79,7.79,0,0,1,1.4-4.84,4.7,4.7,0,0,1,4-1.84,3.87,3.87,0,0,1,1.88.45,4.38,4.38,0,0,1,1.41,1.28l.28-1.49ZM350,134.11a5,5,0,0,0,.6,2.64,2.11,2.11,0,0,0,1.95,1,2.63,2.63,0,0,0,1.3-.3,2.5,2.5,0,0,0,.89-.88c0-.06,0-.13,0-.21v-5.24a2.67,2.67,0,0,0-.88-.94,2.38,2.38,0,0,0-1.27-.33,2.09,2.09,0,0,0-2,1.12,6,6,0,0,0-.62,2.93Z"/><path class="cls-3" d="M381.48,130.07h-3.26a6.49,6.49,0,0,1,1.64,1.83,4.22,4.22,0,0,1,.64,2.22v.25a5.85,5.85,0,0,1-1.67,4.28,6.15,6.15,0,0,1-4.58,1.7,6.26,6.26,0,0,1-4.77-1.8,6.48,6.48,0,0,1-1.71-4.66v-.25a6.13,6.13,0,0,1,1.71-4.48,6.34,6.34,0,0,1,4.74-1.74h7.26Zm-10,3.82a5.15,5.15,0,0,0,.66,2.78,2.33,2.33,0,0,0,2.13,1.05,2.09,2.09,0,0,0,1.94-1.05,5.4,5.4,0,0,0,.62-2.78v-.25a4.73,4.73,0,0,0-.62-2.57,2.16,2.16,0,0,0-2-1,2.32,2.32,0,0,0-2.09,1,4.53,4.53,0,0,0-.67,2.57Z"/><path class="cls-3" d="M395.86,127.43v8.63a2.46,2.46,0,0,0,.22,1.23.75.75,0,0,0,.68.35h.14a.34.34,0,0,0,.12,0l.32,2.45a3,3,0,0,1-.75.24,4.19,4.19,0,0,1-.84.07,3.81,3.81,0,0,1-2-.48,2.87,2.87,0,0,1-1.21-1.45,4.26,4.26,0,0,1-1.47,1.43,4,4,0,0,1-2,.5,4.82,4.82,0,0,1-3.94-1.71,6.9,6.9,0,0,1-1.41-4.53v-.24a7.73,7.73,0,0,1,1.41-4.84,4.69,4.69,0,0,1,4-1.84,3.82,3.82,0,0,1,1.88.45,4.38,4.38,0,0,1,1.41,1.28l.28-1.49Zm-8.43,6.68a5,5,0,0,0,.6,2.64,2.13,2.13,0,0,0,2,1,2.37,2.37,0,0,0,2.19-1.18,1.25,1.25,0,0,1,0-.21v-5.24a2.58,2.58,0,0,0-.88-.94,2.38,2.38,0,0,0-1.27-.33,2.1,2.1,0,0,0-2,1.12,6.07,6.07,0,0,0-.62,2.93Z"/><path class="cls-3" d="M405.2,127.19a6,6,0,0,1,4.06,1.3,4.28,4.28,0,0,1,1.48,3.55l0,.07h-3.36a2.41,2.41,0,0,0-.55-1.64,2,2,0,0,0-1.61-.65,2.15,2.15,0,0,0-2,1.07,5.36,5.36,0,0,0-.61,2.71V134a3.27,3.27,0,0,0,.75,2.32,5.11,5.11,0,0,0,2.44,1.25,10.82,10.82,0,0,1,3,1.11,2.31,2.31,0,0,1,.9,1.92,3.5,3.5,0,0,1-.9,2.09,7.87,7.87,0,0,1-2,1.84l-1.93-1.3a5.72,5.72,0,0,0,.88-1.08,1.85,1.85,0,0,0,.29-.91.88.88,0,0,0-.33-.72,2.55,2.55,0,0,0-1-.42,8.78,8.78,0,0,1-4.35-2.13,5.45,5.45,0,0,1-1.4-4v-.35a6.55,6.55,0,0,1,1.65-4.6A6,6,0,0,1,405.2,127.19Z"/><path class="cls-3" d="M420.2,125.44a3.15,3.15,0,0,1,1.43-2.75,6.78,6.78,0,0,1,4-1,7.2,7.2,0,0,1,1.88.25,12.93,12.93,0,0,1,2,.72l-.56,2.17a15.26,15.26,0,0,0-1.51-.44,7.08,7.08,0,0,0-1.65-.19,3,3,0,0,0-1.49.31,1,1,0,0,0-.54.85,1.24,1.24,0,0,0,.41.85,4.06,4.06,0,0,0,1.57.81,10,10,0,0,1,4.47,2.63,5.89,5.89,0,0,1,1.5,4.1V134a6.22,6.22,0,0,1-1.75,4.57,6.31,6.31,0,0,1-4.74,1.78,6.49,6.49,0,0,1-4.79-1.74,6.05,6.05,0,0,1-1.74-4.47v-.23a5.3,5.3,0,0,1,1.11-3.35,4.89,4.89,0,0,1,2.77-1.83l.05-.13a4.49,4.49,0,0,1-1.74-1.31A2.82,2.82,0,0,1,420.2,125.44Zm2.11,8.4a5.07,5.07,0,0,0,.71,2.79,2.39,2.39,0,0,0,2.14,1.09,2.34,2.34,0,0,0,2.09-1.09,5,5,0,0,0,.72-2.79v-.23a4.19,4.19,0,0,0-.79-2.42,3.18,3.18,0,0,0-2-1.37,2.37,2.37,0,0,0-2.12,1.09,4.69,4.69,0,0,0-.73,2.7Z"/><path class="cls-3" d="M433.19,133.64a6.43,6.43,0,0,1,1.72-4.64,7.14,7.14,0,0,1,9.49,0,6.49,6.49,0,0,1,1.71,4.65v.25a6.48,6.48,0,0,1-1.71,4.66,7.15,7.15,0,0,1-9.49,0,6.45,6.45,0,0,1-1.72-4.66Zm3.7.25a5.15,5.15,0,0,0,.66,2.78,2.65,2.65,0,0,0,4.22,0,5.2,5.2,0,0,0,.66-2.78v-.25a5.07,5.07,0,0,0-.67-2.75,2.32,2.32,0,0,0-2.11-1.07,2.27,2.27,0,0,0-2.1,1.07,5.16,5.16,0,0,0-.66,2.75Z"/><path class="cls-3" d="M453,135.21a3.28,3.28,0,0,0,.43,1.92,1.37,1.37,0,0,0,1.15.59,2.29,2.29,0,0,0,2-1.29,5.61,5.61,0,0,0,.77-3,16.4,16.4,0,0,0-.37-3,22.53,22.53,0,0,0-.92-3h3.52a13,13,0,0,1,1.05,2.74,12.78,12.78,0,0,1,.4,3.31,7.52,7.52,0,0,1-1.59,5,5.83,5.83,0,0,1-4.76,1.91,5.74,5.74,0,0,1-4-1.28,5,5,0,0,1-1.42-3.88V130.9a1,1,0,0,0-.22-.74,1,1,0,0,0-.68-.21,2.25,2.25,0,0,0-.4,0l-.46.1-.38-2.32a5.35,5.35,0,0,1,1.26-.4,7.42,7.42,0,0,1,1.55-.16,3.27,3.27,0,0,1,2.23.68,2.56,2.56,0,0,1,.79,2.06Zm1.32-14.11h3.52l-2.66,4.27h-1.82Z"/><path class="cls-3" d="M473.56,139.3a3.55,3.55,0,0,1-1.27.78,4.44,4.44,0,0,1-1.58.27,5,5,0,0,1-1.19-.13,3.39,3.39,0,0,1-1-.38V145h-3.68V129.83l-2-.35v-2.06h5.66v7.27a3.69,3.69,0,0,0,.56,2.37,2.17,2.17,0,0,0,1.7.63,3.45,3.45,0,0,0,1.6-.33,2.28,2.28,0,0,0,1-.94v-6.59l-2-.35v-2.06h5.66V137.7l1.78.35v2h-5.21Z"/><path class="cls-3" d="M486.53,134.73a3.74,3.74,0,0,0-1.86.38,1.26,1.26,0,0,0-.66,1.18,1.34,1.34,0,0,0,.66,1.11,3.15,3.15,0,0,0,1.84.46,3.35,3.35,0,0,0,1.85-.43,1.28,1.28,0,0,0,.67-1.08h3.56l0,.07a3.05,3.05,0,0,1-1.71,2.91,8.37,8.37,0,0,1-4.2,1,9.23,9.23,0,0,1-4.59-1,3.13,3.13,0,0,1-1.79-2.8,2.59,2.59,0,0,1,.67-1.8,4.09,4.09,0,0,1,1.93-1.14,4.18,4.18,0,0,1-1.74-1.13,2.32,2.32,0,0,1-.62-1.55,3,3,0,0,1,1.68-2.72,8.83,8.83,0,0,1,4.46-1,7.47,7.47,0,0,1,4.09,1,3,3,0,0,1,1.59,2.75l0,.07h-3.56a1.12,1.12,0,0,0-.64-1,3.27,3.27,0,0,0-1.65-.38,2.75,2.75,0,0,0-1.69.44,1.28,1.28,0,0,0-.56,1,1.14,1.14,0,0,0,.58,1,3.12,3.12,0,0,0,1.68.37h2.37v2.21Z"/><path class="cls-3" d="M514.3,130.07H511a6.38,6.38,0,0,1,1.65,1.83,4.3,4.3,0,0,1,.63,2.22v.25a5.85,5.85,0,0,1-1.67,4.28,6.13,6.13,0,0,1-4.58,1.7,6.29,6.29,0,0,1-4.77-1.8,6.48,6.48,0,0,1-1.71-4.66v-.25a6.13,6.13,0,0,1,1.71-4.48,6.37,6.37,0,0,1,4.74-1.74h7.27Zm-10,3.82a5.15,5.15,0,0,0,.66,2.78,2.33,2.33,0,0,0,2.13,1.05,2.11,2.11,0,0,0,1.95-1.05,5.5,5.5,0,0,0,.62-2.78v-.25a4.73,4.73,0,0,0-.63-2.57,2.15,2.15,0,0,0-2-1,2.32,2.32,0,0,0-2.09,1,4.61,4.61,0,0,0-.67,2.57Z"/><path class="cls-3" d="M521.35,135.21a3.28,3.28,0,0,0,.43,1.92,1.35,1.35,0,0,0,1.15.59,2.3,2.3,0,0,0,2-1.29,5.7,5.7,0,0,0,.77-3,16.42,16.42,0,0,0-.38-3,21.19,21.19,0,0,0-.92-3H528a13,13,0,0,1,1,2.74,12.77,12.77,0,0,1,.41,3.31,7.52,7.52,0,0,1-1.59,5,5.85,5.85,0,0,1-4.76,1.91,5.74,5.74,0,0,1-4-1.28,5,5,0,0,1-1.43-3.88V130.9a1,1,0,0,0-.22-.74.94.94,0,0,0-.67-.21,2.17,2.17,0,0,0-.4,0l-.47.1-.38-2.32a5.68,5.68,0,0,1,1.26-.4,7.49,7.49,0,0,1,1.55-.16,3.3,3.3,0,0,1,2.24.68,2.56,2.56,0,0,1,.79,2.06Zm1.31-14.11h3.52l-2.66,4.27H521.7Z"/><path class="cls-3" d="M537.16,129.48l-1.29.23,1.81,5.67.24,1.19H538l.27-1.19,1.78-5.66-1.32-.24v-2.06H545v2.06l-1.19.18-4,10.44h-3.53l-4.05-10.44-1.19-.18v-2.06h6.21Z"/><path class="cls-3" d="M557.3,127.42V130h-3.91v6.31a1.48,1.48,0,0,0,.28,1,1.12,1.12,0,0,0,.87.3,4.14,4.14,0,0,0,.58,0l.65-.17.38,2.46a6.08,6.08,0,0,1-1.13.32,7.37,7.37,0,0,1-1.23.09,4.24,4.24,0,0,1-3-1,4,4,0,0,1-1.06-3.05V130H546v-2.61Z"/><path class="cls-3" d="M558.49,133.64A6.47,6.47,0,0,1,560.2,129a7.14,7.14,0,0,1,9.49,0,6.46,6.46,0,0,1,1.72,4.65v.25a6.45,6.45,0,0,1-1.72,4.66,6.19,6.19,0,0,1-4.72,1.8,6.29,6.29,0,0,1-4.77-1.8,6.48,6.48,0,0,1-1.71-4.66Zm3.69.25a5.15,5.15,0,0,0,.66,2.78,2.33,2.33,0,0,0,2.13,1.05,2.29,2.29,0,0,0,2.09-1.05,5.11,5.11,0,0,0,.67-2.78v-.25a5.16,5.16,0,0,0-.67-2.75,2.34,2.34,0,0,0-2.12-1.07,2.29,2.29,0,0,0-2.1,1.07,5.16,5.16,0,0,0-.66,2.75Z"/><path class="cls-3" d="M583.6,139.3a3.59,3.59,0,0,1-1.28.78,4.38,4.38,0,0,1-1.57.27,4.93,4.93,0,0,1-1.19-.13,3.57,3.57,0,0,1-1-.38V145h-3.68V129.83l-2-.35v-2.06h5.65v7.27a3.62,3.62,0,0,0,.57,2.37,2.15,2.15,0,0,0,1.7.63,3.41,3.41,0,0,0,1.59-.33,2.36,2.36,0,0,0,1-.94v-6.59l-2-.35v-2.06h5.66V137.7l1.79.35v2h-5.22Z"/><path class="cls-3" d="M602.64,127.43v8.63a2.58,2.58,0,0,0,.22,1.23.76.76,0,0,0,.68.35h.15l.12,0,.31,2.45a3,3,0,0,1-.75.24,4.19,4.19,0,0,1-.84.07,3.77,3.77,0,0,1-2-.48,2.89,2.89,0,0,1-1.22-1.45,4.09,4.09,0,0,1-1.47,1.43,4,4,0,0,1-2,.5,4.82,4.82,0,0,1-3.94-1.71,6.89,6.89,0,0,1-1.4-4.53v-.24a7.73,7.73,0,0,1,1.4-4.84,4.69,4.69,0,0,1,4-1.84,3.82,3.82,0,0,1,1.88.45,4.18,4.18,0,0,1,1.41,1.28l.28-1.49Zm-8.43,6.68a4.87,4.87,0,0,0,.61,2.64,2.11,2.11,0,0,0,1.95,1,2.63,2.63,0,0,0,1.3-.3,2.58,2.58,0,0,0,.89-.88,1.34,1.34,0,0,1,0-.21v-5.24a2.6,2.6,0,0,0-.89-.94,2.34,2.34,0,0,0-1.26-.33,2.11,2.11,0,0,0-2,1.12,6.07,6.07,0,0,0-.62,2.93Z"/><path class="cls-3" d="M609.84,134.22h-3.69V123h3.69Zm0,5.88h-3.69v-3h3.69Z"/><circle class="cls-4" cx="91" cy="129.53" r="88"/><path class="cls-3" d="M91,44.53a85,85,0,1,1-85,85,85,85,0,0,1,85-85m0-6a91,91,0,1,0,91,91,91.1,91.1,0,0,0-91-91Z"/><path class="cls-2" d="M90.78,44.68a84.78,84.78,0,1,0,84.77,84.78A84.78,84.78,0,0,0,90.78,44.68Zm0,163.91a79.13,79.13,0,1,1,79.12-79.13A79.13,79.13,0,0,1,90.78,208.59Z"/><path class="cls-2" d="M130.79,67.88a2.84,2.84,0,0,0-3.92.82l-4.62,7.11a2.81,2.81,0,0,0,.9,4c1.09.7,2.15,1.46,3.17,2.26.63.49,1.27,1,1.77,1.32.88.73,1.72,1.49,2.56,2.26l-2,2a56.49,56.49,0,0,0-12.39-8.49l5.78-13a2.82,2.82,0,0,0-1.43-3.73,73.66,73.66,0,0,0-26-6.2,2.75,2.75,0,0,0-2,.72,2.8,2.8,0,0,0-.93,2l-.44,8.47a2.84,2.84,0,0,0,2.67,3l3,.15,3.17.48,1.22.19c.61.08,1.22.17,1.76.29l.39.1-.74,2.77a57.91,57.91,0,0,0-15-1.21L86.21,58.91a2.75,2.75,0,0,0-1-1.9,2.78,2.78,0,0,0-2.07-.62A72.94,72.94,0,0,0,57.43,64a2.82,2.82,0,0,0-1.23,3.8l3.86,7.55a2.82,2.82,0,0,0,3.7,1.28c.57-.26,1.13-.54,1.69-.81a30.55,30.55,0,0,1,4-1.74l.73-.27c.85-.31,1.67-.62,2.49-.89l.73,2.73c-.7.24-1.37.49-2,.74l-.67.25a27.26,27.26,0,0,0-4,1.7l-1.7.83L60.23,82c-.11,0-.22.12-.33.18L51.57,70.7a2.84,2.84,0,0,0-4-.63A73.57,73.57,0,0,0,29.19,89.45,2.83,2.83,0,0,0,30,93.37L37.13,98a2.8,2.8,0,0,0,2.16.39,2.84,2.84,0,0,0,1.79-1.29,34.82,34.82,0,0,1,2.25-3.16c.49-.64,1-1.28,1.33-1.78.72-.88,1.48-1.72,2.25-2.56l2,2a56.09,56.09,0,0,0-8.49,12.38l-13-5.78a2.84,2.84,0,0,0-3.74,1.44,74.1,74.1,0,0,0-6.2,26,2.82,2.82,0,0,0,2.68,3l8.47.44a2.79,2.79,0,0,0,3-2.67l.15-3,.48-3.17c.08-.41.13-.82.19-1.23.09-.61.18-1.22.3-1.75l.1-.39,2.77.74a57.48,57.48,0,0,0-1.22,15L20.22,134a2.81,2.81,0,0,0-2.51,3.1,73.63,73.63,0,0,0,7.65,25.68,2.8,2.8,0,0,0,1.64,1.4,2.85,2.85,0,0,0,2.16-.17l7.55-3.86a2.82,2.82,0,0,0,1.27-3.7c-.26-.56-.53-1.12-.8-1.67a30.3,30.3,0,0,1-1.75-4.06l-.27-.75c-.32-.84-.62-1.66-.89-2.47l2.77-.74a55.69,55.69,0,0,0,6.45,13.53L32,168.67a2.85,2.85,0,0,0-1.13,1.84,2.89,2.89,0,0,0,.51,2.11A73.38,73.38,0,0,0,50.77,191a2.82,2.82,0,0,0,3.91-.82l4.62-7.11a2.8,2.8,0,0,0,.39-2.16,2.83,2.83,0,0,0-1.28-1.79,35.65,35.65,0,0,1-3.17-2.26c-.64-.49-1.28-1-1.77-1.32-.88-.72-1.72-1.49-2.56-2.25l2-2c.75.69,1.53,1.39,2.47,2.16.55.38,1.09.8,1.62,1.21a34.36,34.36,0,0,0,3.15,2.22l5.05,2.89.06,0-5.79,13a2.82,2.82,0,0,0,1.43,3.73,73.71,73.71,0,0,0,26,6.2h.15a2.83,2.83,0,0,0,2.82-2.68l.44-8.47a2.82,2.82,0,0,0-2.67-3l-3-.16L81.54,188l-1.22-.18c-.62-.09-1.23-.18-1.76-.3l-.39-.1.74-2.77a57.84,57.84,0,0,0,15,1.21L95.34,200a2.81,2.81,0,0,0,3.11,2.52,72.8,72.8,0,0,0,25.68-7.65,2.82,2.82,0,0,0,1.23-3.8l-3.86-7.55a2.83,2.83,0,0,0-3.7-1.28c-.57.26-1.13.54-1.7.82a28.22,28.22,0,0,1-4,1.73l-.72.27c-.85.32-1.67.62-2.49.9l-.74-2.77a56.21,56.21,0,0,0,13.52-6.46L130,188.23a2.82,2.82,0,0,0,3.94.62,73.41,73.41,0,0,0,18.43-19.38,2.82,2.82,0,0,0-.82-3.91l-7.11-4.63a2.85,2.85,0,0,0-4,.9,33.48,33.48,0,0,1-2.25,3.16c-.49.64-1,1.29-1.32,1.78-.73.88-1.49,1.72-2.26,2.56l-1.95-2A56,56,0,0,0,141.17,155l13,5.78a2.84,2.84,0,0,0,3.73-1.43,73.72,73.72,0,0,0,6.2-26.05,2.83,2.83,0,0,0-2.68-3l-8.46-.44a2.85,2.85,0,0,0-3,2.67l-.15,3-.48,3.17c-.07.41-.13.82-.19,1.23-.09.61-.17,1.22-.29,1.75l-.1.39-2.73-.73,0-.07c.15-.65.25-1.32.34-2,.05-.31.09-.62.15-1l.43-2.78a2.89,2.89,0,0,0,0-.29l.14-3v-5.9l14.2-1.47a2.85,2.85,0,0,0,1.9-1,2.89,2.89,0,0,0,.62-2.08,73.91,73.91,0,0,0-7.65-25.68,2.83,2.83,0,0,0-3.8-1.22l-7.55,3.85a2.82,2.82,0,0,0-1.28,3.71c.26.56.53,1.11.8,1.66a28.68,28.68,0,0,1,1.75,4.07l.27.74c.32.84.62,1.66.89,2.47l-2.77.74a55.62,55.62,0,0,0-6.45-13.52l11.48-8.36a2.81,2.81,0,0,0,1.13-1.84,2.76,2.76,0,0,0-.51-2.1A73.22,73.22,0,0,0,130.79,67.88Zm1.72,27.78a2.83,2.83,0,0,0-.63,4,50.12,50.12,0,0,1,8,16.69,2.83,2.83,0,0,0,3.46,2l8.19-2.18a2.84,2.84,0,0,0,2-3.33,41.26,41.26,0,0,0-1.85-5.84l-.22-.6a29.28,29.28,0,0,0-1.59-3.84l2.52-1.28a68,68,0,0,1,5.47,18.34l-14,1.46a2.81,2.81,0,0,0-2.53,3l.14,2.74v5.41l-.14,2.66-.41,2.59c-.06.37-.11.75-.17,1.12a13.19,13.19,0,0,1-.23,1.42l-.7,2.72a2.82,2.82,0,0,0,2,3.44l8.19,2.19a2.82,2.82,0,0,0,3.47-2l.83-3.22c.17-.75.29-1.52.4-2.29,0-.36.1-.72.17-1.13l.52-3.49,0-.43,2.77.14a68.19,68.19,0,0,1-4.42,18.61L141,148.7a2.81,2.81,0,0,0-3.73,1.44,50.66,50.66,0,0,1-10.48,15.29,2.82,2.82,0,0,0,0,4l6,6a2.76,2.76,0,0,0,2.08.83,2.87,2.87,0,0,0,2-.95l1.53-1.69c1-1.06,2-2.13,3-3.4.43-.6.88-1.19,1.33-1.78.32-.42.64-.83.95-1.26l2.37,1.55a67.84,67.84,0,0,1-13.17,13.85l-8.28-11.38a2.82,2.82,0,0,0-4-.62,50.39,50.39,0,0,1-16.69,8,2.84,2.84,0,0,0-2,3.47l2.2,8.19a2.82,2.82,0,0,0,3.32,2,41.93,41.93,0,0,0,5.86-1.85l.58-.22a28.59,28.59,0,0,0,3.83-1.59l1.29,2.52a68.1,68.1,0,0,1-18.35,5.47l-1.45-14a2.8,2.8,0,0,0-1-1.9,2.87,2.87,0,0,0-2.07-.62,51.8,51.8,0,0,1-18.51-1.5,2.82,2.82,0,0,0-3.46,2L72,188.73a2.82,2.82,0,0,0,2,3.46l3.21.83c.76.18,1.53.29,2.3.4l1.12.17,3.49.52.44,0-.15,2.78a68.5,68.5,0,0,1-18.6-4.43l5.73-12.84a2.83,2.83,0,0,0-1.36-3.7l-2.34-1.12L63,172.05a29.25,29.25,0,0,1-2.57-1.84c-.61-.46-1.2-.92-1.64-1.21-.82-.67-1.6-1.39-2.38-2.11-.58-.53-1.16-1.07-1.76-1.59a2.83,2.83,0,0,0-3.86.13l-6,6a2.82,2.82,0,0,0,.12,4.11L46.6,177c1.07,1,2.15,2,3.42,3,.61.43,1.2.88,1.78,1.33l1.26,1-1.54,2.37a67.58,67.58,0,0,1-13.85-13.17l11.38-8.28a2.82,2.82,0,0,0,.62-4,50.66,50.66,0,0,1-8-16.7,2.83,2.83,0,0,0-3.45-2l-8.2,2.19a2.83,2.83,0,0,0-2,3.32A42.55,42.55,0,0,0,29.86,152l.23.61a29.67,29.67,0,0,0,1.58,3.83l-2.51,1.29a68.48,68.48,0,0,1-5.48-18.35l14-1.45a2.82,2.82,0,0,0,2.52-3.09,52,52,0,0,1,1.51-18.5,2.79,2.79,0,0,0-.28-2.15,2.86,2.86,0,0,0-1.72-1.32l-8.19-2.19a2.84,2.84,0,0,0-3.47,2l-.82,3.22c-.18.76-.29,1.52-.4,2.29-.05.36-.1.72-.17,1.13l-.52,3.49,0,.43-2.77-.14a68.93,68.93,0,0,1,4.42-18.61l12.85,5.73a2.82,2.82,0,0,0,2.17.06,2.87,2.87,0,0,0,1.57-1.49,50.68,50.68,0,0,1,10.47-15.3,2.82,2.82,0,0,0,0-4l-6-6a2.79,2.79,0,0,0-2.08-.82,2.82,2.82,0,0,0-2,.94c-.5.57-1,1.13-1.53,1.69-1,1.06-2,2.13-3,3.4-.43.6-.89,1.2-1.34,1.79l-1,1.25L35.52,90.2A67.84,67.84,0,0,1,48.69,76.35L57,87.73a2.82,2.82,0,0,0,4,.62l.65-.49a9.24,9.24,0,0,1,1.39-1l4.62-2.68q.82-.37,1.62-.78A22.39,22.39,0,0,1,72.52,82l.85-.32a27.74,27.74,0,0,1,4.09-1.29,2.84,2.84,0,0,0,2.16-3.5l-2.19-8.19a2.83,2.83,0,0,0-3.32-2,43.82,43.82,0,0,0-5.86,1.85l-.59.22a29.72,29.72,0,0,0-3.83,1.59l-1.29-2.52a68.46,68.46,0,0,1,18.35-5.47l1.45,14a2.79,2.79,0,0,0,1,1.9,2.76,2.76,0,0,0,2.06.62,52,52,0,0,1,18.51,1.51,2.83,2.83,0,0,0,3.46-2l2.19-8.19a2.83,2.83,0,0,0-2-3.47l-3.22-.83c-.76-.17-1.52-.29-2.29-.4l-1.13-.17-3.49-.52-.44,0L97.14,62a68.42,68.42,0,0,1,18.6,4.43L110,79.29A2.81,2.81,0,0,0,111.46,83,50.79,50.79,0,0,1,126.75,93.5a2.82,2.82,0,0,0,4,0l6-6a2.79,2.79,0,0,0,.82-2.08,2.82,2.82,0,0,0-.94-2L135,81.88c-1.08-1-2.15-2-3.43-3-.6-.43-1.19-.88-1.78-1.33l-1.26-1L130,74.21a67.83,67.83,0,0,1,13.85,13.17Z"/><path class="cls-2" d="M90.78,84.25a45.11,45.11,0,0,0-39,68,2.75,2.75,0,0,0,.17.29,45.57,45.57,0,0,0,11.53,12.9c.07,0,.11.12.19.17h.06a44.85,44.85,0,0,0,54.06,0l.07,0c.08,0,.13-.12.2-.17a45.53,45.53,0,0,0,11.52-12.9,1.75,1.75,0,0,0,.18-.29,45.12,45.12,0,0,0-39-68Zm-5.1,6L54.32,144.82A39.51,39.51,0,0,1,85.68,90.27ZM68.81,162.34l22-38.18,22,38.18a39.44,39.44,0,0,1-43.93,0Zm48.41-3.54L94.45,119.22a4.24,4.24,0,0,0-7.35,0L64.33,158.8a39.8,39.8,0,0,1-6.88-8.1l33.33-58,6.46,11.21a2,2,0,0,0,.13.25L124.1,150.7a39.49,39.49,0,0,1-6.88,8.1Zm10-14L102.4,101.6c0-.08-.08-.17-.13-.25L95.88,90.27a39.52,39.52,0,0,1,31.36,54.54Z"/><g class="cls-5"><path class="cls-6" d="M81.72,4.72a6.62,6.62,0,0,1,4.72,2.15A11.58,11.58,0,0,1,89.3,6.5,10.41,10.41,0,0,1,97.05,10c8.52,3.2,5.14,8.33,4.94,8.62h.1s5,3.49,3.28,5.21c0,0,3.09,3.82.62,5.88a2.84,2.84,0,0,1-.89.45c7,10.91,11.18,30.17,8.42,46.05-.54,3.15-4.14,5.41-13.82,5.41h0a51.26,51.26,0,0,1-9.37-.83c.1.74.2,1.54.31,2.34h0c.49,3.46,1.19,7.4,2,8,4.94,3.71,12.3,5.25,16.44,5.85l6,.56a14.41,14.41,0,0,1,1.33,1.51h.07c1.8,0,3.22,2,3.22,2l23.64,41.37L122.88,179s6.85,11.51,3.42,16.71l4.73,4.73s.75,2.53-2.67,2.53a10.28,10.28,0,0,1-4-1.29,258.86,258.86,0,0,1,.94,26.8c-.33-.1-1.33-.23-2.76-.41v1.75h0c-.06,12.16,0,29.72.7,33.73,1.13,6.26,0,9.34,0,9.34s3.08,48.76,3.08,49.13,4.31,5.93,4.31,5.93,5.71,4.49,10.15,8.05h0a13,13,0,0,1,3.71,1.57,3.58,3.58,0,0,1,1.12,2.33c.3.2.79.53,1.35.94a14.53,14.53,0,0,0,3.85.72c.61.61,0,1.27-.79,1.8.44.48.71.89.63,1.16-.29,1.07-4.42,5.42-11.88,5.42-.42,0-.86,0-1.3-.05-7.84-.51-18.71-8.86-19.6-11.19A6.91,6.91,0,0,1,118,334a13,13,0,0,1,1.86-5.55c1-1.85,1.74-7.09,1.74-7.09-11.3-39.64-4.83-45.23-6.06-48.1-.78-1.83-7.76-27.78-12.75-46.45h0l0-.09c-.29-1.08-.57-2.13-.84-3.16A13.62,13.62,0,0,1,99.35,222a81.34,81.34,0,0,1-13.56,5.37L84.36,231,70.9,264.76s-2.56,9.4-5.59,12.43a133.76,133.76,0,0,1-7.49,21.67c-5.14,11.5-7.4,27.32-7.4,27.32s3.68,9.35,4.11,15.18c4.33,5.93,8.22,13.24,3.06,15.4a29.7,29.7,0,0,1-11.21,2c-6.21,0-11.79-1.46-13.08-2.76-2.09-2.08,3.84-17.9,3.84-17.9.18-1.44.58-2.83,1.42-3.41a25.75,25.75,0,0,0,4.52-4.93s-.77-2.06,1.38-4.83S49.8,304.34,49.8,302s-2.87-19.72,6.72-26.57c0,0,1.09-22.24,3.9-38.33h0c.31-1.82.64-3.57,1-5.19-2.94.25-4.71.28-4.71.28s2.84-7.94,6.48-18.14c-3.1-.3-1.06-5.11-1.06-5.11a25.76,25.76,0,0,0,3.64-2.15c.4-1.1.79-2.22,1.19-3.34-1-2.53,1.54-10.4,1.54-10.4L59.08,186,31.73,165.33s22-51.84,22.87-52.73c.57-.57,4.82-3.06,7.75-4.75,3.06-3.06,9.64-5.49,9.64-5.49s6.27-7.08,7.6-8.42.72-5,.72-5L76.88,75.73a25.85,25.85,0,0,1-8.45-8,3.05,3.05,0,0,1-2.23.9,7.86,7.86,0,0,1-4-1.51s-8.7-8.7-6-12.81A2.6,2.6,0,0,1,58.5,53c1.79,0,3.92,1.47,5.43,2.74-3.09-2.69-4.74-3.06-5.41-3.06h-.21l-.05,0,0,0-.06,0,0-.06c-.65-.33-3.56-1.92-3.81-4.63-4.92-1.54-4-4.28-4-4.28-4.72-3.22,0-8.39,0-8.39-2.1-2.1-.48-5.17-.48-5.17-2.46-3.49.62-7.8.62-7.8.34-3.77,6-6,6-6,.45-1.89,2.77-2.78,2.77-2.78a4.13,4.13,0,0,1,3.8-2.34h.31c2-4.42,9.73-4.85,12.6-4.85.69,0,1.1,0,1.1,0a7.63,7.63,0,0,1,4.66-1.78m38.62,161.81L133,143.67,121,125.75c.32,5.14.52,10.43.46,15.41a201.52,201.52,0,0,1-1.78,24.31,1.62,1.62,0,0,1,.69,1.06M74,183.56c1.23-3.5,2.29-6.58,3.09-8.92a2.7,2.7,0,0,1,1.32-4c.07-.23.13-.41.16-.55,1.24-4.52-10.37-26.69-10.37-26.69l-9.8-6.14L44.65,163.13l22,15.3L74,183.56m71.33,156.12h0M81.72,1.53h0a10.37,10.37,0,0,0-5.63,1.76H76c-4.13,0-11.08.69-14.44,5a7.16,7.16,0,0,0-4.52,3A8,8,0,0,0,54,14c-2,1-5.76,3.41-6.59,7.21-1.3,2.15-2.51,5.8-1.07,9.22a7.86,7.86,0,0,0,.16,4.8A9.37,9.37,0,0,0,45.12,41a7.09,7.09,0,0,0,2.05,4.22,5.67,5.67,0,0,0,.55,1.68,7.85,7.85,0,0,0,3.94,3.51A8.66,8.66,0,0,0,53.29,53c-1.54,2.83-.78,6.53,2.27,11A41.48,41.48,0,0,0,60,69.32l.33.29a10.79,10.79,0,0,0,5.92,2.15,6.56,6.56,0,0,0,1.18-.1,31.89,31.89,0,0,0,6.73,6.06l3.08,11.83a7.56,7.56,0,0,1,0,2.31c-1.39,1.43-5.52,6.09-7,7.81-1.93.77-6.75,2.87-9.7,5.62-7.12,4.1-7.69,4.68-8.07,5.06-.62.62-1,1-12.45,27.69C34.36,151,28.85,164,28.79,164.09l1,3.78,27.36,20.64,7.63,5.76c-.79,2.83-1.53,6.42-1.15,9l-.53,1.49c-1.15.73-2.34,1.3-2.35,1.31l-1.57,1.64c-.44,1-1.72,4.55-.16,7.18.1.15.2.31.31.45-3.22,9-5.64,15.78-5.64,15.78l3.06,4.26.72,0c-.07.41-.14.81-.21,1.23h0c-2.43,13.92-3.58,32-3.87,37.25-8.52,7.45-7.3,22-6.88,27,0,.49.09,1.05.09,1.21,0,2.59-3.2,18.7-4.69,20.95a9.63,9.63,0,0,0-2.18,5.89,17.75,17.75,0,0,1-3,3.2c-1.44,1-2.32,2.72-2.7,5.24-.39,1.06-1.61,4.44-2.66,8.06-2.16,7.47-2.25,11-.33,12.88,2.42,2.42,9.55,3.69,15.34,3.69a32.7,32.7,0,0,0,12.44-2.22A6.83,6.83,0,0,0,63,355.16c1-3.65-.68-8.42-5.34-15-.6-5.19-3-12-3.92-14.37.53-3.3,2.78-16.16,7-25.67a138.42,138.42,0,0,0,7.49-21.45c3-3.69,5.17-11,5.7-12.94l13.4-33.59.87-2.19a83.36,83.36,0,0,0,10.94-4.3l.09.05.47,1.79,0,.05v0c10.8,40.45,12.4,45.57,12.81,46.66,0,.29-.12.87-.2,1.36-.78,4.64-2.58,15.47,6,45.94a25.06,25.06,0,0,1-1.28,5.32,16.23,16.23,0,0,0-2.24,6.51,9.92,9.92,0,0,0,.08,6.42c1.15,3,7.24,7,8.45,7.82,2.92,1.87,8.61,5.07,13.91,5.41.51,0,1,.05,1.51.05,8.55,0,14.2-5,15-7.76a3.61,3.61,0,0,0,.09-1.48,4.15,4.15,0,0,0,.41-1.41,3.9,3.9,0,0,0-1.16-3.17l-2.12-.93a11.5,11.5,0,0,1-2.51-.39,6.34,6.34,0,0,0-1.9-2.86,13,13,0,0,0-4.28-2c-3.72-3-8.16-6.48-9.35-7.42-1.33-1.72-2.82-3.69-3.46-4.62-.15-2.52-.73-11.94-3-47.84a25,25,0,0,0-.08-10.25c-.5-2.78-.73-14.59-.64-32.43l2.78-2c0-.5.24-11-.56-22.42l.4,0a5.78,5.78,0,0,0,4.95-2.15,5.15,5.15,0,0,0,.77-4.48l-.8-1.35L130.07,195c.76-2.8.36-6.37-1.2-10.65a44.7,44.7,0,0,0-2.35-5.3l19.54-35.06,0-3.13L122.41,99.44l-.18-.28A8.49,8.49,0,0,0,118,96.09c-.24-.27-.5-.54-.76-.81l-2-.91-5.91-.56c-3.6-.52-10-1.84-14.44-4.88a31.53,31.53,0,0,1-.92-4.37c1.84.18,3.73.27,5.64.27,3.86,0,15.57,0,17-8,2.56-14.74-.56-33.52-7.44-45.92,1.48-2.24,1-5.1-.32-7.47a5.34,5.34,0,0,0,0-.8c-.17-1.94-1.61-3.72-3.07-5a7.52,7.52,0,0,0-.17-3.9c-.84-2.69-3.11-4.81-6.74-6.32a13.76,13.76,0,0,0-9.62-4,14,14,0,0,0-1.93.14,9.47,9.47,0,0,0-5.65-1.92Zm42.4,151.63c.25-3.55.45-7.63.5-12,0-1.37,0-2.82,0-4.32l4.68,7-5.17,9.33Zm-75.33,9L59.6,141.81l6.16,3.86c.85,1.66,2.95,5.8,5,10.28,3.78,8.34,4.55,11.7,4.7,12.89a5.86,5.86,0,0,0-1.65,2.4,5.78,5.78,0,0,0-.09,3.44c-.39,1.13-.83,2.42-1.34,3.87l-3.92-2.74L48.79,162.13Z"/><path class="cls-7" d="M76.41,73.91l3.9,15s.62,3.7-.72,5-7.6,8.42-7.6,8.42l-3.49,6.89,20.23,11.5,24.14-6.47-.72-17s-12.36-.79-19.56-6.2C91.17,90.07,90,77.71,90,77.71Z"/><path class="cls-8" d="M90.63,83.16c-.38-2.76-.69-5.55-.69-5.55l-13.56-3.8L77.47,78s4.24,2.76,5.56,3.34A25.66,25.66,0,0,0,90.63,83.16Z"/><path class="cls-7" d="M65.16,106.25s-9.67,5.46-10.56,6.35-22.87,52.73-22.87,52.73L59.08,186l9.42,7.1s-3,9.14-1.23,10.89-5.14,5-5.14,5-2.67,6.3,2.74,4.93a81,81,0,0,0,12.74-5l3.63-20.27L66.62,178.43l-22-15.3,13.74-25.84,9.8,6.14,12-8.78-8.63-21.5-3.7-8.08Z"/><path class="cls-7" d="M68.43,67.68s7.84,14,31.26,14c9.69,0,13.29-2.26,13.83-5.41,3.43-19.76-3.87-44.75-14-52.38-8.89-6.69-40.4,18.62-40.4,18.62l6.71,15.07s-6.85-7.4-9.59-3.29,6,12.81,6,12.81S66.1,70,68.43,67.68Z"/><path class="cls-7" d="M115.23,99.35c2.33-1.23,4.41,1.67,4.41,1.67l23.64,41.37L122.88,179s6.85,11.51,3.42,16.71l4.73,4.73s.75,2.53-2.67,2.53-11.51-6-11.51-6l.94-25.79L133,143.67l-14-20.8L114.66,119S110.89,101.65,115.23,99.35Z"/><path class="cls-7" d="M90.69,215.13,70.9,264.76s-2.56,9.4-5.59,12.43a133.76,133.76,0,0,1-7.49,21.67c-5.14,11.5-7.4,27.32-7.4,27.32s4.67,11.86,4.11,17.21c0,0,4.47,6.16,2.67,9.7s-8.83,1.44-8.83,1.44-11.76,1.54-13.51-1.39,2.21-10.78,2.21-10.78-.57-6.27,1.49-7.7a25.75,25.75,0,0,0,4.52-4.93s-.77-2.06,1.38-4.83S49.8,304.34,49.8,302s-2.87-19.72,6.72-26.57c0,0,2.32-47.25,8.9-53.82s25.27-10.48,25.27-10.48Z"/><path class="cls-9" d="M90.69,215.13,84.36,231s-8.76,3.91-11,4.45c-1.64.4-13.36,4-13,1.66,1.23-7.38,2.93-13.43,5-15.49C72,215,90.69,211.14,90.69,211.14Z"/><path class="cls-7" d="M97.74,207.78s16.57,62.59,17.8,65.47-5.24,8.46,6.06,48.1c0,0-.72,5.24-1.74,7.09s-3.39,6.57-.41,8.22,12.63,9.86,16.74,10.58S148,344.36,148,344.36s4.11-1.54,2.82-2.82c0,0-3.74-.16-5-1.39s-15.2-12.22-15.2-12.22-4.31-5.55-4.31-5.93-3.08-49.13-3.08-49.13,1.13-3.08,0-9.34-.59-45.75-.59-45.75Z"/><path class="cls-9" d="M97.74,207.78l5.05,19c.45,1.66,19.77,3,19.77,3l.1-12Z"/><path class="cls-10" d="M97.74,220.18c3.2,6.35,25.73,7.7,27.59,8.28,0,0,.59-25.51-3-39.84S97.74,220.18,97.74,220.18Z"/><path class="cls-11" d="M70.35,62.07c4,1.64.55-5.48.55-5.48s-.38-7.14-2.4-8.36a28.85,28.85,0,0,1-4.41-3.6l37.89-26s3.84-5.34-4.93-8.63A10.44,10.44,0,0,0,86.44,6.87S82.6,2.29,77.06,6.5c0,0-11.16-.65-13.7,4.82a4.18,4.18,0,0,0-4.11,2.33s-2.32.89-2.77,2.78c0,0-5.65,2.22-6,6,0,0-3.08,4.31-.62,7.8,0,0-1.62,3.07.48,5.17,0,0-4.72,5.17,0,8.39,0,0-1.16,3.36,5.75,4.73l2.06,4.24s2-.9,7.67,4.8Z"/><path class="cls-12" d="M99.1,41.72c3.14,3,8,8.88,8.57,16.79,0,0-7.26,2.6-9.73,2.6"/><path class="cls-13" d="M87.35,49.82s.28-7,6.4-3.21"/><path class="cls-13" d="M108.35,43.58s-3.07-4.75-5.43.2"/><path class="cls-14" d="M85.87,63c-.2-.3,14.62,3.48,21.08.24,0,0-.83,11.62-6.17,12C95.28,75.58,89.56,72.43,85.87,63Z"/><g class="cls-15"><path class="cls-16" d="M84.57,64.59S98,71,105.26,65.84l-.29-3L84.13,60.71Z"/><path class="cls-17" d="M86.17,70.16s5.26-3.59,12,.56-1.4,8.17-1.4,8.17Z"/></g><path class="cls-18" d="M107,63.2C99.88,66.12,85.87,63,85.87,63s5,14.65,16.13,11.93"/><path class="cls-8" d="M65.52,66.11s-.21-9-7.14-11.15"/><path class="cls-8" d="M58.39,137.29s5.92-7.94,5.14-6.73C59.2,137.27,74.64,145,78.26,140.88a9.26,9.26,0,0,1-10.07,2.55Z"/><path class="cls-19" d="M72,102.36s-6.58,2.43-9.64,5.49c0,0,18.44,26.75,5.84,35.58,0,0,11.61,22.17,10.37,26.69S56.71,232.2,56.71,232.2s63.68-1.13,65.95-42.77l-3-24a201.52,201.52,0,0,0,1.78-24.31c.13-11.7-1.15-25.14-2.09-34.31A14.73,14.73,0,0,0,115,97.54L109,97s4.73,15.86-6.22,17.36C96.9,115.15,82.67,117.06,72,102.36Z"/><g class="cls-20"><path class="cls-21" d="M59.08,233.76s63.69-1.14,66-42.77Z"/></g><path class="cls-19" d="M72,102.36s-6.58,2.43-9.64,5.49c0,0,18.44,26.75,5.84,35.58,0,0,11.61,22.17,10.37,26.69S56.71,232.2,56.71,232.2s63.68-1.13,65.95-42.77l-3-24a201.52,201.52,0,0,0,1.78-24.31c.13-11.7-1.15-25.14-2.09-34.31A14.73,14.73,0,0,0,115,97.54L109,97s4.73,15.86-6.22,17.36C96.9,115.15,82.67,117.06,72,102.36Z"/><path class="cls-7" d="M59.08,186l9.42,7.1s-3,9.14-1.23,10.89-5.14,5-5.14,5-2.67,6.3,2.74,4.93a81,81,0,0,0,12.74-5l3.07-17.19s.95-3.38-2.89-5.63c-3-1.74-11.17-7.63-11.17-7.63Z"/><path class="cls-22" d="M77.15,174.78s33.57,4.47,42.89-6.21c0,0,1-2.11-.39-3.1.2,2-15.77,10.57-41.09,5.13A2.76,2.76,0,0,0,77.15,174.78Z"/><circle class="cls-23" cx="105.04" cy="173.16" r="7.83"/><g class="cls-24"><path class="cls-25" d="M67.85,21.66s-3.36,4.08.91,6.8c1.49,1-4.42,5.55-4.42,5.55L62,47.41a17.84,17.84,0,0,1,5.14-1.24L77.9,58.56,71,62.89,48.85,48,34.12,19.54l19-17.22L73.84-2.51,70.19,4.72S61.39,10.1,64.75,14C62.64,15.46,62.23,21.27,67.85,21.66Z"/></g><path class="cls-26" d="M58.26,52.75s-4-1.78-4-5.06,15.48-34.38,47.8-29c0,0,5,3.49,3.28,5.21,0,0,3.09,3.82.62,5.88S91.54,28.78,58.26,52.75Z"/><path class="cls-27" d="M60,45.5s20.68-25.2,42.8-21.92C102.81,23.58,82.19,24.69,60,45.5Z"/><path class="cls-28" d="M106.43,178.34s-7.91.82-6.06-7.75"/><path class="cls-29" d="M103.76,167.92s7.91-.78,6,7.79"/><path class="cls-30" d="M85.38,42.8c.46-1.59,1.81-2.65,3.08-3.61.81-.61,0-2-.8-1.37C86,39,84.43,40.35,83.84,42.37a.8.8,0,0,0,1.54.43Z"/><path class="cls-30" d="M102.3,35.66a3.43,3.43,0,0,1,2.83,1c.73.72,1.86-.41,1.12-1.13a5.13,5.13,0,0,0-4.38-1.4c-1,.14-.58,1.68.43,1.54Z"/></g></svg>