<svg id="Camada_1" data-name="Camada 1" xmlns="http://www.w3.org/2000/svg" xmlns:xlink="http://www.w3.org/1999/xlink" viewBox="0 0 849.94 498.78"><defs><style>.cls-1,.cls-12,.cls-14,.cls-24,.cls-25,.cls-26,.cls-3{fill:none;}.cls-2{fill:#2ddaf7;}.cls-3{stroke:#a0864d;stroke-linejoin:round;}.cls-12,.cls-14,.cls-24,.cls-25,.cls-26,.cls-3{stroke-linecap:round;}.cls-26,.cls-3{stroke-width:2px;}.cls-4{fill:#666461;}.cls-5{fill:#13c4d6;}.cls-6{clip-path:url(#clip-path);}.cls-7{fill:#c9a68f;}.cls-8{fill:#eac2a7;}.cls-9{fill:#d6aa8b;}.cls-10{fill:#d6d6d6;}.cls-11{fill:#c99f4b;}.cls-12,.cls-26{stroke:#c9a68f;}.cls-12,.cls-14,.cls-24,.cls-25,.cls-26{stroke-miterlimit:10;}.cls-12,.cls-14,.cls-24,.cls-25{stroke-width:3px;}.cls-13{fill:#6d5f56;}.cls-14{stroke:#6d5f56;}.cls-15{fill:#f4f4f4;}.cls-16{clip-path:url(#clip-path-2);}.cls-17{fill:#b7b7b7;}.cls-18{fill:#6d472e;}.cls-19{fill:#c99e32;}.cls-20{clip-path:url(#clip-path-3);}.cls-21{fill:#aa7e30;}.cls-22{fill:#fff;}.cls-23{fill:#ddd;}.cls-24{stroke:#846829;}.cls-25{stroke:#e8cd95;}</style><clipPath id="clip-path"><path class="cls-1" d="M250.67,478.5S197.42,519,108.23,485.71,19,197.14,19,197.14s82-121.92,100.39-118.66,125.34,24,125.34,63.33,47.61,215.9,47.61,215.9,20,77.44,10,83.33"/></clipPath><clipPath id="clip-path-2"><path class="cls-1" d="M178.22,494.91c5.93,11.76,47.63,14.24,51.08,15.34,0,0,1.09-47.23-5.57-73.75S178.22,494.91,178.22,494.91Z"/></clipPath><clipPath id="clip-path-3"><path class="cls-1" d="M127.52,202.26c7.36,3,1-10.14,1-10.14s-.7-13.22-4.44-15.47a53.35,53.35,0,0,1-8.16-6.66l18.79-12.88,51.35-35.21s7.1-9.88-9.13-16a19.3,19.3,0,0,0-19.64-5.83s-7.1-8.49-17.36-.7c0,0-20.66-1.2-25.35,8.94a7.73,7.73,0,0,0-7.61,4.31s-4.31,1.65-5.13,5.13c0,0-10.46,4.12-11.09,11.09,0,0-5.7,8-1.14,14.45,0,0-3,5.67.89,9.57,0,0-8.75,9.57,0,15.53,0,0-2.16,6.21,10.64,8.74L105,185s3.66-1.66,14.2,8.87S127.52,202.26,127.52,202.26Z"/></clipPath></defs><title>Fala 2</title><path class="cls-2" d="M171.16,157.43C76.63,157.43,0,233.85,0,328.11S76.63,498.78,171.16,498.78s171.16-76.41,171.16-170.67S265.65,157.54,171.16,157.43Zm0,330c-88.23,0-159.75-71.32-159.75-159.3s71.52-159.3,159.75-159.3,159.75,71.32,159.75,159.3S259.35,487.31,171.16,487.41Z"/><path class="cls-2" d="M251.94,204.13a5.7,5.7,0,0,0-7.9,1.66l-9.33,14.3a5.67,5.67,0,0,0,1.81,8,77.14,77.14,0,0,1,6.4,4.54c1.28,1,2.56,2,3.57,2.66,1.77,1.46,3.47,3,5.16,4.54l-3.94,3.93a113.8,113.8,0,0,0-25-17.08l11.66-26.1a5.67,5.67,0,0,0-2.89-7.51,149.56,149.56,0,0,0-52.57-12.49,5.71,5.71,0,0,0-4.12,1.45,5.63,5.63,0,0,0-1.87,3.94L172,203a5.71,5.71,0,0,0,5.39,6l6,.3,6.4,1c.82.14,1.64.26,2.46.38,1.24.17,2.47.35,3.56.59l.78.2-1.5,5.58a116.55,116.55,0,0,0-30.21-2.44l-3-28.47a5.72,5.72,0,0,0-6.28-5.07,147.48,147.48,0,0,0-51.84,15.4,5.69,5.69,0,0,0-2.48,7.65l7.79,15.2a5.7,5.7,0,0,0,7.47,2.58c1.15-.53,2.29-1.08,3.43-1.64a57.42,57.42,0,0,1,8.15-3.49l1.46-.55c1.71-.63,3.38-1.25,5-1.8l1.48,5.51c-1.41.47-2.77,1-4.13,1.48l-1.35.51a53.91,53.91,0,0,0-8.1,3.43c-1,.48-2,1-3.43,1.66l-9.67,5.55c-.22.12-.44.24-.65.37L92,209.8a5.72,5.72,0,0,0-8-1.25,148.34,148.34,0,0,0-37.21,39,5.74,5.74,0,0,0-.8,4.29,5.63,5.63,0,0,0,2.48,3.59l14.34,9.31a5.72,5.72,0,0,0,8-1.81,74.39,74.39,0,0,1,4.54-6.37c1-1.29,2-2.58,2.68-3.58,1.46-1.76,3-3.46,4.55-5.15l4,3.94a113,113,0,0,0-17.14,24.94L43.24,265.08A5.72,5.72,0,0,0,35.7,268,148.58,148.58,0,0,0,23.18,320.4a5.69,5.69,0,0,0,5.41,6l17.09.88a5.67,5.67,0,0,0,4.12-1.44,5.61,5.61,0,0,0,1.87-3.93l.3-6,1-6.37c.15-.82.27-1.65.39-2.48.17-1.22.35-2.46.59-3.52l.2-.79,5.59,1.49a115.09,115.09,0,0,0-2.45,30.13l-28.54,3a5.7,5.7,0,0,0-5.09,6.25,148,148,0,0,0,15.45,51.7,5.7,5.7,0,0,0,7.67,2.47L62,390a5.67,5.67,0,0,0,2.58-7.46c-.52-1.13-1.07-2.24-1.62-3.36A57.44,57.44,0,0,1,59.43,371l-.56-1.5c-.64-1.69-1.25-3.34-1.79-5L62.66,363a113.31,113.31,0,0,0,13,27.23L52.52,407A5.69,5.69,0,0,0,51.26,415a148.37,148.37,0,0,0,39.12,37.1,5.72,5.72,0,0,0,4.3.8,5.66,5.66,0,0,0,3.6-2.46l9.33-14.31a5.66,5.66,0,0,0-1.81-8,75,75,0,0,1-6.4-4.55c-1.28-1-2.56-1.95-3.57-2.66-1.77-1.45-3.47-3-5.16-4.53l4-4c1.53,1.4,3.09,2.8,5,4.35,1.11.78,2.19,1.61,3.27,2.44a69.91,69.91,0,0,0,6.36,4.47l10.19,5.83.12,0L108,455.67a5.67,5.67,0,0,0,2.89,7.51,149.56,149.56,0,0,0,52.57,12.49h.3a5.7,5.7,0,0,0,5.69-5.39l.89-17a5.7,5.7,0,0,0-5.39-6l-6-.3-6.4-1c-.82-.14-1.64-.25-2.46-.37-1.24-.18-2.47-.35-3.55-.6l-.79-.2,1.5-5.57a117,117,0,0,0,30.22,2.44l3,28.47a5.72,5.72,0,0,0,6.28,5.07,147.36,147.36,0,0,0,51.84-15.4,5.7,5.7,0,0,0,2.48-7.66L233.19,437a5.72,5.72,0,0,0-7.48-2.57c-1.15.53-2.28,1.08-3.42,1.64a57.92,57.92,0,0,1-8.15,3.49l-1.46.55c-1.72.63-3.38,1.25-5,1.8l-1.5-5.58a113.1,113.1,0,0,0,27.3-13l16.87,23.11a5.72,5.72,0,0,0,8,1.26,148.23,148.23,0,0,0,37.21-39,5.68,5.68,0,0,0-1.67-7.87l-14.35-9.31a5.71,5.71,0,0,0-8,1.81,72.81,72.81,0,0,1-4.55,6.36c-1,1.29-2,2.58-2.68,3.59-1.46,1.76-3,3.46-4.55,5.14l-3.94-3.93a113.58,113.58,0,0,0,17.13-24.94l26.17,11.64a5.73,5.73,0,0,0,7.54-2.88,148.58,148.58,0,0,0,12.52-52.44,5.71,5.71,0,0,0-5.41-6L296.64,329a5.75,5.75,0,0,0-6,5.38l-.3,6-1,6.37c-.15.82-.27,1.65-.39,2.47-.17,1.23-.35,2.47-.59,3.53l-.2.79L282.7,352l0-.14c.31-1.32.51-2.67.7-4,.09-.63.17-1.26.29-2l.88-5.6a5.42,5.42,0,0,0,.06-.58l.3-6V322.15l0-.26,28.66-3a5.68,5.68,0,0,0,5.08-6.25A148.2,148.2,0,0,0,303.24,261a5.71,5.71,0,0,0-7.67-2.47l-15.25,7.76a5.68,5.68,0,0,0-2.58,7.46c.53,1.13,1.08,2.24,1.62,3.36a59.05,59.05,0,0,1,3.53,8.17l.56,1.51c.63,1.69,1.25,3.34,1.79,5l-5.59,1.49a112.39,112.39,0,0,0-13-27.23l23.18-16.82a5.67,5.67,0,0,0,1.26-7.94A148.21,148.21,0,0,0,251.94,204.13Zm3.47,55.93a5.67,5.67,0,0,0-1.26,7.94,101.37,101.37,0,0,1,16.09,33.62,5.74,5.74,0,0,0,7,4l16.54-4.41a5.7,5.7,0,0,0,4.11-6.69,82.25,82.25,0,0,0-3.73-11.75l-.45-1.22a57.83,57.83,0,0,0-3.2-7.72l5.08-2.59a137.52,137.52,0,0,1,11.05,36.93l-28.25,2.93a5.7,5.7,0,0,0-5.11,5.95l.29,5.52v10.88l-.28,5.36-.81,5.22c-.13.74-.24,1.49-.35,2.24-.14,1-.27,2-.46,2.87l-1.43,5.47a5.69,5.69,0,0,0,4,6.93l16.54,4.4a5.69,5.69,0,0,0,7-4.08l1.68-6.49c.35-1.51.58-3,.8-4.6.1-.73.2-1.45.34-2.27l1.05-7,.05-.87,5.6.28a137.73,137.73,0,0,1-8.93,37.46l-25.94-11.53a5.72,5.72,0,0,0-7.54,2.89,101.92,101.92,0,0,1-21.15,30.8,5.67,5.67,0,0,0,0,8l12.1,12.07a5.62,5.62,0,0,0,4.21,1.67,5.71,5.71,0,0,0,4.09-1.91q1.53-1.71,3.09-3.39c2-2.14,4-4.29,6.05-6.85.87-1.21,1.78-2.41,2.7-3.6.63-.83,1.27-1.66,1.91-2.52l4.79,3.11A136.81,136.81,0,0,1,256.13,435L239.4,412.12a5.71,5.71,0,0,0-8-1.25,102.09,102.09,0,0,1-33.71,16,5.67,5.67,0,0,0-4,7l4.42,16.49a5.71,5.71,0,0,0,6.71,4.1,85.91,85.91,0,0,0,11.83-3.73l1.18-.44a59.84,59.84,0,0,0,7.73-3.19l2.6,5.07a138.19,138.19,0,0,1-37,11L188.19,435a5.61,5.61,0,0,0-2.05-3.83,5.68,5.68,0,0,0-4.18-1.25,105,105,0,0,1-37.36-3,5.71,5.71,0,0,0-7,4l-4.42,16.5a5.66,5.66,0,0,0,4.09,7l6.5,1.67c1.53.35,3.08.58,4.63.8.73.11,1.45.21,2.27.35l7,1,.88.05-.3,5.59A139.14,139.14,0,0,1,120.75,455l11.57-25.87a5.69,5.69,0,0,0-2.74-7.44l-4.74-2.26-9.72-5.57a57.58,57.58,0,0,1-5.2-3.7c-1.21-.92-2.42-1.85-3.31-2.44-1.64-1.36-3.22-2.8-4.79-4.24-1.18-1.08-2.35-2.16-3.56-3.21a5.73,5.73,0,0,0-7.79.27l-12.1,12.06a5.69,5.69,0,0,0,.24,8.28c1.13,1,2.24,2,3.36,3,2.16,2,4.33,4,6.91,6.08,1.22.86,2.41,1.77,3.59,2.68L95,434.58l-3.12,4.78a136.59,136.59,0,0,1-28-26.52l23-16.67a5.68,5.68,0,0,0,1.26-7.95A101.37,101.37,0,0,1,72.08,354.6a5.72,5.72,0,0,0-7-4L48.56,355a5.68,5.68,0,0,0-4.1,6.68,81.93,81.93,0,0,0,3.72,11.76l.45,1.22a60.36,60.36,0,0,0,3.2,7.72L46.75,385A137.52,137.52,0,0,1,35.7,348L64,345.09A5.7,5.7,0,0,0,69,338.88a104,104,0,0,1,3-37.26,5.69,5.69,0,0,0-4-7L51.5,290.24a5.71,5.71,0,0,0-7,4.08l-1.68,6.49c-.35,1.52-.58,3.06-.8,4.6-.1.73-.2,1.46-.34,2.28l-1,7,0,.87L35,315.3a137.73,137.73,0,0,1,8.93-37.46l25.94,11.54a5.75,5.75,0,0,0,4.37.11,5.68,5.68,0,0,0,3.17-3,102,102,0,0,1,21.15-30.79,5.69,5.69,0,0,0,0-8l-12.1-12.07a5.73,5.73,0,0,0-8.3.24c-1,1.15-2,2.27-3.09,3.4-2,2.14-4,4.29-6,6.84-.87,1.22-1.78,2.41-2.7,3.6l-1.91,2.52-4.79-3.11a136.51,136.51,0,0,1,26.59-27.88l16.73,22.91a5.68,5.68,0,0,0,3.73,2.27,5.75,5.75,0,0,0,4.25-1l1.32-1a19.82,19.82,0,0,1,2.8-1.92l9.34-5.38c1.09-.5,2.18-1,3.27-1.57a44.71,44.71,0,0,1,6.68-2.85L136,232a57.83,57.83,0,0,1,8.26-2.61,5.69,5.69,0,0,0,4.36-7l-4.42-16.49a5.71,5.71,0,0,0-6.71-4.09,84.53,84.53,0,0,0-11.83,3.72l-1.18.44a59.84,59.84,0,0,0-7.73,3.19l-2.6-5.07a138.55,138.55,0,0,1,37-11l2.92,28.16a5.66,5.66,0,0,0,6.23,5.08,105.31,105.31,0,0,1,37.37,3,5.7,5.7,0,0,0,7-4l4.43-16.5a5.69,5.69,0,0,0-4.09-7l-6.49-1.67c-1.54-.35-3.09-.58-4.64-.8-.72-.11-1.45-.21-2.27-.35l-7-1-.88-.05.3-5.59a138.39,138.39,0,0,1,37.56,8.91L210,227.1a5.67,5.67,0,0,0,2.91,7.51,102.43,102.43,0,0,1,30.88,21.1,5.73,5.73,0,0,0,8.06,0L264,243.63a5.67,5.67,0,0,0-.24-8.27c-1.13-1-2.24-2-3.36-3-2.16-2-4.33-4-6.91-6.08-1.22-.86-2.41-1.77-3.59-2.68l-2.55-1.92,3.12-4.77a136.05,136.05,0,0,1,28,26.52Z"/><path class="cls-2" d="M171.16,237.08A90.85,90.85,0,0,0,92.44,374a5.58,5.58,0,0,0,.35.58,92,92,0,0,0,23.28,26c.14.1.23.25.38.33s.09,0,.13,0a90.77,90.77,0,0,0,109.14,0l.15-.06c.15-.08.24-.23.38-.33a91.69,91.69,0,0,0,23.28-26,4.25,4.25,0,0,0,.35-.58,90.85,90.85,0,0,0-78.72-136.89ZM160.88,249.2,97.55,359A79.56,79.56,0,0,1,160.88,249.2ZM126.81,394.31l44.35-76.87,44.34,76.87a79.82,79.82,0,0,1-88.68,0Zm97.75-7.13-46-79.69a8.57,8.57,0,0,0-14.84,0l-46,79.68a80.44,80.44,0,0,1-13.88-16.3l67.29-116.7,13,22.57c.08.17.17.34.26.5l54,93.63a80.44,80.44,0,0,1-13.88,16.3ZM244.77,359l-50.14-87a5,5,0,0,0-.27-.51l-12.9-22.31A79.57,79.57,0,0,1,244.77,359Z"/><polyline class="cls-3" points="636 389.32 646.53 397.48 636 405.98"/><path class="cls-4" d="M594.58,33.09C462,33.09,353,121.47,340.41,234.56l-75.48,29.67S260,266,260.49,273a9.51,9.51,0,0,0,5.64,8.14l79,23.4C370.3,404.79,472.42,479.81,594.58,479.81c141,0,255.4-100,255.4-223.36S735.63,33.09,594.58,33.09Z"/><path class="cls-5" d="M594.54,0C461.93,0,352.94,88.39,340.37,201.47l-75.48,29.67s-4.94,1.8-4.44,8.78a9.55,9.55,0,0,0,5.64,8.15l79,23.4C370.26,371.7,472.38,446.72,594.54,446.72c141.05,0,255.4-100,255.4-223.36S735.59,0,594.54,0Z"/><g class="cls-6"><polyline class="cls-7" points="123.53 352.86 114.08 336.86 133.66 339.52 129.48 352.86"/><path class="cls-8" d="M138.74,224.18,146,251.94s1.14,6.85-1.33,9.32-14.07,15.59-14.07,15.59l-6.47,12.73,37.46,21.3,44.67-12-1.33-31.37s-22.88-1.46-36.22-11.47c-2.62-2-4.84-24.84-4.84-24.84Z"/><path class="cls-7" d="M165.07,241.31c-.7-5.12-1.28-10.28-1.28-10.28l-25.1-7,2,7.73s7.85,5.12,10.29,6.19A47.8,47.8,0,0,0,165.07,241.31Z"/><path class="cls-8" d="M124,212.65s14.51,25.84,57.86,25.85c17.93,0,24.59-4.18,25.6-10,6.35-36.57-7.17-82.84-25.92-97C165.07,119.15,106.74,166,106.74,166l12.42,27.88s-12.67-13.69-17.74-6.08,11,23.7,11,23.7S119.67,217,124,212.65Z"/><path class="cls-8" d="M210.59,271.27c4.31-2.28,8.18,3.09,8.18,3.09l43.74,76.57-37.75,67.73s12.67,21.29,6.33,30.93l8.75,8.74s1.39,4.69-4.94,4.69-21.3-11.15-21.3-11.15l1.74-47.75,28.19-50.82-25.89-38.49-8.09-7.18S202.56,275.53,210.59,271.27Z"/><path class="cls-8" d="M165.17,485.57l-36.63,91.85s-4.72,17.4-10.33,23a247,247,0,0,1-13.88,40.12c-9.51,21.29-13.69,50.57-13.69,50.57s8.65,22,7.61,31.84c0,0,8.27,11.41,4.94,18s-16.35,2.66-16.35,2.66-21.77,2.85-25-2.56,4.09-20,4.09-20-1.05-11.59,2.75-14.26,8.37-9.12,8.37-9.12-1.43-3.8,2.57-8.94,9.88-38.05,9.88-42.36-5.32-36.5,12.42-49.18c0,0,4.31-87.45,16.48-99.62s46.77-19.39,46.77-19.39Z"/><path class="cls-9" d="M165.17,485.57l-11.71,29.36s-16.21,7.24-20.31,8.24c-3,.75-24.73,7.46-24,3.08,2.28-13.66,5.43-24.86,9.25-28.68,12.17-12.17,46.77-19.39,46.77-19.39Z"/><path class="cls-8" d="M178.22,472s30.67,115.84,33,121.17-9.7,15.65,11.21,89c0,0-1.33,9.7-3.23,13.12s-6.27,12.17-.76,15.21,23.38,18.25,31,19.58,21.86-5.32,21.86-5.32,7.61-2.85,5.23-5.23c0,0-6.94-.28-9.22-2.56s-28.14-22.63-28.14-22.63-8-10.26-8-11-5.71-90.94-5.71-90.94,2.1-5.7,0-17.3-1.07-84.67-1.07-84.67Z"/><path class="cls-9" d="M178.22,472s7.22,27.16,9.36,35.19c.82,3.08,36.58,5.56,36.58,5.56l.2-22.25Z"/><path class="cls-10" d="M178.22,494.91c5.93,11.76,47.63,14.24,51.08,15.34,0,0,1.09-47.23-5.57-73.75S178.22,494.91,178.22,494.91Z"/><path class="cls-11" d="M127.52,202.26c7.36,3,1-10.14,1-10.14s-.7-13.22-4.44-15.47a53.35,53.35,0,0,1-8.16-6.66l70.14-48.09s7.1-9.88-9.13-16a19.3,19.3,0,0,0-19.64-5.83s-7.1-8.49-17.36-.7c0,0-20.66-1.2-25.35,8.94a7.73,7.73,0,0,0-7.61,4.31s-4.31,1.65-5.13,5.13c0,0-10.46,4.12-11.09,11.09,0,0-5.7,8-1.14,14.45,0,0-3,5.67.89,9.57,0,0-8.75,9.57,0,15.53,0,0-2.16,6.21,10.64,8.74L105,185s3.66-1.66,14.2,8.87S127.52,202.26,127.52,202.26Z"/><path class="cls-12" d="M180.74,164.6c5.82,5.56,14.84,16.43,15.86,31.07,0,0-13.43,4.81-18,4.81"/><ellipse class="cls-13" cx="154.25" cy="171.59" rx="3.41" ry="4.66" transform="translate(-37.16 42.76) rotate(-14.1)"/><path class="cls-14" d="M150.76,171.59s.5-12,11.34-5.51"/><ellipse class="cls-13" cx="184.98" cy="163.29" rx="3.41" ry="4.66" transform="translate(-34.21 50) rotate(-14.1)"/><path class="cls-14" d="M181.48,161.44s3.17-11.56,12.29-2.84"/><path class="cls-7" d="M118.59,209.74s-.38-16.64-13.21-20.63"/><path class="cls-15" d="M130.57,276.85s-12.18,4.48-17.85,10.15c0,0,34.13,49.5,10.81,65.86,0,0,21.49,41,19.2,49.4s-40.44,114.9-40.44,114.9,117.87-2.1,122.07-79.16l-5.58-44.36a372.93,372.93,0,0,0,3.3-45c.24-21.65-2.13-46.53-3.87-63.51a27.36,27.36,0,0,0-8-17.23l-11.09-1s8.75,29.36-11.52,32.14C176.67,300.52,150.34,304.05,130.57,276.85Z"/><g class="cls-16"><path class="cls-17" d="M106.68,520s117.87-2.1,122.07-79.16Z"/></g><path class="cls-15" d="M130.57,276.85s-12.18,4.48-17.85,10.15c0,0,34.13,49.5,10.81,65.86,0,0,21.49,41,19.2,49.4s-40.44,114.9-40.44,114.9,117.87-2.1,122.07-79.16l-5.58-44.36a372.93,372.93,0,0,0,3.3-45c.24-21.65-2.13-46.53-3.87-63.51a27.36,27.36,0,0,0-8-17.23l-11.09-1s8.75,29.36-11.52,32.14C176.67,300.52,150.34,304.05,130.57,276.85Z"/><path class="cls-18" d="M140.12,410.88s62.14,8.27,79.38-11.5c0,0,1.88-3.9-.72-5.74.37,3.66-29.19,19.58-76.05,9.51C142.73,403.15,137.08,405.17,140.12,410.88Z"/><circle class="cls-19" cx="191.74" cy="407.88" r="14.5"/><g class="cls-20"><path class="cls-21" d="M122.91,127.48s-6.22,7.54,1.67,12.58c2.76,1.76-8.18,10.26-8.18,10.26L112,175.13s5.71-2.29,9.51-2.29l20,22.92-12.83,8L87.73,176.19,60.48,123.55,95.59,91.67,134,82.74l-6.75,13.37s-16.3,10-10.08,17.14C113.27,116,112.51,126.75,122.91,127.48Z"/></g><path class="cls-22" d="M105.15,185s-7.35-3.3-7.35-9.38S126.45,112,186.27,121.9c0,0,9.25,6.47,6.08,9.63,0,0,5.71,7.09,1.15,10.89S166.75,140.65,105.15,185Z"/><path class="cls-23" d="M108.39,171.59S146.66,124.94,187.6,131C187.6,131,149.45,133.07,108.39,171.59Z"/><path class="cls-24" d="M194.31,417.47s-14.64,1.53-11.22-14.35"/><path class="cls-25" d="M189.36,398.18s14.65-1.44,11.13,14.42"/><path class="cls-7" d="M180.1,214.8c6.22-3,14-5.53,19-10.23-1.41,1.33.72,3.45,2.12,2.12,2.5-2.35-.57-4.5-3-3.88-3,.75-6,2.84-8.79,4.17l-10.82,5.23c-1.73.84-.22,3.43,1.52,2.59Z"/><path class="cls-8" d="M117.92,284S100,294.15,98.37,295.79s-3.24,23.33-3.24,23.33L104,339.9l69.59,16.37,22.12,3.05,8.08-84-18-4.61-4.94,63.87-38.53-10.14-12.47-27.63-6.85-15Z"/><path class="cls-8" d="M203.11,276.26c1.78-2.56,6.48-9.86,9-11.53,4.35-2.86,1-8.11,1.39-8.79a6.87,6.87,0,0,0,1.14-5.27c-.77-3.24-2.27-.94-1.76-4.21a7.11,7.11,0,0,0,0-3c-1.29-2.4-2.94-.61-2.91-3.36,0-1.59,2-6.26,3.15-9.34a8.4,8.4,0,0,0-1-6.63,2.49,2.49,0,0,0-3.16-.91c-1.77,1.09-2.24,4.39-3.47,6.12-2.78,3.87-3.1,3.59-6.55,6.8-1.32,1.23-7.32,9.21-9.29,8.94-1.72-.24-4-6.63-7-6.63-5.09,0-9-.6-9-.33,0,2.5,3.13,11.69,4.07,12.63,1.24,1.24,6.14,7.68,6.67,12.1s2,7.53,1.29,11.9Z"/><path class="cls-12" d="M173.59,238.17s2.94,11.5,4.07,12.63,6.67,8.24,6.67,12.1c0,0,1.73,8.54,1.29,11.9s-4.81,59.78-4.81,59.78l-38.53-10.14s-13.67-5.07-16.6-13.56"/><path class="cls-12" d="M189.65,245.13s13.92-10.92,18.51-21.13a1.78,1.78,0,0,1,2.77-1"/><path class="cls-26" d="M196,226.65s4.18-9.64,9.31-7.77"/><path class="cls-15" d="M112.72,287s19.26,10.31,24.41,23.88-9.95-32.65-9.95-32.65S117.66,282.06,112.72,287Z"/><path class="cls-7" d="M148.57,96.11a12.26,12.26,0,0,1,8.74,4,21.07,21.07,0,0,1,5.3-.7A19.33,19.33,0,0,1,177,105.93c15.76,5.91,9.5,15.42,9.14,15.95l.17,0s9.25,6.47,6.08,9.63c0,0,5.71,7.09,1.15,10.89a5,5,0,0,1-1.66.83c12.33,19.2,19.92,52.35,16.26,80.82a3.1,3.1,0,0,1,.86-.8,1.78,1.78,0,0,1,1-.27,2.79,2.79,0,0,1,2.19,1.18,8.4,8.4,0,0,1,1,6.63c-1.17,3.08-3.13,7.75-3.15,9.34,0,2.75,1.62,1,2.91,3.36a7.11,7.11,0,0,1,0,3c-.51,3.27,1,1,1.76,4.21a6.87,6.87,0,0,1-1.14,5.27c-.39.68,3,5.93-1.39,8.79a16.35,16.35,0,0,0-3,3.08l1.08.1a28.7,28.7,0,0,1,2.47,2.8h.12c3.34,0,6,3.65,6,3.65l43.74,76.57-37.75,67.73s12.67,21.29,6.33,30.93l8.75,8.74s1.39,4.69-4.94,4.69c-1.89,0-4.55-1-7.35-2.39a478.49,478.49,0,0,1,1.75,49.62,46.79,46.79,0,0,0-5.11-.77l0,3.24h0c-.12,22.5-.05,55,1.28,62.42,2.1,11.6,0,17.3,0,17.3s5.71,90.24,5.71,90.94,8,11,8,11,10.56,8.31,18.78,14.9h0s5,1.29,6.88,2.91a6.68,6.68,0,0,1,2.07,4.32c.55.37,1.45,1,2.49,1.73a26.78,26.78,0,0,0,7.14,1.33c1.13,1.13,0,2.36-1.47,3.35.82.87,1.31,1.64,1.17,2.13-.54,2-8.18,10-22,10-.78,0-1.58,0-2.39-.08-14.52-1-34.64-16.41-36.28-20.72a12.81,12.81,0,0,1,.21-8.68c0-3.67,2.22-8.07,3.44-10.27,1.9-3.42,3.23-13.12,3.23-13.12-20.91-73.38-8.93-83.71-11.21-89-1.45-3.39-14.38-51.43-23.6-86h0l0-.11-1.57-5.9a24.12,24.12,0,0,1-4.77-2.82,149.58,149.58,0,0,1-25.1,9.95l-27.57,69.14s-4.72,17.4-10.33,23a247,247,0,0,1-13.88,40.12c-9.51,21.29-13.69,50.57-13.69,50.57s6.81,17.3,7.61,28.1c8,11,15.21,24.5,5.66,28.49-6.35,2.66-13.77,3.65-20.75,3.65-11.5,0-21.81-2.7-24.21-5.1-3.87-3.86,7.1-33.14,7.1-33.14.34-2.66,1.08-5.23,2.63-6.32,3.81-2.66,8.37-9.12,8.37-9.12s-1.43-3.8,2.57-8.94,9.88-38.05,9.88-42.36-5.32-36.5,12.42-49.18c0,0,2-41.16,7.23-70.93h0c.57-3.38,1.18-6.6,1.85-9.6-5.45.45-8.71.51-8.71.51s28.48-79.5,37.7-106.54c-2.34-4.71,1.34-6.83,2.44-7.35.13-.42.24-.76.3-1,2.29-8.37-19.2-49.4-19.2-49.4l-5.74-9.71L104,339.9l-8.87-20.78s1.6-21.68,3.24-23.33c1.07-1.06,8.93-5.67,14.35-8.79h0c5.67-5.67,17.85-10.15,17.85-10.15s11.59-13.12,14.07-15.59,1.33-9.32,1.33-9.32l-6.35-24.39C128.4,220.5,124,212.65,124,212.65a5.67,5.67,0,0,1-4.14,1.66c-3.69,0-7.4-2.8-7.4-2.8s-16.09-16.1-11-23.7a4.75,4.75,0,0,1,4.17-2.3c3.32,0,7.27,2.73,10,5.08-5.71-5-8.76-5.67-10-5.67a2.06,2.06,0,0,0-.39,0l-.1.07-.07,0-.12,0,0-.12c-1.2-.6-6.59-3.56-7.06-8.57-9.09-2.85-7.33-7.91-7.33-7.91-8.75-6,0-15.53,0-15.53-3.9-3.9-.89-9.57-.89-9.57-4.56-6.46,1.14-14.45,1.14-14.45.63-7,11.09-11.09,11.09-11.09.82-3.48,5.13-5.13,5.13-5.13a7.61,7.61,0,0,1,7-4.34,4.75,4.75,0,0,1,.58,0c3.79-8.19,18-9,23.32-9,1.26,0,2,0,2,0a14.2,14.2,0,0,1,8.62-3.29m41.18,149c1.91,0,7-6.62,8.82-8.57-3.88,1.21-9.21,1.9-16.35,1.93h.4c3,0,5.31,6.39,7,6.63h.1m-24.68-3.83h0c.9,6.4,2.21,13.68,3.63,14.75a52.49,52.49,0,0,0,15.74,7.55c0-.23-.06-.46-.09-.71-.53-4.42-5.43-10.86-6.67-12.1-.94-.94-4-10.13-4.07-12.63h0c-3.22-.27-6.24-.68-9.1-1.21.17,1.37.36,2.86.57,4.35m55,154.3,23.47-42.31-22.31-33.18c.59,9.53,1,19.32.86,28.53a372.93,372.93,0,0,1-3.3,45,3.15,3.15,0,0,1,1.28,2M266.29,716.1h0m-117.72-626v0a19.26,19.26,0,0,0-10.44,3.25h-.21c-7.66,0-20.53,1.29-26.79,9.24a13.34,13.34,0,0,0-8.39,5.47,15.06,15.06,0,0,0-5.47,5.22c-3.79,1.93-10.67,6.33-12.22,13.37-2.41,4-4.65,10.77-2,17.13a14.68,14.68,0,0,0,.28,8.86,17.6,17.6,0,0,0-2.62,10.69,13.41,13.41,0,0,0,3.8,7.86,11.26,11.26,0,0,0,1,3.1,14.63,14.63,0,0,0,7.3,6.53,15.88,15.88,0,0,0,3,4.64c-2.83,5.26-1.41,12.13,4.24,20.42a76.78,76.78,0,0,0,8.13,9.86l.3.3.33.25c.89.67,5.59,4,11,4a12.76,12.76,0,0,0,2.16-.18,59.47,59.47,0,0,0,12.39,11.17l5.69,21.85a13.78,13.78,0,0,1,0,4.2c-2.59,2.68-10.19,11.23-13,14.43-3.59,1.43-12.5,5.3-18,10.39-13.18,7.6-14.25,8.67-15,9.38-1.51,1.51-3.22,3.23-5,27.13L89,320.13l.57,1.34,8.87,20.79,1.2,2.79,2.95.69,11.3,2.66,4.36,7.38c.62,1.19,5.32,10.28,9.85,20.26,7,15.35,8.42,21.57,8.7,23.8a10.54,10.54,0,0,0-3.22,10.86c-9.75,28.41-36.7,103.66-37,104.43l-2.93,8.19,8.69-.16,1.2,0c-.11.63-.22,1.26-.32,1.91l-.22.87,0,.23c-4.39,25.61-6.47,58.42-7,68C80.29,608,82.57,635,83.34,644.14c.07.9.16,1.93.16,2.23-.07,4.78-5.91,34.53-8.65,38.72a17.82,17.82,0,0,0-4,10.92,33,33,0,0,1-5.56,5.87c-2.68,1.88-4.33,5.07-5,9.76-.72,2-3,8.23-4.91,14.92-4,13.86-4.17,20.35-.59,23.93,4.5,4.51,17.73,6.86,28.46,6.86a60.68,60.68,0,0,0,23.07-4.11,12.76,12.76,0,0,0,7.72-8.47c1.89-6.79-1.25-15.63-9.88-27.76-1.13-9.58-5.62-22.19-7.26-26.56,1-6.15,5.15-29.89,13-47.47a256.6,256.6,0,0,0,13.87-39.69c5.57-6.84,9.57-20.38,10.56-24l26.38-66.17a156.18,156.18,0,0,0,20.18-7.93l.07,0,.89,3.33,0,.09C201.68,583.26,204.7,593,205.47,595c0,.53-.21,1.6-.36,2.48-1.44,8.6-4.78,28.65,11.16,85.05-.61,3.88-1.64,8.52-2.35,9.81-2.56,4.6-3.93,8.56-4.17,12a18.58,18.58,0,0,0,.15,12c2.1,5.5,12.53,12.51,15.68,14.53,5.41,3.47,16,9.4,25.81,10q1.41.09,2.79.09c15.88,0,26.38-9.26,27.79-14.45a6.72,6.72,0,0,0,.18-2.75,7.52,7.52,0,0,0,.75-2.61,7.23,7.23,0,0,0-2.18-5.94l-1.65-1.65-2.34-.1a22.53,22.53,0,0,1-4.57-.71,11.65,11.65,0,0,0-3.53-5.28c-2.19-1.83-5.7-3.09-7.93-3.75-6.87-5.51-15.07-12-17.29-13.72-2.45-3.16-5.17-6.78-6.37-8.5-.28-4.72-1.36-22.23-5.55-88.51.66-2.7,1.64-9.06-.15-19-.9-5-1.34-25.78-1.21-57.27l5,1.58.18-8c0-.92.44-20.34-1-41.38l.63,0c5.17,0,7.88-2.18,9.25-4a9.7,9.7,0,0,0,1.44-8.38l-.43-1.46-1.08-1.07-5.9-5.9c1.39-5.2.64-11.81-2.24-19.73a81.48,81.48,0,0,0-4.33-9.77l36.14-64.84,1.65-3L267.72,348,224,271.39l-.16-.28-.18-.25a16.94,16.94,0,0,0-4.86-4.44c1.63-2.57,2-5.8,1.06-9.66a12.07,12.07,0,0,0,.65-7.47A10.09,10.09,0,0,0,219,245.8a8.68,8.68,0,0,0-.84-5.12,9.8,9.8,0,0,0-1.57-2.17c.45-1.25,1-2.71,1.41-3.69.25-.66.5-1.29.72-1.87,1.56-4.09.35-9.21-1.65-12.14a8.45,8.45,0,0,0-2.38-2.35c1.81-25.21-4.07-54-15.1-73.93,2.71-4.17,1.88-9.46-.6-13.87a7.82,7.82,0,0,0,0-1.45c-.32-3.62-3-6.91-5.67-9.36a14.1,14.1,0,0,0-.33-7.22c-1.57-5-5.78-8.95-12.51-11.76a25.63,25.63,0,0,0-17.86-7.47,26.6,26.6,0,0,0-3.55.25,17.68,17.68,0,0,0-10.49-3.54ZM227.18,370.4c.45-6.46.81-13.85.9-21.68,0-2.45,0-5,0-7.67l8.44,12.55-9.32,16.8Z"/><path class="cls-12" d="M173.59,238.17a3.42,3.42,0,0,1,2.54-2.38,6,6,0,0,1,3.36.41,59.59,59.59,0,0,1,7.21,4.18"/></g></svg>