<svg id="Camada_1" data-name="Camada 1" xmlns="http://www.w3.org/2000/svg" xmlns:xlink="http://www.w3.org/1999/xlink" viewBox="0 0 849.94 498.78"><defs><style>.cls-1,.cls-14,.cls-15,.cls-20,.cls-29,.cls-3,.cls-30{fill:none;}.cls-2{fill:#2ddaf7;}.cls-3{stroke:#a0864d;stroke-linejoin:round;}.cls-14,.cls-15,.cls-20,.cls-29,.cls-3,.cls-30{stroke-linecap:round;}.cls-20,.cls-3{stroke-width:2px;}.cls-4{fill:#666461;}.cls-5{fill:#13c4d6;}.cls-6{clip-path:url(#clip-path);}.cls-7{fill:#c9a68f;}.cls-8{fill:#6d472e;}.cls-9{fill:#eac2a7;}.cls-10{fill:#d6aa8b;}.cls-11{clip-path:url(#clip-path-2);}.cls-12{fill:#d6d6d6;}.cls-13{fill:#c99f4b;}.cls-14,.cls-20{stroke:#c9a68f;}.cls-14,.cls-15,.cls-20,.cls-29,.cls-30{stroke-miterlimit:10;}.cls-14,.cls-15,.cls-29,.cls-30{stroke-width:3px;}.cls-15{stroke:#6d5f56;}.cls-16{fill:#493e38;}.cls-17{clip-path:url(#clip-path-3);}.cls-18{fill:#fcfcfc;}.cls-19{fill:#d32222;}.cls-21{fill:#f4f4f4;}.cls-22{clip-path:url(#clip-path-4);}.cls-23{fill:#b7b7b7;}.cls-24{fill:#c99e32;}.cls-25{clip-path:url(#clip-path-5);}.cls-26{fill:#aa7e30;}.cls-27{fill:#fff;}.cls-28{fill:#ddd;}.cls-29{stroke:#846829;}.cls-30{stroke:#e8cd95;}.cls-31{fill:#6d5f56;}</style><clipPath id="clip-path"><ellipse class="cls-1" cx="173.08" cy="-257.16" rx="216.74" ry="211.12"/></clipPath><clipPath id="clip-path-2"><path class="cls-1" d="M251,479.81S197.78,520.25,108.59,487,19.4,198.45,19.4,198.45s82-121.92,100.39-118.66,125.33,24,125.33,63.33S292.73,359,292.73,359s20,77.43,10,83.33"/></clipPath><clipPath id="clip-path-3"><path class="cls-1" d="M165.38,210.93c-.37-.56,27.54,6.55,39.7.44,0,0-1.56,21.9-11.61,22.6C183.12,234.69,172.34,228.76,165.38,210.93Z"/></clipPath><clipPath id="clip-path-4"><path class="cls-1" d="M187.74,507c6,12,48.45,14.49,52,15.6,0,0,1.1-48-5.67-75S187.74,507,187.74,507Z"/></clipPath><clipPath id="clip-path-5"><path class="cls-1" d="M136.16,209.24c7.48,3.1,1-10.31,1-10.31s-.71-13.45-4.51-15.73a54.68,54.68,0,0,1-8.31-6.79l19.12-13.1,52.25-35.82s7.22-10.06-9.29-16.25a19.64,19.64,0,0,0-20-5.93s-7.22-8.64-17.66-.71c0,0-21-1.23-25.79,9.09a7.86,7.86,0,0,0-7.74,4.38s-4.39,1.68-5.22,5.23c0,0-10.64,4.19-11.29,11.28,0,0-5.8,8.12-1.16,14.7,0,0-3.06,5.77.9,9.74,0,0-8.89,9.73,0,15.79,0,0-2.19,6.32,10.84,8.9l3.87,8s3.72-1.69,14.44,9Z"/></clipPath></defs><title>Fala 3</title><path class="cls-2" d="M171.16,157.43C76.63,157.43,0,233.85,0,328.11S76.63,498.78,171.16,498.78s171.16-76.41,171.16-170.67S265.65,157.54,171.16,157.43Zm0,330c-88.23,0-159.75-71.32-159.75-159.3s71.52-159.3,159.75-159.3,159.75,71.32,159.75,159.3S259.35,487.31,171.16,487.41Z"/><path class="cls-2" d="M251.94,204.13a5.7,5.7,0,0,0-7.9,1.66l-9.33,14.3a5.67,5.67,0,0,0,1.81,8,77.14,77.14,0,0,1,6.4,4.54c1.28,1,2.56,2,3.57,2.66,1.77,1.46,3.47,3,5.16,4.54l-3.94,3.93a113.8,113.8,0,0,0-25-17.08l11.66-26.1a5.67,5.67,0,0,0-2.89-7.51,149.56,149.56,0,0,0-52.57-12.49,5.71,5.71,0,0,0-4.12,1.45,5.63,5.63,0,0,0-1.87,3.94L172,203a5.71,5.71,0,0,0,5.39,6l6,.3,6.4,1c.82.14,1.64.26,2.46.38,1.24.17,2.47.35,3.56.59l.78.2-1.5,5.58a116.55,116.55,0,0,0-30.21-2.44l-3-28.47a5.72,5.72,0,0,0-6.28-5.07,147.48,147.48,0,0,0-51.84,15.4,5.69,5.69,0,0,0-2.48,7.65l7.79,15.2a5.7,5.7,0,0,0,7.47,2.58c1.15-.53,2.29-1.08,3.43-1.64a57.42,57.42,0,0,1,8.15-3.49l1.46-.55c1.71-.63,3.38-1.25,5-1.8l1.48,5.51c-1.41.47-2.77,1-4.13,1.48l-1.35.51a53.91,53.91,0,0,0-8.1,3.43c-1,.48-2,1-3.43,1.66l-9.67,5.55c-.22.12-.44.24-.65.37L92,209.8a5.72,5.72,0,0,0-8-1.25,148.34,148.34,0,0,0-37.21,39,5.74,5.74,0,0,0-.8,4.29,5.63,5.63,0,0,0,2.48,3.59l14.34,9.31a5.72,5.72,0,0,0,8-1.81,74.39,74.39,0,0,1,4.54-6.37c1-1.29,2-2.58,2.68-3.58,1.46-1.76,3-3.46,4.55-5.15l4,3.94a113,113,0,0,0-17.14,24.94L43.24,265.08A5.72,5.72,0,0,0,35.7,268,148.58,148.58,0,0,0,23.18,320.4a5.69,5.69,0,0,0,5.41,6l17.09.88a5.67,5.67,0,0,0,4.12-1.44,5.61,5.61,0,0,0,1.87-3.93l.3-6,1-6.37c.15-.82.27-1.65.39-2.48.17-1.22.35-2.46.59-3.52l.2-.79,5.59,1.49a115.09,115.09,0,0,0-2.45,30.13l-28.54,3a5.7,5.7,0,0,0-5.09,6.25,148,148,0,0,0,15.45,51.7,5.7,5.7,0,0,0,7.67,2.47L62,390a5.67,5.67,0,0,0,2.58-7.46c-.52-1.13-1.07-2.24-1.62-3.36A57.44,57.44,0,0,1,59.43,371l-.56-1.5c-.64-1.69-1.25-3.34-1.79-5L62.66,363a113.31,113.31,0,0,0,13,27.23L52.52,407A5.69,5.69,0,0,0,51.26,415a148.37,148.37,0,0,0,39.12,37.1,5.72,5.72,0,0,0,4.3.8,5.66,5.66,0,0,0,3.6-2.46l9.33-14.31a5.66,5.66,0,0,0-1.81-8,75,75,0,0,1-6.4-4.55c-1.28-1-2.56-1.95-3.57-2.66-1.77-1.45-3.47-3-5.16-4.53l4-4c1.53,1.4,3.09,2.8,5,4.35,1.11.78,2.19,1.61,3.27,2.44a69.91,69.91,0,0,0,6.36,4.47l10.19,5.83.12,0L108,455.67a5.67,5.67,0,0,0,2.89,7.51,149.56,149.56,0,0,0,52.57,12.49h.3a5.7,5.7,0,0,0,5.69-5.39l.89-17a5.7,5.7,0,0,0-5.39-6l-6-.3-6.4-1c-.82-.14-1.64-.25-2.46-.37-1.24-.18-2.47-.35-3.55-.6l-.79-.2,1.5-5.57a117,117,0,0,0,30.22,2.44l3,28.47a5.72,5.72,0,0,0,6.28,5.07,147.36,147.36,0,0,0,51.84-15.4,5.7,5.7,0,0,0,2.48-7.66L233.19,437a5.72,5.72,0,0,0-7.48-2.57c-1.15.53-2.28,1.08-3.42,1.64a57.92,57.92,0,0,1-8.15,3.49l-1.46.55c-1.72.63-3.38,1.25-5,1.8l-1.5-5.58a113.1,113.1,0,0,0,27.3-13l16.87,23.11a5.72,5.72,0,0,0,8,1.26,148.23,148.23,0,0,0,37.21-39,5.68,5.68,0,0,0-1.67-7.87l-14.35-9.31a5.71,5.71,0,0,0-8,1.81,72.81,72.81,0,0,1-4.55,6.36c-1,1.29-2,2.58-2.68,3.59-1.46,1.76-3,3.46-4.55,5.14l-3.94-3.93a113.58,113.58,0,0,0,17.13-24.94l26.17,11.64a5.73,5.73,0,0,0,7.54-2.88,148.58,148.58,0,0,0,12.52-52.44,5.71,5.71,0,0,0-5.41-6L296.64,329a5.75,5.75,0,0,0-6,5.38l-.3,6-1,6.37c-.15.82-.27,1.65-.39,2.47-.17,1.23-.35,2.47-.59,3.53l-.2.79L282.7,352l0-.14c.31-1.32.51-2.67.7-4,.09-.63.17-1.26.29-2l.88-5.6a5.42,5.42,0,0,0,.06-.58l.3-6V322.15l0-.26,28.66-3a5.68,5.68,0,0,0,5.08-6.25A148.2,148.2,0,0,0,303.24,261a5.71,5.71,0,0,0-7.67-2.47l-15.25,7.76a5.68,5.68,0,0,0-2.58,7.46c.53,1.13,1.08,2.24,1.62,3.36a59.05,59.05,0,0,1,3.53,8.17l.56,1.51c.63,1.69,1.25,3.34,1.79,5l-5.59,1.49a112.39,112.39,0,0,0-13-27.23l23.18-16.82a5.67,5.67,0,0,0,1.26-7.94A148.21,148.21,0,0,0,251.94,204.13Zm3.47,55.93a5.67,5.67,0,0,0-1.26,7.94,101.37,101.37,0,0,1,16.09,33.62,5.74,5.74,0,0,0,7,4l16.54-4.41a5.7,5.7,0,0,0,4.11-6.69,82.25,82.25,0,0,0-3.73-11.75l-.45-1.22a57.83,57.83,0,0,0-3.2-7.72l5.08-2.59a137.52,137.52,0,0,1,11.05,36.93l-28.25,2.93a5.7,5.7,0,0,0-5.11,5.95l.29,5.52v10.88l-.28,5.36-.81,5.22c-.13.74-.24,1.49-.35,2.24-.14,1-.27,2-.46,2.87l-1.43,5.47a5.69,5.69,0,0,0,4,6.93l16.54,4.4a5.69,5.69,0,0,0,7-4.08l1.68-6.49c.35-1.51.58-3,.8-4.6.1-.73.2-1.45.34-2.27l1.05-7,.05-.87,5.6.28a137.73,137.73,0,0,1-8.93,37.46l-25.94-11.53a5.72,5.72,0,0,0-7.54,2.89,101.92,101.92,0,0,1-21.15,30.8,5.67,5.67,0,0,0,0,8l12.1,12.07a5.62,5.62,0,0,0,4.21,1.67,5.71,5.71,0,0,0,4.09-1.91q1.53-1.71,3.09-3.39c2-2.14,4-4.29,6.05-6.85.87-1.21,1.78-2.41,2.7-3.6.63-.83,1.27-1.66,1.91-2.52l4.79,3.11A136.81,136.81,0,0,1,256.13,435L239.4,412.12a5.71,5.71,0,0,0-8-1.25,102.09,102.09,0,0,1-33.71,16,5.67,5.67,0,0,0-4,7l4.42,16.49a5.71,5.71,0,0,0,6.71,4.1,85.91,85.91,0,0,0,11.83-3.73l1.18-.44a59.84,59.84,0,0,0,7.73-3.19l2.6,5.07a138.19,138.19,0,0,1-37,11L188.19,435a5.61,5.61,0,0,0-2.05-3.83,5.68,5.68,0,0,0-4.18-1.25,105,105,0,0,1-37.36-3,5.71,5.71,0,0,0-7,4l-4.42,16.5a5.66,5.66,0,0,0,4.09,7l6.5,1.67c1.53.35,3.08.58,4.63.8.73.11,1.45.21,2.27.35l7,1,.88.05-.3,5.59A139.14,139.14,0,0,1,120.75,455l11.57-25.87a5.69,5.69,0,0,0-2.74-7.44l-4.74-2.26-9.72-5.57a57.58,57.58,0,0,1-5.2-3.7c-1.21-.92-2.42-1.85-3.31-2.44-1.64-1.36-3.22-2.8-4.79-4.24-1.18-1.08-2.35-2.16-3.56-3.21a5.73,5.73,0,0,0-7.79.27l-12.1,12.06a5.69,5.69,0,0,0,.24,8.28c1.13,1,2.24,2,3.36,3,2.16,2,4.33,4,6.91,6.08,1.22.86,2.41,1.77,3.59,2.68L95,434.58l-3.12,4.78a136.59,136.59,0,0,1-28-26.52l23-16.67a5.68,5.68,0,0,0,1.26-7.95A101.37,101.37,0,0,1,72.08,354.6a5.72,5.72,0,0,0-7-4L48.56,355a5.68,5.68,0,0,0-4.1,6.68,81.93,81.93,0,0,0,3.72,11.76l.45,1.22a60.36,60.36,0,0,0,3.2,7.72L46.75,385A137.52,137.52,0,0,1,35.7,348L64,345.09A5.7,5.7,0,0,0,69,338.88a104,104,0,0,1,3-37.26,5.69,5.69,0,0,0-4-7L51.5,290.24a5.71,5.71,0,0,0-7,4.08l-1.68,6.49c-.35,1.52-.58,3.06-.8,4.6-.1.73-.2,1.46-.34,2.28l-1,7,0,.87L35,315.3a137.73,137.73,0,0,1,8.93-37.46l25.94,11.54a5.75,5.75,0,0,0,4.37.11,5.68,5.68,0,0,0,3.17-3,102,102,0,0,1,21.15-30.79,5.69,5.69,0,0,0,0-8l-12.1-12.07a5.73,5.73,0,0,0-8.3.24c-1,1.15-2,2.27-3.09,3.4-2,2.14-4,4.29-6,6.84-.87,1.22-1.78,2.41-2.7,3.6l-1.91,2.52-4.79-3.11a136.51,136.51,0,0,1,26.59-27.88l16.73,22.91a5.68,5.68,0,0,0,3.73,2.27,5.75,5.75,0,0,0,4.25-1l1.32-1a19.82,19.82,0,0,1,2.8-1.92l9.34-5.38c1.09-.5,2.18-1,3.27-1.57a44.71,44.71,0,0,1,6.68-2.85L136,232a57.83,57.83,0,0,1,8.26-2.61,5.69,5.69,0,0,0,4.36-7l-4.42-16.49a5.71,5.71,0,0,0-6.71-4.09,84.53,84.53,0,0,0-11.83,3.72l-1.18.44a59.84,59.84,0,0,0-7.73,3.19l-2.6-5.07a138.55,138.55,0,0,1,37-11l2.92,28.16a5.66,5.66,0,0,0,6.23,5.08,105.31,105.31,0,0,1,37.37,3,5.7,5.7,0,0,0,7-4l4.43-16.5a5.69,5.69,0,0,0-4.09-7l-6.49-1.67c-1.54-.35-3.09-.58-4.64-.8-.72-.11-1.45-.21-2.27-.35l-7-1-.88-.05.3-5.59a138.39,138.39,0,0,1,37.56,8.91L210,227.1a5.67,5.67,0,0,0,2.91,7.51,102.43,102.43,0,0,1,30.88,21.1,5.73,5.73,0,0,0,8.06,0L264,243.63a5.67,5.67,0,0,0-.24-8.27c-1.13-1-2.24-2-3.36-3-2.16-2-4.33-4-6.91-6.08-1.22-.86-2.41-1.77-3.59-2.68l-2.55-1.92,3.12-4.77a136.05,136.05,0,0,1,28,26.52Z"/><path class="cls-2" d="M171.16,237.08A90.85,90.85,0,0,0,92.44,374a5.58,5.58,0,0,0,.35.58,92,92,0,0,0,23.28,26c.14.1.23.25.38.33s.09,0,.13,0a90.77,90.77,0,0,0,109.14,0l.15-.06c.15-.08.24-.23.38-.33a91.69,91.69,0,0,0,23.28-26,4.25,4.25,0,0,0,.35-.58,90.85,90.85,0,0,0-78.72-136.89ZM160.88,249.2,97.55,359A79.56,79.56,0,0,1,160.88,249.2ZM126.81,394.31l44.35-76.87,44.34,76.87a79.82,79.82,0,0,1-88.68,0Zm97.75-7.13-46-79.69a8.57,8.57,0,0,0-14.84,0l-46,79.68a80.44,80.44,0,0,1-13.88-16.3l67.29-116.7,13,22.57c.08.17.17.34.26.5l54,93.63a80.44,80.44,0,0,1-13.88,16.3ZM244.77,359l-50.14-87a5,5,0,0,0-.27-.51l-12.9-22.31A79.57,79.57,0,0,1,244.77,359Z"/><polyline class="cls-3" points="636 389.32 646.53 397.48 636 405.98"/><path class="cls-4" d="M594.58,33.09C462,33.09,353,121.47,340.41,234.56l-75.48,29.67S260,266,260.49,273a9.51,9.51,0,0,0,5.64,8.14l79,23.4C370.3,404.79,472.42,479.81,594.58,479.81c141,0,255.4-100,255.4-223.36S735.63,33.09,594.58,33.09Z"/><path class="cls-5" d="M594.54,0C461.93,0,352.94,88.39,340.37,201.47l-75.48,29.67s-4.94,1.8-4.44,8.78a9.55,9.55,0,0,0,5.64,8.15l79,23.4C370.26,371.7,472.38,446.72,594.54,446.72c141.05,0,255.4-100,255.4-223.36S735.59,0,594.54,0Z"/><g class="cls-6"><path class="cls-7" d="M131.34-429.56a12.39,12.39,0,0,1,8.82,4,21.31,21.31,0,0,1,5.34-.7A19.47,19.47,0,0,1,160-419.69c15.9,5.95,9.59,15.51,9.22,16l.18,0s9.33,6.51,6.13,9.69c0,0,5.76,7.13,1.15,10.95a5,5,0,0,1-1.66.84c13.07,20.31,20.87,56.16,15.72,85.73-1,5.85-7.72,10.06-25.8,10.06h0a96.5,96.5,0,0,1-17.48-1.54c.17,1.37.37,2.87.57,4.36h0c.91,6.44,2.23,13.76,3.67,14.84,9.22,6.9,23,9.76,30.7,10.88l11.19,1a26.9,26.9,0,0,1,5.81,8.51h0l65.32,60.46,51.55-43.47s3.43-13.41,22.5-13.41a48.55,48.55,0,0,1,7.85.67c26,4.2-2.35,7.26-2.35,7.26s2.94-.24,7.29-.24c6.51,0,16.18.55,23.77,3.3l3.93,4.78-9,9s-20.78,2.86-32.67,2.86c-3.77,0-6.66-.28-7.69-1a.75.75,0,0,0-.47-.13c-7.08,0-65.3,54.76-65.3,54.76l-60-48.35c.89,11.86,1.52,24.53,1.39,36.26a373.08,373.08,0,0,1-3.33,45.25c2.63,1.85.73,5.77.73,5.77l4.9,38.84c0,.29-.05.57-.07.86,6.09,27,5,71.8,5,71.8a47.32,47.32,0,0,0-5.15-.77l0,3.26h0c-.12,22.63,0,55.32,1.3,62.78,2.11,11.66,0,17.4,0,17.4s5.75,90.75,5.75,91.45,8,11,8,11,10.65,8.36,18.94,15h0s5,1.3,6.94,2.92a6.79,6.79,0,0,1,2.09,4.34c.55.38,1.46,1,2.51,1.75a27,27,0,0,0,7.2,1.34c1.14,1.13,0,2.37-1.49,3.36.83.88,1.33,1.65,1.19,2.15-.54,2-8.25,10.09-22.19,10.09-.79,0-1.59,0-2.42-.08-14.63-1-34.93-16.51-36.59-20.85a12.89,12.89,0,0,1,.21-8.73h0c0-3.69,2.24-8.11,3.47-10.32,1.92-3.44,3.26-13.2,3.26-13.2-21.09-73.8-9-84.19-11.32-89.54C193,66.9,180,18.59,170.69-16.16h0l0-.1q-.81-3-1.59-5.94A25.33,25.33,0,0,1,164.26-25,151.06,151.06,0,0,1,139-15L111.14,54.5S106.38,72,100.72,77.64a248.23,248.23,0,0,1-14,40.34c-9.58,21.42-13.8,50.86-13.8,50.86s6.87,17.4,7.67,28.26c8.08,11,15.34,24.64,5.71,28.66-6.41,2.67-13.89,3.67-20.93,3.67-11.6,0-22-2.71-24.42-5.13-3.9-3.89,7.17-33.33,7.17-33.33.34-2.68,1.09-5.26,2.65-6.36,3.84-2.67,8.44-9.17,8.44-9.17s-1.44-3.83,2.59-9,10-38.27,10-42.61S66.4,87.13,84.29,74.39c0,0,2-41.4,7.3-71.35h0c.57-3.4,1.19-6.64,1.86-9.66-5.49.45-8.79.51-8.79.51S90-20.88,96.76-39.87c-5.79-.56-2-9.52-2-9.52a47.15,47.15,0,0,0,6.8-4q1.1-3.09,2.22-6.23C101.88-64.32,106.66-79,106.66-79L89.09-92.18,38-130.59s41-96.49,42.7-98.15c1.07-1.07,9-5.7,14.47-8.84,5.71-5.7,18-10.21,18-10.21s11.7-13.2,14.19-15.68,1.35-9.37,1.35-9.37l-6.41-24.53c-11.31-7.09-15.77-15-15.77-15a5.69,5.69,0,0,1-4.17,1.67c-3.72,0-7.47-2.81-7.47-2.81s-16.23-16.19-11.12-23.84A4.84,4.84,0,0,1,88-339.66c3.35,0,7.33,2.75,10.14,5.11-5.76-5-8.84-5.69-10.09-5.69l-.39,0-.1.07-.07,0-.12,0-.06-.12c-1.21-.6-6.63-3.58-7.11-8.61-9.17-2.87-7.4-8-7.4-8-8.82-6,0-15.62,0-15.62-3.93-3.92-.9-9.62-.9-9.62-4.6-6.5,1.16-14.53,1.16-14.53.63-7,11.18-11.16,11.18-11.16.83-3.5,5.18-5.16,5.18-5.16a7.67,7.67,0,0,1,7.08-4.36c.37,0,.59,0,.59,0,3.82-8.24,18.16-9,23.52-9,1.28,0,2,.05,2,.05a14.33,14.33,0,0,1,8.7-3.31M116.91-96.64c2.3-6.53,4.29-12.25,5.78-16.61-2.37-4.74,1.35-6.88,2.46-7.39.13-.43.24-.77.31-1,2.3-8.42-19.37-49.68-19.37-49.68L87.8-182.77,62.14-134.69l41,28.49,13.76,9.56M250.07,194h0M131.34-435.56h0a19.44,19.44,0,0,0-10.51,3.26h-.23c-7.71,0-20.68,1.3-27,9.29a13.36,13.36,0,0,0-8.46,5.5,15,15,0,0,0-5.51,5.25c-3.82,1.93-10.76,6.35-12.32,13.43-2.43,4-4.7,10.82-2,17.22a14.54,14.54,0,0,0,.28,8.91A17.62,17.62,0,0,0,63-361.95a13.39,13.39,0,0,0,3.84,7.89,11,11,0,0,0,1,3.11,14.71,14.71,0,0,0,7.36,6.57,15.85,15.85,0,0,0,3,4.68c-2.87,5.29-1.44,12.19,4.26,20.53a76.93,76.93,0,0,0,8.2,9.91l.29.3.34.25c.89.67,5.62,4,11.07,4a12.33,12.33,0,0,0,2.2-.19,59.47,59.47,0,0,0,12.52,11.26l5.74,22a13.73,13.73,0,0,1,0,4.24c-2.61,2.68-10.29,11.31-13.14,14.52-3.62,1.44-12.61,5.34-18.11,10.45-13.29,7.65-14.37,8.72-15.08,9.43-1.16,1.16-1.86,1.86-23.25,51.58C42.88-157.35,32.6-133.18,32.5-132.93l-1.84,4.32,3.75,2.82L85.48-87.38,99.71-76.69C98.23-71.42,96.86-64.78,97.56-60l-1,2.74a49.66,49.66,0,0,1-4.36,2.42l-2.07,1-.9,2.11c-.8,1.9-3.22,8.49-.28,13.42a9.43,9.43,0,0,0,.56.84C83.51-20.66,79-8.14,79-8.14L76.07.05l8.7-.16,1.28,0L85.69,2l-.16.77V2.8C81.1,28.58,79,61.68,78.45,71.37c-15.92,13.89-13.63,41-12.85,50.23.08.91.16,1.94.17,2.25-.08,4.81-6,34.75-8.74,39a18,18,0,0,0-4.08,11,33.18,33.18,0,0,1-5.61,5.91c-2.7,1.89-4.36,5.1-5.08,9.8-.73,2-3,8.28-4.95,15-4,13.93-4.21,20.45-.6,24.05,4.53,4.51,17.85,6.88,28.66,6.88,8.72,0,16.76-1.43,23.24-4.14a12.75,12.75,0,0,0,7.76-8.5c1.9-6.82-1.26-15.71-10-27.89-1.13-9.64-5.67-22.33-7.32-26.72,1-6.18,5.19-30.06,13.11-47.75a258,258,0,0,0,14-39.92c5.62-6.88,9.65-20.5,10.65-24.1l26.62-66.56a158.86,158.86,0,0,0,20.39-8l.11.06.9,3.36,0,.08C185,60.42,188,70.15,188.79,72.21c0,.54-.22,1.62-.37,2.51-1.45,8.65-4.82,28.81,11.25,85.54-.61,3.9-1.65,8.56-2.37,9.87-2.59,4.64-4,8.62-4.2,12.14a18.49,18.49,0,0,0,.15,12c2.11,5.52,12.63,12.57,15.8,14.6,5.45,3.49,16.08,9.44,26,10.08.94.06,1.88.1,2.81.1,16,0,26.56-9.3,28-14.51a6.63,6.63,0,0,0,.17-2.77,7.29,7.29,0,0,0-1.42-8.57l-1.66-1.65-2.33-.1a23.31,23.31,0,0,1-4.65-.72,11.75,11.75,0,0,0-3.56-5.32c-2.2-1.83-5.74-3.09-8-3.76-6.94-5.54-15.21-12-17.45-13.8-2.47-3.19-5.23-6.84-6.43-8.57-.28-4.74-1.37-22.33-5.6-89,.66-2.72,1.66-9.11-.15-19.1-.91-5-1.35-25.95-1.21-57.66l5,1.59.18-8c.05-1.84,1-44.88-5-72.36a.37.37,0,0,0,0-.11l0-.54-.07-.54L209-123.86a11,11,0,0,0-.58-8.17,385.2,385.2,0,0,0,3-43.48c.08-7-.1-14.6-.54-23.1l49.34,39.79,4.07,3.28,3.81-3.58c24.22-22.78,53.36-48.38,61.15-52.74a31.45,31.45,0,0,0,8.2.78c12.17,0,32.62-2.8,33.49-2.92l2-.27,1.42-1.42,9-9,3.86-3.85-3.47-4.21-3.93-4.78-1-1.27-1.55-.56a61.5,61.5,0,0,0-14-3c-1.5-5.26-9.34-6.53-15.78-7.57a56.19,56.19,0,0,0-8.81-.74c-18.85,0-25.57,11.1-27.58,15.85l-46.29,39-60.55-56.05a32.61,32.61,0,0,0-6.53-9.16l-1.53-1.52-2.15-.2-11-1c-6.7-1-18.74-3.43-26.91-9.07a54.61,54.61,0,0,1-1.7-8q5.13.51,10.46.51c7.22,0,29.12,0,31.73-15,4.78-27.44-1-62.38-13.88-85.48,2.75-4.19,1.9-9.51-.6-13.94a8.9,8.9,0,0,0,0-1.46c-.32-3.64-3-7-5.73-9.41a14.09,14.09,0,0,0-.32-7.25c-1.58-5-5.82-9-12.61-11.82a25.79,25.79,0,0,0-18-7.5,25.84,25.84,0,0,0-3.6.25,17.75,17.75,0,0,0-10.56-3.56ZM70-136.57l20.12-37.71,11.45,7.15c1.59,3.09,5.49,10.78,9.26,19.09,7,15.46,8.5,21.71,8.79,23.95a10.83,10.83,0,0,0-3.07,4.49,10.78,10.78,0,0,0-.18,6.42c-.71,2.08-1.54,4.45-2.46,7.11l-7.28-5.06L70-136.57ZM220.62,161.05Z"/><path class="cls-8" d="M199.06,183.37a12.89,12.89,0,0,0-.21,8.73c1.66,4.34,22,19.89,36.59,20.85,15.46,1,24-7.91,24.61-10s-10-9-10-9Z"/><path class="cls-8" d="M48.12,191S37.05,220.41,41,224.3s28.39,8.53,45.35,1.46-18.51-44-18.51-44Z"/><path class="cls-9" d="M148.08-37.88,111.14,54.5S106.38,72,100.72,77.64a248.23,248.23,0,0,1-14,40.34c-9.58,21.42-13.8,50.86-13.8,50.86s8.72,22.08,7.67,32c0,0,8.34,11.47,5,18.07s-16.49,2.67-16.49,2.67S47.13,224.48,43.87,219,48,199,48,199s-1.05-11.67,2.78-14.35,8.44-9.17,8.44-9.17-1.44-3.83,2.59-9,10-38.27,10-42.61S66.4,87.13,84.29,74.39c0,0,4.35-88,16.62-100.2s47.17-19.5,47.17-19.5Z"/><path class="cls-10" d="M148.08-37.88,136.27-8.34S119.93-1.07,115.79-.06C112.73.7,90.85,7.44,91.59,3c2.3-13.75,5.47-25,9.32-28.85,12.27-12.23,47.17-19.5,47.17-19.5Z"/><path class="cls-9" d="M161.25-51.55S192.18,65,194.48,70.31s-9.77,15.74,11.32,89.54c0,0-1.34,9.76-3.26,13.2s-6.33,12.23-.77,15.29S225.36,206.7,233,208s22.05-5.36,22.05-5.36,7.67-2.86,5.27-5.25c0,0-7-.29-9.3-2.59s-28.38-22.75-28.38-22.75-8-10.32-8-11-5.75-91.45-5.75-91.45,2.11-5.74,0-17.4-1.09-85.15-1.09-85.15Z"/><path class="cls-8" d="M42.39,213.42s22-9.37,43.91-2.2a9.55,9.55,0,0,0-1.63-5.35c-1.82-2.87-29.34-7.26-41,2.34C43.63,208.21,41.14,211.8,42.39,213.42Z"/><path class="cls-8" d="M228.06,206.13s.85-19.28,22-12.16l.58.47a6.86,6.86,0,0,0-2.1-4.44c-2-1.62-6.94-2.92-6.94-2.92s-19.39-4.76-19.1,15.78C222.51,202.86,225.53,207.1,228.06,206.13Z"/></g><g class="cls-11"><path class="cls-7" d="M157.57,101.25a12.45,12.45,0,0,1,8.89,4.06,21.38,21.38,0,0,1,5.39-.71,19.63,19.63,0,0,1,14.6,6.64c16,6,9.67,15.68,9.3,16.22l.18,0s9.41,6.58,6.19,9.8c0,0,5.8,7.21,1.16,11.08a5.06,5.06,0,0,1-1.68.84c13.19,20.55,21.06,56.82,15.86,86.73-1,5.92-7.79,10.18-26,10.18h0a97.25,97.25,0,0,1-17.64-1.56c.17,1.39.37,2.9.58,4.42h0c.91,6.51,2.24,13.91,3.7,15,9.3,7,23.16,9.87,31,11L220.29,276a28.71,28.71,0,0,1,2.5,2.85h.13c3.4,0,6.07,3.72,6.07,3.72l44.5,77.9-38.4,68.91s12.89,21.66,6.44,31.46l8.9,8.9s1.42,4.77-5,4.77c-1.92,0-4.62-1-7.47-2.43a486.93,486.93,0,0,1,1.78,50.48,50.43,50.43,0,0,0-5.2-.78l0,3.3h0c-.12,22.89-.05,56,1.31,63.51,2.12,11.8,0,17.6,0,17.6s5.8,91.81,5.8,92.52,8.12,11.16,8.12,11.16,10.75,8.45,19.11,15.16h0s5,1.31,7,3a6.8,6.8,0,0,1,2.11,4.39c.56.37,1.48,1,2.54,1.76a26.92,26.92,0,0,0,7.26,1.36c1.15,1.14,0,2.4-1.5,3.4.84.89,1.34,1.67,1.2,2.17-.55,2-8.33,10.21-22.39,10.21-.79,0-1.6,0-2.43-.08-14.77-1-35.24-16.7-36.92-21.09a13.07,13.07,0,0,1,.22-8.83c0-3.73,2.26-8.21,3.5-10.45,1.94-3.48,3.29-13.34,3.29-13.34-21.28-74.67-9.09-85.18-11.41-90.59-1.48-3.45-14.62-52.32-24-87.48h0l0-.16c-.54-2-1.07-4-1.59-5.95a25.45,25.45,0,0,1-4.85-2.87,151.9,151.9,0,0,1-25.54,10.12l-2.7,6.77L137.19,591s-4.8,17.7-10.51,23.4a252.2,252.2,0,0,1-14.12,40.82c-9.67,21.66-13.93,51.45-13.93,51.45s6.93,17.6,7.75,28.59c8.15,11.15,15.47,24.93,5.76,29-6.47,2.7-14,3.71-21.12,3.71-11.7,0-22.19-2.74-24.64-5.19C62.46,758.79,73.61,729,73.61,729c.35-2.71,1.11-5.32,2.68-6.42,3.87-2.71,8.51-9.29,8.51-9.29s-1.45-3.87,2.61-9.09,10.06-38.72,10.06-43.1-5.41-37.14,12.64-50c0,0,2.06-41.88,7.36-72.17h0c.57-3.44,1.2-6.72,1.88-9.78-5.54.46-8.87.52-8.87.52s5.35-14.94,12.2-34.16c-5.84-.55-2-9.62-2-9.62a48,48,0,0,0,6.86-4c.75-2.08,1.49-4.19,2.24-6.3-1.93-4.76,2.9-19.58,2.9-19.58L115,442.56,63.43,403.71s41.39-97.62,43.07-99.3c1.08-1.08,9.08-5.77,14.6-8.94h0c5.76-5.77,18.15-10.34,18.15-10.34s11.8-13.34,14.32-15.86,1.35-9.48,1.35-9.48L148.46,235c-11.41-7.17-15.91-15.16-15.91-15.16a5.74,5.74,0,0,1-4.21,1.69c-3.75,0-7.53-2.85-7.53-2.85s-16.37-16.38-11.22-24.12a4.88,4.88,0,0,1,4.25-2.34c3.37,0,7.4,2.78,10.23,5.17-5.81-5.07-8.92-5.76-10.18-5.76l-.39,0-.1.07-.08,0-.11,0-.06-.12c-1.22-.6-6.7-3.62-7.18-8.71-9.25-2.9-7.47-8.06-7.47-8.06-8.89-6.06,0-15.79,0-15.79-4-4-.9-9.74-.9-9.74-4.64-6.57,1.16-14.7,1.16-14.7.65-7.09,11.29-11.28,11.29-11.28.83-3.55,5.22-5.23,5.22-5.23a7.75,7.75,0,0,1,7.14-4.41,4.92,4.92,0,0,1,.6,0c3.85-8.34,18.32-9.14,23.73-9.14,1.28,0,2.06,0,2.06,0a14.4,14.4,0,0,1,8.77-3.35M230.31,406l23.87-43.05-22.7-33.76c.61,9.69,1,19.66.88,29A379.07,379.07,0,0,1,229,404a3.23,3.23,0,0,1,1.3,2M143,438c2.31-6.6,4.32-12.38,5.82-16.8-2.38-4.8,1.36-6.95,2.49-7.47.13-.43.23-.78.3-1,2.32-8.51-19.53-50.26-19.53-50.26l-18.46-11.56L87.77,399.56l41.36,28.81L143,438M277.35,732h0M157.57,95.25v0A19.56,19.56,0,0,0,147,98.55h-.24c-7.78,0-20.87,1.31-27.2,9.39A13.44,13.44,0,0,0,111,113.5a15.16,15.16,0,0,0-5.57,5.31c-3.83,2-10.85,6.41-12.41,13.56-2.44,4.07-4.73,10.93-2,17.38a14.78,14.78,0,0,0,.29,9,17.87,17.87,0,0,0-2.68,10.86,13.44,13.44,0,0,0,3.87,8,10.9,10.9,0,0,0,1,3.16,14.87,14.87,0,0,0,7.41,6.62,16.18,16.18,0,0,0,3.08,4.78c-2.91,5.33-1.48,12.3,4.27,20.73a78,78,0,0,0,8.26,10l.63.55c.9.68,5.66,4.06,11.14,4.06a12.7,12.7,0,0,0,2.24-.2,60.32,60.32,0,0,0,12.66,11.42L149,261a13.77,13.77,0,0,1,0,4.36c-2.61,2.69-10.4,11.46-13.27,14.7-3.64,1.46-12.72,5.4-18.27,10.58-13.4,7.73-14.48,8.81-15.2,9.53-1.17,1.16-1.87,1.86-23.44,52.15-10.44,24.35-20.81,48.8-20.91,49l1.91,7.14,51.51,38.85,14.39,10.85c-1.49,5.34-2.89,12.09-2.18,16.95l-1,2.82a46.19,46.19,0,0,1-4.43,2.46l-3,3.08c-.81,1.92-3.24,8.57-.29,13.52a8.62,8.62,0,0,0,.58.86c-6.07,17-10.62,29.72-10.62,29.72l5.76,8,1.36,0c-.14.76-.27,1.53-.4,2.31h0c-4.58,26.21-6.73,60.3-7.29,70.15-16.05,14-13.74,41.47-13,50.77.08.92.17,2,.17,2.28-.07,4.88-6,35.21-8.82,39.45a18,18,0,0,0-4.1,11.09,34,34,0,0,1-5.7,6c-2.7,1.89-4.37,5.13-5.09,9.87-.73,2-3,8.37-5,15.19-4.07,14.06-4.24,20.63-.62,24.24,4.56,4.57,18,6.95,28.88,6.95,8.79,0,16.89-1.44,23.43-4.18a12.83,12.83,0,0,0,7.79-8.54c1.92-6.88-1.28-15.86-10-28.18-1.14-9.76-5.73-22.63-7.38-27,1-6.22,5.23-30.43,13.23-48.35a262.13,262.13,0,0,0,14.12-40.39c5.66-6.94,9.73-20.74,10.73-24.36l25.23-63.27,1.64-4.11a158.81,158.81,0,0,0,20.61-8.1l.15.09.9,3.38,0,.06,0,.1c20.32,76.16,23.33,85.8,24.1,87.84,0,.55-.22,1.65-.37,2.57-1.46,8.74-4.86,29.13,11.36,86.51-.62,4-1.68,8.7-2.41,10-2.57,4.61-4,8.73-4.22,12.25a18.74,18.74,0,0,0,.14,12.09C222.25,738,233.71,745.57,236,747c5.5,3.52,16.22,9.54,26.21,10.19.95.07,1.9.1,2.83.1,16.11,0,26.75-9.38,28.18-14.63a6.73,6.73,0,0,0,.17-2.79,7.49,7.49,0,0,0,.77-2.65,7.28,7.28,0,0,0-2.19-6l-4-1.75a22.66,22.66,0,0,1-4.73-.74,11.82,11.82,0,0,0-3.59-5.38c-2.21-1.85-5.78-3.13-8-3.8-7-5.61-15.37-12.2-17.62-14-2.5-3.24-5.3-6.95-6.51-8.69-.28-4.75-1.38-22.48-5.65-90.1.67-2.73,1.67-9.18-.15-19.3-.94-5.24-1.39-27.47-1.21-61.07l5.24-3.75c0-.94.45-20.76-1.06-42.21.25,0,.51,0,.75,0,5.22,0,8-2.2,9.33-4a9.73,9.73,0,0,0,1.45-8.44l-1.51-2.53-6-6c1.43-5.28.67-12-2.26-20.08a86,86,0,0,0-4.43-10l36.8-66,0-5.9-44.5-77.9-.34-.53a15.88,15.88,0,0,0-7.89-5.78c-.46-.51-.93-1-1.44-1.52l-3.68-1.73-11.14-1c-6.76-1-18.92-3.47-27.18-9.2a56.52,56.52,0,0,1-1.73-8.23c3.46.34,7,.52,10.62.52,7.26,0,29.32,0,32-15.15,4.81-27.76-1.06-63.11-14-86.47,2.79-4.22,1.94-9.6-.59-14.07a9.39,9.39,0,0,0,0-1.5c-.33-3.67-3-7-5.78-9.49a14.26,14.26,0,0,0-.32-7.35C201.07,113,196.8,109,190,106.18a26,26,0,0,0-18.12-7.58,26.26,26.26,0,0,0-3.63.25,17.93,17.93,0,0,0-10.65-3.6Zm79.84,285.53c.48-6.68.86-14.36,1-22.52q0-3.9,0-8.15l8.81,13.11-9.74,17.56ZM95.56,397.68l20.35-38.27,11.61,7.28c1.6,3.11,5.55,10.92,9.37,19.35,7.12,15.72,8.58,22,8.86,24.27a11,11,0,0,0-3.1,4.53,10.81,10.81,0,0,0-.18,6.48q-1.08,3.18-2.51,7.28l-7.4-5.15-37-25.77Z"/><path class="cls-9" d="M147.57,231.55l7.35,28.24s1.16,7-1.35,9.48-14.32,15.86-14.32,15.86l-6.57,13,38.1,21.67,45.46-12.19-1.35-31.91S191.61,274.17,178,264c-2.67-2-4.94-25.28-4.94-25.28Z"/><path class="cls-7" d="M174.36,249c-.72-5.21-1.3-10.46-1.3-10.46l-25.54-7.15,2,7.86s8,5.21,10.48,6.3A48.62,48.62,0,0,0,174.36,249Z"/><path class="cls-9" d="M126.38,292.45s-18.2,10.29-19.88,12-43.07,99.3-43.07,99.3L115,442.56l17.73,13.37s-5.61,17.22-2.32,20.51-9.68,9.41-9.68,9.41-5,11.86,5.16,9.28,24-9.41,24-9.41l6.83-38.17-27.53-19.18L87.77,399.56l25.87-48.65,18.46,11.56,22.63-16.53-16.25-40.5-7-15.21Z"/><path class="cls-9" d="M132.55,219.82s14.77,26.29,58.87,26.3c18.24,0,25-4.26,26-10.18,6.47-37.21-7.29-84.28-26.37-98.65C174.36,124.69,115,172.36,115,172.36l12.64,28.37s-12.9-13.92-18.06-6.19,11.22,24.12,11.22,24.12S128.16,224.2,132.55,219.82Z"/><path class="cls-9" d="M220.68,279.46c4.38-2.32,8.31,3.15,8.31,3.15l44.5,77.9-38.4,68.91s12.89,21.66,6.44,31.46l8.9,8.9s1.42,4.77-5,4.77-21.66-11.34-21.66-11.34l1.76-48.58,28.68-51.71-26.34-39.16-8.23-7.3S212.5,283.79,220.68,279.46Z"/><path class="cls-9" d="M174.46,497.49,137.19,591s-4.8,17.7-10.51,23.4a252.2,252.2,0,0,1-14.12,40.82c-9.67,21.66-13.93,51.45-13.93,51.45s8.8,22.34,7.74,32.4c0,0,8.41,11.6,5,18.28S94.76,760,94.76,760s-22.14,2.9-25.43-2.62,4.16-20.31,4.16-20.31-1.07-11.8,2.8-14.5,8.51-9.29,8.51-9.29-1.45-3.87,2.61-9.09,10.06-38.72,10.06-43.1-5.41-37.14,12.64-50c0,0,4.38-89,16.76-101.35S174.46,490,174.46,490Z"/><path class="cls-10" d="M174.46,497.49l-11.92,29.88s-16.48,7.36-20.65,8.39c-3.1.76-25.16,7.58-24.42,3.13,2.32-13.91,5.52-25.3,9.4-29.18C139.25,497.33,174.46,490,174.46,490Z"/><path class="cls-9" d="M187.74,483.66S219,601.52,221.27,606.94s-9.87,15.92,11.41,90.59c0,0-1.35,9.86-3.29,13.34s-6.38,12.38-.77,15.48,23.79,18.57,31.53,19.92,22.24-5.41,22.24-5.41,7.74-2.91,5.32-5.32c0,0-7.06-.29-9.38-2.61s-28.63-23-28.63-23-8.12-10.45-8.12-11.16-5.8-92.52-5.8-92.52,2.12-5.8,0-17.6-1.1-86.14-1.1-86.14Z"/><path class="cls-10" d="M187.74,483.66s7.34,27.64,9.52,35.8c.84,3.13,37.22,5.66,37.22,5.66l.2-22.63Z"/><path class="cls-12" d="M187.74,507c6,12,48.45,14.49,52,15.6,0,0,1.1-48-5.67-75S187.74,507,187.74,507Z"/><path class="cls-13" d="M136.16,209.24c7.48,3.1,1-10.31,1-10.31s-.71-13.45-4.51-15.73a54.68,54.68,0,0,1-8.31-6.79l71.37-48.92s7.22-10.06-9.29-16.25a19.64,19.64,0,0,0-20-5.93s-7.22-8.64-17.66-.71c0,0-21-1.23-25.79,9.09a7.86,7.86,0,0,0-7.74,4.38s-4.39,1.68-5.22,5.23c0,0-10.64,4.19-11.29,11.28,0,0-5.8,8.12-1.16,14.7,0,0-3.06,5.77.9,9.74,0,0-8.89,9.73,0,15.79,0,0-2.19,6.32,10.84,8.9l3.87,8s3.72-1.69,14.44,9Z"/><path class="cls-14" d="M190.3,170.93c5.92,5.66,15.1,16.72,16.14,31.61,0,0-13.67,4.9-18.31,4.9"/><path class="cls-15" d="M168.17,186.17s.54-13.1,12.06-6"/><path class="cls-15" d="M207.72,174.44s-5.78-9-10.22.36"/><path class="cls-16" d="M165.38,210.93c-.37-.56,27.54,6.55,39.7.44,0,0-1.56,21.9-11.61,22.6C183.12,234.69,172.34,228.76,165.38,210.93Z"/><g class="cls-17"><path class="cls-18" d="M163,214s25.18,12.09,39,2.34l-.56-5.6-39.24-4Z"/><path class="cls-19" d="M166,224.5s9.91-6.77,22.53,1-2.64,15.38-2.64,15.38Z"/></g><path class="cls-20" d="M205.08,211.37c-13.31,5.52-39.7-.44-39.7-.44s9.5,27.59,30.38,22.47"/><path class="cls-7" d="M127.07,216.85s-.39-16.92-13.45-21"/><path class="cls-7" d="M113.64,350.91s11.16-15,9.69-12.68c-8.17,12.64,20.9,27.23,27.72,19.44,0,0-6.77,8.64-19,4.8Z"/><path class="cls-21" d="M139.25,285.13s-12.39,4.57-18.15,10.34c0,0,34.73,50.36,11,67,0,0,21.85,41.75,19.53,50.26s-41.15,116.9-41.15,116.9,119.93-2.13,124.2-80.53L229,404a379.07,379.07,0,0,0,3.35-45.77c.24-22-2.17-47.34-3.93-64.62A28,28,0,0,0,220.29,276L209,275s8.91,29.87-11.72,32.7C186.16,309.22,159.37,312.81,139.25,285.13Z"/><g class="cls-22"><path class="cls-23" d="M115,532.57s119.92-2.14,124.2-80.54Z"/></g><path class="cls-21" d="M139.25,285.13s-12.39,4.57-18.15,10.34c0,0,34.73,50.36,11,67,0,0,21.85,41.75,19.53,50.26s-41.15,116.9-41.15,116.9,119.93-2.13,124.2-80.53L229,404a379.07,379.07,0,0,0,3.35-45.77c.24-22-2.17-47.34-3.93-64.62A28,28,0,0,0,220.29,276L209,275s8.91,29.87-11.72,32.7C186.16,309.22,159.37,312.81,139.25,285.13Z"/><path class="cls-9" d="M115,442.56l17.73,13.37s-5.61,17.22-2.32,20.51-9.68,9.41-9.68,9.41-5,11.86,5.16,9.28,24-9.41,24-9.41l5.8-32.38s1.78-6.35-5.45-10.59c-5.59-3.28-21.05-14.38-21.05-14.38Z"/><path class="cls-8" d="M149,421.5s63.22,8.42,80.77-11.7c0,0,1.91-4-.73-5.84.37,3.72-29.7,19.92-77.38,9.68C151.63,413.64,145.88,415.7,149,421.5Z"/><circle class="cls-24" cx="201.49" cy="418.46" r="14.75"/><g class="cls-25"><path class="cls-26" d="M131.46,133.16s-6.33,7.68,1.7,12.8c2.81,1.8-8.32,10.45-8.32,10.45l-4.49,25.24s5.8-2.34,9.67-2.34l20.36,23.33-13.06,8.15L95.67,182.72,67.94,129.16l35.72-32.43,39.08-9.09-6.87,13.61s-16.59,10.14-10.25,17.44C121.65,121.48,120.88,132.42,131.46,133.16Z"/></g><path class="cls-27" d="M113.4,191.7s-7.48-3.35-7.48-9.54,29.14-64.73,90-54.67c0,0,9.41,6.58,6.19,9.8,0,0,5.8,7.21,1.16,11.08S176.07,146.57,113.4,191.7Z"/><path class="cls-28" d="M116.69,178.05s38.94-47.47,80.59-41.28C197.28,136.77,158.47,138.85,116.69,178.05Z"/><path class="cls-29" d="M204.11,428.21s-14.9,1.55-11.42-14.6"/><path class="cls-30" d="M199.07,408.58s14.9-1.46,11.33,14.67"/><path class="cls-31" d="M164.47,173c.86-3,3.41-5,5.8-6.79,1.52-1.15,0-3.76-1.52-2.59-3,2.3-6.07,4.77-7.17,8.58a1.5,1.5,0,0,0,2.89.8Z"/><path class="cls-31" d="M196.33,159.52a6.38,6.38,0,0,1,5.32,1.86c1.38,1.35,3.51-.77,2.13-2.12a9.58,9.58,0,0,0-8.25-2.63c-1.91.26-1.09,3.15.8,2.89Z"/></g></svg>