<svg id="Camada_1" data-name="Camada 1" xmlns="http://www.w3.org/2000/svg" xmlns:xlink="http://www.w3.org/1999/xlink" viewBox="0 0 849.94 498.78"><defs><style>.cls-1,.cls-12,.cls-14,.cls-19,.cls-29,.cls-3,.cls-30{fill:none;}.cls-2{fill:#2ddaf7;}.cls-3{stroke:#a0864d;stroke-linejoin:round;}.cls-12,.cls-14,.cls-19,.cls-29,.cls-3,.cls-30{stroke-linecap:round;}.cls-19,.cls-3{stroke-width:2px;}.cls-4{fill:#666461;}.cls-5{fill:#13c4d6;}.cls-6{clip-path:url(#clip-path);}.cls-7{fill:#eac2a7;}.cls-8{fill:#c9a68f;}.cls-9{fill:#d6aa8b;}.cls-10{fill:#d6d6d6;}.cls-11{fill:#c99f4b;}.cls-12,.cls-19{stroke:#c9a68f;}.cls-12,.cls-14,.cls-19,.cls-29,.cls-30{stroke-miterlimit:10;}.cls-12,.cls-14,.cls-29,.cls-30{stroke-width:3px;}.cls-13{fill:#6d5f56;}.cls-14{stroke:#6d5f56;}.cls-15{fill:#493e38;}.cls-16{clip-path:url(#clip-path-2);}.cls-17{fill:#fcfcfc;}.cls-18{fill:#d32222;}.cls-20{fill:#f4f4f4;}.cls-21{clip-path:url(#clip-path-3);}.cls-22{fill:#b7b7b7;}.cls-23{fill:#6d472e;}.cls-24{fill:#c99e32;}.cls-25{clip-path:url(#clip-path-4);}.cls-26{fill:#aa7e30;}.cls-27{fill:#fff;}.cls-28{fill:#ddd;}.cls-29{stroke:#846829;}.cls-30{stroke:#e8cd95;}.cls-31{clip-path:url(#clip-path-5);}</style><clipPath id="clip-path"><path class="cls-1" d="M250,479.73s-53.25,40.45-142.44,7.21-89.2-288.57-89.2-288.57,82-121.92,100.39-118.66S244.1,103.71,244.1,143s47.61,215.9,47.61,215.9,20,77.44,10,83.33"/></clipPath><clipPath id="clip-path-2"><path class="cls-1" d="M177.34,209.05c-.42-.44,25.31,1.61,35.13-5.62,0,0,1.93,19.57-6.84,21.71C196.6,227.35,186.19,223.74,177.34,209.05Z"/></clipPath><clipPath id="clip-path-3"><path class="cls-1" d="M191.9,498.74c6,11.85,48,14.35,51.48,15.45,0,0,1.09-47.58-5.62-74.31S191.9,498.74,191.9,498.74Z"/></clipPath><clipPath id="clip-path-4"><path class="cls-1" d="M140.81,203.83c7.41,3.06,1-10.22,1-10.22s-.7-13.32-4.47-15.58a54.25,54.25,0,0,1-8.22-6.72l18.93-13,51.75-35.48s7.15-10-9.19-16.09a19.45,19.45,0,0,0-19.8-5.88s-7.15-8.56-17.5-.7c0,0-20.82-1.21-25.54,9a7.78,7.78,0,0,0-7.67,4.35s-4.34,1.66-5.17,5.17c0,0-10.54,4.15-11.18,11.17,0,0-5.74,8-1.15,14.57,0,0-3,5.71.9,9.64,0,0-8.82,9.64,0,15.64,0,0-2.17,6.26,10.73,8.82l3.83,7.91s3.69-1.67,14.3,9S140.81,203.83,140.81,203.83Z"/></clipPath><clipPath id="clip-path-5"><path class="cls-1" d="M250.67-63.5S197.42-23,108.23-56.29,19-344.86,19-344.86s82-121.92,100.39-118.66,125.34,24,125.34,63.33,47.61,215.9,47.61,215.9,20,77.44,10,83.33"/></clipPath></defs><title>Fala 4</title><path class="cls-2" d="M171.16,157.43C76.63,157.43,0,233.85,0,328.11S76.63,498.78,171.16,498.78s171.16-76.41,171.16-170.67S265.65,157.54,171.16,157.43Zm0,330c-88.23,0-159.75-71.32-159.75-159.3s71.52-159.3,159.75-159.3,159.75,71.32,159.75,159.3S259.35,487.31,171.16,487.41Z"/><path class="cls-2" d="M251.94,204.13a5.7,5.7,0,0,0-7.9,1.66l-9.33,14.3a5.67,5.67,0,0,0,1.81,8,77.14,77.14,0,0,1,6.4,4.54c1.28,1,2.56,2,3.57,2.66,1.77,1.46,3.47,3,5.16,4.54l-3.94,3.93a113.8,113.8,0,0,0-25-17.08l11.66-26.1a5.67,5.67,0,0,0-2.89-7.51,149.56,149.56,0,0,0-52.57-12.49,5.71,5.71,0,0,0-4.12,1.45,5.63,5.63,0,0,0-1.87,3.94L172,203a5.71,5.71,0,0,0,5.39,6l6,.3,6.4,1c.82.14,1.64.26,2.46.38,1.24.17,2.47.35,3.56.59l.78.2-1.5,5.58a116.55,116.55,0,0,0-30.21-2.44l-3-28.47a5.72,5.72,0,0,0-6.28-5.07,147.48,147.48,0,0,0-51.84,15.4,5.69,5.69,0,0,0-2.48,7.65l7.79,15.2a5.7,5.7,0,0,0,7.47,2.58c1.15-.53,2.29-1.08,3.43-1.64a57.42,57.42,0,0,1,8.15-3.49l1.46-.55c1.71-.63,3.38-1.25,5-1.8l1.48,5.51c-1.41.47-2.77,1-4.13,1.48l-1.35.51a53.91,53.91,0,0,0-8.1,3.43c-1,.48-2,1-3.43,1.66l-9.67,5.55c-.22.12-.44.24-.65.37L92,209.8a5.72,5.72,0,0,0-8-1.25,148.34,148.34,0,0,0-37.21,39,5.74,5.74,0,0,0-.8,4.29,5.63,5.63,0,0,0,2.48,3.59l14.34,9.31a5.72,5.72,0,0,0,8-1.81,74.39,74.39,0,0,1,4.54-6.37c1-1.29,2-2.58,2.68-3.58,1.46-1.76,3-3.46,4.55-5.15l4,3.94a113,113,0,0,0-17.14,24.94L43.24,265.08A5.72,5.72,0,0,0,35.7,268,148.58,148.58,0,0,0,23.18,320.4a5.69,5.69,0,0,0,5.41,6l17.09.88a5.67,5.67,0,0,0,4.12-1.44,5.61,5.61,0,0,0,1.87-3.93l.3-6,1-6.37c.15-.82.27-1.65.39-2.48.17-1.22.35-2.46.59-3.52l.2-.79,5.59,1.49a115.09,115.09,0,0,0-2.45,30.13l-28.54,3a5.7,5.7,0,0,0-5.09,6.25,148,148,0,0,0,15.45,51.7,5.7,5.7,0,0,0,7.67,2.47L62,390a5.67,5.67,0,0,0,2.58-7.46c-.52-1.13-1.07-2.24-1.62-3.36A57.44,57.44,0,0,1,59.43,371l-.56-1.5c-.64-1.69-1.25-3.34-1.79-5L62.66,363a113.31,113.31,0,0,0,13,27.23L52.52,407A5.69,5.69,0,0,0,51.26,415a148.37,148.37,0,0,0,39.12,37.1,5.72,5.72,0,0,0,4.3.8,5.66,5.66,0,0,0,3.6-2.46l9.33-14.31a5.66,5.66,0,0,0-1.81-8,75,75,0,0,1-6.4-4.55c-1.28-1-2.56-1.95-3.57-2.66-1.77-1.45-3.47-3-5.16-4.53l4-4c1.53,1.4,3.09,2.8,5,4.35,1.11.78,2.19,1.61,3.27,2.44a69.91,69.91,0,0,0,6.36,4.47l10.19,5.83.12,0L108,455.67a5.67,5.67,0,0,0,2.89,7.51,149.56,149.56,0,0,0,52.57,12.49h.3a5.7,5.7,0,0,0,5.69-5.39l.89-17a5.7,5.7,0,0,0-5.39-6l-6-.3-6.4-1c-.82-.14-1.64-.25-2.46-.37-1.24-.18-2.47-.35-3.55-.6l-.79-.2,1.5-5.57a117,117,0,0,0,30.22,2.44l3,28.47a5.72,5.72,0,0,0,6.28,5.07,147.36,147.36,0,0,0,51.84-15.4,5.7,5.7,0,0,0,2.48-7.66L233.19,437a5.72,5.72,0,0,0-7.48-2.57c-1.15.53-2.28,1.08-3.42,1.64a57.92,57.92,0,0,1-8.15,3.49l-1.46.55c-1.72.63-3.38,1.25-5,1.8l-1.5-5.58a113.1,113.1,0,0,0,27.3-13l16.87,23.11a5.72,5.72,0,0,0,8,1.26,148.23,148.23,0,0,0,37.21-39,5.68,5.68,0,0,0-1.67-7.87l-14.35-9.31a5.71,5.71,0,0,0-8,1.81,72.81,72.81,0,0,1-4.55,6.36c-1,1.29-2,2.58-2.68,3.59-1.46,1.76-3,3.46-4.55,5.14l-3.94-3.93a113.58,113.58,0,0,0,17.13-24.94l26.17,11.64a5.73,5.73,0,0,0,7.54-2.88,148.58,148.58,0,0,0,12.52-52.44,5.71,5.71,0,0,0-5.41-6L296.64,329a5.75,5.75,0,0,0-6,5.38l-.3,6-1,6.37c-.15.82-.27,1.65-.39,2.47-.17,1.23-.35,2.47-.59,3.53l-.2.79L282.7,352l0-.14c.31-1.32.51-2.67.7-4,.09-.63.17-1.26.29-2l.88-5.6a5.42,5.42,0,0,0,.06-.58l.3-6V322.15l0-.26,28.66-3a5.68,5.68,0,0,0,5.08-6.25A148.2,148.2,0,0,0,303.24,261a5.71,5.71,0,0,0-7.67-2.47l-15.25,7.76a5.68,5.68,0,0,0-2.58,7.46c.53,1.13,1.08,2.24,1.62,3.36a59.05,59.05,0,0,1,3.53,8.17l.56,1.51c.63,1.69,1.25,3.34,1.79,5l-5.59,1.49a112.39,112.39,0,0,0-13-27.23l23.18-16.82a5.67,5.67,0,0,0,1.26-7.94A148.21,148.21,0,0,0,251.94,204.13Zm3.47,55.93a5.67,5.67,0,0,0-1.26,7.94,101.37,101.37,0,0,1,16.09,33.62,5.74,5.74,0,0,0,7,4l16.54-4.41a5.7,5.7,0,0,0,4.11-6.69,82.25,82.25,0,0,0-3.73-11.75l-.45-1.22a57.83,57.83,0,0,0-3.2-7.72l5.08-2.59a137.52,137.52,0,0,1,11.05,36.93l-28.25,2.93a5.7,5.7,0,0,0-5.11,5.95l.29,5.52v10.88l-.28,5.36-.81,5.22c-.13.74-.24,1.49-.35,2.24-.14,1-.27,2-.46,2.87l-1.43,5.47a5.69,5.69,0,0,0,4,6.93l16.54,4.4a5.69,5.69,0,0,0,7-4.08l1.68-6.49c.35-1.51.58-3,.8-4.6.1-.73.2-1.45.34-2.27l1.05-7,.05-.87,5.6.28a137.73,137.73,0,0,1-8.93,37.46l-25.94-11.53a5.72,5.72,0,0,0-7.54,2.89,101.92,101.92,0,0,1-21.15,30.8,5.67,5.67,0,0,0,0,8l12.1,12.07a5.62,5.62,0,0,0,4.21,1.67,5.71,5.71,0,0,0,4.09-1.91q1.53-1.71,3.09-3.39c2-2.14,4-4.29,6.05-6.85.87-1.21,1.78-2.41,2.7-3.6.63-.83,1.27-1.66,1.91-2.52l4.79,3.11A136.81,136.81,0,0,1,256.13,435L239.4,412.12a5.71,5.71,0,0,0-8-1.25,102.09,102.09,0,0,1-33.71,16,5.67,5.67,0,0,0-4,7l4.42,16.49a5.71,5.71,0,0,0,6.71,4.1,85.91,85.91,0,0,0,11.83-3.73l1.18-.44a59.84,59.84,0,0,0,7.73-3.19l2.6,5.07a138.19,138.19,0,0,1-37,11L188.19,435a5.61,5.61,0,0,0-2.05-3.83,5.68,5.68,0,0,0-4.18-1.25,105,105,0,0,1-37.36-3,5.71,5.71,0,0,0-7,4l-4.42,16.5a5.66,5.66,0,0,0,4.09,7l6.5,1.67c1.53.35,3.08.58,4.63.8.73.11,1.45.21,2.27.35l7,1,.88.05-.3,5.59A139.14,139.14,0,0,1,120.75,455l11.57-25.87a5.69,5.69,0,0,0-2.74-7.44l-4.74-2.26-9.72-5.57a57.58,57.58,0,0,1-5.2-3.7c-1.21-.92-2.42-1.85-3.31-2.44-1.64-1.36-3.22-2.8-4.79-4.24-1.18-1.08-2.35-2.16-3.56-3.21a5.73,5.73,0,0,0-7.79.27l-12.1,12.06a5.69,5.69,0,0,0,.24,8.28c1.13,1,2.24,2,3.36,3,2.16,2,4.33,4,6.91,6.08,1.22.86,2.41,1.77,3.59,2.68L95,434.58l-3.12,4.78a136.59,136.59,0,0,1-28-26.52l23-16.67a5.68,5.68,0,0,0,1.26-7.95A101.37,101.37,0,0,1,72.08,354.6a5.72,5.72,0,0,0-7-4L48.56,355a5.68,5.68,0,0,0-4.1,6.68,81.93,81.93,0,0,0,3.72,11.76l.45,1.22a60.36,60.36,0,0,0,3.2,7.72L46.75,385A137.52,137.52,0,0,1,35.7,348L64,345.09A5.7,5.7,0,0,0,69,338.88a104,104,0,0,1,3-37.26,5.69,5.69,0,0,0-4-7L51.5,290.24a5.71,5.71,0,0,0-7,4.08l-1.68,6.49c-.35,1.52-.58,3.06-.8,4.6-.1.73-.2,1.46-.34,2.28l-1,7,0,.87L35,315.3a137.73,137.73,0,0,1,8.93-37.46l25.94,11.54a5.75,5.75,0,0,0,4.37.11,5.68,5.68,0,0,0,3.17-3,102,102,0,0,1,21.15-30.79,5.69,5.69,0,0,0,0-8l-12.1-12.07a5.73,5.73,0,0,0-8.3.24c-1,1.15-2,2.27-3.09,3.4-2,2.14-4,4.29-6,6.84-.87,1.22-1.78,2.41-2.7,3.6l-1.91,2.52-4.79-3.11a136.51,136.51,0,0,1,26.59-27.88l16.73,22.91a5.68,5.68,0,0,0,3.73,2.27,5.75,5.75,0,0,0,4.25-1l1.32-1a19.82,19.82,0,0,1,2.8-1.92l9.34-5.38c1.09-.5,2.18-1,3.27-1.57a44.71,44.71,0,0,1,6.68-2.85L136,232a57.83,57.83,0,0,1,8.26-2.61,5.69,5.69,0,0,0,4.36-7l-4.42-16.49a5.71,5.71,0,0,0-6.71-4.09,84.53,84.53,0,0,0-11.83,3.72l-1.18.44a59.84,59.84,0,0,0-7.73,3.19l-2.6-5.07a138.55,138.55,0,0,1,37-11l2.92,28.16a5.66,5.66,0,0,0,6.23,5.08,105.31,105.31,0,0,1,37.37,3,5.7,5.7,0,0,0,7-4l4.43-16.5a5.69,5.69,0,0,0-4.09-7l-6.49-1.67c-1.54-.35-3.09-.58-4.64-.8-.72-.11-1.45-.21-2.27-.35l-7-1-.88-.05.3-5.59a138.39,138.39,0,0,1,37.56,8.91L210,227.1a5.67,5.67,0,0,0,2.91,7.51,102.43,102.43,0,0,1,30.88,21.1,5.73,5.73,0,0,0,8.06,0L264,243.63a5.67,5.67,0,0,0-.24-8.27c-1.13-1-2.24-2-3.36-3-2.16-2-4.33-4-6.91-6.08-1.22-.86-2.41-1.77-3.59-2.68l-2.55-1.92,3.12-4.77a136.05,136.05,0,0,1,28,26.52Z"/><path class="cls-2" d="M171.16,237.08A90.85,90.85,0,0,0,92.44,374a5.58,5.58,0,0,0,.35.58,92,92,0,0,0,23.28,26c.14.1.23.25.38.33s.09,0,.13,0a90.77,90.77,0,0,0,109.14,0l.15-.06c.15-.08.24-.23.38-.33a91.69,91.69,0,0,0,23.28-26,4.25,4.25,0,0,0,.35-.58,90.85,90.85,0,0,0-78.72-136.89ZM160.88,249.2,97.55,359A79.56,79.56,0,0,1,160.88,249.2ZM126.81,394.31l44.35-76.87,44.34,76.87a79.82,79.82,0,0,1-88.68,0Zm97.75-7.13-46-79.69a8.57,8.57,0,0,0-14.84,0l-46,79.68a80.44,80.44,0,0,1-13.88-16.3l67.29-116.7,13,22.57c.08.17.17.34.26.5l54,93.63a80.44,80.44,0,0,1-13.88,16.3ZM244.77,359l-50.14-87a5,5,0,0,0-.27-.51l-12.9-22.31A79.57,79.57,0,0,1,244.77,359Z"/><polyline class="cls-3" points="636 389.32 646.53 397.48 636 405.98"/><path class="cls-4" d="M594.58,33.09C462,33.09,353,121.47,340.41,234.56l-75.48,29.67S260,266,260.49,273a9.51,9.51,0,0,0,5.64,8.14l79,23.4C370.3,404.79,472.42,479.81,594.58,479.81c141,0,255.4-100,255.4-223.36S735.63,33.09,594.58,33.09Z"/><path class="cls-5" d="M594.54,0C461.93,0,352.94,88.39,340.37,201.47l-75.48,29.67s-4.94,1.8-4.44,8.78a9.55,9.55,0,0,0,5.64,8.15l79,23.4C370.26,371.7,472.38,446.72,594.54,446.72c141.05,0,255.4-100,255.4-223.36S735.59,0,594.54,0Z"/><g class="cls-6"><path class="cls-7" d="M152.12,225.92l7.28,28s1.15,6.9-1.34,9.39S143.88,279,143.88,279l-6.52,12.84,37.75,21.46,45-12.07-1.34-31.62s-23.06-1.46-36.5-11.55c-2.64-2-4.88-25-4.88-25Z"/><path class="cls-8" d="M178.65,243.18c-.71-5.16-1.29-10.35-1.29-10.35l-25.29-7.09,2,7.79s7.91,5.15,10.37,6.23A48,48,0,0,0,178.65,243.18Z"/><path class="cls-7" d="M131.13,286.23s-18,10.2-19.69,11.86S96.89,311.3,96.89,311.3l-.49,41.89-16.75-39.9-14.56,6.44,20.73,62.11,11.4,17.66,8.61,3.25,12.68-58.61,18.28,11.45,22.42-16.38-16.1-40.1L136.22,284Z"/><path class="cls-7" d="M64.48,319.54a19.74,19.74,0,0,1-8.61-7.2,71.37,71.37,0,0,1-9,.46,1.49,1.49,0,0,1-.81-.18,1.44,1.44,0,0,1-.47-1,88.1,88.1,0,0,0-4.65-16.32,2.58,2.58,0,0,1-.27-1.43c.19-.88,1.22-1.29,2.11-1.37a5.41,5.41,0,0,0,2.61-.52c1-.68,1.29-2.21,2.43-2.58.91-.29,1.95.33,2.83,0s1.14-1.57,1.76-2.34c.89-1.11,2.49-1.26,3.88-1.55a27.48,27.48,0,0,0,6.87-2.74.71.71,0,0,0,.39-.35.65.65,0,0,0,0-.39c-1.05-4.9-3.27-9.8-4.32-14.7-.39-1.86-2-12.16-1.79-14.05s2.23-3.8,3.9-4.72a1.62,1.62,0,0,1,1.44-.19,2,2,0,0,1,.86,1.51c1.18,5.47,4.4,19.34,5.58,24.81.76,3.49,7.07,12.21,8.42,13.23,1.54,1.16,1.54,2.32,3.08,3.48a3.57,3.57,0,0,1,1,1.07A3.4,3.4,0,0,1,82,294l.24,9.26c.09,3.6,0,7.64-2.53,10.2Z"/><path class="cls-8" d="M77,287.4c-4.56-1.24-5.94-1.83-10.09,1s-7,7-11.38,9.37a1.51,1.51,0,0,0-.3,2.35c2.41,2.36,6,5.2,9.54,4.4s6.28-3.77,7.49-7l-2.2.9a14.71,14.71,0,0,0,3.66,2c1.81.7,2.56-2.18.8-2.89-6.81-2.74-9.58,6.16-7.27,11,.82,1.75,3.41.23,2.59-1.51-1.22-2.58-.45-8.38,3.88-6.63l.8-2.89a8.71,8.71,0,0,1-3-1.67c-.85-.64-1.9.09-2.2.89-1.14,3-3.09,4.29-6.14,4.14-2.79-.14-3.88-.92-5.88-2.88L57,300.37c3.09-1.63,5.3-4.1,7.82-6.47a30.17,30.17,0,0,1,4.6-3.58c2.2-1.37,4.37-.67,6.74,0a1.51,1.51,0,0,0,.8-2.9Z"/><path class="cls-8" d="M62.44,294.06l-.83-4.19-2.89.8a4.48,4.48,0,0,0,2.51,3.06,1.54,1.54,0,0,0,2.05-.53,1.52,1.52,0,0,0-.54-2.06,1.73,1.73,0,0,1-1.13-1.27c-.46-1.89-3.26-1.08-2.89.8l.83,4.19c.37,1.89,3.26,1.09,2.89-.8Z"/><path class="cls-7" d="M137.24,214.3s14.63,26,58.3,26c18.08,0,24.78-4.22,25.8-10.08,6.4-36.86-7.22-83.48-26.12-97.71-16.57-12.48-75.35,34.74-75.35,34.74l12.51,28.1s-12.77-13.8-17.88-6.13,11.11,23.88,11.11,23.88S132.89,218.64,137.24,214.3Z"/><path class="cls-7" d="M224.52,273.37c4.35-2.3,8.24,3.12,8.24,3.12l44.08,77.16-38,68.25s12.77,21.46,6.38,31.17l8.82,8.81s1.4,4.72-5,4.72-21.46-11.24-21.46-11.24l1.75-48.11L257.71,356l-26.09-38.78L223.47,310S216.43,277.66,224.52,273.37Z"/><path class="cls-7" d="M178.75,489.33l-36.92,92.56s-4.75,17.53-10.4,23.18a249.47,249.47,0,0,1-14,40.42c-9.58,21.46-13.79,51-13.79,51s8.71,22.12,7.66,32.09c0,0,8.33,11.49,5,18.1s-16.48,2.68-16.48,2.68-21.93,2.88-25.19-2.58,4.12-20.12,4.12-20.12-1-11.69,2.78-14.37S90,703.07,90,703.07s-1.44-3.84,2.58-9,10-38.35,10-42.69S97.13,614.59,115,601.81c0,0,4.35-88.13,16.61-100.39s47.13-19.54,47.13-19.54Z"/><path class="cls-9" d="M178.75,489.33,167,518.92s-16.33,7.29-20.46,8.3c-3.07.76-24.92,7.51-24.19,3.1,2.3-13.77,5.47-25.05,9.32-28.9,12.26-12.26,47.13-19.54,47.13-19.54Z"/><path class="cls-7" d="M191.9,475.62s30.91,116.74,33.21,122.11-9.77,15.77,11.3,89.72c0,0-1.34,9.77-3.25,13.22s-6.33,12.26-.77,15.33,23.57,18.39,31.23,19.73,22-5.36,22-5.36,7.66-2.88,5.27-5.27c0,0-7-.29-9.29-2.59s-28.36-22.8-28.36-22.8-8-10.34-8-11.05S239.48,597,239.48,597s2.11-5.74,0-17.43-1.09-85.32-1.09-85.32Z"/><path class="cls-9" d="M191.9,475.62l9.43,35.46c.83,3.11,36.87,5.6,36.87,5.6l.19-22.41Z"/><path class="cls-10" d="M191.9,498.74c6,11.85,48,14.35,51.48,15.45,0,0,1.09-47.58-5.62-74.31S191.9,498.74,191.9,498.74Z"/><path class="cls-11" d="M140.81,203.83c7.41,3.06,1-10.22,1-10.22s-.7-13.32-4.47-15.58a54.25,54.25,0,0,1-8.22-6.72l70.68-48.46s7.15-10-9.19-16.09a19.45,19.45,0,0,0-19.8-5.88s-7.15-8.56-17.5-.7c0,0-20.82-1.21-25.54,9a7.78,7.78,0,0,0-7.67,4.35s-4.34,1.66-5.17,5.17c0,0-10.54,4.15-11.18,11.17,0,0-5.74,8-1.15,14.57,0,0-3,5.71.9,9.64,0,0-8.82,9.64,0,15.64,0,0-2.17,6.26,10.73,8.82l3.83,7.91s3.69-1.67,14.3,9S140.81,203.83,140.81,203.83Z"/><path class="cls-12" d="M194.44,165.88c5.86,5.6,14.95,16.55,16,31.3,0,0-13.54,4.86-18.13,4.86"/><ellipse class="cls-13" cx="169.5" cy="176.31" rx="3.44" ry="4.69" transform="translate(-37.85 46.62) rotate(-14.1)"/><path class="cls-14" d="M164.22,172.93s.52-12.07,11.44-5.56"/><ellipse class="cls-13" cx="201.35" cy="166.69" rx="3.44" ry="4.69" transform="translate(-34.55 54.09) rotate(-14.1)"/><path class="cls-14" d="M195.19,162.69s3.19-11.65,12.38-2.85"/><path class="cls-15" d="M177.34,209.05c-.42-.44,25.31,1.61,35.13-5.62,0,0,1.93,19.57-6.84,21.71C196.6,227.35,186.19,223.74,177.34,209.05Z"/><g class="cls-16"><path class="cls-17" d="M175.66,212.13s24.07,6.86,34.76-3.83l-1.34-4.87-35.27,2.38Z"/><path class="cls-18" d="M179.9,220.94s7.72-7.47,20-2.49,0,14,0,14Z"/></g><path class="cls-19" d="M212.47,203.43c-10.92,6.88-35.13,5.62-35.13,5.62s12.57,22.93,30.23,15.24"/><path class="cls-8" d="M131.81,211.36s-.38-16.76-13.32-20.78"/><path class="cls-8" d="M118.51,344.14s11-14.81,9.59-12.56c-8.09,12.52,20.71,27,27.47,19.26,0,0-6.71,8.55-18.78,4.75Z"/><path class="cls-20" d="M143.88,279s-12.27,4.52-18,10.24c0,0,34.4,49.88,10.9,66.36,0,0,21.65,41.35,19.35,49.78s-40.76,115.79-40.76,115.79,118.78-2.11,123-79.77l-5.62-44.7a373.41,373.41,0,0,0,3.32-45.34c.25-21.82-2.14-46.88-3.89-64A27.55,27.55,0,0,0,224.14,270L213,268.94s8.82,29.59-11.61,32.39C190.34,302.84,163.8,306.4,143.88,279Z"/><g class="cls-21"><path class="cls-22" d="M119.8,524.06s118.79-2.11,123-79.76Z"/></g><path class="cls-20" d="M143.88,279s-12.27,4.52-18,10.24c0,0,34.4,49.88,10.9,66.36,0,0,21.65,41.35,19.35,49.78s-40.76,115.79-40.76,115.79,118.78-2.11,123-79.77l-5.62-44.7a373.41,373.41,0,0,0,3.32-45.34c.25-21.82-2.14-46.88-3.89-64A27.55,27.55,0,0,0,224.14,270L213,268.94s8.82,29.59-11.61,32.39C190.34,302.84,163.8,306.4,143.88,279Z"/><path class="cls-23" d="M153.5,414.06s62.62,8.34,80-11.59c0,0,1.89-3.93-.73-5.78.38,3.68-29.41,19.73-76.63,9.58C156.14,406.27,150.44,408.31,153.5,414.06Z"/><circle class="cls-24" cx="205.52" cy="411.04" r="14.61"/><g class="cls-25"><path class="cls-26" d="M136.16,128.47s-6.27,7.6,1.68,12.68c2.79,1.78-8.23,10.34-8.23,10.34l-4.46,25s5.75-2.31,9.59-2.31l20.15,23.1L142,205.36l-41.25-27.8-27.46-53,35.38-32.12,38.7-9-6.8,13.48s-16.43,10-10.16,17.27C126.44,116.9,125.68,127.74,136.16,128.47Z"/></g><path class="cls-27" d="M118.27,186.45s-7.41-3.31-7.41-9.45,28.87-64.11,89.15-54.15c0,0,9.33,6.51,6.13,9.71,0,0,5.75,7.14,1.15,11S180.34,141.75,118.27,186.45Z"/><path class="cls-28" d="M121.53,172.93s38.57-47,79.82-40.88C201.35,132.05,162.91,134.11,121.53,172.93Z"/><path class="cls-29" d="M208.11,420.7s-14.75,1.54-11.3-14.46"/><path class="cls-30" d="M203.13,401.26s14.76-1.45,11.22,14.53"/><path class="cls-8" d="M56.34,313.14c2.43-1.69,2.39-4.55.08-6.3-1.35-1-3.1,1.25-1.82,2.36,1.63,1.4,3.51,2.82,5.79,2.38a4.72,4.72,0,0,0,3.68-3.79l-2.21.9a5.41,5.41,0,0,0,5.56.17c1.73-.86.21-3.45-1.51-2.59a2.3,2.3,0,0,1-2.53-.17,1.5,1.5,0,0,0-2.2.89c-.57,2.85-3.12,1.24-4.46.09l-1.82,2.35-.07,1.12c-1.57,1.09-.08,3.69,1.51,2.59Z"/><path class="cls-8" d="M46.66,290.24q1.26,5.85,2.78,11.63a1.5,1.5,0,0,0,2.9-.79q-1.53-5.79-2.79-11.63c-.41-1.89-3.3-1.09-2.89.79Z"/><path class="cls-8" d="M94.67,352.56a36.43,36.43,0,0,1,4.12,14.31c.15,1.91,3.15,1.92,3,0A40.25,40.25,0,0,0,97.26,351c-.9-1.71-3.49-.19-2.59,1.52Z"/><path class="cls-8" d="M162,96.86a12.34,12.34,0,0,1,8.81,4,21.31,21.31,0,0,1,5.34-.7,19.44,19.44,0,0,1,14.46,6.58c15.88,6,9.58,15.53,9.21,16.06l.17,0s9.33,6.51,6.13,9.71c0,0,5.75,7.14,1.15,11a5.14,5.14,0,0,1-1.66.84c13.07,20.35,20.86,56.27,15.71,85.9-1,5.86-7.72,10.08-25.78,10.08h0a95.53,95.53,0,0,1-17.47-1.55c.18,1.38.37,2.88.58,4.38h0c.9,6.45,2.22,13.78,3.66,14.87,9.22,6.91,23,9.78,30.67,10.9l11.18,1a28,28,0,0,1,2.48,2.82h.13c3.36,0,6,3.68,6,3.68l44.08,77.16-38,68.25s12.77,21.46,6.38,31.17l8.82,8.81s1.4,4.72-5,4.72c-1.91,0-4.59-1-7.41-2.4a482.33,482.33,0,0,1,1.77,50c-.63-.19-2.49-.43-5.15-.77l0,3.26h0c-.13,22.68-.06,55.44,1.29,62.91,2.11,11.69,0,17.43,0,17.43s5.75,90.94,5.75,91.64,8,11.05,8,11.05,10.64,8.38,18.93,15h0s5,1.3,6.93,2.93a6.81,6.81,0,0,1,2.09,4.35c.55.37,1.46,1,2.51,1.75a26.9,26.9,0,0,0,7.19,1.34c1.13,1.13,0,2.37-1.49,3.37.83.88,1.33,1.65,1.19,2.15-.54,2-8.25,10.11-22.18,10.11-.78,0-1.58,0-2.4-.08-14.63-1-34.91-16.54-36.57-20.88a12.9,12.9,0,0,1,.22-8.75c0-3.7,2.24-8.13,3.47-10.35,1.91-3.45,3.25-13.22,3.25-13.22-21.07-74-9-84.36-11.3-89.72C223.56,594.11,209,540,199.72,505a25.34,25.34,0,0,1-4.81-2.84,151,151,0,0,1-25.29,10L167,518.92l-25.12,63s-4.75,17.53-10.4,23.18a249.47,249.47,0,0,1-14,40.42c-9.58,21.46-13.79,51-13.79,51s6.86,17.43,7.66,28.31c8.08,11.05,15.33,24.69,5.71,28.72-6.4,2.67-13.88,3.67-20.91,3.67-11.59,0-22-2.71-24.41-5.14-3.89-3.89,7.16-33.39,7.17-33.39.34-2.69,1.09-5.28,2.65-6.37,3.83-2.68,8.43-9.19,8.43-9.19s-1.44-3.84,2.58-9,10-38.35,10-42.69S97.13,614.59,115,601.81c0,0,2-41.48,7.29-71.48h0c.57-3.4,1.19-6.65,1.86-9.68-5.49.46-8.78.52-8.78.52s28.7-80.11,38-107.36c-2.37-4.75,1.34-6.89,2.46-7.4.13-.43.23-.77.3-1,2.3-8.43-19.35-49.78-19.35-49.78l-18.28-11.45-12.68,58.61-8.61-3.25-11.4-17.66L65.09,319.73l-.61-.19a19.74,19.74,0,0,1-8.61-7.2,70.69,70.69,0,0,1-8.1.46h-.91a1.1,1.1,0,0,1-1.28-1.18,88.1,88.1,0,0,0-4.65-16.32,2.58,2.58,0,0,1-.27-1.43c.19-.88,1.22-1.29,2.11-1.37a5.41,5.41,0,0,0,2.61-.52c1-.68,1.29-2.21,2.43-2.58a1.77,1.77,0,0,1,.56-.08c.53,0,1.08.16,1.61.16a1.87,1.87,0,0,0,.66-.11c.92-.38,1.14-1.57,1.76-2.34.89-1.11,2.49-1.26,3.88-1.55a27.48,27.48,0,0,0,6.87-2.74.71.71,0,0,0,.39-.35.65.65,0,0,0,0-.39c-1.05-4.9-3.27-9.8-4.32-14.7-.39-1.86-2-12.16-1.79-14.05s2.23-3.8,3.9-4.72a2.14,2.14,0,0,1,1-.29,1.06,1.06,0,0,1,.46.1,2,2,0,0,1,.86,1.51c1.18,5.47,4.4,19.34,5.58,24.81.76,3.49,7.07,12.21,8.42,13.23,1.54,1.16,1.54,2.32,3.08,3.48a3.57,3.57,0,0,1,1,1.07A3.4,3.4,0,0,1,82,294l.24,9.26c.09,3.6,0,7.64-2.53,10.2h0l16.56,39.46L96,351.8c.16.29.29.58.44.87l.49-41.37s12.89-11.55,14.55-13.21c1.07-1.08,9-5.72,14.45-8.86h0c5.72-5.72,18-10.24,18-10.24s11.69-13.22,14.18-15.71,1.34-9.39,1.34-9.39L153,229.31c-11.3-7.1-15.76-15-15.76-15a5.69,5.69,0,0,1-4.17,1.67c-3.72,0-7.46-2.82-7.46-2.82s-16.22-16.22-11.11-23.88a4.82,4.82,0,0,1,4.21-2.32c3.34,0,7.32,2.75,10.12,5.12-5.75-5-8.82-5.71-10.07-5.71l-.39,0-.1.07-.08,0-.11,0-.06-.12c-1.21-.6-6.63-3.58-7.11-8.63-9.16-2.87-7.39-8-7.39-8-8.81-6,0-15.64,0-15.64-3.93-3.93-.9-9.64-.9-9.64-4.59-6.52,1.15-14.57,1.15-14.57.64-7,11.18-11.17,11.18-11.17.83-3.51,5.17-5.17,5.17-5.17a7.67,7.67,0,0,1,7.08-4.37c.37,0,.59,0,.59,0,3.81-8.25,18.14-9.05,23.5-9.05,1.27,0,2,.05,2,.05A14.33,14.33,0,0,1,162,96.86m72,301.81L257.71,356,235.23,322.6c.59,9.6,1,19.47.86,28.75a373.41,373.41,0,0,1-3.32,45.34,3.15,3.15,0,0,1,1.29,2m46.59,323h0M162,90.86h0a19.33,19.33,0,0,0-10.5,3.28h-.23c-7.71,0-20.68,1.3-27,9.31a13.39,13.39,0,0,0-8.45,5.51,15.11,15.11,0,0,0-5.51,5.26c-3.81,1.94-10.75,6.36-12.31,13.46-2.42,4-4.68,10.83-2,17.23a14.63,14.63,0,0,0,.28,8.94,17.74,17.74,0,0,0-2.65,10.77,13.4,13.4,0,0,0,3.83,7.89,11,11,0,0,0,1,3.13,14.69,14.69,0,0,0,7.35,6.57,16,16,0,0,0,3,4.7c-2.87,5.3-1.44,12.21,4.25,20.56a77.47,77.47,0,0,0,8.19,9.93l.3.3.33.25c.89.67,5.62,4,11.07,4a12.14,12.14,0,0,0,2.19-.19,59.44,59.44,0,0,0,12.52,11.28l5.73,22a13.91,13.91,0,0,1,0,4.27c-2.6,2.69-10.28,11.33-13.14,14.55-3.61,1.44-12.59,5.35-18.09,10.47-13.28,7.66-14.35,8.74-15.07,9.45-1.12,1.13-9.37,8.57-14.3,13l-2,1.76,0,2.63-.15,13-4.23-10.07c1.93-4,1.82-8.37,1.76-11L88,294.17v-.33a8.43,8.43,0,0,0-3.66-7.21l-.21-.32a12.25,12.25,0,0,0-2.68-3c-1.54-1.61-5.91-8.08-6.42-9.93-.59-2.72-1.71-7.66-2.8-12.43s-2.19-9.63-2.77-12.33a7.6,7.6,0,0,0-4.2-5.69,7,7,0,0,0-3-.66,8,8,0,0,0-3.88,1c-3.05,1.68-6.49,5-7,9.32-.38,3.46,1.86,15.84,1.89,16a72.84,72.84,0,0,0,2.33,8c.3.9.59,1.77.87,2.63a9.85,9.85,0,0,1-1.46.42l-.48.1a10.74,10.74,0,0,0-6.89,3.57.27.27,0,0,1-.07.08,7.82,7.82,0,0,0-1.68.34A8,8,0,0,0,42,286.54a8,8,0,0,0-7.25,6.08,8.25,8.25,0,0,0,.55,4.87,81.22,81.22,0,0,1,4.33,15.21,7,7,0,0,0,7.11,6.1h1c1.79,0,3.6-.06,5.39-.19a26.13,26.13,0,0,0,7.08,5.55l19.89,59.58.24.71.41.64,11.39,17.66,1.08,1.67,1.85.7,8.61,3.25,6.52,2.45,1.47-6.8,10.87-50.26,9.64,6.05c1.59,3.09,5.49,10.8,9.27,19.14,7,15.51,8.49,21.77,8.77,24a10.9,10.9,0,0,0-3.06,4.49,10.68,10.68,0,0,0-.18,6.44c-9.83,28.63-37,104.47-37.28,105.25l-2.93,8.19,8.69-.16,1.27,0c-.13.73-.25,1.47-.38,2.22v.07c-4.52,25.93-6.65,59.61-7.2,69.39-15.91,13.92-13.62,41.11-12.84,50.32.08.91.16,2,.17,2.25-.08,4.83-6,34.84-8.73,39a17.9,17.9,0,0,0-4.08,11,33.45,33.45,0,0,1-5.61,5.94c-2.7,1.88-4.36,5.09-5.07,9.8-.73,2-3,8.4-5,15.14-4,13.88-4.17,20.38-.58,24,4.53,4.53,17.84,6.89,28.65,6.89,8.71,0,16.74-1.43,23.22-4.14a12.81,12.81,0,0,0,7.76-8.5c1.9-6.83-1.27-15.73-10-27.94-1.13-9.66-5.67-22.39-7.31-26.78,1-6.18,5.18-30.13,13.1-47.86a259,259,0,0,0,14-40c5.61-6.89,9.64-20.54,10.63-24.14l25-62.66,1.61-4a156.54,156.54,0,0,0,20.37-8l.11.06c20.83,78.1,24,88.39,24.8,90.48,0,.54-.22,1.62-.37,2.52-1.44,8.66-4.82,28.86,11.25,85.7-.61,3.92-1.65,8.6-2.38,9.91-2.53,4.56-3.94,8.64-4.18,12.13a18.7,18.7,0,0,0,.14,12c2.11,5.52,12.61,12.58,15.78,14.62,5.45,3.49,16.08,9.46,26,10.11.94.06,1.88.09,2.8.09,16,0,26.55-9.31,28-14.53a6.63,6.63,0,0,0,.17-2.77,7.39,7.39,0,0,0,.77-2.62,7.28,7.28,0,0,0-2.19-5.95l-1.65-1.66-2.34-.1a22.52,22.52,0,0,1-4.64-.72,11.72,11.72,0,0,0-3.55-5.32c-2.2-1.84-5.74-3.11-8-3.78-6.94-5.55-15.2-12.07-17.44-13.83-2.47-3.19-5.23-6.85-6.43-8.58-.28-4.74-1.37-22.35-5.6-89.21.67-2.72,1.66-9.12-.15-19.14-.91-5-1.34-26-1.21-57.78l5,1.59.18-8c0-.93.45-20.53-1-41.75.23,0,.46,0,.69,0,5.19,0,7.91-2.19,9.28-4a9.74,9.74,0,0,0,1.45-8.41l-.44-1.46-1.07-1.07-6-6c1.4-5.23.65-11.89-2.26-19.88a83.16,83.16,0,0,0-4.37-9.86l36.43-65.36,1.65-3-1.68-2.94L238,273.51l-.15-.27-.19-.26a15.84,15.84,0,0,0-7.83-5.74c-.45-.5-.92-1-1.42-1.49l-1.53-1.54-2.15-.2-11-1c-6.69-1-18.71-3.44-26.88-9.09a56.64,56.64,0,0,1-1.7-8.06c3.41.34,6.91.51,10.45.51,7.21,0,29.1,0,31.71-15.06,4.78-27.49-1-62.5-13.87-85.64,2.75-4.2,1.9-9.52-.6-14a9,9,0,0,0,0-1.47c-.32-3.64-3-7-5.72-9.42a14.11,14.11,0,0,0-.33-7.28c-1.58-5-5.81-9-12.59-11.82a25.33,25.33,0,0,0-21.56-7.27A17.77,17.77,0,0,0,162,90.86Zm79.16,282.61c.46-6.56.83-14.07.91-22.05q0-3.76,0-7.88l8.6,12.79-9.5,17.14Z"/><polyline class="cls-7" points="64.48 319.54 65.47 320.11 80.7 313.91"/></g><g class="cls-31"><path class="cls-23" d="M215.72,163.56a12.81,12.81,0,0,0-.21,8.68c1.64,4.31,21.76,19.77,36.28,20.72,15.33,1,23.82-7.85,24.39-10s-9.89-8.91-9.89-8.91Z"/><path class="cls-23" d="M66.05,171.11s-11,29.28-7.1,33.14,28.14,8.49,45,1.45S85.56,162,85.56,162Z"/><path class="cls-7" d="M165.17-56.43,128.54,35.42s-4.72,17.4-10.33,23a247,247,0,0,1-13.88,40.12c-9.51,21.29-13.69,50.57-13.69,50.57s8.65,22,7.61,31.84c0,0,8.27,11.41,4.94,18s-16.35,2.66-16.35,2.66-21.77,2.85-25-2.56,4.09-20,4.09-20-1.05-11.59,2.75-14.26,8.37-9.12,8.37-9.12-1.43-3.8,2.57-8.94,9.88-38,9.88-42.36-5.32-36.5,12.42-49.18c0,0,4.31-87.45,16.48-99.62s46.77-19.39,46.77-19.39Z"/><path class="cls-7" d="M178.22-70s30.67,115.84,33,121.17-9.7,15.65,11.21,89c0,0-1.33,9.7-3.23,13.12s-6.27,12.17-.76,15.21,23.38,18.25,31,19.58,21.86-5.32,21.86-5.32,7.61-2.85,5.23-5.23c0,0-6.94-.28-9.22-2.56s-28.14-22.63-28.14-22.63-8-10.26-8-11-5.71-90.94-5.71-90.94,2.1-5.7,0-17.3-1.07-84.67-1.07-84.67Z"/><path class="cls-23" d="M60.37,193.44s21.77-9.32,43.54-2.19a9.48,9.48,0,0,0-1.62-5.32c-1.8-2.85-29.09-7.22-40.68,2.33C61.61,188.26,59.14,191.82,60.37,193.44Z"/><path class="cls-23" d="M244.46,186.19s.85-19.17,21.83-12.09l.57.46a6.84,6.84,0,0,0-2.08-4.41c-1.94-1.62-6.88-2.91-6.88-2.91s-19.22-4.73-18.94,15.69C239,182.93,242,187.15,244.46,186.19Z"/><path class="cls-8" d="M148.57-445.89a12.26,12.26,0,0,1,8.74,4,21.07,21.07,0,0,1,5.3-.7A19.33,19.33,0,0,1,177-436.07c15.76,5.91,9.5,15.42,9.14,15.95l.17,0s9.25,6.47,6.08,9.63c0,0,5.71,7.09,1.15,10.89a5,5,0,0,1-1.66.83c12.33,19.2,19.92,52.35,16.26,80.82a3.1,3.1,0,0,1,.86-.8,1.78,1.78,0,0,1,1-.27,2.79,2.79,0,0,1,2.19,1.18,8.4,8.4,0,0,1,1,6.63c-1.17,3.08-3.13,7.75-3.15,9.34,0,2.75,1.62,1,2.91,3.36a7.11,7.11,0,0,1,0,2.95c-.51,3.27,1,1,1.76,4.21a6.87,6.87,0,0,1-1.14,5.27c-.39.68,3,5.93-1.39,8.79a16.35,16.35,0,0,0-3,3.08l1.08.1a28.7,28.7,0,0,1,2.47,2.8h.12c3.34,0,6,3.65,6,3.65l43.74,76.57-37.75,67.73s12.67,21.29,6.33,30.93l8.75,8.74S241.23-79,234.9-79c-1.89,0-4.55-1-7.35-2.39a478.49,478.49,0,0,1,1.75,49.62,46.79,46.79,0,0,0-5.11-.77l0,3.24h0c-.12,22.5-.05,55,1.28,62.42,2.1,11.6,0,17.3,0,17.3s5.71,90.24,5.71,90.94,8,11,8,11,10.56,8.31,18.78,14.9h0s5,1.29,6.88,2.91a6.68,6.68,0,0,1,2.07,4.32c.55.37,1.45,1,2.49,1.73a26.78,26.78,0,0,0,7.14,1.33c1.13,1.13,0,2.36-1.47,3.35.82.87,1.31,1.64,1.17,2.13-.54,2-8.18,10-22,10-.78,0-1.58,0-2.39-.08-14.52-1-34.64-16.41-36.28-20.72a12.81,12.81,0,0,1,.21-8.68c0-3.67,2.22-8.07,3.44-10.27,1.9-3.42,3.23-13.12,3.23-13.12-20.91-73.38-8.93-83.71-11.21-89-1.45-3.39-14.38-51.43-23.6-86h0l0-.11L186-40.85a24.12,24.12,0,0,1-4.77-2.82,149.58,149.58,0,0,1-25.1,10L128.54,35.42s-4.72,17.4-10.33,23a247,247,0,0,1-13.88,40.12c-9.51,21.29-13.69,50.57-13.69,50.57s6.81,17.3,7.61,28.1c8,11,15.21,24.5,5.66,28.49-6.35,2.66-13.77,3.65-20.75,3.65-11.5,0-21.81-2.7-24.21-5.1-3.87-3.86,7.1-33.14,7.1-33.14.34-2.66,1.08-5.23,2.63-6.32,3.81-2.66,8.37-9.12,8.37-9.12s-1.43-3.8,2.57-8.94,9.88-38,9.88-42.36-5.32-36.5,12.42-49.18c0,0,2-41.16,7.23-70.93h0c.57-3.38,1.18-6.6,1.85-9.6-5.45.45-8.71.51-8.71.51s28.48-79.5,37.7-106.54c-2.34-4.71,1.34-6.83,2.44-7.35.13-.42.24-.76.3-1,2.29-8.37-19.2-49.4-19.2-49.4l-5.74-9.71L104-202.1l-8.87-20.78s1.6-21.68,3.24-23.33c1.07-1.06,8.93-5.67,14.35-8.79h0c5.67-5.67,17.85-10.15,17.85-10.15s11.59-13.12,14.07-15.59,1.33-9.32,1.33-9.32l-6.35-24.39C128.4-321.5,124-329.35,124-329.35a5.67,5.67,0,0,1-4.14,1.66c-3.69,0-7.4-2.8-7.4-2.8s-16.09-16.1-11-23.7a4.75,4.75,0,0,1,4.17-2.3c3.32,0,7.27,2.73,10,5.08-5.71-5-8.76-5.67-10-5.67a2.06,2.06,0,0,0-.39,0l-.1.07-.07,0-.12,0,0-.12c-1.2-.6-6.59-3.56-7.06-8.57-9.09-2.85-7.33-7.91-7.33-7.91-8.75-6,0-15.53,0-15.53-3.9-3.9-.89-9.57-.89-9.57-4.56-6.46,1.14-14.45,1.14-14.45.63-7,11.09-11.09,11.09-11.09.82-3.48,5.13-5.13,5.13-5.13a7.61,7.61,0,0,1,7-4.34,4.75,4.75,0,0,1,.58,0c3.79-8.19,18-9,23.32-9,1.26,0,2,0,2,0a14.2,14.2,0,0,1,8.62-3.29m41.18,149c1.91,0,7-6.62,8.82-8.57-3.88,1.21-9.21,1.9-16.35,1.93h.4c3,0,5.31,6.39,7,6.63h.1m-24.68-3.83h0c.9,6.4,2.21,13.68,3.63,14.75a52.49,52.49,0,0,0,15.74,7.55c0-.23-.06-.46-.09-.71-.53-4.42-5.43-10.86-6.67-12.1-.94-.94-4-10.13-4.07-12.63h0c-3.22-.27-6.24-.68-9.1-1.21.17,1.37.36,2.86.57,4.35m55,154.3,23.47-42.31-22.31-33.18c.59,9.53,1,19.32.86,28.53a372.93,372.93,0,0,1-3.3,45,3.15,3.15,0,0,1,1.28,2M266.29,174.1h0m-117.72-626v0a19.26,19.26,0,0,0-10.44,3.25h-.21c-7.66,0-20.53,1.29-26.79,9.24a13.34,13.34,0,0,0-8.39,5.47,15.06,15.06,0,0,0-5.47,5.22c-3.79,1.93-10.67,6.33-12.22,13.37-2.41,4-4.65,10.77-2,17.13a14.68,14.68,0,0,0,.28,8.86,17.6,17.6,0,0,0-2.62,10.69,13.41,13.41,0,0,0,3.8,7.86,11.26,11.26,0,0,0,1,3.1,14.63,14.63,0,0,0,7.3,6.53,15.88,15.88,0,0,0,3,4.64c-2.83,5.26-1.41,12.13,4.24,20.42a76.78,76.78,0,0,0,8.13,9.86l.3.3.33.25c.89.67,5.59,4,11,4a12.76,12.76,0,0,0,2.16-.18,59.47,59.47,0,0,0,12.39,11.17l5.69,21.85a13.78,13.78,0,0,1,0,4.2c-2.59,2.68-10.19,11.23-13,14.43-3.59,1.43-12.5,5.3-18,10.39-13.18,7.6-14.25,8.67-15,9.38-1.51,1.51-3.22,3.23-5,27.13L89-221.87l.57,1.34,8.87,20.79,1.2,2.79,2.95.69,11.3,2.66,4.36,7.38c.62,1.19,5.32,10.28,9.85,20.26,7,15.35,8.42,21.57,8.7,23.8a10.77,10.77,0,0,0-3,4.46,10.69,10.69,0,0,0-.19,6.4c-9.75,28.41-36.7,103.66-37,104.43l-2.93,8.19,8.69-.16,1.2,0c-.11.63-.22,1.26-.32,1.91l-.22.87,0,.23c-4.39,25.61-6.47,58.42-7,68.05C80.29,66,82.57,93,83.34,102.14c.07.9.16,1.93.16,2.23-.07,4.78-5.91,34.53-8.65,38.72a17.82,17.82,0,0,0-4,10.92,33,33,0,0,1-5.56,5.87c-2.68,1.88-4.33,5.07-5,9.76-.72,2-3,8.23-4.91,14.92-4,13.86-4.17,20.35-.59,23.93,4.5,4.51,17.73,6.86,28.46,6.86a60.68,60.68,0,0,0,23.07-4.11,12.76,12.76,0,0,0,7.72-8.47c1.89-6.79-1.25-15.63-9.88-27.76-1.13-9.58-5.62-22.19-7.26-26.56,1-6.15,5.15-29.89,13-47.47a256.6,256.6,0,0,0,13.87-39.69c5.57-6.84,9.57-20.38,10.56-24l26.38-66.17a156.18,156.18,0,0,0,20.18-7.93l.07,0,.89,3.33,0,.09C201.68,41.26,204.7,51,205.47,53c0,.53-.21,1.6-.36,2.48-1.44,8.6-4.78,28.65,11.16,85-.61,3.88-1.64,8.52-2.35,9.81-2.56,4.6-3.93,8.56-4.17,12.05a18.58,18.58,0,0,0,.15,11.95c2.1,5.5,12.53,12.51,15.68,14.53,5.41,3.47,16,9.4,25.81,10q1.41.09,2.79.09c15.88,0,26.38-9.26,27.79-14.45a6.72,6.72,0,0,0,.18-2.75,7.52,7.52,0,0,0,.75-2.61,7.23,7.23,0,0,0-2.18-5.94l-1.65-1.65-2.34-.1a22.53,22.53,0,0,1-4.57-.71,11.65,11.65,0,0,0-3.53-5.28c-2.19-1.83-5.7-3.09-7.93-3.75-6.87-5.51-15.07-12-17.29-13.72-2.45-3.16-5.17-6.78-6.37-8.5-.28-4.72-1.36-22.23-5.55-88.51.66-2.7,1.64-9.06-.15-19-.9-5-1.34-25.78-1.21-57.27l5,1.58.18-8c0-.92.44-20.34-1-41.38l.63,0c5.17,0,7.88-2.18,9.25-4a9.7,9.7,0,0,0,1.44-8.38l-.43-1.46-1.08-1.07-5.9-5.9c1.39-5.2.64-11.81-2.24-19.73a81.48,81.48,0,0,0-4.33-9.77l36.14-64.84,1.65-3L267.72-194,224-270.61l-.16-.28-.18-.25a16.94,16.94,0,0,0-4.86-4.44c1.63-2.57,2-5.8,1.06-9.66a12.07,12.07,0,0,0,.65-7.47A10.09,10.09,0,0,0,219-296.2a8.68,8.68,0,0,0-.84-5.12,9.8,9.8,0,0,0-1.57-2.17c.45-1.25,1-2.71,1.41-3.69.25-.66.5-1.29.72-1.87,1.56-4.09.35-9.21-1.65-12.14a8.45,8.45,0,0,0-2.38-2.35c1.81-25.21-4.07-54-15.1-73.93,2.71-4.17,1.88-9.46-.6-13.87a7.82,7.82,0,0,0,0-1.45c-.32-3.62-3-6.91-5.67-9.36a14.1,14.1,0,0,0-.33-7.22c-1.57-5-5.78-8.95-12.51-11.76a25.63,25.63,0,0,0-17.86-7.47,26.6,26.6,0,0,0-3.55.25,17.68,17.68,0,0,0-10.49-3.54ZM227.18-171.6c.45-6.46.81-13.85.9-21.68,0-2.45,0-5,0-7.67l8.44,12.55-9.32,16.8Z"/></g></svg>