<svg id="Camada_1" data-name="Camada 1" xmlns="http://www.w3.org/2000/svg" xmlns:xlink="http://www.w3.org/1999/xlink" viewBox="0 0 849.94 498.78"><defs><style>.cls-1,.cls-13,.cls-18,.cls-28,.cls-29,.cls-3,.cls-30{fill:none;}.cls-2{fill:#2ddaf7;}.cls-3{stroke:#a0864d;stroke-linejoin:round;}.cls-13,.cls-18,.cls-28,.cls-29,.cls-3,.cls-30{stroke-linecap:round;}.cls-18,.cls-3{stroke-width:2px;}.cls-4{fill:#666461;}.cls-5{fill:#13c4d6;}.cls-6{clip-path:url(#clip-path);}.cls-7{fill:#c9a68f;}.cls-8{fill:#eac2a7;}.cls-9{fill:#d6aa8b;}.cls-10{fill:#d6d6d6;}.cls-11{fill:#c99f4b;}.cls-12{fill:#6d5f56;}.cls-13{stroke:#6d5f56;}.cls-13,.cls-18,.cls-28,.cls-29,.cls-30{stroke-miterlimit:10;}.cls-13,.cls-28,.cls-29,.cls-30{stroke-width:3px;}.cls-14{fill:#493e38;}.cls-15{clip-path:url(#clip-path-2);}.cls-16{fill:#fcfcfc;}.cls-17{fill:#d32222;}.cls-18,.cls-30{stroke:#c9a68f;}.cls-19{fill:#f4f4f4;}.cls-20{clip-path:url(#clip-path-3);}.cls-21{fill:#b7b7b7;}.cls-22{fill:#6d472e;}.cls-23{fill:#c99e32;}.cls-24{clip-path:url(#clip-path-4);}.cls-25{fill:#aa7e30;}.cls-26{fill:#fff;}.cls-27{fill:#ddd;}.cls-28{stroke:#846829;}.cls-29{stroke:#e8cd95;}</style><clipPath id="clip-path"><ellipse class="cls-1" cx="173.08" cy="284.84" rx="216.74" ry="211.12"/></clipPath><clipPath id="clip-path-2"><path class="cls-1" d="M146.68,224.4c-.42-.44,25.32,1.61,35.15-5.61,0,0,1.94,19.54-6.84,21.67C166,242.66,155.53,239.06,146.68,224.4Z"/></clipPath><clipPath id="clip-path-3"><path class="cls-1" d="M161.25,513.52c6,11.83,48,14.32,51.51,15.42,0,0,1.1-47.49-5.61-74.17S161.25,513.52,161.25,513.52Z"/></clipPath><clipPath id="clip-path-4"><path class="cls-1" d="M110.12,219.19c7.41,3.06,1-10.2,1-10.2s-.7-13.29-4.48-15.55a54.11,54.11,0,0,1-8.23-6.71l18.95-12.95,51.79-35.41s7.16-9.94-9.2-16.06a19.49,19.49,0,0,0-19.81-5.86s-7.16-8.54-17.52-.7c0,0-20.83-1.21-25.56,9a7.8,7.8,0,0,0-7.67,4.34s-4.35,1.66-5.18,5.16c0,0-10.55,4.14-11.18,11.16,0,0-5.76,8-1.16,14.53,0,0-3,5.7.9,9.62,0,0-8.82,9.62,0,15.62,0,0-2.17,6.24,10.74,8.79l3.83,7.9s3.69-1.67,14.32,8.93Z"/></clipPath></defs><title>Fala 1</title><path class="cls-2" d="M171.16,157.43C76.63,157.43,0,233.85,0,328.11S76.63,498.78,171.16,498.78s171.16-76.41,171.16-170.67S265.65,157.54,171.16,157.43Zm0,330c-88.23,0-159.75-71.32-159.75-159.3s71.52-159.3,159.75-159.3,159.75,71.32,159.75,159.3S259.35,487.31,171.16,487.41Z"/><path class="cls-2" d="M251.94,204.13a5.7,5.7,0,0,0-7.9,1.66l-9.33,14.3a5.67,5.67,0,0,0,1.81,8,77.14,77.14,0,0,1,6.4,4.54c1.28,1,2.56,2,3.57,2.66,1.77,1.46,3.47,3,5.16,4.54l-3.94,3.93a113.8,113.8,0,0,0-25-17.08l11.66-26.1a5.67,5.67,0,0,0-2.89-7.51,149.56,149.56,0,0,0-52.57-12.49,5.71,5.71,0,0,0-4.12,1.45,5.63,5.63,0,0,0-1.87,3.94L172,203a5.71,5.71,0,0,0,5.39,6l6,.3,6.4,1c.82.14,1.64.26,2.46.38,1.24.17,2.47.35,3.56.59l.78.2-1.5,5.58a116.55,116.55,0,0,0-30.21-2.44l-3-28.47a5.72,5.72,0,0,0-6.28-5.07,147.48,147.48,0,0,0-51.84,15.4,5.69,5.69,0,0,0-2.48,7.65l7.79,15.2a5.7,5.7,0,0,0,7.47,2.58c1.15-.53,2.29-1.08,3.43-1.64a57.42,57.42,0,0,1,8.15-3.49l1.46-.55c1.71-.63,3.38-1.25,5-1.8l1.48,5.51c-1.41.47-2.77,1-4.13,1.48l-1.35.51a53.91,53.91,0,0,0-8.1,3.43c-1,.48-2,1-3.43,1.66l-9.67,5.55c-.22.12-.44.24-.65.37L92,209.8a5.72,5.72,0,0,0-8-1.25,148.34,148.34,0,0,0-37.21,39,5.74,5.74,0,0,0-.8,4.29,5.63,5.63,0,0,0,2.48,3.59l14.34,9.31a5.72,5.72,0,0,0,8-1.81,74.39,74.39,0,0,1,4.54-6.37c1-1.29,2-2.58,2.68-3.58,1.46-1.76,3-3.46,4.55-5.15l4,3.94a113,113,0,0,0-17.14,24.94L43.24,265.08A5.72,5.72,0,0,0,35.7,268,148.58,148.58,0,0,0,23.18,320.4a5.69,5.69,0,0,0,5.41,6l17.09.88a5.67,5.67,0,0,0,4.12-1.44,5.61,5.61,0,0,0,1.87-3.93l.3-6,1-6.37c.15-.82.27-1.65.39-2.48.17-1.22.35-2.46.59-3.52l.2-.79,5.59,1.49a115.09,115.09,0,0,0-2.45,30.13l-28.54,3a5.7,5.7,0,0,0-5.09,6.25,148,148,0,0,0,15.45,51.7,5.7,5.7,0,0,0,7.67,2.47L62,390a5.67,5.67,0,0,0,2.58-7.46c-.52-1.13-1.07-2.24-1.62-3.36A57.44,57.44,0,0,1,59.43,371l-.56-1.5c-.64-1.69-1.25-3.34-1.79-5L62.66,363a113.31,113.31,0,0,0,13,27.23L52.52,407A5.69,5.69,0,0,0,51.26,415a148.37,148.37,0,0,0,39.12,37.1,5.72,5.72,0,0,0,4.3.8,5.66,5.66,0,0,0,3.6-2.46l9.33-14.31a5.66,5.66,0,0,0-1.81-8,75,75,0,0,1-6.4-4.55c-1.28-1-2.56-1.95-3.57-2.66-1.77-1.45-3.47-3-5.16-4.53l4-4c1.53,1.4,3.09,2.8,5,4.35,1.11.78,2.19,1.61,3.27,2.44a69.91,69.91,0,0,0,6.36,4.47l10.19,5.83.12,0L108,455.67a5.67,5.67,0,0,0,2.89,7.51,149.56,149.56,0,0,0,52.57,12.49h.3a5.7,5.7,0,0,0,5.69-5.39l.89-17a5.7,5.7,0,0,0-5.39-6l-6-.3-6.4-1c-.82-.14-1.64-.25-2.46-.37-1.24-.18-2.47-.35-3.55-.6l-.79-.2,1.5-5.57a117,117,0,0,0,30.22,2.44l3,28.47a5.72,5.72,0,0,0,6.28,5.07,147.36,147.36,0,0,0,51.84-15.4,5.7,5.7,0,0,0,2.48-7.66L233.19,437a5.72,5.72,0,0,0-7.48-2.57c-1.15.53-2.28,1.08-3.42,1.64a57.92,57.92,0,0,1-8.15,3.49l-1.46.55c-1.72.63-3.38,1.25-5,1.8l-1.5-5.58a113.1,113.1,0,0,0,27.3-13l16.87,23.11a5.72,5.72,0,0,0,8,1.26,148.23,148.23,0,0,0,37.21-39,5.68,5.68,0,0,0-1.67-7.87l-14.35-9.31a5.71,5.71,0,0,0-8,1.81,72.81,72.81,0,0,1-4.55,6.36c-1,1.29-2,2.58-2.68,3.59-1.46,1.76-3,3.46-4.55,5.14l-3.94-3.93a113.58,113.58,0,0,0,17.13-24.94l26.17,11.64a5.73,5.73,0,0,0,7.54-2.88,148.58,148.58,0,0,0,12.52-52.44,5.71,5.71,0,0,0-5.41-6L296.64,329a5.75,5.75,0,0,0-6,5.38l-.3,6-1,6.37c-.15.82-.27,1.65-.39,2.47-.17,1.23-.35,2.47-.59,3.53l-.2.79L282.7,352l0-.14c.31-1.32.51-2.67.7-4,.09-.63.17-1.26.29-2l.88-5.6a5.42,5.42,0,0,0,.06-.58l.3-6V322.15l0-.26,28.66-3a5.68,5.68,0,0,0,5.08-6.25A148.2,148.2,0,0,0,303.24,261a5.71,5.71,0,0,0-7.67-2.47l-15.25,7.76a5.68,5.68,0,0,0-2.58,7.46c.53,1.13,1.08,2.24,1.62,3.36a59.05,59.05,0,0,1,3.53,8.17l.56,1.51c.63,1.69,1.25,3.34,1.79,5l-5.59,1.49a112.39,112.39,0,0,0-13-27.23l23.18-16.82a5.67,5.67,0,0,0,1.26-7.94A148.21,148.21,0,0,0,251.94,204.13Zm3.47,55.93a5.67,5.67,0,0,0-1.26,7.94,101.37,101.37,0,0,1,16.09,33.62,5.74,5.74,0,0,0,7,4l16.54-4.41a5.7,5.7,0,0,0,4.11-6.69,82.25,82.25,0,0,0-3.73-11.75l-.45-1.22a57.83,57.83,0,0,0-3.2-7.72l5.08-2.59a137.52,137.52,0,0,1,11.05,36.93l-28.25,2.93a5.7,5.7,0,0,0-5.11,5.95l.29,5.52v10.88l-.28,5.36-.81,5.22c-.13.74-.24,1.49-.35,2.24-.14,1-.27,2-.46,2.87l-1.43,5.47a5.69,5.69,0,0,0,4,6.93l16.54,4.4a5.69,5.69,0,0,0,7-4.08l1.68-6.49c.35-1.51.58-3,.8-4.6.1-.73.2-1.45.34-2.27l1.05-7,.05-.87,5.6.28a137.73,137.73,0,0,1-8.93,37.46l-25.94-11.53a5.72,5.72,0,0,0-7.54,2.89,101.92,101.92,0,0,1-21.15,30.8,5.67,5.67,0,0,0,0,8l12.1,12.07a5.62,5.62,0,0,0,4.21,1.67,5.71,5.71,0,0,0,4.09-1.91q1.53-1.71,3.09-3.39c2-2.14,4-4.29,6.05-6.85.87-1.21,1.78-2.41,2.7-3.6.63-.83,1.27-1.66,1.91-2.52l4.79,3.11A136.81,136.81,0,0,1,256.13,435L239.4,412.12a5.71,5.71,0,0,0-8-1.25,102.09,102.09,0,0,1-33.71,16,5.67,5.67,0,0,0-4,7l4.42,16.49a5.71,5.71,0,0,0,6.71,4.1,85.91,85.91,0,0,0,11.83-3.73l1.18-.44a59.84,59.84,0,0,0,7.73-3.19l2.6,5.07a138.19,138.19,0,0,1-37,11L188.19,435a5.61,5.61,0,0,0-2.05-3.83,5.68,5.68,0,0,0-4.18-1.25,105,105,0,0,1-37.36-3,5.71,5.71,0,0,0-7,4l-4.42,16.5a5.66,5.66,0,0,0,4.09,7l6.5,1.67c1.53.35,3.08.58,4.63.8.73.11,1.45.21,2.27.35l7,1,.88.05-.3,5.59A139.14,139.14,0,0,1,120.75,455l11.57-25.87a5.69,5.69,0,0,0-2.74-7.44l-4.74-2.26-9.72-5.57a57.58,57.58,0,0,1-5.2-3.7c-1.21-.92-2.42-1.85-3.31-2.44-1.64-1.36-3.22-2.8-4.79-4.24-1.18-1.08-2.35-2.16-3.56-3.21a5.73,5.73,0,0,0-7.79.27l-12.1,12.06a5.69,5.69,0,0,0,.24,8.28c1.13,1,2.24,2,3.36,3,2.16,2,4.33,4,6.91,6.08,1.22.86,2.41,1.77,3.59,2.68L95,434.58l-3.12,4.78a136.59,136.59,0,0,1-28-26.52l23-16.67a5.68,5.68,0,0,0,1.26-7.95A101.37,101.37,0,0,1,72.08,354.6a5.72,5.72,0,0,0-7-4L48.56,355a5.68,5.68,0,0,0-4.1,6.68,81.93,81.93,0,0,0,3.72,11.76l.45,1.22a60.36,60.36,0,0,0,3.2,7.72L46.75,385A137.52,137.52,0,0,1,35.7,348L64,345.09A5.7,5.7,0,0,0,69,338.88a104,104,0,0,1,3-37.26,5.69,5.69,0,0,0-4-7L51.5,290.24a5.71,5.71,0,0,0-7,4.08l-1.68,6.49c-.35,1.52-.58,3.06-.8,4.6-.1.73-.2,1.46-.34,2.28l-1,7,0,.87L35,315.3a137.73,137.73,0,0,1,8.93-37.46l25.94,11.54a5.75,5.75,0,0,0,4.37.11,5.68,5.68,0,0,0,3.17-3,102,102,0,0,1,21.15-30.79,5.69,5.69,0,0,0,0-8l-12.1-12.07a5.73,5.73,0,0,0-8.3.24c-1,1.15-2,2.27-3.09,3.4-2,2.14-4,4.29-6,6.84-.87,1.22-1.78,2.41-2.7,3.6l-1.91,2.52-4.79-3.11a136.51,136.51,0,0,1,26.59-27.88l16.73,22.91a5.68,5.68,0,0,0,3.73,2.27,5.75,5.75,0,0,0,4.25-1l1.32-1a19.82,19.82,0,0,1,2.8-1.92l9.34-5.38c1.09-.5,2.18-1,3.27-1.57a44.71,44.71,0,0,1,6.68-2.85L136,232a57.83,57.83,0,0,1,8.26-2.61,5.69,5.69,0,0,0,4.36-7l-4.42-16.49a5.71,5.71,0,0,0-6.71-4.09,84.53,84.53,0,0,0-11.83,3.72l-1.18.44a59.84,59.84,0,0,0-7.73,3.19l-2.6-5.07a138.55,138.55,0,0,1,37-11l2.92,28.16a5.66,5.66,0,0,0,6.23,5.08,105.31,105.31,0,0,1,37.37,3,5.7,5.7,0,0,0,7-4l4.43-16.5a5.69,5.69,0,0,0-4.09-7l-6.49-1.67c-1.54-.35-3.09-.58-4.64-.8-.72-.11-1.45-.21-2.27-.35l-7-1-.88-.05.3-5.59a138.39,138.39,0,0,1,37.56,8.91L210,227.1a5.67,5.67,0,0,0,2.91,7.51,102.43,102.43,0,0,1,30.88,21.1,5.73,5.73,0,0,0,8.06,0L264,243.63a5.67,5.67,0,0,0-.24-8.27c-1.13-1-2.24-2-3.36-3-2.16-2-4.33-4-6.91-6.08-1.22-.86-2.41-1.77-3.59-2.68l-2.55-1.92,3.12-4.77a136.05,136.05,0,0,1,28,26.52Z"/><path class="cls-2" d="M171.16,237.08A90.85,90.85,0,0,0,92.44,374a5.58,5.58,0,0,0,.35.58,92,92,0,0,0,23.28,26c.14.1.23.25.38.33s.09,0,.13,0a90.77,90.77,0,0,0,109.14,0l.15-.06c.15-.08.24-.23.38-.33a91.69,91.69,0,0,0,23.28-26,4.25,4.25,0,0,0,.35-.58,90.85,90.85,0,0,0-78.72-136.89ZM160.88,249.2,97.55,359A79.56,79.56,0,0,1,160.88,249.2ZM126.81,394.31l44.35-76.87,44.34,76.87a79.82,79.82,0,0,1-88.68,0Zm97.75-7.13-46-79.69a8.57,8.57,0,0,0-14.84,0l-46,79.68a80.44,80.44,0,0,1-13.88-16.3l67.29-116.7,13,22.57c.08.17.17.34.26.5l54,93.63a80.44,80.44,0,0,1-13.88,16.3ZM244.77,359l-50.14-87a5,5,0,0,0-.27-.51l-12.9-22.31A79.57,79.57,0,0,1,244.77,359Z"/><polyline class="cls-3" points="636 389.32 646.53 397.48 636 405.98"/><path class="cls-4" d="M594.58,33.09C462,33.09,353,121.47,340.41,234.56l-75.48,29.67S260,266,260.49,273a9.51,9.51,0,0,0,5.64,8.14l79,23.4C370.3,404.79,472.42,479.81,594.58,479.81c141,0,255.4-100,255.4-223.36S735.63,33.09,594.58,33.09Z"/><path class="cls-5" d="M594.54,0C461.93,0,352.94,88.39,340.37,201.47l-75.48,29.67s-4.94,1.8-4.44,8.78a9.55,9.55,0,0,0,5.64,8.15l79,23.4C370.26,371.7,472.38,446.72,594.54,446.72c141.05,0,255.4-100,255.4-223.36S735.59,0,594.54,0Z"/><g class="cls-6"><path class="cls-7" d="M131.34,112.44a12.39,12.39,0,0,1,8.82,4,21.31,21.31,0,0,1,5.34-.7A19.47,19.47,0,0,1,160,122.31c15.9,5.95,9.59,15.51,9.22,16l.18,0s9.33,6.51,6.13,9.69c0,0,5.76,7.13,1.15,10.95a5,5,0,0,1-1.66.84c13.07,20.31,20.87,56.16,15.72,85.73-1,5.85-7.72,10.06-25.8,10.06h0a96.5,96.5,0,0,1-17.48-1.54c.17,1.37.37,2.87.57,4.36h0c.91,6.44,2.23,13.76,3.67,14.84,9.22,6.9,23,9.76,30.7,10.88l11.19,1a26.9,26.9,0,0,1,5.81,8.51h0l65.32,60.46,51.55-43.47s3.43-13.41,22.5-13.41a48.55,48.55,0,0,1,7.85.67c26,4.2-2.35,7.26-2.35,7.26s2.94-.24,7.29-.24c6.51,0,16.18.55,23.77,3.3l3.93,4.78-9,9s-20.78,2.86-32.67,2.86c-3.77,0-6.66-.28-7.69-1a.75.75,0,0,0-.47-.13c-7.08,0-65.3,54.76-65.3,54.76l-60-48.35c.89,11.86,1.52,24.53,1.39,36.26a373.08,373.08,0,0,1-3.33,45.25c2.63,1.85.73,5.77.73,5.77l4.9,38.84c0,.29-.05.57-.07.86,6.09,27,5,71.8,5,71.8a47.32,47.32,0,0,0-5.15-.77l0,3.26h0c-.12,22.63,0,55.32,1.3,62.78,2.11,11.66,0,17.4,0,17.4s5.75,90.75,5.75,91.45,8,11,8,11,10.65,8.36,18.94,15h0s5,1.3,6.94,2.92a6.79,6.79,0,0,1,2.09,4.34c.55.38,1.46,1,2.51,1.75a27,27,0,0,0,7.2,1.34c1.14,1.13,0,2.37-1.49,3.36.83.88,1.33,1.65,1.19,2.15-.54,2-8.25,10.09-22.19,10.09-.79,0-1.59,0-2.42-.08-14.63-1-34.93-16.51-36.59-20.85a12.89,12.89,0,0,1,.21-8.73h0c0-3.69,2.24-8.11,3.47-10.32,1.92-3.44,3.26-13.2,3.26-13.2-21.09-73.8-9-84.19-11.32-89.54C193,608.9,180,560.59,170.69,525.84h0l0-.1q-.81-3-1.59-5.94a25.33,25.33,0,0,1-4.81-2.83A151.06,151.06,0,0,1,139,527L111.14,596.5s-4.76,17.5-10.42,23.14a248.23,248.23,0,0,1-14,40.34c-9.58,21.42-13.8,50.86-13.8,50.86s6.87,17.4,7.67,28.26c8.08,11,15.34,24.64,5.71,28.66-6.41,2.67-13.89,3.67-20.93,3.67-11.6,0-22-2.71-24.42-5.13-3.9-3.89,7.17-33.33,7.17-33.33.34-2.68,1.09-5.26,2.65-6.36,3.84-2.67,8.44-9.17,8.44-9.17s-1.44-3.83,2.59-9,10-38.27,10-42.61-5.37-36.71,12.52-49.45c0,0,2-41.4,7.3-71.35h0c.57-3.4,1.19-6.64,1.86-9.66-5.49.45-8.79.51-8.79.51s5.31-14.77,12.1-33.76c-5.79-.56-2-9.52-2-9.52a47.15,47.15,0,0,0,6.8-4q1.1-3.09,2.22-6.23c-1.92-4.71,2.86-19.35,2.86-19.35L89.09,449.82,38,411.41s41-96.49,42.7-98.15c1.07-1.07,9-5.7,14.47-8.84,5.71-5.7,18-10.21,18-10.21s11.7-13.2,14.19-15.68,1.35-9.37,1.35-9.37l-6.41-24.53c-11.31-7.09-15.77-15-15.77-15a5.69,5.69,0,0,1-4.17,1.67c-3.72,0-7.47-2.81-7.47-2.81s-16.23-16.19-11.12-23.84A4.84,4.84,0,0,1,88,202.34c3.35,0,7.33,2.75,10.14,5.11-5.76-5-8.84-5.69-10.09-5.69l-.39,0-.1.07-.07,0-.12,0-.06-.12c-1.21-.6-6.63-3.58-7.11-8.61-9.17-2.87-7.4-8-7.4-8-8.82-6,0-15.62,0-15.62-3.93-3.92-.9-9.62-.9-9.62-4.6-6.5,1.16-14.53,1.16-14.53.63-7,11.18-11.16,11.18-11.16.83-3.5,5.18-5.16,5.18-5.16a7.67,7.67,0,0,1,7.08-4.36c.37,0,.59,0,.59,0,3.82-8.24,18.16-9,23.52-9,1.28,0,2,0,2,0a14.33,14.33,0,0,1,8.7-3.31M116.91,445.36c2.3-6.53,4.29-12.25,5.78-16.61-2.37-4.74,1.35-6.88,2.46-7.39.13-.43.24-.77.31-1,2.3-8.42-19.37-49.68-19.37-49.68L87.8,359.23,62.14,407.31l41,28.49,13.76,9.56M250.07,736h0M131.34,106.44h0a19.44,19.44,0,0,0-10.51,3.26h-.23c-7.71,0-20.68,1.3-27,9.29a13.36,13.36,0,0,0-8.46,5.5,15,15,0,0,0-5.51,5.25c-3.82,1.93-10.76,6.35-12.32,13.43-2.43,4-4.7,10.82-2,17.22a14.54,14.54,0,0,0,.28,8.91A17.62,17.62,0,0,0,63,180.05a13.39,13.39,0,0,0,3.84,7.89,11,11,0,0,0,1,3.11,14.71,14.71,0,0,0,7.36,6.57,15.85,15.85,0,0,0,3,4.68c-2.87,5.29-1.44,12.19,4.26,20.53a76.93,76.93,0,0,0,8.2,9.91l.29.3.34.25c.89.67,5.62,4,11.07,4a12.33,12.33,0,0,0,2.2-.19,59.47,59.47,0,0,0,12.52,11.26l5.74,22a13.73,13.73,0,0,1,0,4.24c-2.61,2.68-10.29,11.31-13.14,14.52-3.62,1.44-12.61,5.34-18.11,10.45-13.29,7.65-14.37,8.72-15.08,9.43-1.16,1.16-1.86,1.86-23.25,51.58C42.88,384.65,32.6,408.82,32.5,409.07l-1.84,4.32,3.75,2.82,51.07,38.41,14.23,10.69c-1.48,5.27-2.85,11.91-2.15,16.72l-1,2.74a49.66,49.66,0,0,1-4.36,2.42l-2.07,1-.9,2.11c-.8,1.9-3.22,8.49-.28,13.42a9.43,9.43,0,0,0,.56.84C83.51,521.34,79,533.86,79,533.86l-2.94,8.19,8.7-.16,1.28,0-.36,2.1-.16.77v.08c-4.44,25.78-6.54,58.88-7.09,68.57-15.92,13.89-13.63,41-12.85,50.23.08.91.16,1.94.17,2.25-.08,4.81-6,34.75-8.74,38.95a18,18,0,0,0-4.08,11,33.18,33.18,0,0,1-5.61,5.91c-2.7,1.89-4.36,5.1-5.08,9.8-.73,2-3,8.28-4.95,15-4,13.93-4.21,20.45-.6,24,4.53,4.51,17.85,6.88,28.66,6.88,8.72,0,16.76-1.43,23.24-4.14a12.75,12.75,0,0,0,7.76-8.5c1.9-6.82-1.26-15.71-10-27.89-1.13-9.64-5.67-22.33-7.32-26.72,1-6.18,5.19-30.06,13.11-47.75a258,258,0,0,0,14-39.92c5.62-6.88,9.65-20.5,10.65-24.1l26.62-66.56a158.86,158.86,0,0,0,20.39-8l.11.06.9,3.36,0,.08c20.09,75.06,23.12,84.79,23.9,86.85,0,.54-.22,1.62-.37,2.51-1.45,8.65-4.82,28.81,11.25,85.54-.61,3.9-1.65,8.56-2.37,9.87-2.59,4.64-4,8.62-4.2,12.14a18.49,18.49,0,0,0,.15,12c2.11,5.52,12.63,12.57,15.8,14.6,5.45,3.49,16.08,9.44,26,10.08.94.06,1.88.1,2.81.1,16,0,26.56-9.3,28-14.51a6.63,6.63,0,0,0,.17-2.77,7.29,7.29,0,0,0-1.42-8.57l-1.66-1.65-2.33-.1a23.31,23.31,0,0,1-4.65-.72,11.75,11.75,0,0,0-3.56-5.32c-2.2-1.83-5.74-3.09-8-3.76-6.94-5.54-15.21-12-17.45-13.8-2.47-3.19-5.23-6.84-6.43-8.57-.28-4.74-1.37-22.33-5.6-89,.66-2.72,1.66-9.11-.15-19.1-.91-5-1.35-25.95-1.21-57.66l5,1.59.18-8c.05-1.84,1-44.88-5-72.36a.37.37,0,0,0,0-.11l0-.54-.07-.54L209,418.14a11,11,0,0,0-.58-8.17,385.2,385.2,0,0,0,3-43.48c.08-7-.1-14.6-.54-23.1l49.34,39.79,4.07,3.28,3.81-3.58c24.22-22.78,53.36-48.38,61.15-52.74a31.45,31.45,0,0,0,8.2.78c12.17,0,32.62-2.8,33.49-2.92l2-.27,1.42-1.42,9-9,3.86-3.85-3.47-4.21-3.93-4.78-1-1.27-1.55-.56a61.5,61.5,0,0,0-14-3c-1.5-5.26-9.34-6.53-15.78-7.57a56.19,56.19,0,0,0-8.81-.74c-18.85,0-25.57,11.1-27.58,15.85l-46.29,39-60.55-56.05a32.61,32.61,0,0,0-6.53-9.16l-1.53-1.52-2.15-.2-11-1c-6.7-1-18.74-3.43-26.91-9.07a54.61,54.61,0,0,1-1.7-8q5.13.51,10.46.51c7.22,0,29.12,0,31.73-15,4.78-27.44-1-62.38-13.88-85.48,2.75-4.19,1.9-9.51-.6-13.94a8.9,8.9,0,0,0,0-1.46c-.32-3.64-3-6.95-5.73-9.41a14.09,14.09,0,0,0-.32-7.25c-1.58-5-5.82-9-12.61-11.82A25.41,25.41,0,0,0,141.9,110a17.75,17.75,0,0,0-10.56-3.56ZM70,405.43l20.12-37.71,11.45,7.15c1.59,3.09,5.49,10.78,9.26,19.09,7,15.46,8.5,21.71,8.79,24a10.52,10.52,0,0,0-3.25,10.91c-.71,2.08-1.54,4.45-2.46,7.11l-7.28-5.06L70,405.43ZM220.62,703.05Z"/><path class="cls-8" d="M199.33,293.72l65.32,60.46,51.55-43.47s4.33-16.95,30.35-12.74-2.35,7.26-2.35,7.26,18.4-1.53,31.06,3.06l3.93,4.78-9,9s-36.05,5-40.36,1.82-65.77,54.63-65.77,54.63l-60-48.35-11.77-10Z"/><path class="cls-8" d="M121.43,241.24l7.29,27.92s1.15,6.88-1.35,9.37-14.19,15.68-14.19,15.68L106.66,307l37.78,21.41,45.06-12-1.34-31.55s-23.08-1.47-36.53-11.54c-2.64-2-4.89-25-4.89-25Z"/><path class="cls-7" d="M148,258.46c-.71-5.14-1.29-10.33-1.29-10.33l-25.31-7.07,2,7.77s7.92,5.15,10.39,6.23A48.3,48.3,0,0,0,148,258.46Z"/><path class="cls-8" d="M100.43,301.43s-18.05,10.18-19.71,11.83S38,411.41,38,411.41l51.07,38.41L106.66,463s-5.56,17-2.3,20.27-9.58,9.3-9.58,9.3-5,11.73,5.11,9.18,23.78-9.31,23.78-9.31l6.77-37.73L103.15,435.8l-41-28.49L87.8,359.23l18.29,11.43,22.43-16.35-16.1-40-6.91-15Z"/><path class="cls-8" d="M106.54,229.64s14.64,26,58.35,26c18.09,0,24.8-4.21,25.82-10.06,6.41-36.79-7.22-83.32-26.14-97.52C148,135.61,89.15,182.73,89.15,182.73l12.53,28.05S88.9,197,83.78,204.66,94.9,228.5,94.9,228.5,102.19,234,106.54,229.64Z"/><path class="cls-8" d="M148.08,504.12,111.14,596.5s-4.76,17.5-10.42,23.14a248.23,248.23,0,0,1-14,40.34c-9.58,21.42-13.8,50.86-13.8,50.86s8.72,22.08,7.67,32c0,0,8.34,11.47,5,18.07s-16.49,2.67-16.49,2.67S47.13,766.48,43.87,761,48,741,48,741s-1.05-11.67,2.78-14.35,8.44-9.17,8.44-9.17-1.44-3.83,2.59-9,10-38.27,10-42.61-5.37-36.71,12.52-49.45c0,0,4.35-88,16.62-100.2s47.17-19.5,47.17-19.5Z"/><path class="cls-9" d="M148.08,504.12l-11.81,29.54s-16.34,7.27-20.48,8.28c-3.06.76-24.94,7.5-24.2,3.1,2.3-13.75,5.47-25,9.32-28.85,12.27-12.23,47.17-19.5,47.17-19.5Z"/><path class="cls-8" d="M161.25,490.45S192.18,607,194.48,612.31s-9.77,15.74,11.32,89.54c0,0-1.34,9.76-3.26,13.2s-6.33,12.23-.77,15.29S225.36,748.7,233,750s22.05-5.36,22.05-5.36,7.67-2.86,5.27-5.25c0,0-7-.29-9.3-2.59s-28.38-22.75-28.38-22.75-8-10.32-8-11-5.75-91.45-5.75-91.45,2.11-5.74,0-17.4-1.09-85.15-1.09-85.15Z"/><path class="cls-9" d="M161.25,490.45s7.28,27.31,9.44,35.38c.83,3.1,36.89,5.6,36.89,5.6l.2-22.37Z"/><path class="cls-10" d="M161.25,513.52c6,11.83,48,14.32,51.51,15.42,0,0,1.1-47.49-5.61-74.17S161.25,513.52,161.25,513.52Z"/><path class="cls-11" d="M110.12,219.19c7.41,3.06,1-10.2,1-10.2s-.7-13.29-4.48-15.55a54.11,54.11,0,0,1-8.23-6.71l70.74-48.36s7.16-9.94-9.2-16.06a19.49,19.49,0,0,0-19.81-5.86s-7.16-8.54-17.52-.7c0,0-20.83-1.21-25.56,9a7.8,7.8,0,0,0-7.67,4.34s-4.35,1.66-5.18,5.16c0,0-10.55,4.14-11.18,11.16,0,0-5.76,8-1.16,14.53,0,0-3,5.7.9,9.62,0,0-8.82,9.62,0,15.62,0,0-2.17,6.24,10.74,8.79l3.83,7.9s3.69-1.67,14.32,8.93Z"/><ellipse class="cls-12" cx="141.85" cy="193.41" rx="3.44" ry="4.69" transform="translate(-43.2 40.81) rotate(-14.23)"/><path class="cls-13" d="M137.42,188.35s.51-12,11.44-5.54"/><ellipse class="cls-12" cx="173.08" cy="185.86" rx="3.44" ry="4.69" transform="translate(-40.38 48.26) rotate(-14.23)"/><path class="cls-13" d="M169.43,180.38s3.2-11.62,12.4-2.85"/><path class="cls-14" d="M146.68,224.4c-.42-.44,25.32,1.61,35.15-5.61,0,0,1.94,19.54-6.84,21.67C166,242.66,155.53,239.06,146.68,224.4Z"/><g class="cls-15"><path class="cls-16" d="M145,227.48s24.09,6.85,34.79-3.83l-1.34-4.86-35.3,2.38Z"/><path class="cls-17" d="M149.23,236.27s7.74-7.46,20.07-2.48,0,14,0,14Z"/></g><path class="cls-18" d="M181.83,218.79c-10.93,6.87-35.15,5.61-35.15,5.61s12.57,22.88,30.25,15.21"/><path class="cls-7" d="M101.1,226.71S100.72,210,87.78,206"/><path class="cls-7" d="M87.8,359.23s11-14.79,9.6-12.54c-8.1,12.5,20.72,26.92,27.48,19.22,0,0-6.71,8.54-18.79,4.75Z"/><path class="cls-19" d="M113.18,294.21s-12.28,4.51-18,10.21c0,0,34.42,49.78,10.9,66.24,0,0,21.67,41.26,19.37,49.68s-40.8,115.55-40.8,115.55,118.88-2.1,123.12-79.61l-5.63-44.61a373.08,373.08,0,0,0,3.33-45.25c.24-21.77-2.15-46.79-3.9-63.87a27.56,27.56,0,0,0-8.06-17.33l-11.2-1s8.83,29.53-11.61,32.32C159.68,318,133.13,321.56,113.18,294.21Z"/><g class="cls-20"><path class="cls-21" d="M89.09,538.79S208,536.68,212.21,459.18Z"/></g><path class="cls-19" d="M113.18,294.21s-12.28,4.51-18,10.21c0,0,34.42,49.78,10.9,66.24,0,0,21.67,41.26,19.37,49.68s-40.8,115.55-40.8,115.55,118.88-2.1,123.12-79.61l-5.63-44.61a373.08,373.08,0,0,0,3.33-45.25c.24-21.77-2.15-46.79-3.9-63.87a27.56,27.56,0,0,0-8.06-17.33l-11.2-1s8.83,29.53-11.61,32.32C159.68,318,133.13,321.56,113.18,294.21Z"/><path class="cls-8" d="M89.09,449.82,106.66,463s-5.56,17-2.3,20.27-9.58,9.3-9.58,9.3-5,11.73,5.11,9.18,23.78-9.31,23.78-9.31l5.74-32s1.77-6.28-5.4-10.47c-5.54-3.25-20.86-14.21-20.86-14.21Z"/><path class="cls-22" d="M122.82,429s62.67,8.32,80.06-11.57c0,0,1.9-3.92-.73-5.77.38,3.68-29.44,19.69-76.69,9.56C125.46,421.23,119.75,423.27,122.82,429Z"/><ellipse class="cls-23" cx="174.88" cy="425.99" rx="14.62" ry="14.58"/><g class="cls-24"><path class="cls-25" d="M105.46,144s-6.27,7.59,1.68,12.65C109.93,158.41,98.9,167,98.9,167l-4.46,24.95s5.76-2.31,9.59-2.31l20.18,23.06-12.94,8.06L70,193,42.49,140,77.9,108l38.74-9-6.81,13.45s-16.44,10-10.16,17.23C95.74,132.43,95,143.25,105.46,144Z"/></g><path class="cls-26" d="M87.55,201.85s-7.41-3.31-7.41-9.43,28.89-64,89.23-54c0,0,9.33,6.51,6.13,9.69,0,0,5.76,7.13,1.15,10.95S149.68,157.23,87.55,201.85Z"/><path class="cls-27" d="M90.81,188.35s38.61-46.92,79.9-40.8C170.71,147.55,132.23,149.61,90.81,188.35Z"/><path class="cls-28" d="M177.47,435.63s-14.76,1.54-11.31-14.43"/><path class="cls-29" d="M172.48,416.23s14.77-1.45,11.23,14.5"/><path class="cls-30" d="M163.79,181.32c5.86,5.59,15,16.52,16,31.24,0,0-13.55,4.85-18.15,4.85"/><path class="cls-30" d="M344.2,305.23s-3.84,5.61-8.19,4.85"/><path class="cls-18" d="M351.35,307.69s6.78,7.74,4.86,13"/></g></svg>