<svg id="Camada_1" data-name="Camada 1" xmlns="http://www.w3.org/2000/svg" xmlns:xlink="http://www.w3.org/1999/xlink" viewBox="0 0 832.71 205.51"><defs><style>.cls-1{fill:none;}.cls-2{fill:#ffd478;}.cls-3{fill:#027e8f;}.cls-4{fill:#f9f9f9;}.cls-5{clip-path:url(#clip-path);}.cls-6{fill:#eac2a7;}.cls-7{fill:#c9a68f;}.cls-8{fill:#d6aa8b;}.cls-9{fill:#d6d6d6;}.cls-10{fill:#c99f4b;}.cls-11{fill:#6d5f56;}.cls-12{fill:#493e38;}.cls-13{clip-path:url(#clip-path-2);}.cls-14{fill:#fcfcfc;}.cls-15{fill:#d32222;}.cls-16{fill:#f4f4f4;}.cls-17{clip-path:url(#clip-path-3);}.cls-18{fill:#b7b7b7;}.cls-19{fill:#6d472e;}.cls-20{fill:#c99e32;}.cls-21{clip-path:url(#clip-path-4);}.cls-22{fill:#aa7e30;}.cls-23{fill:#fff;}.cls-24{fill:#ddd;}.cls-25{fill:#846829;}.cls-26{fill:#e8cd95;}.cls-27{fill:#eaa000;}</style><clipPath id="clip-path"><path class="cls-1" d="M127.71,189.17s-25.78,19.58-69,3.49S15.57,53,15.57,53s39.72-59,48.6-57.44,60.68,11.62,60.68,30.66,23,104.52,23,104.52,9.69,37.48,4.85,40.34"/></clipPath><clipPath id="clip-path-2"><path class="cls-1" d="M92.53,58.13c-.2-.21,12.25.78,17-2.72,0,0,.94,9.48-3.3,10.51S96.81,65.24,92.53,58.13Z"/></clipPath><clipPath id="clip-path-3"><path class="cls-1" d="M99.58,198.37c2.89,5.74,23.23,6.95,24.92,7.48,0,0,.53-23-2.72-36S99.58,198.37,99.58,198.37Z"/></clipPath><clipPath id="clip-path-4"><path class="cls-1" d="M74.85,55.6c3.58,1.49.49-4.94.49-4.94s-.34-6.45-2.16-7.54a25.94,25.94,0,0,1-4-3.26l9.16-6.28,25-17.18s3.47-4.82-4.45-7.79a9.4,9.4,0,0,0-9.58-2.84s-3.47-4.14-8.47-.34c0,0-10.08-.59-12.37,4.36a3.77,3.77,0,0,0-3.71,2.1s-2.1.8-2.5,2.5c0,0-5.1,2-5.41,5.41,0,0-2.79,3.9-.56,7.05,0,0-1.47,2.77.43,4.67,0,0-4.26,4.67,0,7.58,0,0-1,3,5.2,4.26l1.85,3.83s1.79-.81,6.93,4.33Z"/></clipPath></defs><title>info1</title><path class="cls-2" d="M131.74,67.66h691a10,10,0,0,1,10,10v81a10,10,0,0,1-10,10h-691a0,0,0,0,1,0,0v-101A0,0,0,0,1,131.74,67.66Z"/><path class="cls-3" d="M249.24,91.5v.78l-1.55.12v11.9h-1.13l-7.85-11h-.06v10.11l1.55.11v.78H236v-.78l1.55-.11v-11L236,92.28V91.5h2.68l7.85,11h.06V92.4L245,92.28V91.5h4.23Z"/><path class="cls-3" d="M257.88,104.3c-.07-.33-.13-.6-.16-.84a5.52,5.52,0,0,1-.05-.71,4.44,4.44,0,0,1-1.51,1.24,4.59,4.59,0,0,1-2.14.49,3.42,3.42,0,0,1-2.33-.72,2.46,2.46,0,0,1-.83-2,2.37,2.37,0,0,1,1.22-2.09,6.17,6.17,0,0,1,3.33-.78h2.26V97.69a2,2,0,0,0-.7-1.6,3,3,0,0,0-2-.58,5.45,5.45,0,0,0-1.56.21,3.62,3.62,0,0,0-1.18.59l-.1,1.27h-.94V95.75a6.11,6.11,0,0,1,1.7-.82,7,7,0,0,1,2.12-.32,4.36,4.36,0,0,1,2.73.8,2.72,2.72,0,0,1,1,2.29v4.68c0,.19,0,.38,0,.56a4.35,4.35,0,0,0,.06.52l1,.06v.78Zm-3.74-.75a4.4,4.4,0,0,0,2.18-.53,3.16,3.16,0,0,0,1.35-1.36V99.75h-2.28a4.62,4.62,0,0,0-2.48.59,1.76,1.76,0,0,0-.92,1.5,1.53,1.53,0,0,0,.57,1.24A2.46,2.46,0,0,0,254.14,103.55Z"/><path class="cls-3" d="M265.94,95.57v-.78h2.5l.14,1.47A3.7,3.7,0,0,1,269.91,95a4,4,0,0,1,1.91-.43A3.44,3.44,0,0,1,274.71,96a5.81,5.81,0,0,1,1,3.64v.18a5.18,5.18,0,0,1-1,3.41,3.51,3.51,0,0,1-2.88,1.27,4.46,4.46,0,0,1-1.89-.38,3.43,3.43,0,0,1-1.32-1.09v4l1.54.11V108h-4.22v-.78l1.55-.11V95.68Zm8.68,4.05a5.11,5.11,0,0,0-.78-3,2.6,2.6,0,0,0-2.28-1.15,3,3,0,0,0-2.94,1.82v4.57a2.84,2.84,0,0,0,1.12,1.23,3.46,3.46,0,0,0,1.84.45,2.64,2.64,0,0,0,2.26-1,4.5,4.5,0,0,0,.78-2.76Z"/><path class="cls-3" d="M284.7,104.3c-.08-.33-.13-.6-.17-.84a5.53,5.53,0,0,1,0-.71A4.48,4.48,0,0,1,283,104a4.56,4.56,0,0,1-2.14.49,3.44,3.44,0,0,1-2.33-.72,2.46,2.46,0,0,1-.83-2,2.36,2.36,0,0,1,1.23-2.09,6.11,6.11,0,0,1,3.32-.78h2.27V97.69a2,2,0,0,0-.71-1.6,3,3,0,0,0-2-.58,5.45,5.45,0,0,0-1.56.21,3.62,3.62,0,0,0-1.18.59l-.1,1.27H278V95.75a6.17,6.17,0,0,1,1.71-.82,6.9,6.9,0,0,1,2.11-.32,4.36,4.36,0,0,1,2.73.8,2.73,2.73,0,0,1,1,2.29v4.68c0,.19,0,.38,0,.56a4.35,4.35,0,0,0,.06.52l1,.06v.78Zm-3.74-.75a4.39,4.39,0,0,0,2.17-.53,3.18,3.18,0,0,0,1.36-1.36V99.75H282.2a4.56,4.56,0,0,0-2.47.59,1.75,1.75,0,0,0-.93,1.5,1.51,1.51,0,0,0,.58,1.24A2.44,2.44,0,0,0,281,103.55Zm1.92-12.39h1.4l0,0-2.37,2.28h-1Z"/><path class="cls-3" d="M288.38,99.62A5.81,5.81,0,0,1,289.43,96a3.47,3.47,0,0,1,2.91-1.37,3.91,3.91,0,0,1,1.89.44,3.78,3.78,0,0,1,1.32,1.26l.14-1.52h1v9.38a3.88,3.88,0,0,1-1.08,2.9,4.05,4.05,0,0,1-3,1.07A8.27,8.27,0,0,1,291,108a6,6,0,0,1-1.46-.46l.3-.88a6.82,6.82,0,0,0,1.3.42,6.51,6.51,0,0,0,1.42.15,2.89,2.89,0,0,0,2.21-.8,3.19,3.19,0,0,0,.74-2.23V103a3.48,3.48,0,0,1-1.32,1.12,4.25,4.25,0,0,1-1.87.39,3.54,3.54,0,0,1-2.9-1.27,5.26,5.26,0,0,1-1-3.41Zm1.14.18a4.52,4.52,0,0,0,.75,2.74,2.61,2.61,0,0,0,2.26,1,3.37,3.37,0,0,0,1.84-.47,3.15,3.15,0,0,0,1.14-1.28V97.41a3.42,3.42,0,0,0-1.1-1.36,3.05,3.05,0,0,0-1.87-.53,2.55,2.55,0,0,0-2.26,1.15,5.19,5.19,0,0,0-.76,3Z"/><path class="cls-3" d="M299.15,103.52l1.55-.11V95.68l-1.55-.11v-.78h2.68v8.62l1.54.11v.78h-4.22Zm2.68-11.46H300.7V90.58h1.13Z"/><path class="cls-3" d="M305.07,103.52l1.55-.11V95.68l-1.55-.11v-.78h2.56l.1,1.66a3.48,3.48,0,0,1,1.33-1.36,4,4,0,0,1,2-.48,3.31,3.31,0,0,1,2.55,1,4.23,4.23,0,0,1,.87,2.94v4.91l1.55.11v.78h-4.24v-.78l1.55-.11v-4.9a3.25,3.25,0,0,0-.66-2.31,2.49,2.49,0,0,0-1.87-.68,3.08,3.08,0,0,0-1.95.59,3.21,3.21,0,0,0-1.09,1.55v5.75l1.55.11v.78h-4.24Z"/><path class="cls-3" d="M324.89,104.3a7.5,7.5,0,0,1-.16-.84,5.52,5.52,0,0,1-.05-.71,4.38,4.38,0,0,1-1.52,1.24,4.52,4.52,0,0,1-2.13.49,3.45,3.45,0,0,1-2.34-.72,2.45,2.45,0,0,1-.82-2,2.37,2.37,0,0,1,1.22-2.09,6.13,6.13,0,0,1,3.32-.78h2.27V97.69a1.93,1.93,0,0,0-.71-1.6,3,3,0,0,0-2-.58,5.52,5.52,0,0,0-1.57.21,3.73,3.73,0,0,0-1.18.59l-.09,1.27h-.94V95.75a6,6,0,0,1,1.7-.82,7,7,0,0,1,2.11-.32,4.37,4.37,0,0,1,2.74.8,2.72,2.72,0,0,1,1,2.29v4.68c0,.19,0,.38,0,.56a4.34,4.34,0,0,0,.07.52l1,.06v.78Zm-3.74-.75a4.36,4.36,0,0,0,2.17-.53,3.18,3.18,0,0,0,1.36-1.36V99.75h-2.29a4.58,4.58,0,0,0-2.47.59,1.74,1.74,0,0,0-.92,1.5,1.53,1.53,0,0,0,.57,1.24A2.44,2.44,0,0,0,321.15,103.55Z"/><path class="cls-3" d="M340.7,97.72h-.93l-.13-1.34a2.9,2.9,0,0,0-1.08-.64,4.28,4.28,0,0,0-1.49-.23,3,3,0,0,0-1.87.49,1.47,1.47,0,0,0-.62,1.17,1.34,1.34,0,0,0,.54,1.09,5.43,5.43,0,0,0,2.14.75,7.39,7.39,0,0,1,2.74,1,2.06,2.06,0,0,1,.91,1.78,2.26,2.26,0,0,1-1,1.92,4.66,4.66,0,0,1-2.75.73,7,7,0,0,1-2.07-.29,5.38,5.38,0,0,1-1.62-.83v-1.92h.92l.16,1.35a2.69,2.69,0,0,0,1.16.61,5.34,5.34,0,0,0,1.45.19,3.27,3.27,0,0,0,1.95-.5,1.46,1.46,0,0,0,.71-1.21,1.5,1.5,0,0,0-.59-1.17,5.09,5.09,0,0,0-2.14-.82,7.39,7.39,0,0,1-2.72-1,2,2,0,0,1-.89-1.71,2.23,2.23,0,0,1,1-1.84,4.25,4.25,0,0,1,2.63-.75,6.4,6.4,0,0,1,2.06.32,4.22,4.22,0,0,1,1.52.87Z"/><path class="cls-3" d="M347.51,104.48a4.3,4.3,0,0,1-3.21-1.31A4.61,4.61,0,0,1,343,99.82v-.48A4.73,4.73,0,0,1,344.29,96a4.07,4.07,0,0,1,3.07-1.35,4,4,0,0,1,3,1.11,4,4,0,0,1,1.08,3v.9h-7.25v.25a4,4,0,0,0,.92,2.69,3.05,3.05,0,0,0,2.43,1.08,5.33,5.33,0,0,0,1.8-.27,3.53,3.53,0,0,0,1.28-.78l.49.72a4.28,4.28,0,0,1-1.47.89A6,6,0,0,1,347.51,104.48Zm-.15-9a2.82,2.82,0,0,0-2.12.89,3.71,3.71,0,0,0-1,2.24l0,0h6v-.26a2.9,2.9,0,0,0-.79-2.08A2.81,2.81,0,0,0,347.36,95.51Z"/><path class="cls-3" d="M353.49,99.62a5.87,5.87,0,0,1,1-3.64,3.47,3.47,0,0,1,2.91-1.37,4,4,0,0,1,1.9.44,3.78,3.78,0,0,1,1.32,1.26l.13-1.52h1v9.38a3.87,3.87,0,0,1-1.07,2.9,4.05,4.05,0,0,1-3,1.07,8.27,8.27,0,0,1-1.58-.17,6.2,6.2,0,0,1-1.47-.46l.31-.88a7,7,0,0,0,1.29.42,6.67,6.67,0,0,0,1.43.15,2.85,2.85,0,0,0,2.2-.8,3.15,3.15,0,0,0,.74-2.23V103a3.33,3.33,0,0,1-1.32,1.12,4.18,4.18,0,0,1-1.86.39,3.54,3.54,0,0,1-2.9-1.27,5.2,5.2,0,0,1-1-3.41Zm1.14.18a4.52,4.52,0,0,0,.75,2.74,2.59,2.59,0,0,0,2.25,1,3.41,3.41,0,0,0,1.85-.47,3.05,3.05,0,0,0,1.13-1.28V97.41a3.32,3.32,0,0,0-1.09-1.36,3.07,3.07,0,0,0-1.87-.53,2.55,2.55,0,0,0-2.26,1.15,5.19,5.19,0,0,0-.76,3Z"/><path class="cls-3" d="M371.88,102.73a3.28,3.28,0,0,1-1.32,1.29,4,4,0,0,1-2,.46,3.23,3.23,0,0,1-2.54-1,4.62,4.62,0,0,1-.92-3.16V95.68l-1.27-.11v-.78h2.4v5.52a3.91,3.91,0,0,0,.64,2.5,2.28,2.28,0,0,0,1.82.76,3.54,3.54,0,0,0,2.05-.53,2.81,2.81,0,0,0,1.08-1.46v-5.9l-1.46-.11v-.78H373v8.62l1.38.11v.78H372Z"/><path class="cls-3" d="M376,103.52l1.55-.11V95.68L376,95.57v-.78h2.68v8.62l1.55.11v.78H376Zm2.68-11.46H377.5V90.58h1.13Z"/><path class="cls-3" d="M381.87,103.52l1.55-.11V95.68l-1.55-.11v-.78h2.56l.1,1.66a3.5,3.5,0,0,1,1.34-1.36,3.92,3.92,0,0,1,2-.48,3.3,3.3,0,0,1,2.55,1,4.23,4.23,0,0,1,.87,2.94v4.91l1.55.11v.78h-4.24v-.78l1.55-.11v-4.9a3.25,3.25,0,0,0-.66-2.31,2.49,2.49,0,0,0-1.87-.68,3.08,3.08,0,0,0-2,.59,3.21,3.21,0,0,0-1.09,1.55v5.75l1.55.11v.78h-4.24Z"/><path class="cls-3" d="M397.21,92.35v2.44h2.26v.86h-2.26v6.19a1.91,1.91,0,0,0,.37,1.33,1.27,1.27,0,0,0,1,.39l.54,0,.6-.08.17.78a2.87,2.87,0,0,1-.69.18,5.66,5.66,0,0,1-.82.06,2.21,2.21,0,0,1-1.68-.63,2.8,2.8,0,0,1-.61-2V95.65H394.3v-.86h1.76V92.35Z"/><path class="cls-3" d="M406.09,104.48a4.3,4.3,0,0,1-3.21-1.31,4.61,4.61,0,0,1-1.27-3.35v-.48A4.73,4.73,0,0,1,402.87,96a4.06,4.06,0,0,1,3.06-1.35,4,4,0,0,1,3,1.11,4,4,0,0,1,1.09,3v.9h-7.25v.25a4,4,0,0,0,.92,2.69,3.05,3.05,0,0,0,2.43,1.08,5.33,5.33,0,0,0,1.8-.27,3.53,3.53,0,0,0,1.28-.78l.48.72a4.14,4.14,0,0,1-1.46.89A6,6,0,0,1,406.09,104.48Zm-.16-9a2.81,2.81,0,0,0-2.11.89,3.71,3.71,0,0,0-1,2.24l0,0h6v-.26a2.9,2.9,0,0,0-.79-2.08A2.83,2.83,0,0,0,405.93,95.51Z"/><path class="cls-3" d="M413.67,103.87a3.76,3.76,0,0,1-.36,1.59,3.83,3.83,0,0,1-1,1.31l-.67-.46a5,5,0,0,0,.66-1.15,3.68,3.68,0,0,0,.21-1.27v-1.25h1.13Z"/><path class="cls-3" d="M423.07,92.35v2.44h2.26v.86h-2.26v6.19a2,2,0,0,0,.37,1.33,1.27,1.27,0,0,0,1,.39l.54,0,.6-.08.17.78a2.87,2.87,0,0,1-.69.18,5.55,5.55,0,0,1-.82.06,2.21,2.21,0,0,1-1.68-.63,2.84,2.84,0,0,1-.6-2V95.65h-1.77v-.86h1.77V92.35Z"/><path class="cls-3" d="M432,104.48a4.3,4.3,0,0,1-3.21-1.31,4.61,4.61,0,0,1-1.27-3.35v-.48A4.7,4.7,0,0,1,428.74,96a4,4,0,0,1,3.06-1.35,4,4,0,0,1,3,1.11,4,4,0,0,1,1.08,3v.9H428.6v.25a4,4,0,0,0,.93,2.69,3,3,0,0,0,2.42,1.08,5.33,5.33,0,0,0,1.8-.27,3.53,3.53,0,0,0,1.28-.78l.49.72a4.23,4.23,0,0,1-1.46.89A6,6,0,0,1,432,104.48Zm-.15-9a2.78,2.78,0,0,0-2.11.89,3.67,3.67,0,0,0-1,2.24l0,0h6v-.26a2.9,2.9,0,0,0-.79-2.08A2.79,2.79,0,0,0,431.8,95.51Z"/><path class="cls-3" d="M437.67,103.52l1.55-.11V95.68l-1.55-.11v-.78h2.56l.1,1.66a3.48,3.48,0,0,1,1.33-1.36,4,4,0,0,1,2-.48,3.31,3.31,0,0,1,2.55,1,4.23,4.23,0,0,1,.87,2.94v4.91l1.55.11v.78h-4.24v-.78l1.55-.11v-4.9a3.25,3.25,0,0,0-.66-2.31,2.49,2.49,0,0,0-1.87-.68,3.08,3.08,0,0,0-1.95.59,3.21,3.21,0,0,0-1.09,1.55v5.75l1.55.11v.78h-4.24Z"/><path class="cls-3" d="M453,92.35v2.44h2.26v.86H453v6.19a1.91,1.91,0,0,0,.37,1.33,1.25,1.25,0,0,0,1,.39l.53,0,.61-.08.17.78a2.87,2.87,0,0,1-.69.18,5.76,5.76,0,0,1-.82.06,2.25,2.25,0,0,1-1.69-.63,2.84,2.84,0,0,1-.6-2V95.65H450.1v-.86h1.76V92.35Z"/><path class="cls-3" d="M461.88,104.48a4.27,4.27,0,0,1-3.2-1.31,4.62,4.62,0,0,1-1.28-3.35v-.48A4.74,4.74,0,0,1,458.67,96a4.06,4.06,0,0,1,3.06-1.35,4,4,0,0,1,3,1.11,4,4,0,0,1,1.08,3v.9h-7.25v.25a4,4,0,0,0,.93,2.69,3,3,0,0,0,2.42,1.08,5.35,5.35,0,0,0,1.81-.27,3.61,3.61,0,0,0,1.28-.78l.48.72a4.14,4.14,0,0,1-1.46.89A6,6,0,0,1,461.88,104.48Zm-.15-9a2.8,2.8,0,0,0-2.11.89,3.66,3.66,0,0,0-1,2.24l0,0h6v-.26a2.94,2.94,0,0,0-.79-2.08A2.83,2.83,0,0,0,461.73,95.51Z"/><path class="cls-3" d="M475.52,95.57l-1.28.09,2.56,6.25.34,1.12h.05l.36-1.12,2.53-6.25-1.28-.09v-.78h3.45v.78l-1,.08-3.63,8.65h-.91l-3.64-8.65-1-.08v-.78h3.45Z"/><path class="cls-3" d="M483.36,99.4A4.85,4.85,0,0,1,484.61,96a4.7,4.7,0,0,1,6.59,0,4.85,4.85,0,0,1,1.25,3.44v.29a4.9,4.9,0,0,1-1.24,3.45,4.73,4.73,0,0,1-6.6,0,4.86,4.86,0,0,1-1.25-3.45Zm1.14.29a4.32,4.32,0,0,0,.9,2.78,3,3,0,0,0,2.52,1.12,3,3,0,0,0,2.48-1.12,4.27,4.27,0,0,0,.91-2.78V99.4a4.32,4.32,0,0,0-.91-2.76,3.33,3.33,0,0,0-5,0,4.32,4.32,0,0,0-.9,2.76Z"/><path class="cls-3" d="M498.68,103.59a3.46,3.46,0,0,0,2-.59,1.92,1.92,0,0,0,.87-1.67h1l0,.06a2.52,2.52,0,0,1-1.13,2.2,4.48,4.48,0,0,1-2.75.89,4.05,4.05,0,0,1-3.24-1.33,5.08,5.08,0,0,1-1.14-3.42v-.37A5.05,5.05,0,0,1,495.44,96a4,4,0,0,1,3.23-1.34,5.63,5.63,0,0,1,2.17.41,4.25,4.25,0,0,1,1.61,1.13l.05,2.07h-1l-.18-1.68a3.3,3.3,0,0,0-1.14-.76,4.11,4.11,0,0,0-1.54-.27,2.8,2.8,0,0,0-2.44,1.09,4.58,4.58,0,0,0-.8,2.76v.37a4.63,4.63,0,0,0,.79,2.77A2.83,2.83,0,0,0,498.68,103.59Z"/><path class="cls-3" d="M509.21,104.48a4.3,4.3,0,0,1-3.21-1.31,4.61,4.61,0,0,1-1.27-3.35v-.48A4.73,4.73,0,0,1,506,96a4.06,4.06,0,0,1,3.06-1.35,4,4,0,0,1,3,1.11,4,4,0,0,1,1.08,3v.9h-7.25v.25a4,4,0,0,0,.92,2.69,3.05,3.05,0,0,0,2.43,1.08,5.33,5.33,0,0,0,1.8-.27,3.53,3.53,0,0,0,1.28-.78l.49.72a4.28,4.28,0,0,1-1.47.89A6,6,0,0,1,509.21,104.48Zm-.16-9a2.81,2.81,0,0,0-2.11.89,3.71,3.71,0,0,0-1,2.24l0,0h6v-.26a2.9,2.9,0,0,0-.79-2.08A2.83,2.83,0,0,0,509.05,95.51ZM511.74,93v.16h-1.06l-1.59-1.48-1.57,1.48h-1v-.19L508.63,91h.93Z"/><path class="cls-3" d="M519.62,95.57v-.78h2.55l.11,1.57a3.32,3.32,0,0,1,1.31-1.29,4,4,0,0,1,2-.46,3.45,3.45,0,0,1,2,.53,2.91,2.91,0,0,1,1.13,1.62A3.72,3.72,0,0,1,530,95.19a3.62,3.62,0,0,1,2.09-.58,3.24,3.24,0,0,1,2.54,1,4.61,4.61,0,0,1,.9,3.13v4.65l1.54.12v.78h-4.24v-.78l1.55-.12V98.73a3.66,3.66,0,0,0-.67-2.48,2.44,2.44,0,0,0-1.87-.73,2.64,2.64,0,0,0-2,.79,3.55,3.55,0,0,0-.89,2,.53.53,0,0,0,0,.13v5l1.55.11v.78h-4.24v-.78l1.55-.11V98.73a3.6,3.6,0,0,0-.68-2.46,2.38,2.38,0,0,0-1.86-.75,2.78,2.78,0,0,0-2.92,2.1v5.79l1.55.11v.78h-4.23v-.78l1.54-.11V95.68Z"/><path class="cls-3" d="M542.89,104.48a4.3,4.3,0,0,1-3.21-1.31,4.61,4.61,0,0,1-1.27-3.35v-.48A4.7,4.7,0,0,1,539.68,96a4,4,0,0,1,3.06-1.35,4,4,0,0,1,3,1.11,4,4,0,0,1,1.08,3v.9h-7.25v.25a4,4,0,0,0,.93,2.69,3,3,0,0,0,2.42,1.08,5.33,5.33,0,0,0,1.8-.27,3.66,3.66,0,0,0,1.29-.78l.48.72a4.23,4.23,0,0,1-1.46.89A6,6,0,0,1,542.89,104.48Zm-.15-9a2.78,2.78,0,0,0-2.11.89,3.6,3.6,0,0,0-1,2.24l0,0h6v-.26a2.9,2.9,0,0,0-.79-2.08A2.79,2.79,0,0,0,542.74,95.51Z"/><path class="cls-3" d="M556.27,97.72h-.93l-.13-1.34a2.75,2.75,0,0,0-1.08-.64,4.28,4.28,0,0,0-1.49-.23,3,3,0,0,0-1.87.49,1.47,1.47,0,0,0-.62,1.17,1.34,1.34,0,0,0,.54,1.09,5.5,5.5,0,0,0,2.14.75,7.39,7.39,0,0,1,2.74,1,2.06,2.06,0,0,1,.91,1.78,2.24,2.24,0,0,1-1,1.92,4.65,4.65,0,0,1-2.74.73,7.11,7.11,0,0,1-2.08-.29,5.38,5.38,0,0,1-1.62-.83v-1.92h.92l.16,1.35a2.69,2.69,0,0,0,1.16.61,5.36,5.36,0,0,0,1.46.19,3.26,3.26,0,0,0,1.94-.5,1.46,1.46,0,0,0,.71-1.21,1.5,1.5,0,0,0-.59-1.17,5.09,5.09,0,0,0-2.14-.82,7.39,7.39,0,0,1-2.72-1A2,2,0,0,1,549,97.2a2.23,2.23,0,0,1,1-1.84,4.25,4.25,0,0,1,2.63-.75,6.4,6.4,0,0,1,2.06.32,4.26,4.26,0,0,1,1.53.87Z"/><path class="cls-3" d="M558.3,95.57v-.78h2.56l.1,1.57a3.41,3.41,0,0,1,1.32-1.29,4,4,0,0,1,2-.46,3.45,3.45,0,0,1,2,.53,3,3,0,0,1,1.13,1.62,3.77,3.77,0,0,1,1.32-1.57,3.65,3.65,0,0,1,2.1-.58,3.24,3.24,0,0,1,2.54,1,4.66,4.66,0,0,1,.89,3.13v4.65l1.55.12v.78H571.5v-.78l1.54-.12V98.73a3.61,3.61,0,0,0-.67-2.48,2.4,2.4,0,0,0-1.86-.73,2.65,2.65,0,0,0-2,.79,3.61,3.61,0,0,0-.88,2v.13a.76.76,0,0,1,0,.16v4.82l1.54.11v.78H564.9v-.78l1.55-.11V98.73a3.6,3.6,0,0,0-.68-2.46,2.38,2.38,0,0,0-1.87-.75,3,3,0,0,0-1.92.57,3,3,0,0,0-1,1.53v5.79l1.55.11v.78H558.3v-.78l1.55-.11V95.68Z"/><path class="cls-3" d="M577.05,99.4A4.84,4.84,0,0,1,578.29,96a4.71,4.71,0,0,1,6.6,0,4.84,4.84,0,0,1,1.24,3.44v.29a4.89,4.89,0,0,1-1.23,3.45,4.75,4.75,0,0,1-6.61,0,4.85,4.85,0,0,1-1.24-3.45Zm1.14.29a4.32,4.32,0,0,0,.9,2.78,3,3,0,0,0,2.52,1.12,3,3,0,0,0,2.48-1.12,4.32,4.32,0,0,0,.9-2.78V99.4a4.32,4.32,0,0,0-.9-2.76,3.33,3.33,0,0,0-5,0,4.32,4.32,0,0,0-.9,2.76Z"/><path class="cls-3" d="M600.26,102.73a3.36,3.36,0,0,1-1.33,1.29,4,4,0,0,1-2,.46,3.26,3.26,0,0,1-2.54-1,4.62,4.62,0,0,1-.91-3.16V95.68l-1.27-.11v-.78h2.4v5.52a3.85,3.85,0,0,0,.64,2.5,2.27,2.27,0,0,0,1.82.76,3.56,3.56,0,0,0,2-.53,2.81,2.81,0,0,0,1.08-1.46v-5.9l-1.46-.11v-.78h2.6v8.62l1.37.11v.78h-2.37Z"/><path class="cls-3" d="M604.16,95.57v-.78h2.55l.1,1.57a3.41,3.41,0,0,1,1.32-1.29,4,4,0,0,1,2-.46,3.45,3.45,0,0,1,2,.53,3,3,0,0,1,1.13,1.62,3.72,3.72,0,0,1,1.33-1.57,3.62,3.62,0,0,1,2.09-.58,3.24,3.24,0,0,1,2.54,1,4.61,4.61,0,0,1,.9,3.13v4.65l1.54.12v.78h-4.24v-.78l1.55-.12V98.73a3.66,3.66,0,0,0-.67-2.48,2.44,2.44,0,0,0-1.87-.73,2.63,2.63,0,0,0-2,.79,3.55,3.55,0,0,0-.89,2v.13a.76.76,0,0,1,0,.16v4.82l1.55.11v.78h-4.24v-.78l1.55-.11V98.73a3.6,3.6,0,0,0-.68-2.46,2.38,2.38,0,0,0-1.86-.75,2.76,2.76,0,0,0-2.92,2.1v5.79l1.55.11v.78h-4.23v-.78l1.54-.11V95.68Z"/><path class="cls-3" d="M630.09,104.3a7.5,7.5,0,0,1-.16-.84,4.17,4.17,0,0,1,0-.71,4.48,4.48,0,0,1-1.52,1.24,4.53,4.53,0,0,1-2.14.49,3.44,3.44,0,0,1-2.33-.72,2.46,2.46,0,0,1-.83-2,2.36,2.36,0,0,1,1.23-2.09,6.11,6.11,0,0,1,3.32-.78h2.27V97.69a2,2,0,0,0-.71-1.6,3,3,0,0,0-2-.58,5.45,5.45,0,0,0-1.56.21,3.73,3.73,0,0,0-1.18.59l-.09,1.27h-1V95.75a6.17,6.17,0,0,1,1.71-.82,6.9,6.9,0,0,1,2.11-.32,4.36,4.36,0,0,1,2.73.8,2.73,2.73,0,0,1,1,2.29v4.68c0,.19,0,.38,0,.56a4.35,4.35,0,0,0,.06.52l1,.06v.78Zm-3.74-.75a4.36,4.36,0,0,0,2.17-.53,3.18,3.18,0,0,0,1.36-1.36V99.75h-2.29a4.58,4.58,0,0,0-2.47.59,1.75,1.75,0,0,0-.93,1.5,1.51,1.51,0,0,0,.58,1.24A2.44,2.44,0,0,0,626.35,103.55Z"/><path class="cls-3" d="M643,104.48a4.3,4.3,0,0,1-3.21-1.31,4.61,4.61,0,0,1-1.27-3.35v-.48A4.73,4.73,0,0,1,639.76,96a4.06,4.06,0,0,1,3.06-1.35,4,4,0,0,1,3,1.11,4,4,0,0,1,1.09,3v.9h-7.25v.25a4,4,0,0,0,.92,2.69,3.05,3.05,0,0,0,2.43,1.08,5.33,5.33,0,0,0,1.8-.27,3.53,3.53,0,0,0,1.28-.78l.48.72a4.14,4.14,0,0,1-1.46.89A6,6,0,0,1,643,104.48Zm-.16-9a2.8,2.8,0,0,0-2.11.89,3.71,3.71,0,0,0-1,2.24l0,0h6v-.26a2.9,2.9,0,0,0-.79-2.08A2.83,2.83,0,0,0,642.82,95.51Z"/><path class="cls-3" d="M656.36,97.72h-.93l-.13-1.34a2.9,2.9,0,0,0-1.08-.64,4.34,4.34,0,0,0-1.5-.23,2.93,2.93,0,0,0-1.86.49,1.44,1.44,0,0,0-.62,1.17,1.33,1.33,0,0,0,.53,1.09,5.5,5.5,0,0,0,2.14.75,7.45,7.45,0,0,1,2.75,1,2.09,2.09,0,0,1,.91,1.78,2.26,2.26,0,0,1-1,1.92,4.68,4.68,0,0,1-2.75.73,7,7,0,0,1-2.07-.29,5.16,5.16,0,0,1-1.62-.83v-1.92H650l.16,1.35a2.65,2.65,0,0,0,1.15.61,5.41,5.41,0,0,0,1.46.19,3.32,3.32,0,0,0,2-.5,1.46,1.46,0,0,0,.71-1.21,1.48,1.48,0,0,0-.6-1.17,5,5,0,0,0-2.14-.82,7.33,7.33,0,0,1-2.71-1,1.93,1.93,0,0,1-.89-1.71,2.25,2.25,0,0,1,1-1.84,4.27,4.27,0,0,1,2.63-.75,6.47,6.47,0,0,1,2.07.32,4.22,4.22,0,0,1,1.52.87Z"/><path class="cls-3" d="M661.25,92.35v2.44h2.26v.86h-2.26v6.19a2,2,0,0,0,.36,1.33,1.28,1.28,0,0,0,1,.39l.54,0c.17,0,.38,0,.6-.08l.17.78a2.87,2.87,0,0,1-.69.18,5.52,5.52,0,0,1-.81.06,2.22,2.22,0,0,1-1.69-.63,2.84,2.84,0,0,1-.6-2V95.65h-1.77v-.86h1.77V92.35Z"/><path class="cls-3" d="M668.05,94.79l.14,1.58v.11a3.54,3.54,0,0,1,1.19-1.37,3.21,3.21,0,0,1,1.79-.5,3,3,0,0,1,.43,0,2.09,2.09,0,0,1,.33.07l-.15,1-.84,0a2.69,2.69,0,0,0-1.76.56,3.05,3.05,0,0,0-1,1.53v5.68l1.55.11v.78h-4.22v-.78l1.54-.11V95.68l-1.54-.11v-.78h2.53Z"/><path class="cls-3" d="M680.49,104.3c-.07-.33-.13-.6-.16-.84a5.53,5.53,0,0,1,0-.71,4.48,4.48,0,0,1-1.52,1.24,4.59,4.59,0,0,1-2.14.49,3.44,3.44,0,0,1-2.33-.72,2.46,2.46,0,0,1-.83-2,2.36,2.36,0,0,1,1.23-2.09,6.11,6.11,0,0,1,3.32-.78h2.27V97.69a2,2,0,0,0-.71-1.6,3,3,0,0,0-2-.58,5.45,5.45,0,0,0-1.56.21,3.62,3.62,0,0,0-1.18.59l-.1,1.27h-.94V95.75a6,6,0,0,1,1.71-.82,6.9,6.9,0,0,1,2.11-.32,4.36,4.36,0,0,1,2.73.8,2.73,2.73,0,0,1,1,2.29v4.68c0,.19,0,.38,0,.56a4.35,4.35,0,0,0,.06.52l1,.06v.78Zm-3.73-.75a4.39,4.39,0,0,0,2.17-.53,3.18,3.18,0,0,0,1.36-1.36V99.75H678a4.56,4.56,0,0,0-2.47.59,1.75,1.75,0,0,0-.93,1.5,1.53,1.53,0,0,0,.57,1.24A2.47,2.47,0,0,0,676.76,103.55Z"/><path class="cls-3" d="M686.74,92.35v2.44H689v.86h-2.26v6.19a1.91,1.91,0,0,0,.37,1.33,1.25,1.25,0,0,0,1,.39l.53,0,.61-.08.17.78a2.87,2.87,0,0,1-.69.18,5.76,5.76,0,0,1-.82.06,2.25,2.25,0,0,1-1.69-.63,2.84,2.84,0,0,1-.6-2V95.65h-1.76v-.86h1.76V92.35Z"/><path class="cls-3" d="M695.61,104.48a4.27,4.27,0,0,1-3.2-1.31,4.62,4.62,0,0,1-1.28-3.35v-.48A4.74,4.74,0,0,1,692.4,96a4.06,4.06,0,0,1,3.06-1.35,4,4,0,0,1,3,1.11,4,4,0,0,1,1.08,3v.9h-7.25v.25a4,4,0,0,0,.93,2.69,3,3,0,0,0,2.42,1.08,5.35,5.35,0,0,0,1.81-.27,3.61,3.61,0,0,0,1.28-.78l.48.72a4.14,4.14,0,0,1-1.46.89A6,6,0,0,1,695.61,104.48Zm-.15-9a2.8,2.8,0,0,0-2.11.89,3.66,3.66,0,0,0-1,2.24l0,0h6v-.26a2.94,2.94,0,0,0-.79-2.08A2.83,2.83,0,0,0,695.46,95.51Zm1.07-4.35h1.4l0,0-2.37,2.28h-1Z"/><path class="cls-3" d="M701.59,99.62a5.81,5.81,0,0,1,1-3.64,3.47,3.47,0,0,1,2.91-1.37,3.88,3.88,0,0,1,1.89.44,3.73,3.73,0,0,1,1.33,1.26l.13-1.52h1v9.38a3.91,3.91,0,0,1-1.07,2.9,4.07,4.07,0,0,1-3,1.07,8.19,8.19,0,0,1-1.58-.17,6.2,6.2,0,0,1-1.47-.46l.3-.88a7.31,7.31,0,0,0,1.3.42,6.6,6.6,0,0,0,1.43.15,2.86,2.86,0,0,0,2.2-.8,3.19,3.19,0,0,0,.74-2.23V103a3.48,3.48,0,0,1-1.32,1.12,4.19,4.19,0,0,1-1.87.39,3.52,3.52,0,0,1-2.89-1.27,5.2,5.2,0,0,1-1-3.41Zm1.14.18a4.45,4.45,0,0,0,.76,2.74,2.59,2.59,0,0,0,2.25,1,3.41,3.41,0,0,0,1.85-.47,3.12,3.12,0,0,0,1.13-1.28V97.41a3.4,3.4,0,0,0-1.09-1.36,3.09,3.09,0,0,0-1.87-.53,2.54,2.54,0,0,0-2.26,1.15,5.19,5.19,0,0,0-.77,3Z"/><path class="cls-3" d="M712.36,103.52l1.55-.11V95.68l-1.55-.11v-.78H715v8.62l1.55.11v.78h-4.23ZM715,92.06h-1.13V90.58H715Z"/><path class="cls-3" d="M725.59,104.3a7.5,7.5,0,0,1-.16-.84,4.17,4.17,0,0,1,0-.71,4.48,4.48,0,0,1-1.52,1.24,4.56,4.56,0,0,1-2.14.49,3.44,3.44,0,0,1-2.33-.72,2.46,2.46,0,0,1-.83-2,2.36,2.36,0,0,1,1.23-2.09,6.11,6.11,0,0,1,3.32-.78h2.27V97.69a2,2,0,0,0-.71-1.6,3,3,0,0,0-2-.58,5.45,5.45,0,0,0-1.56.21,3.73,3.73,0,0,0-1.18.59l-.1,1.27h-.94V95.75a6.17,6.17,0,0,1,1.71-.82,6.9,6.9,0,0,1,2.11-.32,4.36,4.36,0,0,1,2.73.8,2.73,2.73,0,0,1,1,2.29v4.68c0,.19,0,.38,0,.56a4.35,4.35,0,0,0,.06.52l1,.06v.78Zm-3.74-.75A4.39,4.39,0,0,0,724,103a3.18,3.18,0,0,0,1.36-1.36V99.75h-2.29a4.58,4.58,0,0,0-2.47.59,1.75,1.75,0,0,0-.93,1.5,1.51,1.51,0,0,0,.58,1.24A2.44,2.44,0,0,0,721.85,103.55Z"/><path class="cls-3" d="M733.64,95.57v-.78h2.5l.14,1.47A3.65,3.65,0,0,1,737.62,95a4,4,0,0,1,1.9-.43A3.43,3.43,0,0,1,742.41,96a5.81,5.81,0,0,1,1.05,3.64v.18a5.19,5.19,0,0,1-1.05,3.41,3.49,3.49,0,0,1-2.87,1.27,4.54,4.54,0,0,1-1.9-.38,3.43,3.43,0,0,1-1.32-1.09v4l1.55.11V108h-4.23v-.78l1.55-.11V95.68Zm8.68,4.05a5.11,5.11,0,0,0-.78-3,2.6,2.6,0,0,0-2.28-1.15,3,3,0,0,0-2.94,1.82v4.57a2.81,2.81,0,0,0,1.13,1.23,3.45,3.45,0,0,0,1.83.45,2.66,2.66,0,0,0,2.27-1,4.56,4.56,0,0,0,.77-2.76Z"/><path class="cls-3" d="M752.4,104.3a7.5,7.5,0,0,1-.16-.84,5.52,5.52,0,0,1,0-.71,4.57,4.57,0,0,1-3.65,1.73,3.45,3.45,0,0,1-2.34-.72,2.45,2.45,0,0,1-.82-2,2.35,2.35,0,0,1,1.22-2.09,6.13,6.13,0,0,1,3.32-.78h2.27V97.69a2,2,0,0,0-.71-1.6,3,3,0,0,0-2-.58,5.45,5.45,0,0,0-1.56.21,3.73,3.73,0,0,0-1.18.59l-.09,1.27h-.94V95.75a6,6,0,0,1,1.7-.82,7,7,0,0,1,2.11-.32,4.34,4.34,0,0,1,2.73.8,2.73,2.73,0,0,1,1,2.29v4.68c0,.19,0,.38,0,.56a3,3,0,0,0,.07.52l1,.06v.78Zm-3.74-.75a4.36,4.36,0,0,0,2.17-.53,3.18,3.18,0,0,0,1.36-1.36V99.75H749.9a4.58,4.58,0,0,0-2.47.59,1.75,1.75,0,0,0-.93,1.5,1.54,1.54,0,0,0,.58,1.24A2.44,2.44,0,0,0,748.66,103.55Z"/><path class="cls-3" d="M758.49,94.79l.14,1.58v.11a3.54,3.54,0,0,1,1.19-1.37,3.21,3.21,0,0,1,1.79-.5,3,3,0,0,1,.43,0,2.09,2.09,0,0,1,.33.07l-.15,1-.84,0a2.69,2.69,0,0,0-1.76.56,3.05,3.05,0,0,0-1,1.53v5.68l1.55.11v.78H756v-.78l1.54-.11V95.68L756,95.57v-.78h2.53Z"/><path class="cls-3" d="M770.94,104.3c-.08-.33-.13-.6-.17-.84a5.53,5.53,0,0,1,0-.71,4.48,4.48,0,0,1-1.52,1.24,4.59,4.59,0,0,1-2.14.49,3.44,3.44,0,0,1-2.33-.72,2.46,2.46,0,0,1-.83-2,2.36,2.36,0,0,1,1.23-2.09,6.11,6.11,0,0,1,3.32-.78h2.27V97.69a2,2,0,0,0-.71-1.6,3,3,0,0,0-2-.58,5.45,5.45,0,0,0-1.56.21,3.62,3.62,0,0,0-1.18.59l-.1,1.27h-.94V95.75a6.17,6.17,0,0,1,1.71-.82,6.9,6.9,0,0,1,2.11-.32,4.36,4.36,0,0,1,2.73.8,2.73,2.73,0,0,1,1,2.29v4.68c0,.19,0,.38,0,.56a4.35,4.35,0,0,0,.06.52l1,.06v.78Zm-3.74-.75a4.39,4.39,0,0,0,2.17-.53,3.18,3.18,0,0,0,1.36-1.36V99.75h-2.29a4.56,4.56,0,0,0-2.47.59,1.75,1.75,0,0,0-.93,1.5,1.53,1.53,0,0,0,.57,1.24A2.49,2.49,0,0,0,767.2,103.55Z"/><path class="cls-3" d="M237.86,125.9a8,8,0,0,1-.16-.84,5.52,5.52,0,0,1,0-.71,4.38,4.38,0,0,1-1.52,1.24,4.52,4.52,0,0,1-2.13.49,3.45,3.45,0,0,1-2.34-.72,2.45,2.45,0,0,1-.82-2,2.37,2.37,0,0,1,1.22-2.09,6.16,6.16,0,0,1,3.32-.78h2.27v-1.25a2,2,0,0,0-.7-1.6,3.05,3.05,0,0,0-2-.58,5.57,5.57,0,0,0-1.57.21,3.73,3.73,0,0,0-1.18.59l-.09,1.27h-.94v-1.83a6,6,0,0,1,1.7-.82,7,7,0,0,1,2.11-.32,4.37,4.37,0,0,1,2.74.8,2.72,2.72,0,0,1,1,2.29V124c0,.19,0,.38,0,.56a4.35,4.35,0,0,0,.06.52l1,.06v.78Zm-3.74-.75a4.36,4.36,0,0,0,2.17-.53,3.18,3.18,0,0,0,1.36-1.36v-1.91h-2.29a4.58,4.58,0,0,0-2.47.59,1.76,1.76,0,0,0-.92,1.5,1.53,1.53,0,0,0,.57,1.24A2.44,2.44,0,0,0,234.12,125.15Z"/><path class="cls-3" d="M248.83,114v2.44h2.26v.86h-2.26v6.19a1.91,1.91,0,0,0,.37,1.33,1.27,1.27,0,0,0,1,.39l.54,0,.6-.08.17.78a2.87,2.87,0,0,1-.69.18,5.66,5.66,0,0,1-.82.06,2.21,2.21,0,0,1-1.68-.63,2.8,2.8,0,0,1-.61-2v-6.19h-1.76v-.86h1.76V114Z"/><path class="cls-3" d="M255.64,116.39l.14,1.58v.11a3.46,3.46,0,0,1,1.19-1.37,3.21,3.21,0,0,1,1.79-.5,2.77,2.77,0,0,1,.42,0,2,2,0,0,1,.34.07l-.15,1-.85-.05a2.67,2.67,0,0,0-1.76.56,3,3,0,0,0-1,1.53V125l1.55.11v.78H253.1v-.78l1.55-.11v-7.73l-1.55-.11v-.78h2.54Z"/><path class="cls-3" d="M268.08,125.9c-.07-.33-.13-.61-.16-.84a5.52,5.52,0,0,1-.05-.71,4.38,4.38,0,0,1-1.52,1.24,4.52,4.52,0,0,1-2.13.49,3.45,3.45,0,0,1-2.34-.72,2.45,2.45,0,0,1-.82-2,2.37,2.37,0,0,1,1.22-2.09,6.16,6.16,0,0,1,3.32-.78h2.27v-1.25a2,2,0,0,0-.7-1.6,3.05,3.05,0,0,0-2-.58,5.45,5.45,0,0,0-1.56.21,3.68,3.68,0,0,0-1.19.59l-.09,1.27h-.94v-1.83a6,6,0,0,1,1.7-.82,7,7,0,0,1,2.11-.32,4.37,4.37,0,0,1,2.74.8,2.72,2.72,0,0,1,1,2.29V124c0,.19,0,.38,0,.56a4.35,4.35,0,0,0,.06.52l1,.06v.78Zm-3.74-.75a4.43,4.43,0,0,0,2.18-.53,3.21,3.21,0,0,0,1.35-1.36v-1.91h-2.28a4.6,4.6,0,0,0-2.48.59,1.76,1.76,0,0,0-.92,1.5,1.53,1.53,0,0,0,.57,1.24A2.44,2.44,0,0,0,264.34,125.15Z"/><path class="cls-3" d="M274.55,117.17l-1.28.09,2.57,6.25.33,1.12h.05l.36-1.12,2.53-6.25-1.28-.09v-.78h3.45v.78l-1,.08-3.63,8.65h-.91l-3.63-8.65-1-.08v-.78h3.45Z"/><path class="cls-3" d="M286.94,126.08a4.3,4.3,0,0,1-3.21-1.31,4.61,4.61,0,0,1-1.27-3.35v-.48a4.74,4.74,0,0,1,1.27-3.39,4.06,4.06,0,0,1,3.06-1.34,4,4,0,0,1,3,1.11,4,4,0,0,1,1.08,3v.9h-7.25v.25a4,4,0,0,0,.93,2.69,3,3,0,0,0,2.42,1.08,5.33,5.33,0,0,0,1.8-.27,3.53,3.53,0,0,0,1.28-.78l.49.72a4.23,4.23,0,0,1-1.46.89A6,6,0,0,1,286.94,126.08Zm-.15-9a2.78,2.78,0,0,0-2.11.89,3.67,3.67,0,0,0-1,2.24l0,0h6V120a2.9,2.9,0,0,0-.79-2.08A2.76,2.76,0,0,0,286.79,117.11Z"/><path class="cls-3" d="M300.32,119.32h-.93l-.13-1.34a3.06,3.06,0,0,0-1.08-.65,4.54,4.54,0,0,0-1.49-.22,3,3,0,0,0-1.87.49,1.47,1.47,0,0,0-.62,1.17,1.34,1.34,0,0,0,.54,1.09,5.43,5.43,0,0,0,2.14.75,7.39,7.39,0,0,1,2.74,1,2.06,2.06,0,0,1,.91,1.78,2.26,2.26,0,0,1-1,1.92,4.66,4.66,0,0,1-2.75.73,7.09,7.09,0,0,1-2.07-.29,5.38,5.38,0,0,1-1.62-.83V123H294l.16,1.35a2.69,2.69,0,0,0,1.16.61,5.34,5.34,0,0,0,1.45.19,3.27,3.27,0,0,0,1.95-.5,1.46,1.46,0,0,0,.71-1.21,1.5,1.5,0,0,0-.59-1.17,5.09,5.09,0,0,0-2.14-.82,7.39,7.39,0,0,1-2.72-1,2,2,0,0,1-.89-1.71,2.23,2.23,0,0,1,1-1.84,4.25,4.25,0,0,1,2.63-.75,6.4,6.4,0,0,1,2.06.32,4.35,4.35,0,0,1,1.53.87Z"/><path class="cls-3" d="M310.05,119.32h-.93L309,118a3.06,3.06,0,0,0-1.08-.65,4.54,4.54,0,0,0-1.49-.22,3,3,0,0,0-1.87.49,1.47,1.47,0,0,0-.62,1.17,1.34,1.34,0,0,0,.54,1.09,5.43,5.43,0,0,0,2.14.75,7.39,7.39,0,0,1,2.74,1,2.06,2.06,0,0,1,.91,1.78,2.26,2.26,0,0,1-1,1.92,4.66,4.66,0,0,1-2.75.73,7,7,0,0,1-2.07-.29,5.38,5.38,0,0,1-1.62-.83V123h.92l.16,1.35A2.69,2.69,0,0,0,305,125a5.34,5.34,0,0,0,1.45.19,3.32,3.32,0,0,0,1.95-.5,1.46,1.46,0,0,0,.71-1.21,1.5,1.5,0,0,0-.59-1.17,5.09,5.09,0,0,0-2.14-.82,7.39,7.39,0,0,1-2.72-1,2,2,0,0,1-.89-1.71,2.23,2.23,0,0,1,1-1.84,4.25,4.25,0,0,1,2.63-.75,6.4,6.4,0,0,1,2.06.32,4.22,4.22,0,0,1,1.52.87Z"/><path class="cls-3" d="M312.25,125.12l1.55-.11v-7.73l-1.55-.11v-.78h2.68V125l1.55.11v.78h-4.23Zm2.68-11.46H313.8v-1.48h1.13Z"/><path class="cls-3" d="M325.47,125.9c-.07-.33-.13-.61-.16-.84a5.53,5.53,0,0,1,0-.71,4.48,4.48,0,0,1-1.52,1.24,4.59,4.59,0,0,1-2.14.49,3.44,3.44,0,0,1-2.33-.72,2.46,2.46,0,0,1-.83-2,2.36,2.36,0,0,1,1.23-2.09,6.11,6.11,0,0,1,3.32-.78h2.27v-1.25a2,2,0,0,0-.71-1.6,3,3,0,0,0-2-.58,5.45,5.45,0,0,0-1.56.21,3.62,3.62,0,0,0-1.18.59l-.1,1.27h-.94v-1.83a6,6,0,0,1,1.71-.82,6.9,6.9,0,0,1,2.11-.32,4.36,4.36,0,0,1,2.73.8,2.73,2.73,0,0,1,1,2.29V124c0,.19,0,.38,0,.56a4.35,4.35,0,0,0,.06.52l1,.06v.78Zm-3.73-.75a4.39,4.39,0,0,0,2.17-.53,3.24,3.24,0,0,0,1.36-1.36v-1.91H323a4.56,4.56,0,0,0-2.47.59,1.75,1.75,0,0,0-.93,1.5,1.53,1.53,0,0,0,.57,1.24A2.47,2.47,0,0,0,321.74,125.15Z"/><path class="cls-3" d="M341,124.52a3.43,3.43,0,0,1-1.32,1.16,4.15,4.15,0,0,1-1.89.4,3.53,3.53,0,0,1-2.89-1.27,5.25,5.25,0,0,1-1-3.41v-.18a5.87,5.87,0,0,1,1-3.64,3.45,3.45,0,0,1,2.9-1.37,3.87,3.87,0,0,1,1.86.42,3.48,3.48,0,0,1,1.31,1.19v-4.74L339.4,113v-.79h2.68V125l1.55.11v.78h-2.56Zm-6-3.12a4.55,4.55,0,0,0,.75,2.75,2.59,2.59,0,0,0,2.24,1,3.45,3.45,0,0,0,1.83-.46,3.09,3.09,0,0,0,1.14-1.26V119a3.26,3.26,0,0,0-1.09-1.32,3.15,3.15,0,0,0-1.86-.51,2.51,2.51,0,0,0-2.25,1.14,5.3,5.3,0,0,0-.76,3Z"/><path class="cls-3" d="M345.38,121a4.89,4.89,0,0,1,1.24-3.45,4.73,4.73,0,0,1,6.6,0,4.93,4.93,0,0,1,1.24,3.45v.29a4.85,4.85,0,0,1-1.24,3.45,4.27,4.27,0,0,1-3.29,1.34,4.31,4.31,0,0,1-3.31-1.34,4.85,4.85,0,0,1-1.24-3.45Zm1.14.29a4.32,4.32,0,0,0,.9,2.78,3.35,3.35,0,0,0,5,0,4.32,4.32,0,0,0,.9-2.78V121a4.27,4.27,0,0,0-.91-2.76,3.32,3.32,0,0,0-5,0,4.32,4.32,0,0,0-.9,2.76Z"/><path class="cls-3" d="M363.49,116.39l.15,1.58v.11a3.39,3.39,0,0,1,1.19-1.37,3.19,3.19,0,0,1,1.79-.5,3,3,0,0,1,.42,0,2,2,0,0,1,.34.07l-.15,1-.85-.05a2.65,2.65,0,0,0-1.76.56,3,3,0,0,0-1,1.53V125l1.54.11v.78H361v-.78l1.55-.11v-7.73l-1.55-.11v-.78h2.53Z"/><path class="cls-3" d="M368.77,125.12l1.55-.11v-7.73l-1.55-.11v-.78h2.68V125l1.55.11v.78h-4.23Zm2.68-11.46h-1.13v-1.48h1.13Z"/><path class="cls-3" d="M374.9,121a4.89,4.89,0,0,1,1.25-3.45,4.72,4.72,0,0,1,6.59,0A4.89,4.89,0,0,1,384,121v.29a4.9,4.9,0,0,1-1.24,3.45,4.73,4.73,0,0,1-6.6,0,4.86,4.86,0,0,1-1.25-3.45Zm1.14.29a4.32,4.32,0,0,0,.9,2.78,3.05,3.05,0,0,0,2.52,1.12,3,3,0,0,0,2.49-1.12,4.32,4.32,0,0,0,.9-2.78V121a4.27,4.27,0,0,0-.91-2.76,3.33,3.33,0,0,0-5,0A4.32,4.32,0,0,0,376,121Z"/><path class="cls-3" d="M387.49,125.47a3.76,3.76,0,0,1-.36,1.59,3.83,3.83,0,0,1-1,1.31l-.67-.46a5,5,0,0,0,.66-1.15,3.68,3.68,0,0,0,.21-1.27v-1.25h1.13Z"/><path class="cls-3" d="M401.42,124.52a3.43,3.43,0,0,1-1.32,1.16,4.16,4.16,0,0,1-1.9.4,3.53,3.53,0,0,1-2.88-1.27,5.26,5.26,0,0,1-1-3.41v-.18a5.87,5.87,0,0,1,1-3.64,3.45,3.45,0,0,1,2.9-1.37,3.87,3.87,0,0,1,1.86.42,3.48,3.48,0,0,1,1.31,1.19v-4.74l-1.54-.11v-.79h2.68V125l1.55.11v.78h-2.56Zm-6-3.12a4.55,4.55,0,0,0,.75,2.75,2.58,2.58,0,0,0,2.24,1,3.45,3.45,0,0,0,1.83-.46,3.09,3.09,0,0,0,1.14-1.26V119a3.26,3.26,0,0,0-1.09-1.32,3.15,3.15,0,0,0-1.86-.51,2.51,2.51,0,0,0-2.25,1.14,5.22,5.22,0,0,0-.76,3Z"/><path class="cls-3" d="M410.35,126.08a4.27,4.27,0,0,1-3.2-1.31,4.62,4.62,0,0,1-1.28-3.35v-.48a4.78,4.78,0,0,1,1.27-3.39,4.09,4.09,0,0,1,3.06-1.34,4,4,0,0,1,3,1.11,4,4,0,0,1,1.08,3v.9H407v.25a4,4,0,0,0,.93,2.69,3,3,0,0,0,2.42,1.08,5.35,5.35,0,0,0,1.81-.27,3.61,3.61,0,0,0,1.28-.78l.48.72a4.14,4.14,0,0,1-1.46.89A6,6,0,0,1,410.35,126.08Zm-.15-9a2.8,2.8,0,0,0-2.11.89,3.66,3.66,0,0,0-1,2.24l0,0h6V120a2.94,2.94,0,0,0-.78-2.08A2.8,2.8,0,0,0,410.2,117.11Z"/><path class="cls-3" d="M423.62,114v2.44h2.26v.86h-2.26v6.19a1.91,1.91,0,0,0,.37,1.33,1.25,1.25,0,0,0,1,.39l.54,0,.6-.08.17.78a2.87,2.87,0,0,1-.69.18,5.76,5.76,0,0,1-.82.06,2.21,2.21,0,0,1-1.68-.63,2.8,2.8,0,0,1-.61-2v-6.19h-1.76v-.86h1.76V114Z"/><path class="cls-3" d="M435.06,125.9a8,8,0,0,1-.16-.84,4.17,4.17,0,0,1,0-.71,4.57,4.57,0,0,1-3.65,1.73,3.45,3.45,0,0,1-2.34-.72,2.46,2.46,0,0,1-.83-2,2.36,2.36,0,0,1,1.23-2.09,6.11,6.11,0,0,1,3.32-.78h2.27v-1.25a2,2,0,0,0-.71-1.6,3,3,0,0,0-2-.58,5.45,5.45,0,0,0-1.56.21,3.73,3.73,0,0,0-1.18.59l-.09,1.27h-.94v-1.83a6,6,0,0,1,1.7-.82,6.9,6.9,0,0,1,2.11-.32,4.36,4.36,0,0,1,2.73.8,2.73,2.73,0,0,1,1,2.29V124c0,.19,0,.38,0,.56a4.35,4.35,0,0,0,.06.52l1,.06v.78Zm-3.74-.75a4.36,4.36,0,0,0,2.17-.53,3.18,3.18,0,0,0,1.36-1.36v-1.91h-2.29a4.58,4.58,0,0,0-2.47.59,1.75,1.75,0,0,0-.93,1.5,1.54,1.54,0,0,0,.58,1.24A2.44,2.44,0,0,0,431.32,125.15Z"/><path class="cls-3" d="M438.46,113v-.79h2.68V125l1.55.11v.78h-4.23v-.78L440,125V113.08Z"/><path class="cls-3" d="M449.05,117.25v-.86h1.7V115a3,3,0,0,1,.78-2.22,2.91,2.91,0,0,1,2.17-.78,4.4,4.4,0,0,1,.62,0,5.13,5.13,0,0,1,.66.13l-.14.87a3.55,3.55,0,0,0-.47-.09,4.5,4.5,0,0,0-.56,0,1.83,1.83,0,0,0-1.43.55,2.18,2.18,0,0,0-.49,1.53v1.39h2.44v.86h-2.44V125l1.54.11v.78H449.2v-.78l1.55-.11v-7.76Z"/><path class="cls-3" d="M456.09,121a4.89,4.89,0,0,1,1.24-3.45,4.73,4.73,0,0,1,6.6,0,4.89,4.89,0,0,1,1.24,3.45v.29a4.89,4.89,0,0,1-1.23,3.45,4.75,4.75,0,0,1-6.61,0,4.85,4.85,0,0,1-1.24-3.45Zm1.14.29a4.32,4.32,0,0,0,.9,2.78,3,3,0,0,0,2.52,1.12,3,3,0,0,0,2.48-1.12,4.32,4.32,0,0,0,.9-2.78V121a4.32,4.32,0,0,0-.9-2.76,3.33,3.33,0,0,0-5,0,4.32,4.32,0,0,0-.9,2.76Z"/><path class="cls-3" d="M469.48,116.39l.14,1.58v.11a3.49,3.49,0,0,1,1.2-1.37,3.16,3.16,0,0,1,1.79-.5,3,3,0,0,1,.42,0,1.87,1.87,0,0,1,.33.07l-.15,1-.84-.05a2.65,2.65,0,0,0-1.76.56,3.05,3.05,0,0,0-1,1.53V125l1.55.11v.78H467v-.78l1.54-.11v-7.73l-1.54-.11v-.78h2.53Z"/><path class="cls-3" d="M474.59,117.17v-.78h2.55l.11,1.57a3.34,3.34,0,0,1,1.32-1.29,3.92,3.92,0,0,1,2-.46,3.45,3.45,0,0,1,2,.53,2.91,2.91,0,0,1,1.13,1.62,3.79,3.79,0,0,1,1.33-1.57,3.62,3.62,0,0,1,2.09-.58,3.23,3.23,0,0,1,2.54,1,4.61,4.61,0,0,1,.9,3.13V125l1.54.12v.78h-4.24v-.78l1.55-.12v-4.67a3.61,3.61,0,0,0-.67-2.48,2.44,2.44,0,0,0-1.87-.73,2.61,2.61,0,0,0-2,.79,3.62,3.62,0,0,0-.89,2,.53.53,0,0,0,0,.13v5l1.55.11v.78h-4.23v-.78l1.54-.11v-4.68a3.55,3.55,0,0,0-.68-2.46,2.38,2.38,0,0,0-1.86-.75,3,3,0,0,0-1.92.57,2.89,2.89,0,0,0-1,1.53V125l1.54.11v.78h-4.23v-.78l1.55-.11v-7.73Z"/><path class="cls-3" d="M500.52,125.9a8,8,0,0,1-.16-.84,5.52,5.52,0,0,1-.05-.71,4.57,4.57,0,0,1-3.65,1.73,3.45,3.45,0,0,1-2.34-.72,2.45,2.45,0,0,1-.82-2,2.35,2.35,0,0,1,1.22-2.09,6.13,6.13,0,0,1,3.32-.78h2.27v-1.25a2,2,0,0,0-.71-1.6,3,3,0,0,0-2-.58,5.45,5.45,0,0,0-1.56.21,3.73,3.73,0,0,0-1.18.59l-.09,1.27h-.94v-1.83a6,6,0,0,1,1.7-.82,7,7,0,0,1,2.11-.32,4.34,4.34,0,0,1,2.73.8,2.73,2.73,0,0,1,1,2.29V124c0,.19,0,.38,0,.56a3,3,0,0,0,.07.52l1,.06v.78Zm-3.74-.75a4.36,4.36,0,0,0,2.17-.53,3.18,3.18,0,0,0,1.36-1.36v-1.91H498a4.58,4.58,0,0,0-2.47.59,1.75,1.75,0,0,0-.93,1.5,1.54,1.54,0,0,0,.58,1.24A2.44,2.44,0,0,0,496.78,125.15Z"/><path class="cls-3" d="M508.88,121.22a5.87,5.87,0,0,1,1-3.64,3.44,3.44,0,0,1,2.9-1.37,3.93,3.93,0,0,1,1.84.41,3.5,3.5,0,0,1,1.31,1.17l.11-1.4h1v12.27l1.55.11v.78h-4.24v-.78l1.55-.11v-4a3.48,3.48,0,0,1-1.31,1.06,4.18,4.18,0,0,1-1.83.37,3.5,3.5,0,0,1-2.88-1.27,5.26,5.26,0,0,1-1-3.41Zm1.15.18a4.68,4.68,0,0,0,.74,2.76,2.59,2.59,0,0,0,2.25,1,3.44,3.44,0,0,0,1.79-.44,3.09,3.09,0,0,0,1.13-1.22v-4.64a3.41,3.41,0,0,0-1.1-1.28,3,3,0,0,0-1.8-.5,2.54,2.54,0,0,0-2.26,1.14,5.36,5.36,0,0,0-.75,3Z"/><path class="cls-3" d="M527.28,124.33a3.28,3.28,0,0,1-1.32,1.29,4,4,0,0,1-2,.46,3.24,3.24,0,0,1-2.54-1,4.62,4.62,0,0,1-.91-3.16v-4.62l-1.28-.11v-.78h2.41v5.52a3.85,3.85,0,0,0,.64,2.5,2.25,2.25,0,0,0,1.81.76,3.59,3.59,0,0,0,2.06-.53,2.81,2.81,0,0,0,1.08-1.46v-5.9l-1.47-.11v-.78h2.61V125l1.37.11v.78h-2.37Z"/><path class="cls-3" d="M536,126.08a4.3,4.3,0,0,1-3.21-1.31,4.61,4.61,0,0,1-1.27-3.35v-.48a4.74,4.74,0,0,1,1.27-3.39,4.06,4.06,0,0,1,3.06-1.34,4,4,0,0,1,3,1.11,4,4,0,0,1,1.08,3v.9h-7.25v.25a4,4,0,0,0,.92,2.69,3.05,3.05,0,0,0,2.43,1.08,5.33,5.33,0,0,0,1.8-.27,3.53,3.53,0,0,0,1.28-.78l.49.72a4.33,4.33,0,0,1-1.46.89A6,6,0,0,1,536,126.08Zm-.15-9a2.78,2.78,0,0,0-2.11.89,3.67,3.67,0,0,0-1,2.24l0,0h6V120a2.9,2.9,0,0,0-.79-2.08A2.76,2.76,0,0,0,535.81,117.11Z"/><path class="cls-3" d="M553.71,125.9a8,8,0,0,1-.16-.84,4.17,4.17,0,0,1,0-.71,4.48,4.48,0,0,1-1.52,1.24,4.53,4.53,0,0,1-2.14.49,3.44,3.44,0,0,1-2.33-.72,2.46,2.46,0,0,1-.83-2,2.36,2.36,0,0,1,1.23-2.09,6.11,6.11,0,0,1,3.32-.78h2.27v-1.25a2,2,0,0,0-.71-1.6,3,3,0,0,0-2-.58,5.45,5.45,0,0,0-1.56.21,3.73,3.73,0,0,0-1.18.59l-.09,1.27h-1v-1.83a6.17,6.17,0,0,1,1.71-.82,6.9,6.9,0,0,1,2.11-.32,4.36,4.36,0,0,1,2.73.8,2.73,2.73,0,0,1,1,2.29V124c0,.19,0,.38,0,.56a4.35,4.35,0,0,0,.06.52l1,.06v.78Zm-3.74-.75a4.36,4.36,0,0,0,2.17-.53,3.18,3.18,0,0,0,1.36-1.36v-1.91h-2.29a4.58,4.58,0,0,0-2.47.59,1.75,1.75,0,0,0-.93,1.5,1.51,1.51,0,0,0,.58,1.24A2.44,2.44,0,0,0,550,125.15Z"/><path class="cls-3" d="M564.79,119.32h-.93l-.13-1.34a2.89,2.89,0,0,0-1.08-.65,4.54,4.54,0,0,0-1.49-.22,3,3,0,0,0-1.87.49,1.47,1.47,0,0,0-.62,1.17,1.34,1.34,0,0,0,.54,1.09,5.5,5.5,0,0,0,2.14.75,7.39,7.39,0,0,1,2.74,1,2.06,2.06,0,0,1,.91,1.78,2.26,2.26,0,0,1-1,1.92,4.66,4.66,0,0,1-2.75.73,7.09,7.09,0,0,1-2.07-.29,5.38,5.38,0,0,1-1.62-.83V123h.92l.16,1.35a2.69,2.69,0,0,0,1.16.61,5.34,5.34,0,0,0,1.45.19,3.27,3.27,0,0,0,1.95-.5,1.46,1.46,0,0,0,.71-1.21,1.5,1.5,0,0,0-.59-1.17,5.09,5.09,0,0,0-2.14-.82,7.39,7.39,0,0,1-2.72-1,2,2,0,0,1-.89-1.71,2.23,2.23,0,0,1,1-1.84,4.25,4.25,0,0,1,2.63-.75,6.4,6.4,0,0,1,2.06.32,4.26,4.26,0,0,1,1.53.87Z"/><path class="cls-3" d="M574.26,116.39l.14,1.58v.11a3.46,3.46,0,0,1,1.19-1.37,3.19,3.19,0,0,1,1.79-.5,3,3,0,0,1,.42,0,2,2,0,0,1,.34.07l-.15,1-.85-.05a2.67,2.67,0,0,0-1.76.56,3,3,0,0,0-1,1.53V125l1.55.11v.78h-4.23v-.78l1.55-.11v-7.73l-1.55-.11v-.78h2.54Z"/><path class="cls-3" d="M584,126.08a4.29,4.29,0,0,1-3.21-1.31,4.61,4.61,0,0,1-1.27-3.35v-.48a4.77,4.77,0,0,1,1.26-3.39,4.09,4.09,0,0,1,3.06-1.34,4,4,0,0,1,3,1.11,4,4,0,0,1,1.09,3v.9h-7.25v.25a4,4,0,0,0,.92,2.69,3.05,3.05,0,0,0,2.43,1.08,5.33,5.33,0,0,0,1.8-.27,3.53,3.53,0,0,0,1.28-.78l.48.72a4.14,4.14,0,0,1-1.46.89A6,6,0,0,1,584,126.08Zm-.16-9a2.8,2.8,0,0,0-2.11.89,3.71,3.71,0,0,0-1,2.24l0,0h6V120a2.94,2.94,0,0,0-.79-2.08A2.8,2.8,0,0,0,583.8,117.11Z"/><path class="cls-3" d="M597.34,119.32h-.93l-.13-1.34a3.06,3.06,0,0,0-1.08-.65,4.6,4.6,0,0,0-1.5-.22,2.93,2.93,0,0,0-1.86.49,1.44,1.44,0,0,0-.62,1.17,1.33,1.33,0,0,0,.53,1.09,5.5,5.5,0,0,0,2.14.75,7.45,7.45,0,0,1,2.75,1,2.09,2.09,0,0,1,.91,1.78,2.26,2.26,0,0,1-1,1.92,4.68,4.68,0,0,1-2.75.73,7,7,0,0,1-2.07-.29,5.16,5.16,0,0,1-1.62-.83V123H591l.16,1.35a2.65,2.65,0,0,0,1.15.61,5.41,5.41,0,0,0,1.46.19,3.26,3.26,0,0,0,1.94-.5,1.45,1.45,0,0,0,.72-1.21,1.48,1.48,0,0,0-.6-1.17,5,5,0,0,0-2.14-.82,7.46,7.46,0,0,1-2.72-1,1.94,1.94,0,0,1-.88-1.71,2.25,2.25,0,0,1,1-1.84,4.27,4.27,0,0,1,2.63-.75,6.47,6.47,0,0,1,2.07.32,4.22,4.22,0,0,1,1.52.87Z"/><path class="cls-3" d="M602.23,114v2.44h2.26v.86h-2.26v6.19a2,2,0,0,0,.36,1.33,1.27,1.27,0,0,0,1,.39l.54,0c.17,0,.38,0,.6-.08l.17.78a2.87,2.87,0,0,1-.69.18,5.55,5.55,0,0,1-.82.06,2.21,2.21,0,0,1-1.68-.63,2.84,2.84,0,0,1-.6-2v-6.19h-1.77v-.86h1.77V114Z"/><path class="cls-3" d="M609,116.39l.14,1.58v.11a3.46,3.46,0,0,1,1.19-1.37,3.21,3.21,0,0,1,1.79-.5,3,3,0,0,1,.43,0,2.09,2.09,0,0,1,.33.07l-.15,1-.84-.05a2.64,2.64,0,0,0-1.76.56,3.05,3.05,0,0,0-1,1.53V125l1.55.11v.78H606.5v-.78L608,125v-7.73l-1.54-.11v-.78H609Z"/><path class="cls-3" d="M614.31,125.12l1.55-.11v-7.73l-1.55-.11v-.78H617V125l1.54.11v.78h-4.22ZM617,113.66h-1.13v-1.48H617Z"/><path class="cls-3" d="M624.82,125.19a3.42,3.42,0,0,0,2-.6,1.91,1.91,0,0,0,.86-1.66h1l0,.06a2.53,2.53,0,0,1-1.14,2.2,4.46,4.46,0,0,1-2.75.89,4,4,0,0,1-3.23-1.33,5,5,0,0,1-1.15-3.42V121a5,5,0,0,1,1.15-3.41,4,4,0,0,1,3.23-1.34,5.67,5.67,0,0,1,2.17.41,4.21,4.21,0,0,1,1.6,1.13l0,2.07h-1l-.18-1.69a3.38,3.38,0,0,0-1.13-.75,4.18,4.18,0,0,0-1.54-.27,2.81,2.81,0,0,0-2.45,1.09,4.57,4.57,0,0,0-.79,2.76v.37a4.56,4.56,0,0,0,.79,2.77A2.8,2.8,0,0,0,624.82,125.19Zm.3.78-.11.57a2.35,2.35,0,0,1,1.21.42,1.26,1.26,0,0,1,.47,1.08,1.46,1.46,0,0,1-.75,1.28,4,4,0,0,1-2.15.48l-.07-.69a3.38,3.38,0,0,0,1.43-.27.84.84,0,0,0,.59-.78.71.71,0,0,0-.39-.7,4.1,4.1,0,0,0-1.38-.27l.27-1.12Z"/><path class="cls-3" d="M630.82,121a4.89,4.89,0,0,1,1.25-3.45,4.72,4.72,0,0,1,6.59,0,4.89,4.89,0,0,1,1.25,3.45v.29a4.9,4.9,0,0,1-1.24,3.45,4.73,4.73,0,0,1-6.6,0,4.86,4.86,0,0,1-1.25-3.45Zm1.14.29a4.32,4.32,0,0,0,.9,2.78,3.05,3.05,0,0,0,2.52,1.12,3,3,0,0,0,2.49-1.12,4.32,4.32,0,0,0,.9-2.78V121a4.27,4.27,0,0,0-.91-2.76,3.33,3.33,0,0,0-5,0A4.32,4.32,0,0,0,632,121Zm6.68-8.56a1.7,1.7,0,0,1-.52,1.28,1.79,1.79,0,0,1-1.3.51,2.6,2.6,0,0,1-1.43-.48,2.41,2.41,0,0,0-1.24-.48,1,1,0,0,0-.75.3,1.06,1.06,0,0,0-.31.79l-.75-.16a1.76,1.76,0,0,1,1.81-1.79,2.72,2.72,0,0,1,1.4.49,2.62,2.62,0,0,0,1.27.48,1,1,0,0,0,.75-.32,1.08,1.08,0,0,0,.32-.8Z"/><path class="cls-3" d="M646.28,126.08a4.27,4.27,0,0,1-3.2-1.31,4.62,4.62,0,0,1-1.28-3.35v-.48a4.78,4.78,0,0,1,1.27-3.39,4.09,4.09,0,0,1,3.06-1.34,4,4,0,0,1,3,1.11,4.05,4.05,0,0,1,1.09,3v.9h-7.26v.25a4,4,0,0,0,.93,2.69,3,3,0,0,0,2.42,1.08,5.35,5.35,0,0,0,1.81-.27,3.61,3.61,0,0,0,1.28-.78l.48.72a4.14,4.14,0,0,1-1.46.89A6,6,0,0,1,646.28,126.08Zm-.15-9A2.8,2.8,0,0,0,644,118a3.66,3.66,0,0,0-1,2.24l0,0h6V120a2.94,2.94,0,0,0-.79-2.08A2.8,2.8,0,0,0,646.13,117.11Z"/><path class="cls-3" d="M659.67,119.32h-.93L658.6,118a2.92,2.92,0,0,0-1.07-.65,4.64,4.64,0,0,0-1.5-.22,2.93,2.93,0,0,0-1.86.49,1.46,1.46,0,0,0-.63,1.17,1.34,1.34,0,0,0,.54,1.09,5.5,5.5,0,0,0,2.14.75,7.32,7.32,0,0,1,2.74,1,2.07,2.07,0,0,1,.92,1.78,2.26,2.26,0,0,1-1,1.92,4.68,4.68,0,0,1-2.75.73,7.16,7.16,0,0,1-2.08-.29,5.21,5.21,0,0,1-1.61-.83V123h.92l.16,1.35a2.65,2.65,0,0,0,1.15.61,5.41,5.41,0,0,0,1.46.19,3.26,3.26,0,0,0,1.94-.5,1.45,1.45,0,0,0,.72-1.21,1.48,1.48,0,0,0-.6-1.17,5,5,0,0,0-2.14-.82,7.46,7.46,0,0,1-2.72-1,1.94,1.94,0,0,1-.88-1.71,2.25,2.25,0,0,1,1-1.84,4.27,4.27,0,0,1,2.63-.75,6.51,6.51,0,0,1,2.07.32,4.22,4.22,0,0,1,1.52.87Z"/><path class="cls-3" d="M673.81,124.52a3.43,3.43,0,0,1-1.32,1.16,4.19,4.19,0,0,1-1.9.4,3.5,3.5,0,0,1-2.88-1.27,5.26,5.26,0,0,1-1-3.41v-.18a5.87,5.87,0,0,1,1-3.64,3.44,3.44,0,0,1,2.9-1.37,3.9,3.9,0,0,1,1.86.42,3.55,3.55,0,0,1,1.31,1.19v-4.74l-1.55-.11v-.79h2.69V125l1.55.11v.78H673.9Zm-6-3.12a4.55,4.55,0,0,0,.75,2.75,2.58,2.58,0,0,0,2.24,1,3.45,3.45,0,0,0,1.83-.46,3.09,3.09,0,0,0,1.14-1.26V119a3.29,3.29,0,0,0-1.1-1.32,3.09,3.09,0,0,0-1.85-.51,2.54,2.54,0,0,0-2.26,1.14,5.3,5.3,0,0,0-.75,3Z"/><path class="cls-3" d="M678.21,121a4.89,4.89,0,0,1,1.25-3.45,4.72,4.72,0,0,1,6.59,0A4.89,4.89,0,0,1,687.3,121v.29a4.9,4.9,0,0,1-1.24,3.45,4.73,4.73,0,0,1-6.6,0,4.86,4.86,0,0,1-1.25-3.45Zm1.14.29a4.32,4.32,0,0,0,.9,2.78,3,3,0,0,0,2.52,1.12,3,3,0,0,0,2.48-1.12,4.27,4.27,0,0,0,.91-2.78V121a4.32,4.32,0,0,0-.91-2.76,3.33,3.33,0,0,0-5,0,4.32,4.32,0,0,0-.9,2.76Z"/><path class="cls-3" d="M693.57,117.17v-.78h2.5l.14,1.47a3.61,3.61,0,0,1,1.33-1.22,4,4,0,0,1,1.9-.43,3.45,3.45,0,0,1,2.9,1.37,5.87,5.87,0,0,1,1,3.64v.18a5.24,5.24,0,0,1-1,3.41,3.53,3.53,0,0,1-2.88,1.27,4.46,4.46,0,0,1-1.89-.38,3.54,3.54,0,0,1-1.33-1.09v4l1.55.11v.78h-4.22v-.78l1.55-.11V117.28Zm8.67,4a5.19,5.19,0,0,0-.77-3,2.57,2.57,0,0,0-2.28-1.15,3.16,3.16,0,0,0-1.87.51,3.21,3.21,0,0,0-1.08,1.31v4.57a2.87,2.87,0,0,0,1.13,1.23,3.46,3.46,0,0,0,1.84.45,2.65,2.65,0,0,0,2.26-1,4.49,4.49,0,0,0,.77-2.76Z"/><path class="cls-3" d="M707.69,116.39l.14,1.58v.11a3.49,3.49,0,0,1,1.2-1.37,3.16,3.16,0,0,1,1.79-.5,3,3,0,0,1,.42,0,1.87,1.87,0,0,1,.33.07l-.15,1-.84-.05a2.65,2.65,0,0,0-1.76.56,3.05,3.05,0,0,0-1,1.53V125l1.55.11v.78h-4.22v-.78l1.54-.11v-7.73l-1.54-.11v-.78h2.53Z"/><path class="cls-3" d="M712.86,121a4.89,4.89,0,0,1,1.24-3.45,4.73,4.73,0,0,1,6.6,0,4.93,4.93,0,0,1,1.24,3.45v.29a4.85,4.85,0,0,1-1.24,3.45,4.73,4.73,0,0,1-6.6,0,4.85,4.85,0,0,1-1.24-3.45Zm1.13.29a4.32,4.32,0,0,0,.91,2.78,3.35,3.35,0,0,0,5,0,4.32,4.32,0,0,0,.9-2.78V121a4.27,4.27,0,0,0-.91-2.76,3.32,3.32,0,0,0-5,0A4.32,4.32,0,0,0,714,121Z"/><path class="cls-3" d="M732.62,121.4a5.19,5.19,0,0,1-1,3.41,3.49,3.49,0,0,1-2.87,1.27,4.19,4.19,0,0,1-2-.42,3.46,3.46,0,0,1-1.32-1.2l-.12,1.44h-1V113.08l-1.55-.11v-.79h2.68v5.7a3.5,3.5,0,0,1,1.31-1.23,3.79,3.79,0,0,1,1.9-.44,3.43,3.43,0,0,1,2.89,1.37,5.81,5.81,0,0,1,1,3.64Zm-1.15-.18a5.3,5.3,0,0,0-.76-3,2.52,2.52,0,0,0-2.24-1.14,3.13,3.13,0,0,0-1.92.55,3.18,3.18,0,0,0-1.08,1.4v4.29a3,3,0,0,0,1.13,1.32,3.49,3.49,0,0,0,1.89.49,2.6,2.6,0,0,0,2.23-1,4.55,4.55,0,0,0,.75-2.75Z"/><path class="cls-3" d="M734.22,113v-.79h2.68V125l1.54.11v.78h-4.22v-.78l1.55-.11V113.08Z"/><path class="cls-3" d="M744.77,126.08a4.3,4.3,0,0,1-3.21-1.31,4.61,4.61,0,0,1-1.27-3.35v-.48a4.77,4.77,0,0,1,1.26-3.39,4.09,4.09,0,0,1,3.06-1.34,4,4,0,0,1,3,1.11,4,4,0,0,1,1.09,3v.9h-7.25v.25a4,4,0,0,0,.92,2.69,3.05,3.05,0,0,0,2.43,1.08,5.33,5.33,0,0,0,1.8-.27,3.53,3.53,0,0,0,1.28-.78l.48.72a4.14,4.14,0,0,1-1.46.89A6,6,0,0,1,744.77,126.08Zm-.16-9a2.8,2.8,0,0,0-2.11.89,3.71,3.71,0,0,0-1,2.24l0,0h6V120a2.9,2.9,0,0,0-.79-2.08A2.8,2.8,0,0,0,744.61,117.11Z"/><path class="cls-3" d="M750.45,117.17v-.78H753l.11,1.57a3.41,3.41,0,0,1,1.32-1.29,3.92,3.92,0,0,1,2-.46,3.49,3.49,0,0,1,2,.53,3,3,0,0,1,1.13,1.62,3.77,3.77,0,0,1,1.32-1.57,3.62,3.62,0,0,1,2.09-.58,3.23,3.23,0,0,1,2.54,1,4.61,4.61,0,0,1,.9,3.13V125l1.55.12v.78h-4.25v-.78l1.55-.12v-4.67a3.61,3.61,0,0,0-.67-2.48,2.42,2.42,0,0,0-1.86-.73,2.62,2.62,0,0,0-2,.79,3.62,3.62,0,0,0-.89,2s0,.09,0,.13v5l1.55.11v.78h-4.23v-.78l1.54-.11v-4.68a3.6,3.6,0,0,0-.67-2.46,2.41,2.41,0,0,0-1.87-.75,3,3,0,0,0-1.92.57,3,3,0,0,0-1,1.53V125l1.54.11v.78h-4.23v-.78L752,125v-7.73Z"/><path class="cls-3" d="M776.38,125.9c-.07-.33-.13-.61-.16-.84a5.52,5.52,0,0,1-.05-.71,4.38,4.38,0,0,1-1.52,1.24,4.52,4.52,0,0,1-2.13.49,3.45,3.45,0,0,1-2.34-.72,2.45,2.45,0,0,1-.82-2,2.37,2.37,0,0,1,1.22-2.09,6.16,6.16,0,0,1,3.32-.78h2.27v-1.25a2,2,0,0,0-.7-1.6,3.05,3.05,0,0,0-2-.58,5.45,5.45,0,0,0-1.56.21,3.68,3.68,0,0,0-1.19.59l-.09,1.27h-.94v-1.83a6,6,0,0,1,1.7-.82,7,7,0,0,1,2.11-.32,4.37,4.37,0,0,1,2.74.8,2.72,2.72,0,0,1,1,2.29V124c0,.19,0,.38,0,.56a4.35,4.35,0,0,0,.06.52l1,.06v.78Zm-3.74-.75a4.43,4.43,0,0,0,2.18-.53,3.21,3.21,0,0,0,1.35-1.36v-1.91h-2.28a4.6,4.6,0,0,0-2.48.59,1.76,1.76,0,0,0-.92,1.5,1.53,1.53,0,0,0,.57,1.24A2.44,2.44,0,0,0,772.64,125.15Z"/><path class="cls-3" d="M428.16,140.92h-.92l-.14-1.34a2.78,2.78,0,0,0-1.07-.64,4.38,4.38,0,0,0-1.5-.23,3,3,0,0,0-1.87.49,1.49,1.49,0,0,0-.62,1.17,1.34,1.34,0,0,0,.54,1.09,5.34,5.34,0,0,0,2.14.75,7.32,7.32,0,0,1,2.74,1,2.06,2.06,0,0,1,.91,1.78,2.24,2.24,0,0,1-1,1.92,4.63,4.63,0,0,1-2.74.73,7.16,7.16,0,0,1-2.08-.29,5.38,5.38,0,0,1-1.62-.83v-1.92h.93L422,146a2.59,2.59,0,0,0,1.15.61,5.36,5.36,0,0,0,1.46.19,3.26,3.26,0,0,0,1.94-.5,1.44,1.44,0,0,0,.71-1.21,1.47,1.47,0,0,0-.59-1.17,5,5,0,0,0-2.14-.82,7.39,7.39,0,0,1-2.72-1,2,2,0,0,1-.89-1.71,2.26,2.26,0,0,1,1-1.84,4.27,4.27,0,0,1,2.63-.75,6.4,6.4,0,0,1,2.06.32,4.18,4.18,0,0,1,1.53.87Z"/><path class="cls-3" d="M435,147.68a4.3,4.3,0,0,1-3.21-1.31,4.61,4.61,0,0,1-1.27-3.35v-.48a4.7,4.7,0,0,1,1.27-3.38,4,4,0,0,1,3.06-1.35,4,4,0,0,1,3,1.11,4,4,0,0,1,1.08,3v.9h-7.25V143a4,4,0,0,0,.93,2.69,3,3,0,0,0,2.42,1.08,5.33,5.33,0,0,0,1.8-.27,3.53,3.53,0,0,0,1.28-.78l.49.72a4.23,4.23,0,0,1-1.46.89A6,6,0,0,1,435,147.68Zm-.15-9a2.78,2.78,0,0,0-2.11.89,3.67,3.67,0,0,0-1,2.24l0,0h6v-.26a2.9,2.9,0,0,0-.79-2.08A2.79,2.79,0,0,0,434.82,138.71Z"/><path class="cls-3" d="M443.8,148.28a3.17,3.17,0,0,1-.76,2.26,2.8,2.8,0,0,1-2.12.8,3.12,3.12,0,0,1-.55-.05c-.16,0-.34-.07-.51-.12l.12-.89.4.09a2.88,2.88,0,0,0,.47,0,1.67,1.67,0,0,0,1.33-.54,2.32,2.32,0,0,0,.48-1.59v-9.4l-1.55-.11V138h2.69Zm-.06-13.05H442.6v-1.44h1.14Z"/><path class="cls-3" d="M453.33,147.5c-.08-.33-.13-.6-.17-.84a5.53,5.53,0,0,1,0-.71,4.48,4.48,0,0,1-1.52,1.24,4.56,4.56,0,0,1-2.14.49,3.44,3.44,0,0,1-2.33-.72,2.46,2.46,0,0,1-.83-2,2.36,2.36,0,0,1,1.23-2.09,6.11,6.11,0,0,1,3.32-.78h2.27v-1.25a2,2,0,0,0-.71-1.6,3,3,0,0,0-2-.58,5.45,5.45,0,0,0-1.56.21,3.62,3.62,0,0,0-1.18.59l-.1,1.27h-.94V139a6.17,6.17,0,0,1,1.71-.82,6.9,6.9,0,0,1,2.11-.32,4.36,4.36,0,0,1,2.73.8,2.73,2.73,0,0,1,1,2.29v4.68c0,.19,0,.38,0,.56a4.35,4.35,0,0,0,.06.52l1,.06v.78Zm-3.74-.75a4.39,4.39,0,0,0,2.17-.53,3.18,3.18,0,0,0,1.36-1.36V143h-2.29a4.56,4.56,0,0,0-2.47.59,1.75,1.75,0,0,0-.93,1.5,1.51,1.51,0,0,0,.58,1.24A2.44,2.44,0,0,0,449.59,146.75Z"/><path class="cls-3" d="M456.71,138.77V138h2.56l.1,1.57a3.41,3.41,0,0,1,1.32-1.29,4,4,0,0,1,2-.46,3.49,3.49,0,0,1,2,.53,3,3,0,0,1,1.13,1.62,3.77,3.77,0,0,1,1.32-1.57,3.65,3.65,0,0,1,2.1-.58,3.2,3.2,0,0,1,2.53,1,4.62,4.62,0,0,1,.9,3.13v4.65l1.55.12v.78h-4.24v-.78l1.54-.12v-4.67a3.61,3.61,0,0,0-.67-2.48,2.4,2.4,0,0,0-1.86-.73,2.65,2.65,0,0,0-2.05.79,3.61,3.61,0,0,0-.88,2v.13s0,.1,0,.16v4.82l1.54.11v.78h-4.23v-.78l1.55-.11v-4.68a3.6,3.6,0,0,0-.68-2.46,2.4,2.4,0,0,0-1.87-.75,3,3,0,0,0-1.92.57,3,3,0,0,0-1,1.53v5.79l1.55.11v.78h-4.24v-.78l1.55-.11v-7.73Z"/><path class="cls-3" d="M482.74,138l.14,1.58v.11a3.46,3.46,0,0,1,1.19-1.37,3.21,3.21,0,0,1,1.79-.5,2.77,2.77,0,0,1,.42,0,2,2,0,0,1,.34.07l-.15,1-.85,0a2.73,2.73,0,0,0-1.76.56,3,3,0,0,0-1,1.53v5.68l1.55.11v.78H480.2v-.78l1.55-.11v-7.73l-1.55-.11V138h2.54Z"/><path class="cls-3" d="M492.44,147.68a4.3,4.3,0,0,1-3.21-1.31A4.61,4.61,0,0,1,488,143v-.48a4.7,4.7,0,0,1,1.27-3.38,4,4,0,0,1,3.06-1.35,4,4,0,0,1,3,1.11,4,4,0,0,1,1.08,3v.9h-7.25V143a4,4,0,0,0,.92,2.69,3.05,3.05,0,0,0,2.43,1.08,5.33,5.33,0,0,0,1.8-.27,3.53,3.53,0,0,0,1.28-.78l.49.72a4.33,4.33,0,0,1-1.46.89A6,6,0,0,1,492.44,147.68Zm-.15-9a2.78,2.78,0,0,0-2.11.89,3.67,3.67,0,0,0-1,2.24l0,0h6v-.26a2.9,2.9,0,0,0-.79-2.08A2.79,2.79,0,0,0,492.29,138.71Z"/><path class="cls-3" d="M505.82,140.92h-.93l-.13-1.34a2.9,2.9,0,0,0-1.08-.64,4.28,4.28,0,0,0-1.49-.23,3,3,0,0,0-1.87.49,1.49,1.49,0,0,0-.62,1.17,1.34,1.34,0,0,0,.54,1.09,5.27,5.27,0,0,0,2.14.75,7.39,7.39,0,0,1,2.74,1A2.06,2.06,0,0,1,506,145a2.26,2.26,0,0,1-1,1.92,4.66,4.66,0,0,1-2.75.73,7,7,0,0,1-2.07-.29,5.38,5.38,0,0,1-1.62-.83v-1.92h.92l.16,1.35a2.69,2.69,0,0,0,1.16.61,5.34,5.34,0,0,0,1.45.19,3.3,3.3,0,0,0,1.95-.5,1.46,1.46,0,0,0,.71-1.21,1.5,1.5,0,0,0-.59-1.17,5.09,5.09,0,0,0-2.14-.82,7.39,7.39,0,0,1-2.72-1,2,2,0,0,1-.89-1.71,2.23,2.23,0,0,1,1-1.84,4.25,4.25,0,0,1,2.63-.75,6.4,6.4,0,0,1,2.06.32,4.22,4.22,0,0,1,1.52.87Z"/><path class="cls-3" d="M507.8,138.77V138h2.49l.14,1.47a3.73,3.73,0,0,1,1.34-1.22,4,4,0,0,1,1.9-.43,3.46,3.46,0,0,1,2.9,1.37,5.87,5.87,0,0,1,1,3.64V143a5.24,5.24,0,0,1-1,3.41,3.53,3.53,0,0,1-2.88,1.27,4.46,4.46,0,0,1-1.89-.38,3.39,3.39,0,0,1-1.33-1.09v4l1.55.11v.78H507.8v-.78l1.54-.11V138.88Zm8.67,4a5.11,5.11,0,0,0-.78-2.95,2.6,2.6,0,0,0-2.28-1.15,3,3,0,0,0-2.94,1.82v4.57a2.87,2.87,0,0,0,1.13,1.23,3.45,3.45,0,0,0,1.83.45,2.66,2.66,0,0,0,2.27-1,4.56,4.56,0,0,0,.77-2.76Z"/><path class="cls-3" d="M524,147.68a4.3,4.3,0,0,1-3.21-1.31,4.61,4.61,0,0,1-1.27-3.35v-.48a4.7,4.7,0,0,1,1.27-3.38,4,4,0,0,1,3.06-1.35,4,4,0,0,1,3,1.11,4,4,0,0,1,1.08,3v.9h-7.25V143a4,4,0,0,0,.92,2.69,3.05,3.05,0,0,0,2.43,1.08,5.33,5.33,0,0,0,1.8-.27,3.53,3.53,0,0,0,1.28-.78l.49.72a4.28,4.28,0,0,1-1.47.89A6,6,0,0,1,524,147.68Zm-.15-9a2.82,2.82,0,0,0-2.12.89,3.71,3.71,0,0,0-1,2.24l0,0h6v-.26a2.9,2.9,0,0,0-.79-2.08A2.81,2.81,0,0,0,523.84,138.71Z"/><path class="cls-3" d="M529.84,146.72l1.55-.11v-7.73l-1.55-.11V138h2.68v8.62l1.55.11v.78h-4.23Zm2.68-11.46h-1.13v-1.47h1.13Z"/><path class="cls-3" d="M538.58,135.55V138h2.26v.86h-2.26V145a1.94,1.94,0,0,0,.37,1.33,1.27,1.27,0,0,0,1,.39l.54,0,.6-.08.17.78a2.87,2.87,0,0,1-.69.18,5.55,5.55,0,0,1-.82.06,2.21,2.21,0,0,1-1.68-.63,2.84,2.84,0,0,1-.6-2v-6.19h-1.77V138h1.77v-2.44Z"/><path class="cls-3" d="M550,147.5c-.07-.33-.13-.6-.16-.84a5.52,5.52,0,0,1-.05-.71,4.38,4.38,0,0,1-1.52,1.24,4.52,4.52,0,0,1-2.13.49,3.45,3.45,0,0,1-2.34-.72,2.45,2.45,0,0,1-.82-2,2.37,2.37,0,0,1,1.22-2.09,6.16,6.16,0,0,1,3.32-.78h2.27v-1.25a2,2,0,0,0-.7-1.6,3,3,0,0,0-2-.58,5.45,5.45,0,0,0-1.56.21,3.68,3.68,0,0,0-1.19.59l-.09,1.27h-.94V139a6,6,0,0,1,1.7-.82,7,7,0,0,1,2.11-.32,4.37,4.37,0,0,1,2.74.8,2.72,2.72,0,0,1,1,2.29v4.68c0,.19,0,.38,0,.56a4.35,4.35,0,0,0,.06.52l1,.06v.78Zm-3.74-.75a4.4,4.4,0,0,0,2.18-.53,3.21,3.21,0,0,0,1.35-1.36V143h-2.28a4.6,4.6,0,0,0-2.48.59,1.76,1.76,0,0,0-.92,1.5,1.53,1.53,0,0,0,.57,1.24A2.44,2.44,0,0,0,546.28,146.75Z"/><path class="cls-3" d="M560.79,146.13a3.49,3.49,0,0,1-1.32,1.15,4.15,4.15,0,0,1-1.89.4,3.5,3.5,0,0,1-2.88-1.27,5.2,5.2,0,0,1-1-3.41v-.18a5.81,5.81,0,0,1,1-3.64,3.44,3.44,0,0,1,2.9-1.37,3.93,3.93,0,0,1,1.86.42,3.63,3.63,0,0,1,1.31,1.19v-4.74l-1.55-.11v-.78h2.68v12.82l1.55.11v.78h-2.56Zm-6-3.13a4.55,4.55,0,0,0,.74,2.75,2.59,2.59,0,0,0,2.24,1,3.45,3.45,0,0,0,1.83-.46,3.19,3.19,0,0,0,1.15-1.26v-4.5a3.37,3.37,0,0,0-1.1-1.32,3.15,3.15,0,0,0-1.86-.51,2.51,2.51,0,0,0-2.25,1.14,5.3,5.3,0,0,0-.75,3Z"/><path class="cls-3" d="M572.29,147.5a7.5,7.5,0,0,1-.16-.84,4.17,4.17,0,0,1,0-.71,4.48,4.48,0,0,1-1.52,1.24,4.53,4.53,0,0,1-2.14.49,3.44,3.44,0,0,1-2.33-.72,2.46,2.46,0,0,1-.83-2,2.36,2.36,0,0,1,1.23-2.09,6.11,6.11,0,0,1,3.32-.78h2.27v-1.25a2,2,0,0,0-.71-1.6,3,3,0,0,0-2-.58,5.45,5.45,0,0,0-1.56.21,3.73,3.73,0,0,0-1.18.59l-.09,1.27h-.95V139a6.17,6.17,0,0,1,1.71-.82,6.9,6.9,0,0,1,2.11-.32,4.36,4.36,0,0,1,2.73.8,2.73,2.73,0,0,1,1,2.29v4.68c0,.19,0,.38,0,.56a4.35,4.35,0,0,0,.06.52l1,.06v.78Zm-3.74-.75a4.36,4.36,0,0,0,2.17-.53,3.18,3.18,0,0,0,1.36-1.36V143h-2.29a4.58,4.58,0,0,0-2.47.59,1.75,1.75,0,0,0-.93,1.5,1.51,1.51,0,0,0,.58,1.24A2.44,2.44,0,0,0,568.55,146.75Z"/><path class="cls-3" d="M583.37,140.92h-.93l-.13-1.34a2.75,2.75,0,0,0-1.08-.64,4.28,4.28,0,0,0-1.49-.23,3,3,0,0,0-1.87.49,1.49,1.49,0,0,0-.62,1.17,1.34,1.34,0,0,0,.54,1.09,5.34,5.34,0,0,0,2.14.75,7.39,7.39,0,0,1,2.74,1,2.06,2.06,0,0,1,.91,1.78,2.24,2.24,0,0,1-1,1.92,4.66,4.66,0,0,1-2.75.73,7.09,7.09,0,0,1-2.07-.29,5.38,5.38,0,0,1-1.62-.83v-1.92H577l.16,1.35a2.69,2.69,0,0,0,1.16.61,5.34,5.34,0,0,0,1.45.19,3.27,3.27,0,0,0,2-.5,1.46,1.46,0,0,0,.71-1.21,1.5,1.5,0,0,0-.59-1.17,5.09,5.09,0,0,0-2.14-.82,7.39,7.39,0,0,1-2.72-1,2,2,0,0,1-.89-1.71,2.23,2.23,0,0,1,1-1.84,4.25,4.25,0,0,1,2.63-.75,6.4,6.4,0,0,1,2.06.32,4.26,4.26,0,0,1,1.53.87Z"/><path class="cls-3" d="M587.41,147.5h-1.3v-1.45h1.3Z"/><circle class="cls-4" cx="91" cy="114.01" r="88"/><path class="cls-3" d="M91,29A85,85,0,1,1,6,114,85,85,0,0,1,91,29m0-6a91,91,0,1,0,91,91A91.1,91.1,0,0,0,91,23Z"/><path class="cls-2" d="M90.78,29.16a84.78,84.78,0,1,0,84.77,84.78A84.78,84.78,0,0,0,90.78,29.16Zm0,163.9a79.13,79.13,0,1,1,79.12-79.12A79.12,79.12,0,0,1,90.78,193.06Z"/><path class="cls-2" d="M130.79,52.35a2.83,2.83,0,0,0-3.92.83l-4.62,7.1a2.82,2.82,0,0,0,.9,4,38.83,38.83,0,0,1,3.17,2.26c.63.48,1.27,1,1.77,1.32.88.72,1.72,1.48,2.56,2.25l-2,2a56.15,56.15,0,0,0-12.39-8.49l5.78-13a2.83,2.83,0,0,0-1.43-3.74,74.1,74.1,0,0,0-26-6.2,2.82,2.82,0,0,0-3,2.68l-.44,8.46a2.83,2.83,0,0,0,2.67,3l3,.15,3.17.49,1.22.18c.61.09,1.22.17,1.76.3l.39.1-.74,2.77a57.48,57.48,0,0,0-15-1.22L86.21,43.38a2.77,2.77,0,0,0-1-1.9,2.87,2.87,0,0,0-2.07-.62,72.75,72.75,0,0,0-25.68,7.66,2.82,2.82,0,0,0-1.23,3.8l3.86,7.55a2.83,2.83,0,0,0,3.7,1.28l1.69-.82a29.23,29.23,0,0,1,4-1.73l.73-.27c.85-.32,1.67-.62,2.49-.9l.73,2.74c-.7.23-1.37.48-2,.73l-.67.26a25.26,25.26,0,0,0-4,1.7c-.49.24-1,.48-1.7.82l-4.79,2.76-.33.18L51.57,55.17a2.82,2.82,0,0,0-4-.62A73.42,73.42,0,0,0,29.19,73.93,2.81,2.81,0,0,0,30,77.84l7.11,4.63a2.83,2.83,0,0,0,3.95-.91,36.28,36.28,0,0,1,2.25-3.16c.49-.64,1-1.28,1.33-1.78.72-.87,1.48-1.71,2.25-2.55l2,2a56.15,56.15,0,0,0-8.49,12.39l-13-5.78a2.83,2.83,0,0,0-3.74,1.43,74.15,74.15,0,0,0-6.2,26.05,2.83,2.83,0,0,0,2.68,3l8.47.44a2.85,2.85,0,0,0,2-.72,2.79,2.79,0,0,0,.92-2l.15-3,.48-3.16c.08-.41.13-.82.19-1.23.09-.61.18-1.23.3-1.75l.1-.39,2.77.74a57.37,57.37,0,0,0-1.22,15L20.22,118.5a2.82,2.82,0,0,0-2.51,3.11,73.64,73.64,0,0,0,7.65,25.67,2.8,2.8,0,0,0,3.8,1.23l7.55-3.85A2.83,2.83,0,0,0,38,141c-.26-.56-.53-1.11-.8-1.66a29.88,29.88,0,0,1-1.75-4.07l-.27-.74c-.32-.85-.62-1.66-.89-2.47l2.77-.74a55.8,55.8,0,0,0,6.45,13.52L32,153.14a2.82,2.82,0,0,0-.62,4,73.42,73.42,0,0,0,19.38,18.43,2.81,2.81,0,0,0,3.91-.83l4.62-7.1a2.81,2.81,0,0,0,.39-2.17,2.85,2.85,0,0,0-1.28-1.79,33.72,33.72,0,0,1-3.17-2.26c-.64-.48-1.28-1-1.77-1.32-.88-.72-1.72-1.48-2.56-2.25l2-2c.75.69,1.53,1.39,2.47,2.16.55.39,1.09.8,1.62,1.21a34.36,34.36,0,0,0,3.15,2.22l5.05,2.9.06,0-5.79,13A2.83,2.83,0,0,0,60.9,181a73.93,73.93,0,0,0,26,6.2h.15a2.83,2.83,0,0,0,2.82-2.68l.44-8.46a2.82,2.82,0,0,0-2.67-3l-3-.15-3.17-.48-1.22-.19c-.62-.09-1.23-.17-1.76-.3l-.39-.1.74-2.77a57.41,57.41,0,0,0,15,1.22l1.46,14.14a2.85,2.85,0,0,0,1,1.9,2.89,2.89,0,0,0,2.08.62,73,73,0,0,0,25.68-7.65,2.82,2.82,0,0,0,1.23-3.8L121.5,168a2.81,2.81,0,0,0-3.7-1.28c-.57.26-1.13.54-1.7.81a29.45,29.45,0,0,1-4,1.74l-.72.27c-.85.31-1.67.62-2.49.89l-.74-2.77a55.8,55.8,0,0,0,13.52-6.45L130,172.7a2.82,2.82,0,0,0,3.94.62,73.26,73.26,0,0,0,18.43-19.38,2.78,2.78,0,0,0,.4-2.12,2.83,2.83,0,0,0-1.22-1.79l-7.11-4.62a2.82,2.82,0,0,0-4,.9,36.28,36.28,0,0,1-2.25,3.16c-.49.64-1,1.28-1.32,1.78-.73.87-1.49,1.72-2.26,2.55l-1.95-2a56.11,56.11,0,0,0,8.48-12.39l13,5.78a2.82,2.82,0,0,0,3.73-1.43,73.71,73.71,0,0,0,6.2-26,2.83,2.83,0,0,0-2.68-3l-8.46-.43a2.84,2.84,0,0,0-3,2.66l-.15,3-.48,3.17c-.07.4-.13.81-.19,1.22-.09.61-.17,1.23-.29,1.76l-.1.39-2.73-.73,0-.07c.15-.66.25-1.33.34-2,.05-.32.09-.63.15-1L147,120a2.7,2.7,0,0,0,0-.28l.14-3v-5.9l14.2-1.48a2.83,2.83,0,0,0,2.52-3.1,73.84,73.84,0,0,0-7.65-25.68,2.83,2.83,0,0,0-3.8-1.23l-7.55,3.85a2.82,2.82,0,0,0-1.28,3.71c.26.56.53,1.11.8,1.67a28.56,28.56,0,0,1,1.75,4.06l.27.75c.32.84.62,1.66.89,2.47l-2.77.74a55.69,55.69,0,0,0-6.45-13.53l11.48-8.35a2.83,2.83,0,0,0,1.13-1.85,2.77,2.77,0,0,0-.51-2.1A73.38,73.38,0,0,0,130.79,52.35Zm1.72,27.78A2.83,2.83,0,0,0,131.38,82a2.77,2.77,0,0,0,.51,2.1,50.44,50.44,0,0,1,8,16.7,2.84,2.84,0,0,0,3.46,2l8.19-2.19a2.83,2.83,0,0,0,2-3.32,41.26,41.26,0,0,0-1.85-5.84l-.22-.61A29.72,29.72,0,0,0,149.88,87l2.52-1.29a68.1,68.1,0,0,1,5.47,18.35l-14,1.45a2.83,2.83,0,0,0-2.53,3l.14,2.74v5.4l-.14,2.67-.41,2.59c-.06.37-.11.74-.17,1.11a13.81,13.81,0,0,1-.23,1.43l-.7,2.71a2.82,2.82,0,0,0,2,3.44l8.19,2.19a2.83,2.83,0,0,0,3.47-2l.83-3.23c.17-.75.29-1.51.4-2.28,0-.36.1-.72.17-1.13l.52-3.49,0-.44,2.77.15a68.12,68.12,0,0,1-4.42,18.6L141,133.17a2.84,2.84,0,0,0-3.73,1.44,50.71,50.71,0,0,1-10.48,15.3,2.82,2.82,0,0,0,0,4l6,6a2.76,2.76,0,0,0,2.08.83,2.79,2.79,0,0,0,2-.95l1.53-1.68c1-1.06,2-2.13,3-3.4.43-.61.88-1.2,1.33-1.79.32-.41.64-.83.95-1.25l2.37,1.54a67.89,67.89,0,0,1-13.17,13.86l-8.28-11.38a2.84,2.84,0,0,0-4-.63,50.22,50.22,0,0,1-16.69,8,2.84,2.84,0,0,0-2,3.46l2.2,8.19a2.81,2.81,0,0,0,3.32,2,41.93,41.93,0,0,0,5.86-1.85l.58-.22a27.29,27.29,0,0,0,3.83-1.58l1.29,2.52A68.82,68.82,0,0,1,100.66,181l-1.45-14a2.8,2.8,0,0,0-3.08-2.52A52,52,0,0,1,77.62,163a2.82,2.82,0,0,0-3.46,2L72,173.2a2.82,2.82,0,0,0,2,3.47l3.21.82c.76.18,1.53.29,2.3.41l1.12.17,3.49.52.44,0-.15,2.77A68.12,68.12,0,0,1,65.81,177l5.73-12.85a2.84,2.84,0,0,0-1.36-3.7l-2.34-1.12L63,156.52a27.21,27.21,0,0,1-2.57-1.83c-.61-.46-1.2-.92-1.64-1.22-.82-.67-1.6-1.39-2.38-2.1-.58-.54-1.16-1.07-1.76-1.6a2.84,2.84,0,0,0-3.86.14l-6,6a2.82,2.82,0,0,0,.12,4.11l1.66,1.51c1.07,1,2.15,2,3.42,3,.61.43,1.2.88,1.78,1.33l1.26.95-1.54,2.37A67.58,67.58,0,0,1,37.67,156l11.38-8.28a2.85,2.85,0,0,0,1.13-1.84,2.89,2.89,0,0,0-.51-2.11,50.51,50.51,0,0,1-8-16.69,2.82,2.82,0,0,0-3.45-2l-8.2,2.19a2.83,2.83,0,0,0-2,3.32,42.55,42.55,0,0,0,1.84,5.84l.23.6a29.23,29.23,0,0,0,1.58,3.84l-2.51,1.28a68.37,68.37,0,0,1-5.48-18.35l14-1.45a2.81,2.81,0,0,0,2.51-3.08,52,52,0,0,1,1.51-18.51,2.81,2.81,0,0,0-2-3.46l-8.19-2.19a2.79,2.79,0,0,0-2.15.29A2.84,2.84,0,0,0,28,97.15l-.82,3.23c-.18.75-.29,1.52-.4,2.28-.05.37-.1.73-.17,1.13l-.52,3.49,0,.44-2.77-.14A68.84,68.84,0,0,1,27.75,89L40.6,94.7a2.86,2.86,0,0,0,2.17,0,2.83,2.83,0,0,0,1.57-1.49A50.68,50.68,0,0,1,54.81,78a2.82,2.82,0,0,0,0-4l-6-6a2.82,2.82,0,0,0-4.11.12c-.5.57-1,1.12-1.53,1.68-1,1.07-2,2.13-3,3.4-.43.61-.89,1.2-1.34,1.79l-1,1.25-2.37-1.54A67.58,67.58,0,0,1,48.69,60.83L57,72.21a2.84,2.84,0,0,0,4,.62l.65-.5a10,10,0,0,1,1.39-1l4.62-2.68c.55-.24,1.09-.51,1.62-.77a22.44,22.44,0,0,1,3.31-1.42l.85-.31a27.78,27.78,0,0,1,4.09-1.3,2.83,2.83,0,0,0,2.16-3.5l-2.19-8.19a2.83,2.83,0,0,0-3.32-2A41.11,41.11,0,0,0,68.25,53l-.59.22a31.16,31.16,0,0,0-3.83,1.58l-1.29-2.51a68.48,68.48,0,0,1,18.35-5.48l1.45,14a2.79,2.79,0,0,0,3.08,2.52,52,52,0,0,1,18.51,1.51,2.81,2.81,0,0,0,3.46-2l2.19-8.19a2.84,2.84,0,0,0-2-3.47l-3.22-.82c-.76-.18-1.52-.29-2.29-.4l-1.13-.17-3.49-.52-.44,0,.15-2.77a68.77,68.77,0,0,1,18.6,4.42L110,63.76a2.82,2.82,0,0,0-.06,2.17,2.85,2.85,0,0,0,1.5,1.57A50.76,50.76,0,0,1,126.75,78a2.82,2.82,0,0,0,4,0l6-6a2.79,2.79,0,0,0,.82-2.08,2.84,2.84,0,0,0-.94-2c-.56-.49-1.11-1-1.66-1.5-1.08-1-2.15-2-3.43-3-.6-.43-1.19-.88-1.78-1.33l-1.26-1L130,58.68a68.1,68.1,0,0,1,13.85,13.17Z"/><path class="cls-2" d="M90.78,68.72a45.12,45.12,0,0,0-39,68,2.91,2.91,0,0,0,.17.3A45.53,45.53,0,0,0,63.49,149.9c.07,0,.11.13.19.17l.06,0a44.87,44.87,0,0,0,54.06,0l.07,0c.08,0,.13-.12.2-.17A45.49,45.49,0,0,0,129.59,137a1.83,1.83,0,0,0,.18-.3,45.13,45.13,0,0,0-39-68Zm-5.1,6L54.32,129.29A39.52,39.52,0,0,1,85.68,74.74ZM68.81,146.82l22-38.18,22,38.18a39.44,39.44,0,0,1-43.93,0Zm48.41-3.54L94.45,103.69a4.25,4.25,0,0,0-7.35,0L64.33,143.27a39.8,39.8,0,0,1-6.88-8.1l33.33-58,6.46,11.21c0,.08.08.17.13.25l26.73,46.51a39.7,39.7,0,0,1-6.88,8.09Zm10-14L102.4,86.08a2.1,2.1,0,0,0-.13-.26L95.88,74.74a39.53,39.53,0,0,1,31.36,54.55Z"/><g class="cls-5"><path class="cls-6" d="M80.32,66.3l3.52,13.54s.56,3.34-.65,4.55S76.33,92,76.33,92l-3.15,6.22,18.27,10.38,21.79-5.84-.65-15.3s-11.16-.71-17.66-5.6c-1.28-1-2.37-12.12-2.37-12.12Z"/><path class="cls-7" d="M93.16,74.66c-.34-2.5-.62-5-.62-5L80.3,66.21l1,3.77s3.83,2.5,5,3A23.2,23.2,0,0,0,93.16,74.66Z"/><path class="cls-6" d="M70.16,95.5s-8.73,4.93-9.53,5.74-7.05,6.39-7.05,6.39l-.24,20.28-8.1-19.32-7.05,3.12,10,30.07,5.51,8.55,4.17,1.57,6.14-28.37,8.85,5.54,10.85-7.92L76,101.73l-3.34-7.3Z"/><path class="cls-6" d="M37.89,111.62a9.48,9.48,0,0,1-4.16-3.49,33.59,33.59,0,0,1-4.37.23.66.66,0,0,1-.39-.09.73.73,0,0,1-.23-.48,42.41,42.41,0,0,0-2.25-7.9,1.33,1.33,0,0,1-.13-.7c.1-.42.59-.62,1-.66a2.66,2.66,0,0,0,1.26-.25c.48-.33.62-1.07,1.17-1.25s.95.16,1.37,0,.55-.75.86-1.13a3,3,0,0,1,1.88-.75,13.15,13.15,0,0,0,3.32-1.32.35.35,0,0,0,.19-.17.41.41,0,0,0,0-.19c-.51-2.37-1.59-4.75-2.1-7.12a54.25,54.25,0,0,1-.86-6.8,3.63,3.63,0,0,1,1.88-2.28.81.81,0,0,1,.7-.1,1,1,0,0,1,.42.74c.57,2.64,2.13,9.36,2.7,12,.37,1.69,3.42,5.9,4.08,6.4S45,97.42,45.75,98a1.94,1.94,0,0,1,.51.52,1.61,1.61,0,0,1,.13.75l.12,4.49c0,1.74,0,3.7-1.23,4.93Z"/><path class="cls-7" d="M44,95.92c-.91-.24-1.78-.82-2.76-.65A6.07,6.07,0,0,0,39,96.43c-2,1.35-3.38,3.41-5.51,4.53a.88.88,0,0,0-.17,1.37c1.21,1.18,3,2.57,4.76,2.17A5.58,5.58,0,0,0,41.8,101l-1.28.53a7.28,7.28,0,0,0,1.8,1c1.06.4,1.49-1.27.47-1.68-3.43-1.38-4.85,3.09-3.69,5.55.48,1,2,.13,1.51-.88s-.24-3.78,1.71-3l.47-1.68a4.11,4.11,0,0,1-1.39-.8.87.87,0,0,0-1.28.52c-1,2.76-3.84,2.24-5.58.55l-.18,1.37a18.06,18.06,0,0,0,3.82-3.16,14.49,14.49,0,0,1,2.19-1.71c1.05-.65,2-.3,3.16,0A.88.88,0,0,0,44,95.92Z"/><path class="cls-7" d="M37.05,99.25l-.4-2L35,97.68a2.28,2.28,0,0,0,1.28,1.57.89.89,0,0,0,1.19-.31.87.87,0,0,0-.31-1.19.7.7,0,0,1-.48-.53.89.89,0,0,0-1.08-.61.88.88,0,0,0-.6,1.07l.4,2a.88.88,0,0,0,1.07.61.89.89,0,0,0,.61-1.07Z"/><path class="cls-6" d="M73.12,60.67s7.08,12.61,28.22,12.62c8.75,0,12-2.05,12.49-4.89,3.1-17.84-3.49-40.41-12.64-47.3-8-6-36.48,16.82-36.48,16.82l6.06,13.6s-6.19-6.67-8.66-3,5.38,11.56,5.38,11.56S71,62.78,73.12,60.67Z"/><path class="cls-6" d="M115.37,89.27c2.1-1.11,4,1.51,4,1.51l21.34,37.35-18.42,33s6.18,10.39,3.09,15.09l4.27,4.27s.68,2.28-2.41,2.28-10.39-5.44-10.39-5.44l.85-23.29,13.75-24.79-12.63-18.78-4-3.5S111.45,91.35,115.37,89.27Z"/><path class="cls-6" d="M93.21,193.81,75.34,238.62s-2.3,8.49-5,11.23a120.25,120.25,0,0,1-6.77,19.56c-4.63,10.39-6.68,24.68-6.68,24.68s4.22,10.71,3.71,15.53c0,0,4,5.57,2.42,8.76s-8,1.3-8,1.3-10.62,1.39-12.2-1.25,2-9.74,2-9.74-.51-5.65,1.34-6.95a22.91,22.91,0,0,0,4.08-4.45s-.69-1.86,1.26-4.36,4.82-18.57,4.82-20.67-2.6-17.81,6.06-24c0,0,2.1-42.66,8-48.6s22.81-9.46,22.81-9.46Z"/><path class="cls-8" d="M93.21,193.81,87.5,208.14s-7.91,3.53-9.91,4c-1.48.37-12.06,3.64-11.7,1.5,1.11-6.67,2.64-12.13,4.51-14,5.93-5.94,22.81-9.46,22.81-9.46Z"/><path class="cls-6" d="M99.58,187.18s15,56.51,16.08,59.11-4.73,7.64,5.47,43.44c0,0-.65,4.73-1.58,6.4s-3.06,5.93-.37,7.42,11.41,8.9,15.12,9.55S145,310.5,145,310.5s3.71-1.39,2.55-2.55c0,0-3.38-.14-4.49-1.25s-13.73-11-13.73-11-3.9-5-3.9-5.35S122.61,246,122.61,246s1-2.78,0-8.44-.52-41.3-.52-41.3Z"/><path class="cls-8" d="M99.58,187.18s3.52,13.25,4.57,17.17c.4,1.5,17.84,2.71,17.84,2.71l.1-10.85Z"/><path class="cls-9" d="M99.58,198.37c2.89,5.74,23.23,6.95,24.92,7.48,0,0,.53-23-2.72-36S99.58,198.37,99.58,198.37Z"/><path class="cls-10" d="M74.85,55.6c3.58,1.49.49-4.94.49-4.94s-.34-6.45-2.16-7.54a25.94,25.94,0,0,1-4-3.26L103.41,16.4s3.47-4.82-4.45-7.79a9.4,9.4,0,0,0-9.58-2.84s-3.47-4.14-8.47-.34c0,0-10.08-.59-12.37,4.36a3.77,3.77,0,0,0-3.71,2.1s-2.1.8-2.5,2.5c0,0-5.1,2-5.41,5.41,0,0-2.79,3.9-.56,7.05,0,0-1.47,2.77.43,4.67,0,0-4.26,4.67,0,7.58,0,0-1,3,5.2,4.26l1.85,3.83s1.79-.81,6.93,4.33Z"/><path class="cls-7" d="M99.76,56.24a1.5,1.5,0,0,1,0-3c1.24,0,4.68-1,7.17-1.88-.83-6.16-4.79-10.77-7.16-13a1.5,1.5,0,1,1,2.07-2.17c2.83,2.71,7.66,8.4,8.2,16.14l.08,1.13-1.07.38C108.36,54.05,102.18,56.24,99.76,56.24Z"/><ellipse class="cls-11" cx="88.73" cy="42.28" rx="1.66" ry="2.27" transform="translate(-7.63 22.9) rotate(-14.1)"/><path class="cls-11" d="M86.18,42.14h-.07a1.5,1.5,0,0,1-1.43-1.56c0-.34.21-3.39,2.45-4.61,1.46-.78,3.26-.55,5.35.7A1.5,1.5,0,0,1,91,39.24c-1.07-.63-1.94-.86-2.39-.63s-.85,1.58-.88,2.11A1.5,1.5,0,0,1,86.18,42.14Z"/><ellipse class="cls-11" cx="104.15" cy="37.63" rx="1.66" ry="2.27" transform="translate(-6.03 26.51) rotate(-14.1)"/><path class="cls-11" d="M101.17,37.19a1.39,1.39,0,0,1-.4-.06,1.49,1.49,0,0,1-1-1.84c.09-.33,1-3.26,3.42-3.94,1.6-.44,3.3.19,5.06,1.87a1.5,1.5,0,1,1-2.07,2.17c-.9-.86-1.69-1.28-2.18-1.15-.66.18-1.19,1.35-1.34,1.86A1.49,1.49,0,0,1,101.17,37.19Z"/><path class="cls-12" d="M92.53,58.13c-.2-.21,12.25.78,17-2.72,0,0,.94,9.48-3.3,10.51S96.81,65.24,92.53,58.13Z"/><g class="cls-13"><path class="cls-14" d="M91.71,59.62s11.66,3.33,16.83-1.85l-.65-2.36L90.82,56.56Z"/><path class="cls-15" d="M93.77,63.89s3.74-3.62,9.7-1.21,0,6.77,0,6.77Z"/></g><path class="cls-7" d="M103.69,67.26c-5.66,0-10.19-5.27-12-8.65L90.79,57l1.79.09c.12,0,11.47.56,16.42-2.56a1,1,0,0,1,1.38.31,1,1,0,0,1-.31,1.38c-4.23,2.66-12.06,3-15.69,2.92,1.93,2.74,6.54,8,12.39,5.41a1,1,0,0,1,.79,1.84A9.61,9.61,0,0,1,103.69,67.26Z"/><path class="cls-7" d="M70.49,59.25S70.3,51.14,64,49.19"/><path class="cls-7" d="M64.05,123.53s5.35-7.17,4.65-6.08c-3.92,6.06,10,13.06,13.29,9.32a8.36,8.36,0,0,1-9.09,2.3Z"/><path class="cls-16" d="M76.33,92s-5.94,2.19-8.7,5c0,0,16.65,24.14,5.27,32.12,0,0,10.48,20,9.37,24.1s-19.73,56.05-19.73,56.05,57.5-1,59.55-38.61L119.37,149a181.59,181.59,0,0,0,1.6-22c.12-10.56-1-22.7-1.88-31a13.41,13.41,0,0,0-3.9-8.41l-5.42-.5s4.27,14.32-5.62,15.68C98.82,103.54,86,105.26,76.33,92Z"/><g class="cls-17"><path class="cls-18" d="M64.68,210.63s57.5-1,59.55-38.61Z"/></g><path class="cls-16" d="M76.33,92s-5.94,2.19-8.7,5c0,0,16.65,24.14,5.27,32.12,0,0,10.48,20,9.37,24.1s-19.73,56.05-19.73,56.05,57.5-1,59.55-38.61L119.37,149a181.59,181.59,0,0,0,1.6-22c.12-10.56-1-22.7-1.88-31a13.41,13.41,0,0,0-3.9-8.41l-5.42-.5s4.27,14.32-5.62,15.68C98.82,103.54,86,105.26,76.33,92Z"/><path class="cls-19" d="M81,157.38s30.31,4,38.73-5.61c0,0,.91-1.9-.35-2.8.18,1.78-14.24,9.55-37.1,4.64A2.49,2.49,0,0,0,81,157.38Z"/><circle class="cls-20" cx="106.17" cy="155.92" r="7.07"/><g class="cls-21"><path class="cls-22" d="M72.6,19.12s-3,3.68.81,6.14c1.35.86-4,5-4,5l-2.15,12.1a16.09,16.09,0,0,1,4.63-1.12l9.76,11.19L75.4,56.35l-20-13.46L42.14,17.21,59.27,1.66,78-2.7,74.71,3.82s-7.95,4.86-4.92,8.36A4,4,0,0,0,72.6,19.12Z"/></g><path class="cls-23" d="M63.93,47.19s-3.58-1.6-3.58-4.57,14-31,43.16-26.22c0,0,4.51,3.16,3,4.7,0,0,2.79,3.46.56,5.31S94,25.55,63.93,47.19Z"/><path class="cls-24" d="M65.51,40.65s18.67-22.76,38.64-19.79C104.15,20.86,85.54,21.85,65.51,40.65Z"/><path class="cls-25" d="M107,162.11a7.16,7.16,0,0,1-5.28-2.06c-1.42-1.58-1.82-3.86-1.19-6.77a1.5,1.5,0,0,1,2.93.63c-.41,1.91-.25,3.3.49,4.13a4.44,4.44,0,0,0,3.37,1.06,1.5,1.5,0,0,1,.3,3S107.32,162.11,107,162.11Z"/><path class="cls-26" d="M110.45,159.72a1.86,1.86,0,0,1-.33,0,1.5,1.5,0,0,1-1.14-1.79c.42-1.91.27-3.3-.46-4.13a4.47,4.47,0,0,0-3.37-1.08,1.5,1.5,0,0,1-.28-3c.15,0,3.75-.34,5.88,2.07,1.42,1.59,1.8,3.87,1.16,6.78A1.51,1.51,0,0,1,110.45,159.72Z"/><path class="cls-7" d="M34,108.65a1.93,1.93,0,0,0,0-3.3c-.79-.6-1.81.72-1.06,1.37a3.55,3.55,0,0,0,2.92,1.19A2.43,2.43,0,0,0,37.84,106l-1.28.52a2.74,2.74,0,0,0,2.83.09c1-.51.12-2-.88-1.51a1,1,0,0,1-1.08-.08.88.88,0,0,0-1.28.52c-.24,1.24-1.33.47-1.91,0l-1.05,1.37,0,.29c-.91.64,0,2.15.88,1.51Z"/><path class="cls-7" d="M29.13,97.48c.41,1.88.85,3.76,1.35,5.63a.87.87,0,0,0,1.68-.47q-.73-2.79-1.35-5.63c-.24-1.09-1.92-.63-1.68.47Z"/><path class="cls-7" d="M52.38,127.68a17.35,17.35,0,0,1,2,6.85c.09,1.11,1.83,1.12,1.74,0a19.72,19.72,0,0,0-2.21-7.73c-.52-1-2-.11-1.51.88Z"/><path class="cls-27" d="M85.11,3.82a6,6,0,0,1,4.27,1.95A10.18,10.18,0,0,1,92,5.43a9.42,9.42,0,0,1,7,3.18c7.69,2.89,4.64,7.52,4.46,7.78h.09s4.51,3.16,3,4.7c0,0,2.79,3.46.56,5.31a2.27,2.27,0,0,1-.81.41c6.33,9.85,10.1,27.24,7.61,41.58-.49,2.84-3.74,4.89-12.48,4.89h0a48.13,48.13,0,0,1-8.46-.75c.09.66.18,1.39.28,2.12h0c.44,3.13,1.08,6.68,1.78,7.2,4.46,3.35,11.1,4.74,14.84,5.28l5.42.5a15.19,15.19,0,0,1,1.2,1.37h.06c1.63,0,2.91,1.78,2.91,1.78l21.34,37.35-18.42,33s6.18,10.39,3.09,15.09l4.27,4.27s.68,2.28-2.41,2.28a9.28,9.28,0,0,1-3.59-1.16,234.79,234.79,0,0,1,.86,24.2c-.3-.09-1.21-.21-2.49-.37l0,1.58h0c-.06,11,0,26.84.62,30.45,1,5.66,0,8.44,0,8.44s2.78,44,2.78,44.36,3.9,5.35,3.9,5.35,5.15,4,9.16,7.27h0a11.6,11.6,0,0,1,3.35,1.42,3.31,3.31,0,0,1,1,2.11l1.21.84a13.16,13.16,0,0,0,3.48.65c.55.55,0,1.15-.72,1.63.41.43.65.8.58,1.05-.26,1-4,4.89-10.74,4.89-.38,0-.77,0-1.16,0-7.08-.46-16.9-8-17.7-10.11a6.24,6.24,0,0,1,.1-4.24,11.58,11.58,0,0,1,1.68-5c.93-1.67,1.58-6.4,1.58-6.4-10.2-35.8-4.36-40.84-5.47-43.44-.75-1.75-7.78-27.95-12.3-44.87A12.37,12.37,0,0,1,101,200a73.23,73.23,0,0,1-12.25,4.85l-1.29,3.25L75.34,238.62s-2.3,8.49-5,11.23a120.25,120.25,0,0,1-6.77,19.56c-4.63,10.39-6.68,24.68-6.68,24.68s3.33,8.43,3.72,13.7c3.9,5.35,7.41,12,2.76,13.9a26.68,26.68,0,0,1-10.13,1.78c-5.61,0-10.64-1.31-11.81-2.48-1.88-1.89,3.47-16.17,3.47-16.17a4.52,4.52,0,0,1,1.28-3.08,22.86,22.86,0,0,0,4.08-4.46s-.69-1.85,1.26-4.35,4.82-18.57,4.82-20.67-2.6-17.81,6.06-24c0,0,1-20.08,3.53-34.61h0c.27-1.65.57-3.22.9-4.68-2.66.22-4.25.24-4.25.24s13.89-38.78,18.39-52a2.42,2.42,0,0,1,1.19-3.58l.15-.5c1.11-4.08-9.37-24.1-9.37-24.1l-8.85-5.54L57.91,151.9l-4.17-1.57-5.51-8.55-10-30.07-.3-.09a9.48,9.48,0,0,1-4.16-3.49,34.22,34.22,0,0,1-3.92.23h-.45a.66.66,0,0,1-.39-.09.73.73,0,0,1-.23-.48,42.41,42.41,0,0,0-2.25-7.9,1.33,1.33,0,0,1-.13-.7c.1-.42.59-.62,1-.66a2.66,2.66,0,0,0,1.26-.25c.48-.33.62-1.07,1.17-1.25a.86.86,0,0,1,.28,0c.25,0,.52.08.77.08a.7.7,0,0,0,.32-.06c.45-.18.55-.75.86-1.13a3,3,0,0,1,1.88-.75,13.15,13.15,0,0,0,3.32-1.32.35.35,0,0,0,.19-.17.41.41,0,0,0,0-.19c-.51-2.37-1.59-4.75-2.1-7.12a54.25,54.25,0,0,1-.86-6.8,3.63,3.63,0,0,1,1.88-2.28,1.08,1.08,0,0,1,.48-.15.54.54,0,0,1,.22.05,1,1,0,0,1,.42.74c.57,2.64,2.13,9.36,2.7,12,.37,1.69,3.42,5.9,4.08,6.4S45,97.42,45.75,98a1.94,1.94,0,0,1,.51.52,1.61,1.61,0,0,1,.13.75l.12,4.49c0,1.74,0,3.7-1.23,4.93h0l8,19.1-.16-.54c.08.14.15.28.22.42l.23-20s6.24-5.59,7.05-6.39c.52-.52,4.35-2.77,7-4.29h0c2.76-2.77,8.7-5,8.7-5s5.66-6.4,6.86-7.6.65-4.55.65-4.55l-3.09-11.9a23.23,23.23,0,0,1-7.63-7.27,2.75,2.75,0,0,1-2,.81,7.13,7.13,0,0,1-3.61-1.36s-7.85-7.85-5.38-11.56a2.33,2.33,0,0,1,2-1.13c1.61,0,3.54,1.34,4.9,2.48-2.79-2.43-4.28-2.76-4.88-2.76H64l0,0h-.09l0,0c-.58-.3-3.21-1.74-3.44-4.18-4.43-1.39-3.58-3.86-3.58-3.86-4.26-2.91,0-7.58,0-7.58-1.9-1.9-.43-4.67-.43-4.67-2.23-3.15.56-7,.56-7,.31-3.4,5.41-5.41,5.41-5.41.4-1.7,2.5-2.5,2.5-2.5a3.71,3.71,0,0,1,3.43-2.11h.28c1.85-4,8.78-4.38,11.38-4.38.62,0,1,0,1,0a6.88,6.88,0,0,1,4.2-1.61M120,149.93l11.45-20.64L120.55,113.1c.29,4.65.47,9.43.42,13.92a181.59,181.59,0,0,1-1.6,22,1.56,1.56,0,0,1,.62,1m22.55,156.35h0M85.12.34h0a9.91,9.91,0,0,0-5.26,1.58c-3.8,0-10.1.66-13.32,4.56a7.05,7.05,0,0,0-4.16,2.74,7.8,7.8,0,0,0-2.7,2.57c-1.94,1-5.26,3.22-6.08,6.73a10.14,10.14,0,0,0-1,8.61,7.68,7.68,0,0,0,.11,4.21,9,9,0,0,0-1.22,5.35,7.06,7.06,0,0,0,1.89,4,6.4,6.4,0,0,0,.52,1.5,7.65,7.65,0,0,0,3.63,3.35,8.34,8.34,0,0,0,1.22,1.93c-1.26,2.71-.49,6.13,2.27,10.19a37.61,37.61,0,0,0,4,4.89l.17.17.19.15A10.36,10.36,0,0,0,71.1,65a7.19,7.19,0,0,0,.81,0,29.83,29.83,0,0,0,5.8,5.2l2.71,10.42a6.78,6.78,0,0,1,0,1.67c-1.35,1.41-4.77,5.26-6.17,6.84-1.85.75-6.09,2.62-8.76,5.09-6.44,3.71-7,4.24-7.36,4.63-.53.54-4.52,4.13-6.9,6.27l-1.14,1,0,1.53,0,3.48-.86-2a12.26,12.26,0,0,0,.79-5.37l-.11-4.48a5,5,0,0,0-.54-2.29A4.9,4.9,0,0,0,48,95.28l0-.06a6.66,6.66,0,0,0-1.39-1.58,22.83,22.83,0,0,1-2.94-4.52c-.29-1.35-.83-3.72-1.35-6s-1.06-4.66-1.34-6A4.28,4.28,0,0,0,38.53,74a3.93,3.93,0,0,0-1.69-.37,4.45,4.45,0,0,0-2.16.57,7,7,0,0,0-3.67,5c-.19,1.82.91,7.85.93,7.91A35.28,35.28,0,0,0,33.08,91l.24.71-.09,0-.22,0a5.88,5.88,0,0,0-3.56,1.79,5.47,5.47,0,0,0-.7.16,4.45,4.45,0,0,0-2,1.39A4.38,4.38,0,0,0,23,98.47a4.53,4.53,0,0,0,.29,2.69,39.73,39.73,0,0,1,2.07,7.25,4,4,0,0,0,4,3.43h.49c.79,0,1.58,0,2.37-.08a13,13,0,0,0,3.18,2.49l9.56,28.62.14.42.24.37,5.51,8.55.63,1,1.07.4,4.17,1.58,3.78,1.42.86-4,5.09-23.52,3.83,2.4c.8,1.56,2.58,5.1,4.33,8.95,3.19,7,4,10.1,4.23,11.32a5.61,5.61,0,0,0-1.56,5.48c-4.8,14-17.85,50.4-18,50.78l-1.7,4.75,5-.09c0,.1,0,.2,0,.3l-.11.5v.08c-2.1,12.31-3.11,28-3.4,32.95-7.72,7-6.6,20.18-6.23,24.68,0,.4.08.9.08,1-.06,2.31-2.8,16.38-4.12,18.56a9,9,0,0,0-2.07,5.45,15.33,15.33,0,0,1-2.48,2.6c-1.43,1-2.31,2.67-2.68,5.08-.38,1-1.47,4.09-2.4,7.31-2,7.05-2.07,10.24-.13,12.18C41.34,325.86,48,327,53.2,327a30.11,30.11,0,0,0,11.47-2,6.85,6.85,0,0,0,4.09-4.5c1-3.46-.57-7.89-4.82-13.9a65.42,65.42,0,0,0-3.5-12.8c.52-3.19,2.53-14.49,6.27-22.87a127.54,127.54,0,0,0,6.78-19.34c2.73-3.45,4.66-10,5.16-11.77l12.09-30.3.68-1.7a78.38,78.38,0,0,0,9.08-3.54c9.57,35.88,11.34,41.77,11.81,43.1,0,.26-.1.69-.16,1.05-.71,4.22-2.35,14.07,5.42,41.62a22.42,22.42,0,0,1-1.07,4.48,14.84,14.84,0,0,0-2.09,6.07,9.53,9.53,0,0,0,.1,6.1c1.09,2.84,6.3,6.35,7.87,7.36,2.69,1.73,7.93,4.66,12.86,5,.46,0,.93,0,1.39,0,8,0,13.37-4.78,14.1-7.46a3.65,3.65,0,0,0,.12-1.39,4,4,0,0,0,.35-1.31,4.12,4.12,0,0,0-1.22-3.35l-1-1-1.36-.06a11.5,11.5,0,0,1-1.83-.25,6.14,6.14,0,0,0-1.79-2.54,12,12,0,0,0-4-1.91c-3.28-2.63-7.15-5.68-8.3-6.58-1.12-1.45-2.36-3.09-3-3.95-.15-2.55-.7-11.42-2.69-42.92a23.36,23.36,0,0,0-.09-9.43c-.2-1.14-.66-6-.58-27.08l2.41.77.11-4.65c0-.44.21-9.58-.46-19.63a5.72,5.72,0,0,0,4.67-2.18,5.34,5.34,0,0,0,.79-4.59l-.25-.84-.63-.63-2.66-2.66c1.12-4.91-1.52-11-3.17-14.22l17.47-31.35,1-1.72-1-1.71L122.39,89.05l-.09-.16-.11-.15a8.32,8.32,0,0,0-3.94-2.94c-.19-.22-.39-.42-.6-.63l-.89-.89-1.25-.12-5.32-.49c-3.15-.46-8.74-1.6-12.59-4.19A25.54,25.54,0,0,1,97,76.59c1.43.12,2.89.18,4.36.18,3.61,0,14.58,0,15.92-7.77,2.32-13.31-.46-30.22-6.61-41.54,1.22-2.13.81-4.72-.37-6.91a4.42,4.42,0,0,0,0-.63,7.92,7.92,0,0,0-2.71-4.72,7.66,7.66,0,0,0-.24-3.49c-.81-2.58-2.94-4.61-6.33-6a12.83,12.83,0,0,0-9-3.73,14.44,14.44,0,0,0-1.59.1A9.16,9.16,0,0,0,85.12.34Zm39.06,134.85c.14-2.52.25-5.26.28-8.13,0-.62,0-1.25,0-1.89l2.88,4.29-3.17,5.73Z"/><polyline class="cls-6" points="37.89 111.62 38.37 111.9 45.75 108.9"/></g></svg>